<svg xmlns="http://www.w3.org/2000/svg" viewBox="0 0 669 745.3">
	<defs>
		<style>
			.cls-1{fill:#c1282e;}
			.cls-2{fill:none;stroke:#161616;stroke-linecap:round;stroke-linejoin:round;stroke-width:25px;}
			.cls-3{fill:#fff;}
			.cls-4{fill:#b4e85b;}
			.cls-5{fill:#8b6239;}
		</style>
	</defs>
	<g id="Слой_2" data-name="Слой 2">
		<g id="Layer_1" data-name="Layer 1">
			<g id="apple">
				<path class="cls-1" d="M530.5,185.3c-62-29-129.3,12-196,12-64.5,0-136-38-189-15.5-95.9,40.7-133,150.4-133,259,0,131.8,86.3,244.3,207.7,288.5,35.5,12.9,74-14,114.3-14,40.8,0,79.9,26.7,115.8,13.4,120.6-44.5,206.2-156.6,206.2-287.9C656.5,334.3,622.9,228.5,530.5,185.3ZM547.1,380c-34.7,19.9-40.4-25-66.2-44s-60.4-28.1-40.6-64.9c15-27.9,62.7-24,93,1.8C569.1,303.3,569.2,367.3,547.1,380Z"/>
				<path class="cls-2" d="M530.5,185.3c-62-29-129.3,12-196,12-64.5,0-136-38-189-15.5-95.9,40.7-133,150.4-133,259,0,131.8,86.3,244.3,207.7,288.5,35.5,12.9,74-14,114.3-14,40.8,0,79.9,26.7,115.8,13.4,120.6-44.5,206.2-156.6,206.2-287.9C656.5,334.3,622.9,228.5,530.5,185.3Z"/>
				<path class="cls-3" d="M480.9,336c25.8,19,31.5,63.9,66.2,44,22.1-12.7,22-76.7-13.8-107.1-30.3-25.8-78-29.7-93-1.8C420.5,307.9,455.1,316.9,480.9,336Z"/>
				<path class="cls-2" d="M480.9,336c25.8,19,31.5,63.9,66.2,44,22.1-12.7,22-76.7-13.8-107.1-30.3-25.8-78-29.7-93-1.8C420.5,307.9,455.1,316.9,480.9,336Z"/>
				<path class="cls-4" d="M327.4,64.6c48.9,44.3,48.7,82.5,25.1,108.5S290.9,203,242.1,158.7,175.5,12.5,175.5,12.5,278.5,20.2,327.4,64.6Z"/>
				<path class="cls-2" d="M327.4,64.6c48.9,44.3,48.7,82.5,25.1,108.5S290.9,203,242.1,158.7,175.5,12.5,175.5,12.5,278.5,20.2,327.4,64.6Z"/>
				<path class="cls-5" d="M443.5,38.3s-21-19-33,0-59,154-59,154,58.4-67.4,72-81C480.5,54.3,443.5,38.3,443.5,38.3Z"/>
				<path class="cls-2" d="M443.5,38.3s-21-19-33,0-59,154-59,154,58.4-67.4,72-81C480.5,54.3,443.5,38.3,443.5,38.3Z"/>
			</g>
		</g>
	</g>
</svg>