<svg xmlns="http://www.w3.org/2000/svg" viewBox="0 0 532.94 842.81">
	<defs>
		<style>
			.cls-1{fill:#3c91e5;}
			.cls-2{fill:none;stroke:#161616;stroke-linecap:round;stroke-linejoin:round;stroke-width:25px;}
			.cls-3{fill:#fff;}
		</style>
	</defs>
	<g id="Слой_2" data-name="Слой 2"><g id="Layer_1" data-name="Layer 1">
		<g id="baloon">
			<path class="cls-1" d="M358.47,560.71c50.8-16.1,197.8-234.9,153.9-382C468,30.21,328.87-9.79,196.47,23.41s-216.4,138.3-172,286.8c43.3,145.1,263.9,260.2,328.4,251.7-13.1,6.3-56.6,45.7-47,77.9,10.2,34.1,30.2-7.6,67.4-16.9s77.6,17.2,67.4-16.9C431.27,574.41,376.77,560.11,358.47,560.71Zm-36.3-457.2c15-27.9,62.7-24,93,1.8,35.8,30.4,35.9,94.4,13.8,107.1-34.7,19.9-40.4-25-66.2-44S302.37,140.31,322.17,103.51Z"/>
			<path class="cls-2" d="M512.37,178.71C468,30.21,328.87-9.79,196.47,23.41s-216.4,138.3-172,286.8c43.3,145.1,263.9,260.2,328.4,251.7-13.1,6.3-56.6,45.7-47,77.9,10.2,34.1,30.2-7.6,67.4-16.9s77.6,17.2,67.4-16.9c-9.4-31.6-63.9-45.9-82.2-45.3C409.27,544.61,556.27,325.81,512.37,178.71Z"/>
			<path class="cls-3" d="M362.77,168.41c25.8,19,31.5,63.9,66.2,44,22.1-12.7,22-76.7-13.8-107.1-30.3-25.8-78-29.7-93-1.8C302.37,140.31,337,149.31,362.77,168.41Z"/>
			<path class="cls-2" d="M362.77,168.41c25.8,19,31.5,63.9,66.2,44,22.1-12.7,22-76.7-13.8-107.1-30.3-25.8-78-29.7-93-1.8C302.37,140.31,337,149.31,362.77,168.41Z"/>
			<path class="cls-2" d="M339.17,562.11s-40.2,2.7-72.7,34.2-32.5,78-8.5,105,34.5,51-1.5,79.5S135,830.31,135,830.31"/>
		</g>
	</g>
	</g>
</svg>