<?xml version="1.0" encoding="utf-8"?>
<!-- Generator: Adobe Illustrator 22.1.0, SVG Export Plug-In . SVG Version: 6.00 Build 0)  -->
<svg version="1.1" xmlns="http://www.w3.org/2000/svg" xmlns:xlink="http://www.w3.org/1999/xlink" x="0px" y="0px"
	 viewBox="0 0 1024 1024" style="enable-background:new 0 0 1024 1024;" xml:space="preserve">
<style type="text/css">
	.st0{display:none;}
	.st1{fill:#3C91E5;}
	.st2{fill:#070707;}
	.st3{fill:#FFFFFF;}
	.st4{display:inline;}
	.st5{fill:#C1282E;}
	.st6{fill:#B4E85B;}
	.st7{fill:#8B6239;}
	.st8{fill:#FFDB43;}
	.st9{fill:#191919;}
	.st10{fill:#FF8327;}
	.st11{display:inline;fill:#1E1E1E;}
	.st12{fill:#CC50FF;}
	.st13{display:inline;fill:#CC50FF;}
	.st14{fill:#47F4F4;}
	.st15{fill:#161616;}
	.st16{display:inline;fill:none;stroke:#161616;stroke-width:25;stroke-linecap:round;stroke-miterlimit:10;}
	.st17{fill:#FF52C1;}
	.st18{display:inline;fill:#3774EF;}
	.st19{display:inline;fill:none;stroke:#070707;stroke-width:25;stroke-linecap:round;stroke-miterlimit:10;}
	.st20{display:inline;fill:#97EF5E;stroke:#070707;stroke-width:25;stroke-linecap:round;stroke-miterlimit:10;}
	.st21{display:inline;fill:#FFDB43;}
	.st22{display:inline;fill:#FF3636;}
	.st23{display:inline;fill:#2EE1FF;}
	.st24{display:inline;fill:none;stroke:#161616;stroke-width:25;stroke-linecap:round;stroke-linejoin:round;stroke-miterlimit:10;}
	.st25{display:inline;fill:#FFE131;}
	.st26{display:inline;fill:#EF45EF;}
	.st27{display:inline;fill:#FFE631;}
	.st28{display:inline;fill:none;stroke:#191919;stroke-width:25;stroke-linecap:round;stroke-linejoin:round;stroke-miterlimit:10;}
	.st29{display:inline;fill:#FF4343;}
	.st30{display:inline;fill:#353535;}
	.st31{display:inline;fill:#8B79AD;}
	.st32{display:inline;fill:#C29CEF;}
	.st33{display:inline;fill:#FF9494;}
	.st34{display:inline;fill:#191919;}
</style>
<g id="Layer_1" class="st0">
</g>
<g id="bow" >
	<path class="st23" d="M516,510c0,119.9-190.7,211.5-290.4,211.5s-48.5-95.2-48.5-215.1S126,287.1,225.6,287.1S516,390.1,516,510z"
		/>
	<path class="st24" d="M516,510c0,119.9-190.7,211.5-290.4,211.5s-48.5-95.2-48.5-215.1S126,287.1,225.6,287.1S516,390.1,516,510z"
		/>
	<path class="st23" d="M533,510c0,119.9,190.7,211.5,290.4,211.5s48.5-95.2,48.5-215.1s51.2-219.2-48.5-219.2S533,390.1,533,510z"/>
	<path class="st24" d="M533,510c0,119.9,190.7,211.5,290.4,211.5s48.5-95.2,48.5-215.1s51.2-219.2-48.5-219.2S533,390.1,533,510z"/>
	<circle class="st25" cx="525.5" cy="508.5" r="98"/>
	<circle class="st24" cx="525.5" cy="508.5" r="98"/>
	<path class="st24" d="M427.5,477.5c0,0-11.4-24.5-76-42c-37-10-70,0-70,0"/>
	<path class="st24" d="M427,519.3c0,0-14.9-13.3-81.5-7.8c-38.2,3.2-70,17.9-70,17.9"/>
	<path class="st24" d="M621.5,478.5c0,0,11.4-24.5,76-42c37-10,70,0,70,0"/>
	<path class="st24" d="M621.9,520.3c0,0,14.9-13.3,81.5-7.8c38.2,3.2,70,17.9,70,17.9"/>
</g>
</svg>
