<svg xmlns="http://www.w3.org/2000/svg" viewBox="0 0 746.09 459.4"><defs><style>.cls-1{fill:#2ee1ff;}.cls-2{fill:none;stroke:#161616;stroke-linecap:round;stroke-linejoin:round;stroke-width:25px;}.cls-3{fill:#ffe131;}</style></defs><g id="Слой_2" data-name="Слой 2"><g id="Layer_1" data-name="Layer 1"><g id="bow"><path class="cls-1" d="M276,233.9a98,98,0,0,1,54.3-87.7C270.84,68.6,147.64,12.5,74.14,12.5c-99.6,0-48.5,99.4-48.5,219.3s-51.2,215.1,48.5,215.1c73.8,0,197.5-50.2,256.8-125A97.87,97.87,0,0,1,276,233.9Z"/><path class="cls-2" d="M329.24,324c-59.9,73.6-182,122.9-255.1,122.9-99.7,0-48.5-95.2-48.5-215.1S-25.46,12.5,74.14,12.5c71.2,0,188.9,52.6,250.3,126.4,1.3,1.5,2.5,3.1,3.7,4.6"/><path class="cls-1" d="M671.94,12.6c-73.3,0-195.9,55.7-255.6,132.9a98,98,0,0,1-.6,177.1c59.5,74.4,182.6,124.3,256.2,124.3,99.7,0,48.5-95.2,48.5-215.1S771.64,12.6,671.94,12.6Z"/><path class="cls-2" d="M421.34,329.3c61.3,70.6,179.3,117.6,250.6,117.6,99.7,0,48.5-95.2,48.5-215.1s51.2-219.2-48.5-219.2c-73.3,0-195.9,55.7-255.6,132.9"/><circle class="cls-3" cx="374.04" cy="233.9" r="98"/><circle class="cls-2" cx="374.04" cy="233.9" r="98"/><path class="cls-2" d="M276,202.9s-11.4-24.5-76-42c-37-10-70,0-70,0"/><path class="cls-2" d="M275.54,244.7s-14.9-13.3-81.5-7.8c-38.2,3.2-70,17.9-70,17.9"/><path class="cls-2" d="M470,203.9s11.4-24.5,76-42c37-10,70,0,70,0"/><path class="cls-2" d="M472.44,245.7s14.9-13.3,81.5-7.8c38.2,3.2,70,17.9,70,17.9"/></g></g></g></svg>