<svg xmlns="http://www.w3.org/2000/svg" viewBox="0 0 943.77 726.21">
	<defs>
		<style>
			.cls-1{fill:#ffe631;}
			.cls-2,.cls-4,.cls-5{fill:none;stroke:#191919;stroke-linecap:round;stroke-linejoin:round;}
			.cls-2{stroke-width:25px;}
			.cls-3{fill:#ff4343;}
			.cls-4{stroke-width:25px;}
			.cls-5{stroke-width:25px;}
			.cls-6{fill:#353535;}
		</style>
	</defs>
	<g id="Слой_2" data-name="Слой 2">
		<g id="Layer_1" data-name="Layer 1">
			<g id="butterfly">
				<path class="cls-1" d="M400.13,286.21c-39-58-230-263-303-271s-98,53-78,112,50,115,50,150,4,199,46,204c35.1,4.2,291.6-74.9,291.6-74.9S402.63,290.11,400.13,286.21ZM227.33,312c-28.2,16.3-73.1-8.7-100.3-55.8s-26.4-98.5,1.8-114.8,73.1,8.7,100.3,55.8S255.63,295.71,227.33,312Z"/>
				<path transform="scale(-1, 1) translate(-950, 0) " class="cls-1" d="M400.13,286.21c-39-58-230-263-303-271s-98,53-78,112,50,115,50,150,4,199,46,204c35.1,4.2,291.6-74.9,291.6-74.9S402.63,290.11,400.13,286.21ZM227.33,312c-28.2,16.3-73.1-8.7-100.3-55.8s-26.4-98.5,1.8-114.8,73.1,8.7,100.3,55.8S255.63,295.71,227.33,312Z"/>
				
				
				<ellipse class="cls-4" cx="178.13" cy="228.7" rx="59" ry="98.5" transform="translate(-90.49 119.71) rotate(-30)"/>
				<ellipse class="cls-5" cx="765.6" cy="226.72" rx="98.5" ry="59" transform="translate(186.44 776.38) rotate(-60)"/>
				
				
			</g>
		</g>
	</g>
</svg>