<svg xmlns="http://www.w3.org/2000/svg" viewBox="0 0 943.77 726.21">
	<defs>
		<style>
			.cls-1{fill:#ffe631;}
			.cls-2,.cls-4,
			.cls-5{fill:none;stroke:#191919;stroke-linecap:round;stroke-linejoin:round;}
			.cls-2{stroke-width:25px;}.cls-3{fill:#ff4343;}.cls-4{stroke-width:25px;}.cls-5{stroke-width:25px;}.cls-6{fill:#353535;}
		</style>
	</defs>
<g id="Слой_2" data-name="Слой 2">
<g id="Layer_1" data-name="Layer 1">
	<g id="butterfly">
		<path class="cls-1" d="M400.13,286.21c-39-58-230-263-303-271s-98,53-78,112,50,115,50,150,4,199,46,204c35.1,4.2,291.6-74.9,291.6-74.9S402.63,290.11,400.13,286.21ZM227.33,312c-28.2,16.3-73.1-8.7-100.3-55.8s-26.4-98.5,1.8-114.8,73.1,8.7,100.3,55.8S255.63,295.71,227.33,312Z"/>
		<path class="cls-2" d="M406.53,296.41c-2-3.4-4.1-6.8-6.4-10.2-39-58-230-263-303-271s-98,53-78,112,50,115,50,150,4,199,46,204c35.9,4.3,237.7-57.9,295.5-76.1"/><path class="cls-1" d="M846.63,13.21c-73,8-264,213-303,271-4.7,7.5-5.2,120.6-5.2,120.6s255.3,78.6,290.2,74.4c42-5,46-169,46-204s30-91,50-150S919.63,5.21,846.63,13.21Zm-29.9,243c-27.2,47.1-72.1,72.1-100.3,55.8s-29-67.7-1.8-114.8,72.1-72.1,100.3-55.8S843.93,209.11,816.73,256.21Z"/>
		<path class="cls-2" d="M536.83,295.31c2.1-3.7,4.4-7.4,6.8-11.1,39-58,230-263,303-271s98,53,78,112-50,115-50,150-4,199-46,204c-35.8,4.3-236.1-57.5-294.8-75.9"/><path class="cls-3" d="M406.63,406s-281.2,64.4-302.5,100.2c-25,42-15,108,16,140,130.5,134.3,241.2,42.1,291.2-48.7C410.63,563.21,406.63,406,406.63,406Z"/>
		<path class="cls-2" d="M406.93,403.91c-63.3,14-281.5,64.4-302.8,100.3-25,42-15,108,16,140,129.9,133.7,240.2,42.9,290.5-47.4"/>
		<path class="cls-3" d="M538.53,404.31c65.6,14.5,279.9,64.4,301.1,99.9,25,42,15,108-16,140-128.9,132.7-238.5,44.3-289.4-45.4C533.63,587.21,538.43,490.51,538.53,404.31Z"/>
		<path class="cls-2" d="M536.83,403.91c63.3,14,281.5,64.4,302.8,100.3,25,42,15,108-16,140-126.3,130-234,47.8-286.2-39.9"/>
		<ellipse class="cls-3" cx="178.13" cy="228.7" rx="59" ry="98.5" transform="translate(-90.49 119.71) rotate(-30)"/>
		<ellipse class="cls-4" cx="178.13" cy="228.7" rx="59" ry="98.5" transform="translate(-90.49 119.71) rotate(-30)"/>
		<ellipse class="cls-3" cx="765.6" cy="226.72" rx="98.5" ry="59" transform="translate(186.44 776.38) rotate(-60)"/>
		<ellipse class="cls-5" cx="765.6" cy="226.72" rx="98.5" ry="59" transform="translate(186.44 776.38) rotate(-60)"/>
		<path class="cls-6" d="M472.13,711.71h0a61.71,61.71,0,0,1-61.5-61.5v-341a61.71,61.71,0,0,1,61.5-61.5h0a61.71,61.71,0,0,1,61.5,61.5v341A61.71,61.71,0,0,1,472.13,711.71Z"/>
		<path class="cls-2" d="M472.13,713.71h0a61.71,61.71,0,0,1-61.5-61.5v-341a61.71,61.71,0,0,1,61.5-61.5h0a61.71,61.71,0,0,1,61.5,61.5v341A61.71,61.71,0,0,1,472.13,713.71Z"/>
		<line class="cls-2" x1="502.63" y1="255.71" x2="554.63" y2="182.71"/><line class="cls-2" x1="392.63" y1="182.71" x2="441.63" y2="255.71"/></g></g></g></svg>