<?xml version="1.0" encoding="utf-8"?>
<!-- Generator: Adobe Illustrator 22.1.0, SVG Export Plug-In . SVG Version: 6.00 Build 0)  -->
<svg version="1.1" xmlns="http://www.w3.org/2000/svg" xmlns:xlink="http://www.w3.org/1999/xlink" x="0px" y="0px"
	 viewBox="0 0 1024 1024" style="enable-background:new 0 0 1024 1024;" xml:space="preserve">
<style type="text/css">
	.st0{display:none;}
	.st1{fill:#3C91E5;}
	.st2{fill:#070707;}
	.st3{fill:#FFFFFF;}
	.st4{display:inline;}
	.st5{fill:#C1282E;}
	.st6{fill:#B4E85B;}
	.st7{fill:#8B6239;}
	.st8{fill:#FFDB43;}
	.st9{fill:#191919;}
	.st10{fill:#FF8327;}
	.st11{display:inline;fill:#1E1E1E;}
	.st12{fill:#CC50FF;}
	.st13{display:inline;fill:#CC50FF;}
	.st14{fill:#47F4F4;}
	.st15{fill:#161616;}
	.st16{display:inline;fill:none;stroke:#161616;stroke-width:25;stroke-linecap:round;stroke-miterlimit:10;}
	.st17{fill:#FF52C1;}
	.st18{display:inline;fill:#3774EF;}
	.st19{display:inline;fill:none;stroke:#070707;stroke-width:25;stroke-linecap:round;stroke-miterlimit:10;}
	.st20{display:inline;fill:#97EF5E;stroke:#070707;stroke-width:25;stroke-linecap:round;stroke-miterlimit:10;}
	.st21{display:inline;fill:#FFDB43;}
	.st22{display:inline;fill:#FF3636;}
	.st23{display:inline;fill:#2EE1FF;}
	.st24{display:inline;fill:none;stroke:#161616;stroke-width:25;stroke-linecap:round;stroke-linejoin:round;stroke-miterlimit:10;}
	.st25{display:inline;fill:#FFE131;}
	.st26{display:inline;fill:#EF45EF;}
	.st27{display:inline;fill:#FFE631;}
	.st28{display:inline;fill:none;stroke:#191919;stroke-width:25;stroke-linecap:round;stroke-linejoin:round;stroke-miterlimit:10;}
	.st29{display:inline;fill:#FF4343;}
	.st30{display:inline;fill:#353535;}
	.st31{display:inline;fill:#8B79AD;}
	.st32{display:inline;fill:#C29CEF;}
	.st33{display:inline;fill:#FF9494;}
	.st34{display:inline;fill:#191919;}
</style>
<g id="butterfly">
	<path class="st27" d="M466,539c0,0,13-56-26-114S210,162,137,154s-98,53-78,112s50,115,50,150s4,199,46,204S466,539,466,539z"/>
	<path class="st28" d="M466,539c0,0,13-56-26-114S210,162,137,154s-98,53-78,112s50,115,50,150s4,199,46,204S466,539,466,539z"/>
	<path class="st27" d="M557.5,537c0,0-13-56,26-114s230-263,303-271s98,53,78,112s-50,115-50,150s-4,199-46,204S557.5,537,557.5,537
		z"/>
	<path class="st28" d="M557.5,537c0,0-13-56,26-114s230-263,303-271s98,53,78,112s-50,115-50,150s-4,199-46,204S557.5,537,557.5,537
		z"/>
	<path class="st29" d="M464,541c0,0-295,62-320,104s-15,108,16,140c171,176,308-37,319-126C488.3,583.4,464,541,464,541z"/>
	<path class="st28" d="M464,539c0,0-295,62-320,104s-15,108,16,140c171,176,308-37,319-126C488.3,581.4,464,539,464,539z"/>
	<path class="st29" d="M559.5,539c0,0,295,62,320,104s15,108-16,140c-171,176-308-37-319-126C535.2,581.4,559.5,539,559.5,539z"/>
	<path class="st28" d="M559.5,539c0,0,295,62,320,104s15,108-16,140c-171,176-308-37-319-126C535.2,581.4,559.5,539,559.5,539z"/>
	<ellipse transform="matrix(0.866 -0.5 0.5 0.866 -154.5435 158.2357)" class="st29" cx="218" cy="367.5" rx="59" ry="98.5"/>
	<ellipse transform="matrix(0.866 -0.5 0.5 0.866 -154.5435 158.2357)" class="st28" cx="218" cy="367.5" rx="59" ry="98.5"/>
	<ellipse transform="matrix(0.5 -0.866 0.866 0.5 86.2182 880.3344)" class="st29" cx="805.5" cy="365.5" rx="98.5" ry="59"/>
	<ellipse transform="matrix(0.5 -0.866 0.866 0.5 86.2182 880.3344)" class="st28" cx="805.5" cy="365.5" rx="98.5" ry="59"/>
	<path class="st30" d="M512,850.5L512,850.5c-33.8,0-61.5-27.7-61.5-61.5V448c0-33.8,27.7-61.5,61.5-61.5h0
		c33.8,0,61.5,27.7,61.5,61.5v341C573.5,822.8,545.8,850.5,512,850.5z"/>
	<path class="st28" d="M512,852.5L512,852.5c-33.8,0-61.5-27.7-61.5-61.5V450c0-33.8,27.7-61.5,61.5-61.5h0
		c33.8,0,61.5,27.7,61.5,61.5v341C573.5,824.8,545.8,852.5,512,852.5z"/>
	<line class="st28" x1="542.5" y1="394.5" x2="594.5" y2="321.5"/>
	<line class="st28" x1="432.5" y1="321.5" x2="481.5" y2="394.5"/>
</g>
</svg>
