<?xml version="1.0" encoding="utf-8"?>
<!-- Generator: Adobe Illustrator 26.0.1, SVG Export Plug-In . SVG Version: 6.00 Build 0)  -->
<svg version="1.0" id="Слой_1" xmlns="http://www.w3.org/2000/svg" xmlns:xlink="http://www.w3.org/1999/xlink" x="0px" y="0px"
	 viewBox="0 0 595.28 841.89" style="enable-background:new 0 0 595.28 841.89;" xml:space="preserve">
<style type="text/css">
	.st0{fill:#C48458;}
	.st1{fill:#FFFFFF;}
	.st2{fill:none;stroke:#000000;stroke-width:1.5;stroke-linecap:round;stroke-linejoin:round;stroke-miterlimit:10;}
</style>
<path class="st0" d="M322.67,293.2c8.81,10.62,72.79,81.28,159.33,6.82c0.74-0.64,0.85-1.75,0.26-2.53l-4.07-5.27
	c-0.64-0.83-0.46-2.03,0.4-2.63l6.49-4.55c0.71-0.5,0.98-1.43,0.63-2.24l-12.93-29.97c-0.2-0.47-0.2-1.01,0.01-1.47
	c2.05-4.57,12.49-30.7,1.48-68.55c-0.3-1.04-1.43-1.57-2.44-1.19c-18.02,6.74-32.05,22.85-35.52,27.09
	c-0.5,0.61-1.33,0.83-2.06,0.55c-5.96-2.28-32.23-11.28-51.03-0.69c-0.55,0.31-1.21,0.34-1.76,0.04
	c-5.31-2.8-32.89-17.35-41.06-21.67c-1.12-0.59-2.49,0.1-2.67,1.36c-1.45,10.05-6.21,46.83-0.65,60.41
	c0.22,0.53,0.21,1.12-0.07,1.62c-2.11,3.87-11.32,20.75-13.68,25.09c-0.34,0.62-0.29,1.38,0.13,1.96l4.39,6.02
	c0.53,0.73,0.46,1.73-0.17,2.37l-4.88,4.96C322.12,291.41,322.07,292.47,322.67,293.2z"/>
<path class="st1" d="M354.39,319.71c-0.97-0.54-1.25-1.81-0.58-2.7c2.58-3.43,10.14-11.04,28.29-14.67
	c11.96-2.4,16.92-8.66,19.58-11.53c1.52-1.64,2.43-3.73,2.78-5.93c1.25-7.8,5.31-32.92,6.11-34.62c1.26-2.66,4.85-12.38,12.8-1.47
	c0.06,0.08,0.11,0.16,0.15,0.25c0.58,1.11,4.53,9.11,8.77,28.57c0.02,0.07,0.03,0.14,0.06,0.21c0.45,1.25,5.27,13.47,21.27,18.48
	c11.62,3.64,14.92,7.36,15.84,9.32c0.35,0.73,0.15,1.6-0.46,2.14l-6.19,5.46c-0.13,0.11-0.27,0.2-0.42,0.28l-18.64,10.32
	c-0.17,0.08-15.03,5.68-15.22,5.71l-17.78,3.22c-0.18,0.03-11.45,0.36-11.63,0.33l-23.19-3.6c-0.15-0.03-1.67-0.48-1.81-0.54
	l-15.44-6.83c-0.05-0.02-0.1-0.05-0.15-0.07L354.39,319.71z"/>
<path class="st1" d="M464.86,340.9l-4.62-16.9c-0.28-1.01-1.34-1.59-2.34-1.27l-5.34,1.72l-25.03,7.81
	c-0.12,0.04-0.25,0.06-0.37,0.08l-25.12,2.4c-0.12,0.01-0.24,0.01-0.36,0l-16.26-1.66c-1.29-0.13-2.3,1.08-1.95,2.33
	c2.54,9.15,6.09,31.94-17.16,42.88c-0.31,0.14-0.57,0.37-0.76,0.66c-1,1.55-3.78,6.75,1.46,9.92c6.19,3.75,39.96,39.36-2.85,41.92
	c-0.15,0.01-0.31,0-0.47-0.03l-31.72-5.94c-1.48-0.28-2.64,1.24-2,2.6l0.47,0.99c0.18,0.39,0.47,0.72,0.83,0.96l11.11,7.46
	c0.16,0.11,0.33,0.19,0.51,0.24l18.86,5.46c0.17,0.05,0.35,0.07,0.53,0.07l39.7-0.42l13.08-0.47c0.06,0,0.13,0,0.19,0l12.83,0.85
	c0.43,0.03,0.86-0.1,1.21-0.35l3.99-2.91c0.76-0.55,1.81-0.45,2.44,0.24l1.93,2.1c0.35,0.38,0.84,0.59,1.35,0.59h11.87
	c0.29,0,0.58-0.07,0.84-0.2l4.58-2.36c0.47-0.24,0.81-0.67,0.94-1.18l4.4-17.41c0.01-0.05,0.02-0.1,0.03-0.14l5.66-33.44
	c0.01-0.09,0.02-0.18,0.03-0.26l0.68-29.24c0-0.13-0.01-0.26-0.03-0.38l-3.11-16.57C464.89,341,464.88,340.95,464.86,340.9z"/>
<path class="st0" d="M371.5,390.07c-5.43-3.07-3.05-7.97-1.83-9.88c0.32-0.5,0.81-0.9,1.38-1.15c28.29-12.65,20.1-40.24,17.73-46.66
	v0c-0.31-0.84-0.04-0.62-1.9-0.48c-0.09,0.01-0.7,0.14-0.78,0.11l-25.48-9.06c-1.24-2.12-9.94-6.58-10.81-5.44l-15.69,22.06
	c-5.96,7.84-12.38,16.39-15.44,25.57l-3.76,11.84c-3.42,10.26-1.61,22.99,2.7,32.96l8.95,13.75c0.42,0.98,1.51,0.17,1.56,2.03
	l0.77,0.67l38.78,6.76c0.28,0.05,0.56,0.06,0.84,0.05C415.53,430.48,378.33,393.93,371.5,390.07z"/>
<path class="st0" d="M317.72,412.07c0,0-62.86-26.84-47.23-101.31c0.01-0.04,0.02-0.08,0.03-0.13c0.3-1.03,4.37-14.59,13.97-12.33
	c9.39,2.21,10.47,15.34,10.56,16.88c0.01,0.09,0,0.18,0,0.27c-0.28,3.08-5.35,61.8,17.43,72.09"/>
<g>
	<path class="st2" d="M408.93,298.24c-0.68,1.06-1.3,2.19-1.56,3.43c-0.25,1.24-0.1,2.61,0.65,3.62c0.82,1.11,2.25,1.65,3.63,1.72
		s2.75-0.27,4.09-0.6c1.16-0.29,2.35-0.59,3.33-1.28c0.98-0.69,1.72-1.85,1.56-3.04c-0.12,1.16,0.59,2.3,1.56,2.95
		c0.97,0.65,2.16,0.9,3.32,0.99c1.96,0.16,3.94-0.05,5.82-0.62c0.38-0.12,0.77-0.26,1.03-0.56c0.29-0.34,0.35-0.8,0.4-1.24
		c0.14-1.19,0.27-2.38,0.41-3.57"/>
	<path d="M416.23,294.44c-1.27-1.12-2.24-2.69-2.26-4.39c0-0.4,0.05-0.81,0.26-1.14c0.13-0.2,0.32-0.37,0.51-0.51
		c1.48-1.14,3.48-1.55,5.29-1.11c0.41,0.1,0.84,0.02,1.22-0.18c1.29-0.66,2.8-1,4.1-0.4c1.11,0.51,1.82,1.6,2.48,2.63
		c0.2,0.32,0.41,0.64,0.49,1.01c0.16,0.7-0.13,1.41-0.49,2.03c-1.2,2.05-3.18,3.55-5.44,4.25
		C420.08,297.35,417.95,295.97,416.23,294.44z"/>
	<path d="M390.8,279.11c0,5.19-2.64,9.39-5.9,9.39c-8.12,0-9.84-5.23-9.84-10.42c0-5.19,5.66-10.09,9.84-8.37
		C387.91,270.96,390.8,273.93,390.8,279.11z"/>
	<path class="st2" d="M317.72,412.39c0,0-62.86-26.84-47.23-101.31c0.01-0.04,0.02-0.08,0.03-0.13c0.3-1.03,4.37-14.59,13.97-12.33
		c9.39,2.21,10.47,15.34,10.56,16.88c0.01,0.09,0,0.18,0,0.27c-0.28,3.08-5.35,61.8,17.43,72.09"/>
	<path class="st2" d="M398.5,399.62l12.45,38.48c0.32,1-0.25,2.07-1.27,2.34c-11.13,2.97-69.28,16.02-91.94-28.31
		c-0.02-0.03-0.03-0.06-0.05-0.1c-0.76-1.19-17.95-29.41,14.54-71.05l17.93-24.29 M439.08,398.22c-6.4,21.1-4.67,32.87-2.55,38.64
		c1.08,2.94,3.7,5.06,6.8,5.47c3.07,0.41,5.59,0.33,7.62-0.02c4.27-0.72,7.58-4.16,8.36-8.42l7.21-39.32
		c6.1-43.4-8.72-76.64-8.72-76.64 M411.54,439.91c0,0,13.3,8.15,19.94,0.59c0.32-0.37,0.45-0.86,0.4-1.35l-4.09-40.83"/>
	<path class="st2" d="M342.59,203.9l15.21,17.69c0.58,0.68,0.59,1.67,0.03,2.36l-20.4,25.08"/>
	<path class="st2" d="M468.05,200.32l-15.95,22.99c-0.46,0.66-0.43,1.54,0.06,2.18l20.29,26.07"/>
	<path class="st2" d="M328.76,284.16c0,0,15.88-2.02,26.04,3.54"/>
	<line class="st2" x1="334.47" y1="298.06" x2="353.65" y2="295.67"/>
	<line class="st2" x1="486.3" y1="286.4" x2="501.59" y2="283.8"/>
	<line class="st2" x1="486.3" y1="296.82" x2="504.8" y2="301.28"/>
	<ellipse cx="452.64" cy="278.16" rx="8.21" ry="9.54"/>
	<path class="st2" d="M322.67,292.69c8.81,10.62,72.79,81.28,159.33,6.82c0.74-0.64,0.85-1.75,0.26-2.53l-4.07-5.27
		c-0.64-0.83-0.46-2.03,0.4-2.63l6.49-4.55c0.71-0.5,0.98-1.43,0.63-2.24l-12.93-29.97c-0.2-0.47-0.2-1.01,0.01-1.47
		c2.05-4.57,12.49-30.7,1.48-68.55c-0.3-1.04-1.43-1.57-2.44-1.19c-18.02,6.74-32.05,22.85-35.52,27.09
		c-0.5,0.61-1.33,0.83-2.06,0.55c-5.96-2.28-32.23-11.28-51.03-0.69c-0.55,0.31-1.21,0.34-1.76,0.04
		c-5.31-2.8-32.89-17.35-41.06-21.67c-1.12-0.59-2.49,0.1-2.67,1.36c-1.45,10.05-6.21,46.83-0.65,60.41
		c0.22,0.53,0.21,1.12-0.07,1.62c-2.11,3.87-11.32,20.75-13.68,25.09c-0.34,0.62-0.29,1.38,0.13,1.96l4.39,6.02
		c0.53,0.73,0.46,1.73-0.17,2.37l-4.88,4.96C322.12,290.9,322.07,291.97,322.67,292.69z"/>
</g>
</svg>
