<svg xmlns="http://www.w3.org/2000/svg" viewBox="0 0 843.37 740.11"><defs><style>.cls-1{fill:#ff52c1;}.cls-2{fill:none;stroke:#070707;stroke-linecap:round;stroke-miterlimit:10;stroke-width:25px;}.cls-3{fill:#fff;}</style></defs><g id="Слой_2" data-name="Слой 2"><g id="Layer_1" data-name="Layer 1"><g id="heart"><path class="cls-1" d="M616.87,12.5a214.09,214.09,0,0,0-195,125.7,214.09,214.09,0,0,0-195-125.7c-118.2,0-214,95.8-214,214,0,0-28,170,404,498C654,549.7,756.07,420.7,799.67,337.8a212.86,212.86,0,0,0,25.5-62,442.27,442.27,0,0,0,5.7-49.3C830.87,108.3,735.07,12.5,616.87,12.5Zm115.6,199.7c-34.7,19.9-40.4-25-66.2-44s-60.4-28.1-40.6-64.9c15-27.9,62.7-24,93,1.8C754.47,135.5,754.57,199.5,732.47,212.2Z"/><path class="cls-2" d="M825.17,275.8a442.27,442.27,0,0,0,5.7-49.3c0-118.2-95.8-214-214-214a214.09,214.09,0,0,0-195,125.7,214.09,214.09,0,0,0-195-125.7c-118.2,0-214,95.8-214,214,0,0-28,170,404,498C654,549.7,756.07,420.7,799.67,337.8A212.86,212.86,0,0,0,825.17,275.8Z"/><path class="cls-3" d="M666.27,168.2c25.8,19,31.5,63.9,66.2,44,22.1-12.7,22-76.7-13.8-107.1-30.3-25.8-78-29.7-93-1.8C605.87,140.1,640.47,149.1,666.27,168.2Z"/><path class="cls-2" d="M666.27,168.2c25.8,19,31.5,63.9,66.2,44,22.1-12.7,22-76.7-13.8-107.1-30.3-25.8-78-29.7-93-1.8C605.87,140.1,640.47,149.1,666.27,168.2Z"/></g></g></g></svg>