<?xml version="1.0" encoding="utf-8"?>
<!-- Generator: Adobe Illustrator 26.0.1, SVG Export Plug-In . SVG Version: 6.00 Build 0)  -->
<svg version="1.0" id="Слой_1" xmlns="http://www.w3.org/2000/svg" xmlns:xlink="http://www.w3.org/1999/xlink" x="0px" y="0px"
	 viewBox="0 0 595.28 841.89" style="enable-background:new 0 0 595.28 841.89;" xml:space="preserve">
<style type="text/css">
	.st0{fill-rule:evenodd;clip-rule:evenodd;fill:#DA5B6B;}
	.st1{fill-rule:evenodd;clip-rule:evenodd;fill:#FCF2DB;}
	.st2{fill-rule:evenodd;clip-rule:evenodd;fill:#B06B6B;}
	
		.st3{fill-rule:evenodd;clip-rule:evenodd;fill:none;stroke:#050008;stroke-width:2;stroke-linecap:round;stroke-linejoin:round;stroke-miterlimit:22.9256;}
</style>
<path class="st0" d="M170.71,210c-0.96-3.2-2.74-5.86-4.99-7.89c-1.9-1.7-4.13-2.95-6.51-3.7c-1.95-0.61-4-0.89-6.03-0.79
	c-3.35,0.16-6.67,1.34-9.47,3.66c-0.89,0.74-1.73,1.6-2.5,2.59c-1.94,2.48-2.85,5.07-2.89,9.07c-0.03,2.26-0.45,9.79-0.02,11.29
	c0.9,1.44,3.35,1.36,5.42,1.39c0.45,0.01,0.89,0.02,1.29,0.05c1.33,0.11,2.36,1.38,3.41,1.9c0.67,0.33,3.01,1.66,4.76,1.98
	c0.98,0.18,1.78-0.32,1.99-2.27c0.34-3.13-0.84-5.09,1.63-6.56c0.75-0.45,1.56-0.84,2.42-1.07c1.27-0.35,2.62-0.33,3.95,0.42
	c1.24,0.7,2.05,1.63,2.56,2.68c2.23,4.55-0.9,11.38,3.07,12c1.18,0.18,1.71-0.55,2.43-1.08C171.57,231.11,171.27,211.88,170.71,210z
	 M144.5,222.96c-0.7-0.03-0.55,0.51-0.8,0.24c-0.32-0.34-0.44-0.88-0.78-1.66c-0.53-1.2-0.44-1.12,0.03-2.19
	c0.62,0.01,0.53-0.26,0.75-0.03c0.31,0.32,0.4,0.86,0.73,1.66C144.97,222.27,144.72,221.7,144.5,222.96z M143.7,208.59
	c-0.23,0.09-0.25-0.12-0.44-0.17c-0.01-0.02-1.16,0.32-0.1-1.31c0.16-0.25,0.35-0.52,0.54-0.79c0.74-0.98,1.31-1.74,2.23-1.44
	C146.3,205.87,144.99,208.08,143.7,208.59z M153.24,216.53c-0.12,0.01-0.04-0.19-0.19-0.19c-0.57-1.05-0.4-1.71-0.11-2.9
	c0.23-0.03,0.14,0.12,0.3,0.13c1,0.03,0.73-0.04,0.72,1.26C153.96,216.43,154.26,216.45,153.24,216.53z M160.08,205.08
	c-0.39-0.05-0.46-0.12-0.87-0.54c-1-1.01-1.39-2.27-0.91-3.18c0.42,0.01,0.47-0.21,0.91,0.22
	C160.26,202.57,160.73,204.13,160.08,205.08z M167.27,216.46c-0.52,0.24,0.65,0.27-0.75,0.21c-0.39-0.02-0.52-0.05-0.81-0.37
	c-0.14-0.16-0.32-0.39-0.59-0.72c-1.95-2.39-0.01-2.15,0.59-1.86C166.66,214.19,167.51,215.33,167.27,216.46z"/>
<path class="st1" d="M138.11,226.58l-0.04,3.64c1.79,0.04,1.37,2.48,1.24,6.17c-0.09,2.43-0.29,5.3,0.16,7.66
	c1.09,5.76,4.48,5.07,10.17,5.1c5.1,0.03,10.23,0.07,15.33,0.06c2.31,0,3.85-1.25,4.42-3.08c0.66-2.12-0.05-5.1,0.31-7.54l1.07-0.14
	c-0.08-0.3-0.27-0.9-0.26-1.27c0.02-0.93-0.05,0,0.15-0.64c0.02-0.06,0.18-0.34,0.23-0.43c-6.22,1.27-6.17-4.28-6.05-9.72
	c0.16-7.01-6.66-5.95-7.95-3.7c-0.83,1.44,0.54,5-1,7.15c-1.26,1.76-3.82,1.51-5.55,0.25c-1.95-1.43-1.69-2.45-5.06-2.76
	C142.83,227.07,140.37,227.3,138.11,226.58z"/>
<path class="st2" d="M157.88,250.78l-6.68-0.02c-0.08,3.52,0.02,7.11,0.04,10.62c0.02,3.36-0.2,7.03,3.65,6.75
	C160.48,267.71,157.76,258.23,157.88,250.78z"/>
<g>
	<path class="st3" d="M153.86,230.29c4.89-2.99-2.22-8.59,6.87-10.31c9.67,1.83,1.14,15.8,8.75,15.31c3.9-0.38,2.5-7.64,2.5-10.62
		c0-3.81,0.25-7.96-0.29-11.56c-3.35-22.17-34.08-22.15-34.08,2.19c0,4.27-1.57,10.87,3.44,10.94
		C149.76,226.35,150.2,230.29,153.86,230.29z"/>
	<path class="st3" d="M159.8,204.36c-0.32-1.19-0.68-1.43-1.25-2.5"/>
	<path class="st3" d="M143.57,207.93c0.53-0.87,1.21-1.68,1.87-2.5"/>
	<line class="st3" x1="153.24" y1="215.92" x2="153.24" y2="214.04"/>
	<line class="st3" x1="166.68" y1="215.92" x2="165.11" y2="214.36"/>
	<path class="st3" d="M144.18,222.79c-0.21-1-0.61-1.86-0.94-2.81"/>
	<path class="st3" d="M158.55,250.29c3.62-1.41,6.77,1.39,10.31-1.87c2.25-2.44,1.56-5.36,1.56-8.75 M150.74,250.29
		c0,4.35-2.18,18,3.44,18.44c7.45,1.48,4.37-14.08,4.37-18.44H150.74c-3.76-1.22-5.45,0.98-9.69-1.56c-3.69-3.99-2.5-11.9-2.5-17.5"
		/>
</g>
</svg>
