<svg xmlns="http://www.w3.org/2000/svg" viewBox="0 0 831.98 885.5">
	<defs>
		<style>
			.cls-1{fill:#2ee1ff;}
			.cls-2{fill:#ef45ef;}
			.cls-3{fill:#ffe631;}
			.cls-4{fill:none;stroke:#191919;stroke-linecap:round;stroke-linejoin:round;stroke-width:25px;}
		</style>
	</defs>
	<g id="Слой_2" data-name="Слой 2">
		<g id="Layer_1" data-name="Layer 1">
			<g id="kite"><polygon class="cls-1" points="420.08 43.8 597.88 226.2 809.78 16.5 420.08 43.8"/>
				<polygon class="cls-2" points="602.38 226.2 784.78 408.5 240.08 595.4 602.38 226.2"/>
				<path class="cls-3" d="M 416.68, 33.6 L 233.78, 600.5, L 600.68, 225.6 Z" />
				<path class="cls-3" d="M 819.48, 12.5 L 600.68, 225.6, L 787.58 413.6 Z" />
				<polygon class="cls-4" points="416.68 33.6 819.48 12.5 787.58 413.6 233.78 600.5 416.68 33.6"/>
				<path class="cls-4" d="M808.68,15.3c1.1,1.1-568.6,584.6-568.6,584.6"/>
				<line class="cls-4" x1="416.68" y1="33.6" x2="784.78" y2="410.8"/>
				<path class="cls-4" d="M234.08,600s-59-7-102,0c-36.2,5.9-56,31-47,64s45.2,49.5,97,58c79,13,74,110-6,114s-132.9-10.4-154,14c-13,15-9,23-9,23"/>
			</g>
		</g>
	</g>
</svg>