<?xml version="1.0" encoding="utf-8"?>
<!-- Generator: Adobe Illustrator 22.1.0, SVG Export Plug-In . SVG Version: 6.00 Build 0)  -->
<svg version="1.1" xmlns="http://www.w3.org/2000/svg" xmlns:xlink="http://www.w3.org/1999/xlink" x="0px" y="0px"
	 viewBox="0 0 1024 1024" style="enable-background:new 0 0 1024 1024;" xml:space="preserve">
<style type="text/css">
	.st0{display:none;}
	.st1{fill:#3C91E5;}
	.st2{fill:#070707;}
	.st3{fill:#FFFFFF;}
	.st4{display:inline;}
	.st5{fill:#C1282E;}
	.st6{fill:#B4E85B;}
	.st7{fill:#8B6239;}
	.st8{fill:#FFDB43;}
	.st9{fill:#191919;}
	.st10{fill:#FF8327;}
	.st11{display:inline;fill:#1E1E1E;}
	.st12{fill:#CC50FF;}
	.st13{display:inline;fill:#CC50FF;}
	.st14{fill:#47F4F4;}
	.st15{fill:#161616;}
	.st16{display:inline;fill:none;stroke:#161616;stroke-width:25;stroke-linecap:round;stroke-miterlimit:10;}
	.st17{fill:#FF52C1;}
	.st18{display:inline;fill:#3774EF;}
	.st19{display:inline;fill:none;stroke:#070707;stroke-width:25;stroke-linecap:round;stroke-miterlimit:10;}
	.st20{display:inline;fill:#97EF5E;stroke:#070707;stroke-width:25;stroke-linecap:round;stroke-miterlimit:10;}
	.st21{display:inline;fill:#FFDB43;}
	.st22{display:inline;fill:#FF3636;}
	.st23{display:inline;fill:#2EE1FF;}
	.st24{display:inline;fill:none;stroke:#161616;stroke-width:25;stroke-linecap:round;stroke-linejoin:round;stroke-miterlimit:10;}
	.st25{display:inline;fill:#FFE131;}
	.st26{display:inline;fill:#EF45EF;}
	.st27{display:inline;fill:#FFE631;}
	.st28{display:inline;fill:none;stroke:#191919;stroke-width:25;stroke-linecap:round;stroke-linejoin:round;stroke-miterlimit:10;}
	.st29{display:inline;fill:#FF4343;}
	.st30{display:inline;fill:#353535;}
	.st31{display:inline;fill:#8B79AD;}
	.st32{display:inline;fill:#C29CEF;}
	.st33{display:inline;fill:#FF9494;}
	.st34{display:inline;fill:#191919;}
</style>
<g id="kite" >
	<polygon class="st23" points="497.5,106.3 675.3,288.7 887.2,79 	"/>
	<polygon class="st26" points="679.8,288.7 862.2,471 317.5,657.9 	"/>
	<path class="st27" d="M496.9,105.8l181.2,182.3L316.9,657.3L496.9,105.8z M886.7,78.4L678.1,288.1l183.5,182.3L886.7,78.4z"/>
	<path class="st28" d="M494.1,96.1 L896.9,75 L865,476.1 L311.2,663z"/>
	<path class="st28" d="M886.1,77.8c1.1,1.1-568.6,584.6-568.6,584.6"/>
	<line class="st28" x1="494.1" y1="96.1" x2="862.2" y2="473.3"/>
	<path class="st28" d="M311.5,662.5c0,0-59-7-102,0c-36.2,5.9-56,31-47,64s45.2,49.5,97,58c79,13,74,110-6,114s-132.9-10.4-154,14
		c-13,15-9,23-9,23"/>
</g>
</svg>
