<?xml version="1.0" encoding="utf-8"?>
<!-- Generator: Adobe Illustrator 27.0.0, SVG Export Plug-In . SVG Version: 6.00 Build 0)  -->
<svg version="1.1" id="Слой_1" xmlns="http://www.w3.org/2000/svg" xmlns:xlink="http://www.w3.org/1999/xlink" x="0px" y="0px"
	 viewBox="0 0 800 1000" style="enable-background:new 0 0 800 1000;" xml:space="preserve">
<style type="text/css">
	.st0{fill:#C0B5D8;}
	.st1{fill:#1E1E1C;}
	.st2{fill:#3D4F9A;}
	.st3{fill:none;stroke:#1E1E1C;stroke-width:8;stroke-linecap:round;stroke-linejoin:round;stroke-miterlimit:5.6105;}
</style>
<g>
	<g>
		<g transform="matrix(1,0,0,1,-106.467,53.7355)">
			<path class="st0" d="M377.7,504.9c-32.1-34.9-37.9-71.1-37.9-115.6c0-84.4,72.5-152.8,161.9-152.8c89.4,0,161.9,68.4,161.9,152.8
				c0,0-4.6,97.7-59.5,126.7 M618.8,505.3c20.1,6,37.7-2.9,46.7-8.9c3.3-2.3,6.3-5,8.8-8.1c8.2-10.4,35.2-41.9,63.5-49.1
				c34.1-8.6,13,2.8,13,2.8c-7.4,4.9-11.2,12.9-19.4,20.4c-8.2,7.6-16.2,15.8-19.7,23.7c-4,9.2-11.6,22.1-18.2,31.5
				c-18.5,25.9-33.5,29.4-55.2,29.2c-20.5-0.2-36.9-7.5-36.9-7.5s47.8,31.2,121.4,27.8c64.1-0.7,52.9,16.5,52.9,16.5
				c-37.9-5.9-37.1,4.1-52.9,4.9c-8.7,0.4-38.2,14.1-42.7,14.3c-6.2,0.2-22.6,6.8-38.9,3c-20.3-4.7-38.5-14.2-45.6-16.9
				c-13.1-4.9-32.9-32.1-46.5-41c-20.7-13.6-9.5,3.1-9.5,3.1c15.1,13.7,21.1,22.4,33.6,36.4c44.4,50.1,69,70.7,73.6,75.9
				c5.9,6.6,18.7,47.8,11,40.7c-14.9-13.8-32.2-29.6-48.4-37.6c-7.6-3.7-28.1-11.9-33.6-12.7c-5.5-0.7-27.3-10.7-27.3-10.7
				c-5.5-2.4-16.8-11.5-19.2-14.7c-7-9-11.7-15.1-13.2-16c-2.8-1.8-11.6-5.6-11.6-5.6c-0.9,4.8-8.3-4.3-14.2,2.9
				c-10.9,13.5-26.6,20.3-29.9,23.6c-2.4,2.4-14,9.9-16.2,11.7c-2.2,1.8-5.2,2.6-7.8,4.9c-14.3,12.8-30.6,22.3-38.7,34
				c-8.2,11.6-24.4,44.4-24.4,44.4c-15-19.2-7.5-58.5,16.4-97.9c27.7-45.6,77.6-83.1,82.8-89.7c0.3-0.3-13.6-3.1-17.2,3
				c-1.7,2.8-31.4,33.2-36.9,39.6c-8.7,10.2-47.4,25.3-47.4,25.3L303,618.6c-7,1.3-22.7,6.7-29,10.1c-13.9,7.6-34.4,18.8-32.7,2
				c1.7-16.9,21.6-20.8,33.3-29c4.1-2.9,8.5-5,13.3-6.6c44.6-15.5,90.3-57.8,90.3-57.8s-45.9,10.3-61.1,2.2
				c-23.4-12.3-32.8-29-37.8-40.4c-2.5-5.7-8.9-15.3-12.8-20.2c-11.2-14.1-22.7-24.4-26.7-28.9c-3.1-3.6-2.9-20,43.1,7.7
				c46,27.7,36.6,49.5,94.9,47.2"/>
		</g>
		<path class="st1" d="M334.8,485.2c0,12.5-8.4,22.6-18.7,22.6s-18.7-10.1-18.7-22.6c0-12.5,8.4-22.6,18.7-22.6
			S334.8,472.7,334.8,485.2"/>
		<path class="st1" d="M477.3,483.3c0.6,10.9-5.7,20.2-14.1,20.6c-8.4,0.4-15.6-8.1-16.2-19c-0.6-11,5.7-20.2,14.1-20.6
			C469.4,463.8,476.7,472.3,477.3,483.3"/>
		<g transform="matrix(1,0,0,1,-106.467,53.7355)">
			<path class="st2" d="M227.6,443.8c2.9-2,6.8-1.6,9.2,0.9c11.5,12,42.9,45.2,43.2,52.9c0.5,9.5,32,62.7,94.3,33.2l-3.3,9.6
				c-0.6,1.6-1.7,3-3.2,3.9l-15.4,8.9c-1,0.6-2.2,0.9-3.4,1l-25.5,4.8c-1.7,0.1-18.7-4.2-20.1-5.2l-20.5-23
				c-0.7-0.5-3.3-0.4-3.8-1.2l-12.6-24.5c-0.1-0.1-0.2-0.3-0.3-0.4l-23.4-32.4c-0.2-0.2-0.3-0.4-0.5-0.6l-15.9-17.5l-5.9-5.6
				L227.6,443.8z M244.7,636.4c10.3-2.2,19.3-7.9,28.8-12.3c11.5-5.3,23.8-8.9,36.3-10.6c4.4-0.6,9.3-0.8,13.7-1.2
				c18.5-2,37.4-4.1,54.7-11c13.4-5.3,27.6-10.6,36.9-21.5c2.3-2.7,4.5-5.2,7.3-7.4c3-2.3,5.1-5.6,7.6-8.5c4-4.8,9-8.6,13.3-13.1
				c5.1-5.3,9.4-11.8,16-15c0.9-0.5,1.9-0.8,3-0.9c2.6-0.1,8,0.5,8.8,3c0.7,2.5-3,6.7-3.8,9.1c-16.9,10.9-28.5,27.9-40.9,43.8
				c-2.5,3.2-5,6.4-8,9.1c-5.1,4.5-9.5,10.5-16.3,11.4c-6.3,0.8-13.9,2.7-20,4.4c-14.6,3.8-30.2,3.8-44.8,7.6
				c-7-0.4-14,3.6-20.9,5.1c-7.7,1.7-15.4,1.8-22.5,5.3c-13.9,6.9-28.6,12-43.8,15.1c-1.5,0.3-3.1,0.6-4.5-0.1
				c-2.4-1.2-2.6-4.5-2.5-7.2c0.1-1.5,0.5-3.5,2-3.8C244.8,638.2,244.7,635.8,244.7,636.4 M371,722.2c3.2-2.4,5.1-6.1,6.8-9.8
				c7.1-14.8,13.8-30.4,25.5-41.9c3-3,6.4-5.6,9.7-8.3c5.6-4.5,11.2-9,16.9-13.5c4-3.2,9.1-4.4,13.1-7.7
				c12.8-10.6,28.9-17.1,40.4-29.1c4.5-4.7,9-10.6,15.5-11c1.6,7.7-1.4,15.8-6.2,22.1c-4.8,6.2-11.4,10.9-17.9,15.4
				c-6.4,4.4-12.9,8.7-19.9,12.3c-12.6,6.6-26.9,11.2-36.4,21.9c-2.9,3.3-5.2,7-7.6,10.6c-9.7,14.8-20.6,28.7-31.6,42.6
				c-1.5,1.9-4.3,4-6.1,2.3C371.7,726.8,372.2,723.7,371,722.2 M505.6,604.6c8.7,0.7,13.7,9.8,19,16.7c9.2,11.8,22.9,19.3,36.8,24.7
				c13.9,5.4,28.5,9.2,42.1,15.5c11.5,5.3,24.1,9.9,34.3,17.4c5.4,3.9,10.7,8.1,14.4,13.6c3.7,5.5,5.5,12.6,3.3,18.9
				c-0.5,1.3-1.4,2.7-2.7,2.6c-2.7-0.1-4.7-1.9-6.4-4c-11.9-5.9-18.4-18.6-30.4-24.4c-6.6-3.2-13.8-5-20.8-7.2
				c-17.8-5.4-35-12.9-51.1-22.3c-9.8-5.7-19.4-12.3-26.7-21C510.1,626.3,505,616,505.6,604.6 M603.5,539c4.7-0.7,9.5,0.5,14.2,1.5
				c14.7,3.3,30.5,5.4,44.5-0.2c8-3.2,15.1-8.8,19.9-16c2.2-3.2,5.3-5.9,7.7-8.9c2.6-3.2,5.1-6.3,6.9-10c1.8-3.6,2.9-7.9,6-10.4
				c-0.1-4.7,2.7-9,5.7-12.7c10.4-13,21.6-25.4,33.6-37c3.3-3.2,7.9-6.5,12.1-4.7c3,1.3,4.4,4.8,5.5,7.9c0.6,1.7,1.1,3.9-0.1,5.2
				c-0.4,0.5-1,0.8-1.6,1c-15.5,8-26.2,22.9-35.1,38c-8.9,15.1-16.7,31-29,43.4c-12.2,12.3-28.5,20.5-45.7,22.9
				c-8.4,1.2-17.3,1-25.1-2.4c-7.7-3.3-13.8-9.4-19.3-15.6c-0.3-0.4-0.8-0.8-1.2-0.5C602.1,540.8,603.4,539.5,603.5,539 M540.2,542
				c-0.2-1.6,1.7-2.8,3.3-2.5c1.6,0.3,2.8,1.6,4,2.7c2.8,3,5.6,5.9,8.3,8.9c8.5,9,17,18.1,26.9,25.6c4.9,3.7,10.2,7.1,15.8,9.4
				c15.3,6.4,29.6,15.7,46.2,16.5c16.6,0.8,33.2-3,48.5-9.3c10.6-4.4,21.9-6.9,33-9.9c11.3-3,22.8-5.2,34.5-5.6
				c3.1-0.1,6.2,0,8.9,1.3c2.7,1.4,4.8,4.5,4,7.5c0-1.2,0-2.3,0.1-3.4c1.4,1.4,1,7.9-0.6,9c-1.7,1.1-3.8,1.1-5.8,1.1
				c-24,0-48,5.2-69.9,15c-6.1,2.7-12.1,5.8-18.6,7.2c-5,1-10.2,1-15.3,1.1c-14.1,0.4-28.1,2.2-41.8,5.5c-2.7,0.6-5.6,1.3-8.3,0.5
				c-1.3-0.4-2.4-1.2-3.6-2c-6.5-4.3-12.9-8.6-19.4-13c-4.3-2.9-8.7-5.9-12.2-9.8s-8.9-7.3-8.6-12.5c-1.8-0.6-0.6-3.6-1.8-5
				c-7.1-8.1-14.1-16.4-21-24.7C543.6,551.8,540.9,547,540.2,542 M418.8,297c0,7.5-9.3,19-16.8,19c-7.5,0-11.6-8.5-11.6-16
				c0-7.5,6.1-13.5,13.5-13.5C411.4,286.5,418.8,289.5,418.8,297 M473.6,334.9c0,5.9-3.8,10.7-10.6,10.7c-4.9,0-8.9-4.8-8.9-10.7
				c0-5.9,4-10.7,8.9-10.7C467.9,324.2,473.6,329,473.6,334.9 M483.3,261c3.8,7.9-0.2,17.7-9,22c-8.8,4.3-18.7,3.5-22.5-4.4
				c-3.8-7.9-0.2-19.9,8.6-24.1C469.2,250.2,479.5,253.1,483.3,261"/>
		</g>
		<path class="st3" d="M362.5,599.4c0,0-23.9,19.2-33,34c-13.4,21.8-34.2,31.6-34.2,31.6"/>
		<path class="st3" d="M428.3,593.2c0,0,48.1,78.9,82.6,85.1"/>
		<path class="st3" d="M490.7,594.6c0,0,14.9,15.9,47.9,19.6"/>
		<path class="st3" d="M508,559.1c20.1,6,37.7-2.9,46.7-8.9c3.3-2.3,6.3-5,8.8-8.1c8.2-10.4,35.2-41.9,63.5-49.1
			c34.1-8.6,22.9,18.8,22.9,18.8c-7.4,4.9-17.6,14.7-25,22.4c-6,6.2-10.7,13.4-14.2,21.3c-25.5,58.8-74.8,61.4-74.8,61.4
			s2.5,7.4,76,3.9c73.5-3.5,57.7,30.6,57.7,30.6c-37.9-5.9-75.8,10.5-89.9,17.6c-4,2-8.4,3.1-12.9,3.3c-36.3,1.3-58.5,8.7-58.5,8.7
			c69.1,62.7,34.5,102.6,33.5,91.8c-0.7-8-16.7-20.8-25-27c-2.9-2.1-6.1-3.7-9.6-4.5c-27.1-6.2-76.4-32.7-76.4-32.7
			c-21-9.2-34.5-50.8-34.5-50.8c-3.5,19.2-46.9,48.4-65.7,55.8c-18.7,7.4-64.6,76.2-64.6,76.2c-34.5-44.2,26.6-122.1,26.6-122.1
			L186,688.2c-7,1.3-13.7,3.7-19.9,7.1c-13.9,7.6-33.1,15.5-31.4-1.3c1.7-16.9,9-32.3,29.1-38.5c4.1-2.9,8.5-5,13.3-6.6
			c44.6-15.5,90.3-57.8,90.3-57.8s-34,37.1-68.2,17.6c-24.5-13.9-36.9-36-41.9-47.4c-2.5-5.7-5.7-11.1-9.6-16
			c-11.2-14.1-32-37.4-36.3-40.3c-3.9-2.7,14.7-21.2,60.7,6.5c46,27.7,36.5,49.5,94.9,47.2"/>
		<path class="st3" d="M269.6,556c-32.1-34.9-37.9-71.1-37.9-115.6c0-84.4,72.5-152.8,161.9-152.8c89.4,0,161.9,68.4,161.9,152.8
			c0,0-4.6,97.7-59.5,126.7"/>
		<path class="st3" d="M365.8,517c0,0,25,55.4,51.5,0"/>
	</g>
</g>
</svg>
