<?xml version="1.0" encoding="UTF-8" standalone="no"?>
<!DOCTYPE svg PUBLIC "-//W3C//DTD SVG 1.1//EN" "http://www.w3.org/Graphics/SVG/1.1/DTD/svg11.dtd">
<svg width="100%" height="100%" viewBox="0 0 1920 1080" version="1.1" xmlns="http://www.w3.org/2000/svg" xmlns:xlink="http://www.w3.org/1999/xlink" xml:space="preserve" xmlns:serif="http://www.serif.com/" style="fill-rule:evenodd;clip-rule:evenodd;stroke-linejoin:round;stroke-miterlimit:2;">
    <g transform="matrix(4.55706,0,0,4.55706,-4764.65,-2693.25)">
        <g transform="matrix(2.30994,0,0,2.30994,-1279.27,-889.971)">
            <g transform="matrix(0.0949981,0,0,0.0949981,1006.44,641.132)">
                <path d="M777.353,697.567C732.51,694.62 686.72,688.725 644.509,666.514C634.614,661.356 625.035,655.777 
					  616.403,648.724C586.718,624.408 575.876,584.302 590.823,548.933C597.56,532.827 600.192,516.09 
					  602.824,499.142C613.561,428.93 678.088,369.245 748.511,367.245C860.513,364.192 919.672,441.457 
					  933.041,520.617C937.883,549.459 935.701,577.416 918.333,601.732C903.806,622.154 882.352,640.475 
					  867.892,660.901C854.381,679.987 832.399,682.653 820.715,698.338C817.662,702.443 810.933,695.673 
					  806.407,695.988C797.249,696.62 788.196,697.041 777.353,697.567ZM605.245,556.722C605.982,562.407 
					  606.297,568.933 609.14,575.039C614.929,587.249 623.456,595.671 637.456,596.934C651.561,598.092 
					  661.456,590.828 668.509,579.355C677.141,565.249 678.194,550.301 673.141,534.406C669.036,521.459 
					  660.298,514.301 647.561,511.985C634.403,509.458 623.982,514.932 615.877,525.143C608.719,534.196 
					  605.876,544.722 605.245,556.722ZM828.933,514.195C809.354,511.564 794.722,522.301 791.67,541.985C789.143,557.88
					  793.985,571.986 805.459,583.355C815.038,592.934 826.618,596.934 839.881,591.986C853.039,587.039 859.355,576.618 
					  861.039,563.144C862.934,547.564 856.934,534.617 847.144,523.038C842.197,517.037 
					  837.039,511.353 828.933,514.195ZM717.458,605.881C711.142,606.829 706.826,603.776 702.299,601.881C697.141,599.776
					  692.194,598.513 689.352,604.513C686.615,610.513 690.825,613.882 695.773,616.197C711.036,623.461 726.826,627.566 
					  743.879,624.829C752.932,623.355 761.458,620.513 768.827,615.039C771.669,612.829 773.459,609.566 771.564,605.776C769.459,601.776
					  766.195,599.776 761.669,601.25C758.406,602.408 755.353,604.302 751.985,605.46C746.511,607.46 741.037,610.513 
					  734.3,607.566C734.195,599.46 731.037,590.828 742.195,586.302C746.195,584.723 746.932,579.986 745.879,575.776C744.827,571.249 
					  741.353,569.46 737.247,568.407C729.774,566.407 722.194,568.407 714.721,568.091C711.036,567.986 707.563,568.512 
					  706.299,572.723C705.142,576.512 706.089,580.407 709.457,581.986C719.984,586.934 718.826,595.776 717.458,605.881ZM997.042,696.62C998.2,697.357 998.305,698.094 997.042,698.62C996.726,698.831 995.779,698.515 995.779,698.41C995.568,697.252 996.2,696.725 997.463,696.831C997.463,696.831 
					  997.042,696.62 997.042,696.62ZM994.151,696.831C993.73,692.199 997.414,689.673 999.624,686.515C1039.1,631.356 
					  1039.84,573.249 1012.78,513.248C997.835,480.195 975.413,452.299 949.623,427.036C945.623,423.036 941.308,419.983 
					  944.15,413.035C945.834,408.825 947.729,406.509 952.571,406.088C1013.52,400.088 1068.78,413.246 1115.63,454.72C1147.73,483.142 1161.84,519.143 1164.26,561.67C1166.26,595.881 1153.42,623.566 1133.21,649.145C1128.47,655.04 1123.52,660.83 1118.15,666.198C1102.47,682.199 
					  1086.78,696.094 1060.78,693.357C1040.47,691.146 1019.62,695.567 999.098,698.199C996.993,698.515 995.203,698.41 
					  993.73,696.62L994.151,696.831Z" style="fill:white;fill-rule:nonzero;"/>
            </g>
            <g transform="matrix(0.0949981,0,0,0.0949981,1006.44,641.132)">
                <path d="M1015.36,593.46C1016.83,626.303 1004.31,654.093 985.463,680.093C968.41,703.568 946.41,720.621 920.304,732.41C896.514,743.147 873.774,744.672 850.275,747.223C843.408,747.968 836.752,736.737 832.927,735.785C814.145,731.106 806.856,721.672 817.909,709.671C843.277,682.197 889.566,656.725 914.935,629.356C930.936,612.197 943.252,592.618 948.831,569.565C956.41,538.091 951.883,507.669 940.62,477.774C938.094,471.142 935.357,464.721 932.409,458.299C930.936,454.931 930.409,451.878 931.988,448.194C935.988,438.931 940.199,437.667 947.146,445.247C980.2,480.826 1006.2,520.301 1014.73,569.354C1014.94,570.828 1015.15,572.407 1015.15,573.881C1015.36,580.302 1015.36,586.934 1015.36,593.46ZM1086.85,698.077C1117.24,671.869 1137.28,643.254 1155.19,612.9C1162.89,599.796 1163.68,599.395 1177.62,605.68C1196.59,614.371 1216.36,621.725 1231.09,637.771C1245.95,653.817 1245.82,663.311 1230.16,678.421C1216.1,692.06 1198.45,697.408 1179.87,697.943C1150.28,698.745 1120.56,698.077 1086.85,698.077ZM922.065,434.376C918.229,434.146 917.242,430.351 915.598,427.937C897.84,401.834 867.545,385.299 841.456,369.546C831.92,363.797 838.21,359.748 846.211,352.044C857.611,341.005 870.985,333.186 886.44,331.231C900.361,329.506 911.542,336.521 920.969,347.215C935.548,363.773 942.015,415.058 922.065,434.376ZM608.806,434.376C595.515,419.485 589.516,404.816 589.987,387.369C590.34,372.922 597.044,362.921 610.217,357.031C622.92,351.252 635.858,347.807 650.678,351.03C663.852,353.919 676.672,356.92 691.139,363.254C655.383,379.034 629.507,403.371 608.806,434.376ZM687.093,705.834C663.939,722.572 634.173,734.278 608.858,723.701C594.443,717.678 585.56,714.41 582.929,699.778C580.613,687.146 582.507,674.725 588.718,663.251C591.455,658.093 594.02,645.097 599.388,649.728C621.81,668.887 657.829,694.887 687.093,705.834ZM1125.99,434.376C1142.04,435.379 1157.89,440.73 1170.37,453.103C1180.67,463.47 1180.47,474.84 1175.52,486.545C1172.95,492.23 1170.17,499.253 1161.06,499.587C1153.53,499.755 1150.36,493.902 1146.6,489.388C1135.31,475.844 1124.01,462.133 1109.95,450.428C1106.18,447.418 1099.64,444.409 1103.01,438.891C1105.79,434.042 1112.52,434.543 1118.07,434.376C1119.65,434.376 1121.63,434.376 1125.99,434.376ZM657.877,552.933C658.298,560.828 655.562,567.144 650.614,572.512C643.14,580.618 636.193,580.618 629.035,572.512C619.245,561.459 622.403,539.354 634.93,531.143C642.298,526.301 647.982,527.353 652.825,534.827C656.298,540.301 658.614,546.406 657.877,552.933ZM842.828,559.144C842.723,564.617 841.144,571.46 833.67,574.723C827.46,577.354 819.67,573.775 814.407,566.407C808.617,558.407 808.196,549.354 810.091,540.301C812.196,530.406 825.67,527.143 833.039,534.09C837.881,538.827 842.828,550.407 842.828,559.144Z" style="fill:rgb(80,73,75);fill-rule:nonzero;"/>
            </g>
        </g>
        <g transform="matrix(0.21944,0,0,0.21944,1045.55,591.005)">
            <path d="M715.958,586.832C715.919,590.559 715.952,595.395 716,599.514C712.667,598.741 709.733,597.619 707.438,595.943C701.868,591.872 694.041,593.09 689.971,598.661C685.901,604.231 687.119,612.058 692.689,616.128C698.839,620.622 707.338,623.642 717.143,625.097C721.791,675.418 736.883,663.017 740.39,625.973C749.715,625.511 759.23,624.205 767.941,622.372C774.692,620.951 779.019,614.317 777.599,607.566C776.178,600.815 769.543,596.487 762.792,597.908C755.899,599.359 748.405,600.452 741.015,600.924C740.942,596.13 740.88,590.056 740.958,585.976C746.317,585.338 753.402,583.904 757.253,581.029C762.781,576.901 763.917,569.061 759.79,563.534C755.818,558.215 748.41,556.962 742.932,560.554C742.185,560.648 736.412,561.363 734.845,561.425C732.517,561.518 730.068,562.314 727.741,562.043C724.339,561.646 712.451,557.795 711.016,557.719C703.579,557.321 700.52,562.014 699.384,563.986C698.147,566.134 697.539,568.533 697.753,571.228C697.897,573.04 698.289,576.759 702.511,580.112C703.438,580.849 705.807,582.193 709.09,583.534C710.775,584.222 714.014,585.841 715.958,586.832Z"/>
        </g>
        <g transform="matrix(0.21944,0,0,0.21944,1045.55,591.005)">
            <path d="M804.416,708.951C805.435,717.704 933.307,645.593 943.233,551.525C950.247,485.058 912.239,425.647 863.069,392.948C814.732,360.802 781.573,353.016 745.425,355.441C725.257,356.794 708.972,362.4 688.659,372.333C661.433,385.647 638.53,411.498 619.521,434.376C596.96,461.529 592.72,502.364 592.113,508.972C591.194,518.798 588.845,528.317 584.555,537.222C576.952,552.982 569.208,585.133 581.975,614.491C594.417,643.099 627.378,665.494 635.236,671.921C666.716,697.665 792.492,715.056 804.416,708.951Z" style="fill:none;fill-rule:nonzero;stroke:black;stroke-width:25px;"/>
        </g>
        <g transform="matrix(0.21944,0,0,0.21944,1045.55,591.005)">
            <path d="M931.339,426.858C939.026,429.55 980.524,464.521 1003.53,512.212C1021.18,548.783 1022.89,597.585 1020.7,616.34C1017.83,640.954 996.537,685.144 966.033,713.9C938.502,739.854 902.095,751.646 889.305,753.297C867.245,756.163 846.411,752.069 827.007,741.116C816.794,735.384 810.417,728.509 808.987,716.227" style="fill:none;fill-rule:nonzero;stroke:black;stroke-width:25px;"/>
        </g>
        <g transform="matrix(0.21944,0,0,0.21944,1045.55,591.005)">
            <path d="M828.764,362.253C873.957,302.351 923.165,324.414 939.888,362.16C957.589,402.117 921.355,442.886 915.267,454.266" style="fill:none;fill-rule:nonzero;stroke:black;stroke-width:25px;"/>
        </g>
        <g transform="matrix(0.21944,0,0,0.21944,1045.55,591.005)">
            <path d="M944.714,404.695C966.145,399.425 1036.26,399.102 1081,417.661C1135.02,440.069 1160.84,480.63 1169.88,540C1187.99,658.913 1038.98,725.506 989.547,699.866" style="fill:none;fill-rule:nonzero;stroke:black;stroke-width:25px;"/>
        </g>
        <g transform="matrix(0.21944,0,0,0.21944,1045.55,591.005)">
            <path d="M1115.66,435.555C1129.34,430.54 1145.34,424.937 1158.92,430.874C1185.78,442.542 1184.02,477.414 1162.67,497.374" style="fill:none;fill-rule:nonzero;stroke:black;stroke-width:25px;"/>
        </g>
        <g transform="matrix(0.21944,0,0,0.21944,1045.55,591.005)">
            <path d="M1159.63,599.67C1172.91,596.292 1215.96,609.279 1225.41,620.094C1251.46,649.89 1253.8,679.191 1218.46,697.615C1206.11,704.063 1192.93,707.646 1178.94,707.748C1157.29,707.646 1086.96,701.83 1080.36,692.969" style="fill:none;fill-rule:nonzero;stroke:black;stroke-width:25px;"/>
        </g>
        <g transform="matrix(0.21944,0,0,0.21944,1045.55,591.005)">
            <path d="M694.382,705.057C689.856,717.451 659.828,745.354 614.887,734.361C586.577,727.435 569.032,710.819 572.198,681.852C573.73,667.931 592.815,638.854 601.189,627.594" style="fill:none;fill-rule:nonzero;stroke:black;stroke-width:25px;"/>
        </g>
        <g transform="matrix(0.21944,0,0,0.21944,1045.55,591.005)">
            <path d="M607.789,445.896C593.646,435.681 585.27,419.103 583.33,402.93C579.449,371.302 597.321,346.941 628.777,341.516C655.636,336.91 679.985,342.496 700.187,362.342" style="fill:none;fill-rule:nonzero;stroke:black;stroke-width:25px;"/>
        </g>
        <g transform="matrix(1.71008,0,0,1.90202,-639.052,-606.923)">
            <path d="M1063.94,694.02C1064,692.88 1064.27,691.88 1064.95,691.02C1065.72,690.05 1066.71,689.53 1067.96,689.77C1069.17,690 1070,690.67 1070.39,691.9C1070.87,693.41 1070.77,694.83 1069.95,696.17C1069.29,697.26 1068.35,697.95 1067,697.84C1065.67,697.73 1064.86,696.92 1064.31,695.76C1064.04,695.19 1064.02,694.56 1063.94,694.02Z" style="fill:none;fill-rule:nonzero;stroke:black;stroke-width:3.03px;"/>
        </g>
        <g transform="matrix(1.74748,-0.100968,0.109047,1.88731,-744.705,-487.365)">
            <path d="M1081.65,692.61C1081.79,691.687 1082.17,690.338 1083.9,689.889C1085.7,689.422 1086.68,690.526 1086.92,690.81C1087.85,691.91 1088.42,693.15 1088.24,694.62C1088.08,695.89 1087.48,696.89 1086.23,697.36C1084.97,697.84 1083.87,697.45 1082.96,696.54C1081.87,695.46 1081.41,694.12 1081.65,692.61Z" style="fill:none;fill-rule:nonzero;stroke:black;stroke-width:3.01px;"/>
        </g>
    </g>
</svg>
