<?xml version="1.0" encoding="utf-8"?>
<!-- Generator: Adobe Illustrator 22.1.0, SVG Export Plug-In . SVG Version: 6.00 Build 0)  -->
<svg version="1.1" id="Layer_1" xmlns="http://www.w3.org/2000/svg" xmlns:xlink="http://www.w3.org/1999/xlink" x="0px" y="0px"
	 viewBox="0 0 1088 1184" style="enable-background:new 0 0 1088 1184;" xml:space="preserve">
<style type="text/css">
	.st0{fill:#969696;}
</style>
<path class="st0" d="M1063.4,1126.5l-20.7,24.9c-1.2,1.5-3.5,1.7-5,0.4c-1.4-1.3-1.7-3.5-0.5-4.8l20.7-24.9c1.2-1.5,3.4-1.7,4.9-0.5
	h0.1C1064.4,1122.8,1064.6,1125,1063.4,1126.5z M1012.9,1121.6L1012.9,1121.6c-1.6-1.2-3.8-1-5,0.5l-20.7,24.9
	c-1.2,1.3-0.9,3.5,0.5,4.8c1.5,1.3,3.8,1.1,5-0.4l20.7-24.9C1014.6,1125,1014.4,1122.8,1012.9,1121.6z M962.9,1121.6L962.9,1121.6
	c-1.6-1.2-3.8-1-5,0.5l-20.7,24.9c-1.2,1.3-0.9,3.5,0.5,4.8c1.5,1.3,3.8,1.1,5-0.4l20.7-24.9C964.6,1125,964.4,1122.8,962.9,1121.6z
	 M912.9,1121.6L912.9,1121.6c-1.6-1.2-3.8-1-5,0.5l-20.7,24.9c-1.2,1.3-0.9,3.5,0.5,4.8c1.5,1.3,3.8,1.1,5-0.4l20.7-24.9
	C914.6,1125,914.4,1122.8,912.9,1121.6z M862.9,1121.6L862.9,1121.6c-1.6-1.2-3.8-1-5,0.5l-20.7,24.9c-1.2,1.3-0.9,3.5,0.5,4.8
	c1.5,1.3,3.8,1.1,5-0.4l20.7-24.9C864.6,1125,864.4,1122.8,862.9,1121.6z M812.9,1121.6L812.9,1121.6c-1.6-1.2-3.8-1-5,0.5
	l-20.7,24.9c-1.2,1.3-0.9,3.5,0.5,4.8c1.5,1.3,3.8,1.1,5-0.4l20.7-24.9C814.6,1125,814.4,1122.8,812.9,1121.6z M762.9,1121.6
	L762.9,1121.6c-1.6-1.2-3.8-1-5,0.5l-20.7,24.9c-1.2,1.3-0.9,3.5,0.5,4.8c1.5,1.3,3.8,1.1,5-0.4l20.7-24.9
	C764.6,1125,764.4,1122.8,762.9,1121.6z M712.9,1121.6L712.9,1121.6c-1.6-1.2-3.8-1-5,0.5l-20.7,24.9c-1.2,1.3-0.9,3.5,0.5,4.8
	c1.5,1.3,3.8,1.1,5-0.4l20.7-24.9C714.6,1125,714.4,1122.8,712.9,1121.6z M662.9,1121.6L662.9,1121.6c-1.6-1.2-3.8-1-5,0.5
	l-20.7,24.9c-1.2,1.3-0.9,3.5,0.5,4.8c1.5,1.3,3.8,1.1,5-0.4l20.7-24.9C664.6,1125,664.4,1122.8,662.9,1121.6z M612.9,1121.6
	L612.9,1121.6c-1.6-1.2-3.8-1-5,0.5l-20.7,24.9c-1.2,1.3-0.9,3.5,0.5,4.8c1.5,1.3,3.8,1.1,5-0.4l20.7-24.9
	C614.6,1125,614.4,1122.8,612.9,1121.6z M562.9,1121.6L562.9,1121.6c-1.6-1.2-3.8-1-5,0.5l-20.7,24.9c-1.2,1.3-0.9,3.5,0.5,4.8
	c1.5,1.3,3.8,1.1,5-0.4l20.7-24.9C564.6,1125,564.4,1122.8,562.9,1121.6z M512.9,1121.6L512.9,1121.6c-1.6-1.2-3.8-1-5,0.5
	l-20.7,24.9c-1.2,1.3-0.9,3.5,0.5,4.8c1.5,1.3,3.8,1.1,5-0.4l20.7-24.9C514.6,1125,514.4,1122.8,512.9,1121.6z M462.9,1121.6
	L462.9,1121.6c-1.6-1.2-3.8-1-5,0.5l-20.7,24.9c-1.2,1.3-0.9,3.5,0.5,4.8c1.5,1.3,3.8,1.1,5-0.4l20.7-24.9
	C464.6,1125,464.4,1122.8,462.9,1121.6z M412.9,1121.6L412.9,1121.6c-1.6-1.2-3.8-1-5,0.5l-20.7,24.9c-1.2,1.3-0.9,3.5,0.5,4.8
	c1.5,1.3,3.8,1.1,5-0.4l20.7-24.9C414.6,1125,414.4,1122.8,412.9,1121.6z M362.9,1121.6L362.9,1121.6c-1.6-1.2-3.8-1-5,0.5
	l-20.7,24.9c-1.2,1.3-0.9,3.5,0.5,4.8c1.5,1.3,3.8,1.1,5-0.4l20.7-24.9C364.6,1125,364.4,1122.8,362.9,1121.6z M312.9,1121.6
	L312.9,1121.6c-1.6-1.2-3.8-1-5,0.5l-20.7,24.9c-1.2,1.3-0.9,3.5,0.5,4.8c1.5,1.3,3.8,1.1,5-0.4l20.7-24.9
	C314.6,1125,314.4,1122.8,312.9,1121.6z M262.9,1121.6h-0.1c-1.5-1.2-3.7-1-4.9,0.5l-20.7,24.9c-1.2,1.3-0.9,3.5,0.5,4.8
	c1.5,1.3,3.8,1.1,5-0.4l20.7-24.9C264.6,1125,264.4,1122.8,262.9,1121.6z M212.9,1121.6h-0.1c-1.5-1.2-3.7-1-4.9,0.5l-20.7,24.9
	c-1.2,1.3-0.9,3.5,0.5,4.8c1.5,1.3,3.8,1.1,5-0.4l20.7-24.9C214.6,1125,214.4,1122.8,212.9,1121.6z M162.9,1121.6h-0.1
	c-1.5-1.2-3.7-1-4.9,0.5l-20.7,24.9c-1.2,1.3-0.9,3.5,0.5,4.8c1.5,1.3,3.8,1.1,5-0.4l20.7-24.9
	C164.6,1125,164.4,1122.8,162.9,1121.6z M112.9,1121.6h-0.1c-1.5-1.2-3.7-1-4.9,0.5L87.2,1147c-1.2,1.3-0.9,3.5,0.5,4.8
	c1.5,1.3,3.8,1.1,5-0.4l20.7-24.9C114.6,1125,114.4,1122.8,112.9,1121.6z M62.9,1121.6h-0.1c-1.5-1.2-3.7-1-4.9,0.5L37.2,1147
	c-1.2,1.3-0.9,3.5,0.5,4.8c1.5,1.3,3.8,1.1,5-0.4l20.7-24.9C64.6,1125,64.4,1122.8,62.9,1121.6z M1062.9,1068.6L1062.9,1068.6
	c-1.6-1.2-3.8-1-5,0.5l-20.7,24.9c-0.6,0.7-0.8,1.6-0.7,2.5c-0.2,1.1,0.3,2.4,1.2,3.3c1.5,1.3,3.8,1.1,5-0.4l20.7-24.9
	c0.6-0.8,0.9-1.8,0.7-2.7C1064.3,1070.6,1063.9,1069.4,1062.9,1068.6z M1012.9,1068.6L1012.9,1068.6c-1.6-1.2-3.8-1-5,0.5
	l-20.7,24.9c-0.6,0.7-0.8,1.6-0.7,2.5c-0.2,1.1,0.3,2.4,1.2,3.3c1.5,1.3,3.8,1.1,5-0.4l20.7-24.9c0.6-0.8,0.9-1.8,0.7-2.7
	C1014.3,1070.6,1013.9,1069.4,1012.9,1068.6z M962.9,1068.6L962.9,1068.6c-1.6-1.2-3.8-1-5,0.5l-20.7,24.9c-0.6,0.7-0.8,1.6-0.7,2.5
	c-0.2,1.1,0.3,2.4,1.2,3.3c1.5,1.3,3.8,1.1,5-0.4l20.7-24.9c0.6-0.8,0.9-1.8,0.7-2.7C964.3,1070.6,963.9,1069.4,962.9,1068.6z
	 M912.9,1068.6L912.9,1068.6c-1.6-1.2-3.8-1-5,0.5l-20.7,24.9c-0.6,0.7-0.8,1.6-0.7,2.5c-0.2,1.1,0.3,2.4,1.2,3.3
	c1.5,1.3,3.8,1.1,5-0.4l20.7-24.9c0.6-0.8,0.9-1.8,0.7-2.7C914.3,1070.6,913.9,1069.4,912.9,1068.6z M862.9,1068.6L862.9,1068.6
	c-1.6-1.2-3.8-1-5,0.5l-20.7,24.9c-0.6,0.7-0.8,1.6-0.7,2.5c-0.2,1.1,0.3,2.4,1.2,3.3c1.5,1.3,3.8,1.1,5-0.4l20.7-24.9
	c0.6-0.8,0.9-1.8,0.7-2.7C864.3,1070.6,863.9,1069.4,862.9,1068.6z M812.9,1068.6L812.9,1068.6c-1.6-1.2-3.8-1-5,0.5l-20.7,24.9
	c-0.6,0.7-0.8,1.6-0.7,2.5c-0.2,1.1,0.3,2.4,1.2,3.3c1.5,1.3,3.8,1.1,5-0.4l20.7-24.9c0.6-0.8,0.9-1.8,0.7-2.7
	C814.3,1070.6,813.9,1069.4,812.9,1068.6z M762.9,1068.6L762.9,1068.6c-1.6-1.2-3.8-1-5,0.5l-20.7,24.9c-0.6,0.7-0.8,1.6-0.7,2.5
	c-0.2,1.1,0.3,2.4,1.2,3.3c1.5,1.3,3.8,1.1,5-0.4l20.7-24.9c0.6-0.8,0.9-1.8,0.7-2.7C764.3,1070.6,763.9,1069.4,762.9,1068.6z
	 M712.9,1068.6L712.9,1068.6c-1.6-1.2-3.8-1-5,0.5l-20.7,24.9c-0.6,0.7-0.8,1.6-0.7,2.5c-0.2,1.1,0.3,2.4,1.2,3.3
	c1.5,1.3,3.8,1.1,5-0.4l20.7-24.9c0.6-0.8,0.9-1.8,0.7-2.7C714.3,1070.6,713.9,1069.4,712.9,1068.6z M662.9,1068.6L662.9,1068.6
	c-1.6-1.2-3.8-1-5,0.5l-20.7,24.9c-0.6,0.7-0.8,1.6-0.7,2.5c-0.2,1.1,0.3,2.4,1.2,3.3c1.5,1.3,3.8,1.1,5-0.4l20.7-24.9
	c0.6-0.8,0.9-1.8,0.7-2.7C664.3,1070.6,663.9,1069.4,662.9,1068.6z M612.9,1068.6L612.9,1068.6c-1.6-1.2-3.8-1-5,0.5l-20.7,24.9
	c-0.6,0.7-0.8,1.6-0.7,2.5c-0.2,1.1,0.3,2.4,1.2,3.3c1.5,1.3,3.8,1.1,5-0.4l20.7-24.9c0.6-0.8,0.9-1.8,0.7-2.7
	C614.3,1070.6,613.9,1069.4,612.9,1068.6z M562.9,1068.6L562.9,1068.6c-1.6-1.2-3.8-1-5,0.5l-20.7,24.9c-0.6,0.7-0.8,1.6-0.7,2.5
	c-0.2,1.1,0.3,2.4,1.2,3.3c1.5,1.3,3.8,1.1,5-0.4l20.7-24.9c0.6-0.8,0.9-1.8,0.7-2.7C564.3,1070.6,563.9,1069.4,562.9,1068.6z
	 M512.9,1068.6L512.9,1068.6c-1.6-1.2-3.8-1-5,0.5l-20.7,24.9c-0.6,0.7-0.8,1.6-0.7,2.5c-0.2,1.1,0.3,2.4,1.2,3.3
	c1.5,1.3,3.8,1.1,5-0.4l20.7-24.9c0.6-0.8,0.9-1.8,0.7-2.7C514.3,1070.6,513.9,1069.4,512.9,1068.6z M462.9,1068.6L462.9,1068.6
	c-1.6-1.2-3.8-1-5,0.5l-20.7,24.9c-0.6,0.7-0.8,1.6-0.7,2.5c-0.2,1.1,0.3,2.4,1.2,3.3c1.5,1.3,3.8,1.1,5-0.4l20.7-24.9
	c0.6-0.8,0.9-1.8,0.7-2.7C464.3,1070.6,463.9,1069.4,462.9,1068.6z M412.9,1068.6L412.9,1068.6c-1.6-1.2-3.8-1-5,0.5l-20.7,24.9
	c-0.6,0.7-0.8,1.6-0.7,2.5c-0.2,1.1,0.3,2.4,1.2,3.3c1.5,1.3,3.8,1.1,5-0.4l20.7-24.9c0.6-0.8,0.9-1.8,0.7-2.7
	C414.3,1070.6,413.9,1069.4,412.9,1068.6z M362.9,1068.6L362.9,1068.6c-1.6-1.2-3.8-1-5,0.5l-20.7,24.9c-0.6,0.7-0.8,1.6-0.7,2.5
	c-0.2,1.1,0.3,2.4,1.2,3.3c1.5,1.3,3.8,1.1,5-0.4l20.7-24.9c0.6-0.8,0.9-1.8,0.7-2.7C364.3,1070.6,363.9,1069.4,362.9,1068.6z
	 M312.9,1068.6L312.9,1068.6c-1.6-1.2-3.8-1-5,0.5l-20.7,24.9c-0.6,0.7-0.8,1.6-0.7,2.5c-0.2,1.1,0.3,2.4,1.2,3.3
	c1.5,1.3,3.8,1.1,5-0.4l20.7-24.9c0.6-0.8,0.9-1.8,0.7-2.7C314.3,1070.6,313.9,1069.4,312.9,1068.6z M262.9,1068.6h-0.1
	c-1.5-1.2-3.7-1-4.9,0.5l-20.7,24.9c-0.6,0.7-0.8,1.6-0.7,2.5c-0.2,1.1,0.3,2.4,1.2,3.3c1.5,1.3,3.8,1.1,5-0.4l20.7-24.9
	c0.6-0.8,0.9-1.8,0.7-2.7C264.3,1070.6,263.9,1069.4,262.9,1068.6z M212.9,1068.6h-0.1c-1.5-1.2-3.7-1-4.9,0.5l-20.7,24.9
	c-0.6,0.7-0.8,1.6-0.7,2.5c-0.2,1.1,0.3,2.4,1.2,3.3c1.5,1.3,3.8,1.1,5-0.4l20.7-24.9c0.6-0.8,0.9-1.8,0.7-2.7
	C214.3,1070.6,213.9,1069.4,212.9,1068.6z M162.9,1068.6h-0.1c-1.5-1.2-3.7-1-4.9,0.5l-20.7,24.9c-0.6,0.7-0.8,1.6-0.7,2.5
	c-0.2,1.1,0.3,2.4,1.2,3.3c1.5,1.3,3.8,1.1,5-0.4l20.7-24.9c0.6-0.8,0.9-1.8,0.7-2.7C164.3,1070.6,163.9,1069.4,162.9,1068.6z
	 M112.9,1068.6h-0.1c-1.5-1.2-3.7-1-4.9,0.5L87.2,1094c-0.6,0.7-0.8,1.6-0.7,2.5c-0.2,1.1,0.3,2.4,1.2,3.3c1.5,1.3,3.8,1.1,5-0.4
	l20.7-24.9c0.6-0.8,0.9-1.8,0.7-2.7C114.3,1070.6,113.9,1069.4,112.9,1068.6z M62.9,1068.6h-0.1c-1.5-1.2-3.7-1-4.9,0.5L37.2,1094
	c-0.6,0.7-0.8,1.6-0.7,2.5c-0.2,1.1,0.3,2.4,1.2,3.3c1.5,1.3,3.8,1.1,5-0.4l20.7-24.9c0.6-0.8,0.9-1.8,0.7-2.7
	C64.3,1070.6,63.9,1069.4,62.9,1068.6z M1062.9,1016.6L1062.9,1016.6c-1.6-1.2-3.8-1-5,0.5l-20.7,24.9c-0.6,0.7-0.8,1.6-0.7,2.5
	c-0.2,1.1,0.3,2.4,1.2,3.3c1.5,1.3,3.8,1.1,5-0.4l20.7-24.9c0.6-0.8,0.9-1.8,0.7-2.7C1064.3,1018.6,1063.9,1017.4,1062.9,1016.6z
	 M1012.9,1016.6L1012.9,1016.6c-1.6-1.2-3.8-1-5,0.5l-20.7,24.9c-0.6,0.7-0.8,1.6-0.7,2.5c-0.2,1.1,0.3,2.4,1.2,3.3
	c1.5,1.3,3.8,1.1,5-0.4l20.7-24.9c0.6-0.8,0.9-1.8,0.7-2.7C1014.3,1018.6,1013.9,1017.4,1012.9,1016.6z M962.9,1016.6L962.9,1016.6
	c-1.6-1.2-3.8-1-5,0.5l-20.7,24.9c-0.6,0.7-0.8,1.6-0.7,2.5c-0.2,1.1,0.3,2.4,1.2,3.3c1.5,1.3,3.8,1.1,5-0.4l20.7-24.9
	c0.6-0.8,0.9-1.8,0.7-2.7C964.3,1018.6,963.9,1017.4,962.9,1016.6z M912.9,1016.6L912.9,1016.6c-1.6-1.2-3.8-1-5,0.5l-20.7,24.9
	c-0.6,0.7-0.8,1.6-0.7,2.5c-0.2,1.1,0.3,2.4,1.2,3.3c1.5,1.3,3.8,1.1,5-0.4l20.7-24.9c0.6-0.8,0.9-1.8,0.7-2.7
	C914.3,1018.6,913.9,1017.4,912.9,1016.6z M862.9,1016.6L862.9,1016.6c-1.6-1.2-3.8-1-5,0.5l-20.7,24.9c-0.6,0.7-0.8,1.6-0.7,2.5
	c-0.2,1.1,0.3,2.4,1.2,3.3c1.5,1.3,3.8,1.1,5-0.4l20.7-24.9c0.6-0.8,0.9-1.8,0.7-2.7C864.3,1018.6,863.9,1017.4,862.9,1016.6z
	 M812.9,1016.6L812.9,1016.6c-1.6-1.2-3.8-1-5,0.5l-20.7,24.9c-0.6,0.7-0.8,1.6-0.7,2.5c-0.2,1.1,0.3,2.4,1.2,3.3
	c1.5,1.3,3.8,1.1,5-0.4l20.7-24.9c0.6-0.8,0.9-1.8,0.7-2.7C814.3,1018.6,813.9,1017.4,812.9,1016.6z M762.9,1016.6L762.9,1016.6
	c-1.6-1.2-3.8-1-5,0.5l-20.7,24.9c-0.6,0.7-0.8,1.6-0.7,2.5c-0.2,1.1,0.3,2.4,1.2,3.3c1.5,1.3,3.8,1.1,5-0.4l20.7-24.9
	c0.6-0.8,0.9-1.8,0.7-2.7C764.3,1018.6,763.9,1017.4,762.9,1016.6z M712.9,1016.6L712.9,1016.6c-1.6-1.2-3.8-1-5,0.5l-20.7,24.9
	c-0.6,0.7-0.8,1.6-0.7,2.5c-0.2,1.1,0.3,2.4,1.2,3.3c1.5,1.3,3.8,1.1,5-0.4l20.7-24.9c0.6-0.8,0.9-1.8,0.7-2.7
	C714.3,1018.6,713.9,1017.4,712.9,1016.6z M662.9,1016.6L662.9,1016.6c-1.6-1.2-3.8-1-5,0.5l-20.7,24.9c-0.6,0.7-0.8,1.6-0.7,2.5
	c-0.2,1.1,0.3,2.4,1.2,3.3c1.5,1.3,3.8,1.1,5-0.4l20.7-24.9c0.6-0.8,0.9-1.8,0.7-2.7C664.3,1018.6,663.9,1017.4,662.9,1016.6z
	 M612.9,1016.6L612.9,1016.6c-1.6-1.2-3.8-1-5,0.5l-20.7,24.9c-0.6,0.7-0.8,1.6-0.7,2.5c-0.2,1.1,0.3,2.4,1.2,3.3
	c1.5,1.3,3.8,1.1,5-0.4l20.7-24.9c0.6-0.8,0.9-1.8,0.7-2.7C614.3,1018.6,613.9,1017.4,612.9,1016.6z M562.9,1016.6L562.9,1016.6
	c-1.6-1.2-3.8-1-5,0.5l-20.7,24.9c-0.6,0.7-0.8,1.6-0.7,2.5c-0.2,1.1,0.3,2.4,1.2,3.3c1.5,1.3,3.8,1.1,5-0.4l20.7-24.9
	c0.6-0.8,0.9-1.8,0.7-2.7C564.3,1018.6,563.9,1017.4,562.9,1016.6z M512.9,1016.6L512.9,1016.6c-1.6-1.2-3.8-1-5,0.5l-20.7,24.9
	c-0.6,0.7-0.8,1.6-0.7,2.5c-0.2,1.1,0.3,2.4,1.2,3.3c1.5,1.3,3.8,1.1,5-0.4l20.7-24.9c0.6-0.8,0.9-1.8,0.7-2.7
	C514.3,1018.6,513.9,1017.4,512.9,1016.6z M462.9,1016.6L462.9,1016.6c-1.6-1.2-3.8-1-5,0.5l-20.7,24.9c-0.6,0.7-0.8,1.6-0.7,2.5
	c-0.2,1.1,0.3,2.4,1.2,3.3c1.5,1.3,3.8,1.1,5-0.4l20.7-24.9c0.6-0.8,0.9-1.8,0.7-2.7C464.3,1018.6,463.9,1017.4,462.9,1016.6z
	 M412.9,1016.6L412.9,1016.6c-1.6-1.2-3.8-1-5,0.5l-20.7,24.9c-0.6,0.7-0.8,1.6-0.7,2.5c-0.2,1.1,0.3,2.4,1.2,3.3
	c1.5,1.3,3.8,1.1,5-0.4l20.7-24.9c0.6-0.8,0.9-1.8,0.7-2.7C414.3,1018.6,413.9,1017.4,412.9,1016.6z M362.9,1016.6L362.9,1016.6
	c-1.6-1.2-3.8-1-5,0.5l-20.7,24.9c-0.6,0.7-0.8,1.6-0.7,2.5c-0.2,1.1,0.3,2.4,1.2,3.3c1.5,1.3,3.8,1.1,5-0.4l20.7-24.9
	c0.6-0.8,0.9-1.8,0.7-2.7C364.3,1018.6,363.9,1017.4,362.9,1016.6z M312.9,1016.6L312.9,1016.6c-1.6-1.2-3.8-1-5,0.5l-20.7,24.9
	c-0.6,0.7-0.8,1.6-0.7,2.5c-0.2,1.1,0.3,2.4,1.2,3.3c1.5,1.3,3.8,1.1,5-0.4l20.7-24.9c0.6-0.8,0.9-1.8,0.7-2.7
	C314.3,1018.6,313.9,1017.4,312.9,1016.6z M262.9,1016.6h-0.1c-1.5-1.2-3.7-1-4.9,0.5l-20.7,24.9c-0.6,0.7-0.8,1.6-0.7,2.5
	c-0.2,1.1,0.3,2.4,1.2,3.3c1.5,1.3,3.8,1.1,5-0.4l20.7-24.9c0.6-0.8,0.9-1.8,0.7-2.7C264.3,1018.6,263.9,1017.4,262.9,1016.6z
	 M212.9,1016.6h-0.1c-1.5-1.2-3.7-1-4.9,0.5l-20.7,24.9c-0.6,0.7-0.8,1.6-0.7,2.5c-0.2,1.1,0.3,2.4,1.2,3.3c1.5,1.3,3.8,1.1,5-0.4
	l20.7-24.9c0.6-0.8,0.9-1.8,0.7-2.7C214.3,1018.6,213.9,1017.4,212.9,1016.6z M162.9,1016.6h-0.1c-1.5-1.2-3.7-1-4.9,0.5l-20.7,24.9
	c-0.6,0.7-0.8,1.6-0.7,2.5c-0.2,1.1,0.3,2.4,1.2,3.3c1.5,1.3,3.8,1.1,5-0.4l20.7-24.9c0.6-0.8,0.9-1.8,0.7-2.7
	C164.3,1018.6,163.9,1017.4,162.9,1016.6z M112.9,1016.6h-0.1c-1.5-1.2-3.7-1-4.9,0.5L87.2,1042c-0.6,0.7-0.8,1.6-0.7,2.5
	c-0.2,1.1,0.3,2.4,1.2,3.3c1.5,1.3,3.8,1.1,5-0.4l20.7-24.9c0.6-0.8,0.9-1.8,0.7-2.7C114.3,1018.6,113.9,1017.4,112.9,1016.6z
	 M62.9,1016.6h-0.1c-1.5-1.2-3.7-1-4.9,0.5L37.2,1042c-0.6,0.7-0.8,1.6-0.7,2.5c-0.2,1.1,0.3,2.4,1.2,3.3c1.5,1.3,3.8,1.1,5-0.4
	l20.7-24.9c0.6-0.8,0.9-1.8,0.7-2.7C64.3,1018.6,63.9,1017.4,62.9,1016.6z M1062.9,964.6L1062.9,964.6c-1.6-1.2-3.8-1-5,0.5
	l-20.7,24.9c-0.6,0.7-0.8,1.6-0.7,2.5c-0.2,1.1,0.3,2.4,1.2,3.3c1.5,1.3,3.8,1.1,5-0.4l20.7-24.9c0.6-0.8,0.9-1.8,0.7-2.7
	C1064.3,966.6,1063.9,965.4,1062.9,964.6z M1012.9,964.6L1012.9,964.6c-1.6-1.2-3.8-1-5,0.5L987.2,990c-0.6,0.7-0.8,1.6-0.7,2.5
	c-0.2,1.1,0.3,2.4,1.2,3.3c1.5,1.3,3.8,1.1,5-0.4l20.7-24.9c0.6-0.8,0.9-1.8,0.7-2.7C1014.3,966.6,1013.9,965.4,1012.9,964.6z
	 M962.9,964.6L962.9,964.6c-1.6-1.2-3.8-1-5,0.5L937.2,990c-0.6,0.7-0.8,1.6-0.7,2.5c-0.2,1.1,0.3,2.4,1.2,3.3
	c1.5,1.3,3.8,1.1,5-0.4l20.7-24.9c0.6-0.8,0.9-1.8,0.7-2.7C964.3,966.6,963.9,965.4,962.9,964.6z M912.9,964.6L912.9,964.6
	c-1.6-1.2-3.8-1-5,0.5L887.2,990c-0.6,0.7-0.8,1.6-0.7,2.5c-0.2,1.1,0.3,2.4,1.2,3.3c1.5,1.3,3.8,1.1,5-0.4l20.7-24.9
	c0.6-0.8,0.9-1.8,0.7-2.7C914.3,966.6,913.9,965.4,912.9,964.6z M862.9,964.6L862.9,964.6c-1.6-1.2-3.8-1-5,0.5L837.2,990
	c-0.6,0.7-0.8,1.6-0.7,2.5c-0.2,1.1,0.3,2.4,1.2,3.3c1.5,1.3,3.8,1.1,5-0.4l20.7-24.9c0.6-0.8,0.9-1.8,0.7-2.7
	C864.3,966.6,863.9,965.4,862.9,964.6z M812.9,964.6L812.9,964.6c-1.6-1.2-3.8-1-5,0.5L787.2,990c-0.6,0.7-0.8,1.6-0.7,2.5
	c-0.2,1.1,0.3,2.4,1.2,3.3c1.5,1.3,3.8,1.1,5-0.4l20.7-24.9c0.6-0.8,0.9-1.8,0.7-2.7C814.3,966.6,813.9,965.4,812.9,964.6z
	 M762.9,964.6L762.9,964.6c-1.6-1.2-3.8-1-5,0.5L737.2,990c-0.6,0.7-0.8,1.6-0.7,2.5c-0.2,1.1,0.3,2.4,1.2,3.3
	c1.5,1.3,3.8,1.1,5-0.4l20.7-24.9c0.6-0.8,0.9-1.8,0.7-2.7C764.3,966.6,763.9,965.4,762.9,964.6z M712.9,964.6L712.9,964.6
	c-1.6-1.2-3.8-1-5,0.5L687.2,990c-0.6,0.7-0.8,1.6-0.7,2.5c-0.2,1.1,0.3,2.4,1.2,3.3c1.5,1.3,3.8,1.1,5-0.4l20.7-24.9
	c0.6-0.8,0.9-1.8,0.7-2.7C714.3,966.6,713.9,965.4,712.9,964.6z M662.9,964.6L662.9,964.6c-1.6-1.2-3.8-1-5,0.5L637.2,990
	c-0.6,0.7-0.8,1.6-0.7,2.5c-0.2,1.1,0.3,2.4,1.2,3.3c1.5,1.3,3.8,1.1,5-0.4l20.7-24.9c0.6-0.8,0.9-1.8,0.7-2.7
	C664.3,966.6,663.9,965.4,662.9,964.6z M612.9,964.6L612.9,964.6c-1.6-1.2-3.8-1-5,0.5L587.2,990c-0.6,0.7-0.8,1.6-0.7,2.5
	c-0.2,1.1,0.3,2.4,1.2,3.3c1.5,1.3,3.8,1.1,5-0.4l20.7-24.9c0.6-0.8,0.9-1.8,0.7-2.7C614.3,966.6,613.9,965.4,612.9,964.6z
	 M562.9,964.6L562.9,964.6c-1.6-1.2-3.8-1-5,0.5L537.2,990c-0.6,0.7-0.8,1.6-0.7,2.5c-0.2,1.1,0.3,2.4,1.2,3.3
	c1.5,1.3,3.8,1.1,5-0.4l20.7-24.9c0.6-0.8,0.9-1.8,0.7-2.7C564.3,966.6,563.9,965.4,562.9,964.6z M512.9,964.6L512.9,964.6
	c-1.6-1.2-3.8-1-5,0.5L487.2,990c-0.6,0.7-0.8,1.6-0.7,2.5c-0.2,1.1,0.3,2.4,1.2,3.3c1.5,1.3,3.8,1.1,5-0.4l20.7-24.9
	c0.6-0.8,0.9-1.8,0.7-2.7C514.3,966.6,513.9,965.4,512.9,964.6z M462.9,964.6L462.9,964.6c-1.6-1.2-3.8-1-5,0.5L437.2,990
	c-0.6,0.7-0.8,1.6-0.7,2.5c-0.2,1.1,0.3,2.4,1.2,3.3c1.5,1.3,3.8,1.1,5-0.4l20.7-24.9c0.6-0.8,0.9-1.8,0.7-2.7
	C464.3,966.6,463.9,965.4,462.9,964.6z M412.9,964.6L412.9,964.6c-1.6-1.2-3.8-1-5,0.5L387.2,990c-0.6,0.7-0.8,1.6-0.7,2.5
	c-0.2,1.1,0.3,2.4,1.2,3.3c1.5,1.3,3.8,1.1,5-0.4l20.7-24.9c0.6-0.8,0.9-1.8,0.7-2.7C414.3,966.6,413.9,965.4,412.9,964.6z
	 M362.9,964.6L362.9,964.6c-1.6-1.2-3.8-1-5,0.5L337.2,990c-0.6,0.7-0.8,1.6-0.7,2.5c-0.2,1.1,0.3,2.4,1.2,3.3
	c1.5,1.3,3.8,1.1,5-0.4l20.7-24.9c0.6-0.8,0.9-1.8,0.7-2.7C364.3,966.6,363.9,965.4,362.9,964.6z M312.9,964.6L312.9,964.6
	c-1.6-1.2-3.8-1-5,0.5L287.2,990c-0.6,0.7-0.8,1.6-0.7,2.5c-0.2,1.1,0.3,2.4,1.2,3.3c1.5,1.3,3.8,1.1,5-0.4l20.7-24.9
	c0.6-0.8,0.9-1.8,0.7-2.7C314.3,966.6,313.9,965.4,312.9,964.6z M262.9,964.6h-0.1c-1.5-1.2-3.7-1-4.9,0.5L237.2,990
	c-0.6,0.7-0.8,1.6-0.7,2.5c-0.2,1.1,0.3,2.4,1.2,3.3c1.5,1.3,3.8,1.1,5-0.4l20.7-24.9c0.6-0.8,0.9-1.8,0.7-2.7
	C264.3,966.6,263.9,965.4,262.9,964.6z M212.9,964.6h-0.1c-1.5-1.2-3.7-1-4.9,0.5L187.2,990c-0.6,0.7-0.8,1.6-0.7,2.5
	c-0.2,1.1,0.3,2.4,1.2,3.3c1.5,1.3,3.8,1.1,5-0.4l20.7-24.9c0.6-0.8,0.9-1.8,0.7-2.7C214.3,966.6,213.9,965.4,212.9,964.6z
	 M162.9,964.6h-0.1c-1.5-1.2-3.7-1-4.9,0.5L137.2,990c-0.6,0.7-0.8,1.6-0.7,2.5c-0.2,1.1,0.3,2.4,1.2,3.3c1.5,1.3,3.8,1.1,5-0.4
	l20.7-24.9c0.6-0.8,0.9-1.8,0.7-2.7C164.3,966.6,163.9,965.4,162.9,964.6z M112.9,964.6h-0.1c-1.5-1.2-3.7-1-4.9,0.5L87.2,990
	c-0.6,0.7-0.8,1.6-0.7,2.5c-0.2,1.1,0.3,2.4,1.2,3.3c1.5,1.3,3.8,1.1,5-0.4l20.7-24.9c0.6-0.8,0.9-1.8,0.7-2.7
	C114.3,966.6,113.9,965.4,112.9,964.6z M62.9,964.6h-0.1c-1.5-1.2-3.7-1-4.9,0.5L37.2,990c-0.6,0.7-0.8,1.6-0.7,2.5
	c-0.2,1.1,0.3,2.4,1.2,3.3c1.5,1.3,3.8,1.1,5-0.4l20.7-24.9c0.6-0.8,0.9-1.8,0.7-2.7C64.3,966.6,63.9,965.4,62.9,964.6z
	 M1062.9,912.6L1062.9,912.6c-1.6-1.2-3.8-1-5,0.5l-20.7,24.9c-0.6,0.7-0.8,1.6-0.7,2.5c-0.2,1.1,0.3,2.4,1.2,3.3
	c1.5,1.3,3.8,1.1,5-0.4l20.7-24.9c0.6-0.8,0.9-1.8,0.7-2.7C1064.3,914.6,1063.9,913.4,1062.9,912.6z M1012.9,912.6L1012.9,912.6
	c-1.6-1.2-3.8-1-5,0.5L987.2,938c-0.6,0.7-0.8,1.6-0.7,2.5c-0.2,1.1,0.3,2.4,1.2,3.3c1.5,1.3,3.8,1.1,5-0.4l20.7-24.9
	c0.6-0.8,0.9-1.8,0.7-2.7C1014.3,914.6,1013.9,913.4,1012.9,912.6z M962.9,912.6L962.9,912.6c-1.6-1.2-3.8-1-5,0.5L937.2,938
	c-0.6,0.7-0.8,1.6-0.7,2.5c-0.2,1.1,0.3,2.4,1.2,3.3c1.5,1.3,3.8,1.1,5-0.4l20.7-24.9c0.6-0.8,0.9-1.8,0.7-2.7
	C964.3,914.6,963.9,913.4,962.9,912.6z M912.9,912.6L912.9,912.6c-1.6-1.2-3.8-1-5,0.5L887.2,938c-0.6,0.7-0.8,1.6-0.7,2.5
	c-0.2,1.1,0.3,2.4,1.2,3.3c1.5,1.3,3.8,1.1,5-0.4l20.7-24.9c0.6-0.8,0.9-1.8,0.7-2.7C914.3,914.6,913.9,913.4,912.9,912.6z
	 M862.9,912.6L862.9,912.6c-1.6-1.2-3.8-1-5,0.5L837.2,938c-0.6,0.7-0.8,1.6-0.7,2.5c-0.2,1.1,0.3,2.4,1.2,3.3
	c1.5,1.3,3.8,1.1,5-0.4l20.7-24.9c0.6-0.8,0.9-1.8,0.7-2.7C864.3,914.6,863.9,913.4,862.9,912.6z M812.9,912.6L812.9,912.6
	c-1.6-1.2-3.8-1-5,0.5L787.2,938c-0.6,0.7-0.8,1.6-0.7,2.5c-0.2,1.1,0.3,2.4,1.2,3.3c1.5,1.3,3.8,1.1,5-0.4l20.7-24.9
	c0.6-0.8,0.9-1.8,0.7-2.7C814.3,914.6,813.9,913.4,812.9,912.6z M762.9,912.6L762.9,912.6c-1.6-1.2-3.8-1-5,0.5L737.2,938
	c-0.6,0.7-0.8,1.6-0.7,2.5c-0.2,1.1,0.3,2.4,1.2,3.3c1.5,1.3,3.8,1.1,5-0.4l20.7-24.9c0.6-0.8,0.9-1.8,0.7-2.7
	C764.3,914.6,763.9,913.4,762.9,912.6z M712.9,912.6L712.9,912.6c-1.6-1.2-3.8-1-5,0.5L687.2,938c-0.6,0.7-0.8,1.6-0.7,2.5
	c-0.2,1.1,0.3,2.4,1.2,3.3c1.5,1.3,3.8,1.1,5-0.4l20.7-24.9c0.6-0.8,0.9-1.8,0.7-2.7C714.3,914.6,713.9,913.4,712.9,912.6z
	 M662.9,912.6L662.9,912.6c-1.6-1.2-3.8-1-5,0.5L637.2,938c-0.6,0.7-0.8,1.6-0.7,2.5c-0.2,1.1,0.3,2.4,1.2,3.3
	c1.5,1.3,3.8,1.1,5-0.4l20.7-24.9c0.6-0.8,0.9-1.8,0.7-2.7C664.3,914.6,663.9,913.4,662.9,912.6z M612.9,912.6L612.9,912.6
	c-1.6-1.2-3.8-1-5,0.5L587.2,938c-0.6,0.7-0.8,1.6-0.7,2.5c-0.2,1.1,0.3,2.4,1.2,3.3c1.5,1.3,3.8,1.1,5-0.4l20.7-24.9
	c0.6-0.8,0.9-1.8,0.7-2.7C614.3,914.6,613.9,913.4,612.9,912.6z M562.9,912.6L562.9,912.6c-1.6-1.2-3.8-1-5,0.5L537.2,938
	c-0.6,0.7-0.8,1.6-0.7,2.5c-0.2,1.1,0.3,2.4,1.2,3.3c1.5,1.3,3.8,1.1,5-0.4l20.7-24.9c0.6-0.8,0.9-1.8,0.7-2.7
	C564.3,914.6,563.9,913.4,562.9,912.6z M512.9,912.6L512.9,912.6c-1.6-1.2-3.8-1-5,0.5L487.2,938c-0.6,0.7-0.8,1.6-0.7,2.5
	c-0.2,1.1,0.3,2.4,1.2,3.3c1.5,1.3,3.8,1.1,5-0.4l20.7-24.9c0.6-0.8,0.9-1.8,0.7-2.7C514.3,914.6,513.9,913.4,512.9,912.6z
	 M462.9,912.6L462.9,912.6c-1.6-1.2-3.8-1-5,0.5L437.2,938c-0.6,0.7-0.8,1.6-0.7,2.5c-0.2,1.1,0.3,2.4,1.2,3.3
	c1.5,1.3,3.8,1.1,5-0.4l20.7-24.9c0.6-0.8,0.9-1.8,0.7-2.7C464.3,914.6,463.9,913.4,462.9,912.6z M412.9,912.6L412.9,912.6
	c-1.6-1.2-3.8-1-5,0.5L387.2,938c-0.6,0.7-0.8,1.6-0.7,2.5c-0.2,1.1,0.3,2.4,1.2,3.3c1.5,1.3,3.8,1.1,5-0.4l20.7-24.9
	c0.6-0.8,0.9-1.8,0.7-2.7C414.3,914.6,413.9,913.4,412.9,912.6z M362.9,912.6L362.9,912.6c-1.6-1.2-3.8-1-5,0.5L337.2,938
	c-0.6,0.7-0.8,1.6-0.7,2.5c-0.2,1.1,0.3,2.4,1.2,3.3c1.5,1.3,3.8,1.1,5-0.4l20.7-24.9c0.6-0.8,0.9-1.8,0.7-2.7
	C364.3,914.6,363.9,913.4,362.9,912.6z M312.9,912.6L312.9,912.6c-1.6-1.2-3.8-1-5,0.5L287.2,938c-0.6,0.7-0.8,1.6-0.7,2.5
	c-0.2,1.1,0.3,2.4,1.2,3.3c1.5,1.3,3.8,1.1,5-0.4l20.7-24.9c0.6-0.8,0.9-1.8,0.7-2.7C314.3,914.6,313.9,913.4,312.9,912.6z
	 M262.9,912.6h-0.1c-1.5-1.2-3.7-1-4.9,0.5L237.2,938c-0.6,0.7-0.8,1.6-0.7,2.5c-0.2,1.1,0.3,2.4,1.2,3.3c1.5,1.3,3.8,1.1,5-0.4
	l20.7-24.9c0.6-0.8,0.9-1.8,0.7-2.7C264.3,914.6,263.9,913.4,262.9,912.6z M212.9,912.6h-0.1c-1.5-1.2-3.7-1-4.9,0.5L187.2,938
	c-0.6,0.7-0.8,1.6-0.7,2.5c-0.2,1.1,0.3,2.4,1.2,3.3c1.5,1.3,3.8,1.1,5-0.4l20.7-24.9c0.6-0.8,0.9-1.8,0.7-2.7
	C214.3,914.6,213.9,913.4,212.9,912.6z M162.9,912.6h-0.1c-1.5-1.2-3.7-1-4.9,0.5L137.2,938c-0.6,0.7-0.8,1.6-0.7,2.5
	c-0.2,1.1,0.3,2.4,1.2,3.3c1.5,1.3,3.8,1.1,5-0.4l20.7-24.9c0.6-0.8,0.9-1.8,0.7-2.7C164.3,914.6,163.9,913.4,162.9,912.6z
	 M112.9,912.6h-0.1c-1.5-1.2-3.7-1-4.9,0.5L87.2,938c-0.6,0.7-0.8,1.6-0.7,2.5c-0.2,1.1,0.3,2.4,1.2,3.3c1.5,1.3,3.8,1.1,5-0.4
	l20.7-24.9c0.6-0.8,0.9-1.8,0.7-2.7C114.3,914.6,113.9,913.4,112.9,912.6z M62.9,912.6h-0.1c-1.5-1.2-3.7-1-4.9,0.5L37.2,938
	c-0.6,0.7-0.8,1.6-0.7,2.5c-0.2,1.1,0.3,2.4,1.2,3.3c1.5,1.3,3.8,1.1,5-0.4l20.7-24.9c0.6-0.8,0.9-1.8,0.7-2.7
	C64.3,914.6,63.9,913.4,62.9,912.6z M1062.9,860.6L1062.9,860.6c-1.6-1.2-3.8-1-5,0.5l-20.7,24.9c-0.6,0.7-0.8,1.6-0.7,2.5
	c-0.2,1.1,0.3,2.4,1.2,3.3c1.5,1.3,3.8,1.1,5-0.4l20.7-24.9c0.6-0.8,0.9-1.8,0.7-2.7C1064.3,862.6,1063.9,861.4,1062.9,860.6z
	 M1012.9,860.6L1012.9,860.6c-1.6-1.2-3.8-1-5,0.5L987.2,886c-0.6,0.7-0.8,1.6-0.7,2.5c-0.2,1.1,0.3,2.4,1.2,3.3
	c1.5,1.3,3.8,1.1,5-0.4l20.7-24.9c0.6-0.8,0.9-1.8,0.7-2.7C1014.3,862.6,1013.9,861.4,1012.9,860.6z M962.9,860.6L962.9,860.6
	c-1.6-1.2-3.8-1-5,0.5L937.2,886c-0.6,0.7-0.8,1.6-0.7,2.5c-0.2,1.1,0.3,2.4,1.2,3.3c1.5,1.3,3.8,1.1,5-0.4l20.7-24.9
	c0.6-0.8,0.9-1.8,0.7-2.7C964.3,862.6,963.9,861.4,962.9,860.6z M912.9,860.6L912.9,860.6c-1.6-1.2-3.8-1-5,0.5L887.2,886
	c-0.6,0.7-0.8,1.6-0.7,2.5c-0.2,1.1,0.3,2.4,1.2,3.3c1.5,1.3,3.8,1.1,5-0.4l20.7-24.9c0.6-0.8,0.9-1.8,0.7-2.7
	C914.3,862.6,913.9,861.4,912.9,860.6z M862.9,860.6L862.9,860.6c-1.6-1.2-3.8-1-5,0.5L837.2,886c-0.6,0.7-0.8,1.6-0.7,2.5
	c-0.2,1.1,0.3,2.4,1.2,3.3c1.5,1.3,3.8,1.1,5-0.4l20.7-24.9c0.6-0.8,0.9-1.8,0.7-2.7C864.3,862.6,863.9,861.4,862.9,860.6z
	 M812.9,860.6L812.9,860.6c-1.6-1.2-3.8-1-5,0.5L787.2,886c-0.6,0.7-0.8,1.6-0.7,2.5c-0.2,1.1,0.3,2.4,1.2,3.3
	c1.5,1.3,3.8,1.1,5-0.4l20.7-24.9c0.6-0.8,0.9-1.8,0.7-2.7C814.3,862.6,813.9,861.4,812.9,860.6z M762.9,860.6L762.9,860.6
	c-1.6-1.2-3.8-1-5,0.5L737.2,886c-0.6,0.7-0.8,1.6-0.7,2.5c-0.2,1.1,0.3,2.4,1.2,3.3c1.5,1.3,3.8,1.1,5-0.4l20.7-24.9
	c0.6-0.8,0.9-1.8,0.7-2.7C764.3,862.6,763.9,861.4,762.9,860.6z M712.9,860.6L712.9,860.6c-1.6-1.2-3.8-1-5,0.5L687.2,886
	c-0.6,0.7-0.8,1.6-0.7,2.5c-0.2,1.1,0.3,2.4,1.2,3.3c1.5,1.3,3.8,1.1,5-0.4l20.7-24.9c0.6-0.8,0.9-1.8,0.7-2.7
	C714.3,862.6,713.9,861.4,712.9,860.6z M662.9,860.6L662.9,860.6c-1.6-1.2-3.8-1-5,0.5L637.2,886c-0.6,0.7-0.8,1.6-0.7,2.5
	c-0.2,1.1,0.3,2.4,1.2,3.3c1.5,1.3,3.8,1.1,5-0.4l20.7-24.9c0.6-0.8,0.9-1.8,0.7-2.7C664.3,862.6,663.9,861.4,662.9,860.6z
	 M612.9,860.6L612.9,860.6c-1.6-1.2-3.8-1-5,0.5L587.2,886c-0.6,0.7-0.8,1.6-0.7,2.5c-0.2,1.1,0.3,2.4,1.2,3.3
	c1.5,1.3,3.8,1.1,5-0.4l20.7-24.9c0.6-0.8,0.9-1.8,0.7-2.7C614.3,862.6,613.9,861.4,612.9,860.6z M562.9,860.6L562.9,860.6
	c-1.6-1.2-3.8-1-5,0.5L537.2,886c-0.6,0.7-0.8,1.6-0.7,2.5c-0.2,1.1,0.3,2.4,1.2,3.3c1.5,1.3,3.8,1.1,5-0.4l20.7-24.9
	c0.6-0.8,0.9-1.8,0.7-2.7C564.3,862.6,563.9,861.4,562.9,860.6z M512.9,860.6L512.9,860.6c-1.6-1.2-3.8-1-5,0.5L487.2,886
	c-0.6,0.7-0.8,1.6-0.7,2.5c-0.2,1.1,0.3,2.4,1.2,3.3c1.5,1.3,3.8,1.1,5-0.4l20.7-24.9c0.6-0.8,0.9-1.8,0.7-2.7
	C514.3,862.6,513.9,861.4,512.9,860.6z M462.9,860.6L462.9,860.6c-1.6-1.2-3.8-1-5,0.5L437.2,886c-0.6,0.7-0.8,1.6-0.7,2.5
	c-0.2,1.1,0.3,2.4,1.2,3.3c1.5,1.3,3.8,1.1,5-0.4l20.7-24.9c0.6-0.8,0.9-1.8,0.7-2.7C464.3,862.6,463.9,861.4,462.9,860.6z
	 M412.9,860.6L412.9,860.6c-1.6-1.2-3.8-1-5,0.5L387.2,886c-0.6,0.7-0.8,1.6-0.7,2.5c-0.2,1.1,0.3,2.4,1.2,3.3
	c1.5,1.3,3.8,1.1,5-0.4l20.7-24.9c0.6-0.8,0.9-1.8,0.7-2.7C414.3,862.6,413.9,861.4,412.9,860.6z M362.9,860.6L362.9,860.6
	c-1.6-1.2-3.8-1-5,0.5L337.2,886c-0.6,0.7-0.8,1.6-0.7,2.5c-0.2,1.1,0.3,2.4,1.2,3.3c1.5,1.3,3.8,1.1,5-0.4l20.7-24.9
	c0.6-0.8,0.9-1.8,0.7-2.7C364.3,862.6,363.9,861.4,362.9,860.6z M312.9,860.6L312.9,860.6c-1.6-1.2-3.8-1-5,0.5L287.2,886
	c-0.6,0.7-0.8,1.6-0.7,2.5c-0.2,1.1,0.3,2.4,1.2,3.3c1.5,1.3,3.8,1.1,5-0.4l20.7-24.9c0.6-0.8,0.9-1.8,0.7-2.7
	C314.3,862.6,313.9,861.4,312.9,860.6z M262.9,860.6h-0.1c-1.5-1.2-3.7-1-4.9,0.5L237.2,886c-0.6,0.7-0.8,1.6-0.7,2.5
	c-0.2,1.1,0.3,2.4,1.2,3.3c1.5,1.3,3.8,1.1,5-0.4l20.7-24.9c0.6-0.8,0.9-1.8,0.7-2.7C264.3,862.6,263.9,861.4,262.9,860.6z
	 M212.9,860.6h-0.1c-1.5-1.2-3.7-1-4.9,0.5L187.2,886c-0.6,0.7-0.8,1.6-0.7,2.5c-0.2,1.1,0.3,2.4,1.2,3.3c1.5,1.3,3.8,1.1,5-0.4
	l20.7-24.9c0.6-0.8,0.9-1.8,0.7-2.7C214.3,862.6,213.9,861.4,212.9,860.6z M162.9,860.6h-0.1c-1.5-1.2-3.7-1-4.9,0.5L137.2,886
	c-0.6,0.7-0.8,1.6-0.7,2.5c-0.2,1.1,0.3,2.4,1.2,3.3c1.5,1.3,3.8,1.1,5-0.4l20.7-24.9c0.6-0.8,0.9-1.8,0.7-2.7
	C164.3,862.6,163.9,861.4,162.9,860.6z M112.9,860.6h-0.1c-1.5-1.2-3.7-1-4.9,0.5L87.2,886c-0.6,0.7-0.8,1.6-0.7,2.5
	c-0.2,1.1,0.3,2.4,1.2,3.3c1.5,1.3,3.8,1.1,5-0.4l20.7-24.9c0.6-0.8,0.9-1.8,0.7-2.7C114.3,862.6,113.9,861.4,112.9,860.6z
	 M62.9,860.6h-0.1c-1.5-1.2-3.7-1-4.9,0.5L37.2,886c-0.6,0.7-0.8,1.6-0.7,2.5c-0.2,1.1,0.3,2.4,1.2,3.3c1.5,1.3,3.8,1.1,5-0.4
	l20.7-24.9c0.6-0.8,0.9-1.8,0.7-2.7C64.3,862.6,63.9,861.4,62.9,860.6z M1062.9,808.6L1062.9,808.6c-1.6-1.2-3.8-1-5,0.5l-20.7,24.9
	c-0.6,0.7-0.8,1.6-0.7,2.5c-0.2,1.1,0.3,2.4,1.2,3.3c1.5,1.3,3.8,1.1,5-0.4l20.7-24.9c0.6-0.8,0.9-1.8,0.7-2.7
	C1064.3,810.6,1063.9,809.4,1062.9,808.6z M1012.9,808.6L1012.9,808.6c-1.6-1.2-3.8-1-5,0.5L987.2,834c-0.6,0.7-0.8,1.6-0.7,2.5
	c-0.2,1.1,0.3,2.4,1.2,3.3c1.5,1.3,3.8,1.1,5-0.4l20.7-24.9c0.6-0.8,0.9-1.8,0.7-2.7C1014.3,810.6,1013.9,809.4,1012.9,808.6z
	 M962.9,808.6L962.9,808.6c-1.6-1.2-3.8-1-5,0.5L937.2,834c-0.6,0.7-0.8,1.6-0.7,2.5c-0.2,1.1,0.3,2.4,1.2,3.3
	c1.5,1.3,3.8,1.1,5-0.4l20.7-24.9c0.6-0.8,0.9-1.8,0.7-2.7C964.3,810.6,963.9,809.4,962.9,808.6z M912.9,808.6L912.9,808.6
	c-1.6-1.2-3.8-1-5,0.5L887.2,834c-0.6,0.7-0.8,1.6-0.7,2.5c-0.2,1.1,0.3,2.4,1.2,3.3c1.5,1.3,3.8,1.1,5-0.4l20.7-24.9
	c0.6-0.8,0.9-1.8,0.7-2.7C914.3,810.6,913.9,809.4,912.9,808.6z M862.9,808.6L862.9,808.6c-1.6-1.2-3.8-1-5,0.5L837.2,834
	c-0.6,0.7-0.8,1.6-0.7,2.5c-0.2,1.1,0.3,2.4,1.2,3.3c1.5,1.3,3.8,1.1,5-0.4l20.7-24.9c0.6-0.8,0.9-1.8,0.7-2.7
	C864.3,810.6,863.9,809.4,862.9,808.6z M812.9,808.6L812.9,808.6c-1.6-1.2-3.8-1-5,0.5L787.2,834c-0.6,0.7-0.8,1.6-0.7,2.5
	c-0.2,1.1,0.3,2.4,1.2,3.3c1.5,1.3,3.8,1.1,5-0.4l20.7-24.9c0.6-0.8,0.9-1.8,0.7-2.7C814.3,810.6,813.9,809.4,812.9,808.6z
	 M762.9,808.6L762.9,808.6c-1.6-1.2-3.8-1-5,0.5L737.2,834c-0.6,0.7-0.8,1.6-0.7,2.5c-0.2,1.1,0.3,2.4,1.2,3.3
	c1.5,1.3,3.8,1.1,5-0.4l20.7-24.9c0.6-0.8,0.9-1.8,0.7-2.7C764.3,810.6,763.9,809.4,762.9,808.6z M712.9,808.6L712.9,808.6
	c-1.6-1.2-3.8-1-5,0.5L687.2,834c-0.6,0.7-0.8,1.6-0.7,2.5c-0.2,1.1,0.3,2.4,1.2,3.3c1.5,1.3,3.8,1.1,5-0.4l20.7-24.9
	c0.6-0.8,0.9-1.8,0.7-2.7C714.3,810.6,713.9,809.4,712.9,808.6z M662.9,808.6L662.9,808.6c-1.6-1.2-3.8-1-5,0.5L637.2,834
	c-0.6,0.7-0.8,1.6-0.7,2.5c-0.2,1.1,0.3,2.4,1.2,3.3c1.5,1.3,3.8,1.1,5-0.4l20.7-24.9c0.6-0.8,0.9-1.8,0.7-2.7
	C664.3,810.6,663.9,809.4,662.9,808.6z M612.9,808.6L612.9,808.6c-1.6-1.2-3.8-1-5,0.5L587.2,834c-0.6,0.7-0.8,1.6-0.7,2.5
	c-0.2,1.1,0.3,2.4,1.2,3.3c1.5,1.3,3.8,1.1,5-0.4l20.7-24.9c0.6-0.8,0.9-1.8,0.7-2.7C614.3,810.6,613.9,809.4,612.9,808.6z
	 M562.9,808.6L562.9,808.6c-1.6-1.2-3.8-1-5,0.5L537.2,834c-0.6,0.7-0.8,1.6-0.7,2.5c-0.2,1.1,0.3,2.4,1.2,3.3
	c1.5,1.3,3.8,1.1,5-0.4l20.7-24.9c0.6-0.8,0.9-1.8,0.7-2.7C564.3,810.6,563.9,809.4,562.9,808.6z M512.9,808.6L512.9,808.6
	c-1.6-1.2-3.8-1-5,0.5L487.2,834c-0.6,0.7-0.8,1.6-0.7,2.5c-0.2,1.1,0.3,2.4,1.2,3.3c1.5,1.3,3.8,1.1,5-0.4l20.7-24.9
	c0.6-0.8,0.9-1.8,0.7-2.7C514.3,810.6,513.9,809.4,512.9,808.6z M462.9,808.6L462.9,808.6c-1.6-1.2-3.8-1-5,0.5L437.2,834
	c-0.6,0.7-0.8,1.6-0.7,2.5c-0.2,1.1,0.3,2.4,1.2,3.3c1.5,1.3,3.8,1.1,5-0.4l20.7-24.9c0.6-0.8,0.9-1.8,0.7-2.7
	C464.3,810.6,463.9,809.4,462.9,808.6z M412.9,808.6L412.9,808.6c-1.6-1.2-3.8-1-5,0.5L387.2,834c-0.6,0.7-0.8,1.6-0.7,2.5
	c-0.2,1.1,0.3,2.4,1.2,3.3c1.5,1.3,3.8,1.1,5-0.4l20.7-24.9c0.6-0.8,0.9-1.8,0.7-2.7C414.3,810.6,413.9,809.4,412.9,808.6z
	 M362.9,808.6L362.9,808.6c-1.6-1.2-3.8-1-5,0.5L337.2,834c-0.6,0.7-0.8,1.6-0.7,2.5c-0.2,1.1,0.3,2.4,1.2,3.3
	c1.5,1.3,3.8,1.1,5-0.4l20.7-24.9c0.6-0.8,0.9-1.8,0.7-2.7C364.3,810.6,363.9,809.4,362.9,808.6z M312.9,808.6L312.9,808.6
	c-1.6-1.2-3.8-1-5,0.5L287.2,834c-0.6,0.7-0.8,1.6-0.7,2.5c-0.2,1.1,0.3,2.4,1.2,3.3c1.5,1.3,3.8,1.1,5-0.4l20.7-24.9
	c0.6-0.8,0.9-1.8,0.7-2.7C314.3,810.6,313.9,809.4,312.9,808.6z M262.9,808.6h-0.1c-1.5-1.2-3.7-1-4.9,0.5L237.2,834
	c-0.6,0.7-0.8,1.6-0.7,2.5c-0.2,1.1,0.3,2.4,1.2,3.3c1.5,1.3,3.8,1.1,5-0.4l20.7-24.9c0.6-0.8,0.9-1.8,0.7-2.7
	C264.3,810.6,263.9,809.4,262.9,808.6z M212.9,808.6h-0.1c-1.5-1.2-3.7-1-4.9,0.5L187.2,834c-0.6,0.7-0.8,1.6-0.7,2.5
	c-0.2,1.1,0.3,2.4,1.2,3.3c1.5,1.3,3.8,1.1,5-0.4l20.7-24.9c0.6-0.8,0.9-1.8,0.7-2.7C214.3,810.6,213.9,809.4,212.9,808.6z
	 M162.9,808.6h-0.1c-1.5-1.2-3.7-1-4.9,0.5L137.2,834c-0.6,0.7-0.8,1.6-0.7,2.5c-0.2,1.1,0.3,2.4,1.2,3.3c1.5,1.3,3.8,1.1,5-0.4
	l20.7-24.9c0.6-0.8,0.9-1.8,0.7-2.7C164.3,810.6,163.9,809.4,162.9,808.6z M112.9,808.6h-0.1c-1.5-1.2-3.7-1-4.9,0.5L87.2,834
	c-0.6,0.7-0.8,1.6-0.7,2.5c-0.2,1.1,0.3,2.4,1.2,3.3c1.5,1.3,3.8,1.1,5-0.4l20.7-24.9c0.6-0.8,0.9-1.8,0.7-2.7
	C114.3,810.6,113.9,809.4,112.9,808.6z M62.9,808.6h-0.1c-1.5-1.2-3.7-1-4.9,0.5L37.2,834c-0.6,0.7-0.8,1.6-0.7,2.5
	c-0.2,1.1,0.3,2.4,1.2,3.3c1.5,1.3,3.8,1.1,5-0.4l20.7-24.9c0.6-0.8,0.9-1.8,0.7-2.7C64.3,810.6,63.9,809.4,62.9,808.6z
	 M1062.9,756.6L1062.9,756.6c-1.6-1.2-3.8-1-5,0.5l-20.7,24.9c-0.6,0.7-0.8,1.6-0.7,2.5c-0.2,1.1,0.3,2.4,1.2,3.3
	c1.5,1.3,3.8,1.1,5-0.4l20.7-24.9c0.6-0.8,0.9-1.8,0.7-2.7C1064.3,758.6,1063.9,757.4,1062.9,756.6z M1012.9,756.6L1012.9,756.6
	c-1.6-1.2-3.8-1-5,0.5L987.2,782c-0.6,0.7-0.8,1.6-0.7,2.5c-0.2,1.1,0.3,2.4,1.2,3.3c1.5,1.3,3.8,1.1,5-0.4l20.7-24.9
	c0.6-0.8,0.9-1.8,0.7-2.7C1014.3,758.6,1013.9,757.4,1012.9,756.6z M962.9,756.6L962.9,756.6c-1.6-1.2-3.8-1-5,0.5L937.2,782
	c-0.6,0.7-0.8,1.6-0.7,2.5c-0.2,1.1,0.3,2.4,1.2,3.3c1.5,1.3,3.8,1.1,5-0.4l20.7-24.9c0.6-0.8,0.9-1.8,0.7-2.7
	C964.3,758.6,963.9,757.4,962.9,756.6z M912.9,756.6L912.9,756.6c-1.6-1.2-3.8-1-5,0.5L887.2,782c-0.6,0.7-0.8,1.6-0.7,2.5
	c-0.2,1.1,0.3,2.4,1.2,3.3c1.5,1.3,3.8,1.1,5-0.4l20.7-24.9c0.6-0.8,0.9-1.8,0.7-2.7C914.3,758.6,913.9,757.4,912.9,756.6z
	 M862.9,756.6L862.9,756.6c-1.6-1.2-3.8-1-5,0.5L837.2,782c-0.6,0.7-0.8,1.6-0.7,2.5c-0.2,1.1,0.3,2.4,1.2,3.3
	c1.5,1.3,3.8,1.1,5-0.4l20.7-24.9c0.6-0.8,0.9-1.8,0.7-2.7C864.3,758.6,863.9,757.4,862.9,756.6z M812.9,756.6L812.9,756.6
	c-1.6-1.2-3.8-1-5,0.5L787.2,782c-0.6,0.7-0.8,1.6-0.7,2.5c-0.2,1.1,0.3,2.4,1.2,3.3c1.5,1.3,3.8,1.1,5-0.4l20.7-24.9
	c0.6-0.8,0.9-1.8,0.7-2.7C814.3,758.6,813.9,757.4,812.9,756.6z M762.9,756.6L762.9,756.6c-1.6-1.2-3.8-1-5,0.5L737.2,782
	c-0.6,0.7-0.8,1.6-0.7,2.5c-0.2,1.1,0.3,2.4,1.2,3.3c1.5,1.3,3.8,1.1,5-0.4l20.7-24.9c0.6-0.8,0.9-1.8,0.7-2.7
	C764.3,758.6,763.9,757.4,762.9,756.6z M712.9,756.6L712.9,756.6c-1.6-1.2-3.8-1-5,0.5L687.2,782c-0.6,0.7-0.8,1.6-0.7,2.5
	c-0.2,1.1,0.3,2.4,1.2,3.3c1.5,1.3,3.8,1.1,5-0.4l20.7-24.9c0.6-0.8,0.9-1.8,0.7-2.7C714.3,758.6,713.9,757.4,712.9,756.6z
	 M662.9,756.6L662.9,756.6c-1.6-1.2-3.8-1-5,0.5L637.2,782c-0.6,0.7-0.8,1.6-0.7,2.5c-0.2,1.1,0.3,2.4,1.2,3.3
	c1.5,1.3,3.8,1.1,5-0.4l20.7-24.9c0.6-0.8,0.9-1.8,0.7-2.7C664.3,758.6,663.9,757.4,662.9,756.6z M612.9,756.6L612.9,756.6
	c-1.6-1.2-3.8-1-5,0.5L587.2,782c-0.6,0.7-0.8,1.6-0.7,2.5c-0.2,1.1,0.3,2.4,1.2,3.3c1.5,1.3,3.8,1.1,5-0.4l20.7-24.9
	c0.6-0.8,0.9-1.8,0.7-2.7C614.3,758.6,613.9,757.4,612.9,756.6z M562.9,756.6L562.9,756.6c-1.6-1.2-3.8-1-5,0.5L537.2,782
	c-0.6,0.7-0.8,1.6-0.7,2.5c-0.2,1.1,0.3,2.4,1.2,3.3c1.5,1.3,3.8,1.1,5-0.4l20.7-24.9c0.6-0.8,0.9-1.8,0.7-2.7
	C564.3,758.6,563.9,757.4,562.9,756.6z M512.9,756.6L512.9,756.6c-1.6-1.2-3.8-1-5,0.5L487.2,782c-0.6,0.7-0.8,1.6-0.7,2.5
	c-0.2,1.1,0.3,2.4,1.2,3.3c1.5,1.3,3.8,1.1,5-0.4l20.7-24.9c0.6-0.8,0.9-1.8,0.7-2.7C514.3,758.6,513.9,757.4,512.9,756.6z
	 M462.9,756.6L462.9,756.6c-1.6-1.2-3.8-1-5,0.5L437.2,782c-0.6,0.7-0.8,1.6-0.7,2.5c-0.2,1.1,0.3,2.4,1.2,3.3
	c1.5,1.3,3.8,1.1,5-0.4l20.7-24.9c0.6-0.8,0.9-1.8,0.7-2.7C464.3,758.6,463.9,757.4,462.9,756.6z M412.9,756.6L412.9,756.6
	c-1.6-1.2-3.8-1-5,0.5L387.2,782c-0.6,0.7-0.8,1.6-0.7,2.5c-0.2,1.1,0.3,2.4,1.2,3.3c1.5,1.3,3.8,1.1,5-0.4l20.7-24.9
	c0.6-0.8,0.9-1.8,0.7-2.7C414.3,758.6,413.9,757.4,412.9,756.6z M362.9,756.6L362.9,756.6c-1.6-1.2-3.8-1-5,0.5L337.2,782
	c-0.6,0.7-0.8,1.6-0.7,2.5c-0.2,1.1,0.3,2.4,1.2,3.3c1.5,1.3,3.8,1.1,5-0.4l20.7-24.9c0.6-0.8,0.9-1.8,0.7-2.7
	C364.3,758.6,363.9,757.4,362.9,756.6z M312.9,756.6L312.9,756.6c-1.6-1.2-3.8-1-5,0.5L287.2,782c-0.6,0.7-0.8,1.6-0.7,2.5
	c-0.2,1.1,0.3,2.4,1.2,3.3c1.5,1.3,3.8,1.1,5-0.4l20.7-24.9c0.6-0.8,0.9-1.8,0.7-2.7C314.3,758.6,313.9,757.4,312.9,756.6z
	 M262.9,756.6h-0.1c-1.5-1.2-3.7-1-4.9,0.5L237.2,782c-0.6,0.7-0.8,1.6-0.7,2.5c-0.2,1.1,0.3,2.4,1.2,3.3c1.5,1.3,3.8,1.1,5-0.4
	l20.7-24.9c0.6-0.8,0.9-1.8,0.7-2.7C264.3,758.6,263.9,757.4,262.9,756.6z M212.9,756.6h-0.1c-1.5-1.2-3.7-1-4.9,0.5L187.2,782
	c-0.6,0.7-0.8,1.6-0.7,2.5c-0.2,1.1,0.3,2.4,1.2,3.3c1.5,1.3,3.8,1.1,5-0.4l20.7-24.9c0.6-0.8,0.9-1.8,0.7-2.7
	C214.3,758.6,213.9,757.4,212.9,756.6z M162.9,756.6h-0.1c-1.5-1.2-3.7-1-4.9,0.5L137.2,782c-0.6,0.7-0.8,1.6-0.7,2.5
	c-0.2,1.1,0.3,2.4,1.2,3.3c1.5,1.3,3.8,1.1,5-0.4l20.7-24.9c0.6-0.8,0.9-1.8,0.7-2.7C164.3,758.6,163.9,757.4,162.9,756.6z
	 M112.9,756.6h-0.1c-1.5-1.2-3.7-1-4.9,0.5L87.2,782c-0.6,0.7-0.8,1.6-0.7,2.5c-0.2,1.1,0.3,2.4,1.2,3.3c1.5,1.3,3.8,1.1,5-0.4
	l20.7-24.9c0.6-0.8,0.9-1.8,0.7-2.7C114.3,758.6,113.9,757.4,112.9,756.6z M62.9,756.6h-0.1c-1.5-1.2-3.7-1-4.9,0.5L37.2,782
	c-0.6,0.7-0.8,1.6-0.7,2.5c-0.2,1.1,0.3,2.4,1.2,3.3c1.5,1.3,3.8,1.1,5-0.4l20.7-24.9c0.6-0.8,0.9-1.8,0.7-2.7
	C64.3,758.6,63.9,757.4,62.9,756.6z M1062.9,704.6L1062.9,704.6c-1.6-1.2-3.8-1-5,0.5l-20.7,24.9c-0.6,0.7-0.8,1.6-0.7,2.5
	c-0.2,1.1,0.3,2.4,1.2,3.3c1.5,1.3,3.8,1.1,5-0.4l20.7-24.9c0.6-0.8,0.9-1.8,0.7-2.7C1064.3,706.6,1063.9,705.4,1062.9,704.6z
	 M1012.9,704.6L1012.9,704.6c-1.6-1.2-3.8-1-5,0.5L987.2,730c-0.6,0.7-0.8,1.6-0.7,2.5c-0.2,1.1,0.3,2.4,1.2,3.3
	c1.5,1.3,3.8,1.1,5-0.4l20.7-24.9c0.6-0.8,0.9-1.8,0.7-2.7C1014.3,706.6,1013.9,705.4,1012.9,704.6z M962.9,704.6L962.9,704.6
	c-1.6-1.2-3.8-1-5,0.5L937.2,730c-0.6,0.7-0.8,1.6-0.7,2.5c-0.2,1.1,0.3,2.4,1.2,3.3c1.5,1.3,3.8,1.1,5-0.4l20.7-24.9
	c0.6-0.8,0.9-1.8,0.7-2.7C964.3,706.6,963.9,705.4,962.9,704.6z M912.9,704.6L912.9,704.6c-1.6-1.2-3.8-1-5,0.5L887.2,730
	c-0.6,0.7-0.8,1.6-0.7,2.5c-0.2,1.1,0.3,2.4,1.2,3.3c1.5,1.3,3.8,1.1,5-0.4l20.7-24.9c0.6-0.8,0.9-1.8,0.7-2.7
	C914.3,706.6,913.9,705.4,912.9,704.6z M862.9,704.6L862.9,704.6c-1.6-1.2-3.8-1-5,0.5L837.2,730c-0.6,0.7-0.8,1.6-0.7,2.5
	c-0.2,1.1,0.3,2.4,1.2,3.3c1.5,1.3,3.8,1.1,5-0.4l20.7-24.9c0.6-0.8,0.9-1.8,0.7-2.7C864.3,706.6,863.9,705.4,862.9,704.6z
	 M812.9,704.6L812.9,704.6c-1.6-1.2-3.8-1-5,0.5L787.2,730c-0.6,0.7-0.8,1.6-0.7,2.5c-0.2,1.1,0.3,2.4,1.2,3.3
	c1.5,1.3,3.8,1.1,5-0.4l20.7-24.9c0.6-0.8,0.9-1.8,0.7-2.7C814.3,706.6,813.9,705.4,812.9,704.6z M762.9,704.6L762.9,704.6
	c-1.6-1.2-3.8-1-5,0.5L737.2,730c-0.6,0.7-0.8,1.6-0.7,2.5c-0.2,1.1,0.3,2.4,1.2,3.3c1.5,1.3,3.8,1.1,5-0.4l20.7-24.9
	c0.6-0.8,0.9-1.8,0.7-2.7C764.3,706.6,763.9,705.4,762.9,704.6z M712.9,704.6L712.9,704.6c-1.6-1.2-3.8-1-5,0.5L687.2,730
	c-0.6,0.7-0.8,1.6-0.7,2.5c-0.2,1.1,0.3,2.4,1.2,3.3c1.5,1.3,3.8,1.1,5-0.4l20.7-24.9c0.6-0.8,0.9-1.8,0.7-2.7
	C714.3,706.6,713.9,705.4,712.9,704.6z M662.9,704.6L662.9,704.6c-1.6-1.2-3.8-1-5,0.5L637.2,730c-0.6,0.7-0.8,1.6-0.7,2.5
	c-0.2,1.1,0.3,2.4,1.2,3.3c1.5,1.3,3.8,1.1,5-0.4l20.7-24.9c0.6-0.8,0.9-1.8,0.7-2.7C664.3,706.6,663.9,705.4,662.9,704.6z
	 M612.9,704.6L612.9,704.6c-1.6-1.2-3.8-1-5,0.5L587.2,730c-0.6,0.7-0.8,1.6-0.7,2.5c-0.2,1.1,0.3,2.4,1.2,3.3
	c1.5,1.3,3.8,1.1,5-0.4l20.7-24.9c0.6-0.8,0.9-1.8,0.7-2.7C614.3,706.6,613.9,705.4,612.9,704.6z M562.9,704.6L562.9,704.6
	c-1.6-1.2-3.8-1-5,0.5L537.2,730c-0.6,0.7-0.8,1.6-0.7,2.5c-0.2,1.1,0.3,2.4,1.2,3.3c1.5,1.3,3.8,1.1,5-0.4l20.7-24.9
	c0.6-0.8,0.9-1.8,0.7-2.7C564.3,706.6,563.9,705.4,562.9,704.6z M512.9,704.6L512.9,704.6c-1.6-1.2-3.8-1-5,0.5L487.2,730
	c-0.6,0.7-0.8,1.6-0.7,2.5c-0.2,1.1,0.3,2.4,1.2,3.3c1.5,1.3,3.8,1.1,5-0.4l20.7-24.9c0.6-0.8,0.9-1.8,0.7-2.7
	C514.3,706.6,513.9,705.4,512.9,704.6z M462.9,704.6L462.9,704.6c-1.6-1.2-3.8-1-5,0.5L437.2,730c-0.6,0.7-0.8,1.6-0.7,2.5
	c-0.2,1.1,0.3,2.4,1.2,3.3c1.5,1.3,3.8,1.1,5-0.4l20.7-24.9c0.6-0.8,0.9-1.8,0.7-2.7C464.3,706.6,463.9,705.4,462.9,704.6z
	 M412.9,704.6L412.9,704.6c-1.6-1.2-3.8-1-5,0.5L387.2,730c-0.6,0.7-0.8,1.6-0.7,2.5c-0.2,1.1,0.3,2.4,1.2,3.3
	c1.5,1.3,3.8,1.1,5-0.4l20.7-24.9c0.6-0.8,0.9-1.8,0.7-2.7C414.3,706.6,413.9,705.4,412.9,704.6z M362.9,704.6L362.9,704.6
	c-1.6-1.2-3.8-1-5,0.5L337.2,730c-0.6,0.7-0.8,1.6-0.7,2.5c-0.2,1.1,0.3,2.4,1.2,3.3c1.5,1.3,3.8,1.1,5-0.4l20.7-24.9
	c0.6-0.8,0.9-1.8,0.7-2.7C364.3,706.6,363.9,705.4,362.9,704.6z M312.9,704.6L312.9,704.6c-1.6-1.2-3.8-1-5,0.5L287.2,730
	c-0.6,0.7-0.8,1.6-0.7,2.5c-0.2,1.1,0.3,2.4,1.2,3.3c1.5,1.3,3.8,1.1,5-0.4l20.7-24.9c0.6-0.8,0.9-1.8,0.7-2.7
	C314.3,706.6,313.9,705.4,312.9,704.6z M262.9,704.6h-0.1c-1.5-1.2-3.7-1-4.9,0.5L237.2,730c-0.6,0.7-0.8,1.6-0.7,2.5
	c-0.2,1.1,0.3,2.4,1.2,3.3c1.5,1.3,3.8,1.1,5-0.4l20.7-24.9c0.6-0.8,0.9-1.8,0.7-2.7C264.3,706.6,263.9,705.4,262.9,704.6z
	 M212.9,704.6h-0.1c-1.5-1.2-3.7-1-4.9,0.5L187.2,730c-0.6,0.7-0.8,1.6-0.7,2.5c-0.2,1.1,0.3,2.4,1.2,3.3c1.5,1.3,3.8,1.1,5-0.4
	l20.7-24.9c0.6-0.8,0.9-1.8,0.7-2.7C214.3,706.6,213.9,705.4,212.9,704.6z M162.9,704.6h-0.1c-1.5-1.2-3.7-1-4.9,0.5L137.2,730
	c-0.6,0.7-0.8,1.6-0.7,2.5c-0.2,1.1,0.3,2.4,1.2,3.3c1.5,1.3,3.8,1.1,5-0.4l20.7-24.9c0.6-0.8,0.9-1.8,0.7-2.7
	C164.3,706.6,163.9,705.4,162.9,704.6z M112.9,704.6h-0.1c-1.5-1.2-3.7-1-4.9,0.5L87.2,730c-0.6,0.7-0.8,1.6-0.7,2.5
	c-0.2,1.1,0.3,2.4,1.2,3.3c1.5,1.3,3.8,1.1,5-0.4l20.7-24.9c0.6-0.8,0.9-1.8,0.7-2.7C114.3,706.6,113.9,705.4,112.9,704.6z
	 M62.9,704.6h-0.1c-1.5-1.2-3.7-1-4.9,0.5L37.2,730c-0.6,0.7-0.8,1.6-0.7,2.5c-0.2,1.1,0.3,2.4,1.2,3.3c1.5,1.3,3.8,1.1,5-0.4
	l20.7-24.9c0.6-0.8,0.9-1.8,0.7-2.7C64.3,706.6,63.9,705.4,62.9,704.6z M1062.9,652.6L1062.9,652.6c-1.6-1.2-3.8-1-5,0.5l-20.7,24.9
	c-0.6,0.7-0.8,1.6-0.7,2.5c-0.2,1.1,0.3,2.4,1.2,3.3c1.5,1.3,3.8,1.1,5-0.4l20.7-24.9c0.6-0.8,0.9-1.8,0.7-2.7
	C1064.3,654.6,1063.9,653.4,1062.9,652.6z M1012.9,652.6L1012.9,652.6c-1.6-1.2-3.8-1-5,0.5L987.2,678c-0.6,0.7-0.8,1.6-0.7,2.5
	c-0.2,1.1,0.3,2.4,1.2,3.3c1.5,1.3,3.8,1.1,5-0.4l20.7-24.9c0.6-0.8,0.9-1.8,0.7-2.7C1014.3,654.6,1013.9,653.4,1012.9,652.6z
	 M962.9,652.6L962.9,652.6c-1.6-1.2-3.8-1-5,0.5L937.2,678c-0.6,0.7-0.8,1.6-0.7,2.5c-0.2,1.1,0.3,2.4,1.2,3.3
	c1.5,1.3,3.8,1.1,5-0.4l20.7-24.9c0.6-0.8,0.9-1.8,0.7-2.7C964.3,654.6,963.9,653.4,962.9,652.6z M912.9,652.6L912.9,652.6
	c-1.6-1.2-3.8-1-5,0.5L887.2,678c-0.6,0.7-0.8,1.6-0.7,2.5c-0.2,1.1,0.3,2.4,1.2,3.3c1.5,1.3,3.8,1.1,5-0.4l20.7-24.9
	c0.6-0.8,0.9-1.8,0.7-2.7C914.3,654.6,913.9,653.4,912.9,652.6z M862.9,652.6L862.9,652.6c-1.6-1.2-3.8-1-5,0.5L837.2,678
	c-0.6,0.7-0.8,1.6-0.7,2.5c-0.2,1.1,0.3,2.4,1.2,3.3c1.5,1.3,3.8,1.1,5-0.4l20.7-24.9c0.6-0.8,0.9-1.8,0.7-2.7
	C864.3,654.6,863.9,653.4,862.9,652.6z M812.9,652.6L812.9,652.6c-1.6-1.2-3.8-1-5,0.5L787.2,678c-0.6,0.7-0.8,1.6-0.7,2.5
	c-0.2,1.1,0.3,2.4,1.2,3.3c1.5,1.3,3.8,1.1,5-0.4l20.7-24.9c0.6-0.8,0.9-1.8,0.7-2.7C814.3,654.6,813.9,653.4,812.9,652.6z
	 M762.9,652.6L762.9,652.6c-1.6-1.2-3.8-1-5,0.5L737.2,678c-0.6,0.7-0.8,1.6-0.7,2.5c-0.2,1.1,0.3,2.4,1.2,3.3
	c1.5,1.3,3.8,1.1,5-0.4l20.7-24.9c0.6-0.8,0.9-1.8,0.7-2.7C764.3,654.6,763.9,653.4,762.9,652.6z M712.9,652.6L712.9,652.6
	c-1.6-1.2-3.8-1-5,0.5L687.2,678c-0.6,0.7-0.8,1.6-0.7,2.5c-0.2,1.1,0.3,2.4,1.2,3.3c1.5,1.3,3.8,1.1,5-0.4l20.7-24.9
	c0.6-0.8,0.9-1.8,0.7-2.7C714.3,654.6,713.9,653.4,712.9,652.6z M662.9,652.6L662.9,652.6c-1.6-1.2-3.8-1-5,0.5L637.2,678
	c-0.6,0.7-0.8,1.6-0.7,2.5c-0.2,1.1,0.3,2.4,1.2,3.3c1.5,1.3,3.8,1.1,5-0.4l20.7-24.9c0.6-0.8,0.9-1.8,0.7-2.7
	C664.3,654.6,663.9,653.4,662.9,652.6z M612.9,652.6L612.9,652.6c-1.6-1.2-3.8-1-5,0.5L587.2,678c-0.6,0.7-0.8,1.6-0.7,2.5
	c-0.2,1.1,0.3,2.4,1.2,3.3c1.5,1.3,3.8,1.1,5-0.4l20.7-24.9c0.6-0.8,0.9-1.8,0.7-2.7C614.3,654.6,613.9,653.4,612.9,652.6z
	 M562.9,652.6L562.9,652.6c-1.6-1.2-3.8-1-5,0.5L537.2,678c-0.6,0.7-0.8,1.6-0.7,2.5c-0.2,1.1,0.3,2.4,1.2,3.3
	c1.5,1.3,3.8,1.1,5-0.4l20.7-24.9c0.6-0.8,0.9-1.8,0.7-2.7C564.3,654.6,563.9,653.4,562.9,652.6z M512.9,652.6L512.9,652.6
	c-1.6-1.2-3.8-1-5,0.5L487.2,678c-0.6,0.7-0.8,1.6-0.7,2.5c-0.2,1.1,0.3,2.4,1.2,3.3c1.5,1.3,3.8,1.1,5-0.4l20.7-24.9
	c0.6-0.8,0.9-1.8,0.7-2.7C514.3,654.6,513.9,653.4,512.9,652.6z M462.9,652.6L462.9,652.6c-1.6-1.2-3.8-1-5,0.5L437.2,678
	c-0.6,0.7-0.8,1.6-0.7,2.5c-0.2,1.1,0.3,2.4,1.2,3.3c1.5,1.3,3.8,1.1,5-0.4l20.7-24.9c0.6-0.8,0.9-1.8,0.7-2.7
	C464.3,654.6,463.9,653.4,462.9,652.6z M412.9,652.6L412.9,652.6c-1.6-1.2-3.8-1-5,0.5L387.2,678c-0.6,0.7-0.8,1.6-0.7,2.5
	c-0.2,1.1,0.3,2.4,1.2,3.3c1.5,1.3,3.8,1.1,5-0.4l20.7-24.9c0.6-0.8,0.9-1.8,0.7-2.7C414.3,654.6,413.9,653.4,412.9,652.6z
	 M362.9,652.6L362.9,652.6c-1.6-1.2-3.8-1-5,0.5L337.2,678c-0.6,0.7-0.8,1.6-0.7,2.5c-0.2,1.1,0.3,2.4,1.2,3.3
	c1.5,1.3,3.8,1.1,5-0.4l20.7-24.9c0.6-0.8,0.9-1.8,0.7-2.7C364.3,654.6,363.9,653.4,362.9,652.6z M312.9,652.6L312.9,652.6
	c-1.6-1.2-3.8-1-5,0.5L287.2,678c-0.6,0.7-0.8,1.6-0.7,2.5c-0.2,1.1,0.3,2.4,1.2,3.3c1.5,1.3,3.8,1.1,5-0.4l20.7-24.9
	c0.6-0.8,0.9-1.8,0.7-2.7C314.3,654.6,313.9,653.4,312.9,652.6z M262.9,652.6h-0.1c-1.5-1.2-3.7-1-4.9,0.5L237.2,678
	c-0.6,0.7-0.8,1.6-0.7,2.5c-0.2,1.1,0.3,2.4,1.2,3.3c1.5,1.3,3.8,1.1,5-0.4l20.7-24.9c0.6-0.8,0.9-1.8,0.7-2.7
	C264.3,654.6,263.9,653.4,262.9,652.6z M212.9,652.6h-0.1c-1.5-1.2-3.7-1-4.9,0.5L187.2,678c-0.6,0.7-0.8,1.6-0.7,2.5
	c-0.2,1.1,0.3,2.4,1.2,3.3c1.5,1.3,3.8,1.1,5-0.4l20.7-24.9c0.6-0.8,0.9-1.8,0.7-2.7C214.3,654.6,213.9,653.4,212.9,652.6z
	 M162.9,652.6h-0.1c-1.5-1.2-3.7-1-4.9,0.5L137.2,678c-0.6,0.7-0.8,1.6-0.7,2.5c-0.2,1.1,0.3,2.4,1.2,3.3c1.5,1.3,3.8,1.1,5-0.4
	l20.7-24.9c0.6-0.8,0.9-1.8,0.7-2.7C164.3,654.6,163.9,653.4,162.9,652.6z M112.9,652.6h-0.1c-1.5-1.2-3.7-1-4.9,0.5L87.2,678
	c-0.6,0.7-0.8,1.6-0.7,2.5c-0.2,1.1,0.3,2.4,1.2,3.3c1.5,1.3,3.8,1.1,5-0.4l20.7-24.9c0.6-0.8,0.9-1.8,0.7-2.7
	C114.3,654.6,113.9,653.4,112.9,652.6z M62.9,652.6h-0.1c-1.5-1.2-3.7-1-4.9,0.5L37.2,678c-0.6,0.7-0.8,1.6-0.7,2.5
	c-0.2,1.1,0.3,2.4,1.2,3.3c1.5,1.3,3.8,1.1,5-0.4l20.7-24.9c0.6-0.8,0.9-1.8,0.7-2.7C64.3,654.6,63.9,653.4,62.9,652.6z
	 M1062.9,600.6L1062.9,600.6c-1.6-1.2-3.8-1-5,0.5l-20.7,24.9c-0.6,0.7-0.8,1.6-0.7,2.5c-0.2,1.1,0.3,2.4,1.2,3.3
	c1.5,1.3,3.8,1.1,5-0.4l20.7-24.9c0.6-0.8,0.9-1.8,0.7-2.7C1064.3,602.6,1063.9,601.4,1062.9,600.6z M1012.9,600.6L1012.9,600.6
	c-1.6-1.2-3.8-1-5,0.5L987.2,626c-0.6,0.7-0.8,1.6-0.7,2.5c-0.2,1.1,0.3,2.4,1.2,3.3c1.5,1.3,3.8,1.1,5-0.4l20.7-24.9
	c0.6-0.8,0.9-1.8,0.7-2.7C1014.3,602.6,1013.9,601.4,1012.9,600.6z M962.9,600.6L962.9,600.6c-1.6-1.2-3.8-1-5,0.5L937.2,626
	c-0.6,0.7-0.8,1.6-0.7,2.5c-0.2,1.1,0.3,2.4,1.2,3.3c1.5,1.3,3.8,1.1,5-0.4l20.7-24.9c0.6-0.8,0.9-1.8,0.7-2.7
	C964.3,602.6,963.9,601.4,962.9,600.6z M912.9,600.6L912.9,600.6c-1.6-1.2-3.8-1-5,0.5L887.2,626c-0.6,0.7-0.8,1.6-0.7,2.5
	c-0.2,1.1,0.3,2.4,1.2,3.3c1.5,1.3,3.8,1.1,5-0.4l20.7-24.9c0.6-0.8,0.9-1.8,0.7-2.7C914.3,602.6,913.9,601.4,912.9,600.6z
	 M862.9,600.6L862.9,600.6c-1.6-1.2-3.8-1-5,0.5L837.2,626c-0.6,0.7-0.8,1.6-0.7,2.5c-0.2,1.1,0.3,2.4,1.2,3.3
	c1.5,1.3,3.8,1.1,5-0.4l20.7-24.9c0.6-0.8,0.9-1.8,0.7-2.7C864.3,602.6,863.9,601.4,862.9,600.6z M812.9,600.6L812.9,600.6
	c-1.6-1.2-3.8-1-5,0.5L787.2,626c-0.6,0.7-0.8,1.6-0.7,2.5c-0.2,1.1,0.3,2.4,1.2,3.3c1.5,1.3,3.8,1.1,5-0.4l20.7-24.9
	c0.6-0.8,0.9-1.8,0.7-2.7C814.3,602.6,813.9,601.4,812.9,600.6z M762.9,600.6L762.9,600.6c-1.6-1.2-3.8-1-5,0.5L737.2,626
	c-0.6,0.7-0.8,1.6-0.7,2.5c-0.2,1.1,0.3,2.4,1.2,3.3c1.5,1.3,3.8,1.1,5-0.4l20.7-24.9c0.6-0.8,0.9-1.8,0.7-2.7
	C764.3,602.6,763.9,601.4,762.9,600.6z M712.9,600.6L712.9,600.6c-1.6-1.2-3.8-1-5,0.5L687.2,626c-0.6,0.7-0.8,1.6-0.7,2.5
	c-0.2,1.1,0.3,2.4,1.2,3.3c1.5,1.3,3.8,1.1,5-0.4l20.7-24.9c0.6-0.8,0.9-1.8,0.7-2.7C714.3,602.6,713.9,601.4,712.9,600.6z
	 M662.9,600.6L662.9,600.6c-1.6-1.2-3.8-1-5,0.5L637.2,626c-0.6,0.7-0.8,1.6-0.7,2.5c-0.2,1.1,0.3,2.4,1.2,3.3
	c1.5,1.3,3.8,1.1,5-0.4l20.7-24.9c0.6-0.8,0.9-1.8,0.7-2.7C664.3,602.6,663.9,601.4,662.9,600.6z M612.9,600.6L612.9,600.6
	c-1.6-1.2-3.8-1-5,0.5L587.2,626c-0.6,0.7-0.8,1.6-0.7,2.5c-0.2,1.1,0.3,2.4,1.2,3.3c1.5,1.3,3.8,1.1,5-0.4l20.7-24.9
	c0.6-0.8,0.9-1.8,0.7-2.7C614.3,602.6,613.9,601.4,612.9,600.6z M562.9,600.6L562.9,600.6c-1.6-1.2-3.8-1-5,0.5L537.2,626
	c-0.6,0.7-0.8,1.6-0.7,2.5c-0.2,1.1,0.3,2.4,1.2,3.3c1.5,1.3,3.8,1.1,5-0.4l20.7-24.9c0.6-0.8,0.9-1.8,0.7-2.7
	C564.3,602.6,563.9,601.4,562.9,600.6z M512.9,600.6L512.9,600.6c-1.6-1.2-3.8-1-5,0.5L487.2,626c-0.6,0.7-0.8,1.6-0.7,2.5
	c-0.2,1.1,0.3,2.4,1.2,3.3c1.5,1.3,3.8,1.1,5-0.4l20.7-24.9c0.6-0.8,0.9-1.8,0.7-2.7C514.3,602.6,513.9,601.4,512.9,600.6z
	 M462.9,600.6L462.9,600.6c-1.6-1.2-3.8-1-5,0.5L437.2,626c-0.6,0.7-0.8,1.6-0.7,2.5c-0.2,1.1,0.3,2.4,1.2,3.3
	c1.5,1.3,3.8,1.1,5-0.4l20.7-24.9c0.6-0.8,0.9-1.8,0.7-2.7C464.3,602.6,463.9,601.4,462.9,600.6z M412.9,600.6L412.9,600.6
	c-1.6-1.2-3.8-1-5,0.5L387.2,626c-0.6,0.7-0.8,1.6-0.7,2.5c-0.2,1.1,0.3,2.4,1.2,3.3c1.5,1.3,3.8,1.1,5-0.4l20.7-24.9
	c0.6-0.8,0.9-1.8,0.7-2.7C414.3,602.6,413.9,601.4,412.9,600.6z M362.9,600.6L362.9,600.6c-1.6-1.2-3.8-1-5,0.5L337.2,626
	c-0.6,0.7-0.8,1.6-0.7,2.5c-0.2,1.1,0.3,2.4,1.2,3.3c1.5,1.3,3.8,1.1,5-0.4l20.7-24.9c0.6-0.8,0.9-1.8,0.7-2.7
	C364.3,602.6,363.9,601.4,362.9,600.6z M312.9,600.6L312.9,600.6c-1.6-1.2-3.8-1-5,0.5L287.2,626c-0.6,0.7-0.8,1.6-0.7,2.5
	c-0.2,1.1,0.3,2.4,1.2,3.3c1.5,1.3,3.8,1.1,5-0.4l20.7-24.9c0.6-0.8,0.9-1.8,0.7-2.7C314.3,602.6,313.9,601.4,312.9,600.6z
	 M262.9,600.6h-0.1c-1.5-1.2-3.7-1-4.9,0.5L237.2,626c-0.6,0.7-0.8,1.6-0.7,2.5c-0.2,1.1,0.3,2.4,1.2,3.3c1.5,1.3,3.8,1.1,5-0.4
	l20.7-24.9c0.6-0.8,0.9-1.8,0.7-2.7C264.3,602.6,263.9,601.4,262.9,600.6z M212.9,600.6h-0.1c-1.5-1.2-3.7-1-4.9,0.5L187.2,626
	c-0.6,0.7-0.8,1.6-0.7,2.5c-0.2,1.1,0.3,2.4,1.2,3.3c1.5,1.3,3.8,1.1,5-0.4l20.7-24.9c0.6-0.8,0.9-1.8,0.7-2.7
	C214.3,602.6,213.9,601.4,212.9,600.6z M162.9,600.6h-0.1c-1.5-1.2-3.7-1-4.9,0.5L137.2,626c-0.6,0.7-0.8,1.6-0.7,2.5
	c-0.2,1.1,0.3,2.4,1.2,3.3c1.5,1.3,3.8,1.1,5-0.4l20.7-24.9c0.6-0.8,0.9-1.8,0.7-2.7C164.3,602.6,163.9,601.4,162.9,600.6z
	 M112.9,600.6h-0.1c-1.5-1.2-3.7-1-4.9,0.5L87.2,626c-0.6,0.7-0.8,1.6-0.7,2.5c-0.2,1.1,0.3,2.4,1.2,3.3c1.5,1.3,3.8,1.1,5-0.4
	l20.7-24.9c0.6-0.8,0.9-1.8,0.7-2.7C114.3,602.6,113.9,601.4,112.9,600.6z M62.9,600.6h-0.1c-1.5-1.2-3.7-1-4.9,0.5L37.2,626
	c-0.6,0.7-0.8,1.6-0.7,2.5c-0.2,1.1,0.3,2.4,1.2,3.3c1.5,1.3,3.8,1.1,5-0.4l20.7-24.9c0.6-0.8,0.9-1.8,0.7-2.7
	C64.3,602.6,63.9,601.4,62.9,600.6z M1062.9,548.6L1062.9,548.6c-1.6-1.2-3.8-1-5,0.5l-20.7,24.9c-0.6,0.7-0.8,1.6-0.7,2.5
	c-0.2,1.1,0.3,2.4,1.2,3.3c1.5,1.3,3.8,1.1,5-0.4l20.7-24.9c0.6-0.8,0.9-1.8,0.7-2.7C1064.3,550.6,1063.9,549.4,1062.9,548.6z
	 M1012.9,548.6L1012.9,548.6c-1.6-1.2-3.8-1-5,0.5L987.2,574c-0.6,0.7-0.8,1.6-0.7,2.5c-0.2,1.1,0.3,2.4,1.2,3.3
	c1.5,1.3,3.8,1.1,5-0.4l20.7-24.9c0.6-0.8,0.9-1.8,0.7-2.7C1014.3,550.6,1013.9,549.4,1012.9,548.6z M962.9,548.6L962.9,548.6
	c-1.6-1.2-3.8-1-5,0.5L937.2,574c-0.6,0.7-0.8,1.6-0.7,2.5c-0.2,1.1,0.3,2.4,1.2,3.3c1.5,1.3,3.8,1.1,5-0.4l20.7-24.9
	c0.6-0.8,0.9-1.8,0.7-2.7C964.3,550.6,963.9,549.4,962.9,548.6z M912.9,548.6L912.9,548.6c-1.6-1.2-3.8-1-5,0.5L887.2,574
	c-0.6,0.7-0.8,1.6-0.7,2.5c-0.2,1.1,0.3,2.4,1.2,3.3c1.5,1.3,3.8,1.1,5-0.4l20.7-24.9c0.6-0.8,0.9-1.8,0.7-2.7
	C914.3,550.6,913.9,549.4,912.9,548.6z M862.9,548.6L862.9,548.6c-1.6-1.2-3.8-1-5,0.5L837.2,574c-0.6,0.7-0.8,1.6-0.7,2.5
	c-0.2,1.1,0.3,2.4,1.2,3.3c1.5,1.3,3.8,1.1,5-0.4l20.7-24.9c0.6-0.8,0.9-1.8,0.7-2.7C864.3,550.6,863.9,549.4,862.9,548.6z
	 M812.9,548.6L812.9,548.6c-1.6-1.2-3.8-1-5,0.5L787.2,574c-0.6,0.7-0.8,1.6-0.7,2.5c-0.2,1.1,0.3,2.4,1.2,3.3
	c1.5,1.3,3.8,1.1,5-0.4l20.7-24.9c0.6-0.8,0.9-1.8,0.7-2.7C814.3,550.6,813.9,549.4,812.9,548.6z M762.9,548.6L762.9,548.6
	c-1.6-1.2-3.8-1-5,0.5L737.2,574c-0.6,0.7-0.8,1.6-0.7,2.5c-0.2,1.1,0.3,2.4,1.2,3.3c1.5,1.3,3.8,1.1,5-0.4l20.7-24.9
	c0.6-0.8,0.9-1.8,0.7-2.7C764.3,550.6,763.9,549.4,762.9,548.6z M712.9,548.6L712.9,548.6c-1.6-1.2-3.8-1-5,0.5L687.2,574
	c-0.6,0.7-0.8,1.6-0.7,2.5c-0.2,1.1,0.3,2.4,1.2,3.3c1.5,1.3,3.8,1.1,5-0.4l20.7-24.9c0.6-0.8,0.9-1.8,0.7-2.7
	C714.3,550.6,713.9,549.4,712.9,548.6z M662.9,548.6L662.9,548.6c-1.6-1.2-3.8-1-5,0.5L637.2,574c-0.6,0.7-0.8,1.6-0.7,2.5
	c-0.2,1.1,0.3,2.4,1.2,3.3c1.5,1.3,3.8,1.1,5-0.4l20.7-24.9c0.6-0.8,0.9-1.8,0.7-2.7C664.3,550.6,663.9,549.4,662.9,548.6z
	 M612.9,548.6L612.9,548.6c-1.6-1.2-3.8-1-5,0.5L587.2,574c-0.6,0.7-0.8,1.6-0.7,2.5c-0.2,1.1,0.3,2.4,1.2,3.3
	c1.5,1.3,3.8,1.1,5-0.4l20.7-24.9c0.6-0.8,0.9-1.8,0.7-2.7C614.3,550.6,613.9,549.4,612.9,548.6z M562.9,548.6L562.9,548.6
	c-1.6-1.2-3.8-1-5,0.5L537.2,574c-0.6,0.7-0.8,1.6-0.7,2.5c-0.2,1.1,0.3,2.4,1.2,3.3c1.5,1.3,3.8,1.1,5-0.4l20.7-24.9
	c0.6-0.8,0.9-1.8,0.7-2.7C564.3,550.6,563.9,549.4,562.9,548.6z M512.9,548.6L512.9,548.6c-1.6-1.2-3.8-1-5,0.5L487.2,574
	c-0.6,0.7-0.8,1.6-0.7,2.5c-0.2,1.1,0.3,2.4,1.2,3.3c1.5,1.3,3.8,1.1,5-0.4l20.7-24.9c0.6-0.8,0.9-1.8,0.7-2.7
	C514.3,550.6,513.9,549.4,512.9,548.6z M462.9,548.6L462.9,548.6c-1.6-1.2-3.8-1-5,0.5L437.2,574c-0.6,0.7-0.8,1.6-0.7,2.5
	c-0.2,1.1,0.3,2.4,1.2,3.3c1.5,1.3,3.8,1.1,5-0.4l20.7-24.9c0.6-0.8,0.9-1.8,0.7-2.7C464.3,550.6,463.9,549.4,462.9,548.6z
	 M412.9,548.6L412.9,548.6c-1.6-1.2-3.8-1-5,0.5L387.2,574c-0.6,0.7-0.8,1.6-0.7,2.5c-0.2,1.1,0.3,2.4,1.2,3.3
	c1.5,1.3,3.8,1.1,5-0.4l20.7-24.9c0.6-0.8,0.9-1.8,0.7-2.7C414.3,550.6,413.9,549.4,412.9,548.6z M362.9,548.6L362.9,548.6
	c-1.6-1.2-3.8-1-5,0.5L337.2,574c-0.6,0.7-0.8,1.6-0.7,2.5c-0.2,1.1,0.3,2.4,1.2,3.3c1.5,1.3,3.8,1.1,5-0.4l20.7-24.9
	c0.6-0.8,0.9-1.8,0.7-2.7C364.3,550.6,363.9,549.4,362.9,548.6z M312.9,548.6L312.9,548.6c-1.6-1.2-3.8-1-5,0.5L287.2,574
	c-0.6,0.7-0.8,1.6-0.7,2.5c-0.2,1.1,0.3,2.4,1.2,3.3c1.5,1.3,3.8,1.1,5-0.4l20.7-24.9c0.6-0.8,0.9-1.8,0.7-2.7
	C314.3,550.6,313.9,549.4,312.9,548.6z M262.9,548.6h-0.1c-1.5-1.2-3.7-1-4.9,0.5L237.2,574c-0.6,0.7-0.8,1.6-0.7,2.5
	c-0.2,1.1,0.3,2.4,1.2,3.3c1.5,1.3,3.8,1.1,5-0.4l20.7-24.9c0.6-0.8,0.9-1.8,0.7-2.7C264.3,550.6,263.9,549.4,262.9,548.6z
	 M212.9,548.6h-0.1c-1.5-1.2-3.7-1-4.9,0.5L187.2,574c-0.6,0.7-0.8,1.6-0.7,2.5c-0.2,1.1,0.3,2.4,1.2,3.3c1.5,1.3,3.8,1.1,5-0.4
	l20.7-24.9c0.6-0.8,0.9-1.8,0.7-2.7C214.3,550.6,213.9,549.4,212.9,548.6z M162.9,548.6h-0.1c-1.5-1.2-3.7-1-4.9,0.5L137.2,574
	c-0.6,0.7-0.8,1.6-0.7,2.5c-0.2,1.1,0.3,2.4,1.2,3.3c1.5,1.3,3.8,1.1,5-0.4l20.7-24.9c0.6-0.8,0.9-1.8,0.7-2.7
	C164.3,550.6,163.9,549.4,162.9,548.6z M112.9,548.6h-0.1c-1.5-1.2-3.7-1-4.9,0.5L87.2,574c-0.6,0.7-0.8,1.6-0.7,2.5
	c-0.2,1.1,0.3,2.4,1.2,3.3c1.5,1.3,3.8,1.1,5-0.4l20.7-24.9c0.6-0.8,0.9-1.8,0.7-2.7C114.3,550.6,113.9,549.4,112.9,548.6z
	 M62.9,548.6h-0.1c-1.5-1.2-3.7-1-4.9,0.5L37.2,574c-0.6,0.7-0.8,1.6-0.7,2.5c-0.2,1.1,0.3,2.4,1.2,3.3c1.5,1.3,3.8,1.1,5-0.4
	l20.7-24.9c0.6-0.8,0.9-1.8,0.7-2.7C64.3,550.6,63.9,549.4,62.9,548.6z M1062.9,496.6L1062.9,496.6c-1.6-1.2-3.8-1-5,0.5l-20.7,24.9
	c-0.6,0.7-0.8,1.6-0.7,2.5c-0.2,1.1,0.3,2.4,1.2,3.3c1.5,1.3,3.8,1.1,5-0.4l20.7-24.9c0.6-0.8,0.9-1.8,0.7-2.7
	C1064.3,498.6,1063.9,497.4,1062.9,496.6z M1012.9,496.6L1012.9,496.6c-1.6-1.2-3.8-1-5,0.5L987.2,522c-0.6,0.7-0.8,1.6-0.7,2.5
	c-0.2,1.1,0.3,2.4,1.2,3.3c1.5,1.3,3.8,1.1,5-0.4l20.7-24.9c0.6-0.8,0.9-1.8,0.7-2.7C1014.3,498.6,1013.9,497.4,1012.9,496.6z
	 M962.9,496.6L962.9,496.6c-1.6-1.2-3.8-1-5,0.5L937.2,522c-0.6,0.7-0.8,1.6-0.7,2.5c-0.2,1.1,0.3,2.4,1.2,3.3
	c1.5,1.3,3.8,1.1,5-0.4l20.7-24.9c0.6-0.8,0.9-1.8,0.7-2.7C964.3,498.6,963.9,497.4,962.9,496.6z M912.9,496.6L912.9,496.6
	c-1.6-1.2-3.8-1-5,0.5L887.2,522c-0.6,0.7-0.8,1.6-0.7,2.5c-0.2,1.1,0.3,2.4,1.2,3.3c1.5,1.3,3.8,1.1,5-0.4l20.7-24.9
	c0.6-0.8,0.9-1.8,0.7-2.7C914.3,498.6,913.9,497.4,912.9,496.6z M862.9,496.6L862.9,496.6c-1.6-1.2-3.8-1-5,0.5L837.2,522
	c-0.6,0.7-0.8,1.6-0.7,2.5c-0.2,1.1,0.3,2.4,1.2,3.3c1.5,1.3,3.8,1.1,5-0.4l20.7-24.9c0.6-0.8,0.9-1.8,0.7-2.7
	C864.3,498.6,863.9,497.4,862.9,496.6z M812.9,496.6L812.9,496.6c-1.6-1.2-3.8-1-5,0.5L787.2,522c-0.6,0.7-0.8,1.6-0.7,2.5
	c-0.2,1.1,0.3,2.4,1.2,3.3c1.5,1.3,3.8,1.1,5-0.4l20.7-24.9c0.6-0.8,0.9-1.8,0.7-2.7C814.3,498.6,813.9,497.4,812.9,496.6z
	 M762.9,496.6L762.9,496.6c-1.6-1.2-3.8-1-5,0.5L737.2,522c-0.6,0.7-0.8,1.6-0.7,2.5c-0.2,1.1,0.3,2.4,1.2,3.3
	c1.5,1.3,3.8,1.1,5-0.4l20.7-24.9c0.6-0.8,0.9-1.8,0.7-2.7C764.3,498.6,763.9,497.4,762.9,496.6z M712.9,496.6L712.9,496.6
	c-1.6-1.2-3.8-1-5,0.5L687.2,522c-0.6,0.7-0.8,1.6-0.7,2.5c-0.2,1.1,0.3,2.4,1.2,3.3c1.5,1.3,3.8,1.1,5-0.4l20.7-24.9
	c0.6-0.8,0.9-1.8,0.7-2.7C714.3,498.6,713.9,497.4,712.9,496.6z M662.9,496.6L662.9,496.6c-1.6-1.2-3.8-1-5,0.5L637.2,522
	c-0.6,0.7-0.8,1.6-0.7,2.5c-0.2,1.1,0.3,2.4,1.2,3.3c1.5,1.3,3.8,1.1,5-0.4l20.7-24.9c0.6-0.8,0.9-1.8,0.7-2.7
	C664.3,498.6,663.9,497.4,662.9,496.6z M612.9,496.6L612.9,496.6c-1.6-1.2-3.8-1-5,0.5L587.2,522c-0.6,0.7-0.8,1.6-0.7,2.5
	c-0.2,1.1,0.3,2.4,1.2,3.3c1.5,1.3,3.8,1.1,5-0.4l20.7-24.9c0.6-0.8,0.9-1.8,0.7-2.7C614.3,498.6,613.9,497.4,612.9,496.6z
	 M562.9,496.6L562.9,496.6c-1.6-1.2-3.8-1-5,0.5L537.2,522c-0.6,0.7-0.8,1.6-0.7,2.5c-0.2,1.1,0.3,2.4,1.2,3.3
	c1.5,1.3,3.8,1.1,5-0.4l20.7-24.9c0.6-0.8,0.9-1.8,0.7-2.7C564.3,498.6,563.9,497.4,562.9,496.6z M512.9,496.6L512.9,496.6
	c-1.6-1.2-3.8-1-5,0.5L487.2,522c-0.6,0.7-0.8,1.6-0.7,2.5c-0.2,1.1,0.3,2.4,1.2,3.3c1.5,1.3,3.8,1.1,5-0.4l20.7-24.9
	c0.6-0.8,0.9-1.8,0.7-2.7C514.3,498.6,513.9,497.4,512.9,496.6z M462.9,496.6L462.9,496.6c-1.6-1.2-3.8-1-5,0.5L437.2,522
	c-0.6,0.7-0.8,1.6-0.7,2.5c-0.2,1.1,0.3,2.4,1.2,3.3c1.5,1.3,3.8,1.1,5-0.4l20.7-24.9c0.6-0.8,0.9-1.8,0.7-2.7
	C464.3,498.6,463.9,497.4,462.9,496.6z M412.9,496.6L412.9,496.6c-1.6-1.2-3.8-1-5,0.5L387.2,522c-0.6,0.7-0.8,1.6-0.7,2.5
	c-0.2,1.1,0.3,2.4,1.2,3.3c1.5,1.3,3.8,1.1,5-0.4l20.7-24.9c0.6-0.8,0.9-1.8,0.7-2.7C414.3,498.6,413.9,497.4,412.9,496.6z
	 M362.9,496.6L362.9,496.6c-1.6-1.2-3.8-1-5,0.5L337.2,522c-0.6,0.7-0.8,1.6-0.7,2.5c-0.2,1.1,0.3,2.4,1.2,3.3
	c1.5,1.3,3.8,1.1,5-0.4l20.7-24.9c0.6-0.8,0.9-1.8,0.7-2.7C364.3,498.6,363.9,497.4,362.9,496.6z M312.9,496.6L312.9,496.6
	c-1.6-1.2-3.8-1-5,0.5L287.2,522c-0.6,0.7-0.8,1.6-0.7,2.5c-0.2,1.1,0.3,2.4,1.2,3.3c1.5,1.3,3.8,1.1,5-0.4l20.7-24.9
	c0.6-0.8,0.9-1.8,0.7-2.7C314.3,498.6,313.9,497.4,312.9,496.6z M262.9,496.6h-0.1c-1.5-1.2-3.7-1-4.9,0.5L237.2,522
	c-0.6,0.7-0.8,1.6-0.7,2.5c-0.2,1.1,0.3,2.4,1.2,3.3c1.5,1.3,3.8,1.1,5-0.4l20.7-24.9c0.6-0.8,0.9-1.8,0.7-2.7
	C264.3,498.6,263.9,497.4,262.9,496.6z M212.9,496.6h-0.1c-1.5-1.2-3.7-1-4.9,0.5L187.2,522c-0.6,0.7-0.8,1.6-0.7,2.5
	c-0.2,1.1,0.3,2.4,1.2,3.3c1.5,1.3,3.8,1.1,5-0.4l20.7-24.9c0.6-0.8,0.9-1.8,0.7-2.7C214.3,498.6,213.9,497.4,212.9,496.6z
	 M162.9,496.6h-0.1c-1.5-1.2-3.7-1-4.9,0.5L137.2,522c-0.6,0.7-0.8,1.6-0.7,2.5c-0.2,1.1,0.3,2.4,1.2,3.3c1.5,1.3,3.8,1.1,5-0.4
	l20.7-24.9c0.6-0.8,0.9-1.8,0.7-2.7C164.3,498.6,163.9,497.4,162.9,496.6z M112.9,496.6h-0.1c-1.5-1.2-3.7-1-4.9,0.5L87.2,522
	c-0.6,0.7-0.8,1.6-0.7,2.5c-0.2,1.1,0.3,2.4,1.2,3.3c1.5,1.3,3.8,1.1,5-0.4l20.7-24.9c0.6-0.8,0.9-1.8,0.7-2.7
	C114.3,498.6,113.9,497.4,112.9,496.6z M62.9,496.6h-0.1c-1.5-1.2-3.7-1-4.9,0.5L37.2,522c-0.6,0.7-0.8,1.6-0.7,2.5
	c-0.2,1.1,0.3,2.4,1.2,3.3c1.5,1.3,3.8,1.1,5-0.4l20.7-24.9c0.6-0.8,0.9-1.8,0.7-2.7C64.3,498.6,63.9,497.4,62.9,496.6z
	 M1062.9,444.6L1062.9,444.6c-1.6-1.2-3.8-1-5,0.5l-20.7,24.9c-0.6,0.7-0.8,1.6-0.7,2.5c-0.2,1.1,0.3,2.4,1.2,3.3
	c1.5,1.3,3.8,1.1,5-0.4l20.7-24.9c0.6-0.8,0.9-1.8,0.7-2.7C1064.3,446.6,1063.9,445.4,1062.9,444.6z M1012.9,444.6L1012.9,444.6
	c-1.6-1.2-3.8-1-5,0.5L987.2,470c-0.6,0.7-0.8,1.6-0.7,2.5c-0.2,1.1,0.3,2.4,1.2,3.3c1.5,1.3,3.8,1.1,5-0.4l20.7-24.9
	c0.6-0.8,0.9-1.8,0.7-2.7C1014.3,446.6,1013.9,445.4,1012.9,444.6z M962.9,444.6L962.9,444.6c-1.6-1.2-3.8-1-5,0.5L937.2,470
	c-0.6,0.7-0.8,1.6-0.7,2.5c-0.2,1.1,0.3,2.4,1.2,3.3c1.5,1.3,3.8,1.1,5-0.4l20.7-24.9c0.6-0.8,0.9-1.8,0.7-2.7
	C964.3,446.6,963.9,445.4,962.9,444.6z M912.9,444.6L912.9,444.6c-1.6-1.2-3.8-1-5,0.5L887.2,470c-0.6,0.7-0.8,1.6-0.7,2.5
	c-0.2,1.1,0.3,2.4,1.2,3.3c1.5,1.3,3.8,1.1,5-0.4l20.7-24.9c0.6-0.8,0.9-1.8,0.7-2.7C914.3,446.6,913.9,445.4,912.9,444.6z
	 M862.9,444.6L862.9,444.6c-1.6-1.2-3.8-1-5,0.5L837.2,470c-0.6,0.7-0.8,1.6-0.7,2.5c-0.2,1.1,0.3,2.4,1.2,3.3
	c1.5,1.3,3.8,1.1,5-0.4l20.7-24.9c0.6-0.8,0.9-1.8,0.7-2.7C864.3,446.6,863.9,445.4,862.9,444.6z M812.9,444.6L812.9,444.6
	c-1.6-1.2-3.8-1-5,0.5L787.2,470c-0.6,0.7-0.8,1.6-0.7,2.5c-0.2,1.1,0.3,2.4,1.2,3.3c1.5,1.3,3.8,1.1,5-0.4l20.7-24.9
	c0.6-0.8,0.9-1.8,0.7-2.7C814.3,446.6,813.9,445.4,812.9,444.6z M762.9,444.6L762.9,444.6c-1.6-1.2-3.8-1-5,0.5L737.2,470
	c-0.6,0.7-0.8,1.6-0.7,2.5c-0.2,1.1,0.3,2.4,1.2,3.3c1.5,1.3,3.8,1.1,5-0.4l20.7-24.9c0.6-0.8,0.9-1.8,0.7-2.7
	C764.3,446.6,763.9,445.4,762.9,444.6z M712.9,444.6L712.9,444.6c-1.6-1.2-3.8-1-5,0.5L687.2,470c-0.6,0.7-0.8,1.6-0.7,2.5
	c-0.2,1.1,0.3,2.4,1.2,3.3c1.5,1.3,3.8,1.1,5-0.4l20.7-24.9c0.6-0.8,0.9-1.8,0.7-2.7C714.3,446.6,713.9,445.4,712.9,444.6z
	 M662.9,444.6L662.9,444.6c-1.6-1.2-3.8-1-5,0.5L637.2,470c-0.6,0.7-0.8,1.6-0.7,2.5c-0.2,1.1,0.3,2.4,1.2,3.3
	c1.5,1.3,3.8,1.1,5-0.4l20.7-24.9c0.6-0.8,0.9-1.8,0.7-2.7C664.3,446.6,663.9,445.4,662.9,444.6z M612.9,444.6L612.9,444.6
	c-1.6-1.2-3.8-1-5,0.5L587.2,470c-0.6,0.7-0.8,1.6-0.7,2.5c-0.2,1.1,0.3,2.4,1.2,3.3c1.5,1.3,3.8,1.1,5-0.4l20.7-24.9
	c0.6-0.8,0.9-1.8,0.7-2.7C614.3,446.6,613.9,445.4,612.9,444.6z M562.9,444.6L562.9,444.6c-1.6-1.2-3.8-1-5,0.5L537.2,470
	c-0.6,0.7-0.8,1.6-0.7,2.5c-0.2,1.1,0.3,2.4,1.2,3.3c1.5,1.3,3.8,1.1,5-0.4l20.7-24.9c0.6-0.8,0.9-1.8,0.7-2.7
	C564.3,446.6,563.9,445.4,562.9,444.6z M512.9,444.6L512.9,444.6c-1.6-1.2-3.8-1-5,0.5L487.2,470c-0.6,0.7-0.8,1.6-0.7,2.5
	c-0.2,1.1,0.3,2.4,1.2,3.3c1.5,1.3,3.8,1.1,5-0.4l20.7-24.9c0.6-0.8,0.9-1.8,0.7-2.7C514.3,446.6,513.9,445.4,512.9,444.6z
	 M462.9,444.6L462.9,444.6c-1.6-1.2-3.8-1-5,0.5L437.2,470c-0.6,0.7-0.8,1.6-0.7,2.5c-0.2,1.1,0.3,2.4,1.2,3.3
	c1.5,1.3,3.8,1.1,5-0.4l20.7-24.9c0.6-0.8,0.9-1.8,0.7-2.7C464.3,446.6,463.9,445.4,462.9,444.6z M412.9,444.6L412.9,444.6
	c-1.6-1.2-3.8-1-5,0.5L387.2,470c-0.6,0.7-0.8,1.6-0.7,2.5c-0.2,1.1,0.3,2.4,1.2,3.3c1.5,1.3,3.8,1.1,5-0.4l20.7-24.9
	c0.6-0.8,0.9-1.8,0.7-2.7C414.3,446.6,413.9,445.4,412.9,444.6z M362.9,444.6L362.9,444.6c-1.6-1.2-3.8-1-5,0.5L337.2,470
	c-0.6,0.7-0.8,1.6-0.7,2.5c-0.2,1.1,0.3,2.4,1.2,3.3c1.5,1.3,3.8,1.1,5-0.4l20.7-24.9c0.6-0.8,0.9-1.8,0.7-2.7
	C364.3,446.6,363.9,445.4,362.9,444.6z M312.9,444.6L312.9,444.6c-1.6-1.2-3.8-1-5,0.5L287.2,470c-0.6,0.7-0.8,1.6-0.7,2.5
	c-0.2,1.1,0.3,2.4,1.2,3.3c1.5,1.3,3.8,1.1,5-0.4l20.7-24.9c0.6-0.8,0.9-1.8,0.7-2.7C314.3,446.6,313.9,445.4,312.9,444.6z
	 M262.9,444.6h-0.1c-1.5-1.2-3.7-1-4.9,0.5L237.2,470c-0.6,0.7-0.8,1.6-0.7,2.5c-0.2,1.1,0.3,2.4,1.2,3.3c1.5,1.3,3.8,1.1,5-0.4
	l20.7-24.9c0.6-0.8,0.9-1.8,0.7-2.7C264.3,446.6,263.9,445.4,262.9,444.6z M212.9,444.6h-0.1c-1.5-1.2-3.7-1-4.9,0.5L187.2,470
	c-0.6,0.7-0.8,1.6-0.7,2.5c-0.2,1.1,0.3,2.4,1.2,3.3c1.5,1.3,3.8,1.1,5-0.4l20.7-24.9c0.6-0.8,0.9-1.8,0.7-2.7
	C214.3,446.6,213.9,445.4,212.9,444.6z M162.9,444.6h-0.1c-1.5-1.2-3.7-1-4.9,0.5L137.2,470c-0.6,0.7-0.8,1.6-0.7,2.5
	c-0.2,1.1,0.3,2.4,1.2,3.3c1.5,1.3,3.8,1.1,5-0.4l20.7-24.9c0.6-0.8,0.9-1.8,0.7-2.7C164.3,446.6,163.9,445.4,162.9,444.6z
	 M112.9,444.6h-0.1c-1.5-1.2-3.7-1-4.9,0.5L87.2,470c-0.6,0.7-0.8,1.6-0.7,2.5c-0.2,1.1,0.3,2.4,1.2,3.3c1.5,1.3,3.8,1.1,5-0.4
	l20.7-24.9c0.6-0.8,0.9-1.8,0.7-2.7C114.3,446.6,113.9,445.4,112.9,444.6z M62.9,444.6h-0.1c-1.5-1.2-3.7-1-4.9,0.5L37.2,470
	c-0.6,0.7-0.8,1.6-0.7,2.5c-0.2,1.1,0.3,2.4,1.2,3.3c1.5,1.3,3.8,1.1,5-0.4l20.7-24.9c0.6-0.8,0.9-1.8,0.7-2.7
	C64.3,446.6,63.9,445.4,62.9,444.6z M1062.9,392.6L1062.9,392.6c-1.6-1.2-3.8-1-5,0.5l-20.7,24.9c-0.6,0.7-0.8,1.6-0.7,2.5
	c-0.2,1.1,0.3,2.4,1.2,3.3c1.5,1.3,3.8,1.1,5-0.4l20.7-24.9c0.6-0.8,0.9-1.8,0.7-2.7C1064.3,394.6,1063.9,393.4,1062.9,392.6z
	 M1012.9,392.6L1012.9,392.6c-1.6-1.2-3.8-1-5,0.5L987.2,418c-0.6,0.7-0.8,1.6-0.7,2.5c-0.2,1.1,0.3,2.4,1.2,3.3
	c1.5,1.3,3.8,1.1,5-0.4l20.7-24.9c0.6-0.8,0.9-1.8,0.7-2.7C1014.3,394.6,1013.9,393.4,1012.9,392.6z M962.9,392.6L962.9,392.6
	c-1.6-1.2-3.8-1-5,0.5L937.2,418c-0.6,0.7-0.8,1.6-0.7,2.5c-0.2,1.1,0.3,2.4,1.2,3.3c1.5,1.3,3.8,1.1,5-0.4l20.7-24.9
	c0.6-0.8,0.9-1.8,0.7-2.7C964.3,394.6,963.9,393.4,962.9,392.6z M912.9,392.6L912.9,392.6c-1.6-1.2-3.8-1-5,0.5L887.2,418
	c-0.6,0.7-0.8,1.6-0.7,2.5c-0.2,1.1,0.3,2.4,1.2,3.3c1.5,1.3,3.8,1.1,5-0.4l20.7-24.9c0.6-0.8,0.9-1.8,0.7-2.7
	C914.3,394.6,913.9,393.4,912.9,392.6z M862.9,392.6L862.9,392.6c-1.6-1.2-3.8-1-5,0.5L837.2,418c-0.6,0.7-0.8,1.6-0.7,2.5
	c-0.2,1.1,0.3,2.4,1.2,3.3c1.5,1.3,3.8,1.1,5-0.4l20.7-24.9c0.6-0.8,0.9-1.8,0.7-2.7C864.3,394.6,863.9,393.4,862.9,392.6z
	 M812.9,392.6L812.9,392.6c-1.6-1.2-3.8-1-5,0.5L787.2,418c-0.6,0.7-0.8,1.6-0.7,2.5c-0.2,1.1,0.3,2.4,1.2,3.3
	c1.5,1.3,3.8,1.1,5-0.4l20.7-24.9c0.6-0.8,0.9-1.8,0.7-2.7C814.3,394.6,813.9,393.4,812.9,392.6z M762.9,392.6L762.9,392.6
	c-1.6-1.2-3.8-1-5,0.5L737.2,418c-0.6,0.7-0.8,1.6-0.7,2.5c-0.2,1.1,0.3,2.4,1.2,3.3c1.5,1.3,3.8,1.1,5-0.4l20.7-24.9
	c0.6-0.8,0.9-1.8,0.7-2.7C764.3,394.6,763.9,393.4,762.9,392.6z M712.9,392.6L712.9,392.6c-1.6-1.2-3.8-1-5,0.5L687.2,418
	c-0.6,0.7-0.8,1.6-0.7,2.5c-0.2,1.1,0.3,2.4,1.2,3.3c1.5,1.3,3.8,1.1,5-0.4l20.7-24.9c0.6-0.8,0.9-1.8,0.7-2.7
	C714.3,394.6,713.9,393.4,712.9,392.6z M662.9,392.6L662.9,392.6c-1.6-1.2-3.8-1-5,0.5L637.2,418c-0.6,0.7-0.8,1.6-0.7,2.5
	c-0.2,1.1,0.3,2.4,1.2,3.3c1.5,1.3,3.8,1.1,5-0.4l20.7-24.9c0.6-0.8,0.9-1.8,0.7-2.7C664.3,394.6,663.9,393.4,662.9,392.6z
	 M612.9,392.6L612.9,392.6c-1.6-1.2-3.8-1-5,0.5L587.2,418c-0.6,0.7-0.8,1.6-0.7,2.5c-0.2,1.1,0.3,2.4,1.2,3.3
	c1.5,1.3,3.8,1.1,5-0.4l20.7-24.9c0.6-0.8,0.9-1.8,0.7-2.7C614.3,394.6,613.9,393.4,612.9,392.6z M562.9,392.6L562.9,392.6
	c-1.6-1.2-3.8-1-5,0.5L537.2,418c-0.6,0.7-0.8,1.6-0.7,2.5c-0.2,1.1,0.3,2.4,1.2,3.3c1.5,1.3,3.8,1.1,5-0.4l20.7-24.9
	c0.6-0.8,0.9-1.8,0.7-2.7C564.3,394.6,563.9,393.4,562.9,392.6z M512.9,392.6L512.9,392.6c-1.6-1.2-3.8-1-5,0.5L487.2,418
	c-0.6,0.7-0.8,1.6-0.7,2.5c-0.2,1.1,0.3,2.4,1.2,3.3c1.5,1.3,3.8,1.1,5-0.4l20.7-24.9c0.6-0.8,0.9-1.8,0.7-2.7
	C514.3,394.6,513.9,393.4,512.9,392.6z M462.9,392.6L462.9,392.6c-1.6-1.2-3.8-1-5,0.5L437.2,418c-0.6,0.7-0.8,1.6-0.7,2.5
	c-0.2,1.1,0.3,2.4,1.2,3.3c1.5,1.3,3.8,1.1,5-0.4l20.7-24.9c0.6-0.8,0.9-1.8,0.7-2.7C464.3,394.6,463.9,393.4,462.9,392.6z
	 M412.9,392.6L412.9,392.6c-1.6-1.2-3.8-1-5,0.5L387.2,418c-0.6,0.7-0.8,1.6-0.7,2.5c-0.2,1.1,0.3,2.4,1.2,3.3
	c1.5,1.3,3.8,1.1,5-0.4l20.7-24.9c0.6-0.8,0.9-1.8,0.7-2.7C414.3,394.6,413.9,393.4,412.9,392.6z M362.9,392.6L362.9,392.6
	c-1.6-1.2-3.8-1-5,0.5L337.2,418c-0.6,0.7-0.8,1.6-0.7,2.5c-0.2,1.1,0.3,2.4,1.2,3.3c1.5,1.3,3.8,1.1,5-0.4l20.7-24.9
	c0.6-0.8,0.9-1.8,0.7-2.7C364.3,394.6,363.9,393.4,362.9,392.6z M312.9,392.6L312.9,392.6c-1.6-1.2-3.8-1-5,0.5L287.2,418
	c-0.6,0.7-0.8,1.6-0.7,2.5c-0.2,1.1,0.3,2.4,1.2,3.3c1.5,1.3,3.8,1.1,5-0.4l20.7-24.9c0.6-0.8,0.9-1.8,0.7-2.7
	C314.3,394.6,313.9,393.4,312.9,392.6z M262.9,392.6h-0.1c-1.5-1.2-3.7-1-4.9,0.5L237.2,418c-0.6,0.7-0.8,1.6-0.7,2.5
	c-0.2,1.1,0.3,2.4,1.2,3.3c1.5,1.3,3.8,1.1,5-0.4l20.7-24.9c0.6-0.8,0.9-1.8,0.7-2.7C264.3,394.6,263.9,393.4,262.9,392.6z
	 M212.9,392.6h-0.1c-1.5-1.2-3.7-1-4.9,0.5L187.2,418c-0.6,0.7-0.8,1.6-0.7,2.5c-0.2,1.1,0.3,2.4,1.2,3.3c1.5,1.3,3.8,1.1,5-0.4
	l20.7-24.9c0.6-0.8,0.9-1.8,0.7-2.7C214.3,394.6,213.9,393.4,212.9,392.6z M162.9,392.6h-0.1c-1.5-1.2-3.7-1-4.9,0.5L137.2,418
	c-0.6,0.7-0.8,1.6-0.7,2.5c-0.2,1.1,0.3,2.4,1.2,3.3c1.5,1.3,3.8,1.1,5-0.4l20.7-24.9c0.6-0.8,0.9-1.8,0.7-2.7
	C164.3,394.6,163.9,393.4,162.9,392.6z M112.9,392.6h-0.1c-1.5-1.2-3.7-1-4.9,0.5L87.2,418c-0.6,0.7-0.8,1.6-0.7,2.5
	c-0.2,1.1,0.3,2.4,1.2,3.3c1.5,1.3,3.8,1.1,5-0.4l20.7-24.9c0.6-0.8,0.9-1.8,0.7-2.7C114.3,394.6,113.9,393.4,112.9,392.6z
	 M62.9,392.6h-0.1c-1.5-1.2-3.7-1-4.9,0.5L37.2,418c-0.6,0.7-0.8,1.6-0.7,2.5c-0.2,1.1,0.3,2.4,1.2,3.3c1.5,1.3,3.8,1.1,5-0.4
	l20.7-24.9c0.6-0.8,0.9-1.8,0.7-2.7C64.3,394.6,63.9,393.4,62.9,392.6z M1062.9,340.6L1062.9,340.6c-1.6-1.2-3.8-1-5,0.5l-20.7,24.9
	c-0.6,0.7-0.8,1.6-0.7,2.5c-0.2,1.1,0.3,2.4,1.2,3.3c1.5,1.3,3.8,1.1,5-0.4l20.7-24.9c0.6-0.8,0.9-1.8,0.7-2.7
	C1064.3,342.6,1063.9,341.4,1062.9,340.6z M1012.9,340.6L1012.9,340.6c-1.6-1.2-3.8-1-5,0.5L987.2,366c-0.6,0.7-0.8,1.6-0.7,2.5
	c-0.2,1.1,0.3,2.4,1.2,3.3c1.5,1.3,3.8,1.1,5-0.4l20.7-24.9c0.6-0.8,0.9-1.8,0.7-2.7C1014.3,342.6,1013.9,341.4,1012.9,340.6z
	 M962.9,340.6L962.9,340.6c-1.6-1.2-3.8-1-5,0.5L937.2,366c-0.6,0.7-0.8,1.6-0.7,2.5c-0.2,1.1,0.3,2.4,1.2,3.3
	c1.5,1.3,3.8,1.1,5-0.4l20.7-24.9c0.6-0.8,0.9-1.8,0.7-2.7C964.3,342.6,963.9,341.4,962.9,340.6z M912.9,340.6L912.9,340.6
	c-1.6-1.2-3.8-1-5,0.5L887.2,366c-0.6,0.7-0.8,1.6-0.7,2.5c-0.2,1.1,0.3,2.4,1.2,3.3c1.5,1.3,3.8,1.1,5-0.4l20.7-24.9
	c0.6-0.8,0.9-1.8,0.7-2.7C914.3,342.6,913.9,341.4,912.9,340.6z M862.9,340.6L862.9,340.6c-1.6-1.2-3.8-1-5,0.5L837.2,366
	c-0.6,0.7-0.8,1.6-0.7,2.5c-0.2,1.1,0.3,2.4,1.2,3.3c1.5,1.3,3.8,1.1,5-0.4l20.7-24.9c0.6-0.8,0.9-1.8,0.7-2.7
	C864.3,342.6,863.9,341.4,862.9,340.6z M812.9,340.6L812.9,340.6c-1.6-1.2-3.8-1-5,0.5L787.2,366c-0.6,0.7-0.8,1.6-0.7,2.5
	c-0.2,1.1,0.3,2.4,1.2,3.3c1.5,1.3,3.8,1.1,5-0.4l20.7-24.9c0.6-0.8,0.9-1.8,0.7-2.7C814.3,342.6,813.9,341.4,812.9,340.6z
	 M762.9,340.6L762.9,340.6c-1.6-1.2-3.8-1-5,0.5L737.2,366c-0.6,0.7-0.8,1.6-0.7,2.5c-0.2,1.1,0.3,2.4,1.2,3.3
	c1.5,1.3,3.8,1.1,5-0.4l20.7-24.9c0.6-0.8,0.9-1.8,0.7-2.7C764.3,342.6,763.9,341.4,762.9,340.6z M712.9,340.6L712.9,340.6
	c-1.6-1.2-3.8-1-5,0.5L687.2,366c-0.6,0.7-0.8,1.6-0.7,2.5c-0.2,1.1,0.3,2.4,1.2,3.3c1.5,1.3,3.8,1.1,5-0.4l20.7-24.9
	c0.6-0.8,0.9-1.8,0.7-2.7C714.3,342.6,713.9,341.4,712.9,340.6z M662.9,340.6L662.9,340.6c-1.6-1.2-3.8-1-5,0.5L637.2,366
	c-0.6,0.7-0.8,1.6-0.7,2.5c-0.2,1.1,0.3,2.4,1.2,3.3c1.5,1.3,3.8,1.1,5-0.4l20.7-24.9c0.6-0.8,0.9-1.8,0.7-2.7
	C664.3,342.6,663.9,341.4,662.9,340.6z M612.9,340.6L612.9,340.6c-1.6-1.2-3.8-1-5,0.5L587.2,366c-0.6,0.7-0.8,1.6-0.7,2.5
	c-0.2,1.1,0.3,2.4,1.2,3.3c1.5,1.3,3.8,1.1,5-0.4l20.7-24.9c0.6-0.8,0.9-1.8,0.7-2.7C614.3,342.6,613.9,341.4,612.9,340.6z
	 M562.9,340.6L562.9,340.6c-1.6-1.2-3.8-1-5,0.5L537.2,366c-0.6,0.7-0.8,1.6-0.7,2.5c-0.2,1.1,0.3,2.4,1.2,3.3
	c1.5,1.3,3.8,1.1,5-0.4l20.7-24.9c0.6-0.8,0.9-1.8,0.7-2.7C564.3,342.6,563.9,341.4,562.9,340.6z M512.9,340.6L512.9,340.6
	c-1.6-1.2-3.8-1-5,0.5L487.2,366c-0.6,0.7-0.8,1.6-0.7,2.5c-0.2,1.1,0.3,2.4,1.2,3.3c1.5,1.3,3.8,1.1,5-0.4l20.7-24.9
	c0.6-0.8,0.9-1.8,0.7-2.7C514.3,342.6,513.9,341.4,512.9,340.6z M462.9,340.6L462.9,340.6c-1.6-1.2-3.8-1-5,0.5L437.2,366
	c-0.6,0.7-0.8,1.6-0.7,2.5c-0.2,1.1,0.3,2.4,1.2,3.3c1.5,1.3,3.8,1.1,5-0.4l20.7-24.9c0.6-0.8,0.9-1.8,0.7-2.7
	C464.3,342.6,463.9,341.4,462.9,340.6z M412.9,340.6L412.9,340.6c-1.6-1.2-3.8-1-5,0.5L387.2,366c-0.6,0.7-0.8,1.6-0.7,2.5
	c-0.2,1.1,0.3,2.4,1.2,3.3c1.5,1.3,3.8,1.1,5-0.4l20.7-24.9c0.6-0.8,0.9-1.8,0.7-2.7C414.3,342.6,413.9,341.4,412.9,340.6z
	 M362.9,340.6L362.9,340.6c-1.6-1.2-3.8-1-5,0.5L337.2,366c-0.6,0.7-0.8,1.6-0.7,2.5c-0.2,1.1,0.3,2.4,1.2,3.3
	c1.5,1.3,3.8,1.1,5-0.4l20.7-24.9c0.6-0.8,0.9-1.8,0.7-2.7C364.3,342.6,363.9,341.4,362.9,340.6z M312.9,340.6L312.9,340.6
	c-1.6-1.2-3.8-1-5,0.5L287.2,366c-0.6,0.7-0.8,1.6-0.7,2.5c-0.2,1.1,0.3,2.4,1.2,3.3c1.5,1.3,3.8,1.1,5-0.4l20.7-24.9
	c0.6-0.8,0.9-1.8,0.7-2.7C314.3,342.6,313.9,341.4,312.9,340.6z M262.9,340.6h-0.1c-1.5-1.2-3.7-1-4.9,0.5L237.2,366
	c-0.6,0.7-0.8,1.6-0.7,2.5c-0.2,1.1,0.3,2.4,1.2,3.3c1.5,1.3,3.8,1.1,5-0.4l20.7-24.9c0.6-0.8,0.9-1.8,0.7-2.7
	C264.3,342.6,263.9,341.4,262.9,340.6z M212.9,340.6h-0.1c-1.5-1.2-3.7-1-4.9,0.5L187.2,366c-0.6,0.7-0.8,1.6-0.7,2.5
	c-0.2,1.1,0.3,2.4,1.2,3.3c1.5,1.3,3.8,1.1,5-0.4l20.7-24.9c0.6-0.8,0.9-1.8,0.7-2.7C214.3,342.6,213.9,341.4,212.9,340.6z
	 M162.9,340.6h-0.1c-1.5-1.2-3.7-1-4.9,0.5L137.2,366c-0.6,0.7-0.8,1.6-0.7,2.5c-0.2,1.1,0.3,2.4,1.2,3.3c1.5,1.3,3.8,1.1,5-0.4
	l20.7-24.9c0.6-0.8,0.9-1.8,0.7-2.7C164.3,342.6,163.9,341.4,162.9,340.6z M112.9,340.6h-0.1c-1.5-1.2-3.7-1-4.9,0.5L87.2,366
	c-0.6,0.7-0.8,1.6-0.7,2.5c-0.2,1.1,0.3,2.4,1.2,3.3c1.5,1.3,3.8,1.1,5-0.4l20.7-24.9c0.6-0.8,0.9-1.8,0.7-2.7
	C114.3,342.6,113.9,341.4,112.9,340.6z M62.9,340.6h-0.1c-1.5-1.2-3.7-1-4.9,0.5L37.2,366c-0.6,0.7-0.8,1.6-0.7,2.5
	c-0.2,1.1,0.3,2.4,1.2,3.3c1.5,1.3,3.8,1.1,5-0.4l20.7-24.9c0.6-0.8,0.9-1.8,0.7-2.7C64.3,342.6,63.9,341.4,62.9,340.6z
	 M1062.9,288.6L1062.9,288.6c-1.6-1.2-3.8-1-5,0.5l-20.7,24.9c-0.6,0.7-0.8,1.6-0.7,2.5c-0.2,1.1,0.3,2.4,1.2,3.3
	c1.5,1.3,3.8,1.1,5-0.4l20.7-24.9c0.6-0.8,0.9-1.8,0.7-2.7C1064.3,290.6,1063.9,289.4,1062.9,288.6z M1012.9,288.6L1012.9,288.6
	c-1.6-1.2-3.8-1-5,0.5L987.2,314c-0.6,0.7-0.8,1.6-0.7,2.5c-0.2,1.1,0.3,2.4,1.2,3.3c1.5,1.3,3.8,1.1,5-0.4l20.7-24.9
	c0.6-0.8,0.9-1.8,0.7-2.7C1014.3,290.6,1013.9,289.4,1012.9,288.6z M962.9,288.6L962.9,288.6c-1.6-1.2-3.8-1-5,0.5L937.2,314
	c-0.6,0.7-0.8,1.6-0.7,2.5c-0.2,1.1,0.3,2.4,1.2,3.3c1.5,1.3,3.8,1.1,5-0.4l20.7-24.9c0.6-0.8,0.9-1.8,0.7-2.7
	C964.3,290.6,963.9,289.4,962.9,288.6z M912.9,288.6L912.9,288.6c-1.6-1.2-3.8-1-5,0.5L887.2,314c-0.6,0.7-0.8,1.6-0.7,2.5
	c-0.2,1.1,0.3,2.4,1.2,3.3c1.5,1.3,3.8,1.1,5-0.4l20.7-24.9c0.6-0.8,0.9-1.8,0.7-2.7C914.3,290.6,913.9,289.4,912.9,288.6z
	 M862.9,288.6L862.9,288.6c-1.6-1.2-3.8-1-5,0.5L837.2,314c-0.6,0.7-0.8,1.6-0.7,2.5c-0.2,1.1,0.3,2.4,1.2,3.3
	c1.5,1.3,3.8,1.1,5-0.4l20.7-24.9c0.6-0.8,0.9-1.8,0.7-2.7C864.3,290.6,863.9,289.4,862.9,288.6z M812.9,288.6L812.9,288.6
	c-1.6-1.2-3.8-1-5,0.5L787.2,314c-0.6,0.7-0.8,1.6-0.7,2.5c-0.2,1.1,0.3,2.4,1.2,3.3c1.5,1.3,3.8,1.1,5-0.4l20.7-24.9
	c0.6-0.8,0.9-1.8,0.7-2.7C814.3,290.6,813.9,289.4,812.9,288.6z M762.9,288.6L762.9,288.6c-1.6-1.2-3.8-1-5,0.5L737.2,314
	c-0.6,0.7-0.8,1.6-0.7,2.5c-0.2,1.1,0.3,2.4,1.2,3.3c1.5,1.3,3.8,1.1,5-0.4l20.7-24.9c0.6-0.8,0.9-1.8,0.7-2.7
	C764.3,290.6,763.9,289.4,762.9,288.6z M712.9,288.6L712.9,288.6c-1.6-1.2-3.8-1-5,0.5L687.2,314c-0.6,0.7-0.8,1.6-0.7,2.5
	c-0.2,1.1,0.3,2.4,1.2,3.3c1.5,1.3,3.8,1.1,5-0.4l20.7-24.9c0.6-0.8,0.9-1.8,0.7-2.7C714.3,290.6,713.9,289.4,712.9,288.6z
	 M662.9,288.6L662.9,288.6c-1.6-1.2-3.8-1-5,0.5L637.2,314c-0.6,0.7-0.8,1.6-0.7,2.5c-0.2,1.1,0.3,2.4,1.2,3.3
	c1.5,1.3,3.8,1.1,5-0.4l20.7-24.9c0.6-0.8,0.9-1.8,0.7-2.7C664.3,290.6,663.9,289.4,662.9,288.6z M612.9,288.6L612.9,288.6
	c-1.6-1.2-3.8-1-5,0.5L587.2,314c-0.6,0.7-0.8,1.6-0.7,2.5c-0.2,1.1,0.3,2.4,1.2,3.3c1.5,1.3,3.8,1.1,5-0.4l20.7-24.9
	c0.6-0.8,0.9-1.8,0.7-2.7C614.3,290.6,613.9,289.4,612.9,288.6z M562.9,288.6L562.9,288.6c-1.6-1.2-3.8-1-5,0.5L537.2,314
	c-0.6,0.7-0.8,1.6-0.7,2.5c-0.2,1.1,0.3,2.4,1.2,3.3c1.5,1.3,3.8,1.1,5-0.4l20.7-24.9c0.6-0.8,0.9-1.8,0.7-2.7
	C564.3,290.6,563.9,289.4,562.9,288.6z M512.9,288.6L512.9,288.6c-1.6-1.2-3.8-1-5,0.5L487.2,314c-0.6,0.7-0.8,1.6-0.7,2.5
	c-0.2,1.1,0.3,2.4,1.2,3.3c1.5,1.3,3.8,1.1,5-0.4l20.7-24.9c0.6-0.8,0.9-1.8,0.7-2.7C514.3,290.6,513.9,289.4,512.9,288.6z
	 M462.9,288.6L462.9,288.6c-1.6-1.2-3.8-1-5,0.5L437.2,314c-0.6,0.7-0.8,1.6-0.7,2.5c-0.2,1.1,0.3,2.4,1.2,3.3
	c1.5,1.3,3.8,1.1,5-0.4l20.7-24.9c0.6-0.8,0.9-1.8,0.7-2.7C464.3,290.6,463.9,289.4,462.9,288.6z M412.9,288.6L412.9,288.6
	c-1.6-1.2-3.8-1-5,0.5L387.2,314c-0.6,0.7-0.8,1.6-0.7,2.5c-0.2,1.1,0.3,2.4,1.2,3.3c1.5,1.3,3.8,1.1,5-0.4l20.7-24.9
	c0.6-0.8,0.9-1.8,0.7-2.7C414.3,290.6,413.9,289.4,412.9,288.6z M362.9,288.6L362.9,288.6c-1.6-1.2-3.8-1-5,0.5L337.2,314
	c-0.6,0.7-0.8,1.6-0.7,2.5c-0.2,1.1,0.3,2.4,1.2,3.3c1.5,1.3,3.8,1.1,5-0.4l20.7-24.9c0.6-0.8,0.9-1.8,0.7-2.7
	C364.3,290.6,363.9,289.4,362.9,288.6z M312.9,288.6L312.9,288.6c-1.6-1.2-3.8-1-5,0.5L287.2,314c-0.6,0.7-0.8,1.6-0.7,2.5
	c-0.2,1.1,0.3,2.4,1.2,3.3c1.5,1.3,3.8,1.1,5-0.4l20.7-24.9c0.6-0.8,0.9-1.8,0.7-2.7C314.3,290.6,313.9,289.4,312.9,288.6z
	 M262.9,288.6h-0.1c-1.5-1.2-3.7-1-4.9,0.5L237.2,314c-0.6,0.7-0.8,1.6-0.7,2.5c-0.2,1.1,0.3,2.4,1.2,3.3c1.5,1.3,3.8,1.1,5-0.4
	l20.7-24.9c0.6-0.8,0.9-1.8,0.7-2.7C264.3,290.6,263.9,289.4,262.9,288.6z M212.9,288.6h-0.1c-1.5-1.2-3.7-1-4.9,0.5L187.2,314
	c-0.6,0.7-0.8,1.6-0.7,2.5c-0.2,1.1,0.3,2.4,1.2,3.3c1.5,1.3,3.8,1.1,5-0.4l20.7-24.9c0.6-0.8,0.9-1.8,0.7-2.7
	C214.3,290.6,213.9,289.4,212.9,288.6z M162.9,288.6h-0.1c-1.5-1.2-3.7-1-4.9,0.5L137.2,314c-0.6,0.7-0.8,1.6-0.7,2.5
	c-0.2,1.1,0.3,2.4,1.2,3.3c1.5,1.3,3.8,1.1,5-0.4l20.7-24.9c0.6-0.8,0.9-1.8,0.7-2.7C164.3,290.6,163.9,289.4,162.9,288.6z
	 M112.9,288.6h-0.1c-1.5-1.2-3.7-1-4.9,0.5L87.2,314c-0.6,0.7-0.8,1.6-0.7,2.5c-0.2,1.1,0.3,2.4,1.2,3.3c1.5,1.3,3.8,1.1,5-0.4
	l20.7-24.9c0.6-0.8,0.9-1.8,0.7-2.7C114.3,290.6,113.9,289.4,112.9,288.6z M62.9,288.6h-0.1c-1.5-1.2-3.7-1-4.9,0.5L37.2,314
	c-0.6,0.7-0.8,1.6-0.7,2.5c-0.2,1.1,0.3,2.4,1.2,3.3c1.5,1.3,3.8,1.1,5-0.4l20.7-24.9c0.6-0.8,0.9-1.8,0.7-2.7
	C64.3,290.6,63.9,289.4,62.9,288.6z M1062.9,236.6L1062.9,236.6c-1.6-1.2-3.8-1-5,0.5l-20.7,24.9c-0.6,0.7-0.8,1.6-0.7,2.5
	c-0.2,1.1,0.3,2.4,1.2,3.3c1.5,1.3,3.8,1.1,5-0.4l20.7-24.9c0.6-0.8,0.9-1.8,0.7-2.7C1064.3,238.6,1063.9,237.4,1062.9,236.6z
	 M1012.9,236.6L1012.9,236.6c-1.6-1.2-3.8-1-5,0.5L987.2,262c-0.6,0.7-0.8,1.6-0.7,2.5c-0.2,1.1,0.3,2.4,1.2,3.3
	c1.5,1.3,3.8,1.1,5-0.4l20.7-24.9c0.6-0.8,0.9-1.8,0.7-2.7C1014.3,238.6,1013.9,237.4,1012.9,236.6z M962.9,236.6L962.9,236.6
	c-1.6-1.2-3.8-1-5,0.5L937.2,262c-0.6,0.7-0.8,1.6-0.7,2.5c-0.2,1.1,0.3,2.4,1.2,3.3c1.5,1.3,3.8,1.1,5-0.4l20.7-24.9
	c0.6-0.8,0.9-1.8,0.7-2.7C964.3,238.6,963.9,237.4,962.9,236.6z M912.9,236.6L912.9,236.6c-1.6-1.2-3.8-1-5,0.5L887.2,262
	c-0.6,0.7-0.8,1.6-0.7,2.5c-0.2,1.1,0.3,2.4,1.2,3.3c1.5,1.3,3.8,1.1,5-0.4l20.7-24.9c0.6-0.8,0.9-1.8,0.7-2.7
	C914.3,238.6,913.9,237.4,912.9,236.6z M862.9,236.6L862.9,236.6c-1.6-1.2-3.8-1-5,0.5L837.2,262c-0.6,0.7-0.8,1.6-0.7,2.5
	c-0.2,1.1,0.3,2.4,1.2,3.3c1.5,1.3,3.8,1.1,5-0.4l20.7-24.9c0.6-0.8,0.9-1.8,0.7-2.7C864.3,238.6,863.9,237.4,862.9,236.6z
	 M812.9,236.6L812.9,236.6c-1.6-1.2-3.8-1-5,0.5L787.2,262c-0.6,0.7-0.8,1.6-0.7,2.5c-0.2,1.1,0.3,2.4,1.2,3.3
	c1.5,1.3,3.8,1.1,5-0.4l20.7-24.9c0.6-0.8,0.9-1.8,0.7-2.7C814.3,238.6,813.9,237.4,812.9,236.6z M762.9,236.6L762.9,236.6
	c-1.6-1.2-3.8-1-5,0.5L737.2,262c-0.6,0.7-0.8,1.6-0.7,2.5c-0.2,1.1,0.3,2.4,1.2,3.3c1.5,1.3,3.8,1.1,5-0.4l20.7-24.9
	c0.6-0.8,0.9-1.8,0.7-2.7C764.3,238.6,763.9,237.4,762.9,236.6z M712.9,236.6L712.9,236.6c-1.6-1.2-3.8-1-5,0.5L687.2,262
	c-0.6,0.7-0.8,1.6-0.7,2.5c-0.2,1.1,0.3,2.4,1.2,3.3c1.5,1.3,3.8,1.1,5-0.4l20.7-24.9c0.6-0.8,0.9-1.8,0.7-2.7
	C714.3,238.6,713.9,237.4,712.9,236.6z M662.9,236.6L662.9,236.6c-1.6-1.2-3.8-1-5,0.5L637.2,262c-0.6,0.7-0.8,1.6-0.7,2.5
	c-0.2,1.1,0.3,2.4,1.2,3.3c1.5,1.3,3.8,1.1,5-0.4l20.7-24.9c0.6-0.8,0.9-1.8,0.7-2.7C664.3,238.6,663.9,237.4,662.9,236.6z
	 M612.9,236.6L612.9,236.6c-1.6-1.2-3.8-1-5,0.5L587.2,262c-0.6,0.7-0.8,1.6-0.7,2.5c-0.2,1.1,0.3,2.4,1.2,3.3
	c1.5,1.3,3.8,1.1,5-0.4l20.7-24.9c0.6-0.8,0.9-1.8,0.7-2.7C614.3,238.6,613.9,237.4,612.9,236.6z M562.9,236.6L562.9,236.6
	c-1.6-1.2-3.8-1-5,0.5L537.2,262c-0.6,0.7-0.8,1.6-0.7,2.5c-0.2,1.1,0.3,2.4,1.2,3.3c1.5,1.3,3.8,1.1,5-0.4l20.7-24.9
	c0.6-0.8,0.9-1.8,0.7-2.7C564.3,238.6,563.9,237.4,562.9,236.6z M512.9,236.6L512.9,236.6c-1.6-1.2-3.8-1-5,0.5L487.2,262
	c-0.6,0.7-0.8,1.6-0.7,2.5c-0.2,1.1,0.3,2.4,1.2,3.3c1.5,1.3,3.8,1.1,5-0.4l20.7-24.9c0.6-0.8,0.9-1.8,0.7-2.7
	C514.3,238.6,513.9,237.4,512.9,236.6z M462.9,236.6L462.9,236.6c-1.6-1.2-3.8-1-5,0.5L437.2,262c-0.6,0.7-0.8,1.6-0.7,2.5
	c-0.2,1.1,0.3,2.4,1.2,3.3c1.5,1.3,3.8,1.1,5-0.4l20.7-24.9c0.6-0.8,0.9-1.8,0.7-2.7C464.3,238.6,463.9,237.4,462.9,236.6z
	 M412.9,236.6L412.9,236.6c-1.6-1.2-3.8-1-5,0.5L387.2,262c-0.6,0.7-0.8,1.6-0.7,2.5c-0.2,1.1,0.3,2.4,1.2,3.3
	c1.5,1.3,3.8,1.1,5-0.4l20.7-24.9c0.6-0.8,0.9-1.8,0.7-2.7C414.3,238.6,413.9,237.4,412.9,236.6z M362.9,236.6L362.9,236.6
	c-1.6-1.2-3.8-1-5,0.5L337.2,262c-0.6,0.7-0.8,1.6-0.7,2.5c-0.2,1.1,0.3,2.4,1.2,3.3c1.5,1.3,3.8,1.1,5-0.4l20.7-24.9
	c0.6-0.8,0.9-1.8,0.7-2.7C364.3,238.6,363.9,237.4,362.9,236.6z M312.9,236.6L312.9,236.6c-1.6-1.2-3.8-1-5,0.5L287.2,262
	c-0.6,0.7-0.8,1.6-0.7,2.5c-0.2,1.1,0.3,2.4,1.2,3.3c1.5,1.3,3.8,1.1,5-0.4l20.7-24.9c0.6-0.8,0.9-1.8,0.7-2.7
	C314.3,238.6,313.9,237.4,312.9,236.6z M262.9,236.6h-0.1c-1.5-1.2-3.7-1-4.9,0.5L237.2,262c-0.6,0.7-0.8,1.6-0.7,2.5
	c-0.2,1.1,0.3,2.4,1.2,3.3c1.5,1.3,3.8,1.1,5-0.4l20.7-24.9c0.6-0.8,0.9-1.8,0.7-2.7C264.3,238.6,263.9,237.4,262.9,236.6z
	 M212.9,236.6h-0.1c-1.5-1.2-3.7-1-4.9,0.5L187.2,262c-0.6,0.7-0.8,1.6-0.7,2.5c-0.2,1.1,0.3,2.4,1.2,3.3c1.5,1.3,3.8,1.1,5-0.4
	l20.7-24.9c0.6-0.8,0.9-1.8,0.7-2.7C214.3,238.6,213.9,237.4,212.9,236.6z M162.9,236.6h-0.1c-1.5-1.2-3.7-1-4.9,0.5L137.2,262
	c-0.6,0.7-0.8,1.6-0.7,2.5c-0.2,1.1,0.3,2.4,1.2,3.3c1.5,1.3,3.8,1.1,5-0.4l20.7-24.9c0.6-0.8,0.9-1.8,0.7-2.7
	C164.3,238.6,163.9,237.4,162.9,236.6z M112.9,236.6h-0.1c-1.5-1.2-3.7-1-4.9,0.5L87.2,262c-0.6,0.7-0.8,1.6-0.7,2.5
	c-0.2,1.1,0.3,2.4,1.2,3.3c1.5,1.3,3.8,1.1,5-0.4l20.7-24.9c0.6-0.8,0.9-1.8,0.7-2.7C114.3,238.6,113.9,237.4,112.9,236.6z
	 M62.9,236.6h-0.1c-1.5-1.2-3.7-1-4.9,0.5L37.2,262c-0.6,0.7-0.8,1.6-0.7,2.5c-0.2,1.1,0.3,2.4,1.2,3.3c1.5,1.3,3.8,1.1,5-0.4
	l20.7-24.9c0.6-0.8,0.9-1.8,0.7-2.7C64.3,238.6,63.9,237.4,62.9,236.6z M1062.9,184.6L1062.9,184.6c-1.6-1.2-3.8-1-5,0.5l-20.7,24.9
	c-0.6,0.7-0.8,1.6-0.7,2.5c-0.2,1.1,0.3,2.4,1.2,3.3c1.5,1.3,3.8,1.1,5-0.4l20.7-24.9c0.6-0.8,0.9-1.8,0.7-2.7
	C1064.3,186.6,1063.9,185.4,1062.9,184.6z M1012.9,184.6L1012.9,184.6c-1.6-1.2-3.8-1-5,0.5L987.2,210c-0.6,0.7-0.8,1.6-0.7,2.5
	c-0.2,1.1,0.3,2.4,1.2,3.3c1.5,1.3,3.8,1.1,5-0.4l20.7-24.9c0.6-0.8,0.9-1.8,0.7-2.7C1014.3,186.6,1013.9,185.4,1012.9,184.6z
	 M962.9,184.6L962.9,184.6c-1.6-1.2-3.8-1-5,0.5L937.2,210c-0.6,0.7-0.8,1.6-0.7,2.5c-0.2,1.1,0.3,2.4,1.2,3.3
	c1.5,1.3,3.8,1.1,5-0.4l20.7-24.9c0.6-0.8,0.9-1.8,0.7-2.7C964.3,186.6,963.9,185.4,962.9,184.6z M912.9,184.6L912.9,184.6
	c-1.6-1.2-3.8-1-5,0.5L887.2,210c-0.6,0.7-0.8,1.6-0.7,2.5c-0.2,1.1,0.3,2.4,1.2,3.3c1.5,1.3,3.8,1.1,5-0.4l20.7-24.9
	c0.6-0.8,0.9-1.8,0.7-2.7C914.3,186.6,913.9,185.4,912.9,184.6z M862.9,184.6L862.9,184.6c-1.6-1.2-3.8-1-5,0.5L837.2,210
	c-0.6,0.7-0.8,1.6-0.7,2.5c-0.2,1.1,0.3,2.4,1.2,3.3c1.5,1.3,3.8,1.1,5-0.4l20.7-24.9c0.6-0.8,0.9-1.8,0.7-2.7
	C864.3,186.6,863.9,185.4,862.9,184.6z M812.9,184.6L812.9,184.6c-1.6-1.2-3.8-1-5,0.5L787.2,210c-0.6,0.7-0.8,1.6-0.7,2.5
	c-0.2,1.1,0.3,2.4,1.2,3.3c1.5,1.3,3.8,1.1,5-0.4l20.7-24.9c0.6-0.8,0.9-1.8,0.7-2.7C814.3,186.6,813.9,185.4,812.9,184.6z
	 M762.9,184.6L762.9,184.6c-1.6-1.2-3.8-1-5,0.5L737.2,210c-0.6,0.7-0.8,1.6-0.7,2.5c-0.2,1.1,0.3,2.4,1.2,3.3
	c1.5,1.3,3.8,1.1,5-0.4l20.7-24.9c0.6-0.8,0.9-1.8,0.7-2.7C764.3,186.6,763.9,185.4,762.9,184.6z M712.9,184.6L712.9,184.6
	c-1.6-1.2-3.8-1-5,0.5L687.2,210c-0.6,0.7-0.8,1.6-0.7,2.5c-0.2,1.1,0.3,2.4,1.2,3.3c1.5,1.3,3.8,1.1,5-0.4l20.7-24.9
	c0.6-0.8,0.9-1.8,0.7-2.7C714.3,186.6,713.9,185.4,712.9,184.6z M662.9,184.6L662.9,184.6c-1.6-1.2-3.8-1-5,0.5L637.2,210
	c-0.6,0.7-0.8,1.6-0.7,2.5c-0.2,1.1,0.3,2.4,1.2,3.3c1.5,1.3,3.8,1.1,5-0.4l20.7-24.9c0.6-0.8,0.9-1.8,0.7-2.7
	C664.3,186.6,663.9,185.4,662.9,184.6z M612.9,184.6L612.9,184.6c-1.6-1.2-3.8-1-5,0.5L587.2,210c-0.6,0.7-0.8,1.6-0.7,2.5
	c-0.2,1.1,0.3,2.4,1.2,3.3c1.5,1.3,3.8,1.1,5-0.4l20.7-24.9c0.6-0.8,0.9-1.8,0.7-2.7C614.3,186.6,613.9,185.4,612.9,184.6z
	 M562.9,184.6L562.9,184.6c-1.6-1.2-3.8-1-5,0.5L537.2,210c-0.6,0.7-0.8,1.6-0.7,2.5c-0.2,1.1,0.3,2.4,1.2,3.3
	c1.5,1.3,3.8,1.1,5-0.4l20.7-24.9c0.6-0.8,0.9-1.8,0.7-2.7C564.3,186.6,563.9,185.4,562.9,184.6z M512.9,184.6L512.9,184.6
	c-1.6-1.2-3.8-1-5,0.5L487.2,210c-0.6,0.7-0.8,1.6-0.7,2.5c-0.2,1.1,0.3,2.4,1.2,3.3c1.5,1.3,3.8,1.1,5-0.4l20.7-24.9
	c0.6-0.8,0.9-1.8,0.7-2.7C514.3,186.6,513.9,185.4,512.9,184.6z M462.9,184.6L462.9,184.6c-1.6-1.2-3.8-1-5,0.5L437.2,210
	c-0.6,0.7-0.8,1.6-0.7,2.5c-0.2,1.1,0.3,2.4,1.2,3.3c1.5,1.3,3.8,1.1,5-0.4l20.7-24.9c0.6-0.8,0.9-1.8,0.7-2.7
	C464.3,186.6,463.9,185.4,462.9,184.6z M412.9,184.6L412.9,184.6c-1.6-1.2-3.8-1-5,0.5L387.2,210c-0.6,0.7-0.8,1.6-0.7,2.5
	c-0.2,1.1,0.3,2.4,1.2,3.3c1.5,1.3,3.8,1.1,5-0.4l20.7-24.9c0.6-0.8,0.9-1.8,0.7-2.7C414.3,186.6,413.9,185.4,412.9,184.6z
	 M362.9,184.6L362.9,184.6c-1.6-1.2-3.8-1-5,0.5L337.2,210c-0.6,0.7-0.8,1.6-0.7,2.5c-0.2,1.1,0.3,2.4,1.2,3.3
	c1.5,1.3,3.8,1.1,5-0.4l20.7-24.9c0.6-0.8,0.9-1.8,0.7-2.7C364.3,186.6,363.9,185.4,362.9,184.6z M312.9,184.6L312.9,184.6
	c-1.6-1.2-3.8-1-5,0.5L287.2,210c-0.6,0.7-0.8,1.6-0.7,2.5c-0.2,1.1,0.3,2.4,1.2,3.3c1.5,1.3,3.8,1.1,5-0.4l20.7-24.9
	c0.6-0.8,0.9-1.8,0.7-2.7C314.3,186.6,313.9,185.4,312.9,184.6z M262.9,184.6h-0.1c-1.5-1.2-3.7-1-4.9,0.5L237.2,210
	c-0.6,0.7-0.8,1.6-0.7,2.5c-0.2,1.1,0.3,2.4,1.2,3.3c1.5,1.3,3.8,1.1,5-0.4l20.7-24.9c0.6-0.8,0.9-1.8,0.7-2.7
	C264.3,186.6,263.9,185.4,262.9,184.6z M212.9,184.6h-0.1c-1.5-1.2-3.7-1-4.9,0.5L187.2,210c-0.6,0.7-0.8,1.6-0.7,2.5
	c-0.2,1.1,0.3,2.4,1.2,3.3c1.5,1.3,3.8,1.1,5-0.4l20.7-24.9c0.6-0.8,0.9-1.8,0.7-2.7C214.3,186.6,213.9,185.4,212.9,184.6z
	 M162.9,184.6h-0.1c-1.5-1.2-3.7-1-4.9,0.5L137.2,210c-0.6,0.7-0.8,1.6-0.7,2.5c-0.2,1.1,0.3,2.4,1.2,3.3c1.5,1.3,3.8,1.1,5-0.4
	l20.7-24.9c0.6-0.8,0.9-1.8,0.7-2.7C164.3,186.6,163.9,185.4,162.9,184.6z M112.9,184.6h-0.1c-1.5-1.2-3.7-1-4.9,0.5L87.2,210
	c-0.6,0.7-0.8,1.6-0.7,2.5c-0.2,1.1,0.3,2.4,1.2,3.3c1.5,1.3,3.8,1.1,5-0.4l20.7-24.9c0.6-0.8,0.9-1.8,0.7-2.7
	C114.3,186.6,113.9,185.4,112.9,184.6z M62.9,184.6h-0.1c-1.5-1.2-3.7-1-4.9,0.5L37.2,210c-0.6,0.7-0.8,1.6-0.7,2.5
	c-0.2,1.1,0.3,2.4,1.2,3.3c1.5,1.3,3.8,1.1,5-0.4l20.7-24.9c0.6-0.8,0.9-1.8,0.7-2.7C64.3,186.6,63.9,185.4,62.9,184.6z
	 M1062.9,132.6L1062.9,132.6c-1.6-1.2-3.8-1-5,0.5l-20.7,24.9c-0.6,0.7-0.8,1.6-0.7,2.5c-0.2,1.1,0.3,2.4,1.2,3.3
	c1.5,1.3,3.8,1.1,5-0.4l20.7-24.9c0.6-0.8,0.9-1.8,0.7-2.7C1064.3,134.6,1063.9,133.4,1062.9,132.6z M1012.9,132.6L1012.9,132.6
	c-1.6-1.2-3.8-1-5,0.5L987.2,158c-0.6,0.7-0.8,1.6-0.7,2.5c-0.2,1.1,0.3,2.4,1.2,3.3c1.5,1.3,3.8,1.1,5-0.4l20.7-24.9
	c0.6-0.8,0.9-1.8,0.7-2.7C1014.3,134.6,1013.9,133.4,1012.9,132.6z M962.9,132.6L962.9,132.6c-1.6-1.2-3.8-1-5,0.5L937.2,158
	c-0.6,0.7-0.8,1.6-0.7,2.5c-0.2,1.1,0.3,2.4,1.2,3.3c1.5,1.3,3.8,1.1,5-0.4l20.7-24.9c0.6-0.8,0.9-1.8,0.7-2.7
	C964.3,134.6,963.9,133.4,962.9,132.6z M912.9,132.6L912.9,132.6c-1.6-1.2-3.8-1-5,0.5L887.2,158c-0.6,0.7-0.8,1.6-0.7,2.5
	c-0.2,1.1,0.3,2.4,1.2,3.3c1.5,1.3,3.8,1.1,5-0.4l20.7-24.9c0.6-0.8,0.9-1.8,0.7-2.7C914.3,134.6,913.9,133.4,912.9,132.6z
	 M862.9,132.6L862.9,132.6c-1.6-1.2-3.8-1-5,0.5L837.2,158c-0.6,0.7-0.8,1.6-0.7,2.5c-0.2,1.1,0.3,2.4,1.2,3.3
	c1.5,1.3,3.8,1.1,5-0.4l20.7-24.9c0.6-0.8,0.9-1.8,0.7-2.7C864.3,134.6,863.9,133.4,862.9,132.6z M812.9,132.6L812.9,132.6
	c-1.6-1.2-3.8-1-5,0.5L787.2,158c-0.6,0.7-0.8,1.6-0.7,2.5c-0.2,1.1,0.3,2.4,1.2,3.3c1.5,1.3,3.8,1.1,5-0.4l20.7-24.9
	c0.6-0.8,0.9-1.8,0.7-2.7C814.3,134.6,813.9,133.4,812.9,132.6z M762.9,132.6L762.9,132.6c-1.6-1.2-3.8-1-5,0.5L737.2,158
	c-0.6,0.7-0.8,1.6-0.7,2.5c-0.2,1.1,0.3,2.4,1.2,3.3c1.5,1.3,3.8,1.1,5-0.4l20.7-24.9c0.6-0.8,0.9-1.8,0.7-2.7
	C764.3,134.6,763.9,133.4,762.9,132.6z M712.9,132.6L712.9,132.6c-1.6-1.2-3.8-1-5,0.5L687.2,158c-0.6,0.7-0.8,1.6-0.7,2.5
	c-0.2,1.1,0.3,2.4,1.2,3.3c1.5,1.3,3.8,1.1,5-0.4l20.7-24.9c0.6-0.8,0.9-1.8,0.7-2.7C714.3,134.6,713.9,133.4,712.9,132.6z
	 M662.9,132.6L662.9,132.6c-1.6-1.2-3.8-1-5,0.5L637.2,158c-0.6,0.7-0.8,1.6-0.7,2.5c-0.2,1.1,0.3,2.4,1.2,3.3
	c1.5,1.3,3.8,1.1,5-0.4l20.7-24.9c0.6-0.8,0.9-1.8,0.7-2.7C664.3,134.6,663.9,133.4,662.9,132.6z M612.9,132.6L612.9,132.6
	c-1.6-1.2-3.8-1-5,0.5L587.2,158c-0.6,0.7-0.8,1.6-0.7,2.5c-0.2,1.1,0.3,2.4,1.2,3.3c1.5,1.3,3.8,1.1,5-0.4l20.7-24.9
	c0.6-0.8,0.9-1.8,0.7-2.7C614.3,134.6,613.9,133.4,612.9,132.6z M562.9,132.6L562.9,132.6c-1.6-1.2-3.8-1-5,0.5L537.2,158
	c-0.6,0.7-0.8,1.6-0.7,2.5c-0.2,1.1,0.3,2.4,1.2,3.3c1.5,1.3,3.8,1.1,5-0.4l20.7-24.9c0.6-0.8,0.9-1.8,0.7-2.7
	C564.3,134.6,563.9,133.4,562.9,132.6z M512.9,132.6L512.9,132.6c-1.6-1.2-3.8-1-5,0.5L487.2,158c-0.6,0.7-0.8,1.6-0.7,2.5
	c-0.2,1.1,0.3,2.4,1.2,3.3c1.5,1.3,3.8,1.1,5-0.4l20.7-24.9c0.6-0.8,0.9-1.8,0.7-2.7C514.3,134.6,513.9,133.4,512.9,132.6z
	 M462.9,132.6L462.9,132.6c-1.6-1.2-3.8-1-5,0.5L437.2,158c-0.6,0.7-0.8,1.6-0.7,2.5c-0.2,1.1,0.3,2.4,1.2,3.3
	c1.5,1.3,3.8,1.1,5-0.4l20.7-24.9c0.6-0.8,0.9-1.8,0.7-2.7C464.3,134.6,463.9,133.4,462.9,132.6z M412.9,132.6L412.9,132.6
	c-1.6-1.2-3.8-1-5,0.5L387.2,158c-0.6,0.7-0.8,1.6-0.7,2.5c-0.2,1.1,0.3,2.4,1.2,3.3c1.5,1.3,3.8,1.1,5-0.4l20.7-24.9
	c0.6-0.8,0.9-1.8,0.7-2.7C414.3,134.6,413.9,133.4,412.9,132.6z M362.9,132.6L362.9,132.6c-1.6-1.2-3.8-1-5,0.5L337.2,158
	c-0.6,0.7-0.8,1.6-0.7,2.5c-0.2,1.1,0.3,2.4,1.2,3.3c1.5,1.3,3.8,1.1,5-0.4l20.7-24.9c0.6-0.8,0.9-1.8,0.7-2.7
	C364.3,134.6,363.9,133.4,362.9,132.6z M312.9,132.6L312.9,132.6c-1.6-1.2-3.8-1-5,0.5L287.2,158c-0.6,0.7-0.8,1.6-0.7,2.5
	c-0.2,1.1,0.3,2.4,1.2,3.3c1.5,1.3,3.8,1.1,5-0.4l20.7-24.9c0.6-0.8,0.9-1.8,0.7-2.7C314.3,134.6,313.9,133.4,312.9,132.6z
	 M262.9,132.6h-0.1c-1.5-1.2-3.7-1-4.9,0.5L237.2,158c-0.6,0.7-0.8,1.6-0.7,2.5c-0.2,1.1,0.3,2.4,1.2,3.3c1.5,1.3,3.8,1.1,5-0.4
	l20.7-24.9c0.6-0.8,0.9-1.8,0.7-2.7C264.3,134.6,263.9,133.4,262.9,132.6z M212.9,132.6h-0.1c-1.5-1.2-3.7-1-4.9,0.5L187.2,158
	c-0.6,0.7-0.8,1.6-0.7,2.5c-0.2,1.1,0.3,2.4,1.2,3.3c1.5,1.3,3.8,1.1,5-0.4l20.7-24.9c0.6-0.8,0.9-1.8,0.7-2.7
	C214.3,134.6,213.9,133.4,212.9,132.6z M162.9,132.6h-0.1c-1.5-1.2-3.7-1-4.9,0.5L137.2,158c-0.6,0.7-0.8,1.6-0.7,2.5
	c-0.2,1.1,0.3,2.4,1.2,3.3c1.5,1.3,3.8,1.1,5-0.4l20.7-24.9c0.6-0.8,0.9-1.8,0.7-2.7C164.3,134.6,163.9,133.4,162.9,132.6z
	 M112.9,132.6h-0.1c-1.5-1.2-3.7-1-4.9,0.5L87.2,158c-0.6,0.7-0.8,1.6-0.7,2.5c-0.2,1.1,0.3,2.4,1.2,3.3c1.5,1.3,3.8,1.1,5-0.4
	l20.7-24.9c0.6-0.8,0.9-1.8,0.7-2.7C114.3,134.6,113.9,133.4,112.9,132.6z M62.9,132.6h-0.1c-1.5-1.2-3.7-1-4.9,0.5L37.2,158
	c-0.6,0.7-0.8,1.6-0.7,2.5c-0.2,1.1,0.3,2.4,1.2,3.3c1.5,1.3,3.8,1.1,5-0.4l20.7-24.9c0.6-0.8,0.9-1.8,0.7-2.7
	C64.3,134.6,63.9,133.4,62.9,132.6z M1062.9,80.6L1062.9,80.6c-1.6-1.2-3.8-1-5,0.5l-20.7,24.9c-0.6,0.7-0.8,1.6-0.7,2.5
	c-0.2,1.1,0.3,2.4,1.2,3.3c1.5,1.3,3.8,1.1,5-0.4l20.7-24.9c0.6-0.8,0.9-1.8,0.7-2.7C1064.3,82.6,1063.9,81.4,1062.9,80.6z
	 M1012.9,80.6L1012.9,80.6c-1.6-1.2-3.8-1-5,0.5L987.2,106c-0.6,0.7-0.8,1.6-0.7,2.5c-0.2,1.1,0.3,2.4,1.2,3.3
	c1.5,1.3,3.8,1.1,5-0.4l20.7-24.9c0.6-0.8,0.9-1.8,0.7-2.7C1014.3,82.6,1013.9,81.4,1012.9,80.6z M962.9,80.6L962.9,80.6
	c-1.6-1.2-3.8-1-5,0.5L937.2,106c-0.6,0.7-0.8,1.6-0.7,2.5c-0.2,1.1,0.3,2.4,1.2,3.3c1.5,1.3,3.8,1.1,5-0.4l20.7-24.9
	c0.6-0.8,0.9-1.8,0.7-2.7C964.3,82.6,963.9,81.4,962.9,80.6z M912.9,80.6L912.9,80.6c-1.6-1.2-3.8-1-5,0.5L887.2,106
	c-0.6,0.7-0.8,1.6-0.7,2.5c-0.2,1.1,0.3,2.4,1.2,3.3c1.5,1.3,3.8,1.1,5-0.4l20.7-24.9c0.6-0.8,0.9-1.8,0.7-2.7
	C914.3,82.6,913.9,81.4,912.9,80.6z M862.9,80.6L862.9,80.6c-1.6-1.2-3.8-1-5,0.5L837.2,106c-0.6,0.7-0.8,1.6-0.7,2.5
	c-0.2,1.1,0.3,2.4,1.2,3.3c1.5,1.3,3.8,1.1,5-0.4l20.7-24.9c0.6-0.8,0.9-1.8,0.7-2.7C864.3,82.6,863.9,81.4,862.9,80.6z M812.9,80.6
	L812.9,80.6c-1.6-1.2-3.8-1-5,0.5L787.2,106c-0.6,0.7-0.8,1.6-0.7,2.5c-0.2,1.1,0.3,2.4,1.2,3.3c1.5,1.3,3.8,1.1,5-0.4l20.7-24.9
	c0.6-0.8,0.9-1.8,0.7-2.7C814.3,82.6,813.9,81.4,812.9,80.6z M762.9,80.6L762.9,80.6c-1.6-1.2-3.8-1-5,0.5L737.2,106
	c-0.6,0.7-0.8,1.6-0.7,2.5c-0.2,1.1,0.3,2.4,1.2,3.3c1.5,1.3,3.8,1.1,5-0.4l20.7-24.9c0.6-0.8,0.9-1.8,0.7-2.7
	C764.3,82.6,763.9,81.4,762.9,80.6z M712.9,80.6L712.9,80.6c-1.6-1.2-3.8-1-5,0.5L687.2,106c-0.6,0.7-0.8,1.6-0.7,2.5
	c-0.2,1.1,0.3,2.4,1.2,3.3c1.5,1.3,3.8,1.1,5-0.4l20.7-24.9c0.6-0.8,0.9-1.8,0.7-2.7C714.3,82.6,713.9,81.4,712.9,80.6z M662.9,80.6
	L662.9,80.6c-1.6-1.2-3.8-1-5,0.5L637.2,106c-0.6,0.7-0.8,1.6-0.7,2.5c-0.2,1.1,0.3,2.4,1.2,3.3c1.5,1.3,3.8,1.1,5-0.4l20.7-24.9
	c0.6-0.8,0.9-1.8,0.7-2.7C664.3,82.6,663.9,81.4,662.9,80.6z M612.9,80.6L612.9,80.6c-1.6-1.2-3.8-1-5,0.5L587.2,106
	c-0.6,0.7-0.8,1.6-0.7,2.5c-0.2,1.1,0.3,2.4,1.2,3.3c1.5,1.3,3.8,1.1,5-0.4l20.7-24.9c0.6-0.8,0.9-1.8,0.7-2.7
	C614.3,82.6,613.9,81.4,612.9,80.6z M562.9,80.6L562.9,80.6c-1.6-1.2-3.8-1-5,0.5L537.2,106c-0.6,0.7-0.8,1.6-0.7,2.5
	c-0.2,1.1,0.3,2.4,1.2,3.3c1.5,1.3,3.8,1.1,5-0.4l20.7-24.9c0.6-0.8,0.9-1.8,0.7-2.7C564.3,82.6,563.9,81.4,562.9,80.6z M512.9,80.6
	L512.9,80.6c-1.6-1.2-3.8-1-5,0.5L487.2,106c-0.6,0.7-0.8,1.6-0.7,2.5c-0.2,1.1,0.3,2.4,1.2,3.3c1.5,1.3,3.8,1.1,5-0.4l20.7-24.9
	c0.6-0.8,0.9-1.8,0.7-2.7C514.3,82.6,513.9,81.4,512.9,80.6z M462.9,80.6L462.9,80.6c-1.6-1.2-3.8-1-5,0.5L437.2,106
	c-0.6,0.7-0.8,1.6-0.7,2.5c-0.2,1.1,0.3,2.4,1.2,3.3c1.5,1.3,3.8,1.1,5-0.4l20.7-24.9c0.6-0.8,0.9-1.8,0.7-2.7
	C464.3,82.6,463.9,81.4,462.9,80.6z M412.9,80.6L412.9,80.6c-1.6-1.2-3.8-1-5,0.5L387.2,106c-0.6,0.7-0.8,1.6-0.7,2.5
	c-0.2,1.1,0.3,2.4,1.2,3.3c1.5,1.3,3.8,1.1,5-0.4l20.7-24.9c0.6-0.8,0.9-1.8,0.7-2.7C414.3,82.6,413.9,81.4,412.9,80.6z M362.9,80.6
	L362.9,80.6c-1.6-1.2-3.8-1-5,0.5L337.2,106c-0.6,0.7-0.8,1.6-0.7,2.5c-0.2,1.1,0.3,2.4,1.2,3.3c1.5,1.3,3.8,1.1,5-0.4l20.7-24.9
	c0.6-0.8,0.9-1.8,0.7-2.7C364.3,82.6,363.9,81.4,362.9,80.6z M312.9,80.6L312.9,80.6c-1.6-1.2-3.8-1-5,0.5L287.2,106
	c-0.6,0.7-0.8,1.6-0.7,2.5c-0.2,1.1,0.3,2.4,1.2,3.3c1.5,1.3,3.8,1.1,5-0.4l20.7-24.9c0.6-0.8,0.9-1.8,0.7-2.7
	C314.3,82.6,313.9,81.4,312.9,80.6z M262.9,80.6h-0.1c-1.5-1.2-3.7-1-4.9,0.5L237.2,106c-0.6,0.7-0.8,1.6-0.7,2.5
	c-0.2,1.1,0.3,2.4,1.2,3.3c1.5,1.3,3.8,1.1,5-0.4l20.7-24.9c0.6-0.8,0.9-1.8,0.7-2.7C264.3,82.6,263.9,81.4,262.9,80.6z M212.9,80.6
	h-0.1c-1.5-1.2-3.7-1-4.9,0.5L187.2,106c-0.6,0.7-0.8,1.6-0.7,2.5c-0.2,1.1,0.3,2.4,1.2,3.3c1.5,1.3,3.8,1.1,5-0.4l20.7-24.9
	c0.6-0.8,0.9-1.8,0.7-2.7C214.3,82.6,213.9,81.4,212.9,80.6z M162.9,80.6h-0.1c-1.5-1.2-3.7-1-4.9,0.5L137.2,106
	c-0.6,0.7-0.8,1.6-0.7,2.5c-0.2,1.1,0.3,2.4,1.2,3.3c1.5,1.3,3.8,1.1,5-0.4l20.7-24.9c0.6-0.8,0.9-1.8,0.7-2.7
	C164.3,82.6,163.9,81.4,162.9,80.6z M112.9,80.6h-0.1c-1.5-1.2-3.7-1-4.9,0.5L87.2,106c-0.6,0.7-0.8,1.6-0.7,2.5
	c-0.2,1.1,0.3,2.4,1.2,3.3c1.5,1.3,3.8,1.1,5-0.4l20.7-24.9c0.6-0.8,0.9-1.8,0.7-2.7C114.3,82.6,113.9,81.4,112.9,80.6z M62.9,80.6
	h-0.1c-1.5-1.2-3.7-1-4.9,0.5L37.2,106c-0.6,0.7-0.8,1.6-0.7,2.5c-0.2,1.1,0.3,2.4,1.2,3.3c1.5,1.3,3.8,1.1,5-0.4l20.7-24.9
	c0.6-0.8,0.9-1.8,0.7-2.7C64.3,82.6,63.9,81.4,62.9,80.6z M1042.7,58.4l20.7-24.9c1.2-1.5,1-3.7-0.5-4.9h-0.1
	c-1.5-1.2-3.7-1-4.9,0.5L1037.2,54c-1.2,1.3-0.9,3.5,0.5,4.8C1039.2,60.1,1041.5,59.9,1042.7,58.4z M1012.9,28.6L1012.9,28.6
	c-1.6-1.2-3.8-1-5,0.5L987.2,54c-1.2,1.3-0.9,3.5,0.5,4.8c1.5,1.3,3.8,1.1,5-0.4l20.7-24.9C1014.6,32,1014.4,29.8,1012.9,28.6z
	 M962.9,28.6L962.9,28.6c-1.6-1.2-3.8-1-5,0.5L937.2,54c-1.2,1.3-0.9,3.5,0.5,4.8c1.5,1.3,3.8,1.1,5-0.4l20.7-24.9
	C964.6,32,964.4,29.8,962.9,28.6z M912.9,28.6L912.9,28.6c-1.6-1.2-3.8-1-5,0.5L887.2,54c-1.2,1.3-0.9,3.5,0.5,4.8
	c1.5,1.3,3.8,1.1,5-0.4l20.7-24.9C914.6,32,914.4,29.8,912.9,28.6z M862.9,28.6L862.9,28.6c-1.6-1.2-3.8-1-5,0.5L837.2,54
	c-1.2,1.3-0.9,3.5,0.5,4.8c1.5,1.3,3.8,1.1,5-0.4l20.7-24.9C864.6,32,864.4,29.8,862.9,28.6z M812.9,28.6L812.9,28.6
	c-1.6-1.2-3.8-1-5,0.5L787.2,54c-1.2,1.3-0.9,3.5,0.5,4.8c1.5,1.3,3.8,1.1,5-0.4l20.7-24.9C814.6,32,814.4,29.8,812.9,28.6z
	 M762.9,28.6L762.9,28.6c-1.6-1.2-3.8-1-5,0.5L737.2,54c-1.2,1.3-0.9,3.5,0.5,4.8c1.5,1.3,3.8,1.1,5-0.4l20.7-24.9
	C764.6,32,764.4,29.8,762.9,28.6z M712.9,28.6L712.9,28.6c-1.6-1.2-3.8-1-5,0.5L687.2,54c-1.2,1.3-0.9,3.5,0.5,4.8
	c1.5,1.3,3.8,1.1,5-0.4l20.7-24.9C714.6,32,714.4,29.8,712.9,28.6z M662.9,28.6L662.9,28.6c-1.6-1.2-3.8-1-5,0.5L637.2,54
	c-1.2,1.3-0.9,3.5,0.5,4.8c1.5,1.3,3.8,1.1,5-0.4l20.7-24.9C664.6,32,664.4,29.8,662.9,28.6z M612.9,28.6L612.9,28.6
	c-1.6-1.2-3.8-1-5,0.5L587.2,54c-1.2,1.3-0.9,3.5,0.5,4.8c1.5,1.3,3.8,1.1,5-0.4l20.7-24.9C614.6,32,614.4,29.8,612.9,28.6z
	 M562.9,28.6L562.9,28.6c-1.6-1.2-3.8-1-5,0.5L537.2,54c-1.2,1.3-0.9,3.5,0.5,4.8c1.5,1.3,3.8,1.1,5-0.4l20.7-24.9
	C564.6,32,564.4,29.8,562.9,28.6z M512.9,28.6L512.9,28.6c-1.6-1.2-3.8-1-5,0.5L487.2,54c-1.2,1.3-0.9,3.5,0.5,4.8
	c1.5,1.3,3.8,1.1,5-0.4l20.7-24.9C514.6,32,514.4,29.8,512.9,28.6z M462.9,28.6L462.9,28.6c-1.6-1.2-3.8-1-5,0.5L437.2,54
	c-1.2,1.3-0.9,3.5,0.5,4.8c1.5,1.3,3.8,1.1,5-0.4l20.7-24.9C464.6,32,464.4,29.8,462.9,28.6z M412.9,28.6L412.9,28.6
	c-1.6-1.2-3.8-1-5,0.5L387.2,54c-1.2,1.3-0.9,3.5,0.5,4.8c1.5,1.3,3.8,1.1,5-0.4l20.7-24.9C414.6,32,414.4,29.8,412.9,28.6z
	 M362.9,28.6L362.9,28.6c-1.6-1.2-3.8-1-5,0.5L337.2,54c-1.2,1.3-0.9,3.5,0.5,4.8c1.5,1.3,3.8,1.1,5-0.4l20.7-24.9
	C364.6,32,364.4,29.8,362.9,28.6z M312.9,28.6L312.9,28.6c-1.6-1.2-3.8-1-5,0.5L287.2,54c-1.2,1.3-0.9,3.5,0.5,4.8
	c1.5,1.3,3.8,1.1,5-0.4l20.7-24.9C314.6,32,314.4,29.8,312.9,28.6z M262.9,28.6h-0.1c-1.5-1.2-3.7-1-4.9,0.5L237.2,54
	c-1.2,1.3-0.9,3.5,0.5,4.8c1.5,1.3,3.8,1.1,5-0.4l20.7-24.9C264.6,32,264.4,29.8,262.9,28.6z M212.9,28.6h-0.1
	c-1.5-1.2-3.7-1-4.9,0.5L187.2,54c-1.2,1.3-0.9,3.5,0.5,4.8c1.5,1.3,3.8,1.1,5-0.4l20.7-24.9C214.6,32,214.4,29.8,212.9,28.6z
	 M162.9,28.6h-0.1c-1.5-1.2-3.7-1-4.9,0.5L137.2,54c-1.2,1.3-0.9,3.5,0.5,4.8c1.5,1.3,3.8,1.1,5-0.4l20.7-24.9
	C164.6,32,164.4,29.8,162.9,28.6z M112.9,28.6h-0.1c-1.5-1.2-3.7-1-4.9,0.5L87.3,53.8c-1.3,1.5-1,3.7,0.4,5c1.5,1.3,3.8,1.1,5-0.4
	l20.7-24.9C114.6,32,114.4,29.8,112.9,28.6z M62.9,28.6h-0.1c-1.5-1.2-3.7-1-4.9,0.5L37.3,53.8c-1.3,1.5-1,3.7,0.4,5
	c1.5,1.3,3.8,1.1,5-0.4l20.7-24.9C64.6,32,64.4,29.8,62.9,28.6z"/>
</svg>
