<?xml version="1.0" encoding="utf-8"?>
<!-- Generator: Adobe Illustrator 26.0.1, SVG Export Plug-In . SVG Version: 6.00 Build 0)  -->
<svg version="1.0" id="Слой_1" xmlns="http://www.w3.org/2000/svg" xmlns:xlink="http://www.w3.org/1999/xlink" x="0px" y="0px"
	 viewBox="0 0 595.28 841.89" style="enable-background:new 0 0 595.28 841.89;" xml:space="preserve">
<style type="text/css">
	.st0{fill:#7F8081;}
	.st1{fill:#FFFFFF;}
	.st2{fill:#F3D4D6;}
	.st3{fill:none;stroke:#000000;stroke-width:1.5;stroke-linecap:round;stroke-linejoin:round;stroke-miterlimit:10;}
	.st4{fill:none;stroke:#000000;stroke-width:2;stroke-linecap:round;stroke-linejoin:round;stroke-miterlimit:10;}
	.st5{fill:none;stroke:#000000;stroke-width:1.7;stroke-miterlimit:10;}
	.st6{fill:none;stroke:#000000;stroke-width:1.5;stroke-linejoin:round;stroke-miterlimit:10;}
</style>
<path class="st0" d="M297.13,408.99c0,0-24.92,11.98-56.9,0c0,0-16.32-0.7-26.35-16.79c-10.03-16.08-16.72-38.74-5.57-70.23
	c0,0-16.75-75.77,44.97-94.38c9.69-2.92,19.78-3.21,29.47-0.29c20.28,6.11,52.13,26.3,47.71,93.01c0,0,20.94,65.89-17.45,84.38
	L297.13,408.99z"/>
<path class="st1" d="M270.37,275.4c0,0-20.85-35.92-45.08,0.44c-4.5,6.75-7.14,15.65-7.75,24.32c-0.63,9.03,0.26,19.43,6.17,25.2
	c0.58-0.83,16.67-9.42,18.49-3.71c3.52,11.08-8.56,20.93-14.33,27.37c-1.93,2.15-3.45,4.76-4.42,7.72
	c-2.16,6.57-3.73,15.79,0.88,30.69c6.96,22.48,25,25.31,25,25.31s25.51,6.28,46.91-1.89s22.42-29.22,22.42-29.22
	s1.71-23.49-2.58-30.18c-2.05-3.2-23.06-12.98-19.89-27.39c2.06-9.34,18.89,4.04,20.06,1.56c3.03-6.44,2.96-13.12,2.96-13.12
	s7.59-23.17-6.59-43.43C298.43,248.82,271.69,268.65,270.37,275.4z"/>
<path class="st2" d="M309.68,308.48c0.74,2.02,0.56,4.58-0.66,6.21c-1.46,1.95-3.89,2.16-6.05,2.01c-0.96-0.07-1.98-0.2-2.72-0.94
	c-0.71-0.71-1.04-1.84-1.2-2.95c-0.14-0.98-0.17-2,0.05-2.96c0.38-1.66,1.47-2.98,2.71-3.8c1.28-0.86,3.36-1.98,4.76-1.39
	C307.89,305.22,309.13,306.97,309.68,308.48z"/>
<path class="st2" d="M230.07,306.33c-0.61,0.31-1.1,0.89-1.47,1.55c-0.34,0.6-0.58,1.29-0.69,2.01c-0.27,1.84,0.47,3.85,1.78,4.82
	c0.41,0.31,0.87,0.52,1.34,0.69c2.57,0.93,5.42,0.64,7.83-0.81c0.23-0.14,0.47-0.3,0.65-0.53c0.39-0.51,0.44-1.31,0.26-1.97
	c-0.18-0.66-0.55-1.22-0.93-1.75c-0.54-0.76-1.1-1.5-1.69-2.21C235.52,306.14,232.32,305.19,230.07,306.33z"/>
<path class="st2" d="M275.71,305.4c0.75,1.03,1.45,2.44,0.99,3.69c-0.5,1.38-2,1.58-3.23,1.7c-3.01,0.3-6.08,1.34-8.99,0.36
	c-0.99-0.33-2-0.98-2.44-2.11c-0.59-1.5,0.03-3.37,1.07-4.46c1.03-1.09,2.39-1.58,3.69-2.1c0.82-0.33,1.66-0.68,2.41-1.23
	c1.03-0.76,1.06-1.04,2.17-0.23C272.99,302.2,274.46,303.68,275.71,305.4z"/>
<g id="Контур_00000049221461870515003250000014605583441144163236_">
	<ellipse cx="298.88" cy="302.69" rx="7.48" ry="9.12"/>
	<ellipse cx="240.23" cy="303.36" rx="7.89" ry="9.62"/>
	<path class="st3" d="M269.75,275.4c0,0-19.75-36.67-43.98-0.3c-4.5,6.75-7.34,14.95-7.95,23.61c-0.63,9.03-0.03,20.47,5.88,26.25
		c0,0,12.89-7.53,16.81-4.84c9.58,6.58-6.59,21.01-12.37,27.46c-1.93,2.15-3.45,4.76-4.42,7.72c-2.16,6.57-3.73,15.79,0.88,30.69
		c6.96,22.48,25,25.31,25,25.31s25.51,6.28,46.91-1.89c21.39-8.17,22.42-29.22,22.42-29.22s2.32-23.92-2.58-30.18
		c-1.83-2.35-24.68-12.54-19.89-27.39c2.28-7.08,19.56,5.74,20.1,2.59c1.33-7.71,2.91-14.15,2.91-14.15s6.67-22.64-7.51-42.9
		S271.08,268.65,269.75,275.4z"/>
	<path class="st4" d="M297.13,408.99c0,0-24.92,11.98-56.9,0c0,0-16.32-0.7-26.35-16.79c-10.03-16.08-16.72-38.74-5.57-70.23
		c0,0-16.75-75.77,44.97-94.38c9.69-2.92,19.78-3.21,29.47-0.29c20.28,6.11,52.13,26.3,47.71,93.01c0,0,20.94,65.89-17.45,84.38
		L297.13,408.99z"/>
	
		<ellipse transform="matrix(0.0908 -0.9959 0.9959 0.0908 -119.609 665.7537)" class="st5" cx="304.8" cy="398.38" rx="16.17" ry="9.3"/>
	
		<ellipse transform="matrix(0.9994 -0.036 0.036 0.9994 -14.1498 8.7012)" class="st5" cx="234.37" cy="396.98" rx="8.34" ry="14.23"/>
	<line class="st3" x1="223.7" y1="324.95" x2="219.39" y2="327.29"/>
	<path class="st3" d="M216.34,350.02c0,0,10.58,0.48,13.89-4.68"/>
	<line class="st3" x1="322.62" y1="326.83" x2="316.24" y2="325.63"/>
	<line class="st3" x1="322.62" y1="350.03" x2="314.02" y2="347.68"/>
	<path class="st6" d="M275.71,305.4c0.75,1.03,1.45,2.44,0.99,3.69c-0.5,1.38-2,1.58-3.23,1.7c-3.01,0.3-6.08,1.34-8.99,0.36
		c-0.99-0.33-2-0.98-2.44-2.11c-0.59-1.5,0.03-3.37,1.07-4.46c1.03-1.09,2.39-1.58,3.69-2.1c0.82-0.33,1.66-0.68,2.41-1.23
		c1.03-0.76,1.06-1.04,2.17-0.23C272.99,302.2,274.46,303.68,275.71,305.4z"/>
</g>
<ellipse transform="matrix(0.0908 -0.9959 0.9959 0.0908 -119.609 665.7537)" class="st2" cx="304.8" cy="398.38" rx="16.17" ry="9.3"/>
<ellipse transform="matrix(0.9994 -0.036 0.036 0.9994 -14.1498 8.7012)" class="st2" cx="234.37" cy="396.98" rx="8.34" ry="14.23"/>
</svg>
