<?xml version="1.0" encoding="utf-8"?>
<!-- Generator: Adobe Illustrator 22.1.0, SVG Export Plug-In . SVG Version: 6.00 Build 0)  -->
<svg version="1.1" xmlns="http://www.w3.org/2000/svg" xmlns:xlink="http://www.w3.org/1999/xlink" x="0px" y="0px"
	 viewBox="0 0 1024 1024" style="enable-background:new 0 0 1024 1024;" xml:space="preserve">
<style type="text/css">
	.st0{display:none;}
	.st1{display:inline;}
	.st2{fill:#3C91E5;}
	.st3{fill:#070707;}
	.st4{display:inline;fill:#070707;}
	.st5{fill:#FFFFFF;}
	.st6{fill:#C1282E;}
	.st7{fill:#B4E85B;}
	.st8{fill:#8B6239;}
	.st9{fill:#FFDB43;}
	.st10{fill:#000;stroke:none}
	.st11{fill:#FF8327;}
	.st12{display:inline;fill:#1E1E1E;}
	.st13{fill:#CC50FF;}
	.st14{display:inline;fill:#CC50FF;}
	.st15{fill:#47F4F4;}
	.st16{display:inline;fill:#161616;}
	.st17{fill:#FF52C1;}
	.st18{fill:#3774EF;}
	.st19{fill:#97EF5E;}
	.st20{fill:#FF3636;}
	.st21{fill:#2EE1FF;}
	.st22{fill:#161616;}
	.st23{fill:#FFE131;}
	.st24{display:inline;fill:#2EE1FF;}
	.st25{display:inline;fill:#EF45EF;}
	.st26{display:inline;fill:#FFE631;}
	.st27{display:inline;fill:#191919;}
	.st28{fill:#FFE631;}
	.st29{fill:#FF4343;}
	.st30{fill:#353535;}
	.st31{fill:#8B79AD;}
	.st32{fill:#C29CEF;}
	.st33{fill:#FF9494;}
</style>
<g id="Layer_1">
</g>
<g id="rabbit">
	<g>
		<rect x ="0" y="0" height="100" width="100" style="stroke:#000"/>
		<path class="st31" d="M624,566c74.6,10.4,145.5,84,156,144c20.5,117.5,22.8,158.1,23.5,180.5c1,30-42.5,46.5-66.5,35.5
			c-23.8-10.9-34-59-58-55s-16,37.5-15,67c1,29-42.5,45.5-62,36c-33.7-16.4-27.5-32.5-51.5-32.5S462,946,462,946s14,42-31,45
			s-126.5-9.5-174-51c-59.3-51.8-71.1-116.8-42-194c23-61,84.5-127.7,166.5-152.5C505.1,556.2,579.3,559.8,624,566z"/>
		<path class="st10" d="M417.8,1003.9c-47.4,0-122.3-13.6-169-54.5c-61.8-54-77.1-123.9-45.5-207.8c12.5-33.1,35.3-66.7,64.1-94.4
			c32-30.8,70.2-53.5,110.4-65.6c126.7-38.3,202.1-34.3,247.8-27.9c81.9,11.4,155.5,90.8,166.6,154.2
			C811.5,817.8,815,861.7,816,890.1c0.5,15.6-7.7,30.2-22.5,40c-18.6,12.4-44,15.4-61.7,7.2c-13.8-6.3-23.1-20.6-31.2-33.1
			c-6.3-9.7-14.2-21.8-19.5-20.9c-2.3,0.4-4.5,0.8-5.8,7.4c-1.5,7.5-0.6,18.4,0.2,29.9c0.4,5.5,0.9,11.3,1,16.9
			c0.5,15.5-8,30.1-23.3,40.1c-18.2,11.8-41.5,14.9-56.6,7.5c-17.9-8.7-26-17.5-32-23.9c-5.6-6-6.7-7.3-14.1-7.3
			c-16.6,0-53.8,2.3-74,3.6c0.3,8.1-0.9,18.2-7,27.2c-7.6,11.3-20.3,17.6-37.8,18.8C427.5,1003.8,422.8,1003.9,417.8,1003.9z
			 M567,574.5c-43,0-101.6,6.7-181.9,30.9c-80.9,24.4-137.9,90.4-158.4,144.9c-28,74.2-15.4,133.1,38.5,180.2
			c45.7,39.9,125.4,50.6,164.9,47.9c9.3-0.6,15.6-3.2,18.6-7.7c4.5-6.6,2.5-17.4,1.3-21c-1.2-3.7-0.7-7.7,1.5-10.9
			c2.1-3.2,5.7-5.2,9.5-5.5c2.7-0.2,65.2-4.5,89.4-4.5c18.2,0,25.4,7.8,32.4,15.3c5.1,5.5,10.9,11.8,24.6,18.4
			c6.3,3.1,20.7,1.4,32.1-6c4.6-3,12.3-9.3,12-18.3c-0.2-5.1-0.6-10.6-1-15.9c-1-13.2-1.9-25.7,0.2-36.5
			c3.8-19.6,16.4-25.7,26.3-27.3c21.5-3.6,34.3,16.1,44.6,32c6.6,10.2,13.5,20.7,20.7,24c9.8,4.5,26.2,2.1,37.4-5.3
			c5.3-3.6,11.7-9.6,11.4-18.4c-0.9-27.6-4.4-70.4-23.3-178.8c-9.4-53.8-75-124-145.4-133.8C607.5,576.3,589.3,574.5,567,574.5z"/>
	</g>
	<g>
		<path class="st32" d="M819.9,417c16-52.2,28.9-118.1,34.4-177.5c11.5-123.9-13.7-172.5-50-175.9c-36.3-3.4-70,39.8-81.5,163.7
			c-4.5,48.2-4.9,101.6-1.7,149c-18.1-3.5-37.1-5.4-56.7-5.4c-22.5,0-44.2,2.5-64.8,7.1c1.4-46.1-0.7-97.3-6.5-143.6
			C577.9,111,542.9,68.9,506.7,73.4c-36.2,4.5-59.8,53.8-44.5,177.3c7.2,57.7,21.5,121.3,38.5,172.4C457.7,456,431,501.8,431,552.5
			C431,652.7,535.5,734,664.5,734S898,652.7,898,552.5C898,498.6,867.8,450.3,819.9,417z"/>
		<path class="st10" d="M664.5,746.5c-65.1,0-126.5-19.8-172.8-55.8c-47.2-36.7-73.2-85.8-73.2-138.2c0-26.9,6.8-52.9,20.3-77.4
			c11.5-20.9,27.5-39.9,47.4-56.4c-16.2-50.7-29.6-112.2-36.4-166.4c-7.4-59.8-6.3-106.3,3.4-138.4c12-39.8,34.9-50.7,52-52.8
			c17.1-2.1,42,2.8,63.3,38.5c17.2,28.8,29.7,73.7,37.1,133.4c5.1,41.1,7.5,86.6,6.9,129.9c17-2.9,34.4-4.3,52-4.3
			c14.5,0,29,1,43.3,3c-2.3-44.7-1.4-92.2,2.6-135.3c5.6-60,16.6-105.2,33-134.5c20.2-36.3,44.9-42.1,62.1-40.5
			c17.2,1.6,40.4,11.8,53.6,51.2c10.6,31.8,13.2,78.3,7.7,138.3c-5.2,56.1-17.2,119.4-32.3,171.4c48.5,36.5,76.1,87.2,76.1,140.4
			c0,52.4-26,101.5-73.2,138.2C791,726.7,729.6,746.5,664.5,746.5z M511.8,85.6c-1.1,0-2.3,0.1-3.5,0.2
			c-33.2,4.1-45.8,65.2-33.6,163.4c6.9,55.7,21.1,119.3,38,169.9c1.7,5.1,0,10.6-4.3,13.9c-41.8,32-64.9,74.4-64.9,119.5
			c0,93.2,99.1,169,221,169s221-75.8,221-169c0-47.5-26.5-93.1-72.7-125.2c-4.5-3.1-6.4-8.7-4.8-13.9c15.9-51.9,28.6-117.3,33.9-175
			c9.1-98.5-5.3-159.2-38.7-162.3c-33.4-3.1-58.7,53.9-67.9,152.4c-4.3,46.9-4.9,99.1-1.6,147c0.3,3.9-1.3,7.7-4.2,10.2
			c-2.9,2.6-6.8,3.6-10.7,2.9c-17.7-3.4-36-5.2-54.3-5.2c-21.1,0-42,2.3-62.1,6.8c-3.8,0.8-7.7-0.1-10.7-2.6c-3-2.5-4.6-6.2-4.5-10
			c1.5-46.5-0.8-96.8-6.4-141.7c-7-56.3-18.3-97.9-33.8-123.7C536.4,94.6,524.6,85.6,511.8,85.6z"/>
	</g>
	<g>
		<path class="st32" d="M194.1,880.6C214,866,196,847,190,805c-4.9-34.4-42-51-68.2-33.6c-26.2,17.4-31.3,55.9-11.4,86.1
			S168.7,899.2,194.1,880.6z"/>
		<path class="st10" d="M165.9,902.1c-3.9,0-7.9-0.4-11.9-1.1c-21.4-3.8-41.1-17.2-54-36.7c-11.3-17.1-16.2-37.1-13.6-56.4
			c2.6-19.9,12.8-36.6,28.5-47c15.7-10.4,35.6-11.9,53.2-4c18.5,8.3,31.4,25.6,34.3,46.3c1.9,13.3,5.1,24.2,7.9,33.7
			c5.6,19.1,11.4,38.9-8.8,53.7h0C191.3,898.2,178.9,902.1,165.9,902.1z M144.9,776.9c-5.7,0-11.3,1.6-16.2,4.9
			c-9.6,6.4-15.9,16.8-17.5,29.5c-1.8,13.3,1.7,27.2,9.7,39.3c9,13.6,23,23.3,37.5,25.8c7.5,1.3,18.4,1.4,28.3-5.9h0
			c5.2-3.9,5.6-6-0.4-26.5c-2.9-9.9-6.5-22.1-8.7-37.3c-1.7-12.1-9.1-22.2-19.8-27C153.6,777.8,149.2,776.9,144.9,776.9z"/>
	</g>
	<path class="st10" d="M450,947.7c0-0.5-0.4-11.9-10.6-18.9c-6.9-4.7-12-2.1-13.9-0.7c-3.6,3.3-8.7,4-13.2,2
		c-4.6-2-7.3-6.7-7.3-11.7c0-11.4-3.4-44.6-18.5-60.4c-15.4-16.2-32.7-10.6-34.6-9.9l0.1,0h0c-10.9-1.9-15.8-14.7-9-23.3l0,0
		c1.4-0.5,34.1-12.7,61.5,16c16.1,16.9,22.1,43.2,24.2,60.4c7.4-0.7,16.1,0.9,24.8,6.9c16.9,11.6,21.4,30.2,21.4,39.3h-25L450,947.7
		z"/>
	<g>
		<path class="st33" d="M554.7,221.8c9.3,69.2,10.3,174.6-4.4,176.6c-14.8,2-39.8-100.2-49.1-169.4s0.8-79.4,15.6-81.3
			C531.5,145.6,545.4,152.5,554.7,221.8z"/>
		<path class="st10" d="M549.7,410.9c-13.2,0-20.3-16.3-23.5-23.4c-4.6-10.5-9.6-25.3-14.6-43.9c-9.3-34.1-18-77.4-22.8-113.1
			c-4.6-34.2-4.9-56.7-0.9-70.9c4.1-14.6,13-22.6,27.2-24.5c33.1-4.4,44.8,30.7,52,84.9l0,0c4.7,35.1,7.3,79.3,6.9,115.3
			c-0.2,19.2-1.3,34.8-3.2,46.2c-1.3,8.1-4.4,27.1-18.9,29.1C551.2,410.9,550.4,410.9,549.7,410.9z M520.7,159.8
			c-0.7,0-1.5,0.1-2.3,0.2c-3.3,0.4-4.8,0.6-6.4,6.4c-2.9,10.5-2.4,31,1.6,60.9c4.2,31.4,11.6,69,19.7,100.7
			c5.3,20.6,10,34.8,13.6,44.2c1.2-10.1,2.2-25,2.1-46.3c-0.1-33.3-2.6-71.6-6.7-102.4c-3.9-29.5-9-49.3-15-58.7
			C524.7,160.7,522.9,159.8,520.7,159.8z"/>
	</g>
	<g>
		<path class="st33" d="M819.6,220.7c-6.5,69.6-29.1,172.5-43.9,171.1c-14.8-1.4-16.4-106.6-9.8-176.1c6.5-69.6,18.6-77.2,33.4-75.8
			S826.1,151.1,819.6,220.7z"/>
		<path class="st10" d="M776.1,404.3c-0.5,0-1,0-1.6-0.1c-14.7-1.4-18.3-20.3-19.8-28.4c-2.2-11.3-3.7-26.8-4.4-46
			c-1.4-35.3-0.2-79.4,3.1-115.3c5.4-57.4,14.8-90.1,47-87.1c14.3,1.3,23.7,8.9,28.8,23.1c5.1,14.4,6.1,37.1,2.8,71.3
			c-3.3,35.2-10.6,78.9-19.1,113.9c-4.5,18.7-9.1,33.6-13.5,44.4C796.5,387.5,789.6,404.3,776.1,404.3z M796.2,152.2
			c-2.1,0-3.5,0.8-5.8,4.9c-5.2,9.6-9.3,29.7-12.1,59.7c-2.9,31.5-4.2,69.8-3.3,102.5c0.6,21.2,1.9,36.2,3.4,46.2
			c3.4-9.5,7.7-23.9,12.4-44.7c7.4-32.5,13.5-70.3,16.4-101.3c2.8-29.7,2.3-50-1.5-60.6c-2.2-6.1-4.2-6.3-7.6-6.6
			C797.4,152.3,796.8,152.2,796.2,152.2z"/>
	</g>
	<path class="st10" d="M555.5,610c0,14.1-11.4,25.5-25.5,25.5s-25.5-11.4-25.5-25.5s11.4-25.5,25.5-25.5S555.5,595.9,555.5,610z
		 M791.5,583c-14.1,0-25.5,11.4-25.5,25.5s11.4,25.5,25.5,25.5s25.5-11.4,25.5-25.5S805.6,583,791.5,583z M685.8,638.8L669,650.6
		l-18.5-12c-5.8-3.8-13.5-2.1-17.3,3.7c-3.8,5.8-2.1,13.5,3.7,17.3l10.1,6.5l-3.1,2.2c-5.7,4-7,11.8-3.1,17.4
		c2.4,3.5,6.3,5.3,10.2,5.3c2.5,0,5-0.7,7.2-2.3l11.3-8l9.2,6c2.1,1.4,4.5,2,6.8,2c4.1,0,8.1-2,10.5-5.7c3.8-5.8,2.1-13.5-3.7-17.3
		l-0.8-0.5l8.5-6c5.7-4,7-11.8,3.1-17.4C699.3,636.2,691.5,634.9,685.8,638.8z"/>
</g>
</svg>
