<?xml version="1.0" encoding="utf-8"?>
<!-- Generator: Adobe Illustrator 22.1.0, SVG Export Plug-In . SVG Version: 6.00 Build 0)  -->
<svg version="1.1" xmlns="http://www.w3.org/2000/svg" xmlns:xlink="http://www.w3.org/1999/xlink" x="0px" y="0px"
	 viewBox="0 0 1024 1024" style="enable-background:new 0 0 1024 1024;" xml:space="preserve">
<style type="text/css">
	.st0{display:none;}
	.st1{display:inline;}
	.st2{fill:#3C91E5;}
	.st3{fill:#070707;}
	.st4{display:inline;fill:#070707;}
	.st5{fill:#FFFFFF;}
	.st6{fill:#C1282E;}
	.st7{fill:#B4E85B;}
	.st8{fill:#8B6239;}
	.st9{fill:#FFDB43;}
	.st10{fill:#191919;}
	.st11{fill:#FF8327;}
	.st12{display:inline;fill:#1E1E1E;}
	.st13{fill:#CC50FF;}
	.st14{display:inline;fill:#CC50FF;}
	.st15{fill:#47F4F4;}
	.st16{display:inline;fill:#161616;}
	.st17{fill:#FF52C1;}
	.st18{fill:#3774EF;}
	.st19{fill:#97EF5E;}
	.st20{fill:#FF3636;}
	.st21{fill:#2EE1FF;}
	.st22{fill:#161616;}
	.st23{fill:#FFE131;}
	.st24{display:inline;fill:#2EE1FF;}
	.st25{display:inline;fill:#EF45EF;}
	.st26{display:inline;fill:#FFE631;}
	.st27{display:inline;fill:#191919;}
	.st28{fill:#FFE631;}
	.st29{fill:#FF4343;}
	.st30{fill:#353535;}
	.st31{fill:#8B79AD;}
	.st32{fill:#C29CEF;}
	.st33{fill:#FF9494;}
</style>
<g id="Layer_1">
</g>
<g id="baloon" class="st0">
	<g class="st1">
		<path class="st2" d="M731,263C686.6,114.5,547.5,74.5,415.1,107.7S198.7,246,243.1,394.5C286.4,539.6,507,654.7,571.5,646.2
			c-13.1,6.3-56.6,45.7-47,77.9c10.2,34.1,30.2-7.6,67.4-16.9c37.2-9.3,77.6,17.2,67.4-16.9c-9.4-31.6-63.9-45.9-82.2-45.3
			C627.9,628.9,774.9,410.1,731,263z"/>
		<path class="st3" d="M742.6,259.8c-13.3-44-36.6-85.3-71.5-115.7c-31.4-27.4-70-45.4-110.9-53.5c-43.4-8.6-88.1-7.1-131.4,1.7
			c-42.3,8.6-84,24.6-119.1,50.1c-33.8,24.7-60.6,57.1-76.1,96.2c-16.4,41.2-17.6,86.7-9.3,129.8c8.1,41.9,26,79.7,52,113.4
			c26.6,34.6,58.9,64.2,93.9,90.1c31.5,23.4,65.5,43.8,101.3,60.1c27.2,12.4,56.6,24.1,86.7,26.3c4.4,0.3,8.9,0.3,13.3-0.2
			c-2-7.5-4-14.9-6.1-22.4c-10.2,5.1-19.3,14-26.9,22.2c-10.7,11.6-20.4,25.2-25,40.5c-4.3,14.2-3.3,33.3,7.7,44.6
			c10.2,10.4,23.8,5.4,34.1-1.6c11.4-7.8,23.3-17.5,35.2-21.4c14.5-4.8,30.1-2.8,45.9-0.8c12.8,1.6,30.1,2.8,35.3-12.3
			c4.8-13.9-3.6-30.3-12.8-40.4c-11.1-12.3-26.9-20.2-42.3-25.7c-12.3-4.4-26.3-8.1-39.5-7.8c1.1,7.9,2.1,15.7,3.2,23.6
			c17.4-5.6,31.7-20.3,43.7-33.4c18.7-20.4,34.9-43.2,49.5-66.7c35.2-56.7,63.4-120.8,73.6-187.1C752.7,333,753.1,295.4,742.6,259.8
			c-4.4-14.8-27.5-8.5-23.1,6.4c2.1,7.1,3.8,14.3,5,21.6c0.3,1.9,0.6,3.9,0.9,5.8c-0.3-2.1,0.3,2.6,0.4,3.3
			c0.4,3.8,0.7,7.5,0.9,11.3c0.9,15.6,0.2,31.2-1.6,46.6c-0.1,1-0.3,2.1-0.4,3.1c-0.3,2.4,0.4-2.8-0.2,1.2c-0.3,1.9-0.6,3.8-0.9,5.6
			c-0.6,4-1.3,8-2.1,11.9c-1.6,8-3.4,16-5.5,23.9c-4.2,16-9.3,31.7-15.2,47.2c-5.8,15.2-11.5,28.3-18.9,43.5
			c-6.9,14.2-14.4,28.1-22.5,41.8c-7.4,12.6-15.3,24.9-23.7,36.9c-2,2.8-3.9,5.5-6,8.3c-0.9,1.3-1.9,2.5-2.8,3.8
			c-0.5,0.6-3.4,4.5-1.9,2.5c-3.8,4.9-7.6,9.6-11.6,14.3c-7.5,8.8-15.5,17.3-24.3,24.8c-0.9,0.7-1.7,1.4-2.6,2.1
			c-0.4,0.3-0.9,0.7-1.3,1c-1,0.8,2.5-1.8,0.4-0.4c-1.7,1.2-3.3,2.4-5,3.5c-1.6,1-3.2,1.9-4.9,2.8c-2.8,1.5-0.3-0.5,0.4-0.1
			c-0.1-0.1-2.2,0.8-2.4,0.9c-12.5,4-10.8,23.9,3.2,23.6c1.8,0,3.6,0,5.3,0.2c0.9,0.1,1.8,0.2,2.7,0.3c1.7,0.1-2.4-0.4-0.7-0.1
			c0.7,0.1,1.5,0.2,2.2,0.3c5.4,0.9,10.7,2.2,15.9,3.8c11.9,3.6,20.9,7.3,31.7,15.1c0.1,0,1.6,1.2,0.6,0.4c-1-0.8,0.8,0.6,1,0.8
			c1,0.8,2,1.7,2.9,2.6c1.1,1,2.1,2,3.1,3.1c0.5,0.5,0.9,1.1,1.4,1.6c-1.1-1.3-0.1-0.2,0.4,0.5c0.8,1.2,1.5,2.3,2.2,3.6
			c0.4,0.7,1.7,3.5,0.8,1.3c0.6,1.4,1,2.8,1.4,4.2c0.2,0.8,0.3,1.6,0.6,2.3c0.7,2.2,0.1-0.8,0.1,0.4c0,0.8-0.2,2.2,0.1,3
			c-0.3-1.2,0.4-2.5,0.1-1.1c-0.4,1.8,0.4-1,0.5-1.1c-0.6,1.1,3-2.5,1.9-1.9c-1.2,0.7-0.1-0.5,1.2-0.4c-0.5,0-1.1,0.4-1.6,0.4
			c-1.3,0.2,1.5-0.1,1.4-0.1c-0.5,0-1.1,0.1-1.6,0.1c-1.2,0-2.3,0-3.5,0c-2.7-0.1-5.4-0.4-8.1-0.7c-14.6-1.7-28.8-3.5-43.5-1.3
			c-14.5,2.2-27.8,9-39.7,17.3c-4.6,3.2-9,6.6-13.6,9.7c-1.8,1.2-3.7,2.3-5.6,3.4c-2.8,1.7,1.2-0.5-0.5,0.3
			c-1.9,0.9-2.2,0.3-0.2,0.3c-2.6,0.1,2.8,0.8,0.4,0.1c-1.2-0.4,1.7,0.8,1.5,0.7c-1.5-0.9,0.8,0.7,0.9,0.8c-1.9-2.3,0.5,1.6-0.4-0.3
			c-0.3-0.7-1.8-3.5-1.5-2.7c0.6,1.4-0.3-0.8-0.4-1.2c-0.2-0.6-0.4-1.2-0.6-1.7c-0.4-1.4-0.8-2.9-1-4.4c0.3,2.4,0-1.8,0-2.4
			c0-0.7,0.1-1.5,0.1-2.2c0-2.3-0.2,0.6,0-0.8c0.5-3.3,1.5-6.5,2.6-9.6c0.8-2.2,0.3-1,0.1-0.5c0.4-0.9,0.8-1.9,1.3-2.8
			c0.8-1.7,1.7-3.3,2.6-4.9c4-6.9,7.3-11.3,12.1-16.6c4.4-5,9.2-9.7,14.4-14c0.7-0.6,3.3-2.6,1.2-1c1-0.7,2-1.5,3-2.2
			c1.6-1.1,3.3-2.2,5.1-3.1c4.7-2.3,6.9-8.7,5.5-13.6c-1.3-4.6-6.4-9.5-11.6-8.8c-4.5,0.6-9.1,0.5-13.6,0.2
			c-1.2-0.1-2.3-0.2-3.5-0.3c-0.7-0.1-1.3-0.2-2-0.2c3.9,0.4,1.3,0.2,0.5,0c-3-0.5-6-1-8.9-1.6c-13.8-2.9-27.3-7.4-40.5-12.5
			c-3.4-1.3-6.8-2.7-10.2-4.1c2.6,1.1-0.6-0.3-0.9-0.4c-1-0.4-1.9-0.8-2.9-1.2c-2.3-1-4.5-2-6.8-3c-8.1-3.7-16.1-7.6-23.9-11.7
			c-17-8.9-33.6-18.7-49.6-29.2c-33.7-22.2-64.1-46.7-92.1-76.9c-13.9-15-24.6-28.3-35.6-45.3c-5.2-8-10-16.3-14.2-24.9
			c-1.9-3.8-3.7-7.7-5.4-11.7c-1.5-3.5,0.8,2.1-0.6-1.4c-0.4-1.1-0.9-2.2-1.3-3.2c-1-2.5-1.9-5-2.8-7.6c-7.2-21-11.8-43.2-13.3-64.4
			c-0.8-10.6-0.9-21.2-0.2-31.8c0.2-2.6,0.4-5.1,0.6-7.6c0.1-1.3,0.3-2.5,0.4-3.8c0.3-2.5,0.1-1.1,0.1-0.6
			c0.7-5.3,1.7-10.6,2.8-15.9c4.3-19.6,10.2-34.8,19.8-51.5c2.3-4.1,4.8-8.1,7.5-12c1.1-1.6,2.2-3.2,3.4-4.8c0.7-1,1.4-1.9,2.1-2.8
			c0.5-0.6,0.9-1.3,1.4-1.9c-0.7,0.9-0.6,0.8,0.3-0.4c5.9-7.4,12.3-14.4,19.2-21c28-26.8,64-45.6,101.5-57
			c40.2-12.2,80-17.2,122.2-13.9c10.7,0.8,17.1,1.7,27.8,3.8c9.7,1.9,19.2,4.3,28.6,7.2c4.6,1.5,9.3,3.1,13.8,4.8
			c5.1,2,6.4,2.5,11.6,5c8.8,4.1,17.3,8.8,25.5,14c4.1,2.6,8.1,5.4,12,8.3c2.1,1.6,1.8,1.3,4.3,3.4c1.9,1.5,3.8,3.1,5.6,4.7
			c7.5,6.6,14.6,13.7,21.1,21.3c6.5,7.6,11.6,14.5,17.3,23.6c5.8,9.3,11,18.9,15.5,28.9c4.4,9.6,8.2,20.6,11.5,31.4
			C723.9,280.9,747,274.7,742.6,259.8z"/>
	</g>
	<path class="st4" d="M554,636.1c-9.4,5.1-18.1,11.5-26.5,18c-17,13.2-32.3,28.7-43.8,46.9c-14.1,22.3-20.8,48.2-17.1,74.5
		c4.1,29.1,19.5,55.3,40.4,75.6c8.8,8.6,18.5,16.5,26.5,25.9c0.4,0.5,0.9,1,1.3,1.6c2.2,2.5-1.3-1.9,0.6,0.8
		c0.8,1.1,1.6,2.2,2.4,3.4c1.9,2.8,3.5,5.7,5,8.8c0.2,0.5,0.5,1,0.7,1.5c1.5,3.3-0.8-2.2,0.5,1.3c0.6,1.7,1.2,3.3,1.7,5
		c1.2,3.9,2.1,7.8,2.7,11.9c1.1,6.4,9,10,14.8,8.4c6.8-1.9,9.5-8.3,8.4-14.8c-2.1-12.6-6.7-24.9-14-35.4
		c-6.5-9.4-14.5-17.4-22.9-25.1c-8.3-7.6-16.6-15.3-23.6-24.1c-1.5-1.9-0.6-0.8-0.3-0.4c-0.5-0.6-1-1.3-1.4-1.9
		c-1-1.3-1.9-2.7-2.8-4.1c-1.9-2.9-3.7-5.9-5.3-8.9c-3.4-6.5-5.8-12.4-8-19.7c-1-3.2-1.9-6.5-2.5-9.9c-0.9-4.4-0.8-4.2-1.1-8.3
		c-0.2-2.9-0.3-5.9-0.2-8.8c0-1.3,0.1-2.7,0.2-4c0-0.6,0.6-5.4,0.2-3c0.8-5.8,2.3-11.6,4.2-17.2c0.4-1.2,0.9-2.4,1.3-3.6
		c1-2.6-0.2,0.2,0.7-1.6c1.3-2.8,2.6-5.5,4-8.2c2.6-4.8,5.6-9.5,8.8-13.9c0.8-1.1,1.6-2.3,2.5-3.4c-1.4,1.8,0.6-0.7,1-1.2
		c1.8-2.2,3.7-4.4,5.7-6.6c6.5-7.3,13.7-14,21.2-20.2c1-0.8,2-1.6,3-2.4c0.4-0.3,0.9-0.7,1.3-1c1.2-0.9-2,1.5-0.2,0.2
		c1.8-1.3,3.6-2.7,5.4-4c2.9-2.1,5.9-4.1,9-6.1c2.8-1.8,5.6-3.5,8.5-5.1C579.7,649.5,567.6,628.8,554,636.1L554,636.1z"/>
	<g class="st1">
		<path class="st5" d="M581.4,252.7c25.8,19,31.5,63.9,66.2,44c22.1-12.7,22-76.7-13.8-107.1c-30.3-25.8-78-29.7-93-1.8
			C521,224.6,555.6,233.6,581.4,252.7z"/>
		<path class="st3" d="M575.3,263c-1.5-1.1,2.2,2,2.7,2.5c1.1,1,2.1,2.1,3.1,3.2c1.1,1.3,2.2,2.5,3.3,3.9c0.3,0.4,1.8,2.3,0.6,0.7
			c0.7,0.9,1.3,1.8,2,2.7c3.8,5.3,7.3,10.9,11.3,16.1c8.4,11.3,19.2,22.1,34.4,21.5c14.2-0.5,28.1-8.8,34.5-21.5
			c6.4-12.5,8.2-27.3,7.2-41.2c-2.4-34.3-19.7-66.1-50.6-82.5c-28.4-15.1-73.2-20-92.6,11.9c-10.4,17.2-11.5,37.4,2.1,52.9
			C544.7,246,561.7,253.1,575.3,263c5.2,3.8,13.4,0.9,16.4-4.3c3.6-6.1,0.9-12.6-4.3-16.4c-5.6-4.1-11.5-7.7-17.4-11.4
			c-2.6-1.6-5.1-3.2-7.7-4.9c-1.3-0.9-2.6-1.7-3.8-2.6c-0.6-0.4-1.2-0.9-1.8-1.3c1.3,1,0,0-0.6-0.5c-2-1.7-3.8-3.5-5.7-5.4
			c-1.5-1.5-0.3-0.3,0,0.1c-0.4-0.5-0.8-1.1-1.1-1.6c-0.5-0.9-2.1-4.8-1.4-2.3c-0.3-1.1-0.6-2.2-0.9-3.3c-0.5-1.7,0.1,2,0,0.2
			c0-0.7-0.1-1.4-0.1-2.1c0-0.7,0.1-1.5,0.1-2.2c0.1-1.9-0.4,1.7,0.1-0.2c0.5-1.9,0.9-3.7,1.5-5.6c0.8-2.3,2.3-5.2,3.9-7.8
			c0.2-0.3,1.5-2.1,0.7-1c-0.8,1.1,0.6-0.7,0.8-0.9c1.1-1.2,2.3-2.3,3.6-3.4c-1.7,1.4,1.6-1,2.1-1.2c1.3-0.7,2.6-1.4,3.9-2
			c-2.1,0.9,2-0.6,2.5-0.7c1.5-0.4,3-0.8,4.5-1.1c0.8-0.1,1.6-0.3,2.3-0.4c-2,0.3,0.1,0,0.4,0c1.6-0.1,3.3-0.2,4.9-0.2
			c1.7,0,3.4,0,5.1,0.2c1.8,0.1,3.8,0.4,3.9,0.4c6.4,1.1,14.3,3.3,19.3,5.6c6.6,3,13.5,7.1,18.6,11.4c2.4,2,4.7,4.3,6.8,6.6
			c0.7,0.8,2.5,3,2.7,3.1c0.3,0.4,1.9,2.7,2.7,3.9c7,10.8,10.7,21.4,12.7,34.9c-0.3-2,0.2,1.9,0.3,2.6c0.1,1.5,0.2,3.1,0.3,4.6
			c0.1,3.1,0.1,6.3-0.1,9.4c-0.1,1.4-0.2,2.8-0.4,4.2c-0.2,1.4,0.1-0.5,0.1-0.6c-0.1,0.7-0.2,1.3-0.3,2c-0.5,2.7-1.2,5.3-2,7.9
			c-0.1,0.4-1.5,3.9-0.8,2.3c0.7-1.6-0.9,1.6-1.1,2c-0.5,0.8-1.1,1.6-1.5,2.4c-0.8,1.7,0.2-0.2,0.5-0.6c-0.5,0.6-1,1.1-1.5,1.7
			c-0.9,1-3,2-0.3,0.5c-0.8,0.4-1.5,1-2.3,1.5c-0.8,0.4-1.6,0.8-2.4,1.2c-1.9,0.9,1.3-0.5-0.5,0.3c-1.5,0.6-3.1,1-4.7,1.4
			c-0.7,0.2-2.2,0.1,0.3,0c-0.8,0-1.5,0-2.3,0.1c-0.4,0-2.4-0.2-0.6,0c1.9,0.2-0.5-0.2-0.9-0.3c-0.5-0.1-1.1-0.4-1.6-0.5
			c1.3,0.4,1.6,0.9,0.2,0c-1.1-0.7-2.2-1.3-3.3-2.1c2.4,1.7-0.7-0.7-1.3-1.4c-1-1-2-2.1-2.9-3.1c-0.4-0.5-0.8-1-1.3-1.5
			c-2.1-2.5,1.3,1.9-0.6-0.8c-0.8-1.1-1.7-2.3-2.5-3.4c-8.8-12.5-16.8-25-29.1-34.3c-5.2-3.9-13.4-0.8-16.4,4.3
			C567.4,252.8,570.1,259.1,575.3,263z"/>
	</g>
</g>
<g id="apple" class="st0">
	<g class="st1">
		<path class="st6" d="M832,559.5c0,131.3-85.6,243.4-206.2,287.9c-35.9,13.3-75-13.4-115.8-13.4c-40.3,0-78.8,26.9-114.3,14
			C274.3,803.8,188,691.3,188,559.5c0-108.6,37.1-218.3,133-259C374,278,445.5,316,510,316c66.7,0,134-41,196-12
			C798.4,347.2,832,453,832,559.5z"/>
		<path class="st3" d="M820,559.5c-0.1,60.4-19.2,118.7-54.6,168.2c-34,47.5-84,85.6-138.7,106.7c-7.7,3-14.5,4.8-22.3,4.8
			c-8.2,0-15.6-1.2-23.6-3.1c-17.1-3.9-33.7-9.7-51.1-12.3c-19.5-2.9-38.1-1-57.1,3.8c-15.9,4-32.5,10.2-48.5,11.6
			c-8.2,0.7-15.4,0.4-22.9-2c-7.3-2.3-14.1-5.2-20.6-8.1c-13.8-6.2-27.2-13.3-40.1-21.3c-25.3-15.8-47.7-34.8-67.8-57.5
			c-38.8-43.9-64.7-100.8-70.9-158.8c-3.3-30.9-1.9-63.9,2.5-93.7c4.5-30,12.6-61,25-87.7c12.5-26.9,28.4-50.1,50.4-69.6
			c20.8-18.4,48.1-34.1,76-35c34.1-1,67.6,9.9,101,16.4c18.1,3.5,36.5,6.3,55,6.2c18.6-0.2,37.2-3.3,55.3-7.2
			c34.4-7.2,70.2-19.1,105.7-14.3c30.1,4.1,57.4,22.6,77.9,43.2c41.9,42.1,61.1,103.4,67,161.8C819.2,527.5,820,543.5,820,559.5
			c0,15.4,24,15.5,24,0c-0.1-65.4-11.7-134.4-47.5-190.4c-17.1-26.7-39.7-49.7-66.9-66.1c-15.6-9.4-32.4-16.8-50.5-19.6
			c-19.3-2.9-38.4-1.7-57.6,1.4C584.3,290.8,548,304,510,304c-36.3,0-71.4-11.5-106.8-17.9c-17.5-3.2-35.5-5.7-53.3-4.3
			c-17.4,1.4-32.9,6.7-48.3,14.7c-28.2,14.7-51.9,36.6-70.4,62.4c-38.3,53.2-52.9,121.3-54.9,185.8c-2.1,65.2,14.4,129.5,50.2,184.4
			c35,53.5,85.8,96.4,144.5,121.9c16.7,7.3,33,13.7,51.5,12.4c18.5-1.3,36.2-7.3,54-12c17.2-4.5,34-6.8,51.7-3.6
			c18.2,3.3,35.7,9.8,54,13.1c18.4,3.4,35.5,2.7,53-4.1c15.3-6,30.3-13,44.6-21.1c27.8-15.8,53.6-35.7,75.8-58.8
			c44.1-45.9,74.7-105,84.5-168c2.6-16.3,4-32.8,4-49.3C844,544.1,820,544,820,559.5z"/>
	</g>
	<g class="st1">
		<path class="st5" d="M656.4,454.7c25.8,19,31.5,63.9,66.2,44c22.1-12.7,22-76.7-13.8-107.1c-30.3-25.8-78-29.7-93-1.8
			C596,426.6,630.6,435.6,656.4,454.7z"/>
		<path class="st3" d="M650.3,465c-1.5-1.1,2.2,2,2.7,2.5c1.1,1,2.1,2.1,3.1,3.2c1.1,1.3,2.2,2.5,3.3,3.9c0.3,0.4,1.8,2.3,0.6,0.7
			c0.7,0.9,1.3,1.8,2,2.7c3.8,5.3,7.3,10.9,11.3,16.1c8.4,11.3,19.2,22.1,34.4,21.5c14.2-0.5,28.1-8.8,34.5-21.5
			c6.4-12.5,8.2-27.3,7.2-41.2c-2.4-34.3-19.7-66.1-50.6-82.5c-28.4-15.1-73.2-20-92.6,11.9c-10.4,17.2-11.5,37.4,2.1,52.9
			C619.7,448,636.7,455.1,650.3,465c5.2,3.8,13.4,0.9,16.4-4.3c3.6-6.1,0.9-12.6-4.3-16.4c-5.6-4.1-11.5-7.7-17.4-11.4
			c-2.6-1.6-5.1-3.2-7.7-4.9c-1.3-0.9-2.6-1.7-3.8-2.6c-0.6-0.4-1.2-0.9-1.8-1.3c1.3,1,0,0-0.6-0.5c-2-1.7-3.8-3.5-5.7-5.4
			c-1.5-1.5-0.3-0.3,0,0.1c-0.4-0.5-0.8-1.1-1.1-1.6c-0.5-0.9-2.1-4.8-1.4-2.3c-0.3-1.1-0.6-2.2-0.9-3.3c-0.5-1.7,0.1,2,0,0.2
			c0-0.7-0.1-1.4-0.1-2.1c0-0.7,0.1-1.5,0.1-2.2c0.1-1.9-0.4,1.7,0.1-0.2c0.5-1.9,0.9-3.7,1.5-5.6c0.8-2.3,2.3-5.2,3.9-7.8
			c0.2-0.3,1.5-2.1,0.7-1c-0.8,1.1,0.6-0.7,0.8-0.9c1.1-1.2,2.3-2.3,3.6-3.4c-1.7,1.4,1.6-1,2.1-1.2c1.3-0.7,2.6-1.4,3.9-2
			c-2.1,0.9,2-0.6,2.5-0.7c1.5-0.4,3-0.8,4.5-1.1c0.8-0.1,1.6-0.3,2.3-0.4c-2,0.3,0.1,0,0.4,0c1.6-0.1,3.3-0.2,4.9-0.2
			c1.7,0,3.4,0,5.1,0.2c1.8,0.1,3.8,0.4,3.9,0.4c6.4,1.1,14.3,3.3,19.3,5.6c6.6,3,13.5,7.1,18.6,11.4c2.4,2,4.7,4.3,6.8,6.6
			c0.7,0.8,2.5,3,2.7,3.1c0.3,0.4,1.9,2.7,2.7,3.9c7,10.8,10.7,21.4,12.7,34.9c-0.3-2,0.2,1.9,0.3,2.6c0.1,1.5,0.2,3.1,0.3,4.6
			c0.1,3.1,0.1,6.3-0.1,9.4c-0.1,1.4-0.2,2.8-0.4,4.2c-0.2,1.4,0.1-0.5,0.1-0.6c-0.1,0.7-0.2,1.3-0.3,2c-0.5,2.7-1.2,5.3-2,7.9
			c-0.1,0.4-1.5,3.9-0.8,2.3c0.7-1.6-0.9,1.6-1.1,2c-0.5,0.8-1.1,1.6-1.5,2.4c-0.8,1.7,0.2-0.2,0.5-0.6c-0.5,0.6-1,1.1-1.5,1.7
			c-0.9,1-3,2-0.3,0.5c-0.8,0.4-1.5,1-2.3,1.5c-0.8,0.4-1.6,0.8-2.4,1.2c-1.9,0.9,1.3-0.5-0.5,0.3c-1.5,0.6-3.1,1-4.7,1.4
			c-0.7,0.2-2.2,0.1,0.3,0c-0.8,0-1.5,0-2.3,0.1c-0.4,0-2.4-0.2-0.6,0c1.9,0.2-0.5-0.2-0.9-0.3c-0.5-0.1-1.1-0.4-1.6-0.5
			c1.3,0.4,1.6,0.9,0.2,0c-1.1-0.7-2.2-1.3-3.3-2.1c2.4,1.7-0.7-0.7-1.3-1.4c-1-1-2-2.1-2.9-3.1c-0.4-0.5-0.8-1-1.3-1.5
			c-2.1-2.5,1.3,1.9-0.6-0.8c-0.8-1.1-1.7-2.3-2.5-3.4c-8.8-12.5-16.8-25-29.1-34.3c-5.2-3.9-13.4-0.8-16.4,4.3
			C642.4,454.8,645.1,461.1,650.3,465z"/>
	</g>
	<g class="st1">
		<path class="st7" d="M502.9,183.3c48.9,44.3,48.7,82.5,25.1,108.5c-23.6,26-61.6,29.9-110.4-14.4S351,131.2,351,131.2
			S454,138.9,502.9,183.3z"/>
		<path class="st3" d="M494.4,191.8c7.3,6.7,14.5,13.8,20.5,21.7c2.6,3.4,5,6.9,7.1,10.6c0.9,1.6,1.9,3.2,2.7,4.9
			c0.4,0.8,0.8,1.6,1.2,2.4c0.1,0.3,1.6,3.5,0.9,1.9c1.3,3,2.3,6.1,3.1,9.3c0.4,1.5,0.6,3,1,4.5c0.5,2.3,0.1,0.7,0.1,0.1
			c0.1,1.1,0.2,2.2,0.3,3.3c0.2,2.8,0,5.6-0.1,8.4c-0.1,2.3,0,0.4,0.1-0.1c-0.1,0.8-0.3,1.7-0.5,2.5c-0.3,1.5-0.7,3-1.1,4.4
			c-0.4,1.3-0.9,2.6-1.3,3.8c-1.1,3,0.7-1.4-0.2,0.4c-0.3,0.6-0.6,1.2-0.9,1.8c-1.4,2.7-3,5.3-4.8,7.9c-1.6,2.3,0.5-0.4-1.3,1.7
			c-1,1.2-2.1,2.4-3.2,3.5c-1,1-2,2-3,2.9c-0.5,0.5-1,0.9-1.6,1.4c-0.4,0.4-2.8,2.2-0.8,0.7c-2.2,1.6-4.4,3.1-6.8,4.4
			c-1.2,0.6-2.4,1.2-3.6,1.8c2.3-1.1-2,0.7-2.8,1c-2.6,0.8-5.3,1.5-8,1.9c2.7-0.4-1.9,0.1-2.6,0.1c-1.6,0.1-3.3,0.1-4.9,0
			c-1.5-0.1-3-0.2-4.5-0.4c2.2,0.3-2.6-0.5-3.2-0.6c-3.7-0.8-7.4-1.9-11-3.3c-6.5-2.4-14.9-7.2-21.6-11.8c-7.5-5.1-14.6-11-21-17.3
			c-2.3-2.2-4.4-4.6-6.5-7c-1.2-1.4-2.3-2.8-3.5-4.2c-1.3-1.6,0.9,1.2-0.4-0.5c-0.6-0.8-1.2-1.6-1.8-2.5
			c-17-23.4-26.9-47.9-35.4-74.6c-5.1-16-9.6-32.4-12.5-48.9c-3.9,5.1-7.7,10.1-11.6,15.2c3.4,0.3,6.9,0.7,10.3,1.1
			c1.6,0.2,3.3,0.4,4.9,0.6c-3.8-0.5-0.4-0.1,0.5,0.1c1.2,0.2,2.4,0.3,3.6,0.5c5.1,0.8,10.2,1.6,15.2,2.5
			c11.9,2.2,23.8,4.9,35.5,8.2c6.4,1.8,12.8,3.8,19.1,6c6.6,2.3,12.7,4.7,17.8,7c6.9,3.1,13.6,6.6,20,10.5
			C485,184,489.1,187,494.4,191.8c4.8,4.3,12.2,4.8,17,0c4.4-4.4,4.8-12.6,0-17c-21.7-19.5-49.2-31.3-76.8-39.6
			c-22.8-6.9-46.2-11.4-69.8-14.4c-4.6-0.6-9.2-1.2-13.8-1.5c-8.4-0.6-12.8,8.1-11.6,15.2c2.7,15.5,6.8,30.8,11.5,45.8
			c9,29.2,20.8,58.6,38.9,83.5c11.4,15.7,25.2,28.6,41.1,39.6c15.1,10.4,32.4,18.2,50.8,19.7c28.7,2.3,56.4-16.2,67.9-42.2
			c17.6-40.2-9.2-79.4-38.2-105.9c-4.8-4.4-12.2-4.7-17,0C490,179.2,489.6,187.4,494.4,191.8z"/>
	</g>
	<g class="st1">
		<path class="st8" d="M619,157c0,0-21-19-33,0s-59,154-59,154s58.4-67.4,72-81C656,173,619,157,619,157z"/>
		<path class="st3" d="M627.5,148.5c-5.5-4.9-12.5-9.2-19.7-10.9c-13.2-3.2-25.5,2.4-32.5,13.9c-6.2,10.3-10.3,22.2-14.7,33.3
			c-12.9,32.4-24.7,65.2-36.4,98.1c-3,8.3-5.9,16.6-8.8,24.9c-3.9,11.1,12.3,20.6,20.1,11.7c18.5-21.4,37.1-42.7,56-63.7
			c12.6-14,26.6-27,37.5-42.5c9.3-13.1,17.7-31.1,12.1-47.4c-2.6-7.7-8.4-15.8-16.1-19.2c-5.9-2.6-12.9-1.7-16.4,4.3
			c-3,5.1-1.7,13.8,4.3,16.4c0.3,0.1,0.7,0.3,1,0.5c0.3,0.2,0.7,0.5,1.1,0.6c0.2,0.1,0.4,0.3,0.6,0.4c1.8,1-2.3-2.2-1.3-1
			c0.8,0.9,1.9,1.9,2.8,2.7c1.7,1.6-1.6-2.9-0.1-0.1c0.2,0.5,1.7,2.4,1.5,2.9c-0.1,0.3-1.1-3.5-0.5-1c0.1,0.4,0.3,0.8,0.4,1.3
			c0.1,0.4,0.2,0.9,0.3,1.3c0.6,2.2,0.4-0.3-0.1-0.9c0.5,0.6,0.1,3,0.1,3.8c0,0.7-0.1,1.4-0.2,2.1c0.1-3.8,0-0.5-0.2,0.5
			c-0.4,1.6-0.8,3.3-1.4,4.9c-0.3,0.9-0.6,1.7-1,2.6c0.2-0.4,1.1-2.2,0-0.1c-2.3,4.6-4.9,9.1-7.9,13.4
			c-9.3,13.3-22.1,24.7-33.1,36.9c-11.5,12.8-22.9,25.8-34.3,38.7c-7.5,8.5-14.9,17.1-22.4,25.7c6.7,3.9,13.4,7.8,20.1,11.7
			c7-20.2,14.2-40.3,21.5-60.4c5.8-16,11.7-31.9,17.8-47.8c2.8-7.3,5.6-14.5,8.6-21.8c0.6-1.5,1.3-3,1.9-4.5
			c0.8-1.9-0.2,0.5-0.3,0.7c0.3-0.7,0.6-1.4,0.9-2.1c1.1-2.6,2.3-5.2,3.5-7.8c1-2,1.9-4.1,3.1-6.1c0.5-1,1.1-1.9,1.7-2.8
			c-0.7,0.9,2-1.4,0.3-0.3c0.6-0.4,1.3-0.8,2-1.1c-1.2,0.5-1.1,0.6,0.2,0.2c-0.4,0-0.8,0.1-1.1,0.1c0.7-0.1,1.4-0.1,2,0
			c1.4,0.1,1.4,0.1-0.2-0.1c0.7,0.1,1.3,0.3,2,0.5c0.4,0.1,3.5,1.3,0.9,0.2c1.1,0.5,2.2,1.1,3.3,1.7c0.3,0.2,4.5,2.8,4.4,2.9
			c-0.1,0.1-2.5-2.1-0.4-0.3c4.8,4.3,12.2,4.8,17,0C631.9,161.1,632.3,152.9,627.5,148.5z"/>
	</g>
</g>
<g id="yellow_x5F_duck" class="st0">
	<g class="st1">
		<path class="st9" d="M806,446c-30-16-18,20-58,42s-117.3-2.6-150-8c-8.2-1.4-15.8-2.7-23.1-4c20.3-30.3,32.1-66.8,32.1-106
			c0-105.5-85.5-191-191-191c-94.3,0-172.6,68.3-188.2,158.1c0.1-0.1,0.2-0.1,0.2-0.1s-6,16,46,76c26.7,30.8-17.8,61.7-17.8,61.7
			c17.4,26.5,41.2,48.4,69.2,63.5C288,575.8,269,619.7,265,640c-12,61-23.9,144.6,82,187c20,8,454-2,454-2s68.5-52,83-125
			C907,584,896.8,494.4,806,446z"/>
		<path class="st10" d="M812.1,435.6c-7.4-3.9-15.9-7.1-24.3-4.8c-7,1.9-11.8,7.2-15.6,13.1c-3.7,5.7-6.7,11.9-10.8,17.4
			c-0.2,0.2-1.4,1.7-0.2,0.3c-0.8,0.9-1.5,1.9-2.4,2.8c-1.4,1.6-2.9,3.1-4.5,4.6c-3.6,3.4-7.5,6.1-12.2,8.6
			c-0.7,0.4-5.1,2.4-3.3,1.7c-1.8,0.7-3.6,1.4-5.5,1.9c-4.3,1.3-8.7,2.3-13.1,2.9c1.9-0.3-0.8,0.1-1.2,0.1c-1.1,0.1-2.1,0.2-3.2,0.3
			c-2.2,0.2-4.4,0.3-6.6,0.3c-5,0.2-10,0.1-15-0.2c-19-1-36.5-4.4-55.6-8.4c-20.1-4.3-40.1-8.3-60.3-11.9c2.4,5.9,4.8,11.8,7.2,17.6
			c29.8-45.1,40.2-100.8,29.4-153.7c-8.8-43-32.4-83-65.7-111.7c-34.8-29.9-78.7-47.5-124.6-49.5c-45.7-2-92,12-128.7,39.3
			c-41.4,30.9-70.5,76.4-79.5,127.4c-0.9,4.8,0.2,9.5,4.3,12.6c3.6,2.7,9.4,3.7,13.3,0.9c0.1,0,0.1-0.1,0.2-0.1
			c-5.9-4.5-11.8-9-17.6-13.6c-1.3,3.5-0.5,8.3,0.2,11.8c1.6,8.1,5.6,15.9,9.6,23.1c8.5,15,19.3,28.8,30.2,42.1
			c3.1,3.8,7.5,8.4,9.9,11.7c1,1.4,1.9,2.9,2.7,4.5c1.7,3.3-0.4-1.8,0.6,1.6c0.3,1.1,0.6,2.2,0.8,3.3c-0.5-2.3,0.1,1.9,0.1,2.8
			c0,0.9-0.1,1.8-0.2,2.6c0.1-0.6,0.5-2.2-0.1-0.1c-0.5,1.7-0.9,3.3-1.5,5c-0.2,0.5-0.9,2,0,0c-0.4,0.9-0.9,1.9-1.4,2.8
			c-0.9,1.7-1.9,3.3-3,4.8c-0.5,0.7-1,1.4-1.5,2.1c1.6-2.2-0.3,0.4-0.6,0.7c-2.2,2.5-4.4,4.9-6.8,7.1c-1.8,1.7-3.6,3.1-5.5,4.7
			c-1.3,1.1,2.7-2,0.6-0.5c-0.2,0.2-0.4,0.3-0.7,0.5c-5.1,3.5-8.1,10.7-4.3,16.4c18.7,28.2,43.8,51.6,73.5,67.8
			c-0.8-6.3-1.6-12.6-2.4-18.8c-24.2,24.5-43.8,53.6-56.7,85.5c-8,19.9-11.1,41.8-13.4,63c-2.5,22.6-2.1,46,4.1,68
			c7.1,25.1,22,47.3,42.2,63.6c12.7,10.2,26.7,18.5,41.7,25c6.2,2.7,10.2,4.3,16.6,5.1c8.6,1,17.4,1.2,26.1,1.5
			c33.3,1,66.6,0.8,99.9,0.6c43.5-0.2,87-0.7,130.5-1.4c39.9-0.6,79.7-1.3,119.6-2.1c22.9-0.5,45.9-0.9,68.8-1.4c1.5,0,3,0,4.5-0.1
			c5.4-0.3,8.8-3.5,12.6-6.7c15.1-12.6,28.8-27.1,40.8-42.6c19-24.5,34.6-52.4,41-83c6.6-31.8,11.1-64.6,11.2-97.1
			c0.1-55-15.5-110.3-58.4-147.3C837,450.7,824.9,442.5,812.1,435.6c-13.6-7.3-25.7,13.4-12.1,20.7c14.1,7.6,25.6,15.4,36.6,25.8
			c5.1,4.8,9.8,9.9,14.1,15.4c1.2,1.6-0.9-1.2,0.3,0.4c0.6,0.8,1.2,1.6,1.7,2.3c0.9,1.3,1.8,2.5,2.7,3.8c2,2.9,3.8,5.8,5.5,8.9
			c1.7,3,3.4,6.1,4.9,9.2c0.7,1.4,1.3,2.8,2,4.2c0.3,0.7,0.6,1.4,0.9,2.1c-0.9-2,0.6,1.4,0.6,1.5c2.6,6.4,4.7,13,6.5,19.7
			c1.9,7.1,3.3,14.3,4.4,21.6c0.4,2.5,0.1,0.5,0.4,3c0.2,1.9,0.4,3.8,0.6,5.7c0.4,3.9,0.7,7.7,0.9,11.6c1.8,34.1-2.4,67.5-8.7,100.5
			c-3.2,16.8-8.3,32.3-16,47c-3.7,7-7.8,13.8-12.2,20.4c-2.2,3.2-4.4,6.4-6.7,9.5c-2.3,3.1-3,4-5.7,7.3
			c-8.5,10.4-17.7,20.2-27.5,29.2c-2.9,2.7-5.9,5.3-8.9,7.8c-1.3,1.1-6.4,5-1.4,1.2c2-0.5,4-1.1,6.1-1.6
			c-27.8,0.6-55.6,1.2-83.4,1.7c-58.4,1.1-116.9,2.1-175.3,2.7c-52.3,0.6-104.6,1.3-156.9,0.1c-7.7-0.2-15.3-0.4-23-0.8
			c-2.7-0.2-5.4-0.3-8.1-0.6c-1-0.1-2-0.2-2.9-0.3c4,0.3,2.4,0.7,0.6,0c-14.8-5.4-29.2-13.2-41.6-22.9c-13-10.1-23.3-22.4-30.9-38.4
			c-0.3-0.6-0.6-1.3-0.9-1.9c-1.5-3.2,0.8,2.2-0.4-1c-0.7-1.8-1.4-3.6-2-5.4c-1.3-3.8-2.4-7.6-3.3-11.4c-0.9-3.7-1.5-7.4-2.1-11.1
			c-0.5-3.4,0.2,2.5-0.1-0.9c-0.1-1-0.2-2-0.3-3.1c-0.2-2-0.4-4.1-0.5-6.1c-0.5-7.8-0.4-15.6,0.1-23.4c0.2-3.7,0.5-7.4,0.9-11.1
			c0.2-1.7,0.4-3.3,0.6-5c0.1-1,0.2-2,0.4-3c-0.4,3.2,0.2-1.2,0.3-1.7c2-13.7,4.1-27.7,8.7-40.7c6.3-17.8,17.1-37,29.3-54
			c7.2-10,15.3-19.4,24-28.2c5.3-5.4,4.4-15.1-2.4-18.8c-26.1-14.2-48.5-34.4-64.9-59.2c-1.4,5.5-2.9,10.9-4.3,16.4
			c21.7-15.2,40.5-42.3,28-69.1c-4.7-10.1-13.8-18.2-20.7-26.8c-5.5-6.9-10.8-14-15.7-21.3c-3.5-5.3-6.8-10.7-9.7-16.3
			c-0.5-1.1-1.1-2.1-1.6-3.2c-0.2-0.4-0.4-0.8-0.5-1.2c-1-2.1,0.8,2.3,0.4,0.9c-0.5-1.7-1.3-3.3-1.8-5.1c-0.4-1.3-0.6-2.6-1-4
			c-0.6-2.3,0,3.8,0.1,0.3c0.1-3.4-1,3.1-0.2,1c3.4-9.5-9.2-19.5-17.6-13.6c-0.1,0-0.1,0.1-0.2,0.1c5.9,4.5,11.8,9,17.6,13.6
			c7.3-41.1,27.3-77.2,58.5-104.8c29.8-26.4,69.6-42.5,109.5-44.3c41.4-1.8,81,10,114.7,34.6c14,10.2,29.6,26.1,39.7,40.3
			c11.9,16.8,20.2,33.9,25.8,52.9c7.1,24.2,9.2,48,6.1,73.5c-3.4,27.7-13.7,54.2-29.1,77.4c-4,6.1-0.3,16.3,7.2,17.6
			c17.7,3.2,35.3,6.4,52.8,10.3c19.3,4.2,38.6,8,58.3,10c18.7,1.9,38.5,2.2,56.7-3.4c19.1-5.9,34.8-18.8,45.6-35.5
			c1.9-3,3.6-6,5.4-9c0.8-1.4,1.6-2.8,2.5-4.2c0.4-0.6,0.8-1.2,1.3-1.8c-0.8,1.2-1.5,1.7-0.2,0.3c0.4-0.4,1-0.8,1.4-1.3
			c-0.7,0.8-2.2,1.6-0.4,0.5c-2.6,1.5-2,0.8-0.9,0.5c2.7-0.7-2.7,0.4-0.4,0.1c0.5-0.1,0.9,0.1,1.4,0.1c-3.6-0.1-0.3,0.2,0.8,0.4
			c0.6,0.2,1.2,0.4,1.8,0.6c-2.6-1,1.8,0.9,2.2,1.2c5.7,3,13,1.5,16.4-4.3C819.5,446.7,817.8,438.6,812.1,435.6z"/>
	</g>
	<g class="st1">
		<path class="st11" d="M179,424c0,0-36-15-48-42s-4-43,10-45s27,10,46,9c31.5-1.7,41-9,41-9s-6,16,46,76
			c26.7,30.8-17.8,61.7-17.8,61.7S238,470,211,465s-52-7-52-18C159,433.4,179,424,179,424z"/>
		<path class="st10" d="M182.2,412.4c5.6,2.3,2,0.9,0.7,0.2c-1.8-0.8-3.6-1.7-5.3-2.7c-5.5-2.9-10.8-6.2-15.8-9.9
			c-0.2-0.1-1.8-1.3-0.4-0.3c-0.6-0.5-1.3-1-1.9-1.5c-1.4-1.2-2.9-2.4-4.2-3.7c-3-2.7-5.9-5.7-8.3-8.9c-3.8-5.1-7.9-14.4-9.4-22.1
			c-0.4-2.2-0.4-1.9-0.4-4.3c0-0.8,0.3-5,0-2.7c0.1-0.7,0.3-1.4,0.4-2.1c0,0,1-3.2,0.3-1.5c-0.6,1.7,0.6-1.1,0.6-1.2
			c0.4-0.8,2.2-2.4,0.2-0.5c0.9-0.8,3.2-2.2,0.9-1c0.2-0.1,1.3-0.6,1.5-0.9c1.5-1.7-1.1,0.3,0,0c2-0.5,4.4-0.6,6.5-0.1
			c8.1,1.9,15.6,5.6,23.7,7.3c10.9,2.4,21.6,1.4,32.5-0.1c9.5-1.3,22.2-2.9,30.2-9c-5.9-4.5-11.8-9-17.6-13.6
			c-1.3,3.5-0.5,8.3,0.2,11.8c1.6,8.1,5.6,15.9,9.6,23.1c8.5,15,19.3,28.8,30.2,42.1c3.1,3.8,7.5,8.4,9.9,11.7
			c1,1.4,1.9,2.9,2.7,4.5c1.7,3.3-0.4-1.8,0.6,1.6c0.3,1.1,0.6,2.2,0.8,3.3c-0.5-2.3,0.1,1.9,0.1,2.8c0,0.9-0.1,1.8-0.2,2.6
			c0.1-0.6,0.5-2.2-0.1-0.1c-0.5,1.7-0.9,3.3-1.5,5c-0.2,0.5-0.9,2,0,0c-0.4,0.9-0.9,1.9-1.4,2.8c-0.9,1.7-1.9,3.3-3,4.8
			c-0.5,0.7-1,1.4-1.5,2.1c1.6-2.2-0.3,0.4-0.6,0.7c-2.2,2.5-4.4,4.9-6.8,7.1c-1.8,1.7-3.6,3.1-5.5,4.7c-1.2,1,2.8-1.5,0.6-0.5
			c-0.2,0.1-0.5,0.3-0.7,0.5c3.1-0.4,6.2-0.8,9.2-1.2c-23.5-6-47.4-9.7-71.2-14.2c-3.4-0.6-6.8-1.3-10.1-2.2
			c-1.5-0.4-2.9-0.8-4.3-1.3c-0.6-0.2-4.1-1.8-1.8-0.6c-0.6-0.3-1.2-0.6-1.7-0.9c-1.1-0.8-1.1-0.6,0.3,0.4c-0.3,0.5-2.4-3.9-0.1,0.1
			c0.6,1.8,0.8,2.1,0.4,0.9c0.2,2.1,0.3,2.3,0.3,0.7c-0.2,1.2-0.2,1.4,0,0.5c0.1-0.5,0.3-1,0.5-1.5c-0.9,2.3,1.1-1.4,1.4-1.9
			c-1.4,1.9,0.8-0.8,1-0.9c1-1,2.1-2,3.2-2.9c2.1-1.9-1.3,0.7,0.8-0.6c2.4-1.5,4.7-3.1,7.2-4.3c5.9-2.8,7.4-11.2,4.3-16.4
			c-3.5-6-10.5-7.1-16.4-4.3c-9.1,4.3-18.5,11.8-22.9,21c-3.9,8.2-4.4,17.7,1.8,24.8c4.6,5.2,11.4,7.9,17.9,9.8
			c17.8,5.1,36.8,6.8,54.9,10.6c7,1.4,14,3,20.9,4.6c3.3,0.8,7.1,2.2,10.6,2.2c7.9,0,15.8-9.1,20.7-14.4
			c9.1-9.9,16.1-21.5,17.5-35.1c1.9-18.5-10.7-31-21.5-44.1c-8.9-10.8-17.4-22.1-24.5-34.2c-1.4-2.3-2.7-4.7-3.9-7.1
			c-0.5-1-1-2-1.5-2.9c-0.5-1-1.7-4.5-0.4-0.7c-0.9-2.7-2.1-5.3-2.7-8.2c-0.1-0.5-0.2-1-0.3-1.4c-0.5-2,0.1,3.4,0.2,1.7
			c0.1-0.5,0-1.3-0.1-1.9c-0.3-2.3-1,3.8-0.2,1.7c3.4-9.3-9.3-19.8-17.6-13.6c-0.4,0.3-0.8,0.6-1.3,0.8c-0.6,0.3-1.2,0.6-1.7,0.9
			c-2.3,1.3,2.6-0.9-0.3,0.1c-6.3,2.1-13.6,3.8-19.4,4.5c-11.1,1.4-20.1,1.3-30.6-2.3c-8.8-3-17.5-6.6-27-5.8
			c-19.4,1.6-30.1,19.1-28.2,37.6c2.1,21,13,39.5,29.1,52.8c10.1,8.3,21.2,15.2,33.3,20.3c6,2.5,13.2-2.7,14.8-8.4
			C192.5,420.3,188.2,414.9,182.2,412.4z"/>
	</g>
	<circle class="st12" cx="373.5" cy="324.5" r="29.5"/>
</g>
<g id="sock" class="st0">
	<path class="st13" d="M873.5,691.1c0-0.5-0.1-0.9-0.2-1.4c-7.9-58.5-58.6-114.1-82.9-137.2c-24.2-23-52.8-53.1-78.6-83.4
		C622.4,364,591,344.6,588.6,290.3S569.2,115,569.2,115H238.1v241.5c-27.9,32.8-44.7,75.3-44.7,121.7c0,91.1,49.6,128.7,151,184.3
		c34.8,19.1,36.9,21.7,58.1,35.1C481,747.1,507.6,818,557.7,851.4l0,0c33.7,32,79.2,51.6,129.3,51.6C790.9,903,875,818.9,875,715.1
		C875,706.9,874.5,698.9,873.5,691.1z"/>
	<path class="st14" d="M536,833.5c9-26.2,53.4-138.5,166.2-184.3c74.6-30.2,111-35.1,140.2-33.6c-17.7-27.1-38.7-49.3-52-61.8
		c-24.2-23-52.8-53.1-78.6-83.4C622.4,365.2,591,345.9,588.6,291.5s-19.3-175.2-19.3-175.2H238.1V357
		c62.7,8.8,146.6,52.3,155.9,132.7c8.1,70.1-16.6,135.5-47.6,173.9c-0.7-0.4,34.9,21.8,56.1,35.2C481,748.3,542.9,840.2,536,833.5z"
		/>
	<g class="st1">
		<path class="st15" d="M875,715.1c0-8.1-0.5-16.1-1.5-24c0-0.5-0.1-0.9-0.2-1.4c-3.5-26.2-15.6-51.7-30.1-74.1
			c-29.3-1.6-65.8,3.1-141,33.6C589.3,695,545,807.4,536,833.5c6.9,6.7,14,12.8,21.8,17.9c33.7,32,79.2,51.6,129.3,51.6
			C790.9,903,875,818.9,875,715.1z"/>
		<path class="st10" d="M887,715.1c-0.1-26.6-5.7-51.6-16.9-75.7c-2.7-5.7-5.6-11.4-8.7-16.8c-3.1-5.4-6.7-14.1-12.2-17.3
			c-5.2-3.1-14.4-2-20.4-1.9c-32.9,0.9-65.1,10.3-95.8,21.2c-22.2,7.9-44.5,16.3-65.1,27.7c-17.5,9.7-33.8,21.6-48.8,34.8
			c-25.5,22.5-47.1,49.6-64.5,78.8c-12.1,20.4-22.5,42-30.2,64.4c-1.4,3.9,0.2,8.9,3.1,11.7c7.2,6.9,15.1,12.6,22.8,18.9
			c6.8,5.6,13.2,11.5,20.4,16.7c14.1,10.3,29.7,18.4,46,24.6c32.6,12.5,68.2,15.5,102.5,10.1c59-9.2,112-46.5,141.5-98.3
			C878,784,886.9,749.7,887,715.1c0.1-15.4-23.9-15.5-24,0c-0.1,26.8-6.2,54-18,77.6c-12.1,24.3-28.2,44.1-49.6,61.1
			c-8.8,7-21.6,14.9-33.1,20.4c-11.2,5.4-24.1,9.8-37.4,12.7c-13.8,3.1-26.4,4.3-41.2,4c-16.3-0.3-32.3-2.8-47.9-7.5
			c-17.1-5.2-33.1-13-47.9-23c-6.9-4.7-13.3-9.8-19.4-15.4c-3.8-3.5-8.1-6.2-12.1-9.4c-4.2-3.3-8.1-6.9-11.9-10.6
			c1,3.9,2.1,7.8,3.1,11.7c1.9-5.6,4.1-11.1,6.3-16.6c0.7-1.7-1.1,2.5,0.1-0.2c0.4-0.9,0.7-1.7,1.1-2.6c0.9-2.1,1.8-4.1,2.8-6.2
			c2.1-4.5,4.2-8.9,6.5-13.3c5.2-10.2,10.9-20.1,17.1-29.7c3.5-5.5,7.2-10.9,11-16.2c1-1.4,2.1-2.8,3.1-4.2c0.5-0.6,2.7-3.5,1.7-2.3
			c2.2-2.9,4.5-5.7,6.8-8.4c19.7-23.6,42-43.6,67.8-59.3c15.3-9.3,31.2-16.3,47.7-22.7c17.1-6.6,34.5-12.8,52.2-17.8
			c7.4-2.1,14.8-4,22.3-5.6c3.4-0.7,6.9-1.4,10.4-2c1.6-0.3,3.2-0.5,4.9-0.8c0.6-0.1,1.3-0.2,1.9-0.3c-1.5,0.2-1.4,0.2,0.1,0
			c10.6-1.2,21.1-1.6,31.8-1.1c-3.5-2-6.9-4-10.4-5.9c9,14,17.1,28.7,22.5,44.5c5.4,15.9,7.7,32.1,7.7,48.9
			C863.1,730.5,887.1,730.5,887,715.1z"/>
	</g>
	<g class="st1">
		<path class="st15" d="M237.7,357c-27.7,32.7-44.3,75-44.3,121.2c0,91.1,49.6,128.7,151,184.3c0.7,0.4,1.3,0.7,2,1.1
			c31.1-38.4,55.7-103.8,47.6-173.9C384.7,409.2,300.5,365.7,237.7,357z"/>
		<path class="st10" d="M229.2,348.5c-39.4,47.1-55.7,109.3-44.2,169.7c3.9,20.8,12.3,41,24.7,58.2c13.7,19,31,34.4,49.8,48.2
			c25.5,18.7,53.2,34.1,80.9,49.3c4.3,2.3,11.2,2.3,14.5-1.9c39.4-49,57.6-115.5,51.6-177.9c-2.7-28.3-12.8-53.8-30.4-76
			c-15.6-19.8-36.3-35.5-58.4-47.3c-23.8-12.7-50-21.6-76.8-25.4c-6.4-0.9-12.9,1.6-14.8,8.4c-1.5,5.6,1.9,13.8,8.4,14.8
			c10.4,1.5,20.7,3.7,30.8,6.7c5.5,1.6,10.9,3.4,16.2,5.4c2.5,0.9,5,1.9,7.5,3c-1.4-0.6,1.9,0.8,2.3,1c1.3,0.6,2.7,1.2,4,1.8
			c21.7,10.2,40,22.3,55.9,39.5c15.3,16.5,26,36.4,30.1,59.4c0.6,3.1,0.7,4.2,1.1,7.9c0.4,4.5,0.8,9,1,13.5
			c0.3,7.9,0.3,15.9-0.2,23.9c-0.9,15-3.3,29.9-7,44.5c-3.9,15.3-9.2,30.2-16.1,44.3c-3.3,6.7-6.9,13.3-10.9,19.6
			c-3.5,5.7-8,12-11.3,16.1c4.8-0.6,9.7-1.3,14.5-1.9c-23.9-13.1-47.8-26.4-70.3-41.8c-17.1-11.7-33-24.3-47.1-41.1
			c-0.8-1-1.6-1.9-2.4-2.9c-1.4-1.8,0.6,0.9-0.7-0.9c-1.6-2.1-3.1-4.3-4.6-6.5c-2.6-3.9-5-8-7.2-12.2c-1.1-2-2.1-4.1-3-6.1
			c-0.3-0.6-1.6-3.6-0.7-1.5c-0.5-1.1-0.9-2.3-1.4-3.5c-1.8-4.7-3.3-9.6-4.6-14.5c-1.3-4.9-2.3-9.9-3.1-15c-0.1-0.7-0.6-3.8-0.5-3.1
			c0.1,0.8-0.2-2-0.3-2.6c-0.3-3.1-0.6-6.1-0.8-9.2c-0.8-13.1-0.6-26.5,1.3-39.6c4.8-32,18.3-62.6,39.1-87.4c4.2-5,4.9-12.1,0-17
			C241.9,344.2,233.4,343.5,229.2,348.5z"/>
	</g>
	<path class="st16" d="M885.1,687.9c-7.5-53.6-43.3-101.4-80.8-138.7c-22.1-22-44.3-43.8-65.1-67.1c-21.9-24.4-42.9-49.6-64.6-74.1
		c-14.8-16.7-30-33.1-44.1-50.5c-1.4-1.7-2.7-3.4-4.1-5.1c-0.3-0.4-0.6-0.7-0.8-1.1c0,0.1,1.3,1.7,0.5,0.7c-0.7-0.9-1.4-1.9-2.1-2.8
		c-2.3-3.1-4.5-6.2-6.6-9.4c-3.8-5.8-7.1-11.8-10-18c-1.1-2.4,0.7,1.9,0,0c-0.2-0.6-0.5-1.3-0.8-1.9c-0.6-1.6-1.2-3.2-1.7-4.9
		c-1-3.1-1.8-6.2-2.5-9.4c-0.3-1.5-0.6-3-0.8-4.5c-0.1-0.6-0.5-3.3-0.2-1.3c0.3,2.1-0.1-1-0.2-1.7c-0.4-3.7-0.6-7.4-0.7-11.2
		c-1.1-21.2-3.3-42.4-5.6-63.5c-4-36.7-8.7-73.2-13.7-109.8c-0.1-0.7-0.2-1.3-0.3-2c-0.7-5.1-6.8-8.8-11.6-8.8c-37.3,0-74.7,0-112,0
		c-59.5,0-118.9,0-178.4,0c-13.6,0-27.2,0-40.8,0c-6.5,0-12,5.5-12,12c0,27.3,0,54.6,0,82c0,43.2,0,86.4,0,129.5c0,10,0,20,0,30
		c1.2-2.8,2.3-5.7,3.5-8.5c-30,35.6-47.4,80.1-48.2,126.8c-0.6,32.7,5.7,66.1,23.3,94.2c18,28.7,45.1,50.1,73.2,68.4
		c32.1,20.9,66.8,37.3,99,57.9c14.2,9.1,28.7,17.9,42,28.3c16.6,13.1,31.6,28.1,45.5,43.9c23.3,26.6,43.1,56.9,69.6,80.4
		c6.3,5.6,14,10.8,19.4,15.6c8.3,7.4,17.1,14.2,26.5,20.2c18.5,11.8,39.2,20.6,60.5,25.7c40.1,9.6,83.4,6.7,121.7-9
		c71.6-29.5,120.9-98,124.9-175.6c0.6-11.3,0.1-22.6-1.3-33.8c-0.8-6.4-5-12-12-12c-5.9,0-12.8,5.5-12,12
		c6.5,52.9-9.6,105.3-45.5,143.7c-34.4,36.9-82.8,57.3-133.1,56.2c-29.7-0.6-58.8-8.9-84.4-23.9c-6.5-3.8-12.8-7.9-18.7-12.5
		c-5.8-4.5-10.9-9.9-16.9-14.2c-7.7-5.4-16-12.7-23.8-20.9c-17.2-17.9-31.8-38.1-47.7-57.1c-18.9-22.8-39.6-43.8-63.3-61.7
		c-41.5-31.4-89.2-52.9-132.9-80.7c-20.4-13-37.5-25.1-54-42.8c-1.7-1.9-3.4-3.8-5.1-5.7c-0.8-1-1.6-1.9-2.4-2.9
		c-0.3-0.4-0.7-0.8-1-1.3c-2.1-2.7,0.8,1-0.4-0.5c-3-4.1-5.9-8.3-8.5-12.7c-2.6-4.4-4.9-8.9-7-13.5c-1.1-2.5,0.1,0.4-0.7-1.5
		c-0.4-1-0.8-2-1.2-3c-1-2.7-1.9-5.4-2.8-8.2c-1.5-5-2.8-10-3.8-15.1c-0.5-2.7-1-5.3-1.4-8c-0.1-0.3-0.3-2.3-0.1-0.3
		c-0.1-0.6-0.2-1.2-0.2-1.8c-0.2-1.6-0.4-3.2-0.5-4.8c-1.3-14.1-1.3-28.4,0.5-42.4c3.7-29.6,15.4-57.9,33-81.9
		c3.9-5.3,10.1-10.4,10.4-17.3c0-0.5,0-1.1,0-1.7c0.1-3,0-6.1,0-9.2c0-12.4,0-24.8,0-37.2c0-36.7,0-73.3,0-110c0-26.4,0-52.9,0-79.3
		c0-1.4,0-2.7,0-4.1c-4,4-8,8-12,12c37.3,0,74.7,0,112,0c59.5,0,118.9,0,178.4,0c13.6,0,27.2,0,40.8,0c-3.9-2.9-7.7-5.9-11.6-8.8
		c0.4,2.6,0.7,5.2,1.1,7.7c0.2,1.3,0.3,2.5,0.5,3.8c0.1,0.8,0.2,1.5,0.3,2.3c0.2,1.8-0.4-2.7,0.1,0.4c0.5,3.9,1,7.9,1.6,11.8
		c2.8,21.4,5.5,42.7,7.9,64.1c2.6,22.4,5,44.9,6.6,67.4c1.1,15.4,1.3,30.9,6,45.7c10.6,33.2,36.7,59.7,59.3,85.1
		c42.7,48,83.4,97.9,129.1,143c36.3,35.8,73,73.6,87.5,124c2,6.8,3.3,13.7,4.3,20.7c0.9,6.4,9.1,9.9,14.8,8.4
		C883.6,700.7,886,694.3,885.1,687.9z"/>
</g>
<g id="heart" class="st0">
	<g class="st1">
		<path class="st17" d="M935.3,468.3C940,441,941,419,941,419c0-118.2-95.8-214-214-214c-86.7,0-161.4,51.6-195,125.7
			C498.4,256.6,423.7,205,337,205c-118.2,0-214,95.8-214,214c0,0-28,170,404,498c237.1-174.8,339.2-303.8,382.8-386.7
			C921.4,511.4,930,490.5,935.3,468.3z"/>
		<path class="st10" d="M946.9,471.5c3.2-19,6.6-38.8,6.1-58.1c-0.6-21.5-4.1-43.2-10.8-63.7c-13-40-37.1-76.3-69.4-103.3
			c-33.3-27.9-73.6-45.7-116.7-51.4c-45.5-6-92.3,2.3-133.1,23.3c-44.3,22.9-80.6,61-101.4,106.4c6.9,0,13.8,0,20.7,0
			c-24.7-54.1-70.8-96.4-126.3-117.4c-55.8-21.2-118.8-18.2-173,6.2c-49.8,22.4-90.9,64.1-112.7,114.1
			c-11.6,26.5-18.2,54.8-19.2,83.8c-0.1,1.6-0.2,3.3-0.1,4.9c0.2,3.2,0.4,0.3,0.4-0.4c0,0,0,0.1,0,0.1c0,1.2-0.4,2.4-0.5,3.6
			c-0.1,0.6-0.1,1.3-0.2,1.9c-0.6,8.2,0.5,16.6,1.7,24.7c2.3,15.2,6.5,30,11.8,44.4c8.8,23.9,20.2,46.8,33,68.8
			c18.6,31.7,40.3,61.5,63.4,90.1c31.4,38.9,65.9,75.3,101.8,110.1c48.1,46.6,99.1,90.1,151.6,131.7c15.5,12.3,31.1,24.4,46.9,36.3
			c3.1,2.3,9.1,2.3,12.1,0c83.3-61.5,164.2-126.9,237.6-200c46.1-46,89.8-95.4,125.4-150.1c7-10.7,13.6-21.7,19.8-32.9
			c4.9-8.8,10-17.4,14.4-26.5C937.4,503,943,487.5,946.9,471.5c3.6-15-19.5-21.4-23.1-6.4c-8.1,33.5-25.5,63.9-43.8,92.8
			c-6.8,10.8-14,21.4-21.4,31.7c-4,5.6-8.2,11.2-12.3,16.7c-0.5,0.7-3.9,5-2.1,2.8c-1,1.3-2,2.5-2.9,3.8c-2.4,3.1-4.9,6.1-7.3,9.2
			C784,683.7,726.6,739,666.9,790.7c-47,40.7-95.9,79.1-145.9,116c4,0,8.1,0,12.1,0c-55.4-42.1-109.4-86.3-160.8-133.4
			c-39.1-35.8-76.7-73.3-111.5-113.4c-7.1-8.2-14-16.4-20.9-24.8c-3.3-4-6.5-8-9.7-12.1c-0.7-0.9-1.5-1.9-2.2-2.8
			c-0.3-0.4-2.8-3.7-1.2-1.5c-1.5-1.9-3-3.9-4.5-5.8c-10.7-14.1-20.9-28.5-30.5-43.4c-14.7-22.7-28.1-46.4-38.9-71.3
			c-0.3-0.6-0.5-1.2-0.8-1.8c-0.7-1.5,1.2,3,0.2,0.4c-0.5-1.2-1-2.4-1.5-3.7c-0.9-2.4-1.9-4.7-2.8-7.1c-1.6-4.3-3.1-8.6-4.5-12.9
			c-2.4-7.3-4.4-14.8-6-22.3c-0.6-3-1.2-6.1-1.7-9.1c-0.2-1.5-0.7-6.8-0.2-1.1c-0.1-1.2-0.3-2.4-0.4-3.6c-0.4-3.8-0.7-7.6-0.7-11.3
			c0-2,0.2-3.9,0.3-5.8c0.1-2.3-0.5,3.7-0.3,2.3c0.9-6.1,0.5-12.4,1-18.6c0.2-3.2,0.5-6.4,0.9-9.7c0.3-2.8,0.7-5.4,1.4-9
			c4.7-26.5,13.5-49.7,27.4-72.2c12.8-20.7,30.7-40.6,49.8-54.8c43-32.2,96.7-46.4,149.3-39.2c54.9,7.6,105.4,38,137,82.6
			c7.9,11.1,14.7,23,20.4,35.4c3.6,7.9,17.1,7.9,20.7,0c17.1-37.5,44.4-68.8,79.2-90.1c35.5-21.7,76.4-31.7,118-29.3
			c75.8,4.4,146.1,54.6,174.4,124.9c4.2,10.4,7.5,21.1,10,32c2.6,11.5,3.9,20.5,4.6,32.1c1.1,19.6-1.6,39.4-4.9,58.7
			c-1.1,6.4,1.7,12.9,8.4,14.8C937.9,481.5,945.8,477.9,946.9,471.5z"/>
	</g>
	<g class="st1">
		<path class="st5" d="M776.4,360.7c25.8,19,31.5,63.9,66.2,44c22.1-12.7,22-76.7-13.8-107.1c-30.3-25.8-78-29.7-93-1.8
			C716,332.6,750.6,341.6,776.4,360.7z"/>
		<path class="st3" d="M770.3,371c-1.5-1.1,2.2,2,2.7,2.5c1.1,1,2.1,2.1,3.1,3.2c1.1,1.3,2.2,2.5,3.3,3.9c0.3,0.4,1.8,2.3,0.6,0.7
			c0.7,0.9,1.3,1.8,2,2.7c3.8,5.3,7.3,10.9,11.3,16.1c8.4,11.3,19.2,22.1,34.4,21.5c14.2-0.5,28.1-8.8,34.5-21.5
			c6.4-12.5,8.2-27.3,7.2-41.2c-2.4-34.3-19.7-66.1-50.6-82.5c-28.4-15.1-73.2-20-92.6,11.9c-10.4,17.2-11.5,37.4,2.1,52.9
			C739.7,354,756.7,361.1,770.3,371c5.2,3.8,13.4,0.9,16.4-4.3c3.6-6.1,0.9-12.6-4.3-16.4c-5.6-4.1-11.5-7.7-17.4-11.4
			c-2.6-1.6-5.1-3.2-7.7-4.9c-1.3-0.9-2.6-1.7-3.8-2.6c-0.6-0.4-1.2-0.9-1.8-1.3c1.3,1,0,0-0.6-0.5c-2-1.7-3.8-3.5-5.7-5.4
			c-1.5-1.5-0.3-0.3,0,0.1c-0.4-0.5-0.8-1.1-1.1-1.6c-0.5-0.9-2.1-4.8-1.4-2.3c-0.3-1.1-0.6-2.2-0.9-3.3c-0.5-1.7,0.1,2,0,0.2
			c0-0.7-0.1-1.4-0.1-2.1c0-0.7,0.1-1.5,0.1-2.2c0.1-1.9-0.4,1.7,0.1-0.2c0.5-1.9,0.9-3.7,1.5-5.6c0.8-2.3,2.3-5.2,3.9-7.8
			c0.2-0.3,1.5-2.1,0.7-1c-0.8,1.1,0.6-0.7,0.8-0.9c1.1-1.2,2.3-2.3,3.6-3.4c-1.7,1.4,1.6-1,2.1-1.2c1.3-0.7,2.6-1.4,3.9-2
			c-2.1,0.9,2-0.6,2.5-0.7c1.5-0.4,3-0.8,4.5-1.1c0.8-0.1,1.6-0.3,2.3-0.4c-2,0.3,0.1,0,0.4,0c1.6-0.1,3.3-0.2,4.9-0.2
			c1.7,0,3.4,0,5.1,0.2c1.8,0.1,3.8,0.4,3.9,0.4c6.4,1.1,14.3,3.3,19.3,5.6c6.6,3,13.5,7.1,18.6,11.4c2.4,2,4.7,4.3,6.8,6.6
			c0.7,0.8,2.5,3,2.7,3.1c0.3,0.4,1.9,2.7,2.7,3.9c7,10.8,10.7,21.4,12.7,34.9c-0.3-2,0.2,1.9,0.3,2.6c0.1,1.5,0.2,3.1,0.3,4.6
			c0.1,3.1,0.1,6.3-0.1,9.4c-0.1,1.4-0.2,2.8-0.4,4.2c-0.2,1.4,0.1-0.5,0.1-0.6c-0.1,0.7-0.2,1.3-0.3,2c-0.5,2.7-1.2,5.3-2,7.9
			c-0.1,0.4-1.5,3.9-0.8,2.3c0.7-1.6-0.9,1.6-1.1,2c-0.5,0.8-1.1,1.6-1.5,2.4c-0.8,1.7,0.2-0.2,0.5-0.6c-0.5,0.6-1,1.1-1.5,1.7
			c-0.9,1-3,2-0.3,0.5c-0.8,0.4-1.5,1-2.3,1.5c-0.8,0.4-1.6,0.8-2.4,1.2c-1.9,0.9,1.3-0.5-0.5,0.3c-1.5,0.6-3.1,1-4.7,1.4
			c-0.7,0.2-2.2,0.1,0.3,0c-0.8,0-1.5,0-2.3,0.1c-0.4,0-2.4-0.2-0.6,0c1.9,0.2-0.5-0.2-0.9-0.3c-0.5-0.1-1.1-0.4-1.6-0.5
			c1.3,0.4,1.6,0.9,0.2,0c-1.1-0.7-2.2-1.3-3.3-2.1c2.4,1.7-0.7-0.7-1.3-1.4c-1-1-2-2.1-2.9-3.1c-0.4-0.5-0.8-1-1.3-1.5
			c-2.1-2.5,1.3,1.9-0.6-0.8c-0.8-1.1-1.7-2.3-2.5-3.4c-8.8-12.5-16.8-25-29.1-34.3c-5.2-3.9-13.4-0.8-16.4,4.3
			C762.4,360.8,765.1,367.1,770.3,371z"/>
	</g>
</g>
<g id="pyramid" class="st0">
	<g class="st1">
		<path class="st18" d="M815,943H221c-60.5,0-110-49.5-110-110v0c0-60.5,49.5-110,110-110h594c60.5,0,110,49.5,110,110v0
			C925,893.5,875.5,943,815,943z"/>
		<path class="st3" d="M815,955.5H221c-67.5,0-122.5-55-122.5-122.5s55-122.5,122.5-122.5h594c67.5,0,122.5,55,122.5,122.5
			S882.5,955.5,815,955.5z M221,735.5c-53.8,0-97.5,43.7-97.5,97.5s43.7,97.5,97.5,97.5h594c53.8,0,97.5-43.7,97.5-97.5
			s-43.7-97.5-97.5-97.5H221z"/>
	</g>
	<g class="st1">
		<path class="st19" d="M738.2,718.5H296.7c-60.5,0-110-49.5-110-110v0c0-60.5,49.5-110,110-110h441.5c60.5,0,110,49.5,110,110v0
			C848.2,669,798.7,718.5,738.2,718.5z"/>
		<path class="st3" d="M738.2,731H296.7c-67.5,0-122.5-55-122.5-122.5S229.1,486,296.7,486h441.5c67.5,0,122.5,55,122.5,122.5
			S805.7,731,738.2,731z M296.7,511c-53.8,0-97.5,43.7-97.5,97.5s43.7,97.5,97.5,97.5h441.5c53.8,0,97.5-43.7,97.5-97.5
			S792,511,738.2,511H296.7z"/>
	</g>
	<g class="st1">
		<path class="st9" d="M635,494.5H399.8c-60.5,0-110-49.5-110-110v0c0-60.5,49.5-110,110-110H635c60.5,0,110,49.5,110,110v0
			C745,445,695.5,494.5,635,494.5z"/>
		<path class="st3" d="M635,507H399.8c-67.5,0-122.5-55-122.5-122.5S332.3,262,399.8,262H635c67.5,0,122.5,55,122.5,122.5
			S702.6,507,635,507z M399.8,287c-53.8,0-97.5,43.7-97.5,97.5s43.7,97.5,97.5,97.5H635c53.8,0,97.5-43.7,97.5-97.5
			S688.8,287,635,287H399.8z"/>
	</g>
	<g class="st1">
		<circle class="st20" cx="511.5" cy="162.5" r="108"/>
		<path class="st3" d="M511.5,283C445.1,283,391,228.9,391,162.5S445.1,42,511.5,42C577.9,42,632,96.1,632,162.5
			S577.9,283,511.5,283z M511.5,67c-52.7,0-95.5,42.8-95.5,95.5s42.8,95.5,95.5,95.5c52.7,0,95.5-42.8,95.5-95.5S564.2,67,511.5,67z
			"/>
	</g>
</g>
<g id="bow" class="st0">
	<g class="st1">
		<path class="st21" d="M516,510c0,119.9-190.7,211.5-290.4,211.5s-48.5-95.2-48.5-215.1S126,287.1,225.6,287.1S516,390.1,516,510z"
			/>
		<path class="st22" d="M225.6,734c-27.3,0-46.4-6.7-58.6-20.5c-21.5-24.4-16.4-64.3-9.9-114.9c3.5-27.8,7.6-59.3,7.6-92.2
			c0-32.8-4-64.5-7.5-92.5c-6.6-52.3-11.7-93.5,10.4-118.6c12.2-13.9,31.3-20.6,58.1-20.6c53.6,0,128,26.9,189.6,68.6
			c32.9,22.3,60.4,47.8,79.5,73.9c22.4,30.6,33.8,61.8,33.8,92.8C528.5,639.4,329.3,734,225.6,734z M225.6,299.6
			c-19.3,0-32.2,4-39.4,12.2c-14.6,16.6-9.8,54.7-4.3,98.9c3.6,28.7,7.7,61.3,7.7,95.7c0,34.5-4.1,66.9-7.8,95.4
			c-5.4,42.5-10.1,79.3,3.9,95.2c7.1,8.1,20.2,12.1,39.9,12.1c49.3,0,120-23.6,175.9-58.8c38.1-24,102-74.1,102-140.2
			C503.5,397,317.1,299.6,225.6,299.6z"/>
	</g>
	<g class="st1">
		<path class="st21" d="M533,510c0,119.9,190.7,211.5,290.4,211.5s48.5-95.2,48.5-215.1s51.2-219.2-48.5-219.2S533,390.1,533,510z"
			/>
		<path class="st22" d="M823.4,734c-54.5,0-128.8-24.6-189.2-62.7C560.8,625.1,520.5,567.9,520.5,510c0-31,11.4-62.2,33.8-92.8
			c19.1-26.1,46.6-51.7,79.5-73.9c61.5-41.7,136-68.6,189.6-68.6c26.9,0,45.9,6.7,58.1,20.6c22.1,25,16.9,66.3,10.4,118.6
			c-3.5,28-7.5,59.8-7.5,92.5c0,33,4,64.5,7.6,92.2c6.4,50.6,11.5,90.5-9.9,114.9C869.8,727.3,850.6,734,823.4,734z M823.4,299.6
			c-48.2,0-118.8,25.8-175.6,64.3c-65,44-102.3,97.3-102.3,146.1c0,66.1,63.9,116.2,102,140.2C703.3,685.4,774,709,823.4,709
			c19.7,0,32.7-3.9,39.9-12.1c14-15.9,9.3-52.6,3.9-95.2c-3.6-28.5-7.8-60.8-7.8-95.4c0-34.3,4.1-66.9,7.7-95.7
			c5.5-44.2,10.3-82.3-4.3-98.9C855.5,303.6,842.7,299.6,823.4,299.6z"/>
	</g>
	<g class="st1">
		<circle class="st23" cx="525.5" cy="508.5" r="98"/>
		<path class="st22" d="M525.5,619C464.6,619,415,569.4,415,508.5S464.6,398,525.5,398S636,447.6,636,508.5S586.4,619,525.5,619z
			 M525.5,423c-47.1,0-85.5,38.4-85.5,85.5c0,47.1,38.4,85.5,85.5,85.5c47.1,0,85.5-38.4,85.5-85.5C611,461.4,572.6,423,525.5,423z"
			/>
	</g>
	<path class="st16" d="M416.4,483.2c-0.1-0.2-11.9-20.4-68.1-35.6c-33.2-9-62.8-0.2-63.1-0.1c-6.6,2-13.6-1.7-15.6-8.3
		c-2-6.6,1.7-13.6,8.3-15.6c1.5-0.5,36.9-10.9,76.9-0.1c68.2,18.4,82.7,45.7,84.1,48.8l-22.7,10.5
		C416.2,482.8,416.2,482.9,416.4,483.2z"/>
	<path class="st16" d="M275.5,541.9c-4.7,0-9.2-2.7-11.4-7.3c-2.9-6.3-0.2-13.7,6.1-16.6c1.4-0.6,34.3-15.7,74.3-19.1
		c66.9-5.6,86.5,7,90.9,10.9l-16.7,18.6c0,0,0.2,0.2,0.7,0.6c-0.1-0.1-15.6-10-72.9-5.2c-35.4,2.9-65.5,16.7-65.8,16.8
		C279,541.6,277.2,541.9,275.5,541.9z"/>
	<path class="st16" d="M632.6,484.2c0.1-0.3,0.2-0.4,0.2-0.4l-22.7-10.5c1.4-3.1,15.8-30.4,84.1-48.8c40-10.8,75.4-0.3,76.9,0.1
		c6.6,2,10.3,9,8.3,15.6c-2,6.6-9,10.3-15.6,8.3c-0.3-0.1-30.3-8.8-63.1,0.1C644.5,463.8,632.7,484,632.6,484.2z"/>
	<path class="st16" d="M773.5,543c-1.8,0-3.5-0.4-5.3-1.2c-0.3-0.1-30.4-13.9-65.8-16.8c-57.3-4.8-72.7,5.1-72.9,5.2
		c0.5-0.3,0.7-0.6,0.7-0.6L613.6,511c4.4-4,24.1-16.5,90.9-10.9c39.9,3.3,72.9,18.4,74.3,19.1c6.3,2.9,9,10.3,6.1,16.6
		C782.7,540.3,778.2,543,773.5,543z"/>
</g>
<g id="kite" class="st0">
	<polygon class="st24" points="497.5,106.3 675.3,288.7 887.2,79 	"/>
	<polygon class="st25" points="679.8,288.7 862.2,471 317.5,657.9 	"/>
	<path class="st26" d="M496.9,105.8l181.2,182.3L316.9,657.3L496.9,105.8z M886.7,78.4L678.1,288.1l183.5,182.3L886.7,78.4z"/>
	<path class="st27" d="M311.2,675.5c-3.2,0-6.4-1.3-8.8-3.6c-3.4-3.3-4.6-8.2-3.1-12.7L482.2,92.2c1.6-4.9,6.1-8.4,11.2-8.6
		l402.8-21.1c3.6-0.2,7.1,1.2,9.6,3.8c2.5,2.6,3.8,6.1,3.5,9.7l-31.9,401.1c-0.4,5-3.7,9.3-8.5,10.9L315.2,674.8
		C313.9,675.3,312.5,675.5,311.2,675.5z M503.3,108.1L330.7,643.2l522.5-176.3l30.1-378.7L503.3,108.1z"/>
	<path class="st27" d="M317.5,674.9c-3.1,0-6.3-1.2-8.7-3.6c-4.9-4.8-5-12.7-0.2-17.7C498.9,458.8,860.6,88,876,70.4
		c0.4-0.5,0.8-1,1.2-1.4c4.9-4.9,12.8-4.9,17.7,0c4.1,4.1,5.5,11.4,0.3,17.5c-0.3,0.4-0.8,0.9-1.4,1.6c-1.1,1.2-2.7,2.9-4.8,5.1
		c-4,4.2-10.1,10.6-18,18.8c-14.7,15.2-36.3,37.6-64.3,66.4c-47.1,48.5-112.9,116.1-195.5,200.9
		C470.5,523.6,327.8,669.7,326.4,671.2C324,673.7,320.7,674.9,317.5,674.9z M877.3,86.7L877.3,86.7L877.3,86.7z M873.9,80.8
		c0.5,2.1,1.6,4.1,3.3,5.9C875.6,85,874.5,82.9,873.9,80.8z M875.6,71c-0.7,1.1-1.3,2.3-1.6,3.6C874.4,73.3,874.9,72.1,875.6,71z"/>
	<path class="st27" d="M862.2,485.8c-3.3,0-6.5-1.3-8.9-3.8L485.1,104.8c-4.8-4.9-4.7-12.9,0.2-17.7c4.9-4.8,12.9-4.7,17.7,0.2
		l368.1,377.2c4.8,4.9,4.7,12.9-0.2,17.7C868.5,484.6,865.3,485.8,862.2,485.8z"/>
	<path class="st27" d="M90.5,948c-4.6,0-9-2.5-11.2-6.9c-1.8-3.6-6.4-17,10.7-36.8c17.9-20.6,49.1-19.7,92.3-18.3
		c20.6,0.6,44,1.4,70.5,0c33.5-1.7,49.7-22.1,50.8-41.6c1.1-19.7-12.7-42.1-46.2-47.6c-39.9-6.6-94.4-20.7-107-67
		c-5-18.3-2.8-35.5,6.3-49.6c10.1-15.7,28.1-26.3,50.7-30c44.2-7.2,103-0.4,105.5-0.1c6.9,0.8,11.8,7,10.9,13.9s-7,11.8-13.9,10.9
		c-0.7-0.1-57.8-6.7-98.5-0.1c-15.6,2.5-27.6,9.2-33.7,18.8c-5.2,8-6.3,18.3-3.2,29.5c6.7,24.7,34.4,40.3,87,49
		c21.4,3.5,39.1,12.9,51.2,27.1c11.2,13.1,16.8,29.7,15.8,46.6c-1,16.8-8.4,32.5-20.8,44.2c-13.5,12.6-32,19.9-53.6,20.9
		c-27.5,1.4-51.4,0.6-72.5,0c-36.3-1.1-62.6-1.9-72.7,9.7c-5.6,6.4-6.4,10.1-6.5,11.1c1.8,5.7-0.8,12.1-6.4,14.9
		C94.3,947.6,92.4,948,90.5,948z M101.7,929.9L101.7,929.9L101.7,929.9z M101.7,929.9C101.7,929.9,101.7,929.9,101.7,929.9
		C101.7,929.9,101.7,929.9,101.7,929.9z"/>
</g>
<g id="butterfly" class="st0">
	<g class="st1">
		<path class="st28" d="M466,539c0,0,13-56-26-114S210,162,137,154s-98,53-78,112s50,115,50,150s4,199,46,204S466,539,466,539z"/>
		<path class="st10" d="M159.3,632.8c-2.8,0-4.5-0.2-5.7-0.4c-24.9-3-40.7-35.2-49.7-101.5c-7.2-52.7-7.4-108.7-7.4-114.9
			c0-20.6-12.9-52.6-26.6-86.5c-7.7-19.2-15.8-39-22.7-59.5c-12.9-38-8.6-75.5,11.3-100.3c17.5-21.8,45.9-31.8,79.9-28.1
			c19.5,2.1,45.2,15.2,78.7,39.9c27.2,20,58.4,47,92.8,80.2c62.9,60.6,120.8,127,140.4,156.3c41.6,61.8,28.4,121.3,27.8,123.8
			c-1,4.3-4.2,7.7-8.4,9.1c-0.7,0.2-68.3,21.8-140.1,42.5C208.3,628.3,172.2,632.8,159.3,632.8z M124.5,165.8
			c-20.2,0-36.2,6.7-46.5,19.5c-14.4,17.9-17.1,47.3-7.1,76.7c6.7,19.9,14.6,39.4,22.2,58.2c15.3,37.8,28.4,70.4,28.4,95.8
			c0,6,0.2,60.5,7.1,111.6c3.4,25,7.8,44.9,13.2,59c5.6,14.9,11.3,20.7,14.7,21.1c28,3.3,194.6-45.2,298.3-78.1
			c1.7-15.7,2.6-56.2-25.2-97.5c-18.9-28.2-75.4-92.8-137.1-152.2C221,210.8,163.8,169.5,135.6,166.4
			C131.8,166,128.1,165.8,124.5,165.8z M466,539L466,539L466,539z M466,539L466,539L466,539z"/>
	</g>
	<g class="st1">
		<path class="st29" d="M464,541c0,0-295,62-320,104s-15,108,16,140c171,176,308-37,319-126C488.3,583.4,464,541,464,541z"/>
		<path class="st10" d="M292.2,865.1c-14.4,0-28.9-2.2-43.4-6.7c-33-10.1-65.9-31.9-97.8-64.7c-36.4-37.4-44.7-109.9-17.8-155.1
			c5-8.5,17.2-20.6,66.9-39.3c28-10.5,65-22,110-34.1c76.3-20.6,150.6-36.3,151.3-36.4c5.3-1.1,10.7,1.3,13.4,6
			c1.1,1.9,26.3,46.9,16.6,125.8c-3.9,31.8-21.7,73.7-46.3,109.3c-21.2,30.7-57.1,70.8-107.1,87.7
			C322.9,862.6,307.6,865.1,292.2,865.1z M456.8,555.3c-22.6,4.9-80.8,17.9-140.2,34c-44.2,11.9-80.4,23.2-107.6,33.4
			c-44.4,16.7-52.7,26.1-54.2,28.6c-21.3,35.8-14.5,95.3,14.2,124.9c41.3,42.5,82.5,63.9,123.1,63.9c12.7,0,25.4-2.1,38-6.3
			c34-11.4,67.5-39.2,94.5-78.2c22.1-32,38.6-70.5,42-98.2C473,605.7,462.7,570.4,456.8,555.3z"/>
	</g>
	<g class="st1">
		<ellipse transform="matrix(0.866 -0.5 0.5 0.866 -154.5435 158.2357)" class="st29" cx="218" cy="367.5" rx="59" ry="98.5"/>
		<path class="st10" d="M247.8,470.3c-31.3,0-67.7-25.3-91.8-67.1c-31.1-53.9-28.3-111.8,6.4-131.9c34.7-20,86.3,6.5,117.4,60.4l0,0
			c31.1,53.9,28.3,111.8-6.4,131.9C265.7,468.2,257,470.3,247.8,470.3z M188.2,289.7c-4.5,0-9,0.9-13.2,3.3
			c-13.1,7.6-15.3,25.3-15.5,35.2c-0.3,19.5,6.1,41.7,18.2,62.5c12,20.9,28,37.5,45,47c8.7,4.8,25.2,11.8,38.2,4.2
			c13.1-7.6,15.3-25.3,15.5-35.2c0.3-19.5-6.1-41.7-18.2-62.5l0,0c-12-20.9-28-37.5-45-47C207.3,294,197.8,289.7,188.2,289.7z"/>
	</g>
	<g class="st1">
		<path class="st28" d="M557.5,537c0,0-13-56,26-114s230-263,303-271s98,53,78,112s-50,115-50,150s-4,199-46,204
			S557.5,537,557.5,537z"/>
		<path class="st10" d="M864.2,630.8c-12.9,0-49-4.4-170.4-39.4c-71.8-20.7-139.4-42.3-140.1-42.5c-4.2-1.3-7.4-4.8-8.4-9.1
			c-0.6-2.5-13.8-62,27.8-123.8c19.7-29.2,77.6-95.7,140.4-156.3c34.5-33.2,65.7-60.2,92.8-80.2c33.5-24.7,59.3-37.8,78.7-39.9
			c34-3.7,62.3,6.3,79.9,28.1c20,24.9,24.2,62.4,11.3,100.3c-7,20.6-15,40.4-22.7,59.5C939.9,361.4,927,393.4,927,414
			c0,6.2-0.2,62.3-7.4,114.9c-9,66.3-24.8,98.5-49.7,101.5C868.7,630.6,867,630.8,864.2,630.8z M568.7,527.4
			c103.7,32.9,270.4,81.5,298.3,78.1c3.4-0.4,9.1-6.2,14.7-21.1c5.3-14.1,9.8-33.9,13.2-59c6.9-51,7.1-105.5,7.1-111.6
			c0-25.4,13.2-58.1,28.4-95.8c7.6-18.8,15.5-38.3,22.2-58.2c10-29.4,7.2-58.8-7.1-76.7c-12.2-15.2-32.1-21.7-57.7-18.9
			c-28.2,3.1-85.4,44.4-156.9,113.3C669.2,337.2,612.8,401.8,593.9,430C566.1,471.2,567,511.8,568.7,527.4z"/>
	</g>
	<g class="st1">
		<path class="st29" d="M559.5,539c0,0,295,62,320,104s15,108-16,140c-171,176-308-37-319-126C535.2,581.4,559.5,539,559.5,539z"/>
		<path class="st10" d="M731.3,863.1c-15.4,0-30.7-2.5-45.8-7.6c-50.1-16.8-85.9-56.9-107.1-87.7c-24.6-35.6-42.4-77.5-46.3-109.3
			c-9.7-78.8,15.5-123.9,16.6-125.8c2.7-4.7,8.1-7.1,13.4-6c0.7,0.2,75,15.8,151.3,36.4c45,12.2,82,23.6,110,34.1
			c49.7,18.7,61.8,30.8,66.9,39.3c26.9,45.2,18.6,117.7-17.8,155.1c-31.9,32.8-64.8,54.6-97.8,64.7
			C760.2,860.9,745.7,863.1,731.3,863.1z M566.7,553.3c-5.9,15-16.2,50.4-9.8,102.1c3.4,27.7,19.9,66.2,42,98.2
			c27,39,60.5,66.8,94.5,78.2c52.6,17.7,106.8-1.7,161.1-57.5c28.7-29.6,35.5-89.1,14.2-124.9c-1.5-2.5-9.8-12-54.2-28.7
			c-27.2-10.2-63.4-21.5-107.7-33.4C647.4,571.3,589.3,558.3,566.7,553.3z"/>
	</g>
	<g class="st1">
		<ellipse transform="matrix(0.5 -0.866 0.866 0.5 86.2182 880.3344)" class="st29" cx="805.5" cy="365.5" rx="98.5" ry="59"/>
		<path class="st10" d="M775.7,468.3c-9.1,0-17.8-2.2-25.7-6.7c-34.7-20-37.5-78-6.4-131.9c31.1-53.9,82.7-80.4,117.4-60.4
			c17.6,10.2,27.5,30.2,28,56.5c0.4,23.9-7.3,50.7-21.5,75.4C843.3,443,807,468.3,775.7,468.3z M835.3,287.7
			c-9.6,0-19.2,4.3-25.1,7.6c-17,9.5-33,26.1-45,47c-12,20.9-18.5,43.1-18.2,62.5c0.2,9.9,2.4,27.7,15.5,35.2
			c13.1,7.5,29.6,0.6,38.2-4.2c17-9.5,33-26.1,45-47c12-20.9,18.5-43.1,18.2-62.5c-0.2-9.9-2.4-27.7-15.5-35.2
			C844.3,288.6,839.8,287.7,835.3,287.7z"/>
	</g>
	<g class="st1">
		<path class="st30" d="M512,850.5L512,850.5c-33.8,0-61.5-27.7-61.5-61.5V448c0-33.8,27.7-61.5,61.5-61.5h0
			c33.8,0,61.5,27.7,61.5,61.5v341C573.5,822.8,545.8,850.5,512,850.5z"/>
		<path class="st10" d="M512,863c-40.8,0-74-33.2-74-74V448c0-40.8,33.2-74,74-74s74,33.2,74,74v341C586,829.8,552.8,863,512,863z
			 M512,399c-27,0-49,22-49,49v341c0,27,22,49,49,49s49-22,49-49V448C561,421,539,399,512,399z"/>
	</g>
	<path class="st27" d="M542.5,407c-2.5,0-5-0.8-7.2-2.3c-5.6-4-6.9-11.8-2.9-17.4l52-73c4-5.6,11.8-6.9,17.4-2.9
		c5.6,4,6.9,11.8,2.9,17.4l-52,73C550.2,405.2,546.4,407,542.5,407z"/>
	<path class="st27" d="M481.5,407c-4,0-8-1.9-10.4-5.5l-49-73c-3.8-5.7-2.3-13.5,3.4-17.3c5.7-3.8,13.5-2.3,17.3,3.4l49,73
		c3.8,5.7,2.3,13.5-3.4,17.3C486.3,406.3,483.9,407,481.5,407z"/>
</g>
<g id="rabbit">
	<g>
		<path class="st31" d="M624,566c74.6,10.4,145.5,84,156,144c20.5,117.5,22.8,158.1,23.5,180.5c1,30-42.5,46.5-66.5,35.5
			c-23.8-10.9-34-59-58-55s-16,37.5-15,67c1,29-42.5,45.5-62,36c-33.7-16.4-27.5-32.5-51.5-32.5S462,946,462,946s14,42-31,45
			s-126.5-9.5-174-51c-59.3-51.8-71.1-116.8-42-194c23-61,84.5-127.7,166.5-152.5C505.1,556.2,579.3,559.8,624,566z"/>
		<path class="st10" d="M417.8,1003.9c-47.4,0-122.3-13.6-169-54.5c-61.8-54-77.1-123.9-45.5-207.8c12.5-33.1,35.3-66.7,64.1-94.4
			c32-30.8,70.2-53.5,110.4-65.6c126.7-38.3,202.1-34.3,247.8-27.9c81.9,11.4,155.5,90.8,166.6,154.2
			C811.5,817.8,815,861.7,816,890.1c0.5,15.6-7.7,30.2-22.5,40c-18.6,12.4-44,15.4-61.7,7.2c-13.8-6.3-23.1-20.6-31.2-33.1
			c-6.3-9.7-14.2-21.8-19.5-20.9c-2.3,0.4-4.5,0.8-5.8,7.4c-1.5,7.5-0.6,18.4,0.2,29.9c0.4,5.5,0.9,11.3,1,16.9
			c0.5,15.5-8,30.1-23.3,40.1c-18.2,11.8-41.5,14.9-56.6,7.5c-17.9-8.7-26-17.5-32-23.9c-5.6-6-6.7-7.3-14.1-7.3
			c-16.6,0-53.8,2.3-74,3.6c0.3,8.1-0.9,18.2-7,27.2c-7.6,11.3-20.3,17.6-37.8,18.8C427.5,1003.8,422.8,1003.9,417.8,1003.9z
			 M567,574.5c-43,0-101.6,6.7-181.9,30.9c-80.9,24.4-137.9,90.4-158.4,144.9c-28,74.2-15.4,133.1,38.5,180.2
			c45.7,39.9,125.4,50.6,164.9,47.9c9.3-0.6,15.6-3.2,18.6-7.7c4.5-6.6,2.5-17.4,1.3-21c-1.2-3.7-0.7-7.7,1.5-10.9
			c2.1-3.2,5.7-5.2,9.5-5.5c2.7-0.2,65.2-4.5,89.4-4.5c18.2,0,25.4,7.8,32.4,15.3c5.1,5.5,10.9,11.8,24.6,18.4
			c6.3,3.1,20.7,1.4,32.1-6c4.6-3,12.3-9.3,12-18.3c-0.2-5.1-0.6-10.6-1-15.9c-1-13.2-1.9-25.7,0.2-36.5
			c3.8-19.6,16.4-25.7,26.3-27.3c21.5-3.6,34.3,16.1,44.6,32c6.6,10.2,13.5,20.7,20.7,24c9.8,4.5,26.2,2.1,37.4-5.3
			c5.3-3.6,11.7-9.6,11.4-18.4c-0.9-27.6-4.4-70.4-23.3-178.8c-9.4-53.8-75-124-145.4-133.8C607.5,576.3,589.3,574.5,567,574.5z"/>
	</g>
	<g>
		<path class="st32" d="M819.9,417c16-52.2,28.9-118.1,34.4-177.5c11.5-123.9-13.7-172.5-50-175.9c-36.3-3.4-70,39.8-81.5,163.7
			c-4.5,48.2-4.9,101.6-1.7,149c-18.1-3.5-37.1-5.4-56.7-5.4c-22.5,0-44.2,2.5-64.8,7.1c1.4-46.1-0.7-97.3-6.5-143.6
			C577.9,111,542.9,68.9,506.7,73.4c-36.2,4.5-59.8,53.8-44.5,177.3c7.2,57.7,21.5,121.3,38.5,172.4C457.7,456,431,501.8,431,552.5
			C431,652.7,535.5,734,664.5,734S898,652.7,898,552.5C898,498.6,867.8,450.3,819.9,417z"/>
		<path class="st10" d="M664.5,746.5c-65.1,0-126.5-19.8-172.8-55.8c-47.2-36.7-73.2-85.8-73.2-138.2c0-26.9,6.8-52.9,20.3-77.4
			c11.5-20.9,27.5-39.9,47.4-56.4c-16.2-50.7-29.6-112.2-36.4-166.4c-7.4-59.8-6.3-106.3,3.4-138.4c12-39.8,34.9-50.7,52-52.8
			c17.1-2.1,42,2.8,63.3,38.5c17.2,28.8,29.7,73.7,37.1,133.4c5.1,41.1,7.5,86.6,6.9,129.9c17-2.9,34.4-4.3,52-4.3
			c14.5,0,29,1,43.3,3c-2.3-44.7-1.4-92.2,2.6-135.3c5.6-60,16.6-105.2,33-134.5c20.2-36.3,44.9-42.1,62.1-40.5
			c17.2,1.6,40.4,11.8,53.6,51.2c10.6,31.8,13.2,78.3,7.7,138.3c-5.2,56.1-17.2,119.4-32.3,171.4c48.5,36.5,76.1,87.2,76.1,140.4
			c0,52.4-26,101.5-73.2,138.2C791,726.7,729.6,746.5,664.5,746.5z M511.8,85.6c-1.1,0-2.3,0.1-3.5,0.2
			c-33.2,4.1-45.8,65.2-33.6,163.4c6.9,55.7,21.1,119.3,38,169.9c1.7,5.1,0,10.6-4.3,13.9c-41.8,32-64.9,74.4-64.9,119.5
			c0,93.2,99.1,169,221,169s221-75.8,221-169c0-47.5-26.5-93.1-72.7-125.2c-4.5-3.1-6.4-8.7-4.8-13.9c15.9-51.9,28.6-117.3,33.9-175
			c9.1-98.5-5.3-159.2-38.7-162.3c-33.4-3.1-58.7,53.9-67.9,152.4c-4.3,46.9-4.9,99.1-1.6,147c0.3,3.9-1.3,7.7-4.2,10.2
			c-2.9,2.6-6.8,3.6-10.7,2.9c-17.7-3.4-36-5.2-54.3-5.2c-21.1,0-42,2.3-62.1,6.8c-3.8,0.8-7.7-0.1-10.7-2.6c-3-2.5-4.6-6.2-4.5-10
			c1.5-46.5-0.8-96.8-6.4-141.7c-7-56.3-18.3-97.9-33.8-123.7C536.4,94.6,524.6,85.6,511.8,85.6z"/>
	</g>
	<g>
		<path class="st32" d="M194.1,880.6C214,866,196,847,190,805c-4.9-34.4-42-51-68.2-33.6c-26.2,17.4-31.3,55.9-11.4,86.1
			S168.7,899.2,194.1,880.6z"/>
		<path class="st10" d="M165.9,902.1c-3.9,0-7.9-0.4-11.9-1.1c-21.4-3.8-41.1-17.2-54-36.7c-11.3-17.1-16.2-37.1-13.6-56.4
			c2.6-19.9,12.8-36.6,28.5-47c15.7-10.4,35.6-11.9,53.2-4c18.5,8.3,31.4,25.6,34.3,46.3c1.9,13.3,5.1,24.2,7.9,33.7
			c5.6,19.1,11.4,38.9-8.8,53.7h0C191.3,898.2,178.9,902.1,165.9,902.1z M144.9,776.9c-5.7,0-11.3,1.6-16.2,4.9
			c-9.6,6.4-15.9,16.8-17.5,29.5c-1.8,13.3,1.7,27.2,9.7,39.3c9,13.6,23,23.3,37.5,25.8c7.5,1.3,18.4,1.4,28.3-5.9h0
			c5.2-3.9,5.6-6-0.4-26.5c-2.9-9.9-6.5-22.1-8.7-37.3c-1.7-12.1-9.1-22.2-19.8-27C153.6,777.8,149.2,776.9,144.9,776.9z"/>
	</g>
	<path class="st10" d="M450,947.7c0-0.5-0.4-11.9-10.6-18.9c-6.9-4.7-12-2.1-13.9-0.7c-3.6,3.3-8.7,4-13.2,2
		c-4.6-2-7.3-6.7-7.3-11.7c0-11.4-3.4-44.6-18.5-60.4c-15.4-16.2-32.7-10.6-34.6-9.9l0.1,0h0c-10.9-1.9-15.8-14.7-9-23.3l0,0
		c1.4-0.5,34.1-12.7,61.5,16c16.1,16.9,22.1,43.2,24.2,60.4c7.4-0.7,16.1,0.9,24.8,6.9c16.9,11.6,21.4,30.2,21.4,39.3h-25L450,947.7
		z"/>
	<g>
		<path class="st33" d="M554.7,221.8c9.3,69.2,10.3,174.6-4.4,176.6c-14.8,2-39.8-100.2-49.1-169.4s0.8-79.4,15.6-81.3
			C531.5,145.6,545.4,152.5,554.7,221.8z"/>
		<path class="st10" d="M549.7,410.9c-13.2,0-20.3-16.3-23.5-23.4c-4.6-10.5-9.6-25.3-14.6-43.9c-9.3-34.1-18-77.4-22.8-113.1
			c-4.6-34.2-4.9-56.7-0.9-70.9c4.1-14.6,13-22.6,27.2-24.5c33.1-4.4,44.8,30.7,52,84.9l0,0c4.7,35.1,7.3,79.3,6.9,115.3
			c-0.2,19.2-1.3,34.8-3.2,46.2c-1.3,8.1-4.4,27.1-18.9,29.1C551.2,410.9,550.4,410.9,549.7,410.9z M520.7,159.8
			c-0.7,0-1.5,0.1-2.3,0.2c-3.3,0.4-4.8,0.6-6.4,6.4c-2.9,10.5-2.4,31,1.6,60.9c4.2,31.4,11.6,69,19.7,100.7
			c5.3,20.6,10,34.8,13.6,44.2c1.2-10.1,2.2-25,2.1-46.3c-0.1-33.3-2.6-71.6-6.7-102.4c-3.9-29.5-9-49.3-15-58.7
			C524.7,160.7,522.9,159.8,520.7,159.8z"/>
	</g>
	<g>
		<path class="st33" d="M819.6,220.7c-6.5,69.6-29.1,172.5-43.9,171.1c-14.8-1.4-16.4-106.6-9.8-176.1c6.5-69.6,18.6-77.2,33.4-75.8
			S826.1,151.1,819.6,220.7z"/>
		<path class="st10" d="M776.1,404.3c-0.5,0-1,0-1.6-0.1c-14.7-1.4-18.3-20.3-19.8-28.4c-2.2-11.3-3.7-26.8-4.4-46
			c-1.4-35.3-0.2-79.4,3.1-115.3c5.4-57.4,14.8-90.1,47-87.1c14.3,1.3,23.7,8.9,28.8,23.1c5.1,14.4,6.1,37.1,2.8,71.3
			c-3.3,35.2-10.6,78.9-19.1,113.9c-4.5,18.7-9.1,33.6-13.5,44.4C796.5,387.5,789.6,404.3,776.1,404.3z M796.2,152.2
			c-2.1,0-3.5,0.8-5.8,4.9c-5.2,9.6-9.3,29.7-12.1,59.7c-2.9,31.5-4.2,69.8-3.3,102.5c0.6,21.2,1.9,36.2,3.4,46.2
			c3.4-9.5,7.7-23.9,12.4-44.7c7.4-32.5,13.5-70.3,16.4-101.3c2.8-29.7,2.3-50-1.5-60.6c-2.2-6.1-4.2-6.3-7.6-6.6
			C797.4,152.3,796.8,152.2,796.2,152.2z"/>
	</g>
	<path class="st10" d="M555.5,610c0,14.1-11.4,25.5-25.5,25.5s-25.5-11.4-25.5-25.5s11.4-25.5,25.5-25.5S555.5,595.9,555.5,610z
		 M791.5,583c-14.1,0-25.5,11.4-25.5,25.5s11.4,25.5,25.5,25.5s25.5-11.4,25.5-25.5S805.6,583,791.5,583z M685.8,638.8L669,650.6
		l-18.5-12c-5.8-3.8-13.5-2.1-17.3,3.7c-3.8,5.8-2.1,13.5,3.7,17.3l10.1,6.5l-3.1,2.2c-5.7,4-7,11.8-3.1,17.4
		c2.4,3.5,6.3,5.3,10.2,5.3c2.5,0,5-0.7,7.2-2.3l11.3-8l9.2,6c2.1,1.4,4.5,2,6.8,2c4.1,0,8.1-2,10.5-5.7c3.8-5.8,2.1-13.5-3.7-17.3
		l-0.8-0.5l8.5-6c5.7-4,7-11.8,3.1-17.4C699.3,636.2,691.5,634.9,685.8,638.8z"/>
</g>
</svg>
