<?xml version="1.0" encoding="UTF-8" standalone="no"?>
<!DOCTYPE svg PUBLIC "-//W3C//DTD SVG 1.1//EN" "http://www.w3.org/Graphics/SVG/1.1/DTD/svg11.dtd">
<svg width="100%" height="100%" viewBox="0 0 1920 1080" version="1.1" xmlns="http://www.w3.org/2000/svg" xmlns:xlink="http://www.w3.org/1999/xlink" xml:space="preserve" xmlns:serif="http://www.serif.com/" style="fill-rule:evenodd;clip-rule:evenodd;stroke-linecap:round;stroke-linejoin:round;stroke-miterlimit:1.5;">
    <g transform="matrix(1,0,0,1,-54.1631,-9.33794)">
        <g>
            <g transform="matrix(12.3845,0,0,12.3845,-13790.8,-7988.9)">
                <path d="M1217.53,671.5C1216.84,671.49 1216.52,671.87 1216.34,672.51C1216.02,673.66 1215.66,674.81 1215.26,675.94C1212.93,682.5 1209.22,688.23 1204.73,693.48C1198.19,701.12 1190.49,707.27 1181.44,711.71C1179.53,712.65 1177.62,713.49 1175.51,713.82C1173.84,714.08 1172.17,714.14 1170.52,713.69C1167.42,712.84 1165.67,710.76 1165.09,707.64C1164.55,704.69 1165.51,700.5 1167.29,697.71C1168.01,699.18 1168.69,700.58 1169.55,701.87C1169.79,702.23 1169.5,702.5 1169.37,702.8C1168.74,704.32 1168.33,705.89 1168.54,707.56C1168.76,709.34 1169.76,710.42 1171.49,710.84C1172.84,711.17 1174.16,710.96 1175.47,710.63C1178.33,709.9 1180.94,708.58 1183.45,707.07C1190.49,702.83 1196.61,697.47 1202.18,691.46C1204.92,688.5 1207.43,685.35 1209.62,681.95C1210.81,680.09 1211.86,678.15 1212.68,676.09C1213.39,674.32 1213.61,672.47 1213.63,670.6C1213.65,668.53 1212.21,666.81 1210.11,666.21C1208.36,665.71 1206.67,665.91 1205.08,666.73C1204.38,667.09 1203.89,667.03 1203.25,666.63C1202.28,666.03 1201.24,665.54 1200.17,664.97C1200.49,664.56 1200.9,664.47 1201.27,664.33C1204.46,663.1 1207.72,662.47 1211.12,663.23C1213.81,663.83 1215.79,665.22 1216.18,668.19C1216.29,669 1216.73,669.24 1217.48,669.06C1217.42,669.85 1217.42,670.68 1217.53,671.5Z" style="fill:rgb(178,173,175);fill-rule:nonzero;"/>
            </g>
            <g transform="matrix(1,0,0,1,54.1631,9.33794)">
                <path d="M1092.23,475.237C1069.69,457.775 1043.06,460.499 1023.5,480.686C1000.96,503.969 998.479,537.779 1017.92,561.309C1016.69,563.043 1015.57,565.148 1013.96,566.882C944.359,638.96 868.938,703.731 780.76,752.526C772.958,756.86 764.66,760.328 757.105,764.787C748.932,769.493 742.492,768.75 734.442,763.053C701.128,739.274 673.262,710.542 651.713,675.742C629.545,639.951 615.798,601.063 610.225,559.328C607.996,543.104 609.854,540.132 625.954,534.93C632.146,532.949 638.586,531.71 644.778,529.481C675.244,518.211 675.749,500.33 651.352,479.028C642.806,471.474 631.498,465.368 621.095,461.281C614.283,458.556 619.142,441.675 621.619,434.244C643.54,368.854 683.046,317.211 740.634,279.81C746.826,281.543 747.446,286.993 750.294,290.46C755.495,296.9 760.078,303.959 765.651,310.028C811.597,359.07 880.455,360.928 929.25,314.61C946.836,298.015 959.344,277.952 967.147,255.164C971.605,241.913 972.843,243.523 983.37,246.867C1051.11,268.044 1104.37,308.418 1144,367.244C1149.32,375.17 1149.69,381.486 1145.36,389.908C1137.68,404.645 1129.88,419.383 1120.84,433.254C1111.8,447 1102.14,460.499 1092.23,475.237ZM797.974,566.015C797.479,564.777 797.355,562.052 795.869,560.566C786.457,550.906 776.054,542.237 764.165,535.797C759.954,533.444 755.867,535.426 753.142,538.646C750.17,542.113 750.17,547.067 753.142,550.163C762.555,559.823 772.958,568.616 784.971,574.932C790.544,577.904 797.355,573.198 797.974,566.015ZM922.315,380C919.714,380 917.113,380.867 915.379,383.592C913.15,386.935 913.026,390.527 915.256,393.499C921.324,401.425 928.507,408.361 936.557,414.429C939.529,416.658 943.492,416.411 946.464,413.934C948.694,412.076 950.18,409.475 949.932,406.255C949.313,399.815 929.498,380.619 922.315,380ZM1123.07,711.905C1067.71,668.931 998.603,711.162 988.448,765.653C986.714,775.19 986.219,784.602 988.819,793.89C990.553,800.082 988.076,802.559 982.503,804.045C938.415,815.811 894.078,819.65 849.122,809.618C848.751,809.495 843.979,809.512 843.113,807.654C982.562,723.935 1110.56,589.819 1192.79,447.645C1215.08,518.732 1180.16,650.478 1123.07,711.905Z" style="fill:rgb(217,222,226);fill-rule:nonzero;"/>
            </g>
            <g transform="matrix(1,0,0,1,54.1631,9.33794)">
                <path d="M951.047,238.941C941.139,270.645 925.163,295.414 898.66,312.628C853.457,341.732 795.126,327.738 764.66,275.351C760.697,268.663 763.669,265.939 769.118,263.214C792.154,252.068 816.18,243.894 841.32,239.065C877.235,232.129 913.15,231.51 951.047,238.941ZM1031.55,547.315C1018.54,524.032 1027.21,495.671 1048.88,485.516C1055.45,482.42 1062.38,480.934 1069.57,483.039C1078.73,485.764 1080.22,490.47 1074.15,498.148C1060.9,514.744 1047.52,531.091 1031.55,547.315ZM1010,792.28C1001.33,748.191 1040.71,707.57 1084.67,715.249C1086.41,715.496 1088.27,715.744 1089.88,716.363C1096.32,719.088 1105.11,720.45 1106.6,727.881C1107.84,733.825 1100.28,737.169 1095.94,741.132C1074.4,760.947 1049.88,776.552 1023.37,788.936C1020.15,790.422 1016.81,791.661 1013.47,792.776C1012.35,793.023 1011.11,792.404 1010,792.28Z" style="fill:rgb(103,158,219);fill-rule:nonzero;"/>
            </g>
            <g transform="matrix(1,0,0,1,54.1631,9.33794)">
                <path d="M486.628,443.409C500.375,448.734 510.282,446.133 520.809,434.12C527.868,426.07 532.327,416.163 537.776,406.998C547.064,391.642 552.885,391.146 564.526,404.274C570.471,410.961 574.682,418.764 578.893,426.69C588.305,444.771 602.052,457.899 620.876,465.949C629.545,469.664 638.214,473.751 645.15,480.562C655.8,491.089 654.19,502.111 640.567,509.047C636.357,511.152 631.774,512.886 627.192,513.753C603.909,517.963 590.039,533.32 579.512,552.888C573.319,564.405 567.375,576.047 560.192,586.945C550.904,601.063 545.454,601.063 533.813,589.174C527.497,582.734 522.915,575.18 519.075,567.13C508.301,544.219 490.591,528.119 468.423,516.601C466.317,515.487 464.088,514.62 462.107,513.381C442.291,502.111 440.805,495.176 454.924,477.59C459.011,472.512 464.212,468.054 461.611,460.499C471.89,457.651 477.216,447.496 486.628,443.409ZM1292.61,234.73C1285.43,232.501 1280.97,227.299 1278.12,221.726C1271.19,208.475 1259.67,200.425 1248.03,192.375C1244.56,190.022 1241.09,187.669 1238.12,184.82C1232.05,179 1231.68,172.312 1237.01,165.872C1240.35,161.909 1244.44,158.194 1248.65,154.974C1261.9,144.942 1274.28,134.292 1283.57,120.173C1291,108.78 1294.59,108.903 1301.16,120.049C1309.45,134.168 1320.48,145.314 1333.98,154.231C1337.32,156.46 1340.17,159.68 1343.02,162.776C1348.22,168.349 1346.98,173.303 1341.28,177.761C1340.29,178.504 1339.42,179.247 1338.43,179.867C1318.74,191.384 1305.86,208.599 1296.7,229.157C1295.83,231.386 1293.97,232.996 1292.61,234.73Z" style="fill:rgb(230,186,138);fill-rule:nonzero;"/>
            </g>
        </g>
        <g transform="matrix(1,0,0,1,54.1631,9.33794)">
            <path d="M1065.54,270.087C1065.54,270.087 1142.85,243.402 1163.85,264.939C1189.8,291.553 1180.36,350.493 1168.04,375.771C1122.39,469.425 1010.25,596.77 943.596,649.707C705.139,839.106 639.943,801.552 625.63,774.084C612.162,748.236 649.617,688.186 649.167,685.375" style="fill:none;stroke:rgb(5,0,0);stroke-width:25px;"/>
        </g>
        <g transform="matrix(1,0,0,1,54.1631,9.33794)">
            <path d="M622.706,640.802C613.211,645.639 551.881,739.443 589.737,796.768C649.233,886.862 807.217,814.521 826.258,804.54C827.19,804.051 939.983,738.577 1045.24,636.331C1107.6,575.753 1147.73,516.201 1171.82,473.15C1180.81,457.082 1254.38,301.604 1214.48,246.565C1173.26,189.695 1011.71,242.972 1011.71,242.972" style="fill:none;stroke:rgb(5,0,0);stroke-width:25px;"/>
        </g>
        <g transform="matrix(1,0,0,1,54.1631,9.33794)">
            <path d="M851.671,445.328C849.018,445.44 819.017,448.732 829.263,489.704C835.612,515.091 877.427,534.36 893.181,520.502C904.874,510.216 908.781,489.682 892.545,467.11C885.327,457.075 870.092,444.553 851.671,445.328Z" style="fill:none;stroke:rgb(5,0,0);stroke-width:25px;"/>
        </g>
        <g transform="matrix(1,0,0,1,54.1631,9.33794)">
            <path d="M917.738,384.83C916.915,383.675 943.43,408.976 944.768,409.982" style="fill:none;stroke:rgb(5,0,0);stroke-width:25px;"/>
        </g>
        <g transform="matrix(1,0,0,1,54.1631,9.33794)">
            <path d="M756.226,540C756.113,539.202 793.761,570.288 793.867,571.04" style="fill:none;stroke:rgb(5,0,0);stroke-width:25px;"/>
        </g>
        <g transform="matrix(1,0,0,1,54.1631,9.33794)">
            <path d="M747.967,272.831C747.676,272.3 806.581,361.537 879.016,334.022C944.078,309.308 964.441,241.235 963.707,240.399" style="fill:none;stroke:rgb(5,0,0);stroke-width:25px;"/>
        </g>
        <g transform="matrix(1,0,0,1,54.1631,9.33794)">
            <path d="M1002.34,803.567C1002.34,803.567 983.759,747.258 1034,713.349C1065.7,691.951 1117.06,717.799 1116.99,717.605" style="fill:none;stroke:rgb(5,0,0);stroke-width:25px;"/>
        </g>
        <g transform="matrix(1,0,0,1,54.1631,9.33794)">
            <path d="M1087.91,484.371C1087.91,484.371 1054.28,461.94 1027.62,495.454C1004.07,525.046 1027.14,550.72 1028.28,557.846" style="fill:none;stroke:rgb(5,0,0);stroke-width:25px;"/>
        </g>
        <g transform="matrix(1,0,0,1,54.1631,9.33794)">
            <path d="M600.43,540C600.93,539.988 604.376,610.959 633.692,661.018C668.111,719.789 732.231,775.089 739.457,777.758" style="fill:none;stroke:rgb(5,0,0);stroke-width:25px;"/>
        </g>
        <g transform="matrix(1,0,0,1,54.1631,9.33794)">
            <path d="M818.709,811.352C832.992,815.92 967.449,875.64 1119.63,729.982C1242.15,612.716 1197.84,454.195 1192.79,441.917" style="fill:none;stroke:rgb(5,0,0);stroke-width:25px;"/>
        </g>
        <g transform="matrix(1,0,0,1,54.1631,9.33794)">
            <path d="M609.455,441.917C609.455,441.917 650.863,316.691 781.552,254.647C870.389,212.472 965.701,232.906 968.961,233.612C969.905,233.816 1039.58,244.172 1098.12,296.588C1142.43,336.274 1161.03,377.935 1161.9,382.062" style="fill:none;stroke:rgb(5,0,0);stroke-width:25px;"/>
        </g>
        <g transform="matrix(1,0,0,1,54.1631,9.33794)">
            <path d="M1229.08,173.194C1229.08,173.194 1253.09,161.557 1267.17,145.659C1277.14,134.404 1292.31,109.803 1292.31,109.803C1292.31,109.803 1300.32,127.263 1313.99,141.292C1327.27,154.927 1351.3,166.864 1351.3,166.864C1351.3,166.864 1326.99,178.686 1317.07,189.675C1305.8,202.145 1295.32,233.48 1295.32,233.48C1295.32,233.48 1277.66,208.096 1266.67,198.093C1255.63,188.046 1229.08,173.194 1229.08,173.194Z" style="fill:none;stroke:rgb(5,0,0);stroke-width:25px;"/>
        </g>
        <g transform="matrix(1,0,0,1,54.1631,9.33794)">
            <path d="M424.339,487.998C424.339,487.998 474.121,520.829 494.494,540C514.343,558.677 546.58,603.025 546.58,603.025C546.58,603.025 580.006,551.237 597.868,540.551C645.832,511.858 681.66,506.2 681.66,506.2C681.66,506.2 624.289,474.851 600.43,449.133C580.997,428.185 553.529,377.387 553.529,377.387C553.529,377.387 522.307,421.834 500.857,445.094C483.293,464.139 424.339,487.998 424.339,487.998Z" style="fill:none;stroke:rgb(5,0,0);stroke-width:25px;"/>
        </g>
    </g>
</svg>
