<svg xmlns="http://www.w3.org/2000/svg" viewBox="0 0 824.74 956.01">
	<defs>
		<style>
			.cls-1{fill:#8b79ad;}
			.cls-2{fill:none;stroke:#191919;stroke-linecap:round;stroke-linejoin:round;stroke-width:25px;}
			.cls-3{fill:#c29cef;}
			
			.cls-5{fill:#191919;}
		</style>
	</defs>
	<g id="Слой_2" data-name="Слой 2">
		<g id="Layer_1" data-name="Layer 1">
			<g id="rabbit">
				
				
				<path class="cls-3" d="M734.14,369.08
					  c16-52.2,28.9-118.1,34.4-177.5,11.5-123.9-13.7-172.5-50-175.9
					  s-70,39.8-81.5,163.7
					  a963.83,963.83,0,0,0-1.7,149,299.78,299.78,0,0,0-121.5,1.7,960.15,960.15,0,0,0-6.5-143.6
					  c-15.2-123.4-50.2-165.5-86.4-161
					  s-59.8,53.8-44.5,177.3
					  c7.2,57.7,21.5,121.3,38.5,172.4-43,32.9-69.7,78.7-69.7,129.4,0,100.2,104.5,181.5,233.5,181.5
					  s233.5-81.3,233.5-181.5
					  C812.24,450.68,782,402.38,734.14,369.08
					  Z
					  m-269.6-21.9
					  c-14.8,2-39.8-100.2-49.1-169.4
					  s.8-79.4,15.6-81.3
					  c14.7-2.1,28.6,4.8,37.9,74.1
					  S479.24,345.18,464.54,347.18
					  Z
					  m225.4-6.6
					  c-14.8-1.4-16.4-106.6-9.8-176.1
					  s18.6-77.2,33.4-75.8,26.8,11.2,20.3,80.8
					  S704.74,342,689.94,340.58
					  Z"/>
				
				<path class="cls-2" d="M734.14,366.08c16-52.2,28.9-118.1,34.4-177.5,11.5-123.9-13.7-172.5-50-175.9s-70,39.8-81.5,163.7a963.83,963.83,0,0,0-1.7,149,299.78,299.78,0,0,0-121.5,1.7,960.15,960.15,0,0,0-6.5-143.6c-15.2-123.4-50.2-165.5-86.4-161s-59.8,53.8-44.5,177.3c7.2,57.7,21.5,121.3,38.5,172.4-43,32.9-69.7,78.7-69.7,129.4,0,100.2,104.5,181.5,233.5,181.5s233.5-81.3,233.5-181.5C812.24,447.68,782,399.38,734.14,366.08Z"/>
				
				
				
				
				
		

			</g>
		</g>
	</g>
</svg>