<svg xmlns="http://www.w3.org/2000/svg" viewBox="0 0 824.74 956.01"><defs><style>.cls-1{fill:#8b79ad;}.cls-2{fill:none;stroke:#191919;stroke-linecap:round;stroke-linejoin:round;stroke-width:25px;}.cls-3{fill:#c29cef;}.cls-4{fill:#ff9494;}.cls-5{fill:#191919;}</style></defs><g id="Слой_2" data-name="Слой 2"><g id="Layer_1" data-name="Layer 1"><g id="rabbit"><path class="cls-1" d="M694.24,662.08c-.2-1-.4-2-.6-3.1-33.9,14.9-73.1,23.5-114.9,23.5-115.7,0-211.7-65.4-230.2-151.2q-24.75,5.85-52.8,14.2c-82,24.9-143.5,91.6-166.5,152.6-29.1,77.2-17.3,142.2,42,194,47.5,41.5,129,54,174,51s31-45,31-45,64.5-4.5,88.5-4.5,17.8,16.1,51.5,32.5c19.5,9.5,63-7,62-36-1-29.5-9-63,15-67s34.2,44.1,58,55c24,11,67.5-5.5,66.5-35.5C717,820.18,714.74,779.58,694.24,662.08Z"/><path class="cls-2" d="M694.24,662.08c20.5,117.5,22.8,158.1,23.5,180.5,1,30-42.5,46.5-66.5,35.5-23.8-10.9-34-59-58-55s-16,37.5-15,67c1,29-42.5,45.5-62,36-33.7-16.4-27.5-32.5-51.5-32.5s-88.5,4.5-88.5,4.5,14,42-31,45-126.5-9.5-174-51c-59.3-51.8-71.1-116.8-42-194,23-61,84.5-127.7,166.5-152.5,17.5-5.3,33.9-9.7,49.5-13.5"/><path class="cls-3" d="M734.14,369.08c16-52.2,28.9-118.1,34.4-177.5,11.5-123.9-13.7-172.5-50-175.9s-70,39.8-81.5,163.7a963.83,963.83,0,0,0-1.7,149,299.78,299.78,0,0,0-121.5,1.7,960.15,960.15,0,0,0-6.5-143.6c-15.2-123.4-50.2-165.5-86.4-161s-59.8,53.8-44.5,177.3c7.2,57.7,21.5,121.3,38.5,172.4-43,32.9-69.7,78.7-69.7,129.4,0,100.2,104.5,181.5,233.5,181.5s233.5-81.3,233.5-181.5C812.24,450.68,782,402.38,734.14,369.08Zm-269.6-21.9c-14.8,2-39.8-100.2-49.1-169.4s.8-79.4,15.6-81.3c14.7-2.1,28.6,4.8,37.9,74.1S479.24,345.18,464.54,347.18Zm225.4-6.6c-14.8-1.4-16.4-106.6-9.8-176.1s18.6-77.2,33.4-75.8,26.8,11.2,20.3,80.8S704.74,342,689.94,340.58Z"/><path class="cls-2" d="M734.14,366.08c16-52.2,28.9-118.1,34.4-177.5,11.5-123.9-13.7-172.5-50-175.9s-70,39.8-81.5,163.7a963.83,963.83,0,0,0-1.7,149,299.78,299.78,0,0,0-121.5,1.7,960.15,960.15,0,0,0-6.5-143.6c-15.2-123.4-50.2-165.5-86.4-161s-59.8,53.8-44.5,177.3c7.2,57.7,21.5,121.3,38.5,172.4-43,32.9-69.7,78.7-69.7,129.4,0,100.2,104.5,181.5,233.5,181.5s233.5-81.3,233.5-181.5C812.24,447.68,782,399.38,734.14,366.08Z"/><path class="cls-3" d="M108.34,832.68c19.9-14.6,1.9-33.6-4.1-75.6-4.9-34.4-42-51-68.2-33.6s-31.3,55.9-11.4,86.1S82.94,851.28,108.34,832.68Z"/><path class="cls-2" d="M108.34,832.68c19.9-14.6,1.9-33.6-4.1-75.6-4.9-34.4-42-51-68.2-33.6s-31.3,55.9-11.4,86.1S82.94,851.28,108.34,832.68Z"/><path class="cls-4" d="M468.94,173.88c9.3,69.2,10.3,174.6-4.4,176.6s-39.8-100.2-49.1-169.4.8-79.4,15.6-81.3C445.74,97.68,459.64,104.58,468.94,173.88Z"/><path class="cls-4" d="M733.84,172.78c-6.5,69.6-29.1,172.5-43.9,171.1s-16.4-106.6-9.8-176.1,18.6-77.2,33.4-75.8S740.34,103.18,733.84,172.78Z"/><path class="cls-2" d="M468.94,170.88c9.3,69.2,10.3,174.6-4.4,176.6s-39.8-100.2-49.1-169.4.8-79.4,15.6-81.3C445.74,94.68,459.64,101.58,468.94,170.88Z"/><path class="cls-2" d="M733.84,169.78c-6.5,69.6-29.1,172.5-43.9,171.1s-16.4-106.6-9.8-176.1,18.6-77.2,33.4-75.8S740.34,100.18,733.84,169.78Z"/><path class="cls-2" d="M261.74,788.58s26-10,48,13,22,69,22,69,13-11,29,0,16,29,16,29"/><path class="cls-5" d="M469.74,562.08a25.5,25.5,0,1,1-25.5-25.5A25.48,25.48,0,0,1,469.74,562.08Zm236-27a25.5,25.5,0,1,0,25.5,25.5A25.48,25.48,0,0,0,705.74,535.08ZM600,590.88l-16.8,11.8-18.5-12a12.51,12.51,0,0,0-13.6,21l10.1,6.5-3.1,2.2a12.52,12.52,0,0,0-3.1,17.4,12.31,12.31,0,0,0,10.2,5.3,12.09,12.09,0,0,0,7.2-2.3l11.3-8,9.2,6a12.22,12.22,0,0,0,6.8,2,12.5,12.5,0,0,0,6.8-23l-.8-.5,8.5-6a12.43,12.43,0,1,0-14.2-20.4Z"/></g></g></g></svg>