<svg xmlns="http://www.w3.org/2000/svg" viewBox="0 0 824.74 956.01">
	<defs>
		<style>
			.cls-1{fill:#8b79ad;}
			.cls-2{fill:none;stroke:#191919;stroke-linecap:round;stroke-linejoin:round;stroke-width:25px;}
			.cls-3{fill:#c29cef;}
			.cls-4{fill:#ff9494;}
			.cls-5{fill:#191919;}
		</style>
	</defs>
	<g id="Слой_2" data-name="Слой 2">
		<g id="Layer_1" data-name="Layer 1">
			<g id="rabbit">
				<path class="cls-2" d="M261.74,788.58s26-10,48,13,22,69,22,69,13-11,29,0,16,29,16,29"/>
				<path class="cls-5" d="M469.74,562.08 a25.5,25.5,0,1,1-25.5-25.5 A25.48,25.48,0,0,1,469.74,562.08Z 
					  M705.74,535.08a25.5,25.5,0,1,0,25.5,25.5A25.48,25.48,0,0,0,705.74,535.08Z 
					  M600,590.88l-16.8,11.8-18.5-12 
					  a12.51,12.51,0,0,0-13.6,21l10.1,6.5-3.1,2.2 
					  a12.52,12.52,0,0,0-3.1,17.4,12.31,12.31,0,0,0,10.2,5.3,12.09,12.09,0,0,0,7.2-2.3l11.3-8,9.2,6 
					  a12.22,12.22,0,0,0,6.8,2,12.5,12.5,0,0,0,6.8-23l-.8-.5,8.5-6a12.43,12.43,0,1,0-14.2-20.4Z"/>

			</g>
		</g>
	</g>
</svg>