<?xml version="1.0" encoding="utf-8"?>
<!-- Generator: Adobe Illustrator 22.1.0, SVG Export Plug-In . SVG Version: 6.00 Build 0)  -->
<svg version="1.1" xmlns="http://www.w3.org/2000/svg" xmlns:xlink="http://www.w3.org/1999/xlink" x="0px" y="0px"
	 viewBox="0 0 1024 1024" style="enable-background:new 0 0 1024 1024;" xml:space="preserve">
<style type="text/css">
	.st0{display:none;}
	.st1{fill:#3C91E5;}
	.st2{fill:#070707;}
	.st3{fill:#FFFFFF;}
	.st4{display:inline;}
	.st5{fill:#C1282E;}
	.st6{fill:#B4E85B;}
	.st7{fill:#8B6239;}
	.st8{fill:#FFDB43;}
	.st9{fill:#191919;}
	.st10{fill:#FF8327;}
	.st11{display:inline;fill:#1E1E1E;}
	.st12{fill:#CC50FF;}
	.st13{display:inline;fill:#CC50FF;}
	.st14{fill:#47F4F4;}
	.st15{fill:#161616;}
	.st16{display:inline;fill:none;stroke:#161616;stroke-width:25;stroke-linecap:round;stroke-miterlimit:10;}
	.st17{fill:#FF52C1;}
	.st18{display:inline;fill:#3774EF;}
	.st19{display:inline;fill:none;stroke:#070707;stroke-width:25;stroke-linecap:round;stroke-miterlimit:10;}
	.st20{display:inline;fill:#97EF5E;stroke:#070707;stroke-width:25;stroke-linecap:round;stroke-miterlimit:10;}
	.st21{display:inline;fill:#FFDB43;}
	.st22{display:inline;fill:#FF3636;}
	.st23{display:inline;fill:#2EE1FF;}
	.st24{display:inline;fill:none;stroke:#161616;stroke-width:25;stroke-linecap:round;stroke-linejoin:round;stroke-miterlimit:10;}
	.st25{display:inline;fill:#FFE131;}
	.st26{display:inline;fill:#EF45EF;}
	.st27{display:inline;fill:#FFE631;}
	.st28{display:inline;fill:none;stroke:#191919;stroke-width:25;stroke-linecap:round;stroke-linejoin:round;stroke-miterlimit:10;}
	.st29{display:inline;fill:#FF4343;}
	.st30{display:inline;fill:#353535;}
	.st31{display:inline;fill:#8B79AD;}
	.st32{display:inline;fill:#C29CEF;}
	.st33{display:inline;fill:#FF9494;}
	.st34{display:inline;fill:#191919;}
</style>
<g id="rabbit" >
	<path class="st31" d="M624,566c74.6,10.4,145.5,84,156,144c20.5,117.5,22.8,158.1,23.5,180.5c1,30-42.5,46.5-66.5,35.5
		c-23.8-10.9-34-59-58-55s-16,37.5-15,67c1,29-42.5,45.5-62,36c-33.7-16.4-27.5-32.5-51.5-32.5S462,946,462,946s14,42-31,45
		s-126.5-9.5-174-51c-59.3-51.8-71.1-116.8-42-194c23-61,84.5-127.7,166.5-152.5C505.1,556.2,579.3,559.8,624,566z"/>
	<path class="st28" d="M624,566c74.6,10.4,145.5,84,156,144c20.5,117.5,22.8,158.1,23.5,180.5c1,30-42.5,46.5-66.5,35.5
		c-23.8-10.9-34-59-58-55s-16,37.5-15,67c1,29-42.5,45.5-62,36c-33.7-16.4-27.5-32.5-51.5-32.5S462,946,462,946s14,42-31,45
		s-126.5-9.5-174-51c-59.3-51.8-71.1-116.8-42-194c23-61,84.5-127.7,166.5-152.5C505.1,556.2,579.3,559.8,624,566z"/>
	<path class="st32" d="M819.9,417c16-52.2,28.9-118.1,34.4-177.5c11.5-123.9-13.7-172.5-50-175.9c-36.3-3.4-70,39.8-81.5,163.7
		c-4.5,48.2-4.9,101.6-1.7,149c-18.1-3.5-37.1-5.4-56.7-5.4c-22.5,0-44.2,2.5-64.8,7.1c1.4-46.1-0.7-97.3-6.5-143.6
		C577.9,111,542.9,68.9,506.7,73.4c-36.2,4.5-59.8,53.8-44.5,177.3c7.2,57.7,21.5,121.3,38.5,172.4C457.7,456,431,501.8,431,552.5
		C431,652.7,535.5,734,664.5,734S898,652.7,898,552.5C898,498.6,867.8,450.3,819.9,417z"/>
	<path class="st28" d="M819.9,414c16-52.2,28.9-118.1,34.4-177.5c11.5-123.9-13.7-172.5-50-175.9c-36.3-3.4-70,39.8-81.5,163.7
		c-4.5,48.2-4.9,101.6-1.7,149c-18.1-3.5-37.1-5.4-56.7-5.4c-22.5,0-44.2,2.5-64.8,7.1c1.4-46.1-0.7-97.3-6.5-143.6
		C577.9,108,542.9,65.9,506.7,70.4c-36.2,4.5-59.8,53.8-44.5,177.3c7.2,57.7,21.5,121.3,38.5,172.4C457.7,453,431,498.8,431,549.5
		C431,649.7,535.5,731,664.5,731S898,649.7,898,549.5C898,495.6,867.8,447.3,819.9,414z"/>
	<path class="st32" d="M194.1,880.6C214,866,196,847,190,805c-4.9-34.4-42-51-68.2-33.6c-26.2,17.4-31.3,55.9-11.4,86.1
		S168.7,899.2,194.1,880.6z"/>
	<path class="st28" d="M194.1,880.6C214,866,196,847,190,805c-4.9-34.4-42-51-68.2-33.6c-26.2,17.4-31.3,55.9-11.4,86.1
		S168.7,899.2,194.1,880.6z"/>
	<path class="st33" d="M554.7,221.8c9.3,69.2,10.3,174.6-4.4,176.6c-14.8,2-39.8-100.2-49.1-169.4s0.8-79.4,15.6-81.3
		C531.5,145.6,545.4,152.5,554.7,221.8z"/>
	<path class="st33" d="M819.6,220.7c-6.5,69.6-29.1,172.5-43.9,171.1c-14.8-1.4-16.4-106.6-9.8-176.1c6.5-69.6,18.6-77.2,33.4-75.8
		S826.1,151.1,819.6,220.7z"/>
	<path class="st28" d="M554.7,218.8c9.3,69.2,10.3,174.6-4.4,176.6c-14.8,2-39.8-100.2-49.1-169.4s0.8-79.4,15.6-81.3
		C531.5,142.6,545.4,149.5,554.7,218.8z"/>
	<path class="st28" d="M819.6,217.7c-6.5,69.6-29.1,172.5-43.9,171.1c-14.8-1.4-16.4-106.6-9.8-176.1c6.5-69.6,18.6-77.2,33.4-75.8
		S826.1,148.1,819.6,217.7z"/>
	<path class="st28" d="M347.5,836.5c0,0,26-10,48,13s22,69,22,69s13-11,29,0s16,29,16,29"/>
	<path class="st34" d="M555.5,610c0,14.1-11.4,25.5-25.5,25.5s-25.5-11.4-25.5-25.5s11.4-25.5,25.5-25.5S555.5,595.9,555.5,610z
		 M791.5,583c-14.1,0-25.5,11.4-25.5,25.5s11.4,25.5,25.5,25.5s25.5-11.4,25.5-25.5S805.6,583,791.5,583z M685.8,638.8L669,650.6
		l-18.5-12c-5.8-3.8-13.5-2.1-17.3,3.7c-3.8,5.8-2.1,13.5,3.7,17.3l10.1,6.5l-3.1,2.2c-5.7,4-7,11.8-3.1,17.4
		c2.4,3.5,6.3,5.3,10.2,5.3c2.5,0,5-0.7,7.2-2.3l11.3-8l9.2,6c2.1,1.4,4.5,2,6.8,2c4.1,0,8.1-2,10.5-5.7c3.8-5.8,2.1-13.5-3.7-17.3
		l-0.8-0.5l8.5-6c5.7-4,7-11.8,3.1-17.4C699.3,636.2,691.5,634.9,685.8,638.8z"/>
</g>
</svg>
