<?xml version="1.0" encoding="UTF-8" standalone="no"?>
<!DOCTYPE svg PUBLIC "-//W3C//DTD SVG 1.1//EN" "http://www.w3.org/Graphics/SVG/1.1/DTD/svg11.dtd">
<svg width="100%" height="100%" viewBox="0 0 842 596" version="1.1" xmlns="http://www.w3.org/2000/svg" xmlns:xlink="http://www.w3.org/1999/xlink" xml:space="preserve" xmlns:serif="http://www.serif.com/" style="fill-rule:evenodd;clip-rule:evenodd;stroke-linejoin:round;stroke-miterlimit:2;">
    <g transform="matrix(6.95892,0,0,6.95892,-3948.72,-2850.71)">
        <g id="Слой-1">
            <path d="M655.796,419.152C654.01,420.938 653.067,422.228 652.968,423.022C652.869,423.816 653.117,424.56 653.712,425.255C654.307,425.949 654.903,426.445 655.498,426.743C656.093,427.041 656.738,427.686 657.433,428.678C658.128,429.67 658.723,430.166 659.219,430.166C659.715,430.166 660.36,429.521 661.154,428.231C661.948,426.942 662.841,425.949 663.833,425.255C664.825,424.56 665.371,423.866 665.47,423.171C665.569,422.476 665.024,421.583 663.833,420.492C662.642,419.4 661.799,418.458 661.303,417.664C660.807,416.87 660.211,416.473 659.517,416.473C658.822,416.473 657.582,417.366 655.796,419.152ZM659.368,417.962C660.112,418.706 660.856,419.45 661.6,420.194C663.089,421.683 663.833,422.625 663.833,423.022C663.833,423.419 663.337,423.965 662.345,424.659C661.352,425.354 660.658,426.148 660.261,427.041C659.864,427.934 659.566,428.38 659.368,428.38C659.169,428.38 658.624,427.835 657.731,426.743C656.838,425.652 656.093,424.957 655.498,424.659C654.903,424.362 654.605,423.965 654.605,423.469C654.605,422.973 655.399,421.931 656.986,420.343C657.78,419.549 658.574,418.756 659.368,417.962ZM639.424,425.552C637.638,426.049 636.348,426.545 635.554,427.041C634.76,427.537 633.52,427.587 631.833,427.19C630.146,426.793 628.36,426.594 626.475,426.594C624.59,426.594 622.456,426.892 620.075,427.487C617.693,428.083 615.61,428.876 613.824,429.869C612.038,430.861 610.351,432.101 608.763,433.59C607.176,435.078 605.935,436.467 605.042,437.757C604.149,439.047 603.405,440.486 602.81,442.073C602.512,442.867 602.214,443.661 601.917,444.455C601.42,443.76 600.924,443.066 600.428,442.371C599.436,440.982 598.493,440.287 597.6,440.287C596.707,440.287 595.963,440.783 595.368,441.776C594.772,442.768 594.078,443.512 593.284,444.008C592.49,444.504 592.193,445.001 592.391,445.497C592.589,445.993 592.937,446.191 593.433,446.092C593.929,445.993 594.425,445.695 594.921,445.199C595.417,444.703 595.765,444.157 595.963,443.562C596.162,442.966 596.558,442.52 597.154,442.222C597.749,441.925 598.444,442.421 599.238,443.711C600.031,445.001 600.776,445.943 601.47,446.539C602.165,447.134 602.909,447.58 603.703,447.878C604.496,448.176 605.092,448.573 605.489,449.069C605.886,449.565 605.935,450.061 605.638,450.557C605.34,451.053 604.745,451.401 603.851,451.599C602.958,451.797 602.165,452.194 601.47,452.79C600.776,453.385 599.932,454.526 598.94,456.213C598.444,457.056 597.948,457.9 597.451,458.743C597.104,458.495 596.757,458.247 596.41,457.999C595.715,457.503 595.169,456.808 594.772,455.915C594.375,455.022 593.83,454.228 593.135,453.534C592.441,452.839 591.548,452.194 590.456,451.599C589.365,451.004 588.819,450.458 588.819,449.962C588.819,449.466 589.017,449.069 589.414,448.771C589.811,448.473 590.01,448.126 590.01,447.729C590.01,447.332 589.861,447.084 589.563,446.985C589.265,446.886 588.869,447.084 588.372,447.58C587.876,448.076 587.579,448.821 587.479,449.813C587.38,450.805 588.273,452.045 590.158,453.534C592.044,455.022 593.086,456.064 593.284,456.659C593.482,457.255 593.929,457.949 594.624,458.743C595.318,459.537 596.162,459.934 597.154,459.934C598.146,459.934 599.039,459.388 599.833,458.297C600.23,457.751 600.627,457.205 601.024,456.659C601.172,457.255 601.321,457.85 601.47,458.446C601.768,459.636 601.619,460.678 601.024,461.571C600.428,462.464 599.882,463.704 599.386,465.292C598.89,466.88 598.642,468.666 598.642,470.65C598.642,472.635 598.94,474.272 599.535,475.562C600.131,476.852 600.825,477.844 601.619,478.539C602.413,479.233 603.355,479.779 604.447,480.176C605.538,480.573 606.977,480.771 608.763,480.771C610.549,480.771 612.286,480.523 613.972,480.027C615.659,479.531 616.949,478.985 617.842,478.39C618.735,477.794 619.876,477.646 621.265,477.943C622.655,478.241 624.788,478.34 627.665,478.241C630.543,478.142 633.47,477.497 636.447,476.306C639.424,475.115 642.003,473.528 644.186,471.543C646.369,469.559 648.007,467.624 649.098,465.739C650.19,463.853 651.033,461.869 651.628,459.785C652.224,457.701 652.571,455.965 652.67,454.576C652.769,453.187 652.621,451.252 652.224,448.771C651.827,446.29 652.174,443.76 653.266,441.18C654.357,438.601 654.903,437.013 654.903,436.418C654.903,435.822 654.704,435.475 654.307,435.376C653.91,435.276 653.266,436.566 652.373,439.245C651.479,441.925 650.09,444.901 648.205,448.176C646.32,451.45 644.633,454.03 643.145,455.915C641.656,457.801 639.672,459.983 637.191,462.464C634.71,464.945 632.329,467.078 630.047,468.864C627.765,470.65 624.689,472.635 620.819,474.818C616.949,477.001 614.27,478.291 612.782,478.687C611.293,479.084 609.954,479.283 608.763,479.283C607.572,479.283 606.332,479.035 605.042,478.539C603.752,478.042 602.76,477.397 602.065,476.604C601.371,475.81 600.875,474.917 600.577,473.925C600.279,472.932 600.18,471.543 600.279,469.757C600.379,467.971 600.776,466.284 601.47,464.697C601.817,463.903 602.165,463.109 602.512,462.315C602.958,463.059 603.405,463.804 603.851,464.548C604.745,466.036 604.943,467.475 604.447,468.864C603.951,470.253 603.851,471.593 604.149,472.883C604.447,474.173 604.943,475.016 605.638,475.413C606.332,475.81 607.324,476.008 608.614,476.008C609.904,476.008 611.591,475.611 613.675,474.818C615.758,474.024 618.14,472.784 620.819,471.097C623.498,469.41 626.376,467.277 629.452,464.697C632.528,462.117 635.157,459.686 637.34,457.404C639.523,455.121 641.904,452.145 644.484,448.473C647.064,444.802 648.652,442.222 649.247,440.734C649.842,439.245 650.19,437.608 650.289,435.822C650.388,434.036 650.289,432.845 649.991,432.25C649.693,431.655 649.197,431.109 648.503,430.613C647.808,430.117 646.766,429.819 645.377,429.72C643.988,429.621 642.797,429.769 641.805,430.166C640.813,430.563 639.672,430.365 638.382,429.571C637.737,429.174 637.092,428.777 636.447,428.38C637.29,428.083 638.134,427.785 638.977,427.487C640.664,426.892 642.599,426.594 644.782,426.594C646.965,426.594 648.602,426.842 649.693,427.338C650.785,427.835 651.579,428.43 652.075,429.125C652.571,429.819 652.869,430.563 652.968,431.357C653.067,432.151 653.365,432.548 653.861,432.548L654.605,432.548L654.605,431.357C654.605,430.563 654.109,429.521 653.117,428.231C652.124,426.942 650.983,426.049 649.693,425.552C648.404,425.056 646.816,424.808 644.931,424.808C643.045,424.808 641.21,425.056 639.424,425.552ZM626.772,428.529C628.112,428.579 629.452,428.628 630.791,428.678C630.543,429.323 630.295,429.968 630.047,430.613C629.551,431.903 628.707,433.044 627.517,434.036C626.326,435.028 625.433,435.624 624.838,435.822C624.242,436.021 623.25,436.07 621.861,435.971C620.472,435.872 619.43,435.624 618.735,435.227C618.041,434.83 617.247,434.086 616.354,432.994C615.907,432.449 615.461,431.903 615.014,431.357C615.51,431.059 616.007,430.762 616.503,430.464C617.495,429.869 618.785,429.373 620.372,428.976C621.96,428.579 624.093,428.43 626.772,428.529ZM634.512,429.571C635.802,429.968 637.29,430.663 638.977,431.655C640.664,432.647 642.252,433.887 643.74,435.376C645.228,436.864 646.221,437.956 646.717,438.65C647.213,439.345 647.461,439.89 647.461,440.287C647.461,440.684 646.667,442.173 645.079,444.752C644.286,446.042 643.492,447.332 642.698,448.622C642.5,448.424 642.301,448.225 642.103,448.027C641.706,447.63 641.11,447.432 640.317,447.432C639.523,447.432 638.679,447.729 637.786,448.325C636.893,448.92 636.298,449.515 636,450.111C635.703,450.706 635.554,451.599 635.554,452.79C635.554,453.98 635.752,454.774 636.149,455.171C636.348,455.37 636.546,455.568 636.745,455.766C635.951,456.56 635.157,457.354 634.363,458.148C632.776,459.735 630.245,461.918 626.772,464.697C623.3,467.475 620.224,469.559 617.545,470.948C614.865,472.337 612.434,472.039 610.251,470.055C608.069,468.07 606.332,465.788 605.042,463.208C603.752,460.628 602.958,458.495 602.661,456.808C602.363,455.121 602.859,454.03 604.149,453.534C605.439,453.038 606.332,452.492 606.828,451.897C607.324,451.301 607.523,450.557 607.424,449.664C607.324,448.771 606.58,447.878 605.191,446.985C603.802,446.092 603.207,445.298 603.405,444.604C603.603,443.909 604.298,442.52 605.489,440.436C606.679,438.352 608.267,436.418 610.251,434.632C612.236,432.845 613.923,432.697 615.312,434.185C616.701,435.673 617.842,436.616 618.735,437.013C619.628,437.41 620.571,437.658 621.563,437.757C622.555,437.856 623.945,437.559 625.731,436.864C627.517,436.169 628.856,435.326 629.749,434.334C630.642,433.342 631.337,432.2 631.833,430.911C632.329,429.621 633.222,429.174 634.512,429.571ZM644.931,431.357C646.221,431.357 647.064,431.506 647.461,431.804C647.858,432.101 648.155,432.498 648.354,432.994C648.552,433.49 648.602,434.483 648.503,435.971C648.453,436.715 648.404,437.459 648.354,438.204C647.362,437.211 646.369,436.219 645.377,435.227C643.393,433.242 642.5,432.101 642.698,431.804C642.897,431.506 643.641,431.357 644.931,431.357ZM627.963,441.18C627.864,441.577 628.062,442.024 628.559,442.52C629.055,443.016 629.551,443.264 630.047,443.264L630.791,443.264L630.791,442.669C630.791,442.272 630.593,441.875 630.196,441.478C629.799,441.081 629.352,440.833 628.856,440.734C628.36,440.635 628.062,440.783 627.963,441.18ZM621.414,446.539C620.918,446.935 620.72,447.68 620.819,448.771C620.918,449.863 621.315,450.756 622.01,451.45C622.704,452.145 623.548,452.492 624.54,452.492C625.532,452.492 626.177,452.294 626.475,451.897C626.772,451.5 626.921,450.954 626.921,450.259C626.921,449.565 626.772,448.92 626.475,448.325C626.177,447.729 625.78,447.233 625.284,446.836C624.788,446.439 624.143,446.191 623.349,446.092C622.555,445.993 621.91,446.142 621.414,446.539ZM622.456,447.729C622.853,447.878 623.25,448.027 623.647,448.176C624.441,448.473 624.887,449.019 624.986,449.813C625.036,450.21 625.086,450.607 625.135,451.004C624.738,450.855 624.341,450.706 623.945,450.557C623.151,450.259 622.704,449.714 622.605,448.92C622.555,448.523 622.506,448.126 622.456,447.729ZM650.438,448.027C650.636,448.027 650.785,448.374 650.884,449.069C650.983,449.763 650.934,451.549 650.735,454.427C650.537,457.304 650.239,459.339 649.842,460.529C649.445,461.72 648.751,463.159 647.759,464.846C646.766,466.532 646.121,467.525 645.824,467.822C645.526,468.12 644.98,468.021 644.186,467.525C643.393,467.028 642.4,466.78 641.21,466.78C640.019,466.78 639.076,466.929 638.382,467.227C637.687,467.525 636.844,468.269 635.852,469.459C634.859,470.65 634.314,471.99 634.214,473.478C634.115,474.966 633.966,475.76 633.768,475.859C633.569,475.959 632.676,476.157 631.089,476.455C629.501,476.753 627.616,476.802 625.433,476.604C624.341,476.504 623.25,476.405 622.158,476.306C623.945,475.066 625.731,473.825 627.517,472.585C631.089,470.104 634.363,467.425 637.34,464.548C640.317,461.67 642.698,459.09 644.484,456.808C646.27,454.526 647.659,452.492 648.652,450.706C649.644,448.92 650.239,448.027 650.438,448.027ZM640.317,448.92C640.714,448.92 641.061,449.069 641.359,449.366C641.507,449.515 641.656,449.664 641.805,449.813C641.061,450.557 640.317,451.301 639.572,452.045C638.828,452.79 638.084,453.534 637.34,454.278C637.29,453.832 637.241,453.385 637.191,452.939C637.092,452.045 637.489,451.152 638.382,450.259C639.275,449.366 639.92,448.92 640.317,448.92ZM614.419,453.683C614.22,453.881 614.171,454.129 614.27,454.427C614.369,454.725 614.717,455.121 615.312,455.618C615.907,456.114 616.503,456.411 617.098,456.511C617.396,456.56 617.693,456.61 617.991,456.659L617.991,456.064C617.991,455.667 617.594,455.121 616.8,454.427C616.007,453.732 615.461,453.385 615.163,453.385C614.865,453.385 614.617,453.484 614.419,453.683ZM641.656,468.418C642.549,468.517 643.194,468.765 643.591,469.162C643.79,469.36 643.988,469.559 644.186,469.757C643.442,470.353 642.698,470.948 641.954,471.543C640.466,472.734 639.076,473.627 637.786,474.222C637.141,474.52 636.497,474.818 635.852,475.115C635.802,474.768 635.752,474.421 635.703,474.073C635.603,473.379 635.653,472.734 635.852,472.139C636.05,471.543 636.397,470.948 636.893,470.353C637.39,469.757 638.084,469.261 638.977,468.864C639.87,468.467 640.763,468.318 641.656,468.418ZM606.084,468.566C607.027,469.459 607.969,470.353 608.912,471.246C609.855,472.139 610.797,473.032 611.74,473.925C611.045,474.024 610.351,474.123 609.656,474.222C608.267,474.421 607.324,474.421 606.828,474.222C606.332,474.024 605.985,473.776 605.786,473.478C605.588,473.18 605.489,472.535 605.489,471.543C605.489,470.551 605.588,469.807 605.786,469.311C605.886,469.063 605.985,468.815 606.084,468.566Z" style="fill-rule:nonzero;"/>
        </g>
    </g>
</svg>
