<svg xmlns="http://www.w3.org/2000/svg" viewBox="0 0 706.6 813"><defs><style>.cls-1{fill:#cc50ff;}.cls-2{fill:#47f4f4;}.cls-3,.cls-4{fill:none;stroke:#161616;stroke-linecap:round;stroke-width:25px;}.cls-3{stroke-linejoin:round;}.cls-4{stroke-miterlimit:10;}</style></defs><g id="Слой_2" data-name="Слой 2"><g id="Layer_1" data-name="Layer 1"><g id="sock"><path class="cls-1" d="M355.1,731c9-26.2,53.4-138.5,166.2-184.3,74.6-30.2,111-35.1,140.2-33.6a355.48,355.48,0,0,0-52-61.8,1138.08,1138.08,0,0,1-78.6-83.4C441.5,262.7,410.1,243.4,407.7,189S388.4,13.8,388.4,13.8H57.2V254.5c62.7,8.8,146.6,52.3,155.9,132.7,8.1,70.1-16.6,135.5-47.6,173.9-.7-.4,34.9,21.8,56.1,35.2C300.1,645.8,362,737.7,355.1,731Z"/><path class="cls-2" d="M694.1,612.6a190.93,190.93,0,0,0-1.5-24,6.75,6.75,0,0,0-.2-1.4c-3.5-26.2-15.6-51.7-30.1-74.1-29.3-1.6-65.8,3.1-141,33.6C408.4,592.5,364.1,704.9,355.1,731a147,147,0,0,0,21.8,17.9A187.87,187.87,0,0,0,694.1,612.6Z"/><path class="cls-2" d="M56.8,254.5A186.78,186.78,0,0,0,12.5,375.7c0,91.1,49.6,128.7,151,184.3.7.4,1.3.7,2,1.1,31.1-38.4,55.7-103.8,47.6-173.9C203.8,306.7,119.6,263.2,56.8,254.5Z"/><path class="cls-3" d="M692.6,588.6a6.75,6.75,0,0,0-.2-1.4c-7.9-58.5-58.6-114.1-82.9-137.2a1138.08,1138.08,0,0,1-78.6-83.4C441.5,261.5,410.1,242.1,407.7,187.8S388.3,12.5,388.3,12.5H57.2V254A187.19,187.19,0,0,0,12.5,375.7c0,91.1,49.6,128.7,151,184.3,34.8,19.1,36.9,21.7,58.1,35.1,78.5,49.5,105.1,120.4,155.2,153.8h0a187.12,187.12,0,0,0,129.3,51.6c103.9,0,188-84.1,188-187.9A188.59,188.59,0,0,0,692.6,588.6Z"/><path class="cls-4" d="M57.1,254.5s99.8,21.6,133,74.2c58.8,93-3.2,197.8-22,225.7"/><path class="cls-4" d="M656.1,513.3c-22.1,1.3-106,8.6-164.6,47.8C409.6,616,359.3,719.6,359.3,719.6"/></g></g></g></svg>