<?xml version="1.0" encoding="UTF-8" standalone="no" ?>
<!DOCTYPE svg PUBLIC "-//W3C//DTD SVG 1.1//EN" "http://www.w3.org/Graphics/SVG/1.1/DTD/svg11.dtd">
<svg xmlns="http://www.w3.org/2000/svg" xmlns:xlink="http://www.w3.org/1999/xlink" version="1.1" width="1080" height="1080" viewBox="0 0 1080 1080" xml:space="preserve">
<desc>Created with Fabric.js 4.2.0</desc>
<defs>
</defs>
<g transform="matrix(1 0 0 1 540 540)" id="6fb0623e-d77d-404f-91af-e1b3af283d29"  >
</g>

<g transform="matrix(1 0 0 1 520.05 319.32)"  >
<path style="stroke: rgb(0,0,0); stroke-width: 30; stroke-dasharray: none; stroke-linecap: round; stroke-dashoffset: 0; stroke-linejoin: round; stroke-miterlimit: 10; fill: none; fill-rule: nonzero; opacity: 1;" vector-effect="non-scaling-stroke"  transform=" translate(-520.05, -319.32)" d="M 556.5251768488746 476.4910128617363 Q 556.4951768488746 476.4610128617363 555.6270096463022 476.4610128617363 Q 554.7588424437299 476.4610128617363 553.8906752411576 475.59284565916397 Q 553.0225080385852 474.7246784565916 551.2861736334405 472.9883440514469 Q 549.5498392282958 471.25200964630227 546.0771704180064 467.77934083601286 Q 542.604501607717 464.30667202572346 538.2636655948553 459.0976688102894 Q 533.9228295819936 453.8886655948553 526.9774919614148 444.3388263665595 Q 520.032154340836 434.7889871382637 507.00964630225076 419.1619774919614 Q 493.9871382636656 403.53496784565914 480.09646302250803 387.0397909967845 Q 466.20578778135047 370.54461414790995 457.524115755627 358.3902733118971 Q 448.84244372990355 346.2359324758842 446.2379421221865 336.6860932475884 Q 443.63344051446944 327.1362540192926 442.7652733118971 317.58641479099674 Q 441.89710610932474 308.03657556270093 441.89710610932474 299.3549035369775 Q 441.89710610932474 290.673231511254 443.63344051446944 281.1233922829582 Q 445.36977491961414 271.5735530546624 448.8424437299035 262.0237138263666 Q 452.3151125401929 252.47387459807072 459.2604501607717 242.9240353697749 Q 466.20578778135047 233.3741961414791 475.75562700964633 225.56069131832797 Q 485.30546623794214 217.74718649517683 497.45980707395495 209.06551446945338 Q 509.6141479099678 200.3838424437299 523.5048231511254 192.57033762057875 Q 537.395498392283 184.75683279742765 551.2861736334405 178.67966237942122 Q 565.176848874598 172.60249196141478 575.5948553054661 169.12982315112538 Q 586.0128617363343 165.657154340836 592.0900321543409 163.92081993569133 L 598.1972025723472 162.15448553054662" stroke-linecap="round" />
</g>
<g transform="matrix(1 0 0 1 711.01 435.78)"  >
<path style="stroke: rgb(0,0,0); stroke-width: 30; stroke-dasharray: none; stroke-linecap: round; stroke-dashoffset: 0; stroke-linejoin: round; stroke-miterlimit: 10; fill: none; fill-rule: nonzero; opacity: 1;" vector-effect="non-scaling-stroke"  transform=" translate(-711.01, -435.78)" d="M 561.6741800643086 483.43635048231505 Q 561.7041800643086 483.4063504823151 562.572347266881 483.4063504823151 Q 563.4405144694533 483.4063504823151 565.176848874598 482.5381832797427 Q 566.9131832797427 481.67001607717043 570.3858520900321 479.0655144694534 Q 573.8585209003215 476.4610128617363 580.8038585209003 469.5156752411575 Q 587.749196141479 462.57033762057875 597.2990353697749 451.28416398713824 Q 606.8488745980708 439.99799035369773 615.5305466237942 427.84364951768487 Q 624.2122186495177 415.689308681672 631.1575562700964 403.53496784565914 Q 638.1028938906752 391.3806270096463 645.048231511254 379.2262861736334 Q 651.9935691318328 367.07194533762055 659.8070739549839 355.78577170418004 Q 667.620578778135 344.4995980707395 675.4340836012861 335.81792604501607 Q 683.2475884244373 327.1362540192926 691.0610932475884 321.92725080385856 Q 698.8745980707396 316.71824758842445 705.8199356913183 313.24557877813504 Q 712.7652733118971 309.77290996784564 717.9742765273312 308.9047427652733 Q 723.1832797427653 308.03657556270093 729.2604501607717 308.9047427652733 Q 735.3376205787781 309.77290996784564 739.6784565916398 313.24557877813504 Q 744.0192926045016 316.71824758842445 750.096463022508 322.79541800643085 Q 756.1736334405144 328.8725884244373 763.1189710610932 340.1587620578778 Q 770.0643086816721 351.44493569131834 783.0868167202573 373.149115755627 Q 796.1093247588424 394.8532958199357 809.1318327974276 418.29381028938906 Q 822.1543408360128 441.73432475884243 833.4405144694533 464.30667202572346 Q 844.7266881028938 486.8790192926045 850.8038585209003 505.97869774919616 Q 856.8810289389068 525.0783762057878 858.6173633440515 538.100884244373 Q 860.3536977491962 551.1233922829582 860.3536977491962 557.2005627009646 L 860.3536977491962 563.307733118971" stroke-linecap="round" />
</g>
<g transform="matrix(1 0 0 1 667.83 625.79)"  >
<path style="stroke: rgb(0,0,0); stroke-width: 30; stroke-dasharray: none; stroke-linecap: round; stroke-dashoffset: 0; stroke-linejoin: round; stroke-miterlimit: 10; fill: none; fill-rule: nonzero; opacity: 1;" vector-effect="non-scaling-stroke"  transform=" translate(-667.83, -625.79)" d="M 572.1521864951768 488.5853536977492 Q 572.1221864951768 488.6153536977492 571.2540192926044 488.6153536977492 Q 570.3858520900321 488.6153536977492 569.5176848874598 489.48352090032154 Q 568.6495176848874 490.3516881028939 565.176848874598 492.95618971061094 Q 561.7041800643086 495.56069131832794 556.4951768488745 501.63786173633434 Q 551.2861736334405 507.7150321543408 545.209003215434 514.6603697749196 Q 539.1318327974276 521.6057073954984 533.9228295819935 531.1555466237942 Q 528.7138263665595 540.70538585209 527.8456591639872 552.8597266881029 Q 526.9774919614148 565.0140675241157 530.4501607717042 577.1684083601285 Q 533.9228295819936 589.3227491961414 541.7363344051447 603.213424437299 Q 549.5498392282958 617.1040996784566 561.7041800643087 631.8629421221865 Q 573.8585209003215 646.6217845659164 586.8810289389068 662.2487942122186 Q 599.903536977492 677.8758038585208 616.3987138263665 693.502813504823 Q 632.8938906752411 709.1298231511254 656.3344051446945 722.1523311897106 Q 679.7749196141478 735.1748392282958 704.0836012861736 742.9883440514469 Q 728.3922829581993 750.801848874598 752.700964630225 755.1426848874598 Q 777.0096463022508 759.4835209003215 792.636655948553 761.2198553054662 L 808.2936655948553 762.9861897106109" stroke-linecap="round" />
</g>
<g transform="matrix(1 0 0 1 389.15 641.43)"  >
<path style="stroke: rgb(0,0,0); stroke-width: 30; stroke-dasharray: none; stroke-linecap: round; stroke-dashoffset: 0; stroke-linejoin: round; stroke-miterlimit: 10; fill: none; fill-rule: nonzero; opacity: 1;" vector-effect="non-scaling-stroke"  transform=" translate(-389.15, -641.43)" d="M 532.2164951768489 485.1426848874598 Q 532.1864951768489 485.1426848874598 530.4501607717042 485.1426848874598 Q 528.7138263665595 485.1426848874598 525.2411575562701 485.1426848874598 Q 521.7684887459807 485.1426848874598 513.9549839228296 486.8790192926045 Q 506.14147909967846 488.6153536977492 491.38263665594855 490.3516881028939 Q 476.6237942122186 492.0880225080386 460.9967845659164 493.82435691318324 Q 445.36977491961414 495.56069131832794 430.6109324758842 496.4288585209003 Q 415.8520900321543 497.29702572347264 403.69774919614144 500.76969453376205 Q 391.54340836012864 504.24236334405145 377.65273311897107 508.58319935691316 Q 363.7620578778135 512.9240353697749 351.60771704180064 519.8693729903537 Q 339.4533762057878 526.8147106109325 325.5627009646302 535.4963826366559 Q 311.67202572347264 544.1780546623794 300.38585209003213 553.7278938906752 Q 289.0996784565916 563.277733118971 278.68167202572346 578.0365755627009 Q 268.2636655948553 592.7954180064309 261.31832797427654 612.7632636655949 Q 254.37299035369776 632.7311093247588 250.90032154340838 649.2262861736334 Q 247.42765273311898 665.721463022508 246.55948553054662 678.7439710610932 Q 245.69131832797427 691.7664790996785 249.16398713826368 703.052652733119 Q 252.63665594855306 714.3388263665595 257.84565916398714 720.4159967845659 Q 263.05466237942125 726.4931672025723 266.5273311897106 733.4385048231511 Q 270 740.3838424437299 276.0771704180064 749.0655144694533 Q 282.15434083601286 757.7471864951768 288.2315112540193 765.5606913183279 Q 294.3086816720257 773.374196141479 302.9903536977492 778.5831993569132 Q 311.67202572347264 783.7922025723473 321.22186495176845 787.2648713826367 Q 330.7717041800643 790.7375401929261 338.5852090032154 793.3420418006431 Q 346.39871382636653 795.9465434083601 352.475884244373 796.8147106109325 L 358.58305466237937 797.7128778135047" stroke-linecap="round" />
</g>
<g transform="matrix(1 0 0 1 396.77 321.93)"  >
<path style="stroke: rgb(0,0,0); stroke-width: 30; stroke-dasharray: none; stroke-linecap: round; stroke-dashoffset: 0; stroke-linejoin: round; stroke-miterlimit: 10; fill: none; fill-rule: nonzero; opacity: 1;" vector-effect="non-scaling-stroke"  transform=" translate(-396.77, -321.93)" d="M 563.4705144694533 500.799694533762 Q 563.4405144694533 500.76969453376205 562.572347266881 500.76969453376205 Q 561.7041800643086 500.76969453376205 560.8360128617363 499.03336012861735 Q 559.967845659164 497.29702572347264 559.0996784565916 495.56069131832794 Q 558.2315112540193 493.8243569131833 554.7588424437299 492.0880225080386 Q 551.2861736334405 490.3516881028939 546.0771704180064 486.8790192926045 Q 540.8681672025723 483.4063504823151 526.9774919614148 478.197347266881 Q 513.0868167202573 472.9883440514469 492.25080385852095 466.04300643086816 Q 471.4147909967846 459.0976688102894 447.10610932475885 452.1523311897106 Q 422.7974276527331 445.20699356913184 395.88424437299034 437.3934887459807 Q 368.97106109324756 429.57998392282957 342.0578778135048 420.03014469453376 Q 315.14469453376205 410.48030546623795 295.176848874598 400.93046623794214 Q 275.20900321543405 391.3806270096463 263.0546623794212 383.56712218649517 Q 250.90032154340835 375.75361736334406 245.69131832797427 369.6764469453376 Q 240.4823151125402 363.5992765273312 238.7459807073955 358.3902733118971 Q 237.0096463022508 353.18127009646304 235.2733118971061 347.1040996784566 Q 233.5369774919614 341.0269292604502 231.8006430868167 334.08159163987136 Q 230.06430868167203 327.1362540192926 230.06430868167203 320.19091639871385 Q 230.06430868167203 313.24557877813504 230.93247588424435 304.5639067524116 Q 231.8006430868167 295.8822347266881 235.2733118971061 288.068729903537 Q 238.7459807073955 280.25522508038586 243.95498392282957 271.5735530546624 Q 249.16398713826365 262.8918810289389 259.58199356913184 252.47387459807072 Q 270 242.05586816720256 284.7588424437299 230.76969453376205 Q 299.5176848874598 219.48352090032154 316.88102893890675 208.19734726688102 Q 334.24437299035367 196.9111736334405 351.6077170418006 187.3613344051447 Q 368.97106109324756 177.81149517684887 385.4662379421222 169.12982315112538 Q 401.9614147909968 160.44815112540192 412.37942122186496 155.23914790996784 Q 422.7974276527331 150.03014469453376 428.8745980707396 146.55747588424435 L 434.98176848874596 143.05480707395498" stroke-linecap="round" />
</g>
</svg>