<svg xmlns="http://www.w3.org/2000/svg" viewBox="0 0 794.33 676.1">
	<defs>
		<style>
			.cls-1{fill:#ffdb43;}
			.cls-2{fill:none;stroke:#161616;stroke-linecap:round;stroke-linejoin:round;stroke-width:25px;}
			.cls-3{fill:#ff8327;}
			.cls-4{fill:#1e1e1e;}
		</style>
	</defs>
	<g id="Слой_2" data-name="Слой 2">
		<g id="Layer_1" data-name="Layer 1">
			<g id="yellow_duck">
				<path class="cls-1" d="M693.35,279.5c-30-16-18,20-58,42s-117.3-2.6-150-8c-8.2-1.4-15.8-2.7-23.1-4a189.86,189.86,0,0,0,32.1-106c0-105.5-85.5-191-191-191-94.3,0-172.6,68.3-188.2,158.1a.31.31,0,0,1,.2-.1s-6,16,46,76c26.7,30.8-17.8,61.7-17.8,61.7a191.81,191.81,0,0,0,69.2,63.5c-37.4,37.6-56.4,81.5-60.4,101.8-12,61-23.9,144.6,82,187,20,8,454-2,454-2s68.5-52,83-125C794.35,417.5,784.15,327.9,693.35,279.5Z"/>
				<path class="cls-2" d="M693.35,279.5c-30-16-18,20-58,42s-117.3-2.6-150-8c-8.2-1.4-15.8-2.7-23.1-4a189.86,189.86,0,0,0,32.1-106c0-105.5-85.5-191-191-191-94.3,0-172.6,68.3-188.2,158.1a.31.31,0,0,1,.2-.1s-6,16,46,76c26.7,30.8-17.8,61.7-17.8,61.7a191.81,191.81,0,0,0,69.2,63.5c-37.4,37.6-56.4,81.5-60.4,101.8-12,61-23.9,144.6,82,187,20,8,454-2,454-2s68.5-52,83-125C794.35,417.5,784.15,327.9,693.35,279.5Z"/>
				<path class="cls-3" d="M66.35,257.5s-36-15-48-42-4-43,10-45,27,10,46,9c31.5-1.7,41-9,41-9s-6,16,46,76c26.7,30.8-17.8,61.7-17.8,61.7s-18.2-4.7-45.2-9.7-52-7-52-18C46.35,266.9,66.35,257.5,66.35,257.5Z"/>
				<path class="cls-2" d="M66.35,257.5s-36-15-48-42-4-43,10-45,27,10,46,9c31.5-1.7,41-9,41-9s-6,16,46,76c26.7,30.8-17.8,61.7-17.8,61.7s-18.2-4.7-45.2-9.7-52-7-52-18C46.35,266.9,66.35,257.5,66.35,257.5Z"/>
				<circle class="cls-4" cx="260.85" cy="158" r="29.5"/>
			</g>
		</g>
	</g>
</svg>