<?xml version="1.0" encoding="utf-8"?>
<!-- Generator: Adobe Illustrator 26.0.1, SVG Export Plug-In . SVG Version: 6.00 Build 0)  -->
<svg version="1.0" id="Слой_1" xmlns="http://www.w3.org/2000/svg" xmlns:xlink="http://www.w3.org/1999/xlink" x="0px" y="0px"
	 viewBox="0 0 595.28 841.89" style="enable-background:new 0 0 595.28 841.89;" xml:space="preserve">
<style type="text/css">
	.st0{fill:#86B966;}
	.st1{fill:#D64759;}
	.st2{fill:none;stroke:#000000;stroke-width:2;stroke-linecap:round;stroke-linejoin:round;stroke-miterlimit:10;}
</style>
<g>
	<path class="st0" d="M188.65,204l-57.76,58.49c7.42,7.3,17.59,11.81,28.83,11.81c22.7,0,41.11-18.4,41.11-41.11
		C200.82,221.77,196.17,211.44,188.65,204z"/>
</g>
<g>
	<path class="st1" d="M183.35,209.6l-47.53,48.13c6.11,6.01,14.48,9.72,23.72,9.72c18.68,0,33.83-15.14,33.83-33.83
		C193.37,224.22,189.53,215.73,183.35,209.6z"/>
</g>
<g id="Контур_00000002376170683613911310000016854238948122445720_">
	<g>
		<g>
			<path class="st2" d="M166.34,226.82l-30.52,30.91c6.11,6.01,14.48,9.72,23.72,9.72c18.68,0,33.83-15.14,33.83-33.83
				c0-9.39-3.83-17.89-10.01-24.02l-14.34,14.52"/>
		</g>
		<g>
			<path class="st2" d="M135.82,257.72l-4.93,4.76c7.42,7.3,17.59,11.81,28.83,11.81c22.7,0,41.11-18.4,41.11-41.11
				c0-11.42-4.66-21.74-12.17-29.19l-5.3,5.6"/>
		</g>
	</g>
	<path d="M150.33,250.52c-0.11,0.05-0.23,0.11-0.32,0.19c-0.11,0.1-0.19,0.23-0.26,0.37c-0.33,0.59-0.66,1.2-0.72,1.87
		c-0.06,0.67,0.24,1.42,0.86,1.68c0.67,0.28,1.46-0.12,1.86-0.71c0.41-0.6,0.51-1.34,0.58-2.06c0.03-0.33,0.06-0.66,0.01-0.99
		c-0.06-0.34-0.24-0.83-0.61-0.85C151.31,250.01,150.7,250.35,150.33,250.52z"/>
	<path d="M163.38,250.89c0.33,0.86,0.17,1.91-0.45,2.59c-0.23,0.25-0.52,0.45-0.84,0.52c-0.33,0.08-0.69,0.02-0.96-0.18
		c-0.44-0.35-0.5-0.99-0.51-1.55c-0.02-0.82-0.41-2.4,0.58-2.8C162.16,249.08,163.07,250.08,163.38,250.89z"/>
	<path d="M170.31,246.34c0.26,0.33,0.52,0.67,0.85,0.93c0.37,0.3,0.81,0.5,1.28,0.57c0.19,0.03,0.38,0.04,0.56-0.02
		c0.23-0.08,0.41-0.27,0.55-0.47c0.61-0.91,0.43-2.26-0.39-2.99c-0.25-0.22-0.55-0.38-0.85-0.53c-0.56-0.27-1.92-1-2.28-0.14
		C169.72,244.5,169.79,245.69,170.31,246.34z"/>
	<path d="M177.26,234.24c0.35-0.01,0.71-0.03,1.06,0.06c0.71,0.18,1.27,0.81,1.4,1.53c0.14,0.72-0.14,1.49-0.68,1.98
		c-0.07,0.06-0.15,0.13-0.24,0.15c-0.12,0.04-0.24,0.01-0.36-0.01c-0.62-0.13-1.21-0.38-1.77-0.68c-0.53-0.3-1.06-0.69-1.24-1.27
		c-0.13-0.42-0.05-1.06,0.28-1.39C176.06,234.24,176.79,234.25,177.26,234.24z"/>
	<path d="M180.11,227.05c-0.82-0.27-1.69-0.39-2.56-0.36c-0.15,0.01-0.32,0.02-0.46-0.04c-0.23-0.09-0.36-0.32-0.47-0.54
		c-0.23-0.43-0.46-0.9-0.4-1.39c0.06-0.53,0.47-0.96,0.92-1.23c0.88-0.52,2.05-0.57,2.91-0.02c0.14,0.09,0.27,0.19,0.38,0.32
		c0.15,0.19,0.24,0.43,0.31,0.67c0.15,0.51,0.25,1.06,0.1,1.56c-0.15,0.51-0.6,0.96-1.13,0.96c-0.07,0-0.16-0.05-0.12-0.11"/>
</g>
</svg>
