<?xml version="1.0" encoding="utf-8"?>
<!-- Generator: Adobe Illustrator 27.0.0, SVG Export Plug-In . SVG Version: 6.00 Build 0)  -->
<svg version="1.1" id="Слой_1" xmlns="http://www.w3.org/2000/svg" xmlns:xlink="http://www.w3.org/1999/xlink" x="0px" y="0px"
	 viewBox="0 0 800 1000" style="enable-background:new 0 0 800 1000;" xml:space="preserve">
<style type="text/css">
	.st0{fill:#87B966;}
	.st1{fill:#D6485A;}
	.st2{fill:none;stroke:#1E1E1C;stroke-width:14;stroke-linecap:round;stroke-linejoin:round;stroke-miterlimit:5.6105;}
	.st3{fill:#1E1E1C;}
</style>
<g>
	<g>
		<path class="st0" d="M605.2,139.9l-520,526.5c66.8,65.7,158.4,106.3,259.5,106.3c204.4,0,370.1-165.7,370.1-370.1
			C714.8,299.9,672.9,206.9,605.2,139.9"/>
		<path class="st1" d="M557.5,190.3L129.6,623.6c55,54.1,130.3,87.5,213.5,87.5c168.2,0,304.5-136.3,304.5-304.5
			C647.6,322,613.2,245.5,557.5,190.3"/>
		<path class="st2" d="M404.4,345.3L129.6,623.6c55,54.1,130.3,87.5,213.5,87.5c168.2,0,304.5-136.3,304.5-304.5
			c0-84.6-34.5-161.1-90.2-216.3L428.4,321"/>
		<path class="st2" d="M129.6,623.6l-44.4,42.8c66.8,65.7,158.4,106.3,259.5,106.3c204.4,0,370.1-165.7,370.1-370.1
			c0-102.8-41.9-195.7-109.6-262.8l-47.7,50.4"/>
		<g transform="matrix(1,0,0,1,-106.467,53.7355)">
			<path class="st3" d="M366.7,505c-1,0.5-2.1,1-2.9,1.7c-1,0.9-1.7,2.1-2.3,3.3c-3,5.3-6,10.8-6.5,16.8c-0.5,6,2.1,12.8,7.7,15.1
				c6,2.5,13.1-1,16.8-6.4c3.6-5.4,4.6-12.1,5.2-18.5c0.3-3,0.5-6,0-8.9c-0.5-3-2.2-7.5-5.5-7.6C375.5,500.4,370,503.4,366.7,505
				   "/>
			<path class="st3" d="M484.2,508.3c3,7.7,1.5,17.2-4.1,23.3c-2,2.2-4.6,4-7.6,4.7c-2.9,0.7-6.2,0.2-8.6-1.6c-4-3.1-4.5-8.9-4.6-14
				c-0.2-7.4-3.7-21.6,5.2-25.2C473.2,492,481.4,501.1,484.2,508.3"/>
			<path class="st3" d=" M546.5,467.4c2.3,3,4.7,6,7.7,8.4c3.3,2.7,7.3,4.5,11.5,5.2
				c1.7,0.3,3.5,0.4,5.1-0.2c2.1-0.7,3.7-2.4,4.9-4.2c5.5-8.2,3.9-20.4-3.5-26.9c-2.3-2-4.9-3.5-7.6-4.8c-5.1-2.4-17.3-9-20.5-1.2
				C541.2,450.8,541.9,461.5,546.5,467.4"/>
			<path class="st3" d="M609.1,358.4c3.2-0.1,6.4-0.2,9.5,0.6c6.4,1.6,11.4,7.3,12.6,13.8
				c1.2,6.5-1.3,13.4-6.2,17.9c-0.6,0.6-1.3,1.1-2.2,1.4c-1.1,0.3-2.2,0.1-3.3-0.1c-5.6-1.2-10.9-3.4-15.9-6.2
				c-4.8-2.7-9.5-6.2-11.2-11.5c-1.2-3.8-0.4-9.6,2.5-12.6C598.3,358.4,604.9,358.5,609.1,358.4"/>
			<path class="st3" d="M634.8,293.7
				c-7.4-2.4-15.2-3.5-23-3.2c-1.4,0.1-2.8,0.2-4.1-0.4c-2-0.8-3.2-2.9-4.2-4.8c-2-3.9-4.1-8.1-3.6-12.5c0.6-4.7,4.2-8.6,8.3-11.1
				c7.9-4.7,18.4-5.1,26.2-0.2c1.3,0.8,2.5,1.7,3.4,2.9c1.4,1.7,2.2,3.9,2.8,6c1.4,4.6,2.2,9.5,0.9,14.1c-1.3,4.6-5.4,8.6-10.2,8.6
				c-0.6,0-1.4-0.5-1.1-1"/>
		</g>
		
	</g>
</g>
	<rect x ="85" y ="139" width="629" height="632"  style="fill:none;stroke-width:3;stroke:rgb(0,0,0)" />
</svg>
