<?xml version="1.0" encoding="utf-8"?>
<!-- Generator: Adobe Illustrator 26.0.1, SVG Export Plug-In . SVG Version: 6.00 Build 0)  -->
<svg version="1.0" id="Слой_1" xmlns="http://www.w3.org/2000/svg" xmlns:xlink="http://www.w3.org/1999/xlink" x="0px" y="0px"
	 viewBox="0 0 595.28 841.89" style="enable-background:new 0 0 595.28 841.89;" xml:space="preserve">
<style type="text/css">
	.st0{fill:#D95F5F;}
	.st1{fill:#80B766;}
	.st2{fill:none;stroke:#000000;stroke-linecap:round;stroke-miterlimit:10;}
	.st3{fill:none;stroke:#000000;stroke-width:1.5;stroke-linecap:round;stroke-miterlimit:10;}
	.st4{fill:none;stroke:#000000;stroke-width:2;stroke-linecap:round;stroke-miterlimit:10;}
	.st5{fill:none;stroke:#000000;stroke-width:2;stroke-miterlimit:10;}
</style>
<path class="st0" d="M272.12,211.67c0,0,18.56-7.77,9.9,10.21"/>
<path class="st0" d="M250.74,205.73c0,0,12.06-20.7,14.49,2.37"/>
<path class="st1" d="M265.83,261.77c0,0,4.97,11.55,4.36,14.27c-0.61,2.71,1.08,3.5-4.36,7.35c-5.44,3.85-20.13,1.14-20.13,1.14
	s-8.66-0.87-7.43-9.62c1.22-8.74,2.87-12.79,2.87-12.79"/>
<path class="st0" d="M284.93,228.72c0,0,15.22,4.19,0.94,9.58"/>
<path class="st0" d="M284.73,245.77c0,0,8.97,11.41-5.09,8.36"/>
<path class="st0" d="M269.2,260.59c0,0,4.43,2.2-1.27,5.75l-2.1-4.58L269.2,260.59z"/>
<path class="st1" d="M265.83,261.77c0,0,15.97-4.28,18.9-16c2.93-11.72-0.25-21.93-4.21-25.68c-3.95-3.75-8.41-13.57-28.67-14.33
	c-20.26-0.76-27.52,19.16-27.52,19.16s-5.99,21.23,2.93,28.24S240.3,266.42,265.83,261.77z"/>
<circle cx="232.7" cy="236.13" r="4.24"/>
<path class="st0" d="M269.27,273.13c0,0,7.81-1.83,4.03,3.23"/>
<circle cx="264.81" cy="236.13" r="4.24"/>
<path class="st2" d="M241.76,240.38c0,0,5.13,2.51,12.67-0.52"/>
<path class="st0" d="M268.09,266.79c0,0,7.39,1.72,1.58,4.92"/>
<path class="st3" d="M246.66,265.97c0,0,9.43,7.87-4.9,3.32"/>
<path class="st1" d="M265.83,283.38c0,0,27.39-3.76,4.28-8.26"/>
<path class="st3" d="M259.52,265.19c0,0-7.96,8.57,4.81,4.02"/>
<path class="st0" d="M274.68,276.16c0,0,5.26-4.64,4.09,1.59"/>
<path class="st1" d="M240.09,276.21c0,0,0.28-5.83,4.32-1.13c0,0,1.97-3.29,3.48,0.47c1.5,3.76-0.19,7.99-2.54,9.49
	c-2.35,1.5-7.89-6.25-7.89-6.25S235.67,275.37,240.09,276.21z"/>
<path class="st4" d="M240.09,276.21c0,0,0.28-5.83,4.32-1.13c0,0,1.97-3.29,3.48,0.47c1.5,3.76-0.19,7.99-2.54,9.49
	c-2.35,1.5-7.89-6.25-7.89-6.25S235.67,275.37,240.09,276.21z"/>
<path class="st1" d="M258.49,275.68c0,0,1.16-3.4,2.95-0.8c0,0,5.15-4.59,4.38,2.29c0,0,6.52-2.34,3.26,2.65s-6.27,5.42-6.27,5.42
	S256.46,283.87,258.49,275.68z"/>
<path class="st4" d="M258.49,275.68c0,0,1.16-3.4,2.95-0.8c0,0,5.15-4.59,4.38,2.29c0,0,6.52-2.34,3.26,2.65s-6.27,5.42-6.27,5.42
	S256.46,283.87,258.49,275.68z"/>
<path class="st3" d="M266.09,283.44c0,0,27.39-3.76,4.28-8.26"/>
<path class="st5" d="M265.83,261.77c0,0,15.97-4.28,18.9-16c2.93-11.72-0.25-21.93-4.21-25.68c-3.95-3.75-8.41-13.57-28.67-14.33
	c-20.26-0.76-27.52,19.16-27.52,19.16s-5.99,21.23,2.93,28.24S240.3,266.42,265.83,261.77z"/>
<path class="st5" d="M250.74,205.73c0,0,12.06-20.7,14.49,2.37"/>
<path class="st5" d="M272.12,211.67c0,0,18.56-7.77,9.9,10.21"/>
<path class="st5" d="M284.93,228.72c0,0,15.22,4.19,0.94,9.58"/>
<path class="st5" d="M284.73,246.36c0,0,8.97,11.38-5.09,8.34"/>
<path class="st5" d="M265.75,260.85c0,0,4.97,11.55,4.36,14.27c-0.61,2.71,1.08,3.5-4.36,7.35c-5.44,3.85-20.13,1.14-20.13,1.14
	s-8.66-0.87-7.43-9.62c1.22-8.74,2.87-12.79,2.87-12.79"/>
<path class="st3" d="M269.6,260.5c0,0,4.43,2.2-1.27,5.75"/>
<path class="st3" d="M268.79,266.57c0,0,7.39,1.72,1.58,4.92"/>
<path class="st3" d="M270.43,272.97c0,0,6.7-1.57,3.45,2.77"/>
<path class="st3" d="M274.77,275.99c0,0,5.26-4.64,4.09,1.59"/>
</svg>
