<?xml version="1.0" encoding="utf-8"?>
<!-- Generator: Adobe Illustrator 27.0.0, SVG Export Plug-In . SVG Version: 6.00 Build 0)  -->
<svg version="1.1" id="Слой_1" xmlns="http://www.w3.org/2000/svg" xmlns:xlink="http://www.w3.org/1999/xlink" x="0px" y="0px"
	 viewBox="0 0 800 1000" style="enable-background:new 0 0 800 1000;" xml:space="preserve">
<style type="text/css">
	.st0{fill-rule:evenodd;clip-rule:evenodd;fill:#D86CA0;}
	.st1{fill-rule:evenodd;clip-rule:evenodd;fill:#5DB8C8;}
	.st2{fill-rule:evenodd;clip-rule:evenodd;fill:#FFFFFF;}
	.st3{fill-rule:evenodd;clip-rule:evenodd;fill:#050407;}
	.st4{fill:none;stroke:#050407;stroke-width:14;stroke-linecap:round;stroke-linejoin:round;stroke-miterlimit:5.6105;}
</style>
<g>
	<g>
		<g transform="matrix(1,0,0,1,-106.467,53.7355)">
			<path class="st0" d="M623.8,261.6c5.7,7.4,8.2,6.5,16.2,19.8c5.1,8.5,7.4,14.9,10.4,25.4c9.3,1.4,4.3,2.3,15.3,8.8
				c17.5,10.3,38.1,14.3,59.3,13.5c-1.2-7-6.8-10.6-1.5-17.1c4.4-5.5,12.8-3,18.3-0.8c11.4,4.6,26.3,9,36.6,13.5
				c4,1.7,8.6,4.7,12.7,5.8c-2-34.2-44.7-77.2-62.7-77.7c-0.6,7.2-0.7,15-0.8,22.2c-0.1,3.9-0.1,7.8-0.1,11.7
				c-0.1,9.6,1.5,9.2-19,11.9c-16.6,2.2-33.8-0.4-47.6-8.7c-9.2-5.6-6.6-5.9,1.7-24.7c2.3-5.1,10.9-22.5,11.4-26.5
				C659.1,241.1,628.7,252.8,623.8,261.6 M227.3,672.5c24.7,1.4,42.3-11.4,51.4-24.6c13.3-19.2,13.1-37.2,5.1-61.1
				c-6.5-19.5-14-44.4-0.5-61.7c5.3-6.9,11.9-12.3,22.9-15.3c17.1-4.8,25.8,1.3,32.9,2l7.7-12.1c-5-7.1-18.4-13.5-30.1-16.5
				c-38.2-9.6-76,10.4-93.5,42.5c-13.7,25.2-13.5,47.3-2.2,74.8c7.9,19.1,16.5,33.9,12.9,55.6C232.6,664.1,229.5,666.4,227.3,672.5
				 M359.3,694.6c3.1,9.1,14.7,26.8,19.7,31.7c5.2,5,10.4,6.3,20.2,5.4c6.3-0.6,20.3,0.4,25.1-0.9c1-3,0.1-32.8,0.1-38.6
				c-0.6,1.2,0-1.3-0.7,2.2l-0.5,6.8L359.3,694.6z M613.7,696.9c-3.8-0.1-8.4-1.1-13-1c-4.4,0.1-8.9,0.2-13.3,0.2
				c-8.7,0-17.5-0.1-26.2-0.2c0.2,10.4,0.7,21.4,1.4,31.7c0.4,6.5,2,7.6,8.2,8.4c20,2.5,29,1.6,34.7-13.4
				C608.5,714.6,611.1,705.5,613.7,696.9 M625.1,697.6c-0.9,1.1-0.4-0.1-1.4,2.3c-0.1,0.2-6.4,20.1-5.6,22.1
				c19.5,6.4,32.4-16.3,35.8-30.9l-1.2,0.8c-0.2,0.1-0.4,0.3-0.6,0.4c-0.4,0.3-1.3,0.8-1.7,1c-1.3,0.7-2,1-3.5,1.6l-22.8,7.3
				L625.1,697.6z M469.5,702l0,6.7l-34.1-0.3l0.5-20.1c-1.1,1.9-0.7,0.6-1.2,3.5c-1,6.1,0.5,27.4,1.2,33.3
				c5.9,0.4,29.8-0.1,33.2-2.6c1.7-1.7,1.6-11.5,1.5-14.8L469.5,702z"/>
		</g>
		<path class="st1" d="M428.2,383.6c0,10.2,0.4,15.3,2.5,25.3c0.9,4.2,5.2,17.6,3.4,20.9c-1.6,2.8-5.7,2.4-7.5,0
			c-3.1-4.2-6.2-26-8-29.5c-15.6,6.4-49.8,59.8-23.8,89.5c3.6,4.1,6.6,6.6,2.2,11.8c-6.7,3.8-16.1-11.9-18.2-17.3
			c-6.7,2.4-15.5,21.4-49.5,33c-0.6,0.2-1.4,0.5-1.9,0.7l-1.8,0.9c-0.1,0.1-0.4,0.2-0.6,0.4c1.4,1.6,4.2,2.5,6.4,3.2
			c8,2.9,12.4,4.5,21.2,6.2c13.8,2.7,39.9,1,44.9-8.3c1.1-2,0.7-4.6,3-6c2.8-1.9,5.6-0.4,6.6,1.5c1.9,3.9-3.8,24.9-4,31.4
			c6.7-2,18.1-14.6,22.2-19.9c9.9-12.7,19.7-23.4,25.3-39.4c1.8-5-1.9-1.2,2-2.7c12.1-4.7,13,9.6,13.8,18c4.7-3,11.1-12.2,15-17.9
			c10.8-16,21.1-46.8,14.9-66.2c-2.1-6.6-3.8-5.7-3.5-13.9c-18-16.1-26.8-29.2-26.8-57.4c0-9,2.4-16,3.2-23.9
			c-10.6,1.9-23.1,15.1-28.3,22C433.8,355,428.2,368.8,428.2,383.6"/>
		<g transform="matrix(1,0,0,1,-106.467,53.7355)">
			<path class="st2" d="M800.9,436.7c-0.4,0.1-0.8,0.2-1.1,0.2c-6.4,0.8-7.3-8-1.4-10.4c0.5-0.2,1-0.3,1.4-0.4
				C806.4,424.9,806.9,435,800.9,436.7 M717.1,436.2c-0.9,0.4-1.8,0.7-2.6,0.9c-20.8,5.5-23.6-34.6-2.8-43.2
				c0.9-0.4,1.9-0.7,2.8-0.8c9.3-1.6,17.1,8.3,17.1,18.3C731.5,422.5,724.9,432.9,717.1,436.2 M816.1,431.2
				c-2.9-12.4-8.6-17.9-16.4-22.4c-4.5-2.6-9.7-4.8-15.5-7.9c-17.5-9.3-17-19.7-24.1-38.2c-4.5-11.7-9.6-19.9-17-29.8
				c-3.4-4.6-4.4-4.7-4.7-11.5l-5.2-2.1c0.7,4.5,14.5,22.6-18.9,20.6c-4.3-0.3-9.5-0.9-15.5-1.9c-12.4-2.1-25-6.3-35.4-12.1
				c-4.2-2.4-6.8-5-10.7-6.5c0.2,5.5,3,15.2-3.9,15.3c-11.9,0.2,1.9-34.9-31.5-64.2c-5.1-4.4-17.4-12.4-25.9-12.2
				c-12.6,24.5-13.5,62,12,83.5c3.2,2.7,7.2,5.3,11.5,7.8c5,2.8,9.7,3.1,7.8,10.7c-5.5,2.8-5.1,1.1-10.3-0.4
				c2.1,16.4,5.5,13.7,0.5,38c-4.4,21-16.4,44.2-31,58.1c-2.9,2.7-7.7,9-14.2,7.5c-6.6-1.6-5.5-9.9-6.7-15.8
				c-2.8,1.8-4,5.9-6.9,11.3c-8.3,15.3-28.5,41.7-44,45.9c-15.4,4.2-10.8-13.3-9.9-22.2c-8.8,1.7-13.2,4.4-23.7,4.6
				c-9.4,0.2-16.1-0.8-24.7-2.7c-19.9-4.4-30.6-13.5-42.5-12c-28.4,3.6-52.5,27-62.5,48c-13.6,28.6-19.5,54.4-14.8,91.3
				c3.1,24.7,15.9,63.9,27.1,82.8l63.8,6.6l0.5-6.8c0.8-3.5,0.1-1,0.7-2.2l1-10.6c-6.3-1.3-31.2-3.3-22.7-13.1
				c4.6-2.5,28,3.7,35,4.6c31.3,3.8,64.8,5,95.4-3.9l12.3-3.5c3.8-1.1,2.4,0.3,3.8-2.1c2-7.6-5.5-41,6.2-37.8
				c4.4,1.2,3.6,7.5,3.6,12c0,18.7,0.9,40,2.2,58.2c8.7,0,17.5,0.2,26.2,0.2c4.4,0,8.9-0.1,13.3-0.2c4.7-0.1,9.2,1,13,1
				c0.5-4.6,11-37.7,13.2-45.3c2.4-8.2,4.5-15.3,6.7-23.3c1.4-5,3.9-21.9,11.7-16.1c5.4,3.8-0.4,16.7-1.8,21.8
				c-3.4,12.2-18.1,58.5-18.4,63.7l-0.9,4.7l22.8-7.3c1.4-0.6,2.2-0.9,3.5-1.6c0.4-0.2,1.3-0.8,1.7-1c0.2-0.1,0.4-0.3,0.6-0.4
				l1.2-0.8c10.5-29.4,14.6-94,20.1-131.4c1.9-13.1,5.8-32.6,4.7-45.9l-24.5-10.2c-12.8-6-20.4-7.8-18.4-16.3
				c7.7-4.7,19.5,5.5,34.8,11.5c13.4,5.3,26.2,7.5,41.2,9.3c0.9,0.1,1.8,0.2,2.7,0.3c13.7,1.2,32.2,0.2,43.8-2.7
				c9.8-2.5,29.9-9.6,34.2-17.1c-10-1.6-49.7-10.7-37.5-22.6c3.1-1.5,12.4,5.4,21.5,8.5c6.8,2.4,14.9,3.9,23.2,4c1.2,0,2.5,0,3.7,0
				C811.6,466.3,820.7,450.5,816.1,431.2 M666.6,281.5c10.2,7.1,40.9,11.1,51,3.1l0.1-25.9c-8.1,0.2-10.6,1.7-20-0.2
				c-7.7-1.5-12.7-5.2-18.3-6.5C677.3,260.1,667.5,274.7,666.6,281.5 M684.8,242.4c6.3,5.8,24.8,9.4,33,4.8l0.1-28.8
				c-18-1.5-6,0.2-19.8-4.3C696.1,216.5,685.3,239,684.8,242.4 M436,688.3l-0.5,20.1l34.1,0.3l0-6.7c-0.1-5.4-1.1-10.9-3.2-15.6
				l-30.3-2.8L436,688.3z M702.8,205.2c17.3,6.3,15.6,7.6,15.1-27.7l-0.1-4.8C715,178.2,703.3,199.7,702.8,205.2"/>
		</g>
		<path class="st3" d="M605.2,447.6c-21.7,9-17.7,52,5.4,42.3c7.8-3.3,14.5-13.7,14.5-24.8C625.1,454.1,615.7,443.3,605.2,447.6"/>
		<path class="st3" d="M691.9,480.4c-6.2,2.5-4.8,12.2,2.6,10.1C700.9,488.6,699.9,477.2,691.9,480.4"/>
		<path class="st4" d="M614.5,220c4.1,4.6,3.8,40.8,1.7,47.4c-8.3,0-19.5-1.2-25.8-5.8C594.2,249.9,601.1,222.8,614.5,220
			c0-3.3,0.3-3.7,0.8-6.7 M448.1,686.1c-0.6,8,1,33.6-0.8,38.3c-31.8,6-45.8,10.8-81.6,10.8c-13.3,0-26.4-2.5-40.8-2.5
			c-1.5,19.2-0.8,32.2-0.8,51.6c-5.5,10.4-14.1,5.3-23.3,6.6c-5.8,0.8-20.2,0-25-1.6c-26.8-21.7-46.1-76-52.4-108.2
			c-13-66.2,7.9-82.7,10-109.9c5.1-1.5,12.1-15.3,12.5-20.8c4.7-0.9,25.8-18.5,35.8-23.1c13.5-6.3,23.3-4.2,35.8-8.5
			c6.2-7.6,21.9-9.8,30.8-15.9c7.6-5.2,26.1-22.7,32.5-24.1c0-32.7,7-72.8,41.6-84.1c5.1-15.7-2.3-24.9,10.5-45.8
			c9-14.7,23.7-30.4,41.9-30.8c9.2-9.2,0.7-11.1,13.3-10.8c9.6,0.7,15.3,6.8,24.1,7.5c11.6-15.8,40.9-27.5,60.8-27.5
			c8.6-2.5,8.5-19.7,17.5-25.8 M535.4,545.4c3.1,0.8,42.1,18.7,42.4,19.1c20.2,0,37.7,5.9,59.9,2.6c16.3-2.5,52.6-8.7,54.1-28.4
			c21.7-1.7,29.8-47.1,20-64.1c-11.3-24.4-38.5-17.9-47.5-43.3c-3.8-10.7-5.7-17.8-11-28.3c-4.7-9.4-13.1-17.4-13.9-28.3
			c14.9,0.3,43.8,17.2,50.8,13.3c0-32.1-38.7-86.6-73.2-86.6c0-7.8,1.5-28.2-0.8-34.1 M572.1,300.7c7.3,1.4,12.9,5.6,21.6,6.6
			c9.4,1.1,13.2,0,22.5,0c2.1,5.5,2.1,34.3-2.5,37.5c-12.8,5-49.9,4.6-57.4-7.5C554.1,331.5,567,302.9,572.1,300.7
			c1.3-4.1,0.8-8.7,0.8-13.3 M616.2,307.4c1-3.1,0.8-2.4,0.8-5.8 M617,365.7c0.8,0.4,2.5,1.2,3.3,1.7c1.7,5.3,5.3,16.3,0.8,20
			c-38.7,7.3-64.2-19.6-79.9-20c-3.6-9-5.1-16.7-9.8-25.8c-4.9-9.6-16.5-19.4-19.4-26.6 M512.1,410.6c-4-0.7-7.8-1.8-11.7-2.5
			c-14-14.3-23.7-26.4-28-44.9c-3.8-16.3,2.2-30,2.2-44.9 M639.5,374.8c-5.8-5.8-11.2-7.3-19.1-7.5 M542.1,381.5
			c0-4.6-0.8-8.8-0.8-14.1 M430.6,426.4c-4.4-9.4-3.9-23.9-8.3-31.6 M458,479.7c-0.6,3.9-0.8,7.7-0.8,12.5c8,8.1-0.6,16.9,9.2,15.8
			c14.7-5.1,28.8-34.4,32.5-48.3c7.4-27.3,2.1-27,1.6-51.6 M394,497.2c-1.7-2.5-12.5-17.8-13.3-18.3 M317.4,518.8
			c8.4,10.7,25.9,15.1,40,15.8c21.5,1.1,24.2-2.8,41.6-4.1c2.2,7.2-5.1,20.8,3.3,21.6c32.7-10.6,35.1-48,54.9-59.9 M398.9,530.5
			c2.5-4.9,2.6-5.9,4.2-10.8 M691.9,538.8c-0.2-0.1-30.9-8.5-40-13.3 M109.3,732.7c2-0.8,3-1,5-1.7c13.4-38.6,11.6-35.3-3.6-73.2
			c-10.1-25.2-13.8-47-2.4-73.2c25.2-58.1,88.5-70.1,137.5-34.1 M536.3,671.1c-1.6,8.7-29.6,105.5-31.6,109
			c10.2,0.8,18.4,2.7,27.5-2.5c23.9-14.3,32.7-78,34.2-105.7c1.9-36.2,11.6-70.8,11.6-107.4 M114.3,731c12.1,4.7,38.2-4.5,47.4-11.1
			c17.4-12.4,22.9-27.2,26.4-46.3c5.9-32.3-28.7-58.3-4.7-94.9c12.9-12.6,33.8-15,49.9-7.5 M504.6,780.1
			c-11.2,12.2-3.8,11.9-22.5,15.3c-6.2,1.1-21.2,0.5-25.8-2.8c-10.2-6.4-4-54.9-9.2-68.2 M324.9,732.7c-3-2.1-20.5-5.8-25-6.7
			 M324,784.3c11.4,0,35.4,1.2,43.3-5c3.4-8.4,1-35.9-1.7-44.1"/>
	</g>
</g>
</svg>
