<?xml version="1.0" encoding="utf-8"?>
<!-- Generator: Adobe Illustrator 26.0.1, SVG Export Plug-In . SVG Version: 6.00 Build 0)  -->
<svg version="1.0" id="Слой_1" xmlns="http://www.w3.org/2000/svg" xmlns:xlink="http://www.w3.org/1999/xlink" x="0px" y="0px"
	 viewBox="0 0 595.28 841.89" style="enable-background:new 0 0 595.28 841.89;" xml:space="preserve">
<style type="text/css">
	.st0{fill:none;stroke:#050008;stroke-width:2.1;stroke-linecap:round;stroke-linejoin:round;stroke-miterlimit:22.9256;}
	.st1{fill-rule:evenodd;clip-rule:evenodd;fill:#D86CA0;}
	.st2{fill-rule:evenodd;clip-rule:evenodd;fill:#FFFFFF;}
	.st3{fill-rule:evenodd;clip-rule:evenodd;fill:#5DB8C8;}
	.st4{fill-rule:evenodd;clip-rule:evenodd;fill:#050008;}
	.st5{fill-rule:evenodd;clip-rule:evenodd;fill:#FBFCFB;}
	.st6{fill-rule:evenodd;clip-rule:evenodd;fill:#050007;}
</style>
<g>
	<path class="st0" d="M326.02,416.54c0.19-0.41,0.35-0.69,0.6-1.09"/>
	<path class="st0" d="M285.24,461.54c1.65,0,5.13,0.18,6.27-0.72c0.49-1.21,0.14-5.21-0.24-6.39 M285.36,454.06
		c-0.43-0.31-2.97-0.84-3.62-0.97 M311.42,460.94c-1.63,1.77-0.55,1.72-3.26,2.21c-0.9,0.16-3.07,0.07-3.74-0.4
		c-1.48-0.93-0.58-7.96-1.33-9.89 M254.83,453.82c1.75,0.68,5.53-0.65,6.88-1.61c2.52-1.8,3.31-3.94,3.82-6.72
		c0.85-4.68-4.16-8.45-0.68-13.75c1.87-1.83,4.9-2.17,7.24-1.09 M316,445.13c-0.24,1.26-4.29,15.3-4.58,15.81
		c1.47,0.11,2.67,0.4,3.98-0.36c3.46-2.07,4.74-11.31,4.95-15.32c0.27-5.25,1.68-10.26,1.68-15.56 M254.11,454.06
		c0.28-0.12,0.43-0.15,0.72-0.24c1.94-5.59,1.68-5.11-0.52-10.62c-1.46-3.66-2-6.82-0.36-10.62c3.65-8.42,12.83-10.17,19.94-4.95
		 M338.56,425.95c-0.02-0.02-4.48-1.23-5.79-1.93 M296.1,424.74c0.37-0.71,0.37-0.85,0.6-1.57 M284.27,423.05
		c1.22,1.55,3.76,2.18,5.79,2.29c3.12,0.16,3.51-0.4,6.03-0.6c0.31,1.04-0.74,3.02,0.48,3.14c4.74-1.54,5.09-6.96,7.96-8.69
		 M295.37,419.92c-0.25-0.36-1.81-2.58-1.93-2.65 M304.66,417.38c-0.09,0.56-0.12,1.12-0.12,1.81c1.15,1.18-0.09,2.45,1.33,2.29
		c2.14-0.74,4.18-4.99,4.72-7c1.07-3.96,0.31-3.92,0.23-7.48 M300.68,409.66c-0.64-1.37-0.56-3.46-1.21-4.58 M316.85,403.15
		c0-0.66-0.12-1.27-0.12-2.05 M330.96,402.18c-0.84-0.84-1.62-1.06-2.77-1.09 M312.5,407.37c-0.57-0.11-1.13-0.26-1.69-0.36
		c-2.03-2.07-3.44-3.83-4.07-6.52c-0.55-2.36,0.33-4.34,0.33-6.52 M327.71,400.85c0.12,0.06,0.36,0.18,0.48,0.24
		c0.25,0.78,0.77,2.36,0.12,2.9c-5.6,1.06-9.31-2.85-11.58-2.9c-0.53-1.31-0.74-2.42-1.41-3.74c-0.72-1.4-2.39-2.82-2.81-3.86
		 M327.59,392.41c0.14-0.45,0.12-0.35,0.12-0.84 M321.19,391.44c1.06,0.2,1.88,0.82,3.14,0.96c1.36,0.16,1.91,0,3.26,0
		c0.31,0.8,0.31,4.98-0.36,5.43c-1.85,0.72-7.23,0.66-8.32-1.09C318.59,395.91,320.46,391.76,321.19,391.44
		c0.19-0.59,0.12-1.26,0.12-1.93 M315.88,426.91c0.45,0.12,6.1,2.71,6.15,2.77c2.93,0,5.47,0.86,8.69,0.37
		c2.37-0.36,7.62-1.25,7.84-4.11c3.14-0.24,4.32-6.83,2.9-9.29c-1.64-3.53-5.59-2.59-6.88-6.27c-0.55-1.55-0.83-2.58-1.6-4.1
		c-0.68-1.36-1.9-2.52-2.02-4.1c2.16,0.05,6.34,2.49,7.36,1.93c0-4.65-5.61-12.55-10.62-12.55c0-1.13,0.21-4.09-0.12-4.95
		 M303.21,447.3c-0.09,1.16,0.14,4.87-0.12,5.55c-4.61,0.87-6.64,1.57-11.82,1.57c-1.93,0-3.83-0.36-5.91-0.36
		c-0.21,2.79-0.12,4.67-0.12,7.48c-0.8,1.5-2.04,0.77-3.38,0.96c-0.84,0.11-2.92-0.01-3.62-0.23c-3.89-3.15-6.68-11.01-7.6-15.68
		c-1.89-9.6,1.15-11.99,1.45-15.93c0.74-0.21,1.75-2.22,1.81-3.02c0.69-0.13,3.74-2.68,5.19-3.35c1.96-0.91,3.37-0.61,5.19-1.24
		c0.89-1.1,3.18-1.42,4.46-2.3c1.1-0.75,3.79-3.3,4.71-3.49c0-4.75,1.02-10.56,6.03-12.19c0.74-2.28-0.34-3.61,1.53-6.64
		c1.31-2.13,3.44-4.41,6.07-4.46c1.34-1.34,0.1-1.61,1.93-1.57c1.39,0.11,2.21,0.99,3.5,1.09c1.68-2.29,5.93-3.98,8.81-3.98
		c1.25-0.36,1.23-2.86,2.53-3.74 M327.34,379.74c0.6,0.66,0.55,5.91,0.24,6.88c-1.21,0-2.83-0.18-3.74-0.84
		C324.4,384.07,325.4,380.15,327.34,379.74c0-0.48,0.04-0.54,0.12-0.97"/>
</g>
<path class="st1" d="M313.26,393.55c0.83,1.07,1.18,0.94,2.34,2.87c0.74,1.23,1.08,2.15,1.5,3.69c1.34,0.2,0.62,0.33,2.22,1.27
	c2.53,1.49,5.52,2.07,8.59,1.95c-0.17-1.01-0.98-1.53-0.22-2.48c0.64-0.79,1.85-0.44,2.65-0.12c1.65,0.67,3.81,1.31,5.3,1.95
	c0.58,0.25,1.25,0.69,1.84,0.84c-0.29-4.96-6.48-11.19-9.09-11.26c-0.09,1.04-0.1,2.18-0.12,3.22c-0.01,0.56-0.02,1.13-0.02,1.69
	c-0.01,1.39,0.22,1.33-2.76,1.73c-2.41,0.32-4.9-0.06-6.89-1.26c-1.34-0.81-0.95-0.86,0.25-3.58c0.33-0.74,1.58-3.27,1.65-3.85
	C318.37,390.59,313.97,392.28,313.26,393.55z"/>
<path class="st2" d="M341.14,418.15c-0.42-1.8-1.25-2.6-2.37-3.24c-0.65-0.38-1.41-0.7-2.24-1.14c-2.54-1.34-2.46-2.86-3.5-5.54
	c-0.66-1.7-1.39-2.89-2.46-4.32c-0.5-0.66-0.64-0.68-0.67-1.67l-0.75-0.3c0.1,0.65,2.11,3.27-2.73,2.98
	c-0.63-0.04-1.37-0.12-2.25-0.27c-1.79-0.3-3.63-0.91-5.13-1.75c-0.61-0.34-0.99-0.73-1.56-0.94c0.02,0.8,0.44,2.2-0.56,2.22
	c-1.73,0.03,0.28-5.06-4.57-9.3c-0.74-0.64-2.53-1.8-3.75-1.77c-1.83,3.55-1.96,8.98,1.75,12.1c0.47,0.4,1.04,0.77,1.67,1.12
	c0.73,0.41,1.41,0.45,1.12,1.55c-0.79,0.4-0.73,0.16-1.5-0.06c0.31,2.38,0.8,1.99,0.07,5.5c-0.63,3.05-2.38,6.41-4.5,8.42
	c-0.42,0.39-1.12,1.31-2.06,1.09c-0.95-0.23-0.8-1.44-0.97-2.29c-0.41,0.26-0.58,0.86-1,1.64c-1.2,2.22-4.14,6.04-6.37,6.65
	c-2.23,0.61-1.56-1.93-1.43-3.22c-1.28,0.25-1.91,0.64-3.44,0.66c-1.37,0.02-2.33-0.11-3.58-0.39c-2.89-0.64-4.43-1.96-6.16-1.74
	c-4.12,0.52-7.61,3.91-9.07,6.96c-1.98,4.14-2.82,7.89-2.14,13.24c0.45,3.58,2.31,9.26,3.92,12l9.25,0.95l0.07-0.99
	c0.11-0.5,0.02-0.14,0.11-0.32l0.15-1.53c-0.92-0.19-4.52-0.48-3.3-1.89c0.66-0.36,4.07,0.54,5.08,0.66
	c4.54,0.55,9.39,0.72,13.83-0.57l1.78-0.51c0.54-0.15,0.34,0.05,0.54-0.31c0.28-1.1-0.8-5.95,0.9-5.48
	c0.64,0.18,0.52,1.09,0.52,1.74c0,2.71,0.13,5.8,0.32,8.43c1.27,0.01,2.53,0.03,3.8,0.02c0.64,0,1.29-0.01,1.93-0.03
	c0.67-0.01,1.34,0.14,1.89,0.15c0.08-0.66,1.6-5.47,1.92-6.57c0.35-1.19,0.65-2.21,0.97-3.38c0.2-0.73,0.56-3.18,1.69-2.34
	c0.79,0.54-0.05,2.41-0.26,3.15c-0.5,1.76-2.63,8.48-2.67,9.23l-0.13,0.68l3.3-1.06c0.21-0.08,0.31-0.13,0.5-0.23
	c0.06-0.03,0.18-0.11,0.24-0.15c0.03-0.02,0.06-0.04,0.09-0.06l0.18-0.12c1.52-4.26,2.12-13.62,2.92-19.05
	c0.28-1.9,0.83-4.72,0.68-6.66l-3.55-1.48c-1.85-0.88-2.96-1.12-2.67-2.37c1.12-0.68,2.83,0.8,5.04,1.67
	c1.94,0.77,3.8,1.09,5.97,1.35c0.13,0.01,0.26,0.03,0.39,0.04c1.98,0.18,4.66,0.04,6.35-0.4c1.42-0.37,4.34-1.39,4.96-2.47
	c-1.45-0.23-7.2-1.55-5.44-3.28c0.45-0.21,1.8,0.78,3.12,1.24c0.99,0.34,2.16,0.56,3.37,0.58c0.18,0,0.36,0,0.54,0
	C340.48,423.23,341.79,420.94,341.14,418.15z M326.78,418.87c-0.13,0.05-0.26,0.1-0.38,0.13c-3.01,0.79-3.42-5.01-0.41-6.27
	c0.14-0.06,0.27-0.1,0.41-0.12c1.35-0.23,2.48,1.2,2.47,2.65C328.88,416.88,327.91,418.4,326.78,418.87z M338.93,418.95
	c-0.06,0.02-0.11,0.03-0.16,0.03c-0.92,0.12-1.06-1.16-0.21-1.5c0.07-0.03,0.14-0.05,0.21-0.06
	C339.73,417.23,339.81,418.7,338.93,418.95z"/>
<path class="st3" d="M300.33,403.45c0,1.48,0.06,2.21,0.36,3.67c0.13,0.61,0.75,2.55,0.49,3.03c-0.23,0.41-0.82,0.35-1.09-0.01
	c-0.45-0.61-0.89-3.77-1.16-4.27c-2.26,0.92-7.22,8.67-3.46,12.98c0.52,0.6,0.95,0.95,0.32,1.7c-0.97,0.56-2.34-1.72-2.64-2.51
	c-0.97,0.35-2.25,3.11-7.18,4.79c-0.08,0.03-0.21,0.07-0.28,0.1l-0.26,0.14c-0.02,0.01-0.06,0.03-0.08,0.05
	c0.21,0.23,0.61,0.36,0.92,0.47c1.16,0.42,1.8,0.65,3.08,0.9c2,0.39,5.79,0.15,6.51-1.2c0.15-0.29,0.1-0.66,0.43-0.88
	c0.41-0.27,0.81-0.06,0.95,0.22c0.28,0.57-0.54,3.61-0.58,4.55c0.96-0.29,2.62-2.11,3.22-2.88c1.44-1.84,2.85-3.39,3.67-5.71
	c0.26-0.73-0.27-0.18,0.3-0.39c1.76-0.68,1.89,1.39,2,2.6c0.68-0.44,1.62-1.76,2.18-2.6c1.56-2.32,3.06-6.79,2.16-9.6
	c-0.3-0.95-0.55-0.83-0.51-2.02c-2.6-2.34-3.88-4.23-3.88-8.32c0-1.3,0.35-2.32,0.46-3.47c-1.54,0.28-3.35,2.18-4.1,3.19
	C301.15,399.31,300.34,401.31,300.33,403.45z"/>
<path class="st1" d="M255.78,453.12c3.58,0.2,6.13-1.66,7.45-3.57c1.93-2.79,1.9-5.39,0.74-8.86c-0.95-2.83-2.03-6.44-0.08-8.94
	c0.78-1,1.72-1.78,3.32-2.22c2.49-0.69,3.74,0.19,4.77,0.29l1.11-1.75c-0.73-1.03-2.66-1.96-4.37-2.39
	c-5.53-1.4-11.02,1.5-13.55,6.16c-1.99,3.66-1.96,6.85-0.31,10.84c1.15,2.76,2.39,4.91,1.87,8.06
	C256.55,451.91,256.09,452.25,255.78,453.12z"/>
<path class="st1" d="M274.91,456.33c0.45,1.31,2.13,3.89,2.85,4.6c0.75,0.73,1.51,0.91,2.93,0.78c0.91-0.09,2.95,0.06,3.63-0.14
	c0.14-0.43,0.02-4.75,0.01-5.59c-0.09,0.18,0-0.18-0.11,0.32l-0.07,0.99L274.91,456.33z"/>
<path class="st1" d="M311.8,456.66c-0.55-0.01-1.21-0.17-1.89-0.15c-0.64,0.01-1.29,0.02-1.93,0.03c-1.27,0-2.53-0.02-3.8-0.02
	c0.02,1.51,0.1,3.1,0.21,4.6c0.07,0.94,0.29,1.11,1.19,1.22c2.9,0.36,4.21,0.24,5.03-1.95C311.05,459.23,311.41,457.91,311.8,456.66
	z"/>
<path class="st2" d="M319.47,396.45c1.48,1.03,5.93,1.6,7.4,0.44l0.01-3.75c-1.17,0.03-1.54,0.25-2.9-0.02
	c-1.11-0.22-1.84-0.75-2.65-0.94C321.01,393.34,319.59,395.45,319.47,396.45z"/>
<path class="st4" d="M326,412.74c-3.14,1.3-2.57,7.54,0.79,6.14c1.13-0.47,2.09-1.99,2.09-3.6
	C328.88,413.67,327.51,412.11,326,412.74z"/>
<path class="st2" d="M322.09,390.78c0.92,0.84,3.59,1.37,4.78,0.7l0.02-4.17c-2.61-0.22-0.87,0.03-2.86-0.63
	C323.73,387.01,322.17,390.29,322.09,390.78z"/>
<path class="st2" d="M286.03,455.42l-0.07,2.91l4.94,0.04l-0.01-0.97c-0.02-0.79-0.16-1.59-0.46-2.26l-4.39-0.41L286.03,455.42z"/>
<path class="st1" d="M313.45,456.76c-0.13,0.15-0.06-0.02-0.2,0.34c-0.01,0.03-0.93,2.91-0.81,3.21c2.83,0.93,4.7-2.37,5.19-4.48
	l-0.18,0.12c-0.03,0.02-0.06,0.04-0.09,0.06c-0.06,0.04-0.18,0.11-0.24,0.15c-0.19,0.1-0.3,0.15-0.5,0.23l-3.3,1.06L313.45,456.76z"
	/>
<path class="st1" d="M290.89,457.41l0.01,0.97l-4.94-0.04l0.07-2.91c-0.16,0.27-0.1,0.09-0.17,0.51c-0.15,0.89,0.07,3.97,0.17,4.82
	c0.85,0.06,4.31-0.01,4.81-0.38c0.25-0.24,0.23-1.67,0.22-2.15L290.89,457.41z"/>
<path class="st5" d="M324.71,385.39c2.5,0.91,2.26,1.1,2.18-4.02l-0.02-0.69C326.47,381.47,324.77,384.59,324.71,385.39z"/>
<path class="st6" d="M338.56,417.48c-0.9,0.36-0.7,1.77,0.37,1.47C339.86,418.68,339.72,417.02,338.56,417.48z"/>
</svg>
