<?xml version="1.0" encoding="utf-8"?>
<!-- Generator: Adobe Illustrator 26.0.1, SVG Export Plug-In . SVG Version: 6.00 Build 0)  -->
<svg version="1.0" id="Слой_1" xmlns="http://www.w3.org/2000/svg" xmlns:xlink="http://www.w3.org/1999/xlink" x="0px" y="0px"
	 viewBox="0 0 595.28 841.89" style="enable-background:new 0 0 595.28 841.89;" xml:space="preserve">
<style type="text/css">
	.st0{fill:#B2ADB0;}
	.st1{fill:#564E50;}
	.st2{fill:#FFFFFF;}
	.st3{fill:none;}
	.st4{fill:#AAA5A6;}
	.st5{fill:#DAD6D7;}
	.st6{fill:none;stroke:#000000;stroke-width:1.5;stroke-linecap:round;stroke-linejoin:round;stroke-miterlimit:10;}
	.st7{fill:none;stroke:#000000;stroke-width:1.5;stroke-miterlimit:10;}
	.st8{fill:none;stroke:#000000;stroke-width:2;stroke-linecap:round;stroke-linejoin:round;stroke-miterlimit:10;}
	.st9{stroke:#000000;stroke-miterlimit:10;}
	.st10{fill:none;stroke:#000000;stroke-miterlimit:10;}
</style>
<path class="st0" d="M294.84,394.43c0,0-6.07,11.38-8.55,11.56c-2.47,0.18,7.78,15.57,19.59,16.94c0,0,12.45-8.18,10.9,1.22
	c0,0,1.56,1.25,5.04-1.5c0,0,0.09-5.17,4.67-2.72c0,0,10.9-7.26,11.63-13.57c0,0-4.39-5.04-5.68-9.71c0,0,2.29-18.22-2.47-18.59
	c-4.76-0.37-9.98,6.68-9.98,6.68l-10.16,0.37c0,0-9.06-7.14-15.11-6.04C294.72,379.07,290.75,379.02,294.84,394.43z"/>
<path class="st1" d="M296.85,407.03c0,0,8.03,13.14,14.86,5.39s11.01-2.19,11.01-2.19s7.97,6.67,9.81-5.1c0,0-1.08-4.36-9.29-4.25
	c0,0-1.84,1.03-2.93,5.39c0,0-4.87,0.57-5.68,0.23c0,0-2.99-8.43-11.94-4.53C302.7,401.98,297.31,405.08,296.85,407.03z"/>
<path class="st1" d="M295.72,386.41c0.05-0.78,0.19-1.61,0.7-2.21c0.59-0.7,1.55-0.94,2.45-1.1c0.54-0.09,1.1-0.17,1.64-0.05
	c0.43,0.1,0.82,0.31,1.2,0.53c0.59,0.33,1.19,0.66,1.78,0.99c0.53,0.29,1.14,0.79,0.94,1.36c-0.08,0.22-0.26,0.37-0.43,0.52
	c-2.13,1.79-4.21,3.67-6.4,5.39c-1.29,1.01-1.41-0.53-1.64-1.66C295.71,388.92,295.72,387.69,295.72,386.41z"/>
<g>
	<path class="st0" d="M287.53,456.5c0,0,6.33,5.11,17.49,2.07l4.12-2.19c1.52-0.19,3.17-4.21,3.46-5.72
		c0.48-2.47,0.38-5.03-0.22-7.47c-0.31-1.26-0.76-2.49-1.34-3.66c-0.37-0.74-1.88-2.32-1.93-3.05c-0.07-1.04,3.74-4.35,4.5-5.5
		c1.35-2.02,2.41-4.24,3.14-6.56l0.14-2.78c-1.17-5.02-10.91,1.36-10.91,1.36c-4.51-0.52-8.78-3.09-12.21-6.07l0,0
		C293.77,416.95,272.8,444.47,287.53,456.5z"/>
</g>
<path class="st1" d="M324.27,384.55c0.54-0.51,1.09-1.03,1.63-1.54c0.89-0.84,1.91-1.74,3.14-1.75c0.18,0,0.37,0.02,0.53,0.1
	c0.27,0.14,0.42,0.44,0.54,0.72c0.35,0.84,0.6,1.73,0.71,2.63c0.12,0.92,0.12,1.85,0.1,2.77c-0.02,1.36-0.06,2.72-0.11,4.08
	c-0.02,0.49-0.08,1.05-0.49,1.33c-0.1,0.07-0.23,0.12-0.36,0.09c-0.09-0.02-0.17-0.09-0.24-0.15c-1.7-1.46-3.39-2.92-5.09-4.37
	c-0.52-0.45-1.55-1.03-1.65-1.79C322.87,385.86,323.75,385.05,324.27,384.55z"/>
<g>
	<path class="st1" d="M276.42,440.15c0.83-0.52,1.58-1.03,2.5-0.5c-0.23-0.81-0.37-1.75-0.37-2.86c0-5.29,5.18-19.39-6.77-19.85
		c0,0-10.02,2.42-8.86,14.45c1.19-1.93,5.37-2.34,7.29-2.39c2.53-0.07,5.06,0.38,7.52,0.98c0.37,0.09,0.77,0.2,1.02,0.49
		c0.4,0.47,0.24,1.2,0.03,1.78c-0.11,0.28-0.24,0.58-0.5,0.73c-0.22,0.13-0.48,0.13-0.73,0.14c-4.86,0.13-9.59,2.58-12.52,6.45
		c0.37,0.94,0.77,1.9,1.25,2.92c0,0,1.41,2.31,4.46,4.62c0.06-0.91,0.5-1.76,1.02-2.52C272.98,442.81,274.58,441.29,276.42,440.15z"
		/>
	<path class="st1" d="M278.38,443.89c-1.12,1.7-1.36,3.81-1.56,5.84c-0.91-0.04-1.8-0.2-2.67-0.47c2.53,1.28,5.71,2.29,9.61,2.48
		l-1.93-7.92c0,0-1.15-0.62-2.09-2.22c-0.04,0.17-0.09,0.34-0.17,0.51C279.26,442.76,278.77,443.3,278.38,443.89z"/>
	<path class="st0" d="M277.55,433.14c0.25-0.01,0.51-0.01,0.73-0.14c0.26-0.15,0.39-0.45,0.5-0.73c0.22-0.58,0.38-1.31-0.03-1.78
		c-0.25-0.29-0.65-0.4-1.02-0.49c-2.46-0.6-4.98-1.06-7.52-0.98c-1.92,0.06-6.1,0.46-7.29,2.39c0.23,2.34,0.88,5.06,2.11,8.19
		C267.96,435.71,272.7,433.26,277.55,433.14z"/>
	<path class="st0" d="M276.82,449.73c0.21-2.02,0.44-4.14,1.56-5.84c0.39-0.6,0.89-1.13,1.19-1.78c0.08-0.17,0.13-0.34,0.17-0.51
		c-0.31-0.54-0.6-1.18-0.82-1.95c-0.93-0.53-1.67-0.01-2.5,0.5c-1.84,1.14-3.44,2.66-4.66,4.45c-0.52,0.76-0.96,1.62-1.02,2.52
		c0.97,0.74,2.1,1.47,3.41,2.13C275.01,449.53,275.91,449.7,276.82,449.73z"/>
</g>
<path class="st1" d="M302.38,458.96c0,0,11.82,5.5,12.32-2.75c0,0,2.65,1.5,6.68,1.16c0,0,6.54,3.19,9.89-1.16
	c0,0,0.36-2.86-4.34-3.48"/>
<path class="st2" d="M326.58,420.01l-3.34-0.31c-1.29,0.86-1.33,3.04-1.33,3.04c-3.48,2.75-5.04,1.5-5.04,1.5
	c0.18-1.09,0.17-1.93,0.01-2.59l-0.14,2.78c-0.72,2.32-1.79,4.53-3.14,6.56c-0.76,1.15-4.58,4.46-4.5,5.5
	c0.05,0.73,1.57,2.31,1.93,3.05c0.58,1.17,1.03,2.4,1.34,3.66c0.6,2.44,0.69,5,0.22,7.47c-0.29,1.5-1.94,5.53-3.46,5.72
	c0,0,12.83,0.39,20.11-4.51c0,0,3.93-6.9,0.84-14.69c0,0,5.48-0.71,3.74-5.54S326.58,420.01,326.58,420.01z"/>
<path class="st3" d="M323.25,419.7l3.34,0.31C324.98,419.16,323.94,419.24,323.25,419.7z"/>
<g>
	<path class="st4" d="M328.8,422.94l-2.22-2.93c0,0-2.48-1.19-2.97-0.5c-0.48,0.69-1.73,0.01-1.8,3.14l1.43,3.47
		c0,0,0.07,0.29,0.21,0.77c1.77-1.33,3.57-2.62,5.4-3.87C328.83,422.97,328.8,422.94,328.8,422.94z"/>
	<path class="st5" d="M328.86,423.02c-1.83,1.25-3.63,2.53-5.4,3.87c0.78,2.62,3.71,10.96,9.08,9.38
		C338.6,434.48,329.68,423.96,328.86,423.02z"/>
</g>
<path class="st1" d="M316.38,424.36c-0.08,0.68-0.35,1.34-0.76,1.88c-0.29,0.39-0.68,0.76-0.68,1.25c0,0.11,0,0.24-0.09,0.29
	c-0.06,0.03-0.14,0.01-0.21-0.02c-2.65-1.05-4.76-3.37-5.56-6.1c1.34-0.98,2.95-1.63,4.59-1.87c0.65-0.09,1.35-0.12,1.91,0.23
	c0.42,0.26,0.7,0.69,0.89,1.14C316.92,422.21,316.52,423.23,316.38,424.36z"/>
<path class="st2" d="M312.79,409.22c2.09-1.47,6.21-3.33,9.94,1.01c0.54,0.63,0.88,1.42,0.95,2.24c0.17,1.9-0.13,5.3-4.24,6.14
	c-3.84,0.79-6.13-0.91-7.23-2.13c-0.54-0.6-0.87-1.36-0.99-2.16c-0.06-0.46-0.13-1.04-0.15-1.62
	C311.03,411.33,311.66,410.01,312.79,409.22z"/>
<path class="st2" d="M301.4,402.31c0.9-0.58,1.85-1.08,2.79-1.58c1.14-0.6,2.3-1.2,3.56-1.41c0.7-0.12,1.41-0.11,2.12-0.1
	c0.44,0.01,0.89,0.01,1.3,0.16c0.35,0.12,0.65,0.34,0.95,0.56c0.42,0.31,0.84,0.62,1.21,0.99c1.36,1.35,1.94,3.45,1.46,5.31
	c-0.04,0.14-0.12,0.31-0.27,0.29c-0.1-0.01-0.16-0.1-0.2-0.19c-0.43-0.76-0.83-1.53-1.21-2.31c-0.46-0.95-0.95-1.99-1.89-2.47
	c-0.38-0.19-0.82-0.28-1.24-0.35c-1.33-0.22-2.68-0.32-4.03-0.33c-0.52,0-1.04,0.02-1.55,0.15c-0.54,0.14-1.03,0.41-1.51,0.68
	c-0.87,0.48-1.75,0.97-2.62,1.45c-0.38,0.21-1.17,0.54-1.29,0.98C299.81,403.55,300.55,402.87,301.4,402.31z"/>
<path class="st2" d="M304.82,407.4c-0.32,0.61-0.44,1.31-0.43,2c0,0.25,0.02,0.5,0.08,0.74c0.28,1.08,1.5,1.77,2.61,1.6
	c0.16-0.02,0.31-0.06,0.45-0.13c0.19-0.09,0.35-0.23,0.5-0.38c0.76-0.8,1.04-2.02,0.69-3.06c-0.27-0.82-0.92-1.5-1.71-1.84
	C306.08,405.92,305.27,406.57,304.82,407.4z"/>
<path class="st2" d="M325.37,406.42c-0.25,0.51-0.44,1.07-0.47,1.64c-0.03,0.57,0.1,1.17,0.43,1.63c0.48,0.67,1.39,1.01,2.2,0.82
	c0.19-0.05,0.38-0.12,0.53-0.25c0.11-0.1,0.2-0.23,0.27-0.37c0.46-0.84,0.6-1.89,0.23-2.78
	C328.02,405.88,326.11,404.91,325.37,406.42z"/>
<path class="st2" d="M319.85,405.97c-0.19-0.38-0.22-0.82-0.16-1.25c0.05-0.42,0.19-0.83,0.32-1.23c0.22-0.66,0.68-1.22,1.09-1.78
	c0.14-0.19,0.28-0.37,0.45-0.54c0.3-0.3,0.67-0.53,1.04-0.75c0.31-0.18,0.63-0.37,0.98-0.4c0.68-0.05,1.38-0.2,2.05-0.18
	c0.27,0.01,0.54,0.04,0.81,0.08c0.93,0.13,1.86,0.34,2.76,0.63c0.72,0.23,1.41,0.57,2.02,1c0.2,0.14,0.41,0.31,0.51,0.54
	c0.11,0.23,0.09,0.53-0.1,0.69c-0.23,0.2-0.59,0.11-0.87-0.01c-0.89-0.41-1.64-1.1-2.51-1.54c-1.25-0.62-2.69-0.71-4.08-0.78
	c-0.35-0.02-0.72-0.03-1.01,0.15c-0.22,0.14-0.36,0.36-0.5,0.58c-0.97,1.57-1.91,3.14-2.83,4.74
	C319.84,405.88,319.84,406.01,319.85,405.97z"/>
<g id="Контур_00000163055827377087442150000012434741018475383977_">
	<path class="st6" d="M294.84,394.43c0,0-6.07,11.38-8.55,11.56c-2.47,0.18,7.78,15.57,19.59,16.94c0,0,12.45-8.18,10.9,1.22
		c0,0,1.56,1.25,5.04-1.5c0,0,0.09-5.17,4.67-2.72c0,0,10.9-7.26,11.63-13.57c0,0-4.39-5.04-5.68-9.71c0,0,2.29-18.22-2.47-18.59
		c-4.76-0.37-9.98,6.68-9.98,6.68l-10.16,0.37c0,0-9.06-7.14-15.11-6.04C294.72,379.07,290.75,379.02,294.84,394.43z"/>
	<path class="st6" d="M304.7,386.11c0,0-9.37,6.64-9.77,8.4"/>
	<path class="st6" d="M332.53,396.73c-3.05-6.2-9.71-10.07-9.71-10.07"/>
	<path class="st6" d="M293.42,417.04c0,0-20.96,27.53-6.23,39.55c0,0,6.33,5.11,17.49,2.07l4.12-2.19c0,0,12.83,0.39,20.11-4.51
		c0,0,3.93-6.9,0.84-14.69c0,0,5.48-0.71,3.74-5.54c-1.74-4.83-7.25-11.62-7.25-11.62"/>
	<path class="st6" d="M281.93,443.77c0,0-3.28-1.75-3.28-7.03c0-5.29,5.18-19.39-6.77-19.85c0,0-15.75,3.78-5.5,25.55
		c0,0,4.36,8.64,16.59,9.24"/>
	<path class="st6" d="M316.69,423.31c-0.72,2.32-1.79,4.53-3.14,6.56c-0.76,1.15-4.58,4.46-4.5,5.5c0.05,0.73,1.57,2.31,1.93,3.05
		c0.58,1.17,1.03,2.4,1.34,3.66c0.6,2.44,0.69,5,0.22,7.47c-0.29,1.5-1.94,5.53-3.46,5.72"/>
	<path class="st7" d="M322.14,423.46l0.94,2.27c0.07,0.16,0.12,0.32,0.17,0.49c0.45,1.67,3.41,11.63,9.23,9.91
		c6.01-1.77-2.7-12.11-3.66-13.22c-0.06-0.07-0.11-0.13-0.17-0.21l-1.45-1.92c-0.5-0.66-1.18-1.16-1.97-1.41
		c-0.69-0.21-1.98,0.02-2.22,0.37c-0.38,0.54-0.68-0.12-1.06,1.19C321.71,421.77,321.81,422.66,322.14,423.46z"/>
	<path class="st7" d="M328.79,422.87c-1.73,1.45-3.56,2.78-5.48,3.97"/>
	<path class="st7" d="M316.38,424.36c-0.08,0.68-0.35,1.34-0.76,1.88c-0.29,0.39-0.68,0.76-0.68,1.25c0,0.11,0,0.24-0.09,0.29
		c-0.06,0.03-0.14,0.01-0.21-0.02c-2.65-1.05-4.76-3.37-5.56-6.1c1.34-0.98,2.95-1.63,4.59-1.87c0.65-0.09,1.35-0.12,1.91,0.23
		c0.42,0.26,0.7,0.69,0.89,1.14C316.92,422.21,316.52,423.23,316.38,424.36z"/>
	<path class="st6" d="M308.34,422.87c0,0-5.25,2.6-7.15,5.58"/>
	<path class="st6" d="M303.12,459.41c0,0,11.52,5.29,12.01-2.65c0,0,2.59,1.44,6.51,1.12c0,0,6.37,3.07,9.63-1.12
		c0,0,0.35-2.75-4.23-3.34"/>
	<path class="st8" d="M314.64,415.64c0,0,2.23,0,3.17-2.47c0,0,1.79,3.61,4,2.47"/>
	<circle class="st9" cx="317.6" cy="411.4" r="0.73"/>
	<path class="st10" d="M304.82,407.4c-0.32,0.61-0.44,1.31-0.43,2c0,0.25,0.02,0.5,0.08,0.74c0.28,1.08,1.5,1.77,2.61,1.6
		c0.16-0.02,0.31-0.06,0.45-0.13c0.19-0.09,0.35-0.23,0.5-0.38c0.76-0.8,1.04-2.02,0.69-3.06c-0.27-0.82-0.92-1.5-1.71-1.84
		C306.08,405.92,305.27,406.57,304.82,407.4z"/>
	<path class="st10" d="M325.37,406.42c-0.25,0.51-0.44,1.07-0.47,1.64c-0.03,0.57,0.1,1.17,0.43,1.63c0.48,0.67,1.39,1.01,2.2,0.82
		c0.19-0.05,0.38-0.12,0.53-0.25c0.11-0.1,0.2-0.23,0.27-0.37c0.46-0.84,0.6-1.89,0.23-2.78
		C328.02,405.88,326.11,404.91,325.37,406.42z"/>
	<path class="st6" d="M296.85,406.47c0,0,13.64-12.33,17.38,0"/>
	<path class="st6" d="M320.32,406.53c0,0,1.48-12.07,12.22-2.04"/>
</g>
</svg>
