<?xml version="1.0" encoding="utf-8"?>
<!-- Generator: Adobe Illustrator 26.0.1, SVG Export Plug-In . SVG Version: 6.00 Build 0)  -->
<svg version="1.0" id="Слой_1" xmlns="http://www.w3.org/2000/svg" xmlns:xlink="http://www.w3.org/1999/xlink" x="0px" y="0px"
	 viewBox="0 0 595.28 841.89" style="enable-background:new 0 0 595.28 841.89;" xml:space="preserve">
<style type="text/css">
	.st0{fill:#FCF1E0;}
	.st1{fill:#E8BC8A;}
	.st2{fill:none;stroke:#000000;stroke-width:1.7;stroke-linecap:round;stroke-linejoin:round;stroke-miterlimit:10;}
	.st3{fill:none;stroke:#000000;stroke-width:1.3;stroke-linecap:round;stroke-linejoin:round;stroke-miterlimit:10;}
</style>
<ellipse class="st0" cx="322.74" cy="449.1" rx="2.49" ry="3.04"/>
<path class="st1" d="M310.53,424.75l4.81,10.11c0.42,0.88,0.93,1.7,1.53,2.46c1.86,2.38,6.05,8.82,3.26,15.78
	c-3.53,8.78-10.68,10.32-10.68,10.32s-1.06,0.29-2.68,0.62l-10.95-1.58l-6.09-3.07l-0.46-0.45c0,0-9.12-3.15-7.2-13.67l0.06-0.99
	c0,0-4.12-3.56-2.95-9.84c1.16-6.28,4.71-10.59,4.71-10.59"/>
<path class="st0" d="M282.31,451.45c0,0-13.77,9.36,5.36,6.85"/>
<path class="st0" d="M289.72,459.39c0,0,3.62-3.38,5.43-1.98c1.81,1.41,8.32,3.63,8.32,3.63s3.24-0.72,3.07,2.77l0.01,0.35
	c-2.71,0.56-6.77,1.12-10.36,0.83l-2.44-0.19c0,0-4.97,0.15-4.44-3.42C289.31,461.38,289.19,460.34,289.72,459.39"/>
<path class="st1" d="M319.28,381.09c-0.17-0.4-0.59-0.65-1.02-0.58c-3.08,0.5-10.64,6.92-10.64,6.92c0.73-4.52-0.93-8.19-1.83-9.77
	c-0.3-0.54-0.92-0.85-1.52-0.69c-4.47,1.2-7.73,9.89-11.19,18.79c-11.2,1.59-14.23,14.31-14.23,14.31c-2.47,0.73-2.72,2.77-2.17,4.9
	c0.39,0.1,0.78,0.2,1.16,0.3c0.16,0.04,0.31,0.08,0.46,0.15c0.11,0.06,0.22,0.13,0.32,0.2c1.16,0.82,2.33,1.75,3.74,1.94
	c0.78-1.15,1.82-2.14,2.97-2.92c0.66-0.45,1.55-0.44,2.34-0.37c0.79,0.08,1.56,0.32,2.31,0.58c0.37,0.13,0.71,0.32,1.01,0.57
	c0.39,0.33,0.78,0.66,1.17,0.99c0.17,0.14,0.34,0.29,0.49,0.45c0.4,0.45,0.6,1.06,0.56,1.66c-0.02,0.31,0.18,0.57,0.2,0.88
	c0.01,0.23-0.02,0.47,0.02,0.7c0.07,0.38,0.3,0.71,0.59,0.95s0.63,0.43,0.97,0.6c0.34,0.18,0.69,0.35,1.03,0.53
	c1.77,0.91,3.8,1.27,5.75,1.68c2.21,0.46,4.56,0.31,6.73-0.32c0.66-0.19,1.32-0.45,2.01-0.38c0.3,0.03,0.6,0.06,0.9,0.06
	c5.07-9.65-1.42-20.45-1.42-20.45C324.34,395.07,320.43,383.7,319.28,381.09z"/>
<path class="st0" d="M308.52,423.56c-2.17,0.63-4.52,0.78-6.73,0.32c-1.95-0.4-3.98-0.76-5.75-1.68c-0.34-0.18-0.69-0.35-1.03-0.53
	c-0.34-0.18-0.68-0.35-0.97-0.6s-0.53-0.58-0.59-0.95c-0.04-0.23-0.01-0.47-0.02-0.7c-0.01-0.31-0.22-0.57-0.2-0.88
	c0.05-0.6-0.16-1.21-0.56-1.66c-0.15-0.17-0.32-0.31-0.49-0.45c-0.39-0.33-0.78-0.66-1.17-0.99c-0.3-0.25-0.64-0.44-1.01-0.57
	c-0.75-0.26-1.52-0.5-2.31-0.58c-0.79-0.08-1.68-0.08-2.34,0.37c-1.15,0.78-2.19,1.76-2.97,2.92c-1.41-0.19-2.58-1.12-3.74-1.94
	c-0.1-0.07-0.21-0.15-0.32-0.2c-0.15-0.07-0.3-0.11-0.46-0.15c-0.39-0.1-0.78-0.2-1.16-0.3c0.76,2.96,3.04,6.08,3.04,6.08
	c15.18,12.19,30.81,3.71,30.81,3.71c0.33-0.5,0.62-1,0.89-1.51c-0.3,0-0.6-0.03-0.9-0.06C309.84,423.11,309.18,423.37,308.52,423.56
	z"/>
<path class="st0" d="M307.63,399.89c0,0,13.24-5.37,9.78-16.19c-7.88,6.23-8.31,14.72-8.31,14.72"/>
<g id="Контур_00000008870344062895310270000001413957421357419681_">
	<path class="st2" d="M287.07,433.28c0,0,1.99,7.99-4.94,10.99"/>
	<path class="st2" d="M319.27,381.08c1.14,2.6,5.07,13.98-9.27,21.71c0,0,7.19,11.96,0.53,21.96c0,0-15.23,8.26-30.22-3.25
		c-0.42-0.32-0.78-0.72-1.07-1.16c-1.43-2.18-5.31-8.83-0.39-10.28c0,0,3.03-12.72,14.23-14.31c3.46-8.89,6.72-17.59,11.19-18.79
		c0.6-0.16,1.21,0.16,1.52,0.69c0.89,1.58,2.56,5.25,1.83,9.77c0,0,7.57-6.43,10.64-6.92C318.69,380.44,319.09,380.69,319.27,381.08
		z"/>
	<path class="st2" d="M289.63,433.84c0,0-11.6,25.7,10.15,3.18"/>
	<path d="M286.22,415.57l0.93,1.59v1.02c0,0-0.52,1.24-1.11,1.23c-0.59-0.01-1.15-1.44-1.53-1.92c-0.17-0.22-0.78-0.68-1.09,0.3
		c-0.31,0.98,1.15,2.5,1.4,2.68c0.21,0.15,1.22,0.46,2.13,0.08c0.31-0.13,0.74,0.01,0.93,0.28c0.44,0.63,1.25,1.49,2.34,1.41
		c1.71-0.12,2.93-1.29,3.2-1.93c0,0,0.05-1.49-1.27-0.65c0,0-1.38,1.78-2.73,0.67c-0.95-0.78-0.67-1.96-0.42-2.61
		c0.12-0.31,0.38-0.54,0.69-0.64c0.51-0.17,1.26-0.51,1.23-1.03c-0.05-0.78-0.96-1-0.96-1l-2.46-0.7
		C287.5,414.36,285.78,414.14,286.22,415.57z"/>
	<path class="st2" d="M293.09,395.76c0,0,6.89-0.15,8.63,0.91l5.91-9.24"/>
	<ellipse class="st2" cx="323.33" cy="449.1" rx="2.28" ry="3.04"/>
	<path class="st2" d="M289.26,458.93c0,0-9.12-3.15-7.2-13.67l0.06-0.99c0,0-4.12-3.56-2.95-9.84c1.16-6.28,4.71-10.59,4.71-10.59"
		/>
	<path class="st2" d="M310.53,424.75l4.81,10.11c0.42,0.88,0.93,1.7,1.53,2.46c1.86,2.38,6.05,8.82,3.26,15.78
		c-3.53,8.78-10.68,10.32-10.68,10.32s-1.06,0.29-2.68,0.62"/>
	<path class="st2" d="M282.1,451.64c0,0-13.5,9.18,5.63,6.66"/>
	<line class="st3" x1="280.6" y1="456.22" x2="280.04" y2="458.6"/>
	<path class="st3" d="M291.43,460.55c0,0-0.91,2.93-0.29,3.82"/>
	<path class="st3" d="M295.15,460.76c0,0-1.55,3.02-0.23,4.13"/>
	<path class="st2" d="M307.63,399.89c0,0,13.24-5.37,9.78-16.19c-7.88,6.23-8.31,14.72-8.31,14.72"/>
	<path d="M299.5,410.8c-0.77,0.74-1.12,1.88-0.9,2.92c0.12,0.55,0.43,1.11,0.96,1.33c0.28,0.11,0.58,0.12,0.88,0.13
		c0.26,0,0.53,0.01,0.76-0.11c0.2-0.1,0.35-0.28,0.47-0.47c0.18-0.28,0.32-0.59,0.41-0.92c0.29-1.05-0.03-2.3-0.92-2.93
		C300.62,410.35,299.99,410.33,299.5,410.8z"/>
	<path d="M282.38,407.85c0.2-0.08,0.42-0.14,0.64-0.1c0.16,0.03,0.31,0.12,0.44,0.22c0.65,0.51,0.9,1.41,0.87,2.24
		c-0.01,0.2-0.03,0.4-0.11,0.58c-0.06,0.14-0.16,0.25-0.26,0.37c-0.22,0.26-0.47,0.5-0.76,0.68c-0.29,0.17-0.65,0.27-0.98,0.2
		c-0.52-0.11-0.88-0.58-1.06-1.08C280.68,409.68,281.11,408.37,282.38,407.85z"/>
	<path class="st2" d="M306.37,464.16c-2.71,0.56-6.77,1.12-10.36,0.83l-2.44-0.19c0,0-4.97,0.15-4.44-3.42c0,0-0.12-1.04,0.42-2"/>
	<path class="st2" d="M303.01,460.58c0,0-6.51-2.22-8.32-3.63c-1.81-1.41-5.13,1.98-5.13,1.98"/>
	<line class="st2" x1="289.72" y1="457.07" x2="293.16" y2="456.55"/>
</g>
</svg>
