<?xml version="1.0" encoding="utf-8"?>
<!-- Generator: Adobe Illustrator 27.0.0, SVG Export Plug-In . SVG Version: 6.00 Build 0)  -->
<svg version="1.1" id="Слой_1" xmlns="http://www.w3.org/2000/svg" xmlns:xlink="http://www.w3.org/1999/xlink" x="0px" y="0px"
	 viewBox="0 0 800 1000" style="enable-background:new 0 0 800 1000;" xml:space="preserve">
<style type="text/css">
	.st0{fill:#E9BD8A;}
	.st1{fill:#FCF1E0;}
	.st2{fill:none;stroke:#1E1E1C;stroke-width:14;stroke-linecap:round;stroke-linejoin:round;stroke-miterlimit:5.6105;}
	.st3{fill:#1E1E1C;}
</style>
<g>
	<g>
		<g transform="matrix(1,0,0,1,-106.467,53.7355)">
			<path class="st0" d="M625.9,473.7l41,86.1c3.5,7.5,7.9,14.5,13,21c15.9,20.3,51.6,75.2,27.8,134.4c-30.1,74.8-91,87.9-91,87.9
				s-9,2.4-22.9,5.3c0,0-6.2-6.4-7.2-15.7c-1.1-9.3-17.9-8.7-23.5-12.4c-12.7-8.5-42.9-15.3-42.9-15.3s-21.5,1.1-28.2-11.8
				c-6.7-12.9-24.1,0.3-24.1,0.3l-23.1,11.5c0,0-77.7-26.8-61.3-116.5l0.5-8.4c0,0-35.1-30.3-25.2-83.9
				c2.6-14.1,26.6-94.7,42.1-85.1c17.4,10.9,99.6,28.5,122.2,29.4c52.4,2.2,93.7-21.8,93.7-21.8 M700.5,101.7c-1.5-3.4-5-5.6-8.7-5
				c-26.3,4.3-90.6,59-90.6,59c6.2-38.5-7.9-69.8-15.6-83.2c-2.6-4.6-7.8-7.3-12.9-5.9c-38.1,10.2-65.9,84.3-95.4,160.1
				C381.8,240.2,356,348.6,356,348.6c-21.1,6.2-23.2,23.6-18.5,41.8c3.3,0.9,6.6,1.7,9.9,2.6c1.3,0.3,2.7,0.7,3.9,1.3
				c1,0.5,1.9,1.1,2.7,1.7c9.9,7,19.9,14.9,31.8,16.6c6.6-9.8,15.5-18.2,25.3-24.8c5.6-3.8,13.2-3.8,19.9-3.1
				c6.8,0.7,13.3,2.7,19.7,4.9c3.1,1.1,6.1,2.7,8.6,4.8c3.3,2.8,6.7,5.6,10,8.4c1.5,1.2,2.9,2.4,4.2,3.9c3.4,3.8,5.1,9.1,4.7,14.2
				c-0.2,2.7,1.6,4.9,1.7,7.5c0.1,2-0.1,4,0.2,6c0.6,3.2,2.6,6,5.1,8.1c2.5,2.1,5.4,3.6,8.3,5.1c2.9,1.5,5.9,3,8.8,4.5
				c15.1,7.8,32.4,10.9,49,14.3c18.8,3.9,38.9,2.6,57.3-2.8c5.6-1.6,11.3-3.9,17.1-3.2c2.6,0.3,5.1,0.5,7.7,0.5
				c43.2-82.2-12.1-174.2-12.1-174.2C743.5,220.8,710.2,124,700.5,101.7"/>
		</g>
		<g transform="matrix(1,0,0,1,-106.467,53.7355)">
			<path class="st1" d="M751.2,681.2c0,14.3-9.5,25.9-21.2,25.9c-11.7,0-21.2-11.6-21.2-25.9c0-14.3,9.5-25.9,21.2-25.9
				C741.7,655.3,751.2,666.9,751.2,681.2 M385.4,701.2c0,0-117.3,79.8,45.7,58.3 M448.6,768.8c0,0,30.9-28.8,46.3-16.8
				c15.4,12,70.8,30.9,70.8,30.9s27.6-6.1,26.2,23.6l0.1,3c-23.1,4.8-57.7,9.5-88.3,7.1l-20.8-1.6c0,0-42.4,1.3-37.8-29.2
				C445.1,785.8,444,776.9,448.6,768.8 M608.8,463.6c-18.5,5.4-38.5,6.6-57.3,2.8c-16.6-3.4-33.9-6.5-49-14.3
				c-2.9-1.5-5.9-3-8.8-4.5c-2.9-1.5-5.8-3-8.3-5.1c-2.5-2.1-4.5-4.9-5.1-8.1c-0.3-2-0.1-4-0.2-6c-0.1-2.7-1.9-4.9-1.7-7.5
				c0.4-5.1-1.4-10.3-4.7-14.2c-1.3-1.4-2.7-2.6-4.2-3.9c-3.3-2.8-6.7-5.6-10-8.4c-2.5-2.1-5.5-3.8-8.6-4.8
				c-6.4-2.2-13-4.3-19.7-4.9c-6.8-0.7-14.3-0.7-19.9,3.1c-9.8,6.7-18.7,15-25.3,24.8c-12-1.6-22-9.6-31.8-16.6
				c-0.9-0.6-1.8-1.2-2.7-1.7c-1.2-0.6-2.6-0.9-3.9-1.3c-3.3-0.9-6.6-1.7-9.9-2.6c6.4,25.2,25.9,51.8,25.9,51.8
				C492.8,546,626,473.7,626,473.7c2.8-4.2,5.3-8.5,7.6-12.9c-2.6,0-5.1-0.2-7.7-0.5C620,459.7,614.4,461.9,608.8,463.6
				 M601.2,261.9c0,0,112.8-45.7,83.3-137.9c-67.1,53.1-70.8,125.4-70.8,125.4"/>
		</g>
		<path class="st2" d="M319.5,600.1c0,0,17,68.1-42.1,93.6"/>
		<path class="st2" d="M593.9,155.4c9.7,22.2,43.2,119.1-79,185c0,0,61.3,101.9,4.5,187.1c0,0-129.8,70.4-257.5-27.7
			c-3.6-2.7-6.6-6.1-9.1-9.9c-12.2-18.6-45.2-75.2-3.3-87.6c0,0,25.8-108.4,121.3-121.9c29.5-75.8,57.2-149.9,95.4-160.1
			c5.1-1.4,10.3,1.3,12.9,5.9c7.6,13.4,21.8,44.7,15.6,83.2c0,0,64.5-54.8,90.7-59C588.9,149.9,592.4,152,593.9,155.4z"/>
		<path class="st2" d="M341.4,604.9c0,0-98.8,219,86.4,27.1"/>
		<path class="st3" d="M312.3,449.2l7.9,13.5v8.7c0,0-4.5,10.6-9.5,10.5c-5-0.1-9.8-12.2-13-16.4c-1.5-1.9-6.7-5.8-9.3,2.5
			c-2.6,8.3,9.8,21.3,12,22.9c1.8,1.3,10.4,3.9,18.1,0.7c2.6-1.1,6.3,0.1,8,2.4c3.7,5.4,10.6,12.7,20,12c14.6-1,24.9-11,27.2-16.4
			c0,0,0.4-12.7-10.8-5.5c0,0-11.7,15.2-23.3,5.7c-8.1-6.6-5.7-16.7-3.5-22.2c1-2.6,3.2-4.6,5.9-5.5c4.3-1.4,10.7-4.4,10.5-8.8
			c-0.4-6.7-8.2-8.5-8.2-8.5l-21-5.9C323.2,438.9,308.5,437,312.3,449.2"/>
		<path class="st2" d="M370.8,280.4c0,0,58.7-1.3,73.5,7.7l50.3-78.7"/>
		<path class="st2" d="M647.9,734.9c0,14.3-8.7,25.9-19.4,25.9c-10.7,0-19.4-11.6-19.4-25.9c0-14.3,8.7-25.9,19.4-25.9
			C639.2,709,647.9,720.6,647.9,734.9z"/>
		<path class="st2" d="M338.2,818.7c0,0-77.7-26.9-61.3-116.5l0.5-8.4c0,0-35.1-30.3-25.2-83.8c9.9-53.5,40.2-90.2,40.2-90.2"/>
		<path class="st2" d="M519.4,527.5l41,86.1c3.5,7.5,7.9,14.5,13,21c15.9,20.3,51.6,75.2,27.8,134.4c-30.1,74.8-91,87.9-91,87.9
			s-9,2.4-22.9,5.3"/>
		<path class="st2" d="M277.2,756.5c0,0-115.1,78.2,48,56.8"/>
		<path class="st2" d="M264.4,795.6l-4.8,20.2"/>
		<path class="st2" d="M356.7,832.4c0,0-7.7,25-2.5,32.5"/>
		<path class="st2" d="M388.4,834.3c0,0-13.2,25.7-1.9,35.2"/>
		<path class="st2" d="M494.7,315.6c0,0,112.8-45.7,83.3-137.9c-67.1,53.1-70.8,125.4-70.8,125.4"/>
		<path class="st3" d="M425.4,408.6c-6.6,6.3-9.6,16-7.7,24.9c1,4.7,3.7,9.5,8.1,11.3c2.4,1,5,1,7.5,1.1c2.2,0,4.5,0.1,6.5-0.9
			c1.7-0.9,3-2.4,4-4c1.6-2.4,2.8-5.1,3.5-7.8c2.5-9-0.3-19.6-7.8-25C435,404.7,429.7,404.5,425.4,408.6"/>
		<path class="st3" d="M279.6,383.4c1.7-0.7,3.6-1.2,5.4-0.8c1.4,0.3,2.6,1,3.7,1.9c5.6,4.4,7.7,12,7.4,19.1c-0.1,1.7-0.3,3.4-1,4.9
			c-0.6,1.2-1.4,2.2-2.2,3.1c-1.9,2.2-4,4.3-6.5,5.8c-2.5,1.5-5.5,2.3-8.4,1.7c-4.4-0.9-7.5-5-9.1-9.2
			C265.1,399,268.7,387.9,279.6,383.4"/>
		<path class="st2" d="M484,863.2c-23.1,4.7-57.7,9.5-88.3,7.1l-20.8-1.6c0,0-42.4,1.3-37.8-29.2c0,0-1-8.9,3.6-17"/>
		<path class="st2" d="M455.4,832.8c0,0-55.5-18.9-70.9-30.9c-15.4-12-43.7,16.8-43.7,16.8"/>
		<path class="st2" d="M342.1,802.8l29.3-4.4"/>
	</g>
</g>
</svg>
