<?xml version="1.0" encoding="utf-8"?>
<!-- Generator: Adobe Illustrator 26.0.1, SVG Export Plug-In . SVG Version: 6.00 Build 0)  -->
<svg version="1.0" id="Слой_1" xmlns="http://www.w3.org/2000/svg" xmlns:xlink="http://www.w3.org/1999/xlink" x="0px" y="0px"
	 viewBox="0 0 595.28 841.89" style="enable-background:new 0 0 595.28 841.89;" xml:space="preserve">
<style type="text/css">
	.st0{fill:#F0C5CA;}
	.st1{fill:#5DA945;}
	.st2{fill:none;stroke:#000000;stroke-width:2;stroke-miterlimit:10;}
</style>
<path class="st0" d="M195.53,234.73l-59.32-0.4c-1.04-0.01-1.88,0.83-1.88,1.86v8.21c0,1.03,0.84,1.86,1.87,1.86h1.77l4.65,32.29
	c0.22,1.54,1.54,2.69,3.09,2.69h39.77c1.54,0,2.85-1.13,3.09-2.67l4.91-32.31h2.04c1.03,0,1.87-0.83,1.87-1.86v-7.81
	C197.39,235.56,196.56,234.73,195.53,234.73z"/>
<path class="st1" d="M175.91,219.91c0,0,14.89-1.12,12.1,13.76l-21.23-0.14C166.79,233.54,167.57,226.39,175.91,219.91z"/>
<path class="st1" d="M164.33,199.51c0,0-5.9-4.36-15.6,4.6c-9.7,8.96-5.28,29.27-5.28,29.27l22.59,0.15
	c3.31-9.46,9.71-14.4,9.71-14.4C177.48,204.68,164.33,199.51,164.33,199.51z"/>
<g>
	<path class="st2" d="M165.82,239.47"/>
	<path class="st2" d="M142.95,239.47"/>
	<path class="st2" d="M142.95,234.23"/>
	<path class="st2" d="M137.92,246.6l5.03,32.92c0.22,1.34,1.36,2.32,2.71,2.34l39.91,0.28c1.42,0,2.64-1.03,2.88-2.43l5.1-33.11"/>
	<path class="st2" d="M142.95,234.23l45.4,0.44h7.38c0.77,0,1.41,0.61,1.44,1.38v9.38c0,0.65-0.53,1.18-1.18,1.18h-60.04
		c-0.78,0-1.4-0.63-1.4-1.4v-9.51c0-0.81,0.66-1.47,1.47-1.47H142.95c0,0-6.14-30.54,14.96-35.57c1.37-0.33,2.81-0.27,4.15,0.15
		c4.51,1.41,14.55,6.11,13.84,19.95l0.04,1.28l0,0"/>
	<path class="st2" d="M166.28,234.45c3.79-10.48,9.65-14.41,9.65-14.41s16.02-0.05,12.41,14.63"/>
</g>
<circle cx="152.39" cy="266.51" r="3.22"/>
<circle cx="179.38" cy="266.51" r="3.22"/>
<g>
	<path d="M165.63,269.99c-2.84,0-4.99-1.04-5.13-1.11c-0.3-0.15-0.42-0.51-0.27-0.8c0.15-0.3,0.51-0.42,0.8-0.27
		c0.04,0.02,4.53,2.17,8.81,0c0.3-0.15,0.66-0.03,0.81,0.26c0.15,0.3,0.03,0.66-0.26,0.81C168.75,269.71,167.1,269.99,165.63,269.99
		z"/>
</g>
</svg>
