<?xml version="1.0" encoding="utf-8"?>
<!-- Generator: Adobe Illustrator 26.0.1, SVG Export Plug-In . SVG Version: 6.00 Build 0)  -->
<svg version="1.0" id="Слой_1" xmlns="http://www.w3.org/2000/svg" xmlns:xlink="http://www.w3.org/1999/xlink" x="0px" y="0px"
	 viewBox="0 0 595.28 841.89" style="enable-background:new 0 0 595.28 841.89;" xml:space="preserve">
<style type="text/css">
	.st0{fill:#D12E37;}
	.st1{fill:#68B076;}
	.st2{fill:none;stroke:#000000;stroke-width:2;stroke-linecap:round;stroke-miterlimit:10;}
	.st3{fill:none;stroke:#000000;stroke-width:2;stroke-linecap:round;stroke-linejoin:round;stroke-miterlimit:10;}
</style>
<path class="st0" d="M147.5,250.38c0,0-1.36-9.33,2.48-12.42s12.75-13.55,27.65-18.29c0,0,23.97-1.76,22.26,33.01
	c0,0,0.7,13.56-5.59,20.79C188,280.71,152.38,269.05,147.5,250.38z"/>
<path class="st1" d="M155.81,233.27c0,0-11.43-0.27-14.67-9.28c-0.15-0.41,0.02-0.87,0.39-1.1c2.29-1.41,10.68-5.39,20,5"/>
<path class="st1" d="M168.75,211.58c0,0,12.27-13.72,12.02-2.02l0,1.65c0,1.66-0.24,3.32-0.78,4.89c-0.51,1.49-1.24,3.1-2.14,3.58
	l-7.55,3.75l-1.33-3.77L168.75,211.58z"/>
<path class="st1" d="M163,227.34c0,0-8.98-10.01,0.86-19.82c0.54-0.54,1.39-0.61,2-0.15c1.83,1.41,5.09,5.48,3.44,15.99"/>
<path class="st1" d="M149.41,239.66c0,0-3.13,1.99-6.87,0.94l-3.53-0.94c0,0-8.89-2.59-2.19-6.62c6.71-4.02,7.69-3.46,7.69-3.46
	l10.53,4.39L149.41,239.66z"/>
<g>
	<g>
		<path class="st2" d="M148.32,250.38c0,0-1.33-9.33,2.43-12.42c3.76-3.09,12.49-13.55,27.09-18.29c0,0,23.48-1.76,21.81,33.01"/>
		<path class="st2" d="M148.92,253.56c0,0,12.73,24.55,40.05,21.4c2.57-0.3,4.95-1.57,6.58-3.57c2.26-2.77,4.61-7.71,4.19-16.06"/>
		<path class="st2" d="M155.81,233.27c0,0-11.43-0.27-14.67-9.28c-0.15-0.41,0.02-0.87,0.39-1.1c2.29-1.41,10.68-5.39,20,5"/>
		<line class="st2" x1="151.31" y1="213.28" x2="162.16" y2="227.95"/>
		<path class="st2" d="M168.75,211.3c0,0,12.27-13.72,12.02-2.02"/>
		<path class="st2" d="M155.05,233.98c0,0,16.45-14.09,22.75-14.14c2.02-0.02,2.92-6.39,2.92-6.39"/>
		<path class="st2" d="M169.29,223.37c1.66-10.51-1.6-14.58-3.44-15.99c-0.61-0.47-1.46-0.4-2,0.15c-9.84,9.8-0.86,19.82-0.86,19.82
			"/>
		<path class="st2" d="M149.16,239.66c0,0-3.13,1.99-6.87,0.94"/>
		<path class="st2" d="M139.01,239.28c0,0-8.89-2.59-2.19-6.62c6.71-4.02,7.69-3.46,7.69-3.46"/>
	</g>
	<line class="st3" x1="161.01" y1="237.69" x2="162.91" y2="240.29"/>
	<line class="st3" x1="172.97" y1="245.17" x2="174.35" y2="247.36"/>
	<line class="st3" x1="156.29" y1="249.26" x2="158.04" y2="251.96"/>
	<line class="st3" x1="162.29" y1="260.89" x2="163.74" y2="262.86"/>
	<line class="st3" x1="176.76" y1="260.5" x2="178.92" y2="263.2"/>
	<line class="st3" x1="193.05" y1="254.3" x2="194.52" y2="256.12"/>
	<line class="st3" x1="188.05" y1="266.53" x2="190.05" y2="269.05"/>
	<line class="st3" x1="185.5" y1="242.14" x2="187.4" y2="244.74"/>
	<line class="st3" x1="175.18" y1="229.56" x2="177.08" y2="232.15"/>
	<line class="st3" x1="189.21" y1="227.29" x2="191.11" y2="229.88"/>
</g>
</svg>
