<?xml version="1.0" encoding="utf-8"?>
<!-- Generator: Adobe Illustrator 26.0.1, SVG Export Plug-In . SVG Version: 6.00 Build 0)  -->
<svg version="1.0" id="Слой_1" xmlns="http://www.w3.org/2000/svg" xmlns:xlink="http://www.w3.org/1999/xlink" x="0px" y="0px"
	 viewBox="0 0 595.28 841.89" style="enable-background:new 0 0 595.28 841.89;" xml:space="preserve">
<style type="text/css">
	.st0{fill:none;stroke:#E6332A;stroke-width:1.5;stroke-linecap:round;stroke-linejoin:round;stroke-miterlimit:10;}
	.st1{fill-rule:evenodd;clip-rule:evenodd;fill:#E59D5D;}
	.st2{fill-rule:evenodd;clip-rule:evenodd;fill:#CC6F2D;}
	.st3{fill-rule:evenodd;clip-rule:evenodd;fill:#FFFFFF;}
	.st4{fill-rule:evenodd;clip-rule:evenodd;fill:#EBB5AB;}
	.st5{fill-rule:evenodd;clip-rule:evenodd;fill:#F9F7F5;}
	.st6{fill:none;}
	.st7{fill-rule:evenodd;clip-rule:evenodd;fill:#050007;}
	.st8{fill:none;stroke:#000000;stroke-width:1.7;stroke-linecap:round;stroke-linejoin:round;stroke-miterlimit:10;}
	.st9{fill:none;stroke:#000000;stroke-width:2;stroke-linecap:round;stroke-linejoin:round;stroke-miterlimit:10;}
</style>
<path class="st0" d="M266.56,455.98"/>
<path class="st1" d="M335.51,448.05c-0.59-4.46-3.41-5.91-3.85-9.98c-0.22-0.2-0.18-0.23-0.45-0.48c-0.17-0.16,0.02-0.91-0.16-1.08
	c-1.98-1.84-6.32-3.76-8.82-4.72c-9.22-3.54-25.07-4.24-26.17-15.87c-0.1-1.04,0.16-0.83,0.38-1.54c-0.29-1.06-1.09-1.57-0.78-4.1
	c0.38-3.11,0.98-5.7,0.86-9.2c-0.06-1.68-0.41-3.15-0.48-4.71c-0.67,0.01-1.81,0.37-2.52,0.06c-0.59-0.65-0.09-1.25,0.21-2.08
	c0.75-2.08,1.5-4.63,2.26-6.53c1.13-2.83,4.15-5.48,5.99-7.11c-1.35,0.05-5.01,1.24-5.96,1.95c-1.25,0.94-2.16,2.18-2.85,3.88
	c-1.11,2.73-1.63,4.89-1.88,5.54c-0.13,0.33,0.34,0.96-0.18,0.66c-0.36-0.2-0.37-0.81-0.37-1.35c0.01-1.18,0.11-2.01,0.29-3.11
	l-0.26-0.3c0.25,1.46-0.71,0.99-1.45,0.82c-1.1-0.25-0.97-0.48-1.89-0.94c-3.28-1.65-7.29-1.29-10.95,0.15
	c-3.5,1.38-6.69,3.76-8.62,6.31c-2.24,2.96-1.29,4.09-4.18,7.25c0.17,0.54,0.56,0.85,0.59,1.55c0.08,1.9-1.99,2.53-3.14,3.22
	c0.1,0.69,0.75,1.26,1.06,1.78l4.39-0.17c0.67-0.04,1.42-0.14,2-0.3c0.48-0.13,1.28-0.58,1.8-0.27c0.6,0.36,0.35,1.17-0.34,1.47
	c-2.09,0.92-5.67,0.74-7.72,0.9c0.16,0.87,4.28,3.19,5.56,3.58c2.79,0.85,5.89,1.4,8.61,1.5c1.7,0.06,4.23-0.42,6.04-0.69
	c1.14-0.17,1.61-0.64,2.6-0.81c0.66-0.12,0.88-0.56,0.95,0c0.09,0.74-0.46,0.75-0.87,1.03c0.37,0.06,0.13-0.03,0.37,0.1
	c0.38,1.89-0.26,4.14-0.21,6.11c0.21,8.46,4.05,13.22,4.17,14.17c0.9-0.07,0.45,1.02,0.67,1.77c2.43,8.34,5.74,11.89,5.38,21.66
	c-0.03,0.86-0.82,3.49-0.78,4.08c1.37,0.19,3.26,0.03,4.67-0.02c2.1-6.58,4.76-15.2,3.1-21.86c-0.26-1.03-0.73-2.49,0.26-2.87
	c0.53,1.16,0.75,2.54,0.92,3.68c2.59-0.63,9.11-1.23,12.02-0.91c6.41,0.7,11.07,5.35,13.58,10.83c1.35,2.95,0.75,6.7,0.63,10.36
	c0.93,0.01,4.68,0.27,5.48,0.07c0.28-1.82,0.22-4.72,0.24-6.66C335.69,452.73,335.79,450.16,335.51,448.05z M276.47,404.81
	c-0.14,0.02-0.27-0.06-0.41-0.11c-0.97-0.33-1.07-0.83-1.42-1.2c-0.17,0.11,0.23,0.23-0.34-0.01c-0.87-0.38-1.38-1.57-1.22-2.8
	c0.17-1.32,0.8-2.34,1.68-2.86c0.58-0.34,1.13-0.44,1.71-0.5c2.25-0.24,4.06,2.26,3.19,3.35
	C279.7,403.51,278.24,404.49,276.47,404.81z"/>
<path class="st2" d="M331.62,437.83c-0.51-5.08,0.53-9.32-1.38-14.01c-1.52-3.74-4.2-6.15-7.86-7.73c-7.61-3.28-18.3,2-24.16-0.49
	c-1.62-0.69-1.67-1.27-2.3-1.67c-0.22,0.72-0.48,0.5-0.38,1.56c1.12,11.74,17.07,13.34,26.42,16.91c2.54,0.97,6.73,2.67,8.74,4.53
	c0.18,0.17,0.3,0.27,0.47,0.43C331.43,437.6,331.39,437.63,331.62,437.83z"/>
<path class="st3" d="M289.64,434.18c-0.12-0.94-3.78-5.83-4.01-14.23c-0.05-1.96,0.24-4.04-0.17-5.92c-0.25-0.12,0.01-0.04-0.39-0.1
	l-3.5,0.68c-1.26,2.68-0.9,12.86,0.04,16.26c0.97,3.51,3.2,7.06,6.14,8.88c0.82,0.51,3.13,2.15,3.13,0.39
	c-0.11-0.72-1.16-3.29-1.53-4.57C289.1,434.72,289.12,434.72,289.64,434.18z"/>
<path class="st1" d="M281.91,459.33c3.19,0.33,2.63,0.43,5.68,0.17c0.58-0.7,2.28-5.27,2.68-6.44c1.19-3.44,1.65-6.63,1.24-10.26
	c-0.17-1.56-1.12-0.74-4.74-2.96c-1.8-1.11-2.4-1.88-3.64-2.99c0.28,2.11,2.54,5.11,1.89,11.69c-0.19,1.94-0.69,3.89-1.25,5.66
	L281.91,459.33z"/>
<path class="st1" d="M314.21,460.58c1.59,0.19,3.79,0.22,5.13,0.68c0.46-0.43,1.92-1.84,2.32-2.48c0.61-0.96,0.77-2.3,1.36-3.34
	c1.2-2.14,2.16-4.58,1.72-7.27c-0.58-3.51-0.93-4.61-4.33-6.04c-2.34-0.98-6.15-0.95-9.37-0.85c0.14,0.22,1.89,1.41,2.22,1.67
	c2.33,1.86,4.13,3.98,4.7,6.75C319.03,454.85,314.37,460.05,314.21,460.58z"/>
<path class="st4" d="M293.84,396.12c4.19-0.42,6.84-2.75,8.45-5.05c2.12-3.04,2.23-6.82,2-10.95c-0.99,0.18-3.27,2.29-3.72,2.78
	c-1.08,1.18-1.89,2.17-2.86,3.83c-0.85,1.46-1.43,2.88-2.08,4.52C295.11,392.55,294.09,394.91,293.84,396.12z"/>
<path class="st1" d="M279.77,387.04c3.52-0.18,5.75-0.46,8.88,0.62c-0.16-0.45-1.67-2.22-2.12-2.83c-0.77-1.05-1.39-1.95-2.12-2.98
	c-0.91-1.28-3.39-5.5-4.47-5.89c-1.12,0.94-1.62,3.69-1.75,5.45C278.04,383.34,278.26,385.63,279.77,387.04z"/>
<path class="st1" d="M324.85,416.94c0.79,0.38,1.66,1.26,2.27,1.86c1.5,1.48,0.24,0.78,2.3,1.96c1.55,0.89,5.2,1.9,7.18,0.94
	c-0.52-1.58-2.88-3.45-4.31-4.14c-1.07-0.52-2.08-0.79-3.38-0.98C328.08,416.45,325.55,416.25,324.85,416.94z"/>
<path class="st5" d="M274.6,403.66c-1.91-5.29,3.89-7.07,5.04-2.88c1.21-1.56-1.87-5-4.91-3.15c-1.01,0.46-1.57,1.63-1.74,3.04
	c-0.2,1.42,0.37,2.58,1.27,2.98C274.83,403.91,274.42,403.78,274.6,403.66z"/>
<path class="st6" d="M310.85,440.39c0.03,0.01,11.89,5.86,4.08,17.63l-2.26,3.32c-0.42,0.62-0.1,1.46,0.62,1.65l4.3,1.09
	c0.72,0.18,1.48-0.14,1.84-0.79c1.92-3.42,7.3-14.01,3.9-19.74c-0.42-0.36-0.86-0.71-1.33-1.05
	C321.99,442.49,319.35,440.14,310.85,440.39z"/>
<path class="st7" d="M274.53,403.47c0.35,0.38,0.45,0.88,1.43,1.22c2.1,0.73,4.22-1.29,3.64-4.1
	C278.48,396.59,272.66,398.41,274.53,403.47z"/>
<path class="st6" d="M303.51,379.21c0,0-9.55,6.73-9.87,16.84l2.02,0.06C308.21,391.62,303.51,379.21,303.51,379.21z"/>
<path class="st6" d="M303.51,379.21c0,0-9.55,6.73-9.87,16.84l2.02,0.06C308.21,391.62,303.51,379.21,303.51,379.21z"/>
<g id="Контур_00000171693133506367727200000005437134855890176419_">
	<g>
		<path class="st8" d="M291.32,392.75c0,0-1.88-11.52,12.39-13.17c0,0,4.7,12.41-7.84,16.91c0,0,2.82,4.34,0.16,15.4
			c0,0,1.25,7.23,10.82,3.73c0,0,15.84-4.28,21.33,5.29s2.98,17.18,2.98,17.18s7.37,7.92,3.76,22.81l-0.1,2.57
			c-0.03,0.84-0.72,1.51-1.57,1.51h-3.21c-0.81,0-1.4-0.78-1.17-1.56c1.13-3.77,2.87-13.59-6.69-20.55c0,0-4.06-3.61-18.33-1.41
			l-0.58,1.68c1.92,2.65-2.99,17.58-4.4,21.72c-0.22,0.64-0.82,1.06-1.49,1.06h-2.78c-0.77,0-1.33-0.75-1.1-1.49l1.08-3.53
			c3.62-10.1-2.92-18.76-2.92-18.76c2.43,3.84-2.47,15.69-4.2,19.59c-0.34,0.77-1.11,1.27-1.95,1.27h-3.71
			c-0.93,0-1.56-0.93-1.24-1.79l3.17-8.37c3-5.23-2.77-21.17-2.77-21.17c-1.92-10.55,0.46-17.04,0.46-17.04s-12.93,2.03-18.93-4.3
			c-6-6.33-2.23-7.66-2.23-7.66l3.78-1.67c1.25-1.41,3.61-6.43,3.61-6.43c10.66-13.8,22.74-5.33,22.74-5.33"/>
		<path class="st8" d="M295.86,396.49l-2.02-0.06c0.31-10.12,9.87-16.84,9.87-16.84"/>
		<path class="st8" d="M278.9,386.91c0,0-3.11-8.64,1.27-10.83c0,0,8.48,10.89,8.88,12.38"/>
		<path class="st8" d="M324.46,417.05c0,0,9.23-2.58,12.15,5.03c0,0-2.59,2.33-8.44-1.18"/>
		<path class="st8" d="M281.35,432.82c0,0,3.43,7.56,10.3,9.31l-1.89-7.21"/>
		<path class="st8" d="M311.04,440.76c0,0,11.9,5.84,4.08,17.63l-2.26,3.32c-0.42,0.62-0.1,1.46,0.62,1.65l4.3,1.09
			c0.72,0.18,1.48-0.14,1.84-0.79c1.92-3.42,7.31-14.02,3.89-19.75"/>
		<path class="st9" d="M270.75,407.48c0,0-4.25,2.41-9.44,0.88"/>
		<line class="st8" x1="302.7" y1="437.63" x2="303.28" y2="443.13"/>
	</g>
	<path d="M281.79,458.87c-0.22-0.03-0.43-0.06-0.65-0.09l-0.77,2.04c-0.33,0.87,0.31,1.79,1.24,1.79h3.71
		c0.84,0,1.61-0.49,1.95-1.27c0.27-0.61,0.62-1.42,1-2.35C286.11,459.16,283.93,459.13,281.79,458.87z"/>
	<path d="M293.3,464.05c-0.23,0.74,0.33,1.49,1.1,1.49h2.78c0.68,0,1.28-0.42,1.49-1.06c0.23-0.67,0.55-1.63,0.92-2.76
		c-1.82-0.06-3.63-0.22-5.43-0.49L293.3,464.05z"/>
	<path d="M329.18,461c-0.15,0.79-0.33,1.48-0.5,2.04c-0.23,0.78,0.35,1.56,1.17,1.56h3.21c0.84,0,1.54-0.67,1.57-1.51l0.08-2.09
		C332.86,461,331.02,461,329.18,461z"/>
	<g>
		<path d="M312.66,461.34c-0.42,0.62-0.1,1.46,0.62,1.65l4.3,1.09c0.72,0.18,1.48-0.14,1.84-0.79c0.47-0.83,1.14-2.09,1.84-3.6
			c-2.25-0.08-4.48-0.52-6.6-1.29L312.66,461.34z"/>
	</g>
	<path d="M264.54,403.03c0,0.52-0.3,0.99-0.64,1.38c-0.6,0.71-1.35,1.28-2.19,1.68c-0.21,0.1-0.46,0.22-0.52,0.45
		c0.27,0.15,0.48,0.39,0.58,0.69c0.06,0.17,0.06,0.4-0.09,0.49c-0.06,0.04-0.14,0.05-0.21,0.04c-0.66-0.01-1.17-0.59-1.48-1.17
		c-0.5-0.91-0.74-1.96-0.71-3c0.01-0.21,0.03-0.44,0.14-0.62c0.1-0.16,0.25-0.27,0.41-0.37c0.88-0.56,1.89-0.93,2.93-1.07
		c0.42-0.06,0.88-0.16,1.22,0.1C264.3,401.9,264.54,402.64,264.54,403.03z"/>
	<line class="st8" x1="286.01" y1="413.13" x2="281.42" y2="414.62"/>
</g>
</svg>
