<?xml version="1.0" encoding="utf-8"?>
<!-- Generator: Adobe Illustrator 27.0.0, SVG Export Plug-In . SVG Version: 6.00 Build 0)  -->
<svg version="1.1" id="Слой_1" xmlns="http://www.w3.org/2000/svg" xmlns:xlink="http://www.w3.org/1999/xlink" x="0px" y="0px"
	 viewBox="0 0 800 1000" style="enable-background:new 0 0 800 1000;" xml:space="preserve">
<style type="text/css">
	.st0{fill:#FFFFFF;}
	.st1{fill:#C48458;}
	.st2{fill:none;stroke:#1E1E1C;stroke-width:14;stroke-linecap:round;stroke-linejoin:round;stroke-miterlimit:5.6105;}
</style>
<g>
	<g>
		<g transform="matrix(1,0,0,1,-107.064,53.5099)">
			<path class="st0" d="M401,421.2c0,0,13.6-21.2,75.6-33.6c31.1-6.2,44-22.5,50.9-30c4-4.2,6.3-9.7,7.2-15.4
				c3.2-20.3,13.8-85.5,15.9-89.9c3.3-6.9,12.7-32.3,33.5-3.5c0,0,11.1,19.9,23,74.9c0,0,11.5,34.6,55.4,48.3
				c43.9,13.7,42.1,27.9,42.1,27.9l-18.7,16.5L603.6,456l-82.1,11.6l-61.7-16.7l-37.4-16.5L401,421.2z M696.8,484.4L682,426
				l-20.3,10.1l-62.4,25.8l-66.2,6.3l-49.9-5.1c5.6,16.4,25.2,87.2-43.7,118.7c0,0-13.1,17.2,3,26.9c16.1,9.8,104.1,102.6-8,109
				l-92.2-17.3l6,12.6l30.9,20.8l50.4,14.6l103.8-1.1l34.2-1.2l35.3,2.3l15.2-11.1l9.3,10.2h34.1l14.9-7.6l12-47.5l14.8-87.4
				l1.8-76.8L696.8,484.4z"/>
		</g>
		<g transform="matrix(1,0,0,1,-107.064,53.5099)">
			<path class="st1" d="M324.6,355.6c0,0,71.3,71.4,82.9,64.1c1.2-0.7,40.2-27.3,90.3-36.6c6-1.1,34-20.4,38.7-39.5
				c1.6-6.7,10.2-104.1,27.7-106.4c4.2-0.6,15.2,1.1,24.9,24.4c9.2,22.2,14.9,60.6,19.6,71c2.1,4.7,14.4,22.2,25.4,27
				c8.3,3.6,23.6,12.2,27.3,13.6c1.2,0.4,17.8,4.6,29.5,11.7c7.6,4.6,10.7,12.7,14.4,13.6c9.6,2.3,36.3-22.1,39.3-24.8l-16.4-21.2
				l24.1-16.9l-36-83.4c0,0,37.3-73.6,3.3-184.8c-56.6,18.8-99.4,74.8-99.4,74.8s-82.6-35.2-138-1.7l-115-60.7
				c0,0-20.2,127.1-1.7,165.8l-38.1,69.9l15.6,21.4L324.6,355.6z M442.5,608.8c-16.1-9.8-3-26.9-3-26.9
				c68.9-31.5,49.3-102.4,43.7-118.7c-0.8-2.2-1.3-3.5-1.3-3.5L393,426.9l-59.7,84.3L300.8,616l33.5,83l7.9,1.5l92.2,17.3
				C546.6,711.5,458.6,618.6,442.5,608.8 M314.4,669.1c0,0-163.4-69.8-122.7-263.4c0,0,10.4-38.3,36.3-32.2
				c25.9,6.1,27.5,44.2,27.5,44.2S240,578,300.8,605.4"/>
		</g>
		<path class="st2" d="M207.3,723.5c0,0-163.4-69.8-122.7-263.4c0,0,10.4-38.3,36.3-32.2c25.9,6.1,27.5,44.2,27.5,44.2
			s-15.5,160.2,45.2,187.6"/>
		<path class="st2" d="M451.1,795c0,0,36.3,22.2,53.1,0l-10.8-108 M522.7,686.7c-18.5,61-10.9,92-4.8,104.9c2.4,5,7.2,8.3,12.6,9.2
			c13.4,2.2,22.9,1,29.6-1.2c7.6-2.6,13.1-9.2,14.5-17.1L594,677.2C609.8,564.4,573,480.4,573,480.4 M417.2,690.3L451.1,795
			c0,0-178.6,55.5-243.8-72.3c0,0-48.6-74.1,37.7-184.7l40.9-57.5"/>
		<path class="st2" d="M272,181.8l42.1,49L258.6,299"/>
		<path class="st2" d="M597.9,172.5l-43.4,62.6l54.9,70.5"/>
		<path class="st2" d="M236,390.3c0,0,41.3-5.3,67.7,9.2"/>
		<path class="st2" d="M250.9,426.4l49.8-6.2"/>
		<path class="st2" d="M645.4,396.1l39.7-6.7"/>
		<path class="st2" d="M645.4,423.2l48.1,11.6"/>
		<g transform="matrix(1,0,0,1,-107.064,53.5099)">
			<path class="st2" d="M551.8,375.5c-1.4-3.8-3.8,3.6-4.4,6.8c-0.6,3.2-0.3,6.8,1.7,9.4c2.1,2.9,5.8,4.3,9.4,4.5
				c3.6,0.2,7.1-0.7,10.6-1.6c3-0.8,6.1-1.5,8.7-3.3c2.6-1.8,5.3-10.3,4.9-13.4c-0.3,3,0.7,11.5,3.2,13.2c2.5,1.7,5.6,2.3,8.6,2.6
				c5.1,0.4,10.2-0.1,15.1-1.6c1-0.3,2-0.7,2.7-1.5c0.7-0.9,0.9-2.1,1-3.2c0.4-3.1,0.7-6.2,1.1-9.3 M570.4,363.5
				c-3.3-2.9-5.8-7-5.9-11.4c0-1,0.1-2.1,0.7-3c0.3-0.5,0.8-1,1.3-1.3c4.3-3.3,11.9,8.3,16.9,10.1c3.7-2.3,9.7-11.6,13.7-9.8
				c2.9,1.3,2.5,0.6,3.4,2.1c0.5,0.8,1.1,1.7,1.3,2.6c0.4,1.8-0.3,3.7-1.3,5.3c-3.1,5.3-10.5,11.8-16.3,13.6
				C578.2,373.6,574.8,367.5,570.4,363.5 M504.3,323.7c0,13.5-6.9,24.4-15.3,24.4c-21.1,0-25.6-13.6-25.6-27.1
				c0-13.5,14.7-26.2,25.6-21.7C496.8,302.5,504.3,310.2,504.3,323.7 M686.3,321.2c0,13.7-9.5,24.8-21.3,24.8
				c-11.8,0-21.3-11.1-21.3-24.8s9.5-24.8,21.3-24.8C676.7,296.4,686.3,307.5,686.3,321.2"/>
		</g>
		<path class="st2" d="M217.5,409.1c0,0,175.9,231.8,420.1,18.1L621.2,406l24.1-16.9l-36-83.4c0,0,37.3-73.6,3.3-184.8
			c-56.6,18.8-99.4,74.8-99.4,74.8s-82.6-35.2-138.1-1.7l-115-60.7c0,0-20.2,127.1-1.7,165.8l-38.1,69.9l15.6,21.4L217.5,409.1z"/>
	</g>
</g>
</svg>
