<?xml version="1.0" encoding="utf-8"?>
<!-- Generator: Adobe Illustrator 26.0.1, SVG Export Plug-In . SVG Version: 6.00 Build 0)  -->
<svg version="1.0" id="Слой_1" xmlns="http://www.w3.org/2000/svg" xmlns:xlink="http://www.w3.org/1999/xlink" x="0px" y="0px"
	 viewBox="0 0 595.28 841.89" style="enable-background:new 0 0 595.28 841.89;" xml:space="preserve">
<style type="text/css">
	.st0{fill:#FFFFFF;}
	.st1{fill:#EDBAB3;}
	.st2{fill:none;stroke:#000000;stroke-width:2;stroke-linecap:round;stroke-miterlimit:10;}
	.st3{fill:none;stroke:#000000;stroke-width:2;stroke-linecap:round;stroke-linejoin:round;stroke-miterlimit:10;}
	.st4{fill:none;stroke:#000000;stroke-width:1.5;stroke-miterlimit:10;}
	.st5{fill:none;stroke:#000000;stroke-width:1.5;stroke-linecap:round;stroke-miterlimit:10;}
</style>
<path class="st0" d="M142.56,241.93c-2.09-2.85-3.02-6.38-2.76-9.9c0.68-9.2,3.68-30.67,16.83-33.41
	c14.65-3.05,22.87,5.56,24.74,7.82c0.28,0.34,0.67,0.55,1.1,0.62c2.49,0.37,10.93,2.01,10.93,7.24c0,0-0.08,2.31-5.17,2.13
	c-0.43-0.01-0.74,0.41-0.57,0.8c1.12,2.72,3.88,11.78-1.56,25.34c-0.66,1.64-1.99,2.91-3.65,3.51
	C174.87,248.85,152.47,255.48,142.56,241.93z"/>
<path class="st0" d="M142.56,241.93c-2.09-2.85-3.02-6.38-2.76-9.9c0.68-9.2,3.68-30.67,16.83-33.41
	c14.65-3.05,22.87,5.56,24.74,7.82c0.28,0.34,0.67,0.55,1.1,0.62c2.49,0.37,10.93,2.01,10.93,7.24c0,0-0.08,2.31-5.17,2.13
	c-0.43-0.01-0.74,0.41-0.57,0.8c1.12,2.72,3.88,11.78-1.56,25.34c-0.66,1.64-1.99,2.91-3.65,3.51
	C174.87,248.85,152.47,255.48,142.56,241.93z"/>
<path class="st0" d="M151.86,248.67c0,0-3.85,3.58-2.95,26.8c0,0,0.67,6.7,8.53,7.83c7.86,1.12,9.14-6.09,9.14-6.09
	s5.42,9.71,13.03,4.4c1.45-1.01,2.5-2.53,2.92-4.24c3-12.06-0.51-24.79-4.42-29.55"/>
<path class="st1" d="M176.74,202.28c0,0,7.32-4.32,7.32-7.95c0-3.63,2.36,8.6-0.59,12.9"/>
<path class="st1" d="M140.2,236.83c0,0,24.93-16.09,47.82,0l-1.92,5.75c0,0-2.32,5.38-19.52,7.31s-23.14-6.23-23.14-6.23
	L140.2,236.83z"/>
<path class="st1" d="M140.95,269.37c0,0-8.31,12.26,9.67,10.15l-1.85-7.06v-4.61v-0.95l-4.35,0.22L140.95,269.37z"/>
<path class="st1" d="M148.91,275.46c0,0,6.74-10.7,16.62-0.71l0.77,3.44l-3.34,4.23l-6.54,0.68l-5.8-3.58L148.91,275.46z"/>
<path class="st1" d="M142.76,207.88c0,0-2.56-9.25-0.32-12.75c0,0,5.2,7.33,7.88,7.38l-4.81,4.47"/>
<path class="st1" d="M166.58,277.2c0,0,6.83-13.26,16.6-3.07l-1.28,5.46l-4.5,3.18l-4.58,0.34l-3.98-2.96L166.58,277.2z"/>
<path class="st0" d="M145.96,207.49c0,0-9.93-0.8-12.12,6.27c-0.18,0.6,0.22,1.22,0.84,1.3l7.82,1.01"/>
<path class="st2" d="M176.74,202.28c0,0,6.93-4.34,7.32-7.95c0.3-2.79,2.36,8.6-0.59,12.9"/>
<path class="st1" d="M183.66,271.89l-0.48,4.31l-1.28,3.39c16.78-1.76,7.91-11.37,7.91-11.37l-6.15-1.23"/>
<path class="st2" d="M145.96,207.49c0,0-9.93-0.8-12.12,6.27c-0.18,0.6,0.22,1.22,0.84,1.3l7.82,1.01"/>
<path class="st3" d="M142.8,207.23c0,0-2.56-9.25-0.32-12.75c0,0,5.2,7.33,7.88,7.38"/>
<path class="st3" d="M140.2,236.02c0,0,24.93-16.09,47.82,0"/>
<path class="st0" d="M148.81,238.01c0.29-0.1,0.6-0.13,0.91-0.16c0.45-0.04,0.9-0.08,1.35-0.12c0.31-0.03,0.66-0.05,0.91,0.14
	c0.14,0.1,0.23,0.26,0.31,0.4c0.17,0.29,0.33,0.58,0.5,0.87c0.07,0.12,0.14,0.26,0.1,0.39c-0.02,0.07-0.07,0.13-0.11,0.18
	c-0.44,0.49-1.12,0.73-1.78,0.73c-0.66,0-1.3-0.21-1.89-0.52c-0.43-0.22-0.88-0.55-1.02-1.04
	C147.94,238.4,148.35,238.17,148.81,238.01z"/>
<path class="st0" d="M182.89,258.67c0,0,6.92,1.93,6.92,9.54c0,0-2.58-1.75-6.15-1.23"/>
<path class="st0" d="M149.42,256.97c0,0-7.05,1.32-8.47,12.4c0,0,5.6-3.31,7.82-2.46"/>
<path class="st4" d="M148.81,238.01c0.29-0.1,0.6-0.13,0.91-0.16c0.45-0.04,0.9-0.08,1.35-0.12c0.31-0.03,0.66-0.05,0.91,0.14
	c0.14,0.1,0.23,0.26,0.31,0.4c0.17,0.29,0.33,0.58,0.5,0.87c0.07,0.12,0.14,0.26,0.1,0.39c-0.02,0.07-0.07,0.13-0.11,0.18
	c-0.44,0.49-1.12,0.73-1.78,0.73c-0.66,0-1.3-0.21-1.89-0.52c-0.43-0.22-0.88-0.55-1.02-1.04
	C147.94,238.4,148.35,238.17,148.81,238.01z"/>
<path class="st0" d="M179.64,237.67c0.39-0.01,0.8,0.02,1.15,0.19c0.37,0.18,0.65,0.5,0.9,0.82c0.11,0.14,0.22,0.29,0.21,0.47
	c-0.02,0.28-0.33,0.43-0.59,0.52c-1.07,0.33-2.29,0.41-3.26-0.15c-0.26-0.15-0.53-0.38-0.62-0.68c-0.1-0.33,0.11-0.49,0.36-0.67
	C178.31,237.79,179,237.68,179.64,237.67z"/>
<path class="st4" d="M179.64,237.67c0.39-0.01,0.8,0.02,1.15,0.19c0.37,0.18,0.65,0.5,0.9,0.82c0.11,0.14,0.22,0.29,0.21,0.47
	c-0.02,0.28-0.33,0.43-0.59,0.52c-1.07,0.33-2.29,0.41-3.26-0.15c-0.26-0.15-0.53-0.38-0.62-0.68c-0.1-0.33,0.11-0.49,0.36-0.67
	C178.31,237.79,179,237.68,179.64,237.67z"/>
<ellipse transform="matrix(0.9913 -0.1319 0.1319 0.9913 -28.495 22.1371)" cx="152.9" cy="226.22" rx="4.44" ry="5.19"/>
<ellipse cx="176.97" cy="226.37" rx="3.88" ry="4.47"/>
<path class="st3" d="M148.91,274.74c0,0,5.83-9.26,14.59-2.51c1.29,0.99,2.69,2.38,3.04,3.97"/>
<path class="st3" d="M166.58,276.53c0,0,6.71-13.26,16.31-3.07"/>
<path class="st5" d="M166.82,275.64c0.55-4.48-2.91-9.36-2.91-9.36"/>
<path class="st5" d="M168.39,264.78c0,0-2.74,8.1-1.29,11.42"/>
<path class="st5" d="M183.66,266.99c3.57-0.53,6.15,1.23,6.15,1.23c0-7.62-6.92-9.54-6.92-9.54"/>
<path class="st5" d="M190.2,268.21c0,0,8.87,9.61-7.91,11.37"/>
<path class="st5" d="M149.42,256.44c0,0-7.05,1.32-8.47,12.4c0,0,5.6-3.31,7.82-2.46"/>
<path class="st5" d="M140.95,269.05c0,0-8.31,12.26,9.67,10.15"/>
<path class="st2" d="M142.28,242.3c-2.09-2.85-3.02-6.38-2.76-9.9c0.68-9.2,3.68-30.67,16.83-33.41
	c14.65-3.05,22.87,5.56,24.74,7.82c0.28,0.34,0.67,0.55,1.1,0.62c2.49,0.37,10.93,2.01,10.93,7.24c0,0-0.08,2.31-5.17,2.13
	c-0.43-0.01-0.74,0.41-0.57,0.8c1.12,2.72,3.88,11.78-1.56,25.34c-0.66,1.64-1.99,2.91-3.65,3.51
	C174.59,249.21,152.18,255.84,142.28,242.3z"/>
<path class="st2" d="M151.86,249.35c0,0-3.85,3.58-2.95,26.8c0,0,0.67,6.7,8.53,7.83s9.14-6.09,9.14-6.09s5.42,9.71,13.03,4.4
	c1.45-1.01,2.5-2.53,2.92-4.24c3-12.06-0.51-24.79-4.42-29.55"/>
</svg>
