<?xml version="1.0" encoding="utf-8"?>
<!-- Generator: Adobe Illustrator 27.0.0, SVG Export Plug-In . SVG Version: 6.00 Build 0)  -->
<svg version="1.1" id="Слой_1" xmlns="http://www.w3.org/2000/svg" xmlns:xlink="http://www.w3.org/1999/xlink" x="0px" y="0px"
	 viewBox="0 0 800 1000" style="enable-background:new 0 0 800 1000;" xml:space="preserve">
<style type="text/css">
	.st0{fill-rule:evenodd;clip-rule:evenodd;fill:#F4C86C;}
	.st1{fill-rule:evenodd;clip-rule:evenodd;fill:#C07338;}
	.st2{fill:none;stroke:#1E1E1C;stroke-width:14;stroke-linecap:round;stroke-linejoin:round;stroke-miterlimit:5.6105;}
	.st3{fill:none;stroke:#1E1E1C;stroke-width:14;stroke-miterlimit:5.6105;}
	.st4{fill-rule:evenodd;clip-rule:evenodd;fill:#1E1E1C;}
</style>
<g>
	<g>
		<g transform="matrix(1,0,0,1,-106.467,53.7355)">
			<path class="st0" d="M550,403c0,0,164.6-25.9,196.2,113.5c31.6,139.4-131.4,111.4-131.4,111.4s-47.1-6.3-72.2,2.3
				c-25.1,8.6-52.2,12.7-76.3-15.2c0,0-95.7,4.3-121.8,34.3c0,0-19.2,12.7-26.2-1.7l-7.2,1.3c-4.8,0.9-9.7,0-13.9-2.4l-1.7-1
				c-1.6-0.9-3.3-1.6-5-2l-2.6-0.6c-3.5-0.8-6.9-2.2-9.9-4.2l-3.7-2.4c-1.5-0.9-3-1.8-4.6-2.5l-1.3-0.6c-2.6-1.2-4.7-3.2-6-5.8
				l-0.2-0.4c-1.9-3.8-2.6-8.1-1.9-12.3l0.1-0.7c0.8-4.9,2.7-9.6,5.5-13.7l4.7-7.1c4.2-6.4,9.1-12.3,14.4-17.8l30.7-32.4
				c0,0,2.7,7.9,31.2,23.6c1,0.5,10.8,10.2,19.9,14c7.5,3.1,55.7-17.3,72.2-23.5c2.3-0.9,4.3,12,8.6,14.3c1.1,0.6,31.9-27.7,39.6-38
				c6.1-8.2,19.8-27.2,25.3-34.8c0.6-0.9,14.3,17.9,18.1,0.1c3.3-15.2,2-68.5,1.6-83.7c-0.1-2.6,22,4.3,22,4.3 M475.8,406.6
				c0,0,41.2,90.6-82.4,117.2c0,0-116.3-17.4-108-85.1l10.1-42.1c0,0-35.6-39.4-10.5-73.2c0,0,47.1,8.2,57.2,23.8
				c0,0,52.2-15.6,85.1,5.5c0,0,41.2-22.9,65.9-15.6C493.2,337.1,513.3,376.4,475.8,406.6"/>
		</g>
		<g transform="matrix(1,0,0,1,-106.467,53.7355)">
			<path class="st1" d="M437.9,557l3.7,17.5c30.7,0.5,71-75.8,71-75.8l13.2,14.3c20.7-14.8,5.8-96.9,5.8-96.9l21.7,7.5
				c2.6-19-38.1-81.2-38.1-81.2l14.3-3.2c-13.8-42.4-75.8-49.3-75.8-49.3l5.8-22.8l-74.7,18.3L327.1,255l9,21.2
				c-31.8,2.1-84.2,39.7-84.2,39.7l14.8,3.7l-48.7,87l21.7-7.8c0,0-9.5,98.3-0.5,106.2L254,486l48.3,75.8l12.6-14.8l46.6,32.7
				 M475.8,406.6c0,0,41.2,90.6-82.4,117.2c0,0-116.3-17.4-108-85.1l10.1-42.1c0,0-35.6-39.4-10.5-73.2c0,0,47.1,8.2,57.2,23.8
				c0,0,52.2-15.6,85.1,5.5c0,0,41.2-22.9,65.9-15.6C493.2,337.1,513.3,376.4,475.8,406.6z M542.6,630.2
				c18.9-48.9-51.6-42.3-51.6-42.3c5.4,16.3-24.7,27.1-24.7,27.1l24.3,18l23,2 M302.7,376.2c1.7,2,4.9,1.9,6.5-0.2
				c4.2-5.9,12-16.3,15.2-17.5c3.6-1.4-14-9-21.5-12.1c-2-0.9-4.4,0.1-5.3,2.1C295.2,353.5,292.7,364.1,302.7,376.2 M450.3,367.6
				c0,0,26.6-16.7,31.9-9.6c5.3,7.1-16,33-16,33L450.3,367.6z"/>
		</g>
		<path class="st2" d="M369.3,460.4c0,0,41.2,90.6-82.4,117.2c0,0-116.3-17.4-108-85.1l10.1-42.1c0,0-35.6-39.4-10.5-73.2
			c0,0,47.1,8.2,57.2,23.8c0,0,52.2-15.6,85.1,5.5c0,0,41.2-22.9,65.9-15.6C386.7,390.8,406.9,430.2,369.3,460.4z"/>
		<path class="st3" d="M196.2,429.9c1.7,2,4.9,1.9,6.5-0.2c4.2-5.9,12-16.3,15.2-17.5c3.6-1.4-14-9-21.5-12.1
			c-2-0.9-4.4,0.1-5.3,2.1C188.7,407.3,186.2,417.8,196.2,429.9z"/>
		<path class="st2" d="M343.9,421.3c0,0,26.6-16.7,31.9-9.6c5.3,7.1-16,33-16,33L343.9,421.3z"/>
		<path class="st4" d="M237.9,491.9c-2.4,7.8-9.3,12.5-15.3,10.6c-6-1.9-8.9-9.7-6.5-17.5c2.4-7.8,9.3-12.5,15.3-10.6
			C237.4,476.3,240.3,484.1,237.9,491.9"/>
		<path class="st4" d="M336.2,494.6c0.6,8.1-4.1,15.1-10.4,15.5c-6.3,0.4-11.9-5.8-12.4-13.9c-0.6-8.1,4.1-15.1,10.4-15.5
			C330.1,480.2,335.6,486.5,336.2,494.6"/>
		<path class="st2" d="M202.7,429.7c0,0-12.2,14.5-13.7,20.6"/>
		<path class="st2" d="M359.8,444.8c0,0,7.6,10.5,9.5,15.6"/>
		<path class="st4" d="M278.7,542.6c-1.8-1.5-3.4-3.8-4.5-5.7c-4.4,5-12.1,5.7-18.7,5c-1.7-0.2-3.3-0.7-4.7-1.7
			c-3-2.1-5.3-5.2-6.4-8.7c-0.3-0.8,0-1.7-0.2-2.6c-0.2-0.8-0.3-1.8,0.1-2.5c0.6-1.2,1.7-1.5,3.1-1.6c1.6,0,3,0.9,4.1,2.1
			c1.1,1.1,2,2.5,3.1,3.6c2.4,2.3,6,3.3,9.3,2.6c2.6-0.6,4.5-3.2,5.8-5.6c0.6-1.1,1-2.3,0.7-3.5c-0.4-1.6-1.9-2.7-3.2-3.7
			c-3-2.2-5.7-4.7-8.2-7.6c-0.6-3.6,1.6-4.5,2.1-4.9c2-1.6,4.5-2.4,7-2.2c6.3,0.4,12.6-0.2,18.4,2.2c2,0.8,4.1,2,5.1,3.9
			c0.1,0.2,0.2,0.4,0.4,0.3s0-0.4-0.1-0.2c0.4,2.8-1.1,5.5-2.9,7.6c-1.9,2.1-4.3,3.6-6.7,5.1c-1,0.7-2.2,1.5-2.2,2.7
			c-0.1,1.5,1.5,2.6,2.1,3.9c0.6,1.2,1.2,2.6,2.4,3.1c1.2,0.6,2.6,0.6,4,0.5c1.5-0.1,3-0.3,4.4-1c2.9-1.5,4.8-5.2,8.1-5.3
			c2.5-0.1,4.8,2.3,4.9,4.8c0.1,2.5-1.6,4.9-3.9,6.1c-3,1.5-6,3.5-9.1,4.8c-3,1.2-6.3,1.6-9.6,1.1c-0.5-0.1-1.1-0.2-1.6-0.5"/>
		<path class="st2" d="M331.4,607l3.7,17.5c30.7,0.5,71-75.8,71-75.8l13.2,14.3c20.7-14.8,5.8-96.9,5.8-96.9l21.7,7.5
			c2.6-19-38.1-81.2-38.1-81.2l14.3-3.2c-13.8-42.4-75.8-49.3-75.8-49.3l5.8-22.8l-74.7,18.3L220.7,305l9,21.2
			c-31.8,2.1-84.2,39.7-84.2,39.7l14.8,3.7l-48.7,87l21.7-7.8c0,0-9.5,98.3-0.5,106.2l14.8-19.1l48.3,75.8l12.6-14.8l39.2,27.6"/>
		<path class="st2" d="M443.5,456.7c0,0,164.6-25.9,196.2,113.5c31.6,139.4-131.4,111.4-131.4,111.4s-47.1-6.3-72.2,2.3
			c-25.1,8.6-52.2,12.7-76.3-15.2c0,0-95.7,4.3-121.8,34.3c0,0-19.2,12.7-26.2-1.7l-7.2,1.3c-4.8,0.9-9.7,0-13.9-2.4l-1.7-1
			c-1.6-0.9-3.3-1.6-5-2l-2.6-0.6c-3.5-0.8-6.9-2.2-9.9-4.2l-3.7-2.4c-1.5-0.9-3-1.8-4.6-2.5l-1.3-0.6c-2.6-1.2-4.7-3.2-6-5.8
			l-0.2-0.4c-1.9-3.8-2.6-8.1-1.9-12.3l0.1-0.7c0.8-4.9,2.7-9.6,5.5-13.7l4.7-7.1c4.2-6.4,9.1-12.3,14.4-17.8l17.3-17.6"/>
		<path class="st2" d="M331.4,610.7c0,0-62,23.8-77.7,26c-15.8,2.1-72.1,21.5-69.6,55.2c2.5,33.7,36.2-4.3,36.2-4.3"/>
		<path class="st2" d="M203.5,673.8c0,0-18.1,21-15.6,29.9"/>
		<path class="st2" d="M166.5,666.3c0,0-7.7,18.5-1.3,22.4"/>
		<path class="st2" d="M477,524.2c0,0-67.7,51.8-37.8,122c2.7,6.3,8.5,10.9,15.2,12.2c31.6,6.2,124.6,17.1,140.2-65.4"/>
		<path class="st2" d="M359.8,668.7c0,0,30.1-10.8,24.7-27.1c0,0,70.5-6.6,51.6,42.3"/>
	</g>
</g>
</svg>
