<?xml version="1.0" encoding="utf-8"?>
<!-- Generator: Adobe Illustrator 26.0.1, SVG Export Plug-In . SVG Version: 6.00 Build 0)  -->
<svg version="1.0" id="Слой_1" xmlns="http://www.w3.org/2000/svg" xmlns:xlink="http://www.w3.org/1999/xlink" x="0px" y="0px"
	 viewBox="0 0 595.28 841.89" style="enable-background:new 0 0 595.28 841.89;" xml:space="preserve">
<style type="text/css">
	.st0{fill-rule:evenodd;clip-rule:evenodd;fill:#F4C86B;}
	.st1{fill-rule:evenodd;clip-rule:evenodd;fill:#C07338;}
	
		.st2{fill-rule:evenodd;clip-rule:evenodd;fill:none;stroke:#000000;stroke-width:1.5;stroke-linecap:round;stroke-linejoin:round;stroke-miterlimit:22.9256;}
	.st3{fill-rule:evenodd;clip-rule:evenodd;fill:none;stroke:#000000;stroke-width:1.5;stroke-miterlimit:22.9256;}
	.st4{fill-rule:evenodd;clip-rule:evenodd;}
</style>
<path class="st0" d="M306.43,411.75c0,0,27.02-4.26,32.21,18.63c5.19,22.89-21.57,18.29-21.57,18.29s-7.74-1.04-11.86,0.38
	c-4.12,1.42-8.58,2.08-12.52-2.49c0,0-15.72,0.7-20,5.64c0,0-3.16,2.08-4.3-0.28l-1.18,0.22c-0.78,0.14-1.59,0.01-2.28-0.39
	l-0.27-0.16c-0.26-0.15-0.54-0.26-0.83-0.33l-0.42-0.1c-0.58-0.14-1.13-0.37-1.63-0.69l-0.61-0.39c-0.24-0.15-0.49-0.29-0.75-0.41
	l-0.21-0.1c-0.42-0.2-0.77-0.53-0.98-0.95l-0.03-0.06c-0.32-0.62-0.43-1.33-0.31-2.01l0.02-0.11c0.14-0.81,0.44-1.58,0.9-2.26
	l0.77-1.16c0.7-1.04,1.49-2.02,2.36-2.92l2.84-2.9"/>
<path class="st1" d="M288.02,437.04l0.61,2.87c5.05,0.09,11.66-12.44,11.66-12.44l2.17,2.35c3.39-2.44,0.96-15.92,0.96-15.92
	l3.57,1.23c0.43-3.12-6.26-13.32-6.26-13.32l2.35-0.52c-2.26-6.96-12.44-8.09-12.44-8.09l0.96-3.74l-12.26,3l-9.48-5l1.48,3.48
	c-5.22,0.35-13.83,6.52-13.83,6.52l2.44,0.61l-8,14.28l3.57-1.28c0,0-1.57,16.14-0.09,17.44l2.44-3.13l7.93,12.44l2.08-2.44
	l7.64,5.37"/>
<path class="st0" d="M294.25,412.35c0,0,6.76,14.88-13.53,19.24c0,0-19.09-2.86-17.73-13.98l1.65-6.91c0,0-5.85-6.46-1.72-12.02
	c0,0,7.73,1.35,9.39,3.91c0,0,8.57-2.55,13.98,0.9c0,0,6.76-3.76,10.82-2.55C297.11,400.93,300.41,407.39,294.25,412.35z"/>
<path class="st2" d="M294.25,412.35c0,0,6.76,14.88-13.53,19.24c0,0-19.09-2.86-17.73-13.98l1.65-6.91c0,0-5.85-6.46-1.72-12.02
	c0,0,7.73,1.35,9.39,3.91c0,0,8.57-2.55,13.98,0.9c0,0,6.76-3.76,10.82-2.55C297.11,400.93,300.41,407.39,294.25,412.35z"/>
<path class="st1" d="M305.21,449.05c3.11-8.03-8.47-6.95-8.47-6.95c0.89,2.68-4.05,4.45-4.05,4.45l3.99,2.95l3.77,0.32"/>
<path class="st1" d="M265.83,407.35c0.28,0.34,0.81,0.31,1.06-0.04c0.69-0.97,1.96-2.67,2.5-2.88c0.6-0.23-2.29-1.48-3.53-1.99
	c-0.34-0.14-0.72,0.01-0.87,0.34C264.6,403.63,264.18,405.37,265.83,407.35z"/>
<path class="st3" d="M265.83,407.35c0.28,0.34,0.81,0.31,1.06-0.04c0.69-0.97,1.96-2.67,2.5-2.88c0.6-0.23-2.29-1.48-3.53-1.99
	c-0.34-0.14-0.72,0.01-0.87,0.34C264.6,403.63,264.18,405.37,265.83,407.35z"/>
<path class="st1" d="M290.07,405.94c0,0,4.37-2.74,5.24-1.57s-2.62,5.42-2.62,5.42L290.07,405.94z"/>
<path class="st2" d="M290.07,405.94c0,0,4.37-2.74,5.24-1.57s-2.62,5.42-2.62,5.42L290.07,405.94z"/>
<ellipse transform="matrix(0.2989 -0.9543 0.9543 0.2989 -207.9923 550.8386)" class="st4" cx="270.88" cy="416.97" rx="2.42" ry="1.88"/>
<ellipse transform="matrix(0.9977 -0.0681 0.0681 0.9977 -27.8166 20.519)" class="st4" cx="286.93" cy="418.09" rx="1.88" ry="2.42"/>
<path class="st2" d="M266.89,407.31c0,0-2,2.38-2.24,3.39"/>
<path class="st2" d="M292.69,409.79c0,0,1.25,1.73,1.56,2.56"/>
<path class="st4" d="M279.37,425.86c-0.29-0.24-0.56-0.62-0.74-0.94c-0.73,0.83-1.98,0.93-3.08,0.81c-0.28-0.03-0.54-0.12-0.77-0.28
	c-0.49-0.34-0.87-0.85-1.06-1.42c-0.04-0.13,0-0.28-0.03-0.42c-0.02-0.14-0.05-0.29,0.01-0.42c0.09-0.2,0.29-0.25,0.51-0.26
	c0.26,0,0.5,0.15,0.68,0.34c0.18,0.19,0.33,0.41,0.52,0.59c0.4,0.38,0.99,0.54,1.53,0.42c0.43-0.1,0.75-0.53,0.95-0.92
	c0.09-0.18,0.16-0.39,0.11-0.58c-0.06-0.27-0.31-0.44-0.53-0.6c-0.49-0.36-0.94-0.78-1.34-1.24c-0.1-0.6,0.26-0.73,0.35-0.8
	c0.32-0.26,0.74-0.39,1.15-0.37c1.03,0.06,2.07-0.03,3.02,0.36c0.33,0.14,0.67,0.33,0.83,0.64c0.01,0.03,0.04,0.06,0.07,0.05
	c0.03-0.01,0-0.07-0.01-0.04c0.06,0.46-0.17,0.9-0.48,1.25s-0.71,0.59-1.09,0.84c-0.17,0.11-0.35,0.25-0.37,0.45
	c-0.01,0.25,0.24,0.42,0.35,0.65c0.09,0.2,0.19,0.42,0.39,0.52c0.2,0.09,0.43,0.1,0.66,0.09c0.25-0.02,0.5-0.06,0.72-0.17
	c0.48-0.25,0.79-0.85,1.33-0.87c0.42-0.02,0.79,0.37,0.8,0.79s-0.26,0.81-0.64,1c-0.49,0.24-0.98,0.57-1.49,0.78
	c-0.49,0.2-1.04,0.27-1.57,0.18c-0.09-0.02-0.18-0.03-0.26-0.09"/>
<path class="st2" d="M288.02,436.43l0.61,2.87c5.05,0.09,11.66-12.44,11.66-12.44l2.17,2.35c3.39-2.44,0.96-15.92,0.96-15.92
	l3.57,1.23c0.43-3.12-6.26-13.32-6.26-13.32l2.35-0.52c-2.26-6.96-12.44-8.09-12.44-8.09l0.96-3.74l-12.26,3l-9.48-5l1.48,3.48
	c-5.22,0.35-13.83,6.52-13.83,6.52l2.44,0.61l-8,14.28l3.57-1.28c0,0-1.57,16.14-0.09,17.44l2.44-3.13l7.93,12.44l2.08-2.44
	l6.44,4.52"/>
<path class="st2" d="M306.43,411.75c0,0,27.02-4.26,32.21,18.63c5.19,22.89-21.57,18.29-21.57,18.29s-7.74-1.04-11.86,0.38
	c-4.12,1.42-8.58,2.08-12.52-2.49c0,0-15.72,0.7-20,5.64c0,0-3.16,2.08-4.3-0.28l-1.18,0.22c-0.78,0.14-1.59,0.01-2.28-0.39
	l-0.27-0.16c-0.26-0.15-0.54-0.26-0.83-0.33l-0.42-0.1c-0.58-0.14-1.13-0.37-1.63-0.69l-0.61-0.39c-0.24-0.15-0.49-0.29-0.75-0.41
	l-0.21-0.1c-0.42-0.2-0.77-0.53-0.98-0.95l-0.03-0.06c-0.32-0.62-0.43-1.33-0.31-2.01l0.02-0.11c0.14-0.81,0.44-1.58,0.9-2.26
	l0.77-1.16c0.7-1.04,1.49-2.02,2.36-2.92l2.84-2.9"/>
<path class="st2" d="M288.02,437.04c0,0-10.17,3.92-12.76,4.27s-11.83,3.53-11.42,9.07c0.41,5.53,5.95-0.71,5.95-0.71"/>
<path class="st2" d="M267.03,447.39c0,0-2.98,3.44-2.56,4.9"/>
<path class="st2" d="M260.95,446.16c0,0-1.26,3.04-0.22,3.68"/>
<path class="st2" d="M311.93,422.83c0,0-11.11,8.51-6.21,20.03c0.44,1.04,1.39,1.79,2.5,2.01c5.18,1.02,20.46,2.81,23.02-10.73"/>
<path class="st2" d="M292.69,446.56c0,0,4.95-1.77,4.05-4.45c0,0,11.58-1.09,8.47,6.95"/>
</svg>
