<?xml version="1.0" encoding="utf-8"?>
<!-- Generator: Adobe Illustrator 27.0.0, SVG Export Plug-In . SVG Version: 6.00 Build 0)  -->
<svg version="1.1" id="Слой_1" xmlns="http://www.w3.org/2000/svg" xmlns:xlink="http://www.w3.org/1999/xlink" x="0px" y="0px"
	 viewBox="0 0 800 1000" style="enable-background:new 0 0 800 1000;" xml:space="preserve">
<style type="text/css">
	.st0{fill-rule:evenodd;clip-rule:evenodd;fill:#FCE4E5;}
	.st1{fill-rule:evenodd;clip-rule:evenodd;fill:#5B3E12;}
	.st2{fill-rule:evenodd;clip-rule:evenodd;fill:#C18A91;}
	.st3{fill-rule:evenodd;clip-rule:evenodd;fill:#050407;}
	.st4{fill-rule:evenodd;clip-rule:evenodd;fill:#25AF87;}
	.st5{fill:none;stroke:#050407;stroke-width:14;stroke-linecap:round;stroke-linejoin:round;stroke-miterlimit:5.6105;}
</style>
<g>
	<g>
		<g transform="matrix(1,0,0,1,-105.612,54.6373)">
			<path class="st0" d="M321.1,549.4c7.6-4.2,14.9-6.5,41.9-22.6c19.1-11.5,31.1-38.8,38.9-46.2c21.1-20.2,61.3-9.6,74.2,11.5
				c5.4,8.8,17.5,36.5,14.2,59.1c-3.5,23.7-23.3,64.8-37.9,75c-17.9,12.5-28,20.5-44.4,24.9c-17.3,4.6-40.3,5.8-59.6,3
				c-13.3-2-27.3-11.5-39-27.9C292.8,603.3,291.1,568.6,321.1,549.4z M438.5,499.5c6.6,0,12,5.7,12,12.7c0,7-5.4,12.7-12,12.7
				c-6.6,0-12-5.7-12-12.7C426.5,505.2,431.9,499.5,438.5,499.5z M388.6,570.4c-0.5-0.6,1-1.8,1.5-2.5c0.7-0.9,1.5-1.5,2.1-2.5
				c0.5-0.7,0.8-1.6,1.5-2.1c1.3-0.9,2.1-2.2,3.2-3.3c2.9-2.8,6-5.4,9.4-7.7c0.9-0.6,2.3-0.7,3.3-1.1c2.5-1,5.7-1.5,7.5,0.8
				c0.9,1.2,1.3,4.9,0.8,6.2c-0.3,0.7-0.9,1.3-1.2,2c-1.4,3.1-3.5,5.1-5.9,7.5c-2.4,2.5-4.5,5.1-8.2,5.9c-3.1,0.7-7-0.5-9.9-1.3
				c-1-0.3-1.9-0.6-2.8-1.2c-0.3-0.2-0.6-0.4-1-0.5C388.9,570.7,388.5,570.4,388.6,570.4z M408.7,586.9c-1.2-1.1,0.2,0.7,1.8,0.4
				c0.6-0.1,1.3,0.3,1.9,0.4c3,0.6,6.4,2.9,9.5,1c0.8-0.5,1.6-1.2,2.2-1.9c1.6-1.9,3-4.4,3.7-6.8c0.4-1.3,0.4-2.7,1-3.9
				c0.9-2,2-4,3-5.9c0.5-0.9,3-4.9,4.3-2.8c2,3.3,0.1,7.7-1.1,10.8c-2.6,6.8-7.1,13.6-14.6,15.3c-1.5,0.3-2.8,1.2-4.5,1.2
				c-3.1,0-6.4-1.3-8.6-3.4C405.5,589.5,405.7,586.6,408.7,586.9z M352.2,577.8c7.3,0,13.2,6,13.2,13.3c0,7.4-5.9,13.3-13.2,13.3
				c-7.3,0-13.2-6-13.2-13.3C339,583.8,344.9,577.8,352.2,577.8z"/>
		</g>
		<g transform="matrix(1,0,0,1,-106.467,53.7355)">
			<path class="st1" d="M259.3,261.1c-0.3,11.3-10.7,27.7-12.4,39.3c-1.7,12.1,6.9,17,3.6,27.7c34.7,21.2,79.7,32,116.3,43.6
				c26.4,17.5,94.2,26.5,118.3,29.6c-3-11.8-14.3-36.6-21.4-45.9c-19,6.4-39.4,10.8-52,2.5c-17.6-11.4-19.6-32.1-0.6-43.4
				c-0.3-8-3.7-17.5-4-38.4c-0.2-12.1,2.7-36-4.7-38.7c-15.4,3.1-16.8,55.2-15.7,65.8c-10.1-2.8,11.8,16.3-33.8,1.1
				C302.4,287.4,296.3,279.2,259.3,261.1 M824.9,430.5c-0.6-6.7-8.1-25.7-11.1-32.2c-4-8.4-25.8-7.9-34.8-8.9
				c-11.9-1.4-69.2-9-76.8-11.3c1.3,2,20.7,21.1,30.6,34.8c5.7,8,3.6,7.9,13.8,8.4C770.7,422.5,803.1,431.2,824.9,430.5
				 M578.1,411.3c11.6,0.5,23.7-1.3,35.5-0.3l24.5,1.4c3.1,0.3,10.7,5.3,14.1,5.5c-0.1-9.9-13.5-29.9-18.3-37.5
				c-18.4,8.9-21,11.8-41.7,14.8c-19.2-4.6-24.4-15.5-23.5-34.2l-39.2-9.5c2.9,3.3,10,19.7,13.7,23.3
				C555.8,387.1,570.5,395.8,578.1,411.3"/>
		</g>
		<g transform="matrix(1,0,0,1,-106.467,53.7355)">
			<path class="st2" d="M479.1,588.3c-21.3,41-53.9,60.8-85.8,65.6c-38.6,5.8-73.6-8.1-88-35c-12.9-24.1-7.5-51.7,14.2-67
				c12-8.4,21.6-9.8,33.4-15.5c6.4-3.1,20.4-14.6,25.5-19.8c4.7-4.7,8.2-13.9,14.9-22.8c6.8-9.1,16.8-17.8,34.6-21.2
				C477.2,463.4,507.4,533.7,479.1,588.3 M775.1,555.7c-7.9-82-43.8-183.9-149.7-209c4,8.2,8.6,20.3,19.8,45.5
				c10.6,23.8,8.5,49.6,8.2,72.4c-0.2,15,1.7,16.4-10.8,16.4c-17.5-0.1-40.5,10-50.8-7.4c-7.8-13.3-8.9-42.1-15.7-56.6
				c-7.4-15.9-22.4-28.4-33-42.2c-17.3-22.2-45.7-35.8-74-40.9c-1.6,4-9.2,13-4.5,15.5c6.2,3.2,15.4,18.5,16.1,25.4
				c3.9,41.1,11.6,67.4,35.6,118.9c3.1,6.8,0,25.2,0.9,36c0.7,8.4,5.7,68.3-12.3,58.1c-2.7-5.3,4-8.6,5.1-14.5
				c8-46.1,12.6-96.1-30.9-120.9c-21.4-12.2-57.8-24.8-81.8-24.2c-17.3,0.4-42.9,3.2-59.3,9.7c-21,8.3-13.9,9.1-28.8-7.3
				c-2.1,9.4,1.8,29.5-12,24.9c-5.6-1.9-10.4,2.8-12.2,11.4c-1.4,6.8-11.4,11.6-13.3,18.8c-7.5,28.2-13.2,46.2-13.8,77.4
				c-1,48.2,27.9,93.7,75.8,110.9c35.1,12.6,47.9,14.5,59.7,15.9c4.6,0.6,11.1,5.1,16.6,10.8c11.2,11.5,37.3,15.3,52.1,22.6
				c80.3,40,206.5,44.6,274.3-28.7C773.2,654.7,780.2,608.3,775.1,555.7 M405,427.2c24.2,6.5,55.6,4.1,79.8,25.2
				c-2.2-13.3,1.8-29.4-1.2-42.7l-78.4-12.4L405,427.2z M598.3,350.5c-36.8-0.4-23.1,36.1,7.6,33.3c11.3-1,21.3-7,16.3-19.8
				C625.5,346.7,610.8,348.6,598.3,350.5 M424.5,322.6c-39.9-11.9-22.4,37.9,18.5,30.3C472.4,349.4,453.2,316.8,424.5,322.6"/>
		</g>
		<path class="st3" d="M260.9,651.2c10.1-21.6-21.8-31.1-29.4-12.1C223.6,658.8,250.8,672.7,260.9,651.2"/>
		<path class="st3" d="M328.3,551.5c-21.1,7.4-10.3,37.4,10.4,31C357.1,576.9,349.3,544.2,328.3,551.5"/>
		<path class="st3" d="M303.8,602.9c-9.6,4.7-38.9,28.6-9.8,28.9C319.8,632.1,321.6,594.3,303.8,602.9"/>
		<path class="st4" d="M266.2,311.7c-3.3-16.8-34.1-29.7-50.1-28.6c2.3,6.3,13.1,15.9,19.2,19.9
			C244.5,309.1,254.8,312.9,266.2,311.7"/>
		<path class="st3" d="M299.6,639.7c-10.4,14.7,30.6,21.3,33.6-11.2c0.4-4.7,0.4-11.8-6-11.5c-9.5,0.5-1.6,18.9-13.4,23.2
			C305.4,643.3,307.1,634.7,299.6,639.7"/>
		<path class="st5" d="M269.4,309c-23,16.4-59.2-8.8-58.3-32C243.3,277,253.3,282.1,269.4,309h8.7c11.7-16.4,0.3-26.2,20.4-20.4
			c9,12.7,8.7,61.3,8.7,78.7c24,7.8,18.3-0.6,46.6,14.6c29.5,0,40.3,14.8,67,20.4c19.1,0,26.6,2.6,43.7,5.8
			c25.6-13.7,20.9-8.7,49.5-8.7c10.5-10.9,39,7.3,60.4,19.8c10.1,5.9,18.9,14.1,25.2,24c4.3,6.7,9.9,14.2,15.7,20.7
			c11,12.6,19.7,26.9,25.8,42.5c12.3,31.6,32.5,63,33.2,105.6c0.9,55.8-1,88.5-35,131.1c-60.1,75.3-177.3,84.2-262.2,50.5
			c-21.2-8.4-45-20.5-64.1-32.9c-51.6-33.6-14.8-12.8-67-20.7c-52.6-8-87.9-49.6-93.2-101.8c-2.6-25.1-2.4-38.7,3.2-64.1
			c2-9,14.9-62.3,19.9-64.1c2.3-0.8,11.3,1.3,14.8-0.9c7.3-4.6,3.7-12.3,6.9-16.9c10.8-15.3,5.9,8.8,33.9-0.6
			c20.8-7,43.7-10.7,67-10.7c14.8,4.8,28.1,4.1,43.7,10.9c17.5,7.6,22.7,14.9,43.7,15.4c20.3,27.6,29,95.7,17.5,131.1 M385.9,507.1
			c-1.2-15-4-30.1-8.7-43.7c-18.3-9.4-58.9-17.5-81.6-17.5c-26.3-20.8-134.1-37.9-151.5-64.1c-7-18-4-56,8.7-67
			c24.8,4.7,38.9,18.4,61.2,29.9c26.7,13.8,35.4,14.2,64.1,19.6c6.2-16,3.1-39.1,0-55.3 M353.9,381.9v23.3
			c-36.2,12.5-80.9-2.9-46.6-37.9 M420.9,402.3c2.2,10.4,41.2,61.5,49.5,67c29.6,0,42.6,0.7,69.9,5.8c0-21.7,1.6-34.7-17.5-46.6
			c-3.2-9.8-5.3-19.2-8.7-29.1 M377.2,463.4c8.4-21.7-5.4-46.2-23.3-58.3 M522.8,428.5C510.4,439.7,502,443,485,443
			c-22.1-13.2-15.8-10.8-20.4-35 M633.5,480.9c26.7,0,75.7,17.2,87.4,0c-0.9-42.7-19.7-38.7-52.4-44.7c-22.1-4.1-52.8-7.8-75.7-7.8
			 M298.5,480.9c0-14.6,1.4-21.7-2.9-35 M540.3,475.1c4.1,21.5,12.6,37.3,2.9,58.3c-17.7,0-40,4.5-52.6-8.6
			c-8.6-9-19.2-42.4-20.2-55.5"/>
		<path class="st5" d="M163.8,324c0,0,6.6,37.9-8.8,60.3"/>
	</g>
</g>
</svg>
