<?xml version="1.0" encoding="utf-8"?>
<!-- Generator: Adobe Illustrator 26.0.1, SVG Export Plug-In . SVG Version: 6.00 Build 0)  -->
<svg version="1.0" id="Слой_1" xmlns="http://www.w3.org/2000/svg" xmlns:xlink="http://www.w3.org/1999/xlink" x="0px" y="0px"
	 viewBox="0 0 595.28 841.89" style="enable-background:new 0 0 595.28 841.89;" xml:space="preserve">
<style type="text/css">
	.st0{fill:#E4904A;}
	.st1{fill:#F5EBD5;}
	.st2{fill:#FFFFFF;}
	.st3{fill:none;stroke:#00A19A;stroke-linecap:round;stroke-linejoin:round;stroke-miterlimit:10;}
	.st4{fill:none;stroke:#000000;stroke-width:1.7;stroke-linecap:round;stroke-linejoin:round;stroke-miterlimit:10;}
	.st5{fill:none;stroke:#000000;stroke-width:1.4;stroke-linecap:round;stroke-linejoin:round;stroke-miterlimit:10;}
	.st6{fill:none;stroke:#000000;stroke-width:2;stroke-linecap:round;stroke-linejoin:round;stroke-miterlimit:10;}
</style>
<path class="st0" d="M288.01,423.56c0,0-1.82,3.26-1.12,5.99c0,0-2.96,7.75,0.02,12.99c0,0-2.39,11.16,0.92,15.62
	c2.19,2.94,14.3,2.71,14.3,2.71l2.83-2.53l3.4,3.77l5.14-2.73l3.33-0.01c0,0,10.89,0.8,5.43-15.02c0,0,3.22-9.94,1.11-14.82
	l-1.13-5.58"/>
<path class="st1" d="M330.25,413.4c-0.82,0.17-1.54-0.06-2.1-0.4c-0.33,0.53-0.67,1.06-1.11,1.49c-0.3,0.3-0.64,0.55-0.97,0.8
	c-0.51,0.38-1.08,0.72-1.59,1.09c-0.86,0.62-1.85,1.01-2.84,1.39c-0.44,0.17-0.86,0.4-1.32,0.5c-2.43,0.55-5.1,0.29-7.44-0.55
	c-2.06-0.74-3.85-2.06-5.77-3.1c-0.53-0.29-1.15-0.38-1.75-0.38c-1.33-0.01-2.6,0.6-3.83,1.09c-1.16,0.46-2.3,0.96-3.42,1.52
	c-0.41,0.2-0.87,0.25-1.3,0.41c-0.86,0.33-1.79,0.39-2.71,0.38c-1.87-0.02-3.81-0.67-5.67-0.91c-0.58-0.08-1.13-0.29-1.67-0.53
	c-0.67-0.29-1.33-0.61-1.95-0.99c-1.02-0.61-1.93-1.39-2.72-2.29c-1.47,0.9-3.06,0.2-3.06,0.2c0.71,2.39,5.79,7.43,8.96,10.41
	c-0.84,1.93-0.92,6.01-0.92,6.01s1.47,9.27,5.56,10.23l0.77-3.16c0,0,5.55,8.71,11.99,10.41c0,0,8.56-6.09,10.83-9.75l1.46,1.73
	c0,0,6.07-6.24,5.06-11.88c0,0-0.06-1.66-0.26-3.37c0.7-0.56,1.34-1.18,1.93-1.87C327.05,418.79,331.73,413.09,330.25,413.4z"/>
<path class="st0" d="M296.59,393.37c0,0-5.18-8.87-17.55-14.35c0,0-10.3,17.59,5.22,30.22"/>
<path class="st1" d="M290.36,396.87c0,0-7.67-2.77-10.74-10.87c0,0-0.81,11.13,6.53,17.74
	C286.14,403.74,287.82,400.14,290.36,396.87z"/>
<path class="st0" d="M314.25,392.84c0,0,11.1-13.4,16.29-13.82c0,0,7.58,7.96,3.56,21.17c0,0-2.51,7.57-8.2,8.35"/>
<path class="st1" d="M320.59,397.24c5.48-3.27,9.5-12.07,9.5-12.07l0.39,0.36c0.25,0.23,0.4,0.54,0.44,0.88
	c0.24,2.45,1.04,12.78-2.25,16.5l-2.79,4.01l-4.36-8.16L320.59,397.24z"/>
<path class="st0" d="M284.63,415.22c0.62,0.38,1.28,0.69,1.95,0.99c0.54,0.23,1.09,0.45,1.67,0.53c1.85,0.24,3.79,0.9,5.67,0.91
	c0.92,0.01,1.85-0.06,2.71-0.38c0.43-0.16,0.89-0.21,1.3-0.41c1.12-0.55,2.26-1.06,3.42-1.52c1.24-0.49,2.5-1.1,3.83-1.09
	c0.6,0,1.22,0.09,1.75,0.38c1.92,1.04,3.71,2.36,5.77,3.1c2.34,0.84,5.02,1.11,7.44,0.55c0.46-0.1,0.88-0.33,1.32-0.5
	c0.99-0.38,1.98-0.77,2.84-1.39c0.51-0.37,1.09-0.71,1.59-1.09c0.34-0.25,0.67-0.5,0.97-0.8c0.44-0.44,0.79-0.96,1.11-1.49
	c-0.82-0.5-1.31-1.21-1.31-1.21c-1.67-6.39-4.07-10.92-5.97-14.15c-1.39-2.37-10.59-6.89-10.59-6.89l-0.53-3.32l-4.29,3.11
	l-0.81-3.29c-0.62,1.6-8.07,6.12-8.07,6.12c-10.55,6.21-11.17,12.14-12.59,16.75c-0.47,1.53-1.18,2.37-1.91,2.82
	C282.7,413.83,283.62,414.61,284.63,415.22z"/>
<ellipse class="st2" cx="294.59" cy="412.81" rx="1.99" ry="2.97"/>
<ellipse transform="matrix(0.1386 -0.9903 0.9903 0.1386 -137.0685 668.0292)" class="st2" cx="315.5" cy="412.81" rx="2.97" ry="2.4"/>
<path class="st3" d="M297.46,459.95"/>
<path class="st3" d="M306,458.43"/>
<g>
	<path class="st1" d="M263.39,430c0.13-0.37,0.25-0.75,0.42-1.1c0.18-0.38,0.4-0.73,0.62-1.08c0.22-0.35,0.44-0.7,0.67-1.06
		c0.26-0.41,0.82-0.92,1.24-1.16c0.18-0.1,0.37-0.2,0.55-0.3c0.32-0.16,0.65-0.32,1-0.37c1.39-0.22,2.69,1.11,4.07,0.82
		c0.22-0.05,0.48-0.04,0.68-0.15c0.21-0.12,0.36-0.32,0.49-0.53c0.43-0.71,0.68-1.53,1.23-2.15c0.1-0.11,0.21-0.21,0.35-0.25
		c0.24-0.06,0.47,0.11,0.66,0.28c0.48,0.41,0.94,0.84,1.47,1.19c0.53,0.34,1.13,0.6,1.76,0.62c0.07,0,0.15,0,0.21-0.04
		c0.01-0.01,0.24-0.18,0.59-0.43c-2.06-3.34-3.31-7.32-3.9-9.57c-0.27-1.01-0.32-2.06-0.15-3.09c0.42-2.5,0.41-6.81-7.82,3.84
		c-4.51,5.84-5.72,11.48-5.62,16.03c0.48-0.03,0.91-0.06,1.02-0.11C263.08,430.93,263.23,430.46,263.39,430z"/>
	<path class="st0" d="M281.92,441.86c2.19-9.68-1.15-15.57-1.2-15.65c0,0,0,0,0-0.01c-0.48-0.6-0.92-1.25-1.34-1.92
		c-0.34,0.26-0.57,0.42-0.59,0.43c-0.06,0.04-0.14,0.04-0.21,0.04c-0.63-0.02-1.23-0.28-1.76-0.62c-0.53-0.34-0.99-0.78-1.47-1.19
		c-0.19-0.16-0.42-0.33-0.66-0.28c-0.14,0.03-0.25,0.14-0.35,0.25c-0.55,0.62-0.8,1.44-1.23,2.15c-0.13,0.21-0.28,0.41-0.49,0.53
		c-0.19,0.11-0.46,0.11-0.68,0.15c-1.37,0.29-2.68-1.04-4.07-0.82c-0.35,0.06-0.68,0.21-1,0.37c-0.19,0.1-0.37,0.19-0.55,0.3
		c-0.42,0.23-0.98,0.75-1.24,1.16c-0.22,0.35-0.44,0.7-0.67,1.06c-0.22,0.35-0.45,0.71-0.62,1.08c-0.17,0.36-0.29,0.73-0.42,1.1
		c-0.16,0.46-0.31,0.92-0.47,1.39c-0.1,0.05-0.54,0.09-1.02,0.11c0.14,6.18,2.68,10.37,2.68,10.37
		c10.46,17.2,20.81,11.02,21.49,10.58c0.02-0.01,0.04-0.04,0.04-0.07l0.02-3.77c0-0.03-0.01-0.05-0.03-0.06
		c-3.79-2.59-4.17-6.52-4.18-6.68C281.92,441.87,281.92,441.87,281.92,441.86z"/>
</g>
<g>
	<path class="st4" d="M279.04,413.13c0,0,3.55,1.6,4.96-3.01c1.42-4.61,2.04-10.55,12.59-16.75c0,0,7.45-4.52,8.07-6.12l0.81,3.29
		l4.29-3.11l0.53,3.32c0,0,9.2,4.52,10.59,6.89c1.9,3.23,4.3,7.76,5.97,14.15c0,0,1.37,2.04,3.4,1.62c1.48-0.31-3.2,5.39-5.84,8.49
		c-1.23,1.45-2.73,2.63-4.43,3.49c-5.66,2.88-18.97,8.13-29.44,0.49C290.54,425.88,280.07,416.64,279.04,413.13z"/>
	<ellipse class="st5" cx="294.59" cy="412.81" rx="1.99" ry="2.97"/>
	
		<ellipse transform="matrix(0.1386 -0.9903 0.9903 0.1386 -137.0685 668.0292)" class="st5" cx="315.5" cy="412.81" rx="2.97" ry="2.4"/>
	<path class="st5" d="M299.38,420.01c0.41,0.73,1.15,1.27,1.97,1.42c0.82,0.16,1.71-0.07,2.35-0.6c0.48-0.39,0.81-0.92,1.13-1.44
		c0.06-0.11,0.13-0.22,0.14-0.34c0.02-0.35-0.38-0.54-0.68-0.72c-0.45-0.28-0.76-0.77-0.83-1.29c-0.06-0.46,0.44-0.79,0.87-0.93
		c0.55-0.18,1.16-0.17,1.71,0.02c0.32,0.11,0.65,0.34,0.69,0.68c0.04,0.32-0.18,0.61-0.4,0.86c-0.4,0.46-0.79,0.91-1.19,1.37
		c-0.08,0.09-0.15,0.18-0.17,0.29c-0.03,0.22,0.16,0.4,0.33,0.53c0.35,0.28,0.7,0.56,1.06,0.83c0.17,0.13,0.34,0.27,0.53,0.36
		c0.57,0.27,1.24,0.17,1.85,0.03c0.58-0.14,1.24-0.37,1.45-0.93"/>
	<path class="st5" d="M314.25,392.84c0,0,11.1-13.4,16.29-13.82c0,0,7.58,7.96,3.56,21.17c0,0-2.51,7.57-8.2,8.35"/>
	<path class="st6" d="M330.11,384.64c0,0-4.85,9.94-9.26,12.23"/>
	<path class="st5" d="M296.57,393.02c0,0-5.18-8.87-17.55-14.35c0,0-10.3,17.59,5.22,30.22"/>
	<path class="st6" d="M279.85,385.47c0,0,5.23,10.57,10.83,11.8"/>
	<g>
		<path class="st4" d="M312.8,459.12c0.97-1.13,2.08-2.64,3.35-4.63c6.79-10.62,6.11-10.13,6.11-10.13"/>
		<g>
			<path class="st4" d="M297.46,459.95c-3.82,0.48-7.99,0.4-9.62-1.79c-3.32-4.46-0.92-15.62-0.92-15.62
				c-2.98-5.23-0.02-12.99-0.02-12.99c-0.7-2.73,1.12-5.99,1.12-5.99"/>
			<path class="st4" d="M306,458.43l-0.86,0.01c0,0-0.42-0.02-0.86,0.1"/>
			<path class="st4" d="M322.24,423.96l1.13,5.58c2.11,4.88-1.11,14.82-1.11,14.82c5.47,15.82-5.43,15.02-5.43,15.02l-4.03-0.25"/>
			<path class="st4" d="M323.02,427.78c1.02,5.63-5.35,11.75-5.35,11.75l-1.46-1.73c-1.88,3.02-8.04,7.71-10.13,9.24
				c-0.47,0.35-1.08,0.42-1.63,0.21c-6.03-2.23-11.05-10.11-11.05-10.11l-0.58,2.39c-0.1,0.43-0.59,0.68-0.98,0.47
				c-3.49-1.87-4.93-10.45-4.93-10.45"/>
			<path class="st4" d="M306.07,447.04c0,0-1.2,12.64,1.1,14.89c0,0,1.44,2.1,5.62-2.81"/>
			<path class="st4" d="M286.91,442.54c0,0,6.65,17.87,14.75,19.09c0.68,0.1,1.36-0.28,1.63-0.91c0.63-1.54,1.35-5.32-0.11-14.01"/>
		</g>
	</g>
	<path class="st4" d="M286.12,452.43c0,0-10.71,7.24-21.53-10.56c0,0-7.7-12.65,2.93-26.41c8.22-10.65,8.23-6.34,7.82-3.84
		c-0.17,1.03-0.12,2.08,0.15,3.09c0.71,2.7,2.37,7.89,5.24,11.49c0,0,3.4,5.91,1.19,15.66c0,0,0.32,4.06,4.22,6.7"/>
</g>
</svg>
