<?xml version="1.0" encoding="utf-8"?>
<!-- Generator: Adobe Illustrator 27.0.0, SVG Export Plug-In . SVG Version: 6.00 Build 0)  -->
<svg version="1.1" id="Слой_1" xmlns="http://www.w3.org/2000/svg" xmlns:xlink="http://www.w3.org/1999/xlink" x="0px" y="0px"
	 viewBox="0 0 800 1000" style="enable-background:new 0 0 800 1000;" xml:space="preserve">
<style type="text/css">
	.st0{fill:#E4904A;}
	.st1{fill:#F5EBD6;}
	.st2{fill:none;stroke:#1E1E1C;stroke-width:14;stroke-linecap:round;stroke-linejoin:round;stroke-miterlimit:5.6105;}
</style>
<path class="st0" d="M567.2,679.8c-0.8-0.1-6.7-17.6-13.3-13.5c-6.6,4.1-48,43.6-52.2,50.8c-3.4,5.9-26,19.1-33.1,25.7
	c-7.1,6.5-18.7,0-21.2-1.8c-44.3-31.6-85.9-73.3-86.4-71.3c-2.8,11.5-4.6,16.2-8.6,14.2c-8.1-3.9-23.8-17.2-24.4-19.1
	c-6-19.5-27.2-88.5-22.1-68.6c0,0-25,65.4,0.2,109.5c0,0-20.2,94.1,7.8,131.7c18.4,24.8,120.6,22.9,120.6,22.9l23.8-21.3l28.6,31.7
	l43.3-23l28.1-0.1c0,0,91.8,6.7,45.8-126.6c0,0,27.1-83.8,9.4-125l-39.3,74.5l-3.2,6.2"/>
<path class="st0" d="M386.7,295c0,0-40.1-79.5-144.4-125.7c0,0-83.8,143.6,38.7,249.5c1.5,1.3,11.1-33.5,15.5-44.5
	c0.7-1.9-18.9-19.1-37.6-62.8c-13.5-31.5-9.9-51.3-13.1-76.9c-0.5-3.9,88.7,94.5,87.8,90"/>
<path class="st0" d="M703.9,348.7c0,0-21.2,63.8-69.2,70.4"/>
<path class="st0" d="M632.4,400.4c1.3-3.9,34.6-20,44.4-109.1c5-45.6-3.7-78.1-6.1-75.5c-13.2,14.4-38.2,62.8-40.7,69.9
	c-3.6,10.2-41.8,31-42.9,30.4c-13.9-6.7-52.5-26-45.9-33.5c26.3-29.9,99.2-109.5,132.7-112.3c0,0,63.9,67.1,30,178.5"/>
<path class="st0" d="M286.9,475.5c5.3,3.2,10.8,5.9,16.5,8.3c4.5,2,9.2,3.8,14,4.4c15.6,2,32,7.6,47.8,7.7
	c7.7,0.1,15.6-0.5,22.8-3.2c3.6-1.4,7.5-1.8,10.9-3.5c9.4-4.7,19-9,28.8-12.8c10.4-4.1,21.1-9.3,32.3-9.2c5.1,0,10.3,0.8,14.8,3.2
	c16.2,8.8,31.3,19.9,48.7,26.2c19.7,7.1,42.3,9.3,62.8,4.7c3.9-0.9,7.4-2.8,11.1-4.2c8.3-3.2,16.7-6.5,23.9-11.8
	c4.3-3.1,9.2-6,13.4-9.2c2.8-2.1,5.7-4.2,8.2-6.7c3.7-3.7,6.6-8.1,9.4-12.6c-6.9-4.2-11-10.2-11-10.2
	c-14.1-53.9-34.3-92.1-50.3-119.3c-11.7-20-89.3-58.1-89.3-58.1l-4.4-28l-36.1,26.2l-6.9-27.7c-5.2,13.5-68,51.6-68,51.6
	c-88.9,52.3-94.2,102.4-106.1,141.2c-4,12.9-9.9,20-16.1,23.7C270.6,463.8,278.4,470.3,286.9,475.5"/>
<path class="st0" d="M264.1,700.1c18.4-81.6-9.7-131.3-10.1-131.9c0,0,0,0,0,0c-4-5.1-7.8-10.5-11.3-16.2c-2.9,2.2-4.8,3.6-4.9,3.6
	c-0.5,0.4-1.2,0.4-1.8,0.4c-5.3-0.2-10.4-2.3-14.9-5.2c-4.5-2.9-8.4-6.5-12.4-10c-1.6-1.4-3.5-2.8-5.5-2.3c-1.2,0.3-2.1,1.2-2.9,2.1
	c-4.6,5.2-6.7,12.1-10.4,18.1c-1.1,1.8-2.3,3.5-4.1,4.5c-1.6,0.9-3.9,0.9-5.7,1.3c-11.6,2.4-22.6-8.8-34.3-6.9
	c-3,0.5-5.8,1.8-8.4,3.2c-1.6,0.8-3.1,1.6-4.7,2.5c-3.5,2-8.3,6.3-10.4,9.8c-1.9,3-3.7,5.9-5.6,8.9c-1.9,3-3.8,6-5.3,9.1
	c-1.4,3-2.5,6.2-3.5,9.3c-1.3,3.9-2.6,7.8-3.9,11.7c-0.9,0.4-4.5,0.7-8.6,1c1.2,52.1,22.6,87.5,22.6,87.5
	c88.1,145,175.4,92.9,181.2,89.2c0.2-0.1,0.3-0.3,0.3-0.6l0.2-31.8c0-0.2-0.1-0.4-0.3-0.5c-32-21.8-35.2-55-35.3-56.3
	C264,700.1,264,700.1,264.1,700.1"/>
<g transform="matrix(1,0,0,1,-106.467,53.7355)">
	<path class="st1" d="M778,406.4c-7,1.5-13-0.5-17.7-3.4c-2.8,4.5-5.7,8.9-9.4,12.6c-2.5,2.5-5.4,4.6-8.2,6.7
		c-4.3,3.2-9.1,6.1-13.4,9.2c-7.2,5.2-15.6,8.5-23.9,11.8c-3.7,1.4-7.2,3.4-11.1,4.2c-20.5,4.6-43,2.4-62.8-4.7
		c-17.4-6.3-32.4-17.4-48.7-26.2c-4.5-2.4-9.7-3.2-14.8-3.2c-11.2-0.1-21.9,5.1-32.3,9.2c-9.8,3.8-19.4,8.1-28.8,12.8
		c-3.5,1.7-7.3,2.1-10.9,3.5c-7.2,2.7-15.1,3.3-22.8,3.2c-15.8-0.1-32.1-5.6-47.8-7.7c-4.9-0.6-9.5-2.5-14-4.4
		c-5.6-2.5-11.2-5.1-16.5-8.3c-8.6-5.2-16.3-11.7-22.9-19.3c-12.4,7.6-25.8,1.7-25.8,1.7c6,20.1,48.8,62.6,75.5,87.7
		c-7.1,16.3-7.8,50.7-7.8,50.7s12.4,78.1,46.9,86.2l6.5-26.6c0,0,46.8,73.4,101.1,87.7c0,0,72.1-51.3,91.3-82.2l12.4,14.6
		c0,0,51.2-52.6,42.6-100.1c0,0-0.5-14-2.2-28.4c5.9-4.7,11.3-9.9,16.3-15.7C751,451.8,790.4,403.8,778,406.4 M441.6,267
		c0,0-64.7-23.4-90.6-91.6c0,0-6.9,93.8,55,149.5C406.1,324.9,420.2,294.6,441.6,267 M696.5,270.1c46.2-27.5,80.1-101.8,80.1-101.8
		l3.3,3.1c2.1,1.9,3.4,4.6,3.7,7.4c2,20.6,8.8,107.8-19,139.1l-23.5,33.8l-36.8-68.8L696.5,270.1z M494.1,401.4
		c0,13.8-7.5,25-16.8,25c-9.3,0-16.8-11.2-16.8-25c0-13.8,7.5-25,16.8-25C486.6,376.4,494.1,387.6,494.1,401.4 M673.6,404.2
		c-1.9,13.7-12.4,23.5-23.5,22c-11.1-1.6-18.5-13.9-16.5-27.6c1.9-13.7,12.4-23.5,23.5-22C668.1,378.2,675.5,390.5,673.6,404.2
		 M214.3,546.3c1.1-3.2,2.1-6.3,3.5-9.3c1.5-3.2,3.4-6.2,5.3-9.1c1.9-3,3.8-5.9,5.6-8.9c2.2-3.4,6.9-7.8,10.4-9.8
		c1.5-0.9,3.1-1.7,4.7-2.5c2.7-1.4,5.5-2.7,8.4-3.2c11.7-1.9,22.7,9.4,34.3,6.9c1.8-0.4,4.1-0.4,5.7-1.3c1.8-1,3.1-2.7,4.1-4.5
		c3.6-5.9,5.7-12.9,10.4-18.1c0.8-0.9,1.7-1.8,2.9-2.1c2-0.5,4,1,5.5,2.3c4,3.5,7.9,7.1,12.4,10c4.5,2.9,9.5,5.1,14.9,5.2
		c0.6,0,1.3,0,1.8-0.3c0.1-0.1,2-1.5,4.9-3.6c-17.4-28.2-27.9-61.7-32.9-80.7c-2.3-8.5-2.7-17.4-1.2-26.1
		c3.5-21.1,3.4-57.4-65.9,32.3c-38,49.3-48.2,96.8-47.3,135.2c4-0.2,7.7-0.5,8.6-0.9C211.7,554.1,213,550.2,214.3,546.3"/>
</g>
<path class="st2" d="M239.7,457.9c0,0,29.9,13.5,41.8-25.4c12-38.9,17.2-88.9,106.1-141.2c0,0,62.8-38.1,68-51.6l6.9,27.7l36.1-26.2
	l4.4,28c0,0,77.6,38.1,89.3,58.1c16,27.2,36.2,65.4,50.3,119.3c0,0,11.6,17.2,28.7,13.6c12.5-2.6-27,45.4-49.2,71.6
	c-10.4,12.2-23,22.2-37.4,29.4c-47.7,24.3-159.9,68.5-248.2,4.1C336.7,565.3,248.5,487.4,239.7,457.9z"/>
<path class="st2" d="M387.6,455.2c0,13.8-7.5,25-16.8,25c-9.3,0-16.8-11.2-16.8-25c0-13.8,7.5-25,16.8-25
	C380.1,430.1,387.6,441.3,387.6,455.2z"/>
<path class="st2" d="M567.2,458c-1.9,13.7-12.4,23.5-23.5,22c-11.1-1.6-18.5-13.9-16.5-27.6c1.9-13.7,12.4-23.5,23.5-22
	C561.7,431.9,569.1,444.3,567.2,458z"/>
<path class="st2" d="M411.3,515.8c3.4,6.2,9.7,10.7,16.6,12c6.9,1.3,14.4-0.6,19.8-5c4-3.3,6.8-7.7,9.5-12.2
	c0.5-0.9,1.1-1.9,1.2-2.9c0.2-3-3.2-4.5-5.7-6.1c-3.8-2.4-6.4-6.5-7-10.9c-0.5-3.9,3.7-6.6,7.4-7.8c4.7-1.5,9.8-1.5,14.4,0.2
	c2.7,1,5.5,2.9,5.9,5.7c0.4,2.7-1.6,5.2-3.4,7.2c-3.3,3.8-6.7,7.7-10,11.5c-0.6,0.7-1.3,1.5-1.5,2.5c-0.3,1.8,1.3,3.3,2.8,4.5
	c3,2.3,5.9,4.7,8.9,7c1.4,1.1,2.9,2.3,4.5,3c4.8,2.3,10.4,1.4,15.6,0.2c4.9-1.1,10.4-3.1,12.2-7.8"/>
<path class="st2" d="M703.9,348.7c0,0-21.2,63.8-69.2,70.4"/>
<path class="st2" d="M536.6,286.8c0,0,93.6-113,137.3-116.5c0,0,63.9,67.1,30,178.5"/>
<path class="st2" d="M670.3,217.7c0,0-40.9,83.8-78,103.1"/>
<path class="st2" d="M387.5,288.3c0,0-43.7-74.7-148-121c0,0-86.8,148.3,44,254.8"/>
<path class="st2" d="M246.6,224.7c0,0,44.1,89.1,91.3,99.5"/>
<path class="st2" d="M524.4,845.6c8.1-9.6,17.5-22.3,28.2-39.1c57.3-89.6,51.5-85.4,51.5-85.4"/>
<path class="st2" d="M395,852.5c-32.2,4.1-67.4,3.4-81.1-15.1c-28-37.6-7.8-131.7-7.8-131.7C281,661.7,306,596.3,306,596.3
	c-5.9-23,9.4-50.5,9.4-50.5"/>
<path class="st2" d="M467,839.8l-7.3,0.1c0,0-3.5-0.2-7.3,0.8"/>
<path class="st2" d="M604,549.1l9.5,47c17.8,41.2-9.3,125-9.3,125c46.1,133.3-45.8,126.6-45.8,126.6l-34-2.1"/>
<path class="st2" d="M610.5,581.4c8.6,47.5-45.1,99.1-45.1,99.1l-12.3-14.6c-15.8,25.5-67.8,65-85.4,77.9c-4,2.9-9.1,3.5-13.8,1.8
	c-50.8-18.8-93.2-85.2-93.2-85.2l-4.9,20.1c-0.9,3.6-5,5.7-8.2,4c-29.4-15.7-41.6-88.1-41.6-88.1"/>
<path class="st2" d="M467.7,743.8c0,0-10.1,106.6,9.3,125.5c0,0,12.1,17.7,47.4-23.7"/>
<path class="st2" d="M306.1,705.8c0,0,56.1,150.6,124.3,160.9c5.8,0.9,11.5-2.3,13.7-7.7c5.3-13,11.4-44.8-0.9-118.1"/>
<path class="st2" d="M299.4,789.2c0,0-90.3,61-181.5-89c0,0-64.9-106.6,24.7-222.6c69.3-89.8,69.4-53.4,65.9-32.3
	c-1.5,8.7-1,17.6,1.2,26.1c6,22.8,19.9,66.5,44.2,96.9c0,0,28.7,49.8,10.1,132c0,0,2.7,34.3,35.6,56.5"/>
</svg>
