<?xml version="1.0" encoding="utf-8"?>
<!-- Generator: Adobe Illustrator 26.0.1, SVG Export Plug-In . SVG Version: 6.00 Build 0)  -->
<svg version="1.0" id="Слой_1" xmlns="http://www.w3.org/2000/svg" xmlns:xlink="http://www.w3.org/1999/xlink" x="0px" y="0px"
	 viewBox="0 0 595.28 841.89" style="enable-background:new 0 0 595.28 841.89;" xml:space="preserve">
<style type="text/css">
	.st0{fill-rule:evenodd;clip-rule:evenodd;fill:#D99C62;}
	.st1{fill-rule:evenodd;clip-rule:evenodd;fill:#F9DBA0;}
	.st2{fill:#D99C62;}
	.st3{fill-rule:evenodd;clip-rule:evenodd;fill:#050008;}
	.st4{fill-rule:evenodd;clip-rule:evenodd;fill:#050007;}
	
		.st5{fill-rule:evenodd;clip-rule:evenodd;fill:none;stroke:#050008;stroke-width:1.7;stroke-linecap:round;stroke-linejoin:round;stroke-miterlimit:22.9256;}
</style>
<path class="st0" d="M181.01,217.01c-0.95-0.93-2.01-1.84-3.18-2.66c-2.72-1.91-6.07-3.33-10.13-3.33c-0.47,0-0.95,0.02-1.43,0.07
	c-3.61,0.36-7.56,2.03-10.95,4.28c-2.59,1.72-5.6,3.7-7.13,5.78c-1.76,2.39-1.48,3.71-2.55,6.88c-1.46,4.29,0.75,8.31,3.2,11.66
	c0.9,1.23,0.51,2.75,1.42,3.64c1.09,1.07,2.18,0.16,3.76,0.85c0.43,0.19,0.87,0.36,1.31,0.53c3.41,1.26,7.02,1.75,10.81,1.82l0.14,0
	c4.39,0.07,8.19-0.5,11.57-1.78c1.33-0.5,2.59-1.11,3.79-1.84c1.5-0.9,3.48-3.18,4.51-5.17
	C190.21,229.91,186.32,222.2,181.01,217.01z M155.61,233.19c-0.1,0.03-0.2,0.05-0.3,0.06c-2.9,0.38-2.91-5.27-0.35-6.04
	c0.12-0.04,0.23-0.06,0.35-0.07c1.26-0.16,2.15,1.01,2.22,2.73C157.6,231.37,156.75,232.89,155.61,233.19z M167.23,241.58
	c-0.31,0.02-0.67,0.11-0.97,0.11c-5.3-0.14-7.66-4.27-3.83-7.98c1.19-1.15,0.9-0.65,2.82-1.13c0.26-0.06,0.74,0.5,1.01,0.47
	c1.55-0.15,3.15-0.94,4.11-0.29c1.25,0.85,2,1.46,2.32,3.21C173.35,239.61,170.42,241.33,167.23,241.58z M178.49,232.89
	c-0.23,0.08-0.45,0.11-0.67,0.09c-2.17-0.16-3.46-4.82-0.54-5.92c0.16-0.06,0.35-0.1,0.54-0.12c0.21-0.02,0.43-0.01,0.64,0.04
	c0.69,0.14,1.43,1.73,1.54,2.31C180.28,230.82,179.57,232.51,178.49,232.89z"/>
<path class="st0" d="M159.13,254.56c0.18-0.61,0.91-2.03,1.47-2.26c3.06-1.31,7.44-1.91,10.62-1.07c3.24,0.85,2.47,1.26,2.52,2.2
	c0.02-0.02,0.04-0.09,0.04-0.08c0.01,0.02,0.03-0.06,0.04-0.08c0.29-0.71-0.17,0.58,0.07-0.16c0.01-0.02,0.06-0.3,0.07-0.35
	c0.03-0.27,0.03-0.5,0.07-0.78c0.23-1.94,0.84-1.19,0.94-0.39c0.15,1.28-1.01,6.21-1.43,7.24c-2.54,4.46-5.08,5.95-4.54,9.3
	c0.3-0.19,1.09-1,1.45-1.39c0.54-0.57,0.92-0.39,0.81,0.48c-0.09,0.71-2.44,1.67-0.77,3.52c0.34,0.73,1.16,0.37,1.61,0.16
	c0.73-0.34,0.58-0.87,0.95-1.56c0.34-0.64,0.82-0.97,1.05-0.21c-0.7,0.54-0.01,1.31-0.05,2.14c2.18,0.06,4.19-3.01,5-4.53
	c1.83-3.42,3.95-10.46,4.5-14.37c0.33-2.32,0.62-7.93-0.9-9.27c-0.49,0.17-2.15,1.64-2.58,1.86c-0.54,0.28-1.64,0.26-2.24,0.52
	c-6.18,2.69-13.87,2.01-20.29,0.47c-1.86-0.45-3.41-0.39-5.1-1.21c-0.5-0.24-1.7-0.53-2.19-0.58c-1.04,3.42-1.73,4.73-1.7,8.67
	c0.04,5.09,2.48,11.27,5.53,15.11c0.51,2.04,3.65,4.17,6.08,3.58c-0.48-0.81-2.03-1.54-1.61-2.85c0.72-0.42,1.03-0.12,1.44,0.38
	c0.51,0.62,1.68,2.09,2.61,1.7c0.37-0.16,0.9-1.3,0.9-1.87c-0.69-0.48-2.39-1.02-2.26-1.97c0.12-0.88,1.09-0.64,1.52-0.22
	c0.33,0.32,0.7,0.83,1.23,1.03c-0.07-3.4-6.59-9.69-6.5-15.39c0.05-2.85,1.59-2.29,0.96-0.4
	C158.35,252.32,158.88,254.2,159.13,254.56z"/>
<path class="st1" d="M159.14,253.3c-0.15,1.69,2.58,6.4,3.46,7.73c1.17,1.77,1.69,4.5,1.74,6.82c0.01,0.64,1.15,0.81,1.14,1.28
	l2.42-0.24c0.02-1.39-0.65-2.23,0.62-4.5c1.34-2.39,2.98-3.61,4.14-6.64c0.31-0.8,1.13-3.51,1.07-4.33
	c-0.04-0.94,0.73-1.35-2.52-2.2c-3.18-0.84-7.56-0.24-10.62,1.07C160.04,252.54,159.32,252.69,159.14,253.3z"/>
<path class="st0" d="M194.2,259.21c-1.01-0.79-2.46-1.46-3.46-1.33c-1.08,0.14-2.35,0.69-3.26,1.55c-0.47,0.45-0.58,1.19-1.11,0.31
	c-0.39-0.95,1.21-1.33,1.8-1.93c-0.14-0.44-0.5-0.66-0.79-1.02c-0.8-0.97-2.45-3.36-2.74-3.67c-0.12,0.19-1.56,4.62-1.73,5.22
	c-0.96,3.46-2.63,7.88-4.62,10.79v1.58c1.04,0.51,8.77,0.99,10.28,0.92c0.9-0.04,1.77-0.15,2.58-0.34c2.25-0.51,4.09-1.6,4.87-3.52
	C197.12,265.02,196.15,260.74,194.2,259.21z M192.16,269.08c-0.33,0.28-0.68,0.49-1.02,0.64c-1.86,0.82-3.66-0.19-3.67-2.56
	c-0.01-1.99,1.59-4.75,2.55-5.87c0.28-0.33,0.68-0.58,1.11-0.74c1.54-0.55,3.66,0.11,3.67,2.73
	C194.82,265.69,193.44,268.01,192.16,269.08z"/>
<g>
	<path class="st2" d="M147.67,253.87C147.81,254.25,147.55,253.39,147.67,253.87L147.67,253.87z"/>
	<path class="st2" d="M152.75,269.14c-2.45-2.88-3.94-6.76-4.79-10.43c-0.2-0.89-0.31-1.67-0.44-2.63l-0.23-2.45
		c-0.01-0.02-0.01-0.04-0.01-0.05c-0.01-0.03-0.02-0.06-0.04-0.11l-2.93,3.32c0.75,0.63,1.26,0.72,1.88,1.5
		c0.22,0.28,0.56,0.66,0.46,1.21c-0.08,0.45-0.56,0.34-1.07,0.13c-0.62-0.26-0.91,0.02-1.82-1.21c-0.83-1.12-1.25-0.55-1.82-0.66
		c-4.39-0.84-6.49,4.64-4.32,9.21c0.89,1.86,2.41,3,4.32,3.68c1.84,0.65,4.05,0.86,6.38,0.86c1.57,0,4.63-0.3,5.87-0.77
		C154.02,270.34,153.13,269.58,152.75,269.14z M143.69,269.35c-0.48,0.17-0.93,0.18-1.36,0.09c-1.69-0.35-2.96-2.4-3.38-3.89
		c-0.26-0.93-0.47-2.95-0.26-4c0.25-1.21,0.93-1.79,2.22-2.11c0.48-0.12,0.96-0.09,1.42,0.07
		C145.62,260.61,148.06,267.83,143.69,269.35z"/>
</g>
<path class="st1" d="M172.69,235.99c-0.32-1.7-1.03-2.79-2.28-3.62c-0.92-0.61-2.47-1.03-3.96-0.93c-0.33,0.02-0.66,0.07-0.97,0.15
	c-1.92,0.46-2.91,0.67-4.1,1.79c-3.87,3.64-0.33,8.72,5.07,8.74c0.24,0,0.48-0.01,0.72-0.03
	C170.36,241.85,173.35,239.53,172.69,235.99z M168.74,240.21c-0.73,0.38-1.51,0.61-2.3,0.65c-0.75,0.04-1.51-0.1-2.23-0.44
	c-0.6-0.29-3.42-2.15-2.11-2.87c1.01-0.56,1.86,1.85,3.7,1.73l0.01-3.58c-0.29-0.23-0.75-0.26-0.96-0.53
	c-0.23-0.29-0.24-0.86,0.05-1.11c0.28-0.24,0.88,0,1.54,0.12c0.24,0.04,0.48,0.07,0.72,0.05c0.77-0.06,2-0.6,1.93,0.51
	c-0.04,0.8-1.11,0.84-1.84,0.96l0,3.38c1.41-0.02,2.19-1.8,3.47-1.59C172.08,238.48,169.57,239.77,168.74,240.21z"/>
<path class="st1" d="M140.91,259.44c-1.29,0.32-1.97,0.9-2.22,2.11c-0.21,1.04,0,3.07,0.26,4c0.52,1.88,2.39,4.61,4.74,3.8
	C148.68,267.61,144.79,258.47,140.91,259.44z"/>
<path class="st1" d="M194.81,263.27c-0.01-3.36-3.49-3.49-4.78-1.99c-0.96,1.12-2.56,3.88-2.55,5.87c0.01,2.81,2.52,3.71,4.68,1.92
	C193.44,268.01,194.82,265.69,194.81,263.27z"/>
<path class="st0" d="M149.9,218.05c-0.98-0.24-1.13-2.39-1.02-3.44c0.27-2.76,2.84-4.44,5.15-3.63c0.51,0.18,0.96,0.4,1.39,0.8
	c0.4,0.37,0.99,0.75,0.83,1.52c0.36-0.17,1.21-0.59,1.48-0.78c-0.35-1.34-6.94-7.28-10.08-4.22c-2.8,2.72-1.89,8.83,0.32,11.97
	c0.25-0.09,1.41-1.59,1.77-2.01C149.85,218.13,149.81,218.19,149.9,218.05z"/>
<path class="st0" d="M178.24,213.58l-0.21-0.38c0.86-0.67,1.41-1.27,2.85-1.62c6.07-1.48,5.7,8.3,3.16,7.03l1.47,1.79
	c1.13-0.75,2.08-3.56,1.99-5.25c-0.1-2.09-1.15-3.88-2.29-5.05c-1.34-1.38-3.89-2.64-6.23-1.59c-1.03,0.46-3.51,2.7-3.72,3.68
	C176.27,212.53,177.8,213.4,178.24,213.58z"/>
<path class="st1" d="M178.24,213.58c0.3,0.34,1.13,0.78,1.54,1.1c0.5,0.4,1.06,0.83,1.5,1.23c0.24,0.22,2.76,2.69,2.76,2.69
	c2.54,1.28,2.91-8.51-3.16-7.03c-1.44,0.35-2,0.95-2.85,1.62L178.24,213.58z"/>
<path class="st1" d="M149.9,218.05l2.93-2.56c0.5-0.37,1.18-0.84,1.67-1.16c0.59-0.38,1.18-0.66,1.75-1.03
	c0.16-0.77-0.43-1.14-0.83-1.52c-0.42-0.4-0.88-0.62-1.39-0.8c-2.31-0.81-4.88,0.87-5.15,3.63
	C148.78,215.66,148.93,217.81,149.9,218.05z"/>
<path class="st3" d="M165.82,235.69l-0.01,3.58c-1.85,0.12-2.69-2.29-3.7-1.73c-1.31,0.72,1.51,2.59,2.11,2.87
	c1.47,0.7,3.1,0.53,4.52-0.21c0.83-0.43,3.34-1.73,1.99-2.72c-1.28-0.21-2.06,1.57-3.47,1.59l0-3.38c0.73-0.12,1.79-0.16,1.84-0.96
	c0.06-1.11-1.17-0.57-1.93-0.51c-0.89,0.07-1.87-0.5-2.26-0.17c-0.29,0.25-0.27,0.82-0.05,1.11
	C165.07,235.43,165.53,235.47,165.82,235.69z"/>
<path class="st4" d="M154.96,227.22c-2.65,0.79-2.56,6.79,0.64,5.97c1.14-0.29,1.99-1.81,1.92-3.32
	C157.45,228,156.41,226.79,154.96,227.22z"/>
<path class="st4" d="M177.09,227.06c-3.43,1.23-1.42,6.8,1.3,5.89c1.16-0.39,1.92-2.09,1.62-3.64c-0.11-0.59-0.9-2.19-1.64-2.33
	C177.92,226.9,177.44,226.94,177.09,227.06z"/>
<g>
	<path class="st5" d="M177.51,230.74c0-0.55-0.09-0.79-0.1-1.26"/>
	<path class="st5" d="M154.75,230.85c0.06-0.63,0.26-0.38,0.31-1.05"/>
	<path class="st5" d="M188.52,257.48c-0.47-1.16-3.07-5.04-4.3-5.14 M182.65,243.12c0.35-1.03,3-3.6,3.95-5.45
		c0.84-1.65,1.51-3.72,1.61-5.66c0.29-5.42-2.38-8.62-3.04-11.22 M172.89,271.12c0.97,0.95,2.93,0.28,3.98-0.21 M173.31,269.23
		c-0.11,0.51-0.28,0.81-0.36,1.26c-0.07,0.36-0.36,0.65-0.72,0.74c-0.66,0.16-0.97,0.42-2.06,0.21c-1.46-0.89-0.33-1.46-1.36-2.52
		 M168.8,268.6c0.99-0.53,1.22-0.73,1.78-1.78 M163.98,268.29c-0.88-0.63-1.36-0.03-2.31-1.57 M143.53,257.06
		c0.64-1.65,2.72-2.75,3.89-4.2 M147.41,220.78c1.9-0.88,3.57-3.19,5.35-4.61c0.85-0.68,3-2.32,5.45-3.57 M160.42,271.12
		c-0.29,0.9-0.5,0.92-1.57,0.94c-0.51-0.2-3.53-1.23-3.88-1.26 M150.24,243.33c0.41,0.03,6.2,2.44,8.07,2.87
		c4.18,0.96,12.15,1.16,16.15-0.04c2.04-0.61,5.55-2.25,7.47-2.85c0.44-0.14,0.91,0.07,1.14,0.47c1.38,2.46,0.95,5.4,1.13,8.26
		c0.01,0.17-0.02,0.34-0.1,0.49c-0.68,1.3-2.02,7.62-2.57,9.04c-1.23,3.2-2.45,5.5-4.08,8.34c-0.33,0.58,0,1.3,0.65,1.44
		c3.32,0.71,11.83,0.78,13.77,0.05c2.89-1.1,4.93-2.57,4.93-6.05c0-2.7-0.45-6.01-2.94-7.34c-1.77-1.06-2.96-0.76-4.83-0.57
		c-0.29,0.03-0.56,0.17-0.71,0.42c-0.41,0.63-1.09,1.02-1.7,1.62 M174.78,211.97c0.88-2.73,5.54-5.41,8.39-4.3
		c4.66,0.98,6.33,10.33,2.6,12.79c-0.36,0.24-0.83,0.23-1.16-0.05c-1.42-1.17-4.88-4.77-5.84-5.5c-2.38-1.78-3.97-2.73-6.71-3.51
		c-1.51-0.43-5.39-0.63-6.92-0.39c-1.14,0.29-3.77,0.98-5.54,1.35c-0.73,0.15-1.49-0.16-1.87-0.81c-1.68-2.88-5.93-5.38-9.06-4.1
		c-4.66,1.61-4.34,9.57-1.63,12.91c0.21,0.26,0.3,0.62,0.18,0.93c-1.65,4.63-2.3,4.85-2.33,10.69c-0.03,5.78,4.08,8.3,5.14,10.68
		c0.14,0.32,0.09,0.71-0.14,0.98c-1.6,1.86-1.18,6.09-1.93,8.24c-0.07,0.19-0.06,0.39,0.01,0.58c0.32,0.87,0.44,3.6,0.48,4.26
		c0.16,2.35,1.88,7.12,3.18,9.33c0.76,1.31,2.18,2.62,2.95,3.93c0.28,0.48,0.09,1.09-0.4,1.34c-3.04,1.56-10.98,0.66-13.39-0.43
		c-5.06-2.27-6.74-10.97-2.31-13.34c1.27-1.03,3.06-0.6,4.66-0.53c0.22,0.01,0.44,0.09,0.6,0.24c0.51,0.46,1.71,1.39,2.19,1.87
		 M163.98,269.33c-0.52,0.64-0.71,1.34-1.43,1.71c-0.09,0.05-0.2,0.08-0.3,0.1c-0.4,0.07-0.85,0.12-1.27,0.08
		c-0.34-0.03-0.61-0.25-0.77-0.54c-0.38-0.68-0.93-1.21-1.47-1.88 M174.47,251.4c-0.48,2.52-0.82,5.07-1.89,7.34
		c-0.9,1.93-4.3,5.83-4.3,7.45c-0.24,0.76-0.17,1.99,0.52,2.41v0.31c-0.64,0.59-4.06,0.81-4.82,0.42v-1.05
		c2.75-1.87-8.05-12.7-5.77-17.62"/>
</g>
</svg>
