<?xml version="1.0" encoding="utf-8"?>
<!-- Generator: Adobe Illustrator 27.0.0, SVG Export Plug-In . SVG Version: 6.00 Build 0)  -->
<svg version="1.1" id="Слой_1" xmlns="http://www.w3.org/2000/svg" xmlns:xlink="http://www.w3.org/1999/xlink" x="0px" y="0px"
	 viewBox="0 0 800 1000" style="enable-background:new 0 0 800 1000;" xml:space="preserve">
<style type="text/css">
	.st0{fill-rule:evenodd;clip-rule:evenodd;fill:#DA5D6C;}
	.st1{fill-rule:evenodd;clip-rule:evenodd;fill:#FBF2DB;}
	.st2{fill-rule:evenodd;clip-rule:evenodd;fill:#B16C6C;}
	.st3{fill:none;stroke:#050407;stroke-width:14;stroke-linecap:round;stroke-linejoin:round;stroke-miterlimit:5.6105;}
	.st4{fill:none;stroke:#050407;stroke-width:8;stroke-linecap:round;stroke-linejoin:round;stroke-miterlimit:5.6105;}
</style>
<path class="st0" d="M497.5,320.7c-5.2,2.4,6.5,2.7-7.5,2.1c-3.9-0.2-5.2-0.5-8.1-3.7c-1.4-1.6-3.3-3.9-6-7.2
	c-19.6-24-0.1-21.6,6-18.7C491.4,297.8,499.9,309.2,497.5,320.7"/>
<path class="st0" d="M425.2,206.2c-4-0.5-4.6-1.2-8.8-5.4c-10-10.2-13.9-22.8-9.2-31.9c4.2,0.1,4.7-2.1,9.2,2.2
	C427,181,431.8,196.7,425.2,206.2"/>
<path class="st0" d="M356.5,321.4c-1.2,0.1-0.4-2-1.9-2c-5.7-10.6-4-17.2-1.1-29.2c2.3-0.3,1.4,1.2,3,1.3c10.1,0.3,7.3-0.4,7.3,12.7
	C363.7,320.3,366.7,320.6,356.5,321.4"/>
<path class="st0" d="M260.6,241.6c-2.4,0.9-2.5-1.2-4.4-1.7c-0.1-0.2-11.6,3.2-1-13.2c1.6-2.5,3.5-5.2,5.5-7.9
	c7.4-9.9,13.2-17.5,22.4-14.5C286.7,214.2,273.6,236.4,260.6,241.6"/>
<path class="st0" d="M268.6,386c-7.1-0.3-5.5,5.1-8.1,2.4c-3.2-3.4-4.4-8.9-7.8-16.7c-5.3-12-4.4-11.2,0.3-22
	c6.3,0.1,5.3-2.6,7.6-0.3c3.1,3.2,4,8.7,7.3,16.7C273.4,379,270.8,373.3,268.6,386"/>
<path class="st0" d="M355.7,131.3c-33.7,1.6-67.1,13.4-95.2,36.8c-9,7.5-17.4,16.1-25.2,26c-19.5,24.9-28.6,51-29.1,91.2
	c-0.3,22.8-4.5,98.5-0.2,113.5c9.1,14.5,33.7,18.4,54.6,18.6c4.6,0.1,9.3-0.3,13.3,0c13.4,1.1,23.2,9.6,33.9,14.9
	c6.8,3.4,30.2,16.6,47.9,19.9c9.9,1.8,17.9-3.3,20-22.8c3.4-31.5-5.6-48.6,19.3-63.4c7.5-4.5,12.9-11,21.4-13.3
	c12.8-3.5,26.3-3.3,39.7,4.2c12.5,7.1,20.6,16.4,25.8,27c22.4,45.7-9,114.4,30.9,120.6c11.9,1.9,17.2-5.6,24.5-10.8
	c3.5-25.8,0.5-219.1-5.2-237.9"/>
<path class="st0" d="M531.8,253.5c-9.6-32.2-27.5-58.9-50.2-79.3c-19.1-17.1-41.5-29.7-65.5-37.2"/>
<path class="st1" d="M204.4,422.4l-0.4,36.6c18,0.4,13.8,25,12.5,62c-0.9,24.4-2.9,53.3,1.6,77c11,57.9,45,51,102.2,51.3
	c51.3,0.3,102.8,0.7,154.1,0.6c23.2,0,38.7-12.6,44.4-31c6.7-21.3-0.5-51.3,3.1-75.8l10.8-1.4c-0.8-3-2.8-9.1-2.7-12.8
	c0.2-9.3-0.5,0,1.5-6.5c0.2-0.6,1.8-3.4,2.3-4.3c-62.5,12.7-62-43.1-60.8-97.8c1.6-70.5-66.9-59.8-79.9-37.2
	c-8.4,14.5,5.4,50.3-10,71.9c-12.6,17.7-38.4,15.2-55.8,2.5c-19.6-14.3-17-24.6-50.8-27.8C251.8,427.3,227.1,429.5,204.4,422.4"/>
<path class="st2" d="M403.1,665.6l-67.1-0.2c-0.8,35.4,0.2,71.5,0.4,106.8c0.2,33.7-2,70.7,36.7,67.8
	C429.3,835.8,401.9,740.5,403.1,665.6"/>
<path class="st3" d="M362.8,459.7c49.1-30.1-22.3-86.4,69.1-103.6c97.3,18.4,11.5,158.8,88,153.9c39.2-3.9,25.1-76.8,25.1-106.8
	c0-38.3,2.5-80.1-2.9-116.2C508.3,64,199.4,64.3,199.4,308.9c0,42.9-15.8,109.3,34.5,110C321.5,420,325.9,459.7,362.8,459.7z"/>
<g transform="matrix(1,0,0,1,-106.467,53.7355)">
	<path class="st4" d="M528.9,145.2c-3.2-12-6.8-14.4-12.6-25.1 M365.7,181.1c5.4-8.8,12.1-16.8,18.8-25.1 M462.9,261.4v-18.8
		 M598,261.4l-15.7-15.7 M371.8,330.5c-2.1-10.1-6.1-18.7-9.4-28.3"/>
</g>
<path class="st3" d="M331.3,660.7c0,43.7-22,181,34.5,185.3c74.8,14.9,44-141.6,44-185.3H331.3c-37.8-12.3-54.8,9.8-97.4-15.7
	c-37-40.1-25.1-119.6-25.1-175.9 M409.9,660.7c36.4-14.1,68.1,14,103.6-18.8c22.6-24.5,15.7-53.8,15.7-87.9"/>
</svg>
