<?xml version="1.0" encoding="utf-8"?>
<!-- Generator: Adobe Illustrator 26.0.1, SVG Export Plug-In . SVG Version: 6.00 Build 0)  -->
<svg version="1.0" id="Слой_1" xmlns="http://www.w3.org/2000/svg" xmlns:xlink="http://www.w3.org/1999/xlink" x="0px" y="0px"
	 viewBox="0 0 595.28 841.89" style="enable-background:new 0 0 595.28 841.89;" xml:space="preserve">
<style type="text/css">
	.st0{fill:#C0B6D8;}
	.st1{fill:#3D4E99;}
	.st2{fill:none;stroke:#000000;stroke-width:2;stroke-linecap:round;stroke-linejoin:round;stroke-miterlimit:10;}
	.st3{fill:none;stroke:#000000;stroke-width:1.5;stroke-linecap:round;stroke-linejoin:round;stroke-miterlimit:10;}
</style>
<path class="st0" d="M151.52,241.12c-3.67-3.98-4.33-8.13-4.33-13.21c0-9.65,8.28-17.46,18.5-17.46c10.22,0,18.5,7.82,18.5,17.46
	c0,0-0.52,11.17-6.8,14.48"/>
<path class="st0" d="M179.08,241.16c2.29,0.68,4.31-0.33,5.33-1.02c0.38-0.26,0.72-0.57,1.01-0.93c0.94-1.19,4.02-4.79,7.26-5.61
	c3.89-0.99,2.62,2.15,2.62,2.15c-0.85,0.55-2.01,1.68-2.86,2.56c-0.68,0.7-1.23,1.54-1.62,2.44c-2.92,6.73-8.55,7.02-8.55,7.02
	s0.28,0.85,8.68,0.45s6.6,3.5,6.6,3.5c-4.33-0.67-8.66,1.21-10.28,2.02c-0.46,0.23-0.96,0.35-1.47,0.37c-4.15,0.15-6.69,1-6.69,1
	c7.89,7.16,3.95,11.73,3.83,10.49c-0.08-0.91-1.9-2.37-2.86-3.08c-0.33-0.24-0.69-0.42-1.09-0.51c-3.1-0.71-8.73-3.73-8.73-3.73
	c-2.4-1.05-4.45-5.13-4.45-5.13c-0.39,2.2-4.85,4.85-6.99,5.69s-7.39,8.71-7.39,8.71c-3.95-5.05,3.04-13.95,3.04-13.95l-12.19,2.35
	c-0.8,0.15-1.56,0.42-2.28,0.81c-1.58,0.87-4.54,2.24-4.35,0.32c0.19-1.93,2.75-3.95,4.08-4.88c0.47-0.33,0.98-0.57,1.52-0.76
	c5.1-1.77,10.32-6.6,10.32-6.6s-3.89,4.24-7.8,2.02c-2.8-1.59-4.21-4.11-4.79-5.42c-0.29-0.66-0.65-1.27-1.1-1.83
	c-1.28-1.62-3.66-4.28-4.15-4.61c-0.45-0.3,1.68-2.43,6.94,0.74s4.18,5.66,10.85,5.39"/>
<path class="st1" d="M134.55,234.44c0.33-0.22,0.77-0.18,1.05,0.11c1.32,1.37,4.9,5.16,4.94,6.05c0.05,1.09,3.65,7.17,10.77,3.79
	l-0.38,1.1c-0.07,0.19-0.2,0.34-0.37,0.44l-1.76,1.02c-0.12,0.07-0.25,0.11-0.39,0.11l-3.64,0.12c-0.19,0.01-0.38-0.05-0.53-0.17
	l-3.38-2.62c-0.08-0.06-0.14-0.13-0.2-0.22l-1.68-2.71c-0.01-0.02-0.02-0.03-0.03-0.05l-2.68-3.71c-0.02-0.02-0.04-0.05-0.06-0.07
	l-1.82-2l-0.68-0.64L134.55,234.44z"/>
<path class="st1" d="M136.5,256.46c1.17-0.25,2.21-0.9,3.3-1.41c1.31-0.61,2.71-1.02,4.15-1.21c0.5-0.07,1.06-0.09,1.56-0.14
	c2.12-0.23,4.27-0.46,6.25-1.26c1.53-0.61,3.15-1.21,4.21-2.46c0.26-0.31,0.51-0.6,0.83-0.85c0.34-0.26,0.58-0.64,0.86-0.97
	c0.46-0.54,1.03-0.99,1.52-1.5c0.58-0.61,1.07-1.34,1.83-1.71c0.11-0.05,0.22-0.1,0.34-0.1c0.29-0.01,0.55,0.24,0.64,0.52
	c0.08,0.28,0.03,0.59-0.07,0.87c-1.93,1.25-3.26,3.19-4.67,5c-0.28,0.37-0.57,0.73-0.92,1.04c-0.59,0.52-1.33,0.86-2.11,0.96
	c-0.72,0.1-1.46,0.2-2.17,0.39c-1.67,0.44-3.33,0.88-5,1.32c-0.8-0.05-1.69-0.05-2.47,0.13c-0.88,0.19-1.68,0.66-2.49,1.06
	c-1.58,0.79-3.27,1.38-5.01,1.73c-0.17,0.03-0.36,0.07-0.52-0.01c-0.28-0.14-0.3-0.52-0.28-0.83c0.01-0.18,0.05-0.4,0.23-0.43
	C136.52,256.66,136.5,256.39,136.5,256.46z"/>
<path class="st1" d="M150.94,266.26c0.37-0.27,0.58-0.7,0.78-1.12c0.81-1.7,1.58-3.47,2.92-4.79c0.35-0.34,0.73-0.65,1.11-0.95
	c0.64-0.51,1.29-1.03,1.93-1.54c0.46-0.37,1.04-0.5,1.49-0.88c1.46-1.21,3.3-1.95,4.61-3.33c0.51-0.54,1.03-1.21,1.77-1.25
	c0.18,0.88-0.16,1.81-0.71,2.52c-0.55,0.71-1.3,1.24-2.04,1.75c-0.74,0.5-1.48,1-2.27,1.41c-1.44,0.76-3.08,1.28-4.16,2.5
	c-0.33,0.37-0.6,0.8-0.87,1.21c-1.11,1.69-2.36,3.28-3.61,4.87c-0.17,0.22-0.5,0.46-0.7,0.26
	C151.02,266.79,151.07,266.44,150.94,266.26z"/>
<path class="st1" d="M166.33,252.82c0.99,0.08,1.56,1.12,2.17,1.91c1.05,1.35,2.61,2.2,4.21,2.82s3.26,1.05,4.81,1.77
	c1.32,0.61,2.75,1.13,3.92,1.99c0.61,0.45,1.22,0.92,1.64,1.55c0.42,0.63,0.63,1.44,0.38,2.16c-0.05,0.15-0.16,0.31-0.31,0.3
	c-0.31-0.01-0.19-0.53-0.38-0.78c-1.36-0.67-2.45-1.81-3.82-2.47c-0.76-0.37-1.58-0.58-2.38-0.82c-2.04-0.62-4-1.48-5.84-2.55
	c-1.13-0.66-2.22-1.4-3.06-2.4C166.84,255.3,166.25,254.12,166.33,252.82z"/>
<path class="st1" d="M177.52,245.32c0.54-0.08,1.09,0.05,1.62,0.17c1.68,0.38,3.48,0.62,5.09-0.02c0.92-0.36,1.72-1.01,2.28-1.83
	c0.25-0.37,0.6-0.67,0.88-1.02c0.29-0.36,0.59-0.72,0.79-1.14c0.2-0.42,0.33-0.9,0.69-1.19c-0.01-0.54,0.31-1.03,0.65-1.45
	c1.19-1.49,2.47-2.9,3.85-4.22c0.38-0.36,0.9-0.75,1.38-0.54c0.35,0.15,0.5,0.55,0.62,0.9c0.07,0.2,0.13,0.44-0.01,0.59
	c-0.05,0.05-0.12,0.09-0.18,0.12c-1.78,0.91-3,2.62-4.01,4.34s-1.91,3.55-3.32,4.97c-1.4,1.41-3.26,2.34-5.22,2.62
	c-0.96,0.14-1.98,0.11-2.87-0.28c-0.88-0.38-1.57-1.07-2.21-1.79c-0.04-0.04-0.09-0.09-0.14-0.06S177.51,245.38,177.52,245.32z"/>
<path class="st1" d="M170.28,245.67c-0.03-0.19,0.2-0.32,0.38-0.29c0.18,0.03,0.32,0.18,0.45,0.31c0.32,0.34,0.63,0.67,0.95,1.01
	c0.97,1.03,1.95,2.07,3.07,2.92c0.56,0.43,1.16,0.81,1.81,1.08c1.75,0.73,3.38,1.8,5.28,1.89c1.9,0.09,3.79-0.35,5.55-1.07
	c1.21-0.5,2.5-0.79,3.77-1.13c1.29-0.34,2.61-0.59,3.94-0.63c0.35-0.01,0.71,0,1.02,0.15c0.31,0.16,0.55,0.51,0.46,0.85
	c0-0.13,0.01-0.26,0.01-0.39c0.16,0.16,0.12,0.9-0.07,1.03c-0.19,0.12-0.44,0.12-0.67,0.12c-2.75,0-5.49,0.59-7.99,1.72
	c-0.69,0.31-1.38,0.67-2.12,0.82c-0.57,0.12-1.17,0.11-1.75,0.13c-1.61,0.04-3.22,0.25-4.78,0.62c-0.31,0.07-0.65,0.15-0.95,0.05
	c-0.15-0.05-0.28-0.14-0.41-0.22c-0.74-0.49-1.48-0.99-2.21-1.48c-0.5-0.33-1-0.67-1.39-1.12s-1.02-0.84-0.98-1.43
	c-0.21-0.06-0.06-0.41-0.21-0.57c-0.81-0.93-1.62-1.87-2.4-2.82C170.66,246.79,170.36,246.23,170.28,245.67z"/>
<ellipse cx="156.84" cy="233.04" rx="2.13" ry="2.59"/>
<ellipse transform="matrix(0.9986 -0.0529 0.0529 0.9986 -12.0668 9.4965)" cx="173.52" cy="232.9" rx="1.74" ry="2.27"/>
<path class="st1" d="M156.41,217.66c0,0.85-1.07,2.17-1.92,2.17c-0.85,0-1.33-0.97-1.33-1.83c0-0.85,0.69-1.55,1.55-1.55
	C155.56,216.46,156.41,216.81,156.41,217.66z"/>
<path class="st1" d="M162.66,221.99c0,0.67-0.44,1.22-1.21,1.22c-0.56,0-1.02-0.55-1.02-1.22c0-0.67,0.46-1.22,1.02-1.22
	S162.66,221.32,162.66,221.99z"/>
<path class="st1" d="M163.77,213.54c0.44,0.9-0.02,2.03-1.03,2.51c-1,0.49-2.13,0.4-2.57-0.5s-0.02-2.27,0.99-2.76
	C162.17,212.31,163.34,212.64,163.77,213.54z"/>
<path class="st2" d="M162.14,246.08c0,0-2.73,2.19-3.77,3.89c-1.53,2.49-3.9,3.61-3.9,3.61"/>
<path class="st2" d="M169.43,245.53c0,0,5.73,8.86,9.67,9.57"/>
<path class="st2" d="M176.79,245.53c0,0,1.7,1.82,5.47,2.24"/>
<path class="st2" d="M178.77,241.47c2.29,0.68,4.31-0.33,5.33-1.02c0.38-0.26,0.72-0.57,1.01-0.93c0.94-1.19,4.02-4.79,7.26-5.61
	c3.89-0.99,2.62,2.15,2.62,2.15c-0.85,0.55-2.01,1.68-2.86,2.56c-0.68,0.7-1.23,1.54-1.62,2.44c-2.92,6.73-8.55,7.02-8.55,7.02
	s0.28,0.85,8.68,0.45s6.6,3.5,6.6,3.5c-4.33-0.67-8.66,1.21-10.28,2.02c-0.46,0.23-0.96,0.35-1.47,0.37c-4.15,0.15-6.69,1-6.69,1
	c7.89,7.16,3.95,11.73,3.83,10.49c-0.08-0.91-1.9-2.37-2.86-3.08c-0.33-0.24-0.69-0.42-1.09-0.51c-3.1-0.71-8.73-3.73-8.73-3.73
	c-2.4-1.05-4.45-5.13-4.45-5.13c-0.39,2.2-4.85,4.85-6.99,5.69c-2.14,0.85-7.39,8.71-7.39,8.71c-3.95-5.05,3.04-13.95,3.04-13.95
	l-12.19,2.35c-0.8,0.15-1.56,0.42-2.28,0.81c-1.58,0.87-4.54,2.24-4.35,0.32c0.19-1.93,2.75-3.95,4.08-4.88
	c0.47-0.33,0.98-0.57,1.52-0.76c5.1-1.77,10.32-6.6,10.32-6.6s-3.89,4.24-7.8,2.02c-2.8-1.59-4.21-4.11-4.79-5.42
	c-0.29-0.66-0.65-1.27-1.1-1.83c-1.28-1.62-3.66-4.28-4.15-4.61c-0.45-0.3,1.68-2.43,6.94,0.74s4.18,5.66,10.85,5.39"/>
<path class="st2" d="M151.52,241.12c-3.67-3.98-4.33-8.13-4.33-13.21c0-9.65,8.28-17.46,18.5-17.46c10.22,0,18.5,7.82,18.5,17.46
	c0,0-0.52,11.17-6.8,14.48"/>
<path class="st3" d="M162.51,236.67c0,0,2.86,6.34,5.89,0"/>
</svg>
