<?xml version="1.0" encoding="UTF-8" standalone="no"?>
<!DOCTYPE svg PUBLIC "-//W3C//DTD SVG 1.1//EN" "http://www.w3.org/Graphics/SVG/1.1/DTD/svg11.dtd">
<svg width="100%" height="100%" viewBox="0 0 1920 1080" version="1.1" xmlns="http://www.w3.org/2000/svg" xmlns:xlink="http://www.w3.org/1999/xlink" xml:space="preserve" xmlns:serif="http://www.serif.com/" style="fill-rule:evenodd;clip-rule:evenodd;stroke-linejoin:round;stroke-miterlimit:2;">
    <g>
        <g>
            <path d="M1362.2,705.672C1379.11,694.483 1400.21,675.223 1416.71,669.334C1427.14,665.61 1438.04,659.685 1448.66,656.908C1455.19,655.193 1468.33,653.56 1474.61,656.908C1480.74,660.256 1490.26,673.672 1492.83,680.207C1495.09,685.941 1487.59,700.629 1480.94,702.086C1464.24,705.746 1431.01,721.353 1412.12,715.202C1399.3,711.028 1375.22,710.092 1362.2,705.672ZM1220.05,708.835C1196.22,717.749 1175.18,722.418 1153.57,719.447C1140.88,717.749 1128.01,716.582 1115.71,711.912C1109.56,709.578 1103.51,707.137 1098.22,702.998C1092.17,698.117 1091.69,693.978 1096.3,687.717C1101.88,680.182 1108.41,674.24 1117.15,670.95C1142.52,661.399 1166.15,665.326 1188.15,681.35C1198.43,688.778 1207.66,698.011 1220.05,708.835Z" style="fill:rgb(80,73,75);fill-rule:nonzero;"/>
            <g transform="matrix(8.16695,0,0,8.16695,-6834.22,-5215.43)">
                <path d="M1007.06,660.65C1008.6,662.64 1009.21,665.01 1009.62,667.4C1011.02,675.55 1008.85,682.68 1003.32,688.8C1003.1,689.05 1002.86,689.29 1002.67,689.56C1002.45,689.86 1002.41,690.19 1002.67,690.49C1002.95,690.82 1003.33,690.92 1003.69,690.67C1004.04,690.42 1004.35,690.12 1004.64,689.81C1007.61,686.57 1009.71,682.84 1010.81,678.58C1011.03,677.74 1011.41,677.2 1012.19,676.75C1014.37,675.503 1016.52,674.198 1018.68,672.9C1019.48,672.418 1020.29,671.937 1021.09,671.46C1022.08,670.88 1023.11,670.35 1024.23,670.05C1025.76,669.64 1026.62,670.07 1027.1,671.59C1027.75,673.65 1027.65,675.77 1027.34,677.86C1026.57,682.9 1024.44,687.36 1021.49,691.47C1020.2,693.26 1018.77,694.93 1017.29,696.51C1016.79,696.36 1016.72,695.93 1016.51,695.63C1015.36,693.98 1014.22,692.32 1013.06,690.67C1012.78,690.27 1012.41,689.86 1011.88,690.27C1011.39,690.64 1011.57,691.12 1011.86,691.54C1012.67,692.73 1013.5,693.9 1014.3,695.1C1016.12,697.84 1017.48,700.78 1018.11,704.03C1018.97,708.43 1018.84,712.8 1017.72,717.15C1017.64,717.48 1017.56,717.8 1017.27,718.16C1014.41,717.08 1011.92,718.23 1009.5,719.68C1008.47,720.3 1007.5,721.01 1006.5,721.66C1005.74,722.16 1004.97,722.66 1004.18,723.11C1002.39,724.13 1000.55,724.62 998.42,724.3C994.76,723.77 991.06,723.72 987.41,724.53C987,724.62 986.71,724.57 986.41,724.22C985.52,723.21 984.44,722.4 983.37,721.58C980.12,719.08 976.6,718.62 972.83,720.24C971.96,720.61 971.95,720.61 971.62,719.74C971.26,718.8 970.93,717.85 970.56,716.91C969.35,713.83 969.34,710.74 970.38,707.62C970.5,707.26 970.64,706.9 970.73,706.53C970.85,706.09 970.86,705.61 970.36,705.42C969.77,705.2 969.48,705.61 969.3,706.09C968.79,707.44 968.37,708.81 968.18,710.24C967.92,712.16 967.91,712.2 966.03,711.55C962.52,710.34 959.29,708.56 956.15,706.62C955.04,705.94 954.99,705.63 955.96,704.79C960.19,701.11 964.38,697.37 969.18,694.4C969.91,693.95 970.43,694.02 971.12,694.47C972.84,695.62 974.73,696.45 976.69,697.1C977.05,697.22 977.43,697.33 977.8,697.36C978.14,697.38 978.47,697.26 978.58,696.86C978.71,696.43 978.56,696.08 978.18,695.89C977.8,695.7 977.37,695.61 976.96,695.46C970.5,693.15 965.76,688.94 962.83,682.72C962.59,682.22 962.22,681.72 962.4,681.09C963.13,681.13 963.4,680.62 963.54,680.04C963.69,679.44 963.75,678.81 963.86,678.2C964.54,674.47 965.91,671.02 968.11,667.93C969.01,666.67 970.04,665.54 971.35,664.7C974.46,662.72 977.3,663.67 978.61,667.11C979.04,668.24 979.24,669.42 979.4,670.6C979.64,672.36 979.87,674.11 980.52,675.78C981.15,677.42 982.05,678.88 983.52,679.9C984.74,680.75 986.07,681.2 987.58,680.89C989.95,680.41 991.32,678.86 992.02,676.66C992.76,674.3 992.18,672.11 991,670.04C990.14,668.54 989.18,667.11 988.3,665.62C987.4,664.09 986.56,662.52 986.09,660.8C985.14,657.28 986.68,654.58 990.24,653.72C993.82,652.85 997.1,653.75 1000.02,655.87C1001.83,657.19 1003.73,658.43 1005.17,660.22C1005.65,660.8 1006.29,661.27 1007.06,660.65ZM998.67,668.89C998.6,667.56 998.24,666.33 997.2,665.42C996,664.36 994.49,664.61 993.66,665.97C992.7,667.53 992.8,669.87 993.91,671.26C994.53,672.04 995.32,672.61 996.38,672.44C997.43,672.27 998.04,671.54 998.38,670.58C998.58,670.04 998.7,669.48 998.67,668.89ZM978.42,678.61C978.42,677.31 977.85,675.74 977.08,674.92C975.76,673.51 974.08,673.81 973.33,675.57C972.68,677.11 972.95,678.56 973.75,679.95C974.53,681.3 975.72,681.96 976.75,681.66C977.76,681.37 978.42,680.15 978.42,678.61Z" style="fill:rgb(217,222,226);fill-rule:nonzero;"/>
            </g>
            <g transform="matrix(8.16695,0,0,8.16695,-6834.22,-5215.43)">
                <path d="M1007.06,660.65C1006.28,661.27 1005.65,660.79 1005.21,660.25C1003.77,658.46 1001.88,657.22 1000.06,655.9C997.14,653.78 993.86,652.88 990.28,653.75C986.73,654.61 985.18,657.31 986.13,660.83C986.6,662.56 987.43,664.13 988.34,665.65C989.22,667.13 990.18,668.57 991.04,670.07C992.22,672.13 992.81,674.33 992.06,676.69C991.36,678.9 990,680.44 987.62,680.92C986.1,681.22 984.78,680.77 983.56,679.93C982.09,678.91 981.19,677.46 980.56,675.81C979.92,674.14 979.68,672.38 979.44,670.63C979.28,669.44 979.08,668.26 978.65,667.14C977.33,663.7 974.5,662.75 971.39,664.73C970.08,665.56 969.04,666.7 968.15,667.96C965.94,671.05 964.57,674.5 963.9,678.23C963.79,678.84 963.72,679.47 963.58,680.07C963.44,680.65 963.17,681.15 962.44,681.12C961.52,680 961.31,678.58 961.1,677.26C959.98,670.23 961.39,663.72 965.69,657.99C969.72,652.63 975.09,649.34 981.73,648.28C988.73,647.15 995.16,648.68 1000.82,652.97C1003.31,654.86 1005.36,657.22 1006.9,659.98C1007,660.19 1007.1,660.4 1007.06,660.65ZM983.15,676.69C983.12,678.06 983.93,678.99 985.27,679.1C986.81,679.23 988.22,678.75 989.4,677.79C990.79,676.67 990.87,674.51 989.19,673.58C988.43,673.16 987.69,672.75 986.87,672.49C985.53,672.07 984.51,672.45 983.91,673.71C983.46,674.66 983.12,675.66 983.15,676.69Z" style="fill:rgb(80,73,75);fill-rule:nonzero;"/>
            </g>
            <g transform="matrix(8.16695,0,0,8.16695,-6834.22,-5215.43)">
                <path d="M985.78,677.52C985.08,677.5 984.77,677.19 984.83,676.44C984.86,676.02 984.98,675.6 985.1,675.18C985.48,673.77 985.75,673.65 987.1,674.26C987.4,674.4 987.7,674.55 987.99,674.73C989.12,675.41 989.16,676.01 988.1,676.74C987.41,677.2 986.64,677.44 985.78,677.52Z" style="fill:rgb(216,157,102);fill-rule:nonzero;"/>
            </g>
        </g>
        <path d="M1108.62,681.582C1109.21,681.306 1109.77,680.928 1110.26,680.446C1112.63,678.135 1112.68,674.334 1110.37,671.962C1109.15,670.705 1106.53,668.941 1102.86,670.936C1101.01,671.937 1094.06,679.383 1093.06,680.555C1088.96,685.339 1087.3,689.95 1087.22,694.385C1087.1,700.567 1090.24,706.733 1095.87,712.982C1103.08,721 1117.18,725.144 1134.08,726.092C1169.86,728.101 1218.53,717.145 1228.55,714.125C1231.71,713.169 1233.51,709.819 1232.56,706.649C1231.6,703.478 1228.25,701.68 1225.08,702.636C1215.5,705.524 1168.97,716.032 1134.75,714.111C1121.64,713.376 1110.38,711.174 1104.79,704.955C1101.57,701.378 1099.15,698.157 1099.21,694.618C1099.25,692.573 1100.28,690.565 1102.17,688.36C1102.76,687.666 1107.46,682.785 1108.62,681.582ZM1104.9,682.032L1104.92,682.035L1104.86,682.023L1104.9,682.032ZM1104.84,682.021C1103.71,681.786 1102.64,681.223 1101.78,680.335C1102.57,681.153 1103.57,681.789 1104.84,682.021Z"/>
        <g transform="matrix(6.8685,0,0,6.33865,-5551.03,-3979.62)">
            <path d="M983.15,676.69C983.11,675.66 983.46,674.66 983.91,673.71C984.51,672.45 985.52,672.07 986.87,672.49C987.69,672.75 988.44,673.16 989.19,673.58C990.88,674.51 990.8,676.67 989.4,677.79C988.22,678.74 986.81,679.22 985.27,679.1C983.93,678.99 983.12,678.06 983.15,676.69Z" style="fill:none;fill-rule:nonzero;stroke:black;stroke-width:3.78px;"/>
        </g>
        <path d="M1347.27,710.558C1350.5,713.16 1358.8,715.896 1370.21,717.721C1393.93,721.517 1432.16,722.779 1460.06,718.536C1470.85,716.896 1480.15,714.396 1486.7,711.033C1492.14,708.246 1495.87,704.748 1497.77,700.866C1502.41,691.378 1502.8,682.805 1500.69,675.436C1497.57,664.598 1488.79,656.239 1478.9,651.498C1475.91,650.066 1472.33,651.328 1470.9,654.314C1469.46,657.3 1470.73,660.886 1473.71,662.318C1485.01,667.735 1494.79,679.65 1486.99,695.59C1486.04,697.522 1483.93,698.969 1481.23,700.356C1475.58,703.25 1467.54,705.261 1458.26,706.673C1431.51,710.74 1394.85,709.511 1372.11,705.872C1363.6,704.511 1357.21,703.154 1354.8,701.213C1352.22,699.136 1348.44,699.542 1346.36,702.121C1344.29,704.7 1344.69,708.48 1347.27,710.558Z"/>
        <g transform="matrix(4.04356,0,0,5.16019,-2726.83,-3206.32)">
            <path d="M998.67,668.89C998.7,669.48 998.57,670.04 998.38,670.58C998.04,671.54 997.43,672.27 996.38,672.44C995.32,672.61 994.54,672.05 993.91,671.26C992.8,669.87 992.7,667.53 993.66,665.97C994.49,664.61 996,664.36 997.2,665.42C998.24,666.33 998.6,667.56 998.67,668.89Z" style="fill:none;stroke:black;stroke-width:5.39px;"/>
        </g>
        <g transform="matrix(4.20079,-0.460434,0.715793,6.53056,-3449.39,-3652.53)">
            <path d="M978.42,678.61C978.42,680.15 977.76,681.37 976.75,681.65C975.71,681.95 974.52,681.3 973.75,679.94C972.96,678.55 972.68,677.1 973.33,675.56C974.08,673.8 975.76,673.5 977.08,674.91C977.85,675.74 978.42,677.31 978.42,678.61Z" style="fill:none;fill-rule:nonzero;stroke:black;stroke-width:4.53px;"/>
        </g>
        <g transform="matrix(8.16695,0,0,8.16695,-6834.45,-5215.6)">
            <path d="M961.1,677.27C961.3,678.57 962.61,682.23 962.85,682.74C965.78,688.96 970.52,693.17 976.98,695.48C977.39,695.62 977.81,695.72 978.2,695.91C978.58,696.1 978.73,696.45 978.6,696.88C978.49,697.27 978.15,697.4 977.82,697.38C977.44,697.36 977.07,697.24 976.71,697.12C974.75,696.47 972.86,695.64 971.14,694.49C970.46,694.04 969.93,693.96 969.2,694.42C964.4,697.39 960.21,701.13 955.98,704.81C955.02,705.65 955.07,705.96 956.17,706.64C959.31,708.58 962.54,710.37 966.05,711.57C967.93,712.22 967.94,712.18 968.2,710.26C968.39,708.83 968.81,707.45 969.32,706.11C969.5,705.62 969.79,705.21 970.38,705.44C970.88,705.63 970.87,706.1 970.75,706.55C970.65,706.92 970.52,707.28 970.4,707.64C969.36,710.76 969.37,713.85 970.58,716.93C970.95,717.87 971.28,718.82 971.64,719.76C971.98,720.63 971.99,720.63 972.85,720.26C976.63,718.64 980.14,719.1 983.39,721.6C984.45,722.42 985.54,723.22 986.43,724.24C986.74,724.59 987.02,724.64 987.43,724.55C991.08,723.75 994.78,723.79 998.44,724.32C1000.58,724.63 1002.41,724.15 1004.2,723.13C1004.99,722.68 1005.75,722.18 1006.52,721.68C1007.52,721.03 1008.49,720.32 1009.52,719.7C1011.94,718.24 1014.43,717.1 1017.29,718.18C1017.57,717.82 1017.65,717.5 1017.74,717.17C1018.85,712.83 1018.98,708.45 1018.13,704.05C1017.5,700.81 1016.13,697.86 1014.32,695.12C1013.53,693.92 1012.69,692.75 1011.88,691.56C1011.59,691.14 1011.41,690.66 1011.9,690.29C1012.43,689.89 1012.8,690.29 1013.08,690.69C1014.24,692.34 1015.38,694 1016.53,695.65C1016.74,695.95 1016.81,696.38 1017.31,696.53C1018.8,694.94 1020.23,693.27 1021.51,691.49C1024.46,687.39 1026.59,682.92 1027.36,677.88C1027.68,675.78 1027.78,673.67 1027.12,671.61C1026.64,670.09 1025.78,669.66 1024.25,670.07C1023.13,670.37 1022.1,670.9 1021.11,671.48C1018.14,673.24 1015.21,675.06 1012.21,676.77C1011.43,677.22 1011.04,677.76 1010.83,678.6C1009.73,682.86 1007.63,686.59 1004.66,689.83C1004.37,690.14 1004.05,690.45 1003.71,690.69C1003.35,690.95 1002.97,690.84 1002.69,690.51C1002.43,690.22 1002.47,689.88 1002.69,689.58C1002.89,689.31 1003.12,689.07 1003.34,688.82C1008.87,682.7 1011.04,675.57 1009.64,667.42C1009.23,665.03 1007.02,660.2 1006.9,659.99C1005.36,657.23 1003.31,654.87 1000.82,652.98C995.16,648.68 988.73,647.16 981.73,648.29C975.09,649.36 969.72,652.64 965.69,658C961.38,663.73 959.98,670.24 961.1,677.27Z" style="fill:none;stroke:black;stroke-width:3.06px;"/>
        </g>
    </g>
</svg>
