<?xml version="1.0" encoding="utf-8"?>
<!-- Generator: Adobe Illustrator 26.0.1, SVG Export Plug-In . SVG Version: 6.00 Build 0)  -->
<svg version="1.0" id="Слой_1" xmlns="http://www.w3.org/2000/svg" xmlns:xlink="http://www.w3.org/1999/xlink" x="0px" y="0px"
	 viewBox="0 0 595.28 841.89" style="enable-background:new 0 0 595.28 841.89;" xml:space="preserve">
<style type="text/css">
	.st0{fill:#D5434C;}
	.st1{fill:#B9B9B9;}
	.st2{fill:#5898D0;}
	.st3{fill:#F1BC46;}
	.st4{fill:none;stroke:#000000;stroke-width:2;stroke-linecap:round;stroke-linejoin:round;stroke-miterlimit:10;}
</style>
<path class="st0" d="M153.98,220.54c0,0-14.53,0.48-18.58,11.31c-4.05,10.84,2.74,15.09,2.74,15.09s2.37,0.53,7.49-5.22"/>
<path class="st1" d="M170.67,207.59c0,0,4.6-2.23,6.81-1.88l21.59,22.28c0,0-2.3,24.86-34.76,31.11
	c-17.86-17.38-17.86-17.38-17.86-17.38s-1.37-17.75,20.8-32.04"/>
<path class="st0" d="M177.49,205.71c0,0,10.76-2.34,21.59,0.81c0,0,2.93,17.3,0,21.46"/>
<circle class="st0" cx="173.11" cy="232.53" r="13.89"/>
<g>
	<path class="st0" d="M183.88,251.53c0,0,0.39,11.91-3.8,14.75l-0.59,0.49c-0.94,0.77-2.01,1.38-3.17,1.76
		c-9.82,3.21-15.37,0.4-17.61-0.95c-3.1-1.86,5.68-8.34,5.68-8.34"/>
</g>
<circle class="st2" cx="173.11" cy="232.53" r="8.32"/>
<path class="st0" d="M149.23,244.41c0,0-4.24,1.82-3.4,5.08c8.82,9.77,8.82,9.77,8.82,9.77s2.48,2.47,6.73-3.01"/>
<path class="st3" d="M130.71,273.91l16.26-4.06c0.8-0.2,1.55-0.58,2.18-1.11c1.62-1.36,4.38-3.99,1.54-7.98
	c-2.23-3.12-4.87-5.15-6.42-6.18c-1.05-0.69-2.3-1.03-3.55-0.92c-1.15,0.1-2.58,0.47-3.92,1.52c-1,0.78-1.66,1.91-1.99,3.14
	L130.71,273.91z"/>
<g id="Контур_00000039853991131213422860000001522963062010534561_">
	<circle class="st4" cx="173.11" cy="232.53" r="8.32"/>
	<circle class="st4" cx="173.11" cy="232.53" r="13.89"/>
	<path class="st4" d="M170.67,207.59c0,0,4.6-2.23,6.81-1.88l21.59,22.28c0,0-2.3,24.86-34.76,31.11
		c-17.86-17.38-17.86-17.38-17.86-17.38s-1.37-17.75,20.8-32.04"/>
	<path class="st4" d="M177.49,205.71c0,0,10.76-2.34,21.59,0.81c0,0,2.93,17.3,0,21.46"/>
	<path class="st4" d="M149.23,244.41c0,0-4.24,1.82-3.4,5.08c8.82,9.77,8.82,9.77,8.82,9.77s2.48,2.47,6.73-3.01"/>
	<path class="st4" d="M183.88,251.85c0,0,0.38,11.71-3.75,14.5"/>
	<path class="st4" d="M164.32,259.1c0,0-8.67,6.38-5.61,8.2c2.35,1.4,7.08,5.49,17.9,1.35"/>
	<path class="st4" d="M153.98,221.02c0,0-14.53,0.48-18.58,11.31c-4.05,10.84,2.74,15.09,2.74,15.09s2.37,0.53,7.49-5.22"/>
	<path class="st4" d="M130.71,273.91l16.26-4.06c0.8-0.2,1.55-0.58,2.18-1.11c1.62-1.36,4.38-3.99,1.54-7.98
		c-2.23-3.12-4.87-5.15-6.42-6.18c-1.05-0.69-2.3-1.03-3.55-0.92c-1.15,0.1-2.58,0.47-3.92,1.52c-1,0.78-1.66,1.91-1.99,3.14
		L130.71,273.91z"/>
</g>
</svg>
