<?xml version="1.0" encoding="utf-8"?>
<!-- Generator: Adobe Illustrator 27.0.0, SVG Export Plug-In . SVG Version: 6.00 Build 0)  -->
<svg version="1.1" id="Слой_1" xmlns="http://www.w3.org/2000/svg" xmlns:xlink="http://www.w3.org/1999/xlink" x="0px" y="0px"
	 viewBox="0 0 800 1000" style="enable-background:new 0 0 800 1000;" xml:space="preserve">
<style type="text/css">
	.st0{fill-rule:evenodd;clip-rule:evenodd;fill:#B9B9B9;}
	.st1{fill:#5798D0;}
	.st2{fill-rule:evenodd;clip-rule:evenodd;fill:#D5444C;}
	.st3{fill:#F1BC46;}
	.st4{fill:none;stroke:#1E1E1C;stroke-width:14;stroke-linecap:round;stroke-linejoin:round;stroke-miterlimit:5.6105;}
</style>
<g>
	<g>
		<g transform="matrix(1,0,0,1,-106.467,53.7355)">
			<path class="st0" d="M549.1,182.2c0,0,38.2-18.5,56.5-15.6l179.2,185c0,0-19.1,206.4-288.6,258.3L348,465.5
				c0,0-11.3-147.4,172.7-266 M570.7,272.5c64.2,0,116.3,52.8,116.3,117.8c0,65-52.1,117.8-116.3,117.8
				c-64.2,0-116.3-52.8-116.3-117.8C454.4,325.3,506.5,272.5,570.7,272.5z"/>
		</g>
		<path class="st1" d="M531.9,443c0,38.1-30.9,69-69,69c-38.1,0-69-30.9-69-69c0-38.1,30.9-69,69-69C501,374,531.9,404.9,531.9,443"
			/>
		<g transform="matrix(1,0,0,1,-106.467,53.7355)">
			<path class="st2" d="M410.5,289.7c0,0-120.6,3.9-154.2,93.9c-33.6,90,22.8,125.3,22.8,125.3s19.6,4.4,62.2-43.4 M605.6,166.6
				c0,0,89.3-19.4,179.2,6.7c0,0,24.3,143.6,0,178.2 M684.6,389.2c0,63.7-51.6,115.3-115.3,115.3S454,452.9,454,389.2
				c0-63.7,51.6-115.3,115.3-115.3S684.6,325.6,684.6,389.2 M569.7,320.9c37.6,0,68.1,31,68.1,69.3c0,38.2-30.5,69.3-68.1,69.3
				c-37.6,0-68.1-31-68.1-69.3C501.6,352,532.1,320.9,569.7,320.9z M658.7,547c0,0,3.2,98.9-31.6,122.4l-4.9,4
				c-7.8,6.4-16.7,11.4-26.3,14.6c-81.5,26.6-127.6,3.3-146.2-7.9C424,664.7,497,610.9,497,610.9 M371,487.9
				c0,0-35.2,15.1-28.2,42.1l73.3,81.1c0,0,20.6,20.5,55.9-25"/>
		</g>
		<path class="st3" d="M110.8,786.6l135-33.7c6.7-1.7,12.9-4.8,18.1-9.2c13.4-11.3,36.4-33.1,12.8-66.2
			c-18.5-25.9-40.4-42.8-53.3-51.3c-8.7-5.7-19.1-8.6-29.4-7.7c-9.5,0.8-21.4,3.9-32.6,12.6c-8.3,6.5-13.8,15.9-16.5,26.1
			L110.8,786.6z"/>
		<path class="st4" d="M531.9,443c0,38.1-30.9,69-69,69c-38.1,0-69-30.9-69-69c0-38.1,30.9-69,69-69C501,374,531.9,404.9,531.9,443z
			"/>
		<path class="st4" d="M578.1,443c0,63.7-51.6,115.3-115.3,115.3c-63.7,0-115.3-51.6-115.3-115.3c0-63.7,51.6-115.3,115.3-115.3
			C526.5,327.7,578.1,379.3,578.1,443z"/>
		<path class="st4" d="M442.6,236c0,0,38.2-18.5,56.5-15.6l179.2,185c0,0-19.1,206.4-288.6,258.3L241.6,519.2
			c0,0-11.3-147.4,172.7-266"/>
		<path class="st4" d="M499.1,220.4c0,0,89.3-19.4,179.2,6.7c0,0,24.3,143.6,0,178.2"/>
		<path class="st4" d="M264.6,541.6c0,0-35.2,15.1-28.2,42.1l73.3,81.1c0,0,20.6,20.5,55.9-25"/>
		<path class="st4" d="M552.2,603.4c0,0,3.2,97.2-31.2,120.4"/>
		<path class="st4" d="M389.8,663.6c0,0-72,52.9-46.6,68.1c19.5,11.6,58.8,45.6,148.6,11.2"/>
		<path class="st4" d="M304,347.5c0,0-120.6,3.9-154.2,93.9c-33.6,90,22.8,125.3,22.8,125.3s19.6,4.4,62.2-43.4"/>
		<path class="st4" d="M110.8,786.6l135-33.7c6.7-1.7,12.9-4.8,18.1-9.2c13.4-11.3,36.4-33.1,12.8-66.2
			c-18.5-25.9-40.4-42.8-53.3-51.3c-8.7-5.7-19.1-8.6-29.4-7.7c-9.5,0.8-21.4,3.9-32.6,12.6c-8.3,6.5-13.8,15.9-16.5,26.1
			L110.8,786.6z"/>
	</g>
</g>
</svg>
