<?xml version="1.0" encoding="utf-8"?>
<!-- Generator: Adobe Illustrator 26.0.1, SVG Export Plug-In . SVG Version: 6.00 Build 0)  -->
<svg version="1.0" id="Слой_1" xmlns="http://www.w3.org/2000/svg" xmlns:xlink="http://www.w3.org/1999/xlink" x="0px" y="0px"
	 viewBox="0 0 595.28 841.89" style="enable-background:new 0 0 595.28 841.89;" xml:space="preserve">
<style type="text/css">
	.st0{fill:#E49430;}
	.st1{fill:#FBDD3A;}
	.st2{fill:none;stroke:#000000;stroke-width:1.5;stroke-linecap:round;stroke-linejoin:round;stroke-miterlimit:10;}
	.st3{fill:none;stroke:#000000;stroke-width:1.5;stroke-miterlimit:10;}
</style>
<polygon class="st0" points="145.45,218.51 148.39,208.57 158.23,211.12 166,203.83 173.01,210.56 183.8,208.47 186.92,218.98 
	197.34,221.73 194.59,231.96 201.41,239.14 194.69,246.73 197.25,256.86 186.55,260.55 184.08,269.83 173.43,267.84 166.53,274.66 
	158.8,267.84 148.29,270.3 145.45,260.83 134.85,257.52 137.69,247.11 130.3,239.25 137.21,231.77 135.04,221.45 "/>
<circle class="st1" cx="166.53" cy="239.14" r="24.64"/>
<g id="Контур_00000057145646793329552100000001949274592859902882_">
	<circle cx="145.4" cy="244.12" r="0.66"/>
	<path class="st2" d="M147.68,248.96c0,0,5.8,11.75,18.85,11.41"/>
	<path class="st2" d="M154.4,227.28c0,0,4.03-6.3,5.96,0"/>
	<path class="st2" d="M171.77,227.28c0,0,4.36-7.13,5.79,0"/>
	<polygon class="st2" points="145.45,218.41 148.39,208.46 158.23,211.02 166,203.73 173.01,210.45 183.8,208.37 186.92,218.88 
		197.34,221.63 194.59,231.85 201.41,239.04 194.69,246.62 197.25,256.75 186.55,260.45 184.08,269.73 173.43,267.74 166.53,274.56 
		158.8,267.74 148.29,270.2 145.45,260.73 134.85,257.42 137.69,247 130.3,239.14 137.21,231.66 135.04,221.34 	"/>
	<circle class="st3" cx="166.53" cy="239.14" r="24.64"/>
	<g>
		<path d="M161.23,230.58c0,3.29,2.25,6.12,5.3,5.83c2.72-0.26,4.44-2.54,4.44-5.83c0-0.28-0.02-0.55-0.05-0.82h-9.64
			C161.25,230.03,161.23,230.3,161.23,230.58z"/>
	</g>
</g>
</svg>
