<?xml version="1.0" encoding="utf-8"?>
<!-- Generator: Adobe Illustrator 27.0.0, SVG Export Plug-In . SVG Version: 6.00 Build 0)  -->
<svg version="1.1" id="Слой_1" xmlns="http://www.w3.org/2000/svg" xmlns:xlink="http://www.w3.org/1999/xlink" x="0px" y="0px"
	 viewBox="0 0 800 1000" style="enable-background:new 0 0 800 1000;" xml:space="preserve">
<style type="text/css">
	.st0{fill-rule:evenodd;clip-rule:evenodd;fill:#F7A418;}
	.st1{fill:#FBDD3A;}
	.st2{fill:#1E1E1C;}
	.st3{fill:none;stroke:#1E1E1C;stroke-width:14;stroke-linecap:round;stroke-linejoin:round;stroke-miterlimit:5.6105;}
	.st4{fill:none;stroke:#1E1E1C;stroke-width:14;stroke-miterlimit:5.6105;}
</style>
<g>
	<g>
		<g transform="matrix(1,0,0,1,-27.2614,49.2429)">
			<path class="st0" d="M255.9,269.9l23.4-79.3l78.6,20.4l62-58.2l55.9,53.6l86.1-16.6l24.9,83.9l83.1,21.9L648,377.2l54.4,57.4
				l-53.6,60.5l20.4,80.8l-85.4,29.5l-19.6,74l-85-15.9l-55.1,54.4l-61.7-54.4l-83.9,19.6l-22.7-75.5l-84.6-26.4l22.7-83.1
				L135,435.4l55.2-59.7l-17.4-82.4L255.9,269.9z M418.7,239.3c107.7,0,195.2,87.9,195.2,196.1c0,108.2-87.5,196.1-195.2,196.1
				s-195.2-87.9-195.2-196.1C223.5,327.2,311,239.3,418.7,239.3z"/>
		</g>
		<path class="st1" d="M590.8,481.3c0,108.6-88,196.6-196.6,196.6s-196.6-88-196.6-196.6c0-108.6,88-196.6,196.6-196.6
			S590.8,372.8,590.8,481.3"/>
		<path class="st2" d="M230.9,521c0,2.9-2.4,5.3-5.3,5.3c-2.9,0-5.3-2.4-5.3-5.3c0-2.9,2.4-5.3,5.3-5.3
			C228.6,515.8,230.9,518.1,230.9,521"/>
		<path class="st3" d="M243.8,559.7c0,0,46.3,93.7,150.4,91.1"/>
		<path class="st3" d="M297.4,386.6c0,0,32.1-50.2,47.6,0"/>
		<path class="st3" d="M436.1,386.6c0,0,34.8-56.9,46.2,0"/>
		<path class="st3" d="M226.1,315.9l23.4-79.3l78.6,20.4l62-58.2l55.9,53.6l86.1-16.6l24.9,83.9l83.1,21.9l-21.9,81.6l54.4,57.4
			L618.9,541l20.4,80.8L554,651.3l-19.6,74l-85-15.9l-55.1,54.4l-61.7-54.4l-83.9,19.6l-22.7-75.5l-84.6-26.4l22.7-83.1l-58.9-62.7
			l55.2-59.7L143,339.3L226.1,315.9z"/>
		<path class="st4" d="M590.8,481.3c0,108.6-88,196.6-196.6,196.6s-196.6-88-196.6-196.6c0-108.6,88-196.6,196.6-196.6
			S590.8,372.8,590.8,481.3z"/>
		<path class="st2" d="M352,413c0,26.3,18,48.8,42.3,46.5c21.7-2.1,35.4-20.3,35.4-46.5c0-2.2-0.2-4.4-0.4-6.6h-76.9
			C352.1,408.6,352,410.8,352,413"/>
	</g>
</g>
</svg>
