<?xml version="1.0" encoding="utf-8"?>
<!-- Generator: Adobe Illustrator 27.0.0, SVG Export Plug-In . SVG Version: 6.00 Build 0)  -->
<svg version="1.1" id="Слой_1" xmlns="http://www.w3.org/2000/svg" xmlns:xlink="http://www.w3.org/1999/xlink" x="0px" y="0px"
	 viewBox="0 0 800 1000" style="enable-background:new 0 0 800 1000;" xml:space="preserve">
<style type="text/css">
	.st0{fill-rule:evenodd;clip-rule:evenodd;fill:#DA5F6D;}
	.st1{fill:#F7CD39;}
	.st2{fill:#21A38E;}
	.st3{fill:none;stroke:#1E1E1C;stroke-width:14;stroke-linecap:round;stroke-linejoin:round;stroke-miterlimit:5.6105;}
	.st4{fill:none;stroke:#1E1E1C;stroke-width:14;stroke-miterlimit:5.6105;}
</style>
<g>
	<g>
		<g transform="matrix(1,0,0,1,-106.467,53.7355)">
			<path class="st0" d="M296.6,250c0,0-30-144.6,109-95.6c0,0,89.4-124.7,148.7,0c0,0,150.3-54.2,120.5,95.6
				c0,0,134.1,48.6,23.3,144.8c0,0,76.6,136-73,129.2c0,0-23,144.8-141.7,56.4c0,0-101.2,82.1-145.9-49.3c0,0-142.8-15.8-68-135.3
				C269.6,395.8,175,305.4,296.6,250 M484.8,202.4c92.8,0,168.1,67.4,168.1,150.4c0,83-75.3,150.4-168.1,150.4
				c-92.8,0-168.1-67.4-168.1-150.4C316.7,269.8,392,202.4,484.8,202.4z"/>
		</g>
		
		<g transform="matrix(1,0,0,1,-106.467,53.7355)">
			<path class="st2" d="M497.3,589l4.2,172.1l-36.8,1.7l-0.5-173.9 M503.8,683.1c0,0,42.4-60,114.7-34.5c0,0-16.9,86-114.7,74.3
				 M463.4,695.9c0,0-21.6-78.6-119.4-47.8c0,0,41.8,100.4,119.9,73.3"/>
		</g>
		<path class="st3" d="M579.2,378.1l-31.6,6.1"/>
		<path class="st3" d="M288.7,384.2v27.6"/>
		<path class="st3" d="M461.1,384.2v27.6"/>
		<path class="st3" d="M351.5,405.1c0,0,22.6,30.9,51,0"/>
		<path class="st3" d="M377,208.2v46.3"/>
		<path class="st3" d="M502.9,259.9l-20.4,26.5"/>
		<path class="st3" d="M550.2,511.5l-31.6-21.4"/>
		<path class="st3" d="M440.7,587.4L430,549.2"/>
		<path class="st3" d="M308.3,584.8l12.5-37.5"/>
		<path class="st3" d="M206.4,511.5l31.2-19.6"/>
		<path class="st3" d="M175.9,378.1l28.5,6.1"/>
		<path class="st3" d="M246.4,254.5l22.9,31.9"/>
		<path class="st3" d="M547.6,405.1c0,83.2-76.4,150.6-170.6,150.6s-170.6-67.4-170.6-150.6c0-83.2,76.4-150.6,170.6-150.6
			S547.6,321.9,547.6,405.1z"/>
		<path class="st4" d="M190.2,301.1c0,0-30-144.6,109-95.6c0,0,89.4-124.7,148.7,0c0,0,150.3-54.2,120.5,95.6
			c0,0,134.1,48.6,23.3,144.8c0,0,76.6,136-73,129.2c0,0-23,144.8-141.7,56.4c0,0-101.2,82.1-145.9-49.3c0,0-142.8-15.8-68-135.3
			C163.1,446.9,68.6,356.5,190.2,301.1z"/>
		<path class="st3" d="M460.5,730l-63.2,34"/>
		<path class="st3" d="M291.6,730l68,39.8"/>
		<path class="st3" d="M397.3,641.7v168.7l-36.8,1.5l-3.9-168.4"/>
		<path class="st3" d="M356.9,749.6c0,0-21.6-78.6-119.4-47.8c0,0,41.8,100.4,119.9,73.3"/>
		<path class="st3" d="M397.3,736.9c0,0,42.4-60,114.7-34.5c0,0-16.9,86-114.7,74.3"/>
	</g>
</g>
</svg>
