<?xml version="1.0" encoding="utf-8"?>
<!-- Generator: Adobe Illustrator 26.0.1, SVG Export Plug-In . SVG Version: 6.00 Build 0)  -->
<svg version="1.0" id="Слой_1" xmlns="http://www.w3.org/2000/svg" xmlns:xlink="http://www.w3.org/1999/xlink" x="0px" y="0px"
	 viewBox="0 0 595.28 841.89" style="enable-background:new 0 0 595.28 841.89;" xml:space="preserve">
<style type="text/css">
	.st0{fill:#1CA38E;}
	.st1{fill:#D95E6C;}
	.st2{fill:#F7CD39;}
	.st3{fill:none;stroke:#000000;stroke-width:1.5;stroke-linecap:round;stroke-linejoin:round;stroke-miterlimit:10;}
	.st4{fill:none;stroke:#000000;stroke-width:2;stroke-linecap:round;stroke-linejoin:round;stroke-miterlimit:10;}
	.st5{fill:none;stroke:#000000;stroke-width:2;stroke-miterlimit:10;}
</style>
<polyline class="st0" points="166.89,257.67 166.89,278.37 162.93,278.55 162.51,257.9 "/>
<path class="st1" d="M144.87,223.44c0,0-3.22-15.54,11.71-10.28c0,0,9.61-13.41,15.98,0c0,0,16.15-5.82,12.95,10.28
	c0,0,14.41,5.22,2.51,15.56c0,0,8.23,14.62-7.84,13.89c0,0-2.47,15.56-15.23,6.06c0,0-10.87,8.83-15.68-5.3
	c0,0-15.35-1.7-7.31-14.54C141.96,239.11,131.8,229.39,144.87,223.44z"/>
<ellipse class="st2" cx="164.98" cy="234.33" rx="18.34" ry="16.19"/>
<path class="st0" d="M167.13,269.99c0,0,4.56-6.45,12.33-3.71c0,0-1.82,9.25-12.33,7.99"/>
<path class="st0" d="M162.79,271.36c0,0-2.32-8.45-12.83-5.14c0,0,4.49,10.79,12.89,7.88"/>
<g id="Контур_00000106105928245325396880000003493411791426092928_">
	<line class="st3" x1="186.68" y1="231.43" x2="183.28" y2="232.09"/>
	<g>
		<g>
			<line class="st4" x1="155.46" y1="232.09" x2="155.46" y2="235.05"/>
			<line class="st4" x1="173.98" y1="232.09" x2="173.98" y2="235.05"/>
			<path class="st3" d="M162.2,234.33c0,0,2.43,3.33,5.48,0"/>
			<g>
				<line class="st3" x1="164.94" y1="213.17" x2="164.94" y2="218.15"/>
				<line class="st3" x1="178.47" y1="218.73" x2="176.28" y2="221.58"/>
				<line class="st3" x1="183.56" y1="245.77" x2="180.17" y2="243.47"/>
				<line class="st3" x1="171.79" y1="253.92" x2="170.64" y2="249.82"/>
				<line class="st3" x1="157.56" y1="253.65" x2="158.91" y2="249.62"/>
				<line class="st3" x1="146.61" y1="245.77" x2="149.96" y2="243.66"/>
				<line class="st3" x1="143.33" y1="231.43" x2="146.4" y2="232.09"/>
				<line class="st3" x1="150.91" y1="218.15" x2="153.37" y2="221.58"/>
				<g>
					<ellipse class="st3" cx="164.94" cy="234.33" rx="18.34" ry="16.19"/>
					<path class="st5" d="M144.87,223.16c0,0-3.22-15.54,11.71-10.28c0,0,9.61-13.41,15.98,0c0,0,16.15-5.82,12.95,10.28
						c0,0,14.41,5.22,2.51,15.56c0,0,8.23,14.62-7.84,13.89c0,0-2.47,15.56-15.23,6.06c0,0-10.87,8.83-15.68-5.3
						c0,0-15.35-1.7-7.31-14.54C141.96,238.82,131.8,229.11,144.87,223.16z"/>
				</g>
			</g>
		</g>
		<line class="st3" x1="173.92" y1="269.25" x2="167.13" y2="272.9"/>
		<line class="st3" x1="155.77" y1="269.25" x2="163.07" y2="273.53"/>
		<polyline class="st3" points="167.13,259.77 167.13,277.9 163.18,278.06 162.76,259.96 		"/>
		<path class="st3" d="M162.79,271.36c0,0-2.32-8.45-12.83-5.14c0,0,4.49,10.79,12.89,7.88"/>
		<path class="st3" d="M167.13,269.99c0,0,4.56-6.45,12.33-3.71c0,0-1.82,9.25-12.33,7.99"/>
	</g>
</g>
</svg>
