<?xml version="1.0" encoding="UTF-8" standalone="no"?>
<!DOCTYPE svg PUBLIC "-//W3C//DTD SVG 1.1//EN" "http://www.w3.org/Graphics/SVG/1.1/DTD/svg11.dtd">
<svg width="100%" height="100%" viewBox="0 0 842 596" version="1.1" xmlns="http://www.w3.org/2000/svg" xmlns:xlink="http://www.w3.org/1999/xlink" xml:space="preserve" xmlns:serif="http://www.serif.com/" style="fill-rule:evenodd;clip-rule:evenodd;stroke-linejoin:round;stroke-miterlimit:2;">
    <g id="Слой-1" transform="matrix(-0.000890617,1.99892,-1.99892,-0.000890617,940.411,-100.763)">
        <path d="M225.352,81.377C226.985,81.377 228.522,81.064 229.963,80.439C231.405,79.814 232.676,78.951 233.778,77.85C234.879,76.748 235.743,75.477 236.368,74.035C236.993,72.594 237.305,71.057 237.305,69.424C237.305,67.791 236.993,66.254 236.368,64.812C235.743,63.371 234.879,62.1 233.778,60.998C232.676,59.896 231.403,59.033 229.958,58.408C228.512,57.783 226.973,57.471 225.34,57.471C223.708,57.471 222.17,57.783 220.729,58.408C219.288,59.033 218.018,59.896 216.92,60.998C215.823,62.1 214.961,63.371 214.336,64.812C213.711,66.254 213.399,67.791 213.399,69.424C213.399,71.057 213.711,72.594 214.336,74.035C214.961,75.477 215.825,76.748 216.926,77.85C218.028,78.951 219.299,79.814 220.741,80.439C222.182,81.064 223.719,81.377 225.352,81.377ZM225.352,79.385C223.969,79.385 222.676,79.127 221.473,78.611C220.27,78.096 219.213,77.383 218.303,76.473C217.393,75.562 216.682,74.506 216.17,73.303C215.659,72.1 215.403,70.807 215.403,69.424C215.403,68.041 215.659,66.748 216.17,65.545C216.682,64.342 217.391,63.283 218.297,62.369C219.204,61.455 220.258,60.742 221.461,60.23C222.665,59.719 223.958,59.463 225.34,59.463C226.723,59.463 228.016,59.719 229.219,60.23C230.422,60.742 231.481,61.455 232.395,62.369C233.309,63.283 234.024,64.342 234.54,65.545C235.055,66.748 235.313,68.041 235.313,69.424C235.313,70.807 235.057,72.1 234.545,73.303C234.034,74.506 233.323,75.562 232.413,76.473C231.502,77.383 230.444,78.096 229.237,78.611C228.03,79.127 226.735,79.385 225.352,79.385ZM229.84,70.068C230.083,69.92 230.202,69.709 230.198,69.436C230.194,69.162 230.075,68.955 229.84,68.814L223.161,64.853C222.911,64.705 222.653,64.682 222.387,64.783C222.122,64.885 221.989,65.076 221.989,65.357L221.989,73.502C221.989,73.791 222.116,73.988 222.37,74.094C222.624,74.199 222.887,74.17 223.161,74.006L229.84,70.068Z" style="fill-rule:nonzero;"/>
        <path d="M177.158,82.944C178.79,82.944 180.328,82.631 181.769,82.006C183.21,81.381 184.482,80.518 185.583,79.416C186.685,78.315 187.548,77.043 188.173,75.602C188.798,74.16 189.111,72.623 189.111,70.99C189.111,69.358 188.798,67.82 188.173,66.379C187.548,64.938 186.685,63.666 185.583,62.565C184.482,61.463 183.208,60.6 181.763,59.975C180.318,59.35 178.779,59.037 177.146,59.037C175.513,59.037 173.976,59.35 172.535,59.975C171.093,60.6 169.824,61.463 168.726,62.565C167.628,63.666 166.767,64.938 166.142,66.379C165.517,67.82 165.205,69.358 165.205,70.99C165.205,72.623 165.517,74.16 166.142,75.602C166.767,77.043 167.63,78.315 168.732,79.416C169.833,80.518 171.105,81.381 172.546,82.006C173.988,82.631 175.525,82.944 177.158,82.944ZM181.81,71.658L174.919,75.713C174.638,75.885 174.367,75.914 174.105,75.801C173.843,75.688 173.712,75.486 173.712,75.197L173.712,66.795C173.712,66.506 173.849,66.311 174.123,66.209C174.396,66.108 174.662,66.131 174.919,66.279L181.81,70.358C182.052,70.506 182.175,70.721 182.179,71.002C182.183,71.283 182.06,71.502 181.81,71.658Z" style="fill-rule:nonzero;"/>
        <path d="M224.761,130.448C226.394,130.448 227.931,130.135 229.373,129.51C230.814,128.885 232.086,128.022 233.187,126.92C234.289,125.819 235.152,124.547 235.777,123.106C236.402,121.664 236.715,120.127 236.715,118.494C236.715,116.862 236.402,115.325 235.777,113.883C235.152,112.442 234.289,111.17 233.187,110.069C232.086,108.967 230.812,108.104 229.367,107.479C227.922,106.854 226.383,106.541 224.75,106.541C223.117,106.541 221.58,106.854 220.138,107.479C218.697,108.104 217.427,108.967 216.33,110.069C215.232,111.17 214.371,112.442 213.746,113.883C213.121,115.325 212.808,116.862 212.808,118.494C212.808,120.127 213.121,121.664 213.746,123.106C214.371,124.547 215.234,125.819 216.336,126.92C217.437,128.022 218.709,128.885 220.15,129.51C221.591,130.135 223.129,130.448 224.761,130.448ZM224.761,128.455C223.379,128.455 222.086,128.198 220.883,127.682C219.679,127.166 218.623,126.453 217.713,125.543C216.802,124.633 216.091,123.576 215.58,122.373C215.068,121.17 214.812,119.877 214.812,118.494C214.812,117.112 215.068,115.819 215.58,114.616C216.091,113.412 216.8,112.354 217.707,111.44C218.613,110.526 219.668,109.813 220.871,109.301C222.074,108.789 223.367,108.534 224.75,108.534C226.133,108.534 227.425,108.789 228.629,109.301C229.832,109.813 230.89,110.526 231.804,111.44C232.718,112.354 233.433,113.412 233.949,114.616C234.465,115.819 234.722,117.112 234.722,118.494C234.722,119.877 234.466,121.17 233.955,122.373C233.443,123.576 232.732,124.633 231.822,125.543C230.912,126.453 229.853,127.166 228.646,127.682C227.439,128.198 226.144,128.455 224.761,128.455ZM221.445,123.065L222.605,123.065C222.894,123.065 223.107,122.994 223.244,122.854C223.381,122.713 223.449,122.53 223.449,122.303L223.449,114.686C223.449,114.459 223.381,114.274 223.244,114.129C223.107,113.985 222.894,113.912 222.605,113.912L221.445,113.912C221.156,113.912 220.943,113.985 220.806,114.129C220.67,114.274 220.601,114.459 220.601,114.686L220.601,122.303C220.601,122.53 220.67,122.713 220.806,122.854C220.943,122.994 221.156,123.065 221.445,123.065ZM226.929,123.065L228.078,123.065C228.359,123.065 228.57,122.994 228.711,122.854C228.851,122.713 228.922,122.53 228.922,122.303L228.922,114.686C228.922,114.459 228.851,114.274 228.711,114.129C228.57,113.985 228.359,113.912 228.078,113.912L226.929,113.912C226.64,113.912 226.425,113.985 226.285,114.129C226.144,114.274 226.074,114.459 226.074,114.686L226.074,122.303C226.074,122.53 226.144,122.713 226.285,122.854C226.425,122.994 226.64,123.065 226.929,123.065Z" style="fill-rule:nonzero;"/>
        <path d="M174.678,127.495C176.311,127.495 177.848,127.183 179.29,126.558C180.731,125.933 182.003,125.07 183.104,123.968C184.206,122.867 185.069,121.595 185.694,120.154C186.319,118.712 186.631,117.175 186.631,115.542C186.631,113.91 186.319,112.372 185.694,110.931C185.069,109.49 184.206,108.218 183.104,107.117C182.003,106.015 180.729,105.152 179.284,104.527C177.838,103.902 176.299,103.589 174.667,103.589C173.034,103.589 171.497,103.902 170.055,104.527C168.614,105.152 167.344,106.015 166.247,107.117C165.149,108.218 164.288,109.49 163.663,110.931C163.038,112.372 162.725,113.91 162.725,115.542C162.725,117.175 163.038,118.712 163.663,120.154C164.288,121.595 165.151,122.867 166.253,123.968C167.354,125.07 168.626,125.933 170.067,126.558C171.508,127.183 173.046,127.495 174.678,127.495ZM171.256,120.242C170.96,120.242 170.741,120.167 170.6,120.019C170.46,119.87 170.389,119.683 170.389,119.456L170.389,111.605C170.389,111.37 170.46,111.179 170.6,111.031C170.741,110.882 170.96,110.808 171.256,110.808L172.452,110.808C172.749,110.808 172.967,110.882 173.108,111.031C173.249,111.179 173.319,111.37 173.319,111.605L173.319,119.456C173.319,119.683 173.249,119.87 173.108,120.019C172.967,120.167 172.749,120.242 172.452,120.242L171.256,120.242ZM176.917,120.242C176.62,120.242 176.399,120.167 176.255,120.019C176.11,119.87 176.038,119.683 176.038,119.456L176.038,111.605C176.038,111.37 176.11,111.179 176.255,111.031C176.399,110.882 176.62,110.808 176.917,110.808L178.1,110.808C178.397,110.808 178.616,110.882 178.756,111.031C178.897,111.179 178.967,111.37 178.967,111.605L178.967,119.456C178.967,119.683 178.897,119.87 178.756,120.019C178.616,120.167 178.397,120.242 178.1,120.242L176.917,120.242Z" style="fill-rule:nonzero;"/>
        <path d="M69.885,165.035L73.237,165.035C73.347,165.035 73.44,165.07 73.518,165.14L78.804,169.875C79.093,170.125 79.354,170.31 79.589,170.431C79.823,170.552 80.081,170.613 80.362,170.613C80.589,170.613 80.796,170.562 80.983,170.461C81.171,170.359 81.331,170.207 81.464,170.004L80.104,168.656L74.444,163.582C74.327,163.472 74.222,163.402 74.128,163.371C74.034,163.339 73.913,163.324 73.764,163.324L69.968,163.324C69.749,163.324 69.587,163.273 69.481,163.171C69.376,163.07 69.323,162.91 69.323,162.691L69.323,157.863L67.917,156.457C67.776,156.644 67.671,156.871 67.6,157.136C67.53,157.402 67.495,157.707 67.495,158.05L67.495,162.539C67.495,163.382 67.694,164.009 68.093,164.42C68.491,164.83 69.089,165.035 69.885,165.035ZM81.686,163.312L81.686,151.324C81.686,150.941 81.559,150.615 81.305,150.345C81.052,150.076 80.729,149.941 80.339,149.941C80.057,149.941 79.809,150.007 79.595,150.14C79.38,150.273 79.116,150.476 78.804,150.75L73.682,155.296L74.936,156.562L79.507,152.414C79.538,152.382 79.569,152.359 79.6,152.343C79.632,152.328 79.667,152.32 79.706,152.32C79.807,152.32 79.858,152.375 79.858,152.484L79.858,161.484L81.686,163.312ZM85.507,171.843C85.679,172.023 85.891,172.113 86.145,172.113C86.399,172.113 86.608,172.023 86.772,171.843C86.952,171.664 87.042,171.451 87.042,171.205C87.042,170.959 86.952,170.746 86.772,170.566L66.71,150.504C66.53,150.332 66.315,150.244 66.065,150.24C65.815,150.236 65.6,150.324 65.421,150.504C65.249,150.675 65.163,150.888 65.163,151.142C65.163,151.396 65.249,151.609 65.421,151.781L85.507,171.843Z" style="fill-rule:nonzero;"/>
        <path d="M118.864,163.976L122.204,163.976C122.321,163.976 122.419,164.011 122.497,164.081L127.56,168.816C127.833,169.073 128.091,169.261 128.333,169.378C128.575,169.495 128.829,169.554 129.095,169.554C129.399,169.554 129.661,169.476 129.88,169.32C130.099,169.163 130.255,168.917 130.349,168.581L116.989,155.234C116.646,155.624 116.474,156.21 116.474,156.991L116.474,161.48C116.474,162.323 116.673,162.95 117.071,163.361C117.47,163.771 118.067,163.976 118.864,163.976ZM130.431,162.265L130.431,150.265C130.431,149.882 130.306,149.556 130.056,149.286C129.806,149.017 129.481,148.882 129.083,148.882C128.81,148.882 128.563,148.947 128.345,149.075C128.126,149.204 127.864,149.409 127.56,149.691L122.849,154.062C122.786,154.124 122.72,154.156 122.649,154.156L122.298,154.156L130.431,162.265ZM134.485,170.784C134.657,170.964 134.87,171.054 135.124,171.054C135.378,171.054 135.587,170.964 135.751,170.784C135.931,170.605 136.021,170.392 136.021,170.146C136.021,169.9 135.931,169.687 135.751,169.507L115.688,149.445C115.509,149.273 115.294,149.185 115.044,149.181C114.794,149.177 114.579,149.265 114.399,149.445C114.228,149.616 114.142,149.829 114.142,150.083C114.142,150.337 114.228,150.55 114.399,150.722L134.485,170.784Z" style="fill-rule:nonzero;"/>
        <path d="M125.895,214.985C126.286,214.985 126.604,214.86 126.85,214.61C127.097,214.36 127.22,214.047 127.22,213.672L127.22,195.696C127.22,195.313 127.095,194.987 126.845,194.717C126.595,194.448 126.27,194.313 125.872,194.313C125.598,194.313 125.352,194.375 125.134,194.5C124.915,194.625 124.657,194.833 124.36,195.122L119.368,199.809C119.29,199.879 119.192,199.915 119.075,199.915L115.712,199.915C114.923,199.915 114.317,200.131 113.895,200.565C113.473,200.999 113.263,201.637 113.263,202.481L113.263,206.84C113.263,207.692 113.473,208.333 113.895,208.762C114.317,209.192 114.923,209.407 115.712,209.407L119.075,209.407C119.192,209.407 119.29,209.442 119.368,209.512L124.36,214.247C124.626,214.504 124.88,214.692 125.122,214.809C125.364,214.926 125.622,214.985 125.895,214.985ZM131.391,209.629C131.595,209.762 131.817,209.807 132.059,209.764C132.302,209.721 132.501,209.586 132.657,209.36C133.11,208.766 133.464,208.055 133.718,207.227C133.972,206.399 134.098,205.536 134.098,204.637C134.098,203.739 133.972,202.875 133.718,202.047C133.464,201.219 133.11,200.508 132.657,199.915C132.501,199.688 132.302,199.551 132.059,199.504C131.817,199.458 131.595,199.504 131.391,199.645C131.157,199.809 131.022,200.022 130.987,200.284C130.952,200.545 131.028,200.797 131.216,201.04C131.559,201.508 131.823,202.055 132.007,202.68C132.19,203.305 132.282,203.958 132.282,204.637C132.282,205.317 132.188,205.967 132.001,206.588C131.813,207.209 131.552,207.758 131.216,208.235C131.036,208.485 130.962,208.739 130.993,208.997C131.024,209.254 131.157,209.465 131.391,209.629ZM135.751,212.688C135.97,212.829 136.2,212.877 136.442,212.834C136.684,212.792 136.884,212.657 137.04,212.43C137.79,211.399 138.374,210.204 138.792,208.844C139.21,207.485 139.419,206.083 139.419,204.637C139.419,203.192 139.212,201.786 138.798,200.418C138.384,199.051 137.798,197.86 137.04,196.844C136.884,196.618 136.684,196.481 136.442,196.434C136.2,196.387 135.97,196.438 135.751,196.586C135.54,196.735 135.417,196.932 135.382,197.178C135.347,197.424 135.415,197.668 135.587,197.911C136.227,198.817 136.723,199.852 137.075,201.016C137.427,202.18 137.602,203.387 137.602,204.637C137.602,205.887 137.425,207.092 137.069,208.252C136.714,209.413 136.22,210.45 135.587,211.364C135.423,211.606 135.356,211.85 135.388,212.096C135.419,212.342 135.54,212.54 135.751,212.688ZM140.145,215.793C140.348,215.942 140.575,215.989 140.825,215.934C141.075,215.879 141.278,215.735 141.434,215.5C142.122,214.508 142.71,213.436 143.198,212.284C143.686,211.131 144.061,209.915 144.323,208.633C144.585,207.352 144.716,206.02 144.716,204.637C144.716,203.254 144.583,201.922 144.317,200.641C144.052,199.36 143.673,198.143 143.18,196.991C142.688,195.838 142.106,194.766 141.434,193.774C141.278,193.532 141.075,193.385 140.825,193.334C140.575,193.284 140.348,193.333 140.145,193.481C139.927,193.629 139.802,193.829 139.77,194.079C139.739,194.329 139.805,194.575 139.97,194.817C140.571,195.715 141.093,196.682 141.534,197.717C141.975,198.752 142.317,199.85 142.559,201.01C142.802,202.17 142.923,203.379 142.923,204.637C142.923,205.887 142.802,207.092 142.559,208.252C142.317,209.413 141.975,210.514 141.534,211.557C141.093,212.6 140.571,213.567 139.97,214.458C139.805,214.692 139.739,214.936 139.77,215.19C139.802,215.444 139.927,215.645 140.145,215.793Z" style="fill-rule:nonzero;"/>
        <path d="M66.045,213.584L69.396,213.584C69.506,213.584 69.599,213.619 69.678,213.69L74.963,218.424C75.244,218.674 75.504,218.86 75.742,218.981C75.98,219.102 76.24,219.162 76.521,219.162C76.904,219.162 77.221,219.037 77.471,218.787C77.721,218.537 77.846,218.225 77.846,217.85L77.846,199.873C77.846,199.491 77.719,199.164 77.465,198.895C77.211,198.625 76.888,198.491 76.498,198.491C76.217,198.491 75.969,198.557 75.754,198.69C75.539,198.823 75.275,199.026 74.963,199.299L69.678,203.987C69.607,204.057 69.513,204.092 69.396,204.092L66.045,204.092C65.248,204.092 64.65,204.297 64.252,204.707C63.853,205.118 63.654,205.748 63.654,206.6L63.654,211.088C63.654,211.932 63.853,212.559 64.252,212.969C64.65,213.379 65.248,213.584 66.045,213.584ZM66.127,211.873C65.908,211.873 65.746,211.823 65.64,211.721C65.535,211.619 65.482,211.459 65.482,211.241L65.482,206.448C65.482,206.229 65.535,206.067 65.64,205.961C65.746,205.856 65.908,205.803 66.127,205.803L69.877,205.803C70.025,205.803 70.162,205.784 70.287,205.744C70.412,205.705 70.541,205.623 70.674,205.498L75.666,200.963C75.697,200.932 75.728,200.909 75.76,200.893C75.791,200.877 75.826,200.869 75.865,200.869C75.967,200.869 76.017,200.924 76.017,201.034L76.017,216.608C76.017,216.725 75.967,216.784 75.865,216.784C75.803,216.784 75.74,216.752 75.678,216.69L70.674,212.178C70.541,212.061 70.412,211.981 70.287,211.938C70.162,211.895 70.025,211.873 69.877,211.873L66.127,211.873ZM81.795,213.807C81.998,213.94 82.221,213.985 82.463,213.942C82.705,213.899 82.904,213.764 83.06,213.537C83.513,212.944 83.867,212.233 84.121,211.405C84.375,210.576 84.502,209.713 84.502,208.815C84.502,207.916 84.375,207.053 84.121,206.225C83.867,205.397 83.513,204.686 83.06,204.092C82.904,203.866 82.705,203.729 82.463,203.682C82.221,203.635 81.998,203.682 81.795,203.823C81.56,203.987 81.426,204.2 81.39,204.461C81.355,204.723 81.431,204.975 81.619,205.217C81.963,205.686 82.226,206.233 82.41,206.858C82.594,207.483 82.685,208.135 82.685,208.815C82.685,209.494 82.592,210.145 82.404,210.766C82.217,211.387 81.955,211.936 81.619,212.412C81.439,212.662 81.365,212.916 81.396,213.174C81.428,213.432 81.56,213.643 81.795,213.807ZM86.142,216.866C86.361,217.006 86.592,217.055 86.834,217.012C87.076,216.969 87.275,216.834 87.431,216.608C88.181,215.576 88.765,214.381 89.183,213.022C89.601,211.662 89.81,210.26 89.81,208.815C89.81,207.369 89.603,205.963 89.189,204.596C88.775,203.229 88.189,202.037 87.431,201.022C87.275,200.795 87.076,200.659 86.834,200.612C86.592,200.565 86.361,200.616 86.142,200.764C85.931,200.912 85.808,201.11 85.773,201.356C85.738,201.602 85.806,201.846 85.978,202.088C86.619,202.994 87.115,204.03 87.467,205.194C87.818,206.358 87.994,207.565 87.994,208.815C87.994,210.065 87.816,211.27 87.461,212.43C87.105,213.59 86.611,214.627 85.978,215.541C85.814,215.784 85.748,216.028 85.779,216.274C85.81,216.52 85.931,216.717 86.142,216.866ZM90.537,219.971C90.74,220.119 90.967,220.166 91.217,220.112C91.467,220.057 91.67,219.912 91.826,219.678C92.513,218.686 93.101,217.614 93.59,216.461C94.078,215.309 94.453,214.092 94.715,212.811C94.976,211.53 95.107,210.198 95.107,208.815C95.107,207.432 94.974,206.1 94.709,204.819C94.443,203.537 94.064,202.321 93.572,201.168C93.08,200.016 92.498,198.944 91.826,197.951C91.67,197.709 91.467,197.563 91.217,197.512C90.967,197.461 90.74,197.51 90.537,197.659C90.318,197.807 90.193,198.006 90.162,198.256C90.131,198.506 90.197,198.752 90.361,198.994C90.963,199.893 91.484,200.86 91.926,201.895C92.367,202.93 92.709,204.028 92.951,205.188C93.193,206.348 93.314,207.557 93.314,208.815C93.314,210.065 93.193,211.27 92.951,212.43C92.709,213.59 92.367,214.692 91.926,215.735C91.484,216.778 90.963,217.744 90.361,218.635C90.197,218.869 90.131,219.114 90.162,219.368C90.193,219.621 90.318,219.823 90.537,219.971Z" style="fill-rule:nonzero;"/>
        <path d="M176.509,215.035C178.142,215.035 179.679,214.723 181.12,214.098C182.562,213.473 183.833,212.61 184.935,211.508C186.036,210.407 186.899,209.135 187.524,207.694C188.149,206.252 188.462,204.715 188.462,203.082C188.462,201.45 188.149,199.912 187.524,198.471C186.899,197.03 186.036,195.758 184.935,194.657C183.833,193.555 182.56,192.692 181.114,192.067C179.669,191.442 178.13,191.129 176.497,191.129C174.864,191.129 173.327,191.442 171.886,192.067C170.444,192.692 169.175,193.555 168.077,194.657C166.979,195.758 166.118,197.03 165.493,198.471C164.868,199.912 164.556,201.45 164.556,203.082C164.556,204.715 164.868,206.252 165.493,207.694C166.118,209.135 166.981,210.407 168.083,211.508C169.185,212.61 170.456,213.473 171.897,214.098C173.339,214.723 174.876,215.035 176.509,215.035ZM178.853,205.801C178.517,205.543 178.466,205.235 178.7,204.875C179.052,204.383 179.228,203.785 179.228,203.082C179.228,202.332 179.056,201.735 178.712,201.289C178.595,201.125 178.55,200.957 178.577,200.785C178.604,200.614 178.696,200.469 178.853,200.352C178.985,200.25 179.136,200.217 179.304,200.252C179.472,200.287 179.61,200.375 179.72,200.516C179.962,200.844 180.151,201.235 180.288,201.688C180.425,202.141 180.493,202.606 180.493,203.082C180.493,203.575 180.427,204.045 180.294,204.494C180.161,204.944 179.97,205.328 179.72,205.649C179.61,205.789 179.472,205.877 179.304,205.912C179.136,205.948 178.985,205.91 178.853,205.801ZM180.985,207.407C180.829,207.313 180.741,207.178 180.722,207.002C180.702,206.826 180.747,206.657 180.856,206.493C181.185,206.055 181.438,205.535 181.618,204.934C181.798,204.332 181.888,203.715 181.888,203.082C181.888,202.434 181.798,201.815 181.618,201.225C181.438,200.635 181.185,200.11 180.856,199.649C180.747,199.493 180.704,199.328 180.728,199.157C180.751,198.985 180.837,198.848 180.985,198.746C181.134,198.645 181.29,198.61 181.454,198.641C181.618,198.672 181.751,198.762 181.853,198.91C182.274,199.496 182.595,200.149 182.813,200.868C183.032,201.586 183.142,202.325 183.142,203.082C183.142,203.856 183.028,204.6 182.802,205.315C182.575,206.03 182.259,206.676 181.853,207.254C181.751,207.387 181.62,207.469 181.46,207.5C181.3,207.532 181.142,207.5 180.985,207.407ZM176.11,208.532C175.962,208.532 175.825,208.5 175.7,208.438C175.575,208.375 175.438,208.278 175.29,208.145L172.665,205.649C172.626,205.61 172.575,205.59 172.513,205.59L170.731,205.59C170.325,205.59 170.009,205.475 169.782,205.244C169.556,205.014 169.442,204.68 169.442,204.243L169.442,201.934C169.442,201.496 169.556,201.162 169.782,200.932C170.009,200.701 170.325,200.586 170.731,200.586L172.513,200.586C172.583,200.586 172.634,200.571 172.665,200.539L175.29,198.067C175.454,197.918 175.593,197.811 175.706,197.744C175.819,197.678 175.946,197.645 176.087,197.645C176.298,197.645 176.47,197.715 176.603,197.856C176.735,197.996 176.802,198.168 176.802,198.371L176.802,207.84C176.802,208.035 176.737,208.2 176.608,208.332C176.479,208.465 176.313,208.532 176.11,208.532Z" style="fill-rule:nonzero;"/>
        <path d="M79.506,76.193C79.741,76.193 79.963,76.152 80.174,76.07C80.385,75.988 80.608,75.877 80.842,75.736L94.506,67.838C94.999,67.549 95.34,67.293 95.532,67.07C95.723,66.848 95.819,66.58 95.819,66.267C95.819,65.955 95.723,65.687 95.532,65.465C95.34,65.242 94.999,64.99 94.506,64.709L80.842,56.799C80.608,56.666 80.385,56.558 80.174,56.476C79.963,56.394 79.741,56.353 79.506,56.353C79.077,56.353 78.735,56.506 78.481,56.81C78.227,57.115 78.1,57.521 78.1,58.029L78.1,74.506C78.1,75.013 78.227,75.422 78.481,75.73C78.735,76.039 79.077,76.193 79.506,76.193ZM80.104,73.955C80.026,73.955 79.987,73.908 79.987,73.814L79.987,58.721C79.987,58.627 80.026,58.58 80.104,58.58C80.143,58.58 80.19,58.599 80.245,58.639L93.217,66.138C93.241,66.154 93.264,66.172 93.288,66.191C93.311,66.211 93.323,66.236 93.323,66.267C93.323,66.299 93.311,66.324 93.288,66.344C93.264,66.363 93.241,66.381 93.217,66.396L80.245,73.908C80.19,73.939 80.143,73.955 80.104,73.955Z" style="fill-rule:nonzero;"/>
        <path d="M116.133,121.657L118.805,121.657C119.313,121.657 119.699,121.524 119.965,121.258C120.231,120.993 120.363,120.602 120.363,120.086L120.363,104.125C120.363,103.594 120.231,103.202 119.965,102.948C119.699,102.694 119.313,102.567 118.805,102.567L116.133,102.567C115.617,102.567 115.229,102.7 114.967,102.965C114.705,103.231 114.574,103.618 114.574,104.125L114.574,120.086C114.574,120.602 114.705,120.993 114.967,121.258C115.229,121.524 115.617,121.657 116.133,121.657ZM124.653,121.657L127.313,121.657C127.828,121.657 128.217,121.524 128.479,121.258C128.74,120.993 128.871,120.602 128.871,120.086L128.871,104.125C128.871,103.594 128.74,103.202 128.479,102.948C128.217,102.694 127.828,102.567 127.313,102.567L124.653,102.567C124.137,102.567 123.746,102.7 123.481,102.965C123.215,103.231 123.082,103.618 123.082,104.125L123.082,120.086C123.082,120.602 123.215,120.993 123.481,121.258C123.746,121.524 124.137,121.657 124.653,121.657Z" style="fill-rule:nonzero;"/>
        <path d="M81.813,125.975C82.094,125.975 82.332,125.881 82.527,125.694C82.723,125.506 82.82,125.276 82.82,125.002L82.82,107.6C82.82,107.319 82.723,107.084 82.527,106.897C82.332,106.709 82.094,106.615 81.813,106.615C81.539,106.615 81.305,106.709 81.109,106.897C80.914,107.084 80.816,107.319 80.816,107.6L80.816,125.002C80.816,125.276 80.914,125.506 81.109,125.694C81.305,125.881 81.539,125.975 81.813,125.975ZM89.559,125.975C89.84,125.975 90.078,125.881 90.273,125.694C90.469,125.506 90.566,125.276 90.566,125.002L90.566,107.6C90.566,107.319 90.469,107.084 90.273,106.897C90.078,106.709 89.84,106.615 89.559,106.615C89.285,106.615 89.051,106.709 88.856,106.897C88.66,107.084 88.563,107.319 88.563,107.6L88.563,125.002C88.563,125.276 88.66,125.506 88.856,125.694C89.051,125.881 89.285,125.975 89.559,125.975Z" style="fill-rule:nonzero;"/>
        <path d="M117.134,78.282C117.368,78.282 117.591,78.241 117.802,78.159C118.013,78.077 118.235,77.966 118.47,77.825L132.134,69.927C132.626,69.637 132.968,69.382 133.159,69.159C133.35,68.936 133.446,68.669 133.446,68.356C133.446,68.044 133.35,67.776 133.159,67.554C132.968,67.331 132.626,67.079 132.134,66.798L118.47,58.887C118.235,58.755 118.013,58.647 117.802,58.565C117.591,58.483 117.368,58.442 117.134,58.442C116.704,58.442 116.362,58.594 116.108,58.899C115.854,59.204 115.727,59.61 115.727,60.118L115.727,76.595C115.727,77.102 115.854,77.51 116.108,77.819C116.362,78.128 116.704,78.282 117.134,78.282Z" style="fill-rule:nonzero;"/>
        <path d="M176.509,174.304C178.142,174.304 179.679,173.992 181.12,173.367C182.562,172.742 183.833,171.879 184.935,170.777C186.036,169.675 186.899,168.404 187.524,166.963C188.149,165.521 188.462,163.984 188.462,162.351C188.462,160.718 188.149,159.181 187.524,157.74C186.899,156.298 186.036,155.027 184.935,153.925C183.833,152.824 182.56,151.961 181.114,151.336C179.669,150.711 178.13,150.398 176.497,150.398C174.864,150.398 173.327,150.711 171.886,151.336C170.444,151.961 169.175,152.824 168.077,153.925C166.979,155.027 166.118,156.298 165.493,157.74C164.868,159.181 164.556,160.718 164.556,162.351C164.556,163.984 164.868,165.521 165.493,166.963C166.118,168.404 166.981,169.675 168.083,170.777C169.185,171.879 170.456,172.742 171.897,173.367C173.339,173.992 174.876,174.304 176.509,174.304ZM173.286,164.859C172.872,164.859 172.554,164.744 172.331,164.513C172.108,164.283 171.997,163.949 171.997,163.511L171.997,161.203C171.997,161.015 172.03,160.847 172.097,160.699C172.163,160.55 172.243,160.433 172.337,160.347L172.431,160.347L179.251,167.156L179.122,167.578C178.997,167.726 178.845,167.8 178.665,167.8C178.517,167.8 178.378,167.769 178.249,167.707C178.12,167.644 177.985,167.546 177.845,167.414L175.22,164.918C175.181,164.879 175.126,164.859 175.056,164.859L173.286,164.859ZM182.192,168.832L170.017,156.656C169.915,156.546 169.864,156.416 169.864,156.263C169.864,156.111 169.915,155.98 170.017,155.871C170.126,155.761 170.259,155.707 170.415,155.707C170.571,155.707 170.704,155.761 170.813,155.871L182.978,168.046C183.087,168.156 183.142,168.285 183.142,168.433C183.142,168.582 183.087,168.714 182.978,168.832C182.876,168.933 182.747,168.982 182.591,168.978C182.435,168.974 182.302,168.925 182.192,168.832ZM175.653,159.398L177.845,157.336C178.009,157.187 178.147,157.08 178.261,157.013C178.374,156.947 178.505,156.914 178.653,156.914C178.856,156.914 179.024,156.984 179.157,157.125C179.29,157.265 179.356,157.437 179.356,157.64L179.356,163.101L175.653,159.398Z" style="fill-rule:nonzero;"/>
        <path d="M225.117,173.145C226.75,173.145 228.287,172.833 229.729,172.208C231.17,171.583 232.442,170.719 233.543,169.618C234.645,168.516 235.508,167.245 236.133,165.803C236.758,164.362 237.07,162.825 237.07,161.192C237.07,159.559 236.758,158.022 236.133,156.581C235.508,155.139 234.645,153.868 233.543,152.766C232.442,151.665 231.168,150.802 229.723,150.177C228.277,149.552 226.738,149.239 225.106,149.239C223.473,149.239 221.936,149.552 220.494,150.177C219.053,150.802 217.783,151.665 216.686,152.766C215.588,153.868 214.727,155.139 214.102,156.581C213.477,158.022 213.164,159.559 213.164,161.192C213.164,162.825 213.477,164.362 214.102,165.803C214.727,167.245 215.59,168.516 216.692,169.618C217.793,170.719 219.065,171.583 220.506,172.208C221.947,172.833 223.485,173.145 225.117,173.145ZM225.117,171.153C223.735,171.153 222.442,170.895 221.238,170.38C220.035,169.864 218.979,169.151 218.068,168.241C217.158,167.331 216.447,166.274 215.936,165.071C215.424,163.868 215.168,162.575 215.168,161.192C215.168,159.809 215.424,158.516 215.936,157.313C216.447,156.11 217.156,155.052 218.063,154.137C218.969,153.223 220.024,152.511 221.227,151.999C222.43,151.487 223.723,151.231 225.106,151.231C226.488,151.231 227.781,151.487 228.985,151.999C230.188,152.511 231.246,153.223 232.16,154.137C233.074,155.052 233.789,156.11 234.305,157.313C234.82,158.516 235.078,159.809 235.078,161.192C235.078,162.575 234.822,163.868 234.311,165.071C233.799,166.274 233.088,167.331 232.178,168.241C231.268,169.151 230.209,169.864 229.002,170.38C227.795,170.895 226.5,171.153 225.117,171.153ZM221.988,163.618L223.711,163.618C223.774,163.618 223.824,163.637 223.863,163.677L226.418,166.102C226.559,166.235 226.69,166.331 226.811,166.389C226.932,166.448 227.063,166.477 227.203,166.477C227.375,166.477 227.524,166.403 227.649,166.255L227.777,165.844L221.168,159.247L221.074,159.247C220.981,159.333 220.902,159.448 220.84,159.593C220.777,159.737 220.746,159.899 220.746,160.079L220.746,162.317C220.746,162.747 220.854,163.071 221.068,163.29C221.283,163.509 221.59,163.618 221.988,163.618ZM230.637,167.473C230.738,167.567 230.863,167.616 231.012,167.62C231.16,167.624 231.285,167.575 231.387,167.473C231.496,167.364 231.551,167.237 231.551,167.093C231.551,166.948 231.496,166.825 231.387,166.723L219.586,154.911C219.477,154.802 219.35,154.747 219.205,154.747C219.061,154.747 218.934,154.802 218.824,154.911C218.723,155.012 218.672,155.137 218.672,155.286C218.672,155.434 218.723,155.559 218.824,155.661L230.637,167.473ZM224.285,158.333L227.871,161.919L227.871,156.622C227.871,156.427 227.809,156.261 227.684,156.124C227.559,155.987 227.395,155.919 227.192,155.919C227.051,155.919 226.926,155.952 226.817,156.018C226.707,156.085 226.574,156.188 226.418,156.329L224.285,158.333Z" style="fill-rule:nonzero;"/>
        <path d="M224.073,211.788C225.706,211.788 227.243,211.475 228.684,210.85C230.126,210.225 231.397,209.362 232.499,208.26C233.6,207.159 234.464,205.887 235.089,204.446C235.714,203.004 236.026,201.467 236.026,199.835C236.026,198.202 235.714,196.665 235.089,195.223C234.464,193.782 233.6,192.51 232.499,191.409C231.397,190.307 230.124,189.444 228.678,188.819C227.233,188.194 225.694,187.881 224.061,187.881C222.428,187.881 220.891,188.194 219.45,188.819C218.008,189.444 216.739,190.307 215.641,191.409C214.544,192.51 213.682,193.782 213.057,195.223C212.432,196.665 212.12,198.202 212.12,199.835C212.12,201.467 212.432,203.004 213.057,204.446C213.682,205.887 214.546,207.159 215.647,208.26C216.749,209.362 218.02,210.225 219.462,210.85C220.903,211.475 222.44,211.788 224.073,211.788ZM224.073,209.795C222.69,209.795 221.397,209.538 220.194,209.022C218.991,208.506 217.934,207.794 217.024,206.883C216.114,205.973 215.403,204.917 214.891,203.713C214.38,202.51 214.124,201.217 214.124,199.835C214.124,198.452 214.38,197.159 214.891,195.956C215.403,194.753 216.112,193.694 217.018,192.78C217.924,191.866 218.979,191.153 220.182,190.641C221.385,190.129 222.678,189.874 224.061,189.874C225.444,189.874 226.737,190.129 227.94,190.641C229.143,191.153 230.202,191.866 231.116,192.78C232.03,193.694 232.745,194.753 233.26,195.956C233.776,197.159 234.034,198.452 234.034,199.835C234.034,201.217 233.778,202.51 233.266,203.713C232.755,204.917 232.044,205.973 231.133,206.883C230.223,207.794 229.165,208.506 227.958,209.022C226.751,209.538 225.456,209.795 224.073,209.795ZM226.346,202.471C226.479,202.573 226.626,202.608 226.786,202.577C226.946,202.545 227.081,202.46 227.19,202.319C227.432,202.014 227.618,201.643 227.747,201.206C227.876,200.768 227.94,200.311 227.94,199.835C227.94,199.366 227.874,198.913 227.741,198.475C227.608,198.038 227.424,197.663 227.19,197.35C227.089,197.21 226.956,197.124 226.792,197.092C226.628,197.061 226.479,197.092 226.346,197.186C226.198,197.303 226.112,197.444 226.089,197.608C226.065,197.772 226.108,197.932 226.217,198.088C226.553,198.526 226.721,199.108 226.721,199.835C226.721,200.514 226.549,201.096 226.206,201.581C225.979,201.932 226.026,202.229 226.346,202.471ZM228.421,204.03C228.569,204.116 228.721,204.145 228.878,204.118C229.034,204.09 229.163,204.01 229.264,203.878C229.655,203.315 229.96,202.688 230.178,201.997C230.397,201.305 230.507,200.585 230.507,199.835C230.507,199.1 230.401,198.385 230.19,197.69C229.979,196.995 229.671,196.362 229.264,195.792C229.163,195.651 229.032,195.563 228.872,195.528C228.712,195.493 228.561,195.526 228.421,195.628C228.28,195.729 228.2,195.862 228.18,196.026C228.161,196.19 228.202,196.35 228.303,196.506C228.967,197.42 229.299,198.53 229.299,199.835C229.299,200.452 229.214,201.053 229.042,201.639C228.87,202.225 228.624,202.729 228.303,203.151C228.194,203.307 228.149,203.469 228.169,203.637C228.188,203.805 228.272,203.936 228.421,204.03ZM223.686,205.12C223.882,205.12 224.042,205.055 224.167,204.926C224.292,204.797 224.354,204.639 224.354,204.452L224.354,195.264C224.354,195.069 224.292,194.903 224.167,194.766C224.042,194.629 223.878,194.561 223.674,194.561C223.534,194.561 223.409,194.594 223.299,194.661C223.19,194.727 223.057,194.831 222.901,194.971L220.346,197.374C220.315,197.405 220.268,197.42 220.206,197.42L218.471,197.42C218.073,197.42 217.766,197.53 217.551,197.749C217.337,197.967 217.229,198.292 217.229,198.721L217.229,200.96C217.229,201.389 217.337,201.713 217.551,201.932C217.766,202.151 218.073,202.26 218.471,202.26L220.206,202.26C220.26,202.26 220.307,202.28 220.346,202.319L222.901,204.745C223.042,204.878 223.173,204.973 223.294,205.032C223.415,205.09 223.546,205.12 223.686,205.12Z" style="fill-rule:nonzero;"/>
        <path d="M82.375,273.562L84.742,273.562C85.195,273.562 85.584,273.435 85.908,273.181C86.232,272.927 86.445,272.581 86.547,272.144L87.05,269.952L87.425,269.823L89.336,270.995C89.711,271.237 90.105,271.331 90.519,271.276C90.933,271.222 91.3,271.034 91.621,270.714L93.261,269.085C93.582,268.765 93.769,268.397 93.824,267.983C93.879,267.569 93.785,267.175 93.543,266.8L92.347,264.901L92.488,264.55L94.679,264.034C95.109,263.933 95.453,263.718 95.711,263.39C95.968,263.062 96.097,262.675 96.097,262.23L96.097,259.909C96.097,259.464 95.968,259.077 95.711,258.749C95.453,258.421 95.109,258.206 94.679,258.105L92.511,257.577L92.359,257.202L93.554,255.304C93.796,254.929 93.89,254.536 93.836,254.126C93.781,253.716 93.593,253.347 93.273,253.019L91.632,251.378C91.32,251.065 90.957,250.882 90.543,250.827C90.129,250.772 89.734,250.862 89.359,251.097L87.449,252.269L87.05,252.116L86.547,249.925C86.445,249.495 86.232,249.151 85.908,248.894C85.584,248.636 85.195,248.507 84.742,248.507L82.375,248.507C81.922,248.507 81.533,248.636 81.209,248.894C80.884,249.151 80.672,249.495 80.57,249.925L80.054,252.116L79.656,252.269L77.757,251.097C77.375,250.862 76.978,250.772 76.568,250.827C76.158,250.882 75.793,251.065 75.472,251.378L73.843,253.019C73.515,253.347 73.326,253.716 73.275,254.126C73.224,254.536 73.32,254.929 73.562,255.304L74.746,257.202L74.605,257.577L72.437,258.105C72,258.206 71.654,258.421 71.4,258.749C71.146,259.077 71.019,259.464 71.019,259.909L71.019,262.23C71.019,262.675 71.148,263.062 71.406,263.39C71.664,263.718 72.007,263.933 72.437,264.034L74.629,264.55L74.757,264.901L73.574,266.8C73.332,267.175 73.236,267.569 73.287,267.983C73.338,268.397 73.527,268.765 73.855,269.085L75.484,270.714C75.804,271.034 76.172,271.222 76.586,271.276C77,271.331 77.398,271.237 77.781,270.995L79.679,269.823L80.054,269.952L80.57,272.144C80.672,272.581 80.884,272.927 81.209,273.181C81.533,273.435 81.922,273.562 82.375,273.562ZM82.562,271.733C82.367,271.733 82.254,271.644 82.222,271.464L81.519,268.558C81.16,268.472 80.818,268.36 80.494,268.224C80.17,268.087 79.882,267.94 79.632,267.784L77.078,269.355C76.937,269.456 76.793,269.437 76.644,269.296L75.261,267.913C75.136,267.796 75.121,267.651 75.214,267.48L76.785,264.948C76.652,264.698 76.515,264.413 76.375,264.093C76.234,263.772 76.117,263.433 76.023,263.073L73.117,262.382C72.937,262.351 72.847,262.237 72.847,262.042L72.847,260.085C72.847,259.897 72.937,259.784 73.117,259.745L76.011,259.042C76.105,258.659 76.228,258.304 76.38,257.976C76.533,257.647 76.66,257.374 76.761,257.155L75.203,254.624C75.101,254.452 75.113,254.3 75.238,254.167L76.632,252.808C76.773,252.683 76.922,252.663 77.078,252.749L79.609,254.284C79.859,254.144 80.154,254.003 80.494,253.862C80.834,253.722 81.179,253.605 81.531,253.511L82.222,250.605C82.254,250.425 82.367,250.335 82.562,250.335L84.554,250.335C84.75,250.335 84.859,250.425 84.882,250.605L85.597,253.534C85.964,253.628 86.306,253.743 86.623,253.88C86.939,254.017 87.226,254.155 87.484,254.296L90.027,252.749C90.191,252.663 90.343,252.683 90.484,252.808L91.867,254.167C92,254.3 92.011,254.452 91.902,254.624L90.343,257.155C90.453,257.374 90.582,257.647 90.73,257.976C90.879,258.304 91,258.659 91.093,259.042L94,259.745C94.179,259.784 94.269,259.897 94.269,260.085L94.269,262.042C94.269,262.237 94.179,262.351 94,262.382L91.082,263.073C90.988,263.433 90.873,263.772 90.736,264.093C90.599,264.413 90.461,264.698 90.32,264.948L91.89,267.48C91.992,267.651 91.976,267.796 91.843,267.913L90.472,269.296C90.324,269.437 90.175,269.456 90.027,269.355L87.472,267.784C87.222,267.94 86.937,268.087 86.617,268.224C86.297,268.36 85.957,268.472 85.597,268.558L84.882,271.464C84.859,271.644 84.75,271.733 84.554,271.733L82.562,271.733ZM83.558,265.511C84.379,265.511 85.126,265.31 85.802,264.907C86.478,264.505 87.017,263.964 87.42,263.284C87.822,262.605 88.023,261.855 88.023,261.034C88.023,260.222 87.822,259.478 87.42,258.802C87.017,258.126 86.478,257.587 85.802,257.185C85.126,256.782 84.379,256.581 83.558,256.581C82.738,256.581 81.99,256.782 81.314,257.185C80.638,257.587 80.097,258.126 79.691,258.802C79.285,259.478 79.082,260.222 79.082,261.034C79.082,261.855 79.285,262.603 79.691,263.278C80.097,263.954 80.638,264.495 81.314,264.901C81.99,265.308 82.738,265.511 83.558,265.511ZM83.558,263.694C83.074,263.694 82.63,263.575 82.228,263.337C81.826,263.099 81.505,262.778 81.267,262.376C81.029,261.974 80.91,261.526 80.91,261.034C80.91,260.55 81.029,260.108 81.267,259.71C81.505,259.312 81.826,258.993 82.228,258.755C82.63,258.517 83.074,258.397 83.558,258.397C84.035,258.397 84.472,258.517 84.871,258.755C85.269,258.993 85.588,259.312 85.826,259.71C86.064,260.108 86.183,260.55 86.183,261.034C86.183,261.519 86.064,261.962 85.826,262.364C85.588,262.767 85.269,263.089 84.871,263.331C84.472,263.573 84.035,263.694 83.558,263.694Z" style="fill-rule:nonzero;"/>
        <path d="M125.822,274.847L127.978,274.847C128.283,274.847 128.541,274.763 128.752,274.595C128.963,274.427 129.1,274.191 129.162,273.886L129.771,271.308C129.998,271.23 130.221,271.148 130.439,271.062C130.658,270.976 130.865,270.886 131.06,270.792L133.322,272.175C133.572,272.331 133.832,272.398 134.101,272.374C134.371,272.351 134.611,272.234 134.822,272.023L136.334,270.523C136.545,270.312 136.664,270.066 136.691,269.784C136.719,269.503 136.646,269.238 136.475,268.988L135.092,266.749C135.193,266.546 135.285,266.339 135.367,266.128C135.449,265.917 135.525,265.706 135.596,265.495L138.197,264.874C138.494,264.812 138.726,264.675 138.894,264.464C139.062,264.253 139.146,263.995 139.146,263.691L139.146,261.57C139.146,261.273 139.062,261.019 138.894,260.808C138.726,260.597 138.494,260.46 138.197,260.398L135.619,259.777C135.541,259.534 135.457,259.308 135.367,259.097C135.277,258.886 135.193,258.687 135.115,258.499L136.498,256.226C136.662,255.976 136.734,255.716 136.715,255.446C136.695,255.177 136.576,254.937 136.357,254.726L134.822,253.214C134.603,253.019 134.369,252.904 134.119,252.868C133.869,252.833 133.615,252.89 133.357,253.038L131.06,254.456C130.873,254.355 130.672,254.261 130.457,254.175C130.242,254.089 130.014,254.007 129.771,253.929L129.162,251.316C129.1,251.019 128.963,250.784 128.752,250.613C128.541,250.441 128.283,250.355 127.978,250.355L125.822,250.355C125.517,250.355 125.26,250.441 125.049,250.613C124.838,250.784 124.697,251.019 124.627,251.316L124.017,253.905C123.791,253.984 123.566,254.068 123.344,254.157C123.121,254.247 122.912,254.343 122.717,254.445L120.443,253.038C120.185,252.89 119.93,252.831 119.676,252.863C119.422,252.894 119.185,253.011 118.967,253.214L117.443,254.726C117.225,254.937 117.103,255.177 117.08,255.446C117.057,255.716 117.131,255.976 117.303,256.226L118.674,258.499C118.596,258.687 118.512,258.886 118.422,259.097C118.332,259.308 118.252,259.534 118.182,259.777L115.603,260.398C115.299,260.46 115.064,260.597 114.9,260.808C114.736,261.019 114.654,261.273 114.654,261.57L114.654,263.691C114.654,263.995 114.736,264.253 114.9,264.464C115.064,264.675 115.299,264.812 115.603,264.874L118.205,265.495C118.267,265.706 118.342,265.917 118.428,266.128C118.514,266.339 118.603,266.546 118.697,266.749L117.326,268.988C117.154,269.238 117.082,269.503 117.109,269.784C117.137,270.066 117.256,270.312 117.467,270.523L118.967,272.023C119.178,272.234 119.418,272.351 119.687,272.374C119.957,272.398 120.221,272.331 120.478,272.175L122.728,270.792C122.924,270.886 123.131,270.976 123.35,271.062C123.568,271.148 123.791,271.23 124.017,271.308L124.627,273.886C124.697,274.191 124.838,274.427 125.049,274.595C125.26,274.763 125.517,274.847 125.822,274.847ZM126.9,266.738C126.142,266.738 125.449,266.55 124.82,266.175C124.191,265.8 123.691,265.298 123.32,264.669C122.949,264.04 122.764,263.347 122.764,262.589C122.764,261.831 122.951,261.142 123.326,260.521C123.701,259.9 124.201,259.402 124.826,259.027C125.451,258.652 126.142,258.464 126.9,258.464C127.658,258.464 128.351,258.652 128.98,259.027C129.609,259.402 130.109,259.9 130.48,260.521C130.851,261.142 131.037,261.831 131.037,262.589C131.037,263.347 130.851,264.04 130.48,264.669C130.109,265.298 129.609,265.8 128.98,266.175C128.351,266.55 127.658,266.738 126.9,266.738Z" style="fill-rule:nonzero;"/>
        <path d="M171.397,267.228L173.108,267.228C173.475,267.228 173.794,267.125 174.063,266.918C174.333,266.711 174.506,266.431 174.585,266.08L174.913,264.592C174.928,264.584 174.948,264.576 174.971,264.568C174.995,264.56 175.014,264.552 175.03,264.545L176.354,265.342C176.651,265.521 176.969,265.592 177.309,265.552C177.649,265.513 177.944,265.369 178.194,265.119L179.389,263.912C179.655,263.646 179.805,263.345 179.84,263.01C179.876,262.674 179.799,262.357 179.612,262.06L178.803,260.783C178.803,260.775 178.805,260.765 178.809,260.754C178.813,260.742 178.817,260.732 178.821,260.724C178.825,260.717 178.829,260.707 178.833,260.695C178.837,260.683 178.842,260.67 178.85,260.654L180.315,260.302C180.659,260.217 180.936,260.039 181.147,259.769C181.358,259.5 181.463,259.181 181.463,258.814L181.463,257.22C181.463,256.853 181.36,256.535 181.153,256.265C180.946,255.996 180.667,255.818 180.315,255.732L178.85,255.381C178.842,255.357 178.835,255.336 178.827,255.316C178.819,255.297 178.811,255.275 178.803,255.252L179.612,253.974C179.799,253.67 179.876,253.351 179.84,253.019C179.805,252.687 179.655,252.388 179.389,252.123L178.194,250.927C177.944,250.677 177.649,250.533 177.309,250.494C176.969,250.455 176.651,250.525 176.354,250.705L175.03,251.49C175.022,251.49 175.012,251.488 175.001,251.484C174.989,251.48 174.977,251.476 174.965,251.472C174.954,251.469 174.944,251.465 174.936,251.461C174.928,251.457 174.917,251.455 174.901,251.455L174.585,249.955C174.514,249.611 174.342,249.336 174.069,249.129C173.796,248.922 173.475,248.818 173.108,248.818L171.397,248.818C171.03,248.818 170.712,248.922 170.442,249.129C170.172,249.336 169.999,249.611 169.921,249.955L169.592,251.455C169.569,251.463 169.547,251.469 169.528,251.472C169.508,251.476 169.487,251.482 169.463,251.49L168.151,250.705C167.854,250.525 167.536,250.455 167.196,250.494C166.856,250.533 166.561,250.677 166.311,250.927L165.116,252.123C164.85,252.388 164.702,252.689 164.671,253.025C164.639,253.361 164.713,253.677 164.893,253.974L165.702,255.252C165.702,255.267 165.698,255.279 165.69,255.287C165.682,255.295 165.676,255.304 165.672,255.316C165.669,255.328 165.667,255.34 165.667,255.351C165.667,255.363 165.663,255.373 165.655,255.381L164.178,255.732C163.835,255.818 163.559,255.996 163.352,256.265C163.145,256.535 163.042,256.853 163.042,257.22L163.042,258.814C163.042,259.181 163.145,259.5 163.352,259.769C163.559,260.039 163.835,260.217 164.178,260.302L165.655,260.654C165.663,260.677 165.671,260.699 165.678,260.719C165.686,260.738 165.694,260.76 165.702,260.783L164.893,262.06C164.706,262.357 164.63,262.674 164.665,263.01C164.7,263.345 164.85,263.646 165.116,263.912L166.311,265.119C166.561,265.369 166.854,265.513 167.19,265.552C167.526,265.592 167.842,265.521 168.139,265.342L169.475,264.545C169.491,264.552 169.51,264.56 169.534,264.568C169.557,264.576 169.577,264.584 169.592,264.592L169.921,266.08C169.999,266.431 170.172,266.711 170.442,266.918C170.712,267.125 171.03,267.228 171.397,267.228ZM171.62,265.588C171.557,265.588 171.51,265.572 171.479,265.541C171.448,265.51 171.424,265.467 171.409,265.412L170.905,263.314C170.624,263.252 170.356,263.164 170.102,263.051C169.848,262.937 169.62,262.822 169.417,262.705L167.588,263.818C167.534,263.849 167.483,263.863 167.436,263.859C167.389,263.855 167.346,263.834 167.307,263.795L166.417,262.916C166.37,262.877 166.346,262.836 166.346,262.793C166.346,262.75 166.362,262.701 166.393,262.646L167.495,260.83C167.424,260.65 167.327,260.433 167.202,260.179C167.077,259.926 166.979,259.646 166.909,259.342L164.846,258.849C164.784,258.834 164.739,258.81 164.712,258.779C164.684,258.748 164.671,258.701 164.671,258.638L164.671,257.396C164.671,257.342 164.684,257.297 164.712,257.261C164.739,257.226 164.784,257.205 164.846,257.197L166.909,256.705C166.979,256.392 167.077,256.109 167.202,255.855C167.327,255.601 167.424,255.385 167.495,255.205L166.393,253.388C166.362,253.334 166.346,253.287 166.346,253.248C166.346,253.209 166.37,253.166 166.417,253.119L167.307,252.252C167.346,252.205 167.389,252.179 167.436,252.176C167.483,252.172 167.534,252.185 167.588,252.217L169.417,253.33C169.62,253.22 169.848,253.109 170.102,252.996C170.356,252.883 170.624,252.791 170.905,252.72L171.409,250.635C171.424,250.572 171.448,250.527 171.479,250.5C171.51,250.472 171.557,250.459 171.62,250.459L172.885,250.459C172.948,250.459 172.995,250.472 173.026,250.5C173.057,250.527 173.081,250.572 173.096,250.635L173.6,252.72C173.881,252.791 174.149,252.883 174.403,252.996C174.657,253.109 174.885,253.22 175.088,253.33L176.917,252.217C176.971,252.185 177.02,252.172 177.063,252.176C177.106,252.179 177.151,252.205 177.198,252.252L178.088,253.119C178.135,253.166 178.159,253.209 178.159,253.248C178.159,253.287 178.143,253.334 178.112,253.388L177.01,255.205C177.081,255.385 177.178,255.601 177.303,255.855C177.428,256.109 177.526,256.392 177.596,256.705L179.659,257.197C179.721,257.205 179.766,257.226 179.794,257.261C179.821,257.297 179.835,257.342 179.835,257.396L179.835,258.638C179.835,258.701 179.821,258.748 179.794,258.779C179.766,258.81 179.721,258.834 179.659,258.849L177.596,259.342C177.526,259.646 177.428,259.926 177.303,260.179C177.178,260.433 177.081,260.65 177.01,260.83L178.112,262.646C178.143,262.701 178.159,262.75 178.159,262.793C178.159,262.836 178.135,262.877 178.088,262.916L177.198,263.795C177.151,263.834 177.106,263.855 177.063,263.859C177.02,263.863 176.971,263.849 176.917,263.818L175.088,262.705C174.885,262.822 174.657,262.937 174.403,263.051C174.149,263.164 173.881,263.252 173.6,263.314L173.096,265.412C173.081,265.467 173.057,265.51 173.026,265.541C172.995,265.572 172.948,265.588 172.885,265.588L171.62,265.588ZM172.253,261.58C172.901,261.58 173.493,261.418 174.028,261.094C174.563,260.769 174.989,260.34 175.305,259.804C175.622,259.269 175.78,258.674 175.78,258.017C175.78,257.369 175.622,256.779 175.305,256.248C174.989,255.717 174.563,255.291 174.028,254.97C173.493,254.65 172.901,254.49 172.253,254.49C171.596,254.49 171.001,254.65 170.465,254.97C169.93,255.291 169.503,255.717 169.182,256.248C168.862,256.779 168.702,257.369 168.702,258.017C168.702,258.666 168.862,259.26 169.182,259.799C169.503,260.338 169.93,260.769 170.465,261.094C171.001,261.418 171.596,261.58 172.253,261.58ZM172.253,259.845C171.924,259.845 171.622,259.763 171.344,259.599C171.067,259.435 170.844,259.217 170.676,258.943C170.508,258.67 170.424,258.361 170.424,258.017C170.424,257.689 170.508,257.388 170.676,257.115C170.844,256.842 171.067,256.623 171.344,256.459C171.622,256.295 171.924,256.213 172.253,256.213C172.581,256.213 172.881,256.295 173.155,256.459C173.428,256.623 173.645,256.842 173.805,257.115C173.965,257.388 174.046,257.689 174.046,258.017C174.046,258.353 173.965,258.66 173.805,258.937C173.645,259.215 173.428,259.435 173.155,259.599C172.881,259.763 172.581,259.845 172.253,259.845ZM186.772,274.295L188.12,274.295C188.448,274.295 188.739,274.205 188.993,274.025C189.247,273.845 189.401,273.603 189.456,273.299L189.678,272.115C189.702,272.115 189.723,272.111 189.743,272.103C189.762,272.095 189.784,272.088 189.807,272.08L190.803,272.701C191.077,272.873 191.366,272.939 191.671,272.9C191.975,272.861 192.245,272.72 192.479,272.478L193.428,271.529C193.663,271.287 193.799,271.013 193.838,270.709C193.878,270.404 193.807,270.115 193.628,269.842L192.995,268.881C192.995,268.873 192.997,268.863 193.001,268.851C193.005,268.84 193.008,268.83 193.012,268.822C193.016,268.814 193.02,268.804 193.024,268.793C193.028,268.781 193.034,268.771 193.042,268.763L194.202,268.517C194.499,268.455 194.739,268.301 194.922,268.054C195.106,267.808 195.198,267.517 195.198,267.181L195.198,265.869C195.198,265.541 195.106,265.252 194.922,265.002C194.739,264.752 194.499,264.595 194.202,264.533L193.042,264.299C193.034,264.275 193.026,264.254 193.018,264.234C193.01,264.215 193.003,264.193 192.995,264.17L193.628,263.209C193.807,262.935 193.878,262.646 193.838,262.342C193.799,262.037 193.663,261.767 193.428,261.533L192.479,260.572C192.245,260.33 191.975,260.191 191.671,260.156C191.366,260.121 191.077,260.185 190.803,260.349L189.807,260.97C189.799,260.97 189.79,260.969 189.778,260.965C189.766,260.961 189.756,260.957 189.749,260.953C189.741,260.949 189.731,260.945 189.719,260.941C189.708,260.937 189.694,260.935 189.678,260.935L189.456,259.763C189.401,259.451 189.247,259.205 188.993,259.025C188.739,258.845 188.448,258.756 188.12,258.756L186.772,258.756C186.436,258.756 186.141,258.845 185.887,259.025C185.633,259.205 185.479,259.451 185.424,259.763L185.202,260.935C185.178,260.943 185.157,260.949 185.137,260.953C185.118,260.957 185.096,260.963 185.073,260.97L184.077,260.349C183.803,260.185 183.516,260.121 183.215,260.156C182.915,260.191 182.647,260.33 182.413,260.572L181.463,261.533C181.229,261.767 181.09,262.037 181.047,262.342C181.005,262.646 181.073,262.935 181.253,263.209L181.885,264.17C181.885,264.177 181.883,264.187 181.88,264.199C181.876,264.211 181.872,264.22 181.868,264.228C181.864,264.236 181.86,264.246 181.856,264.258C181.852,264.269 181.85,264.283 181.85,264.299L180.69,264.533C180.385,264.595 180.141,264.752 179.958,265.002C179.774,265.252 179.682,265.541 179.682,265.869L179.682,267.181C179.682,267.517 179.774,267.808 179.958,268.054C180.141,268.301 180.385,268.455 180.69,268.517L181.85,268.763C181.858,268.787 181.864,268.806 181.868,268.822C181.872,268.838 181.878,268.857 181.885,268.881L181.253,269.842C181.073,270.115 181.005,270.404 181.047,270.709C181.09,271.013 181.229,271.287 181.463,271.529L182.413,272.478C182.647,272.72 182.915,272.861 183.215,272.9C183.516,272.939 183.803,272.873 184.077,272.701L185.073,272.08C185.081,272.08 185.09,272.082 185.102,272.086C185.114,272.09 185.126,272.094 185.137,272.097C185.149,272.101 185.159,272.105 185.167,272.109C185.174,272.113 185.186,272.115 185.202,272.115L185.424,273.299C185.479,273.603 185.633,273.845 185.887,274.025C186.141,274.205 186.436,274.295 186.772,274.295ZM187.077,272.736C187.006,272.736 186.954,272.72 186.919,272.689C186.883,272.658 186.854,272.611 186.831,272.549L186.421,270.861C185.952,270.76 185.506,270.572 185.085,270.299L183.608,271.224C183.561,271.256 183.51,271.267 183.456,271.26C183.401,271.252 183.35,271.228 183.303,271.189L182.776,270.638C182.721,270.584 182.692,270.533 182.688,270.486C182.684,270.439 182.698,270.388 182.729,270.334L183.62,268.892C183.573,268.752 183.489,268.562 183.368,268.324C183.247,268.086 183.155,267.822 183.092,267.533L181.417,267.146C181.362,267.138 181.317,267.113 181.282,267.07C181.247,267.027 181.229,266.974 181.229,266.912L181.229,266.138C181.229,266.084 181.247,266.035 181.282,265.992C181.317,265.949 181.362,265.92 181.417,265.904L183.092,265.517C183.155,265.228 183.247,264.967 183.368,264.732C183.489,264.498 183.573,264.306 183.62,264.158L182.729,262.717C182.698,262.67 182.684,262.621 182.688,262.57C182.692,262.519 182.721,262.467 182.776,262.412L183.303,261.873C183.35,261.826 183.401,261.801 183.456,261.797C183.51,261.793 183.561,261.806 183.608,261.838L185.085,262.752C185.506,262.486 185.952,262.299 186.421,262.189L186.831,260.502C186.854,260.447 186.883,260.402 186.919,260.367C186.954,260.332 187.006,260.314 187.077,260.314L187.803,260.314C187.874,260.314 187.928,260.332 187.967,260.367C188.006,260.402 188.034,260.447 188.049,260.502L188.46,262.189C188.936,262.299 189.381,262.486 189.796,262.752L191.272,261.838C191.327,261.806 191.38,261.793 191.43,261.797C191.481,261.801 191.53,261.826 191.577,261.873L192.116,262.412C192.163,262.467 192.19,262.519 192.198,262.57C192.206,262.621 192.194,262.67 192.163,262.717L191.26,264.158C191.315,264.306 191.403,264.498 191.524,264.732C191.645,264.967 191.733,265.228 191.788,265.517L193.463,265.904C193.526,265.92 193.573,265.949 193.604,265.992C193.635,266.035 193.651,266.084 193.651,266.138L193.651,266.912C193.651,266.974 193.635,267.027 193.604,267.07C193.573,267.113 193.526,267.138 193.463,267.146L191.788,267.533C191.733,267.822 191.645,268.086 191.524,268.324C191.403,268.562 191.315,268.752 191.26,268.892L192.163,270.334C192.194,270.388 192.206,270.439 192.198,270.486C192.19,270.533 192.163,270.584 192.116,270.638L191.577,271.189C191.53,271.228 191.481,271.252 191.43,271.26C191.38,271.267 191.327,271.256 191.272,271.224L189.796,270.299C189.381,270.572 188.936,270.76 188.46,270.861L188.049,272.549C188.034,272.611 188.006,272.658 187.967,272.689C187.928,272.72 187.874,272.736 187.803,272.736L187.077,272.736ZM187.44,269.279C187.94,269.279 188.397,269.154 188.811,268.904C189.225,268.654 189.557,268.322 189.807,267.908C190.057,267.494 190.182,267.033 190.182,266.525C190.182,266.025 190.057,265.568 189.807,265.154C189.557,264.74 189.225,264.41 188.811,264.164C188.397,263.918 187.94,263.795 187.44,263.795C186.932,263.795 186.469,263.918 186.051,264.164C185.633,264.41 185.301,264.74 185.055,265.154C184.809,265.568 184.686,266.025 184.686,266.525C184.686,267.025 184.809,267.484 185.055,267.902C185.301,268.32 185.633,268.654 186.051,268.904C186.469,269.154 186.932,269.279 187.44,269.279ZM187.44,267.802C187.088,267.802 186.79,267.677 186.544,267.427C186.297,267.177 186.174,266.877 186.174,266.525C186.174,266.181 186.297,265.888 186.544,265.646C186.79,265.404 187.088,265.283 187.44,265.283C187.776,265.283 188.067,265.404 188.313,265.646C188.559,265.888 188.682,266.181 188.682,266.525C188.682,266.869 188.559,267.168 188.313,267.422C188.067,267.676 187.776,267.802 187.44,267.802Z" style="fill-rule:nonzero;"/>
        <path d="M218.395,261.983L219.988,261.983C220.231,261.983 220.432,261.916 220.592,261.784C220.752,261.651 220.859,261.475 220.914,261.256L221.383,259.323C221.547,259.26 221.707,259.198 221.863,259.135C222.02,259.073 222.168,259.002 222.309,258.924L224.008,259.979C224.203,260.096 224.406,260.145 224.617,260.125C224.828,260.106 225.016,260.014 225.18,259.85L226.305,258.713C226.461,258.549 226.553,258.36 226.58,258.145C226.607,257.93 226.559,257.721 226.434,257.518L225.391,255.854C225.461,255.706 225.529,255.555 225.596,255.403C225.662,255.25 225.719,255.096 225.766,254.94L227.699,254.471C227.934,254.416 228.115,254.311 228.244,254.155C228.373,253.999 228.438,253.799 228.438,253.557L228.438,251.975C228.438,251.741 228.373,251.543 228.244,251.383C228.115,251.223 227.934,251.116 227.699,251.061L225.789,250.581C225.727,250.409 225.664,250.247 225.602,250.094C225.539,249.942 225.477,249.799 225.414,249.666L226.434,247.967C226.551,247.756 226.606,247.549 226.598,247.346C226.59,247.143 226.5,246.959 226.328,246.795L225.18,245.67C225.016,245.514 224.832,245.42 224.629,245.389C224.426,245.358 224.227,245.401 224.031,245.518L222.309,246.584C222.176,246.506 222.031,246.436 221.875,246.374C221.719,246.311 221.555,246.252 221.383,246.198L220.914,244.229C220.859,244.01 220.752,243.834 220.592,243.702C220.432,243.569 220.231,243.502 219.988,243.502L218.395,243.502C218.152,243.502 217.951,243.569 217.791,243.702C217.631,243.834 217.523,244.01 217.469,244.229L217,246.174C216.836,246.237 216.674,246.299 216.514,246.362C216.354,246.424 216.203,246.495 216.063,246.573L214.352,245.518C214.156,245.401 213.957,245.358 213.754,245.389C213.551,245.42 213.367,245.514 213.203,245.67L212.055,246.795C211.883,246.959 211.793,247.143 211.785,247.346C211.777,247.549 211.832,247.756 211.949,247.967L212.969,249.666C212.906,249.799 212.844,249.942 212.781,250.094C212.719,250.247 212.656,250.409 212.594,250.581L210.672,251.061C210.445,251.116 210.268,251.223 210.139,251.383C210.01,251.543 209.945,251.741 209.945,251.975L209.945,253.557C209.945,253.799 210.01,253.999 210.139,254.155C210.268,254.311 210.445,254.416 210.672,254.471L212.617,254.94C212.664,255.096 212.721,255.25 212.787,255.403C212.854,255.555 212.922,255.706 212.992,255.854L211.949,257.518C211.824,257.721 211.775,257.93 211.803,258.145C211.83,258.36 211.922,258.549 212.078,258.713L213.203,259.85C213.367,260.014 213.555,260.106 213.766,260.125C213.977,260.145 214.18,260.096 214.375,259.979L216.074,258.924C216.215,259.002 216.363,259.073 216.52,259.135C216.676,259.198 216.836,259.26 217,259.323L217.469,261.256C217.523,261.475 217.631,261.651 217.791,261.784C217.951,261.916 218.152,261.983 218.395,261.983ZM219.191,255.69C218.652,255.69 218.158,255.557 217.709,255.291C217.26,255.026 216.902,254.668 216.637,254.219C216.371,253.77 216.238,253.272 216.238,252.725C216.238,252.194 216.371,251.706 216.637,251.26C216.902,250.815 217.26,250.459 217.709,250.194C218.158,249.928 218.652,249.795 219.191,249.795C219.731,249.795 220.223,249.928 220.668,250.194C221.113,250.459 221.471,250.815 221.74,251.26C222.01,251.706 222.145,252.194 222.145,252.725C222.145,253.272 222.01,253.77 221.74,254.219C221.471,254.668 221.113,255.026 220.668,255.291C220.223,255.557 219.731,255.69 219.191,255.69ZM233.688,269.19L235.023,269.19C235.234,269.19 235.41,269.133 235.551,269.02C235.691,268.907 235.785,268.756 235.832,268.569L236.219,266.893C236.367,266.838 236.51,266.784 236.647,266.729C236.783,266.674 236.914,266.612 237.039,266.541L238.504,267.456C238.668,267.557 238.84,267.6 239.02,267.584C239.199,267.569 239.363,267.491 239.512,267.35L240.449,266.401C240.59,266.252 240.672,266.084 240.695,265.897C240.719,265.709 240.676,265.534 240.566,265.37L239.664,263.916C239.727,263.791 239.785,263.663 239.84,263.53C239.895,263.397 239.945,263.264 239.992,263.131L241.68,262.733C241.875,262.694 242.025,262.604 242.131,262.463C242.236,262.323 242.289,262.147 242.289,261.936L242.289,260.612C242.289,260.166 242.086,259.897 241.68,259.803L240.004,259.405C239.949,259.249 239.897,259.104 239.846,258.971C239.795,258.838 239.738,258.717 239.676,258.608L240.566,257.131C240.676,256.959 240.725,256.786 240.713,256.61C240.701,256.434 240.621,256.272 240.473,256.124L239.512,255.186C239.363,255.045 239.201,254.961 239.025,254.934C238.85,254.907 238.68,254.944 238.516,255.045L237.039,255.971C236.922,255.916 236.793,255.858 236.652,255.795C236.512,255.733 236.367,255.682 236.219,255.643L235.832,253.932C235.785,253.745 235.691,253.592 235.551,253.475C235.41,253.358 235.234,253.299 235.023,253.299L233.688,253.299C233.477,253.299 233.301,253.358 233.16,253.475C233.02,253.592 232.926,253.745 232.879,253.932L232.481,255.62C232.34,255.674 232.199,255.727 232.059,255.778C231.918,255.829 231.785,255.889 231.66,255.959L230.184,255.045C230.027,254.952 229.859,254.916 229.68,254.94C229.5,254.963 229.34,255.045 229.199,255.186L228.25,256.124C228.094,256.272 228.01,256.434 227.998,256.61C227.986,256.786 228.035,256.959 228.145,257.131L229.023,258.608C228.969,258.717 228.916,258.838 228.865,258.971C228.815,259.104 228.762,259.249 228.707,259.405L227.043,259.803C226.848,259.85 226.693,259.944 226.58,260.084C226.467,260.225 226.41,260.401 226.41,260.612L226.41,261.936C226.41,262.147 226.467,262.323 226.58,262.463C226.693,262.604 226.848,262.694 227.043,262.733L228.731,263.131C228.77,263.264 228.816,263.397 228.871,263.53C228.926,263.663 228.984,263.791 229.047,263.916L228.145,265.37C228.027,265.534 227.982,265.709 228.01,265.897C228.037,266.084 228.121,266.252 228.262,266.401L229.199,267.35C229.34,267.491 229.502,267.569 229.686,267.584C229.869,267.6 230.043,267.557 230.207,267.456L231.672,266.541C231.797,266.612 231.928,266.674 232.065,266.729C232.201,266.784 232.34,266.838 232.481,266.893L232.879,268.569C232.926,268.756 233.02,268.907 233.16,269.02C233.301,269.133 233.477,269.19 233.688,269.19ZM234.356,263.588C233.715,263.588 233.164,263.36 232.703,262.903C232.242,262.446 232.012,261.889 232.012,261.233C232.012,260.592 232.242,260.043 232.703,259.586C233.164,259.129 233.715,258.901 234.356,258.901C235.004,258.901 235.557,259.129 236.014,259.586C236.471,260.043 236.699,260.592 236.699,261.233C236.699,261.889 236.471,262.446 236.014,262.903C235.557,263.36 235.004,263.588 234.356,263.588Z" style="fill-rule:nonzero;"/>
        <path d="M75.058,326.557L85.792,326.557C86.667,326.557 87.323,326.333 87.761,325.883C88.198,325.434 88.417,324.729 88.417,323.768L88.417,315.694C88.417,314.749 88.198,314.051 87.761,313.602C87.323,313.153 86.667,312.928 85.792,312.928L75.058,312.928C74.183,312.928 73.527,313.153 73.089,313.602C72.652,314.051 72.433,314.749 72.433,315.694L72.433,323.768C72.433,324.729 72.652,325.434 73.089,325.883C73.527,326.333 74.183,326.557 75.058,326.557ZM75.128,324.799C74.855,324.799 74.652,324.731 74.519,324.594C74.386,324.458 74.32,324.225 74.32,323.897L74.32,315.577C74.32,315.249 74.386,315.018 74.519,314.885C74.652,314.753 74.855,314.686 75.128,314.686L85.734,314.686C86.007,314.686 86.208,314.753 86.337,314.885C86.466,315.018 86.531,315.249 86.531,315.577L86.531,323.897C86.531,324.225 86.466,324.458 86.337,324.594C86.208,324.731 86.007,324.799 85.734,324.799L75.128,324.799ZM74.46,313.854L76.347,313.854L76.347,309.881C76.347,308.897 76.534,308.071 76.909,307.403C77.284,306.735 77.782,306.231 78.403,305.891C79.025,305.551 79.698,305.381 80.425,305.381C81.159,305.381 81.835,305.551 82.452,305.891C83.07,306.231 83.566,306.735 83.941,307.403C84.316,308.071 84.503,308.897 84.503,309.881L84.503,313.854L86.39,313.854L86.39,310.128C86.39,309.026 86.226,308.065 85.898,307.245C85.57,306.424 85.124,305.743 84.562,305.2C83.999,304.657 83.361,304.251 82.646,303.981C81.931,303.712 81.191,303.577 80.425,303.577C79.659,303.577 78.921,303.712 78.21,303.981C77.499,304.251 76.863,304.657 76.3,305.2C75.738,305.743 75.29,306.424 74.958,307.245C74.626,308.065 74.46,309.026 74.46,310.128L74.46,313.854Z" style="fill-rule:nonzero;"/>
        <path d="M120.8,323.307L131.956,323.307C132.714,323.307 133.279,323.114 133.65,322.727C134.021,322.34 134.206,321.737 134.206,320.916L134.206,312.315C134.206,311.502 134.021,310.903 133.65,310.516C133.279,310.129 132.714,309.936 131.956,309.936L121.034,309.959C120.284,309.959 119.683,310.151 119.23,310.533C118.777,310.916 118.55,311.51 118.55,312.315L118.55,320.916C118.55,321.737 118.737,322.34 119.112,322.727C119.487,323.114 120.05,323.307 120.8,323.307ZM120.413,310.721L122.3,310.721L122.3,306.748C122.3,305.764 122.487,304.938 122.862,304.27C123.237,303.602 123.736,303.098 124.357,302.758C124.978,302.418 125.652,302.248 126.378,302.248C127.112,302.248 127.788,302.418 128.405,302.758C129.023,303.098 129.519,303.602 129.894,304.27C130.269,304.938 130.456,305.764 130.456,306.748L130.456,310.721L132.343,310.721L132.343,306.994C132.343,305.893 132.179,304.932 131.851,304.112C131.523,303.291 131.077,302.61 130.515,302.067C129.952,301.524 129.314,301.117 128.599,300.848C127.884,300.578 127.144,300.444 126.378,300.444C125.612,300.444 124.874,300.578 124.163,300.848C123.452,301.117 122.816,301.524 122.253,302.067C121.691,302.61 121.243,303.291 120.911,304.112C120.579,304.932 120.413,305.893 120.413,306.994L120.413,310.721Z" style="fill-rule:nonzero;"/>
        <path d="M225.073,326.251C226.706,326.251 228.243,325.939 229.684,325.314C231.126,324.689 232.397,323.825 233.499,322.724C234.6,321.622 235.463,320.351 236.088,318.909C236.713,317.468 237.026,315.931 237.026,314.298C237.026,312.665 236.713,311.128 236.088,309.687C235.463,308.245 234.6,306.974 233.499,305.872C232.397,304.771 231.124,303.907 229.678,303.282C228.233,302.657 226.694,302.345 225.061,302.345C223.428,302.345 221.891,302.657 220.45,303.282C219.008,303.907 217.739,304.771 216.641,305.872C215.544,306.974 214.682,308.245 214.057,309.687C213.432,311.128 213.12,312.665 213.12,314.298C213.12,315.931 213.432,317.468 214.057,318.909C214.682,320.351 215.546,321.622 216.647,322.724C217.749,323.825 219.02,324.689 220.462,325.314C221.903,325.939 223.44,326.251 225.073,326.251ZM225.073,324.259C223.69,324.259 222.397,324.001 221.194,323.486C219.991,322.97 218.934,322.257 218.024,321.347C217.114,320.437 216.403,319.38 215.891,318.177C215.379,316.974 215.124,315.681 215.124,314.298C215.124,312.915 215.379,311.622 215.891,310.419C216.403,309.216 217.112,308.157 218.018,307.243C218.924,306.329 219.979,305.616 221.182,305.105C222.385,304.593 223.678,304.337 225.061,304.337C226.444,304.337 227.737,304.593 228.94,305.105C230.143,305.616 231.202,306.329 232.116,307.243C233.03,308.157 233.745,309.216 234.26,310.419C234.776,311.622 235.034,312.915 235.034,314.298C235.034,315.681 234.778,316.974 234.266,318.177C233.754,319.38 233.044,320.437 232.133,321.347C231.223,322.257 230.165,322.97 228.958,323.486C227.751,324.001 226.456,324.259 225.073,324.259ZM220.831,318.775C220.831,319.634 221.229,320.064 222.026,320.064L228.096,320.064C228.901,320.064 229.303,319.634 229.303,318.775L229.303,314.111C229.303,313.306 228.956,312.88 228.26,312.833L228.26,311.45C228.26,310.372 227.965,309.503 227.376,308.843C226.786,308.183 226.014,307.853 225.061,307.853C224.108,307.853 223.337,308.183 222.747,308.843C222.157,309.503 221.862,310.372 221.862,311.45L221.862,312.833C221.174,312.88 220.831,313.306 220.831,314.111L220.831,318.775ZM223.081,312.821L223.081,311.321C223.081,310.634 223.262,310.081 223.626,309.663C223.989,309.245 224.467,309.036 225.061,309.036C225.655,309.036 226.133,309.245 226.497,309.663C226.86,310.081 227.042,310.634 227.042,311.321L227.042,312.821L223.081,312.821Z" style="fill-rule:nonzero;"/>
        <path d="M177.031,326.263C178.664,326.263 180.201,325.95 181.642,325.325C183.084,324.7 184.355,323.837 185.457,322.736C186.558,321.634 187.422,320.362 188.047,318.921C188.672,317.48 188.984,315.943 188.984,314.31C188.984,312.677 188.672,311.14 188.047,309.698C187.422,308.257 186.558,306.986 185.457,305.884C184.355,304.782 183.082,303.919 181.636,303.294C180.191,302.669 178.652,302.357 177.019,302.357C175.386,302.357 173.849,302.669 172.408,303.294C170.967,303.919 169.697,304.782 168.599,305.884C167.502,306.986 166.64,308.257 166.015,309.698C165.39,311.14 165.078,312.677 165.078,314.31C165.078,315.943 165.39,317.48 166.015,318.921C166.64,320.362 167.504,321.634 168.605,322.736C169.707,323.837 170.978,324.7 172.42,325.325C173.861,325.95 175.398,326.263 177.031,326.263ZM172.66,318.927L172.66,314.122C172.66,313.286 173.011,312.845 173.715,312.798L173.715,311.38C173.715,310.263 174.019,309.364 174.629,308.685C175.238,308.005 176.035,307.665 177.019,307.665C178.004,307.665 178.801,308.005 179.41,308.685C180.019,309.364 180.324,310.263 180.324,311.38L180.324,312.798C181.035,312.845 181.39,313.286 181.39,314.122L181.39,318.927C181.39,319.81 180.976,320.251 180.148,320.251L173.89,320.251C173.07,320.251 172.66,319.81 172.66,318.927ZM174.98,312.786L179.058,312.786L179.058,311.239C179.058,310.536 178.873,309.968 178.502,309.534C178.131,309.101 177.636,308.884 177.019,308.884C176.41,308.884 175.918,309.101 175.543,309.534C175.168,309.968 174.98,310.536 174.98,311.239L174.98,312.786Z" style="fill-rule:nonzero;"/>
        <path d="M68.598,373.489C68.785,373.278 68.858,373.043 68.815,372.786C68.772,372.528 68.645,372.278 68.434,372.036C67.645,371.161 67.039,370.163 66.617,369.041C66.195,367.92 65.985,366.731 65.985,365.473C65.985,364.207 66.195,363.016 66.617,361.899C67.039,360.782 67.645,359.786 68.434,358.911C68.645,358.668 68.772,358.418 68.815,358.161C68.858,357.903 68.785,357.668 68.598,357.457C68.41,357.239 68.174,357.131 67.889,357.135C67.604,357.139 67.348,357.266 67.121,357.516C66.473,358.219 65.922,358.995 65.469,359.842C65.016,360.69 64.67,361.586 64.432,362.532C64.194,363.477 64.074,364.457 64.074,365.473C64.074,366.989 64.338,368.428 64.865,369.791C65.393,371.155 66.145,372.368 67.121,373.43C67.348,373.672 67.604,373.797 67.889,373.805C68.174,373.813 68.41,373.707 68.598,373.489ZM71.879,370.149C72.067,369.938 72.135,369.706 72.084,369.452C72.033,369.198 71.914,368.946 71.727,368.696C71.375,368.258 71.113,367.764 70.942,367.213C70.77,366.663 70.684,366.082 70.684,365.473C70.684,364.864 70.77,364.284 70.942,363.733C71.113,363.182 71.375,362.688 71.727,362.25C71.914,361.993 72.033,361.739 72.084,361.489C72.135,361.239 72.067,361.008 71.879,360.797C71.684,360.579 71.436,360.471 71.135,360.475C70.834,360.479 70.582,360.614 70.379,360.879C69.871,361.512 69.477,362.221 69.195,363.006C68.914,363.791 68.774,364.614 68.774,365.473C68.774,366.332 68.914,367.155 69.195,367.94C69.477,368.725 69.871,369.434 70.379,370.067C70.582,370.332 70.834,370.467 71.135,370.471C71.436,370.475 71.684,370.368 71.879,370.149ZM96.43,373.489C96.617,373.707 96.856,373.813 97.145,373.805C97.434,373.797 97.692,373.672 97.918,373.43C98.887,372.368 99.635,371.155 100.162,369.791C100.69,368.428 100.953,366.989 100.953,365.473C100.953,364.457 100.836,363.477 100.602,362.532C100.367,361.586 100.024,360.69 99.57,359.842C99.117,358.995 98.567,358.219 97.918,357.516C97.692,357.266 97.434,357.139 97.145,357.135C96.856,357.131 96.617,357.239 96.43,357.457C96.242,357.668 96.17,357.903 96.213,358.161C96.256,358.418 96.383,358.668 96.594,358.911C97.383,359.786 97.988,360.782 98.41,361.899C98.832,363.016 99.043,364.207 99.043,365.473C99.043,366.731 98.832,367.92 98.41,369.041C97.988,370.163 97.383,371.161 96.594,372.036C96.383,372.278 96.256,372.528 96.213,372.786C96.17,373.043 96.242,373.278 96.43,373.489ZM93.149,370.149C93.344,370.368 93.592,370.475 93.893,370.471C94.194,370.467 94.445,370.332 94.649,370.067C95.164,369.434 95.563,368.725 95.844,367.94C96.125,367.155 96.266,366.332 96.266,365.473C96.266,364.614 96.125,363.791 95.844,363.006C95.563,362.221 95.164,361.512 94.649,360.879C94.445,360.614 94.194,360.479 93.893,360.475C93.592,360.471 93.344,360.579 93.149,360.797C92.961,361.008 92.893,361.239 92.944,361.489C92.994,361.739 93.113,361.993 93.301,362.25C93.653,362.688 93.916,363.182 94.092,363.733C94.268,364.284 94.356,364.864 94.356,365.473C94.356,366.082 94.268,366.663 94.092,367.213C93.916,367.764 93.653,368.258 93.301,368.696C93.113,368.946 92.994,369.198 92.944,369.452C92.893,369.706 92.961,369.938 93.149,370.149ZM78.184,377.872L86.867,377.872C87.828,377.872 88.6,377.592 89.182,377.034C89.764,376.475 90.055,375.739 90.055,374.825L90.055,356.11C90.055,355.196 89.764,354.459 89.182,353.901C88.6,353.342 87.828,353.063 86.867,353.063L78.184,353.063C77.231,353.063 76.461,353.342 75.875,353.901C75.289,354.459 74.996,355.196 74.996,356.11L74.996,374.825C74.996,375.739 75.289,376.475 75.875,377.034C76.461,377.592 77.231,377.872 78.184,377.872ZM78.43,375.985C77.93,375.985 77.547,375.858 77.281,375.604C77.016,375.35 76.883,374.989 76.883,374.52L76.883,356.414C76.883,355.946 77.016,355.584 77.281,355.331C77.547,355.077 77.93,354.95 78.43,354.95L86.633,354.95C87.125,354.95 87.504,355.077 87.77,355.331C88.035,355.584 88.168,355.946 88.168,356.414L88.168,374.52C88.168,374.989 88.035,375.35 87.77,375.604C87.504,375.858 87.125,375.985 86.633,375.985L78.43,375.985ZM79.449,375.129L85.625,375.129C85.781,375.129 85.91,375.079 86.012,374.977C86.113,374.875 86.164,374.743 86.164,374.579C86.164,374.414 86.113,374.284 86.012,374.186C85.91,374.088 85.781,374.039 85.625,374.039L79.449,374.039C79.293,374.039 79.162,374.088 79.057,374.186C78.951,374.284 78.899,374.414 78.899,374.579C78.899,374.743 78.951,374.875 79.057,374.977C79.162,375.079 79.293,375.129 79.449,375.129ZM79.707,356.309L85.367,356.309C85.61,356.309 85.803,356.233 85.947,356.081C86.092,355.928 86.164,355.731 86.164,355.489L86.164,354.95L78.899,354.95L78.899,355.489C78.899,355.731 78.973,355.928 79.121,356.081C79.27,356.233 79.465,356.309 79.707,356.309Z" style="fill-rule:nonzero;"/>
        <path d="M82.368,403.838L83.118,402.256C82.485,401.982 81.804,401.771 81.073,401.623C80.343,401.474 79.607,401.4 78.864,401.4C77.427,401.4 76.081,401.668 74.827,402.203C73.573,402.738 72.474,403.478 71.528,404.424C70.583,405.369 69.843,406.468 69.308,407.722C68.772,408.976 68.505,410.318 68.505,411.748C68.505,413.193 68.772,414.543 69.308,415.797C69.843,417.05 70.583,418.152 71.528,419.101C72.474,420.05 73.573,420.791 74.827,421.322C76.081,421.853 77.427,422.119 78.864,422.119C80.294,422.119 81.636,421.853 82.89,421.322C84.144,420.791 85.245,420.05 86.194,419.101C87.144,418.152 87.884,417.05 88.415,415.797C88.946,414.543 89.212,413.193 89.212,411.748C89.212,411.467 89.122,411.234 88.942,411.05C88.763,410.867 88.528,410.775 88.239,410.775C87.958,410.775 87.735,410.867 87.571,411.05C87.407,411.234 87.325,411.467 87.325,411.748C87.325,412.927 87.107,414.031 86.669,415.058C86.232,416.086 85.626,416.988 84.853,417.765C84.079,418.543 83.181,419.148 82.157,419.582C81.134,420.015 80.036,420.232 78.864,420.232C77.685,420.232 76.583,420.015 75.56,419.582C74.536,419.148 73.638,418.543 72.864,417.765C72.091,416.988 71.485,416.086 71.048,415.058C70.61,414.031 70.392,412.927 70.392,411.748C70.392,410.576 70.61,409.478 71.048,408.455C71.485,407.431 72.091,406.533 72.864,405.759C73.638,404.986 74.536,404.381 75.56,403.943C76.583,403.506 77.685,403.287 78.864,403.287C79.56,403.287 80.2,403.332 80.786,403.422C81.372,403.511 81.899,403.65 82.368,403.838ZM78.431,408.595C78.72,408.595 78.946,408.506 79.11,408.326L83.939,403.474C84.04,403.373 84.114,403.263 84.161,403.146C84.208,403.029 84.232,402.904 84.232,402.771C84.232,402.506 84.134,402.271 83.939,402.068L79.11,397.17C78.939,396.982 78.712,396.888 78.431,396.888C78.165,396.888 77.944,396.98 77.769,397.164C77.593,397.347 77.505,397.576 77.505,397.849C77.505,397.967 77.526,398.084 77.569,398.201C77.612,398.318 77.677,398.424 77.763,398.517L82.064,402.748L77.774,406.99C77.689,407.084 77.622,407.187 77.575,407.3C77.528,407.414 77.505,407.533 77.505,407.658C77.505,407.924 77.595,408.146 77.774,408.326C77.954,408.506 78.173,408.595 78.431,408.595Z" style="fill-rule:nonzero;"/>
        <path d="M156.143,421.813C157.776,421.813 159.313,421.5 160.755,420.875C162.196,420.25 163.467,419.387 164.569,418.285C165.671,417.184 166.534,415.912 167.159,414.471C167.784,413.03 168.096,411.492 168.096,409.86C168.096,408.227 167.784,406.69 167.159,405.248C166.534,403.807 165.671,402.535 164.569,401.434C163.467,400.332 162.194,399.469 160.749,398.844C159.303,398.219 157.764,397.906 156.131,397.906C154.499,397.906 152.962,398.219 151.52,398.844C150.079,399.469 148.809,400.332 147.712,401.434C146.614,402.535 145.753,403.807 145.128,405.248C144.503,406.69 144.19,408.227 144.19,409.86C144.19,411.492 144.503,413.03 145.128,414.471C145.753,415.912 146.616,417.184 147.717,418.285C148.819,419.387 150.09,420.25 151.532,420.875C152.973,421.5 154.51,421.813 156.143,421.813ZM156.143,419.821C154.76,419.821 153.467,419.563 152.264,419.047C151.061,418.531 150.005,417.819 149.094,416.908C148.184,415.998 147.473,414.942 146.962,413.739C146.45,412.535 146.194,411.242 146.194,409.86C146.194,408.477 146.45,407.184 146.962,405.981C147.473,404.778 148.182,403.719 149.089,402.805C149.995,401.891 151.049,401.178 152.253,400.666C153.456,400.155 154.749,399.899 156.131,399.899C157.514,399.899 158.807,400.155 160.01,400.666C161.214,401.178 162.272,401.891 163.186,402.805C164.1,403.719 164.815,404.778 165.331,405.981C165.846,407.184 166.104,408.477 166.104,409.86C166.104,411.242 165.848,412.535 165.337,413.739C164.825,414.942 164.114,415.998 163.204,416.908C162.294,417.819 161.235,418.531 160.028,419.047C158.821,419.563 157.526,419.821 156.143,419.821ZM161.358,410.399C161.358,409.438 161.124,408.571 160.655,407.797C160.186,407.024 159.571,406.408 158.809,405.951C158.047,405.494 157.229,405.266 156.354,405.266C156.299,405.266 156.243,405.268 156.184,405.272C156.126,405.276 156.073,405.281 156.026,405.289L156.858,404.446C156.921,404.375 156.971,404.293 157.01,404.199C157.049,404.106 157.069,404.008 157.069,403.906C157.069,403.703 156.997,403.528 156.852,403.379C156.708,403.231 156.534,403.156 156.331,403.156C156.221,403.156 156.12,403.178 156.026,403.221C155.932,403.264 155.854,403.321 155.792,403.391L153.542,405.688C153.401,405.828 153.329,406.008 153.325,406.227C153.321,406.446 153.393,406.625 153.542,406.766L155.815,409.039C155.956,409.188 156.128,409.262 156.331,409.262C156.534,409.262 156.708,409.19 156.852,409.045C156.997,408.901 157.069,408.727 157.069,408.524C157.069,408.313 156.995,408.133 156.846,407.985L155.698,406.86C155.807,406.844 155.952,406.836 156.131,406.836C156.796,406.836 157.401,406.996 157.948,407.317C158.495,407.637 158.93,408.071 159.255,408.617C159.579,409.164 159.741,409.77 159.741,410.434C159.741,411.106 159.579,411.717 159.255,412.268C158.93,412.819 158.495,413.256 157.948,413.58C157.401,413.905 156.796,414.067 156.131,414.067C155.46,414.067 154.85,413.905 154.303,413.58C153.756,413.256 153.323,412.819 153.003,412.268C152.682,411.717 152.522,411.106 152.522,410.434C152.522,410.223 152.442,410.039 152.282,409.883C152.122,409.727 151.932,409.649 151.714,409.649C151.495,409.649 151.305,409.727 151.145,409.883C150.985,410.039 150.905,410.223 150.905,410.434C150.905,411.403 151.139,412.283 151.608,413.076C152.077,413.869 152.706,414.502 153.495,414.975C154.284,415.448 155.163,415.684 156.131,415.684C157.092,415.684 157.967,415.448 158.756,414.975C159.546,414.502 160.176,413.865 160.649,413.065C161.122,412.264 161.358,411.375 161.358,410.399Z" style="fill-rule:nonzero;"/>
        <path d="M119.59,421.824C121.222,421.824 122.76,421.512 124.201,420.887C125.642,420.262 126.914,419.399 128.015,418.297C129.117,417.196 129.98,415.924 130.605,414.483C131.23,413.041 131.543,411.504 131.543,409.871C131.543,408.239 131.23,406.701 130.605,405.26C129.98,403.819 129.117,402.547 128.015,401.446C126.914,400.344 125.64,399.481 124.195,398.856C122.75,398.231 121.211,397.918 119.578,397.918C117.945,397.918 116.408,398.231 114.967,398.856C113.525,399.481 112.256,400.344 111.158,401.446C110.06,402.547 109.199,403.819 108.574,405.26C107.949,406.701 107.636,408.239 107.636,409.871C107.636,411.504 107.949,413.041 108.574,414.483C109.199,415.924 110.062,417.196 111.164,418.297C112.265,419.399 113.537,420.262 114.978,420.887C116.42,421.512 117.957,421.824 119.59,421.824ZM114.187,410.422C114.187,409.438 114.427,408.545 114.908,407.744C115.388,406.944 116.021,406.309 116.806,405.84C117.592,405.371 118.437,405.137 119.343,405.137C119.398,405.137 119.455,405.139 119.513,405.143C119.572,405.147 119.621,405.153 119.66,405.16L118.816,404.293C118.754,404.223 118.703,404.139 118.664,404.041C118.625,403.944 118.605,403.84 118.605,403.731C118.605,403.52 118.679,403.338 118.828,403.186C118.976,403.033 119.16,402.957 119.379,402.957C119.48,402.957 119.58,402.981 119.677,403.028C119.775,403.074 119.859,403.133 119.929,403.203L122.25,405.571C122.39,405.719 122.463,405.906 122.467,406.133C122.47,406.36 122.398,406.543 122.25,406.684L119.906,409.028C119.75,409.184 119.574,409.262 119.379,409.262C119.16,409.262 118.976,409.188 118.828,409.039C118.679,408.891 118.605,408.707 118.605,408.489C118.605,408.278 118.683,408.094 118.84,407.938L120,406.778C119.89,406.762 119.75,406.754 119.578,406.754C118.89,406.754 118.265,406.92 117.703,407.252C117.14,407.584 116.693,408.031 116.361,408.594C116.029,409.156 115.863,409.781 115.863,410.469C115.863,411.164 116.029,411.793 116.361,412.356C116.693,412.918 117.14,413.367 117.703,413.703C118.265,414.039 118.89,414.207 119.578,414.207C120.265,414.207 120.89,414.039 121.453,413.703C122.015,413.367 122.463,412.918 122.795,412.356C123.127,411.793 123.293,411.164 123.293,410.469C123.293,410.242 123.375,410.049 123.539,409.889C123.703,409.729 123.902,409.649 124.136,409.649C124.355,409.649 124.549,409.729 124.717,409.889C124.885,410.049 124.968,410.242 124.968,410.469C124.968,411.461 124.726,412.367 124.242,413.188C123.758,414.008 123.107,414.662 122.291,415.151C121.474,415.639 120.57,415.883 119.578,415.883C118.578,415.883 117.672,415.639 116.859,415.151C116.047,414.662 115.398,414.004 114.914,413.176C114.429,412.348 114.187,411.43 114.187,410.422Z" style="fill-rule:nonzero;"/>
        <path d="M90.896,449.3L92.9,449.3C92.9,447.667 92.588,446.13 91.963,444.689C91.338,443.247 90.475,441.976 89.373,440.874C88.271,439.772 87,438.909 85.559,438.284C84.117,437.659 82.58,437.347 80.947,437.347C79.166,437.347 77.496,437.724 75.937,438.478C74.379,439.231 73.049,440.241 71.947,441.507C71.721,441.757 71.619,442.021 71.643,442.298C71.666,442.575 71.795,442.796 72.029,442.96C72.256,443.124 72.498,443.185 72.756,443.142C73.014,443.099 73.236,442.968 73.424,442.749C74.338,441.702 75.445,440.872 76.746,440.259C78.047,439.646 79.447,439.339 80.947,439.339C82.33,439.339 83.623,439.597 84.826,440.112C86.029,440.628 87.086,441.341 87.996,442.251C88.906,443.161 89.617,444.22 90.129,445.427C90.641,446.634 90.896,447.925 90.896,449.3ZM80.947,461.253C82.736,461.253 84.41,460.876 85.969,460.122C87.527,459.368 88.857,458.358 89.959,457.093C90.178,456.843 90.275,456.577 90.252,456.296C90.228,456.015 90.103,455.792 89.877,455.628C89.65,455.464 89.408,455.405 89.15,455.452C88.893,455.499 88.67,455.632 88.482,455.851C87.576,456.897 86.473,457.728 85.172,458.341C83.871,458.954 82.463,459.261 80.947,459.261C79.564,459.261 78.271,459.005 77.068,458.493C75.865,457.981 74.809,457.271 73.898,456.36C72.988,455.45 72.277,454.392 71.766,453.185C71.254,451.978 70.998,450.683 70.998,449.3L68.994,449.3C68.994,450.933 69.307,452.472 69.932,453.917C70.557,455.362 71.42,456.634 72.521,457.731C73.623,458.829 74.894,459.69 76.336,460.315C77.777,460.94 79.314,461.253 80.947,461.253ZM67.447,450.554L72.826,450.554C73.24,450.554 73.5,450.433 73.605,450.19C73.711,449.948 73.65,449.667 73.424,449.347L70.799,445.608C70.611,445.343 70.393,445.208 70.143,445.204C69.893,445.2 69.67,445.335 69.475,445.608L66.85,449.335C66.623,449.655 66.561,449.939 66.662,450.185C66.764,450.431 67.025,450.554 67.447,450.554ZM94.436,448.058L89.068,448.058C88.654,448.058 88.394,448.179 88.289,448.421C88.184,448.663 88.244,448.944 88.471,449.265L91.096,453.003C91.283,453.269 91.502,453.403 91.752,453.407C92.002,453.411 92.225,453.276 92.42,453.003L95.033,449.276C95.268,448.948 95.332,448.663 95.227,448.421C95.121,448.179 94.857,448.058 94.436,448.058Z" style="fill-rule:nonzero;"/>
        <path d="M119.59,460.977C121.222,460.977 122.76,460.665 124.201,460.04C125.642,459.415 126.914,458.552 128.015,457.45C129.117,456.348 129.98,455.077 130.605,453.636C131.23,452.194 131.543,450.657 131.543,449.024C131.543,447.391 131.23,445.854 130.605,444.413C129.98,442.971 129.117,441.7 128.015,440.598C126.914,439.497 125.64,438.634 124.195,438.009C122.75,437.384 121.211,437.071 119.578,437.071C117.945,437.071 116.408,437.384 114.967,438.009C113.525,438.634 112.256,439.497 111.158,440.598C110.06,441.7 109.199,442.971 108.574,444.413C107.949,445.854 107.636,447.391 107.636,449.024C107.636,450.657 107.949,452.194 108.574,453.636C109.199,455.077 110.062,456.348 111.164,457.45C112.265,458.552 113.537,459.415 114.978,460.04C116.42,460.665 117.957,460.977 119.59,460.977ZM119.59,458.985C118.207,458.985 116.914,458.727 115.711,458.212C114.508,457.696 113.451,456.983 112.541,456.073C111.631,455.163 110.92,454.106 110.408,452.903C109.896,451.7 109.64,450.407 109.64,449.024C109.64,447.641 109.896,446.348 110.408,445.145C110.92,443.942 111.629,442.884 112.535,441.97C113.441,441.055 114.496,440.343 115.699,439.831C116.902,439.319 118.195,439.063 119.578,439.063C120.961,439.063 122.254,439.319 123.457,439.831C124.66,440.343 125.718,441.055 126.633,441.97C127.547,442.884 128.261,443.942 128.777,445.145C129.293,446.348 129.551,447.641 129.551,449.024C129.551,450.407 129.295,451.7 128.783,452.903C128.271,454.106 127.56,455.163 126.65,456.073C125.74,456.983 124.681,457.696 123.474,458.212C122.267,458.727 120.972,458.985 119.59,458.985ZM111.48,449.13C111.332,449.341 111.287,449.55 111.345,449.757C111.404,449.964 111.57,450.067 111.843,450.067L113.086,450.067C113.273,451.153 113.672,452.108 114.281,452.932C114.89,453.757 115.656,454.401 116.578,454.866C117.5,455.331 118.519,455.563 119.636,455.563C120.363,455.563 121.074,455.444 121.769,455.206C122.465,454.968 123.066,454.637 123.574,454.216C123.855,453.989 124.025,453.739 124.084,453.466C124.142,453.192 124.07,452.946 123.867,452.727C123.664,452.509 123.435,452.407 123.181,452.423C122.927,452.438 122.687,452.532 122.461,452.704C122.039,453.032 121.603,453.284 121.154,453.46C120.705,453.636 120.199,453.723 119.636,453.723C118.855,453.723 118.135,453.563 117.474,453.243C116.814,452.923 116.254,452.487 115.793,451.936C115.332,451.386 115.015,450.762 114.843,450.067L116.074,450.067C116.347,450.067 116.515,449.964 116.578,449.757C116.64,449.55 116.597,449.341 116.449,449.13L114.539,446.493C114.383,446.274 114.187,446.161 113.953,446.153C113.718,446.145 113.519,446.259 113.355,446.493L111.48,449.13ZM115.371,445.274C115.582,445.501 115.812,445.604 116.062,445.585C116.312,445.565 116.554,445.47 116.789,445.298C117.211,444.97 117.644,444.72 118.09,444.548C118.535,444.376 119.043,444.29 119.613,444.29C120.386,444.29 121.103,444.448 121.763,444.764C122.424,445.081 122.984,445.514 123.445,446.065C123.906,446.616 124.222,447.239 124.394,447.934L123.093,447.934C122.82,447.934 122.654,448.038 122.595,448.245C122.537,448.452 122.582,448.661 122.73,448.872L124.629,451.52C124.785,451.731 124.98,451.843 125.215,451.854C125.449,451.866 125.648,451.755 125.812,451.52L127.687,448.872C127.843,448.661 127.892,448.452 127.834,448.245C127.775,448.038 127.609,447.934 127.336,447.934L126.164,447.934C125.968,446.848 125.566,445.893 124.957,445.069C124.347,444.245 123.582,443.6 122.66,443.136C121.738,442.671 120.722,442.438 119.613,442.438C118.879,442.438 118.164,442.559 117.468,442.802C116.773,443.044 116.172,443.376 115.664,443.798C115.383,444.016 115.215,444.264 115.16,444.542C115.105,444.819 115.176,445.063 115.371,445.274Z" style="fill-rule:nonzero;"/>
        <path d="M156.665,462.022C158.298,462.022 159.835,461.709 161.277,461.084C162.718,460.459 163.99,459.596 165.091,458.494C166.193,457.393 167.056,456.121 167.681,454.68C168.306,453.239 168.619,451.701 168.619,450.069C168.619,448.436 168.306,446.899 167.681,445.457C167.056,444.016 166.193,442.744 165.091,441.643C163.99,440.541 162.716,439.678 161.271,439.053C159.826,438.428 158.286,438.115 156.654,438.115C155.021,438.115 153.484,438.428 152.042,439.053C150.601,439.678 149.331,440.541 148.234,441.643C147.136,442.744 146.275,444.016 145.65,445.457C145.025,446.899 144.712,448.436 144.712,450.069C144.712,451.701 145.025,453.239 145.65,454.68C146.275,456.121 147.138,457.393 148.24,458.494C149.341,459.596 150.613,460.459 152.054,461.084C153.495,461.709 155.033,462.022 156.665,462.022ZM148.31,450.174L150.244,447.455C150.415,447.213 150.622,447.096 150.865,447.104C151.107,447.112 151.31,447.229 151.474,447.455L153.431,450.174C153.587,450.393 153.634,450.61 153.572,450.824C153.509,451.039 153.337,451.147 153.056,451.147L151.79,451.147C151.962,451.865 152.286,452.508 152.763,453.074C153.24,453.641 153.818,454.088 154.497,454.416C155.177,454.744 155.915,454.908 156.712,454.908C157.298,454.908 157.822,454.819 158.283,454.639C158.744,454.459 159.189,454.201 159.619,453.865C159.861,453.686 160.113,453.588 160.374,453.572C160.636,453.557 160.869,453.662 161.072,453.889C161.29,454.108 161.369,454.362 161.306,454.651C161.244,454.94 161.068,455.201 160.779,455.436C160.263,455.865 159.646,456.203 158.927,456.449C158.208,456.696 157.47,456.819 156.712,456.819C155.564,456.819 154.515,456.58 153.566,456.104C152.617,455.627 151.827,454.963 151.199,454.112C150.57,453.26 150.154,452.272 149.951,451.147L148.673,451.147C148.392,451.147 148.222,451.039 148.163,450.824C148.105,450.61 148.154,450.393 148.31,450.174ZM152.329,446.201C152.126,445.983 152.052,445.729 152.107,445.44C152.161,445.151 152.333,444.893 152.622,444.666C153.146,444.229 153.767,443.887 154.486,443.641C155.204,443.395 155.939,443.272 156.689,443.272C157.837,443.272 158.886,443.512 159.835,443.992C160.785,444.473 161.576,445.139 162.208,445.99C162.841,446.842 163.255,447.826 163.451,448.944L164.658,448.944C164.947,448.944 165.12,449.051 165.179,449.266C165.238,449.481 165.189,449.697 165.033,449.916L163.099,452.647C162.927,452.881 162.72,452.994 162.478,452.987C162.236,452.979 162.033,452.865 161.869,452.647L159.9,449.916C159.751,449.705 159.706,449.49 159.765,449.272C159.824,449.053 159.997,448.944 160.286,448.944L161.622,448.944C161.443,448.233 161.117,447.594 160.644,447.028C160.171,446.461 159.595,446.014 158.915,445.686C158.236,445.358 157.494,445.194 156.689,445.194C156.103,445.194 155.581,445.281 155.124,445.457C154.667,445.633 154.22,445.889 153.783,446.225C153.548,446.405 153.3,446.502 153.038,446.518C152.777,446.533 152.54,446.428 152.329,446.201Z" style="fill-rule:nonzero;"/>
        <path d="M209.515,414.5C209.515,413.383 209.33,412.362 208.959,411.436C208.587,410.51 208.044,409.711 207.33,409.039C206.615,408.367 205.738,407.848 204.699,407.481C203.66,407.114 202.472,406.93 201.136,406.93L193.261,406.93L189.628,407.094L189.839,407.633L192.734,405.16L196.121,401.856C196.207,401.762 196.275,401.656 196.326,401.539C196.376,401.422 196.402,401.289 196.402,401.141C196.402,400.836 196.306,400.588 196.115,400.397C195.923,400.205 195.671,400.11 195.359,400.11C195.07,400.11 194.82,400.219 194.609,400.438L187.718,407.199C187.601,407.309 187.513,407.43 187.455,407.563C187.396,407.696 187.367,407.836 187.367,407.985C187.367,408.125 187.396,408.262 187.455,408.395C187.513,408.528 187.601,408.649 187.718,408.758L194.609,415.52C194.82,415.739 195.07,415.848 195.359,415.848C195.671,415.848 195.923,415.752 196.115,415.561C196.306,415.369 196.402,415.121 196.402,414.817C196.402,414.668 196.376,414.535 196.326,414.418C196.275,414.301 196.207,414.196 196.121,414.102L192.734,410.809L189.839,408.324L189.628,408.864L193.261,409.028L201.312,409.028C202.648,409.028 203.769,409.254 204.675,409.707C205.582,410.16 206.265,410.791 206.726,411.6C207.187,412.408 207.418,413.336 207.418,414.383C207.418,415.438 207.187,416.379 206.726,417.207C206.265,418.035 205.582,418.69 204.675,419.17C203.769,419.651 202.648,419.891 201.312,419.891L198.617,419.891C198.296,419.891 198.039,419.992 197.843,420.196C197.648,420.399 197.55,420.645 197.55,420.934C197.55,421.223 197.648,421.469 197.843,421.672C198.039,421.875 198.296,421.977 198.617,421.977L201.324,421.977C203.074,421.977 204.558,421.666 205.777,421.045C206.996,420.424 207.923,419.553 208.56,418.432C209.197,417.311 209.515,416 209.515,414.5Z" style="fill-rule:nonzero;"/>
        <path d="M233.95,423.379C235.583,423.379 237.12,423.067 238.561,422.442C240.003,421.817 241.274,420.954 242.376,419.852C243.478,418.75 244.341,417.479 244.966,416.038C245.591,414.596 245.903,413.059 245.903,411.426C245.903,409.793 245.591,408.256 244.966,406.815C244.341,405.373 243.478,404.102 242.376,403C241.274,401.899 240.001,401.036 238.556,400.411C237.11,399.786 235.571,399.473 233.938,399.473C232.306,399.473 230.769,399.786 229.327,400.411C227.886,401.036 226.616,401.899 225.519,403C224.421,404.102 223.56,405.373 222.935,406.815C222.31,408.256 221.997,409.793 221.997,411.426C221.997,413.059 222.31,414.596 222.935,416.038C223.56,417.479 224.423,418.75 225.524,419.852C226.626,420.954 227.897,421.817 229.339,422.442C230.78,423.067 232.317,423.379 233.95,423.379ZM233.95,421.387C232.567,421.387 231.274,421.129 230.071,420.614C228.868,420.098 227.811,419.385 226.901,418.475C225.991,417.565 225.28,416.508 224.769,415.305C224.257,414.102 224.001,412.809 224.001,411.426C224.001,410.043 224.257,408.75 224.769,407.547C225.28,406.344 225.989,405.286 226.895,404.372C227.802,403.457 228.856,402.745 230.06,402.233C231.263,401.721 232.556,401.465 233.938,401.465C235.321,401.465 236.614,401.721 237.817,402.233C239.02,402.745 240.079,403.457 240.993,404.372C241.907,405.286 242.622,406.344 243.138,407.547C243.653,408.75 243.911,410.043 243.911,411.426C243.911,412.809 243.655,414.102 243.144,415.305C242.632,416.508 241.921,417.565 241.011,418.475C240.101,419.385 239.042,420.098 237.835,420.614C236.628,421.129 235.333,421.387 233.95,421.387ZM239.985,412.868C239.985,411.922 239.778,411.112 239.364,410.436C238.95,409.76 238.384,409.241 237.665,408.877C236.946,408.514 236.13,408.332 235.216,408.332L231.724,408.332L230.329,408.379L231.255,407.653L232.474,406.481C232.645,406.317 232.731,406.114 232.731,405.872C232.731,405.629 232.651,405.426 232.491,405.262C232.331,405.098 232.134,405.016 231.899,405.016C231.657,405.016 231.454,405.102 231.29,405.274L228.185,408.438C227.974,408.641 227.868,408.879 227.868,409.153C227.868,409.418 227.974,409.653 228.185,409.856L231.302,413.055C231.466,413.219 231.669,413.301 231.911,413.301C232.138,413.301 232.331,413.219 232.491,413.055C232.651,412.891 232.731,412.688 232.731,412.446C232.731,412.196 232.649,411.993 232.485,411.836L231.02,410.43L230.329,409.926L231.724,409.973L235.216,409.973C236.083,409.973 236.808,410.213 237.39,410.694C237.972,411.174 238.263,411.868 238.263,412.774C238.263,413.696 237.976,414.424 237.401,414.959C236.827,415.495 236.095,415.762 235.204,415.762L233.575,415.762C233.333,415.762 233.126,415.832 232.954,415.973C232.782,416.114 232.696,416.321 232.696,416.594C232.696,416.868 232.782,417.077 232.954,417.221C233.126,417.366 233.341,417.438 233.599,417.438L235.204,417.438C236.118,417.438 236.936,417.252 237.659,416.881C238.382,416.51 238.95,415.983 239.364,415.299C239.778,414.616 239.985,413.805 239.985,412.868Z" style="fill-rule:nonzero;"/>
        <path d="M275.204,423.25C276.836,423.25 278.373,422.938 279.815,422.313C281.256,421.688 282.528,420.825 283.629,419.723C284.731,418.622 285.594,417.35 286.219,415.909C286.844,414.467 287.157,412.93 287.157,411.297C287.157,409.664 286.844,408.127 286.219,406.686C285.594,405.245 284.731,403.973 283.629,402.872C282.528,401.77 281.254,400.907 279.809,400.282C278.364,399.657 276.825,399.344 275.192,399.344C273.559,399.344 272.022,399.657 270.58,400.282C269.139,400.907 267.87,401.77 266.772,402.872C265.674,403.973 264.813,405.245 264.188,406.686C263.563,408.127 263.25,409.664 263.25,411.297C263.25,412.93 263.563,414.467 264.188,415.909C264.813,417.35 265.676,418.622 266.778,419.723C267.879,420.825 269.151,421.688 270.592,422.313C272.034,422.938 273.571,423.25 275.204,423.25ZM281.438,412.774C281.438,413.743 281.223,414.58 280.793,415.288C280.364,415.995 279.776,416.539 279.03,416.922C278.284,417.305 277.438,417.497 276.493,417.497L274.84,417.497C274.575,417.497 274.354,417.42 274.178,417.268C274.002,417.116 273.914,416.899 273.914,416.618C273.914,416.344 274.002,416.133 274.178,415.985C274.354,415.836 274.567,415.762 274.817,415.762L276.493,415.762C277.407,415.762 278.161,415.487 278.754,414.936C279.348,414.385 279.645,413.633 279.645,412.68C279.645,411.743 279.344,411.028 278.743,410.536C278.141,410.043 277.395,409.797 276.504,409.797L272.918,409.797L271.477,409.75L272.192,410.266L273.692,411.707C273.864,411.872 273.95,412.082 273.95,412.34C273.95,412.598 273.868,412.811 273.704,412.979C273.539,413.147 273.34,413.231 273.106,413.231C272.848,413.231 272.637,413.145 272.473,412.973L269.25,409.68C269.032,409.454 268.922,409.207 268.922,408.942C268.922,408.676 269.032,408.43 269.25,408.204L272.461,404.946C272.547,404.852 272.641,404.784 272.743,404.741C272.844,404.698 272.961,404.676 273.094,404.676C273.336,404.676 273.539,404.76 273.704,404.928C273.868,405.096 273.95,405.309 273.95,405.567C273.95,405.817 273.86,406.024 273.68,406.188L272.438,407.395L271.477,408.145L272.918,408.098L276.504,408.098C277.45,408.098 278.293,408.286 279.036,408.661C279.778,409.036 280.364,409.571 280.793,410.266C281.223,410.961 281.438,411.797 281.438,412.774Z" style="fill-rule:nonzero;"/>
    </g>
</svg>
